<svg xmlns="http://www.w3.org/2000/svg" viewBox="0 0 32 32" x="0px" y="0px"><title>Shop Online</title><g data-name="Shop Online"><path d="M30,9a.77.77,0,0,0,0-.15l0,0a.3.3,0,0,0,0-.08L27.24,5.25V4.13A2.13,2.13,0,0,0,25.12,2H6.88A2.13,2.13,0,0,0,4.76,4.13V5.25L2.09,8.72,2,8.8v0A.8.8,0,0,0,2,9V9a2.62,2.62,0,0,0,2.68,2.53h.08V22.79a2.12,2.12,0,0,0,2.12,2.12h6.37l-.35,2.51a11,11,0,0,0-4,1.81.44.44,0,0,0-.14.48.44.44,0,0,0,.4.29H22.78a.43.43,0,0,0,.26-.77,10.89,10.89,0,0,0-3.95-1.81l-.34-2.51h6.37a2.12,2.12,0,0,0,2.12-2.12V11.52h.07A2.62,2.62,0,0,0,30,9S30,9,30,9ZM22.84,5.4l1.53,3.16H20.86L20.08,5.4Zm-3.64,0L20,8.56H16.43V5.4ZM15.58,8.56H12L12.8,5.4h2.78Zm-4.44,0H7.63L9.16,5.4h2.76ZM11,9.4a1.88,1.88,0,0,1-3.56,0Zm4.52,0A1.88,1.88,0,0,1,12,9.4ZM20,9.4a1.88,1.88,0,0,1-3.56,0Zm4.53,0A1.88,1.88,0,0,1,21,9.4Zm.75-.84L23.78,5.4h2.51l2.42,3.16ZM6.88,2.86H25.12a1.27,1.27,0,0,1,1.27,1.27v.41H5.6V4.13A1.27,1.27,0,0,1,6.88,2.86ZM5.71,5.4H8.22L6.68,8.56H3.29Zm-2.8,4H6.47a1.83,1.83,0,0,1-1.79,1.27A1.81,1.81,0,0,1,2.91,9.4Zm7.76,19.74a11.9,11.9,0,0,1,10.66,0Zm7.54-1.91a13.18,13.18,0,0,0-4.43,0l.33-2.32h3.78Zm6.91-3.17H6.88A1.28,1.28,0,0,1,5.6,22.79H26.39A1.27,1.27,0,0,1,25.12,24.06ZM12.43,21.3a.64.64,0,0,1,1.28,0,.64.64,0,1,1-1.28,0Zm5.6,0a.64.64,0,0,1,.64-.63.63.63,0,0,1,.63.63.64.64,0,0,1-.63.64A.64.64,0,0,1,18,21.3ZM19.74,16H12.08l-.33-1.27H20Zm-.17.86-.27,1.27H12.64l-.33-1.27Zm6.82,5.06H20a1.53,1.53,0,0,0,.14-.64,1.47,1.47,0,0,0-.43-1l.34-1.6h0L21,14.41h0l0-.19A1.55,1.55,0,0,1,22.48,13a.42.42,0,1,0,0-.84,2.36,2.36,0,0,0-2.28,1.75h-9a.43.43,0,0,0-.41.53l1.13,4.24a.41.41,0,0,0,.4.32h6.81l-.18.85a1.17,1.17,0,0,0-.27,0,1.49,1.49,0,0,0-1.48,1.49,1.53,1.53,0,0,0,.14.64H14.4a1.41,1.41,0,0,0,.16-.64,1.49,1.49,0,1,0-3,0,1.41,1.41,0,0,0,.16.64H5.6V11.37a2.67,2.67,0,0,0,1.35-1,2.77,2.77,0,0,0,4.52,0,2.78,2.78,0,0,0,4.53,0,2.77,2.77,0,0,0,4.52,0,2.78,2.78,0,0,0,4.53,0,2.73,2.73,0,0,0,1.34,1Zm.92-11.27A1.82,1.82,0,0,1,25.53,9.4h3.56A1.82,1.82,0,0,1,27.31,10.67Z"></path></g></svg>