<svg xmlns="http://www.w3.org/2000/svg" viewBox="0 0 128 128" x="0px" y="0px"><g><path d="M30.209,31.817l.043-.4.057-.371a14.16,14.16,0,0,0,.214-4.969,10.343,10.343,0,0,0-.407-1.454c-.121-.357-.157-.578-.085-.62s.249.1.492.392a4.778,4.778,0,0,1,.819,1.454,7.286,7.286,0,0,1,.414,2.446,16.418,16.418,0,0,1-.257,2.937l-.057.378-.05.349c-.021.242-.071.5-.085.713s-.007.428-.014.634c0,.143.007.286.021.428,2.616,5.026,4.926,10.929,9.026,14.779a13.221,13.221,0,0,0,17.759.8.6.6,0,0,1,.093-.064c2.153-3.2,3.857-6.716,3.564-10.709-.328-4.448-2.474-8.127-4.434-12.027a36.888,36.888,0,0,1-1.647-3.964,5.147,5.147,0,0,0-1.077-.591c-.32-.143-.663-.286-1.019-.442-.178-.086-.364-.172-.563-.279a5.16,5.16,0,0,1-.556-.335,5.222,5.222,0,0,1-1.633-1.96c-.335-.67-.556-1.248-.77-1.718-.385-.9-.834-1.483-.684-1.59.114-.086.713.185,1.418,1.155.685.9,1.212,2.338,2.346,3.115a4.475,4.475,0,0,0,.478.293c.149.085.313.171.477.256.35.178.678.35,1,.506.007.008.015.015.022.015-1.626-4.7-3.18-9.646-6.937-12.7-5.312-4.32-14.131-2.645-18.943,1.79-6.659,6.131-3.657,15.356.97,21.794A.1.1,0,0,1,30.209,31.817ZM45.63,48.693c-.264-.2.3-1.391,1.262-2.66,1-1.247,2.039-2.089,2.3-1.882s-.335,1.362-1.333,2.595C46.892,48.022,45.893,48.892,45.63,48.693Zm9.945.413a7.281,7.281,0,0,1-2.388,1.811,6.5,6.5,0,0,1-2.987.5c-.735-.093-1.184-.242-1.184-.406s.449-.321,1.169-.442a15.236,15.236,0,0,0,2.517-.756c1.818-.863,3.187-2.11,3.443-1.832C56.26,48.094,56.046,48.514,55.575,49.106Zm-1.618-6.145c1.839-.115,3.315.049,3.343.385s-1.447.705-3.258.812c-1.746.114-3.286.157-3.329-.185C50.67,43.659,52.046,43.1,53.957,42.961Zm-4.663-1.79.107-.043.05-.021.078-.021h.008l.014-.008h.028l.214-.042c.407-.036.649-.029.9-.043a1.384,1.384,0,0,0,.563-.128c.078-.022.114-.079.171-.122l.021-.014.007-.007.036-.05.1-.157a.953.953,0,0,0-.022-.834A2.334,2.334,0,0,0,50.314,38.6c-.392-.149-.656-.149-.671-.242-.021-.064.236-.235.763-.214a2.514,2.514,0,0,1,1.9,1.112,1.81,1.81,0,0,1,.149,1.776l-.092.164-.043.085-.007.007-.036.057-.021.022-.05.057a1.474,1.474,0,0,1-.421.363,2.407,2.407,0,0,1-.976.314c-.257.021-.521.043-.792.071l-.207.043-.035.014-.093.043-.378.178c-.256.121-.513.236-.791.385l-.414.214-.213.114-.022.007L47.8,43.2l-.014.007-.064.021-.129.036a3.507,3.507,0,0,1-2.2.128,2.148,2.148,0,0,1-.962-.677,3.579,3.579,0,0,1-.506-.9,12.807,12.807,0,0,1-.492-3c-.071-.827-.143-1.483-.193-1.925-.071-.456-.1-.734-.021-.762s.249.185.463.613a9.931,9.931,0,0,1,.585,1.946,19.173,19.173,0,0,0,.692,2.723,1.4,1.4,0,0,0,.812.863,2.462,2.462,0,0,0,1.44-.15l.1-.028.05-.014v-.008l.214-.107L48,41.756c.263-.143.57-.271.862-.4C49,41.292,49.152,41.235,49.294,41.171ZM29.325,21.152c-.064-.007-.214-.349-.143-1.091a2.084,2.084,0,0,1,.585-1.255,2.763,2.763,0,0,1,1.7-.727,16.327,16.327,0,0,1,4.327.449,8.024,8.024,0,0,0,2.3.179,1.233,1.233,0,0,0,.235-.05l.05-.015.021-.014.15-.071.3-.143.149-.071.1-.078a2.969,2.969,0,0,0,.77-.778c.913-1.311.941-3.179,1.754-4.769a3.484,3.484,0,0,1,1.889-1.754l.136-.057.021-.007.007-.007.05-.015.028-.007.065-.021.256-.057a5.382,5.382,0,0,1,.6-.071,3.311,3.311,0,0,1,1.077.156,3.839,3.839,0,0,1,1.511.97,6.535,6.535,0,0,1,.8,1c.363.592.492.949.427,1s-.335-.235-.8-.7A4.847,4.847,0,0,0,45.516,11.7a2.572,2.572,0,0,0-2.909,1.519,12.354,12.354,0,0,0-.692,2.281,7.9,7.9,0,0,1-1.069,2.681A3.875,3.875,0,0,1,39.684,19.3a3.4,3.4,0,0,1-.628.335l-.149.072-.043.014-.014.007-.065.029h-.014l-.1.035a2.287,2.287,0,0,1-.413.086,8.414,8.414,0,0,1-2.674-.257,19.55,19.55,0,0,0-4.056-.691,2.208,2.208,0,0,0-1.312.377,1.763,1.763,0,0,0-.577.863C29.446,20.753,29.418,21.166,29.325,21.152Z"></path><path d="M95.511,53.373l-.357.079c-.4.09-.817.153-1.232.217l-.643.1.113.4a13.846,13.846,0,0,1,.117,6.7l-.381,1.643,1.041-1.327A8.508,8.508,0,0,0,95.6,53.728Z"></path><path d="M18.075,109.57c-.321-.249-.592-.385-.77-.513s-.264-.2-.25-.243.129-.028.342.022a3.777,3.777,0,0,1,.913.328c.77.335,1.74,1.1,2.944,1.8a9.368,9.368,0,0,0,.927.457c.178.064.385.107.578.171l.306.078.257.05a16.149,16.149,0,0,0,2.631.171,13.108,13.108,0,0,0,2.859-.321,3.548,3.548,0,0,0,2.3-1.361,1.73,1.73,0,0,0,.2-.956,11.259,11.259,0,0,1-2.481-.1,3.187,3.187,0,0,1-.777-.271l-.157-.072a1.8,1.8,0,0,1-.2-.114c-.107-.071-.214-.135-.32-.214-.207-.156-.393-.335-.528-.449a1,1,0,0,0-.328-.178,29.64,29.64,0,0,0-4.392-.185,13.143,13.143,0,0,1-3.051-.35c-.677-.221-1.034-.385-1.02-.463s.414-.057,1.12.036a22.659,22.659,0,0,0,2.93-.022,22.921,22.921,0,0,1,4.606-.064,2.01,2.01,0,0,1,.819.378,5.759,5.759,0,0,0,.5.392,1.8,1.8,0,0,0,.243.157c.028.014.1.057.1.057l.156.071a2.082,2.082,0,0,0,.528.164,16.166,16.166,0,0,0,2.788.021l.477-.014.107.478a3.227,3.227,0,0,1-.271,2.281,3.4,3.4,0,0,1-1.433,1.333,6.245,6.245,0,0,1-1.647.592,12.657,12.657,0,0,1-2.68.278,5.524,5.524,0,0,0,3.187-.035,47.725,47.725,0,0,0,6.437-2.866c.628-.321,1.241-.642,1.847-.97-.463-.492-.934-.991-1.433-1.5A8.556,8.556,0,0,1,35,105.649a9.711,9.711,0,0,1-.742-2.132,15.526,15.526,0,0,1-.285-3.678c.079-2.068.271-3.316.428-3.323.178,0,.285,1.284.421,3.3a19.727,19.727,0,0,0,.513,3.444,9.394,9.394,0,0,0,.713,1.839,7.406,7.406,0,0,0,1.262,1.675c.57.6,1.1,1.184,1.625,1.761a22.342,22.342,0,0,0,5.269-3.985,6.342,6.342,0,0,1-5.618-5.126c-.82-4.42,1.119-6.887,3.643-10.059A25.9,25.9,0,0,0,36.4,90.877a5.767,5.767,0,0,0-.855.734c-.086.086-.164.171-.25.257-.092.121-.185.249-.285.378l-.143.2-.007.008v.007l-.064.107c-.085.142-.178.285-.264.435-.356.577-.734,1.183-1.126,1.818-.193.32-.342.584-.5.891a8.581,8.581,0,0,0-.385.948,8.429,8.429,0,0,0-.292,3.878,15.172,15.172,0,0,0,.905,3.273c.349.926.7,1.661.9,2.2.229.541.3.884.186.962s-.407-.1-.842-.506a11.111,11.111,0,0,1-1.055-1.283l.007.37-.67-.078a28.958,28.958,0,0,1-8.256-1.9,6.777,6.777,0,0,1-2.124-1.4,2.264,2.264,0,0,1-.414-.542c-.078-.135-.1-.221-.071-.242s.107.007.228.1.3.242.535.377a8.938,8.938,0,0,0,2.132,1.006,36.2,36.2,0,0,0,7.407,1.361q-.042-.715-.107-1.454a10.622,10.622,0,0,1-.606-1.9,9.078,9.078,0,0,1,.107-4.549,10.326,10.326,0,0,0-2.367.314c-.249.064-.492.128-.72.192s-.456.15-.67.221c-.428.129-.813.3-1.169.435a9.39,9.39,0,0,1-2.275.863c-.064-.093.628-.7,2-1.462a11.6,11.6,0,0,1,1.155-.577c.221-.093.442-.193.677-.293l.756-.263a9.674,9.674,0,0,1,2.994-.492c.071-.157.15-.321.221-.478.192-.371.435-.756.634-1.062.4-.578.785-1.127,1.155-1.661l-.064-.064-.092.035.035-.107a.153.153,0,0,1-.021-.035.663.663,0,0,1-.214-.164,4.518,4.518,0,0,0-3.4-1.369,20.622,20.622,0,0,0-4.413,1.369,14.6,14.6,0,0,0-4.106,2.83c-.906.884-1.44,1.583-1.59,1.476-.121-.086.114-.884.948-2.032a9.948,9.948,0,0,1,1.7-1.775A12.505,12.505,0,0,1,23.8,90.856c-.571.078-1.162.156-1.776.242a27.623,27.623,0,0,0-4.769,1.191,5.04,5.04,0,0,0-.813.328c-.235.1-.449.185-.62.249-.357.121-.571.157-.613.086s.092-.243.37-.485a6.647,6.647,0,0,1,.521-.428,3.973,3.973,0,0,1,.741-.5,15.26,15.26,0,0,1,5-1.625c.905-.136,1.768-.221,2.559-.271-5.61-3.123-14.33,1.411-16.982,6.715a.909.909,0,0,1,.335.635c.214,2.046.392,4.52,1.419,6.366,1.055,1.9,2.8,2.531,4.3,3.879,1.07.955,2.381,3,3.857,3.315.813.171,1.654.278,2.488.4C19.087,110.376,18.545,109.877,18.075,109.57Z"></path><path d="M67.588,98.156l-.249-.249-.086-.086-.029-.021-.057-.043a12.331,12.331,0,0,0-4.142-1.775c-.8-.214-1.511-.407-2.131-.585a5.333,5.333,0,0,1-1.547-.1,13.552,13.552,0,0,1-2.26-.72c-1.348-.513-2.51-1.027-3.5-1.5a11.173,11.173,0,0,1-2.224-1.4c-.478-.4-.7-.678-.621-.806s.442-.1,1.013.064,1.383.414,2.388.713c1.012.271,2.246.642,3.586,1.034a15.347,15.347,0,0,0,2,.52,2.229,2.229,0,0,0,1.49-.121c.022-.014.022.014.122-.085l.107-.107a1.117,1.117,0,0,0,.149-.243.385.385,0,0,0,.015-.342,1.562,1.562,0,0,0-.136-.264,3.646,3.646,0,0,0-.264-.349c-.235-.207-.435-.442-.684-.635a17.033,17.033,0,0,0-2.973-1.9c-.449-.257-.877-.435-1.248-.642-.363-.171-.684-.328-.948-.47-.549-.264-.848-.471-.813-.621s.385-.213,1-.206c.314.028.7.071,1.148.149a13.152,13.152,0,0,1,1.455.378,13.444,13.444,0,0,1,2.937,1.312,2.783,2.783,0,0,1-.264-1.2,3.1,3.1,0,0,1,.407-1.526c-5.832-1.974-12.919-1.618-17.1,3.351a1.042,1.042,0,0,1-.185.371c-1.854,2.346-4.156,4.413-3.807,7.714.335,3.194,2.117,5.112,5.4,5.112a.816.816,0,0,1,.72.378,18.388,18.388,0,0,0,8.605,5.318c1.711.435,7.051,1.711,6.046-1.932a.394.394,0,0,0-.228-.093,5.9,5.9,0,0,0-1.269,0c-.157.015-.328.022-.5.036l-.129.007h-.171l-.313-.014-.635-.043a4.386,4.386,0,0,1-.656-.128,6.457,6.457,0,0,1-2.267-1.013,15.6,15.6,0,0,1-1.412-1.1c-.349-.321-.677-.606-.884-.841s-.285-.435-.221-.57c.05-.114.2-.171.428-.186a4.012,4.012,0,0,1-.634-.841c-.314-.5-.435-.827-.328-.934s.435.022.926.349a9.7,9.7,0,0,0,.884.564c.164.1.343.206.528.313a3.534,3.534,0,0,0,.6.335,12.173,12.173,0,0,0,1.433.656c.271.093.527.221.82.307s.584.164.891.249a16.989,16.989,0,0,0,4.1.478c.813.007,1.562.029,2.239,0a6.292,6.292,0,0,0,1.789-.285A1.364,1.364,0,0,0,67,102.648c.008-.036.029-.114.029-.114v-.207c-.014-.072.007-.072-.014-.157L67,102.106a3.447,3.447,0,0,1-.456.085,10.48,10.48,0,0,1-3.465-.235,22.918,22.918,0,0,1-2.916-.848c-.442-.157-.905-.328-1.269-.471-.435-.157-.77-.271-1.176-.392-.777-.235-1.533-.463-2.217-.72a7.658,7.658,0,0,1-3.045-1.818c-.591-.67-.641-1.2-.527-1.248.15-.078.442.243,1.062.6a10.726,10.726,0,0,0,2.945,1c.684.136,1.433.293,2.231.449.4.086.891.2,1.3.314s.862.257,1.311.392c.87.25,1.783.492,2.717.663a9.129,9.129,0,0,0,2.759.171,3.042,3.042,0,0,0,.306-.057,1.065,1.065,0,0,0,.257-.064c.078-.036.107-.007.235-.078l.307-.157h.007l.021-.022.043-.035.093-.071c.057-.043.135-.079.15-.136a.617.617,0,0,1,.114-.128.79.79,0,0,1,.057-.143.875.875,0,0,0-.072-.677A3.669,3.669,0,0,0,67.588,98.156Z"></path><path d="M93.373,63.624l1.618-.73a5.865,5.865,0,0,0,3.12-3.788,4.84,4.84,0,0,0-.528-4.053L96.8,53.91l.1,1.383A9.352,9.352,0,0,1,94.558,62.3Z"></path><path d="M68.5,103.881a3.327,3.327,0,0,1-1.847,1.854,9.947,9.947,0,0,1-3.978.6,4.453,4.453,0,0,1,.086,2.289,17.434,17.434,0,0,1,2.217-.193.659.659,0,0,1-.257-.413c-.028-.128-.021-.214.021-.242s.122.007.221.092a.8.8,0,0,0,.4.186,1.389,1.389,0,0,0,.663,0,1.239,1.239,0,0,0,.67-.393l.563-.777.292,1.027a1.159,1.159,0,0,0,.507.642c.891.078,1.761.178,2.588.278a3.215,3.215,0,0,0,.37-.107.525.525,0,0,1-.142-.107,2.481,2.481,0,0,1-.692-1.59,1.355,1.355,0,0,1-.577.086.977.977,0,0,1-.8-.592,1.33,1.33,0,0,1-.085-.656,1.669,1.669,0,0,1,.278-.742c.114-.128.206-.185.271-.164.656.186-.172,1.084.741.842.4-.114.905-1.055,1.162-1.376l.114,1.5c.022.264.043.528.064.806a2.242,2.242,0,0,0,.3,1.105c.035.057.1.078.135.128l.015.021.021.007.021.015.15.057c.043-.057.078-.114.121-.179a4.424,4.424,0,0,0,.35-1.219c.128-.869.142-1.732.228-2.466a5.551,5.551,0,0,1,.413-1.733c.193-.4.392-.563.464-.52s.057.271.035.649a12.032,12.032,0,0,0,.029,1.632,21.157,21.157,0,0,1,.043,2.581,5.036,5.036,0,0,1-.4,1.647c-.035.071-.078.135-.114.2a3.526,3.526,0,0,0,.984-.955,6.189,6.189,0,0,0,.378-.641c.1-.25.214-.5.3-.77.086-.293.179-.6.264-.913a8.173,8.173,0,0,1,.407-1.034,12.633,12.633,0,0,1,1.19-1.975c.235-.32.485-.634.742-.948l.4-.463.363-.449a30.058,30.058,0,0,0,1.925-2.489c.364-.527.685-1.055.984-1.568a3.9,3.9,0,0,1-.513.235c-.178.057-.378.114-.6.179-.214.049-.442.106-.692.164-.242.042-.513.128-.8.2l-.214.057-.178.064c-.143.057-.285.114-.428.164-.306.121-.62.25-.955.378s-.77.257-1.162.364c-.193.028-.385.05-.578.085l-.149.015-.072.014-.078.007h-.029l-.05-.007a1.867,1.867,0,0,1-.4-.043,7.271,7.271,0,0,1-1.19-.449,1.4,1.4,0,0,0-.236-.043c-.014-.007-.043,0-.092.014-.107.029-.271.129-.578.243a1.946,1.946,0,0,1-.349.071l-.086.007h-.121a.4.4,0,0,1-.057-.007,1.294,1.294,0,0,1-.6-.214,1.945,1.945,0,0,1-.363-.335l-.036-.036-.007-.007-.036-.021-.021-.007-.072-.022-.142-.042a1.744,1.744,0,0,0-.271-.057c-.136-.022-.278-.036-.435-.05a1.382,1.382,0,0,1,.107.2,2.953,2.953,0,0,1,.25,2.2,5.112,5.112,0,0,1-.229.571,5.527,5.527,0,0,1-.349.477,1.591,1.591,0,0,1-.4.392l-.221.179-.107.078-.057.043-.029.021a.667.667,0,0,1-.064.036c.007.014.014.021.021.036a2.22,2.22,0,0,1,.193.606l.036.206a2.286,2.286,0,0,1,.007.3A3.207,3.207,0,0,1,68.5,103.881Z"></path><path d="M26.031,88.56a1.032,1.032,0,0,1,.157.143c.228,0,.449,0,.67-.008a7.317,7.317,0,0,1-1.283-.684c-1.155-.806-1.562-2.11-2.4-2.816a12.065,12.065,0,0,0-2.98-1.611c-1.019-.371-1.967-.663-2.78-.877-1.611-.435-2.652-.692-2.624-.863s1.077-.2,2.8.029A13.4,13.4,0,0,1,24,84.311a4.424,4.424,0,0,1,.364.363c.128.15.256.307.349.442.2.271.364.549.528.8a4.323,4.323,0,0,0,.976,1.183,4.087,4.087,0,0,0,.642.442,6.024,6.024,0,0,0,.62.328,11.957,11.957,0,0,0,1.234.5c.328.107.627.207.905.293.128.007.25.021.371.028-.079-.149-.164-.306-.235-.463a9.969,9.969,0,0,1-.756-2.2,21.449,21.449,0,0,1-.25-2.139c-.235-2.737-.313-5.154-.513-7.158-.342-4.006-1.155-6.323-.962-6.388a5.617,5.617,0,0,1,.691,1.612c.185.527.342,1.2.549,1.982.157.791.364,1.689.492,2.7.307,2.017.478,4.456.777,7.136.093.677.136,1.39.285,2.018a8.784,8.784,0,0,0,.7,1.939,7.606,7.606,0,0,0,.806,1.29c.135.05.27.1.406.164a9.411,9.411,0,0,1-.285-2.516A23.954,23.954,0,0,1,32.6,81.11a20.323,20.323,0,0,0,.649-4.919,17.156,17.156,0,0,0-2.06-8.092,30.818,30.818,0,0,0-3.237-4.763,9.569,9.569,0,0,1-1.305-1.718c.057-.05.663.406,1.647,1.4a23.977,23.977,0,0,1,3.636,4.676,17.292,17.292,0,0,1,2.431,8.484,20.785,20.785,0,0,1-.62,5.219,24.317,24.317,0,0,0-.848,5.283,7.72,7.72,0,0,0,.548,3.094c.065-.3.129-.6.186-.92.114-.77.185-1.554.371-2.424.634-3.065,1.482-5.7,1.889-7.642.42-1.918.556-3.2.741-3.18.143.014.321,1.248.093,3.315-.2,2.046-.927,4.777-1.54,7.743-.171.762-.264,1.611-.4,2.388-.043.221-.093.442-.143.663a29.115,29.115,0,0,1,9.119-2.346.468.468,0,0,1,.1,0,13.272,13.272,0,0,1,3.18-2.253c.464-.862,1.1-1.625,1.5-2.409.043-.114.1-.186.143-.328s.1-.293.128-.392a4.119,4.119,0,0,0,.129-.72,6.218,6.218,0,0,0-.079-1.455c-.157-.955-.42-1.839-.577-2.609a8.074,8.074,0,0,1-.235-1.882c.007-.449.092-.685.164-.7.092-.007.171.242.3.649.121.392.321.977.585,1.7a20.29,20.29,0,0,1,.855,2.637,6.44,6.44,0,0,1,.164,1.74,4.92,4.92,0,0,1-.15.962c-.05.179-.092.286-.135.435a5.207,5.207,0,0,1-.207.478,9.953,9.953,0,0,1-.7,1.119,18.717,18.717,0,0,1,8.328-.741c-1.091-4.905-4.157-8.883-6.944-12.983a.754.754,0,0,1-.442-.656c-2.41-3.621-4.506-7.378-4.749-11.977-2.709-.905-5.382-1.333-7.949.3a.9.9,0,0,1-1.312-.528c-1.368-3.85-.328-7.771-.206-11.735a.932.932,0,0,1,.114-.421c-.093-.149-.186-.292-.278-.442-1.7,1.127-2.3,3.437-4.021,4.392-.129.071-.257.136-.385.2l-.086.206c-.47,1.163-.87,2.232-1.155,3.194a12.36,12.36,0,0,0-.506,2.553,8.576,8.576,0,0,0,.021,1.7c.036.392.029.627-.035.648s-.164-.178-.314-.577a5.594,5.594,0,0,1-.335-1.782,10.593,10.593,0,0,1,.271-2.774c.121-.534.278-1.1.456-1.682-1.119.706-2.381,1.276-3.586,1.882-.442.214-.834.442-1.219.67s-.784.535-1.134.777c-.705.514-1.383.956-2.031,1.376a52.888,52.888,0,0,0-5.062,4.741,5.638,5.638,0,0,1,3.422.214,7.858,7.858,0,0,1,3.058,2.075c1.412,1.568,1.7,2.88,1.576,2.923-.178.085-.735-1.041-2.167-2.317a8.158,8.158,0,0,0-2.831-1.633,4.548,4.548,0,0,0-3.671.271l-.4.242c-.135.093-.285.236-.42.35l-.214.178-.043.043-.021.021-.093.1-.357.392c-.27.314-.563.606-.834.9A36.6,36.6,0,0,0,7.851,75.585c-1.419,5-.934,9.966-1.148,15.035a15.177,15.177,0,0,1,1.761-1.739c3.672-3.052,7.486-4.128,7.579-3.736.035.157-.784.549-2.061,1.333A39.466,39.466,0,0,0,9.241,89.8,12.893,12.893,0,0,0,6.5,92.788c-.022.042-.043.071-.064.107a3.947,3.947,0,0,0-.221.427,2.586,2.586,0,0,0-.029,1.64C9.84,88.824,19.764,84.061,26.031,88.56ZM38.743,60.114a7.162,7.162,0,0,1,3.315.121c.748.271,1.112.506,1.076.577-.035.093-.463.015-1.176-.085a9.456,9.456,0,0,0-2.474.135,5.554,5.554,0,0,1,.364,1.412c.085.727-.007,1.44.271,1.775a4.346,4.346,0,0,0,1.611,1.1c.706.357,1.426.749,2.153,1.169a23.893,23.893,0,0,1,4.192,3.009,11.986,11.986,0,0,1,2.659,3.344,7.735,7.735,0,0,1,.813,2.78c.007.663-.043,1.034-.121,1.041s-.193-.356-.342-.991a10.621,10.621,0,0,0-1.091-2.41c-1.177-1.932-3.658-3.978-6.709-5.732-.713-.406-1.412-.8-2.1-1.155l-.257-.135-.278-.157a5.59,5.59,0,0,1-.52-.321,3.164,3.164,0,0,1-.963-.941,2.44,2.44,0,0,1-.335-1.3c-.007-.378.008-.692-.014-.991a5.27,5.27,0,0,0-.371-1.64l-.2-.513Zm-7.158-2.873.014-.022-.007-.185a7.7,7.7,0,0,1,.328-2.51c.2-.727.428-1.39.642-1.982.427-1.19.812-2.124,1.069-2.773.264-.634.421-1,.5-.984s.086.407-.043,1.112-.392,1.69-.713,2.9c-.157.606-.335,1.262-.477,1.961a7.386,7.386,0,0,0-.193,2.153c.171.777.285.819,1.383,1.033a2.523,2.523,0,0,1,1.462.941,3.075,3.075,0,0,1,.221.336,2.036,2.036,0,0,1,.185.527,2.632,2.632,0,0,1,.014.913c-.078.549-.235,1.005-.306,1.411a1.873,1.873,0,0,0,.021,1.041l.036.1.014.014.043.072.185.27c.129.115.193.214.357.35a9.893,9.893,0,0,0,.955.741c.328.243.67.471.991.727a7.3,7.3,0,0,1,.9.82c.507.535.977,1.063,1.383,1.547a8.271,8.271,0,0,1,1.569,2.631,2.875,2.875,0,0,1,.171.827c.014.193,0,.292-.043.3s-.107-.079-.192-.243a6.206,6.206,0,0,0-.364-.691,10.81,10.81,0,0,0-1.775-2.253c-.435-.435-.913-.906-1.454-1.412a6.438,6.438,0,0,0-.827-.677c-.3-.214-.642-.428-.991-.663a11.662,11.662,0,0,1-1.077-.784,5.518,5.518,0,0,1-.577-.578l-.193-.278-.043-.064-.028-.036-.007-.021-.036-.057-.007-.007v-.015l-.093-.206a3.019,3.019,0,0,1-.092-1.676c.092-.506.235-.955.292-1.354a1.362,1.362,0,0,0,0-.507c-.007-.085-.036-.092-.036-.142a1.522,1.522,0,0,0-.157-.25,1.308,1.308,0,0,0-.8-.52,3.584,3.584,0,0,1-1.455-.535,1.863,1.863,0,0,1-.541-.755,2.539,2.539,0,0,1-.122-.343l-.021-.078-.043-.036-.057-.071ZM13.633,77.174a13.99,13.99,0,0,1,3.23.25,15.5,15.5,0,0,1,4.612,1.633,13.435,13.435,0,0,1,3.815,3.051c.05-.335.1-.685.149-1.027a15.7,15.7,0,0,0-.8-6.416A17.386,17.386,0,0,0,22.2,69.917c-1.825-2.488-3.6-3.394-3.487-3.579.036-.064.507.092,1.291.542a12.176,12.176,0,0,1,2.866,2.509A16.5,16.5,0,0,1,25.689,74.3a15.891,15.891,0,0,1,.948,6.9c-.064.414-.128.827-.185,1.234-.1.4-.207.8-.307,1.19l-.314,1.248-.748-1.091a12.79,12.79,0,0,0-4.135-3.807A16.663,16.663,0,0,0,16.692,78.2c-2.553-.684-4.214-.627-4.214-.813C12.478,77.317,12.885,77.224,13.633,77.174Z"></path><path d="M72.572,50.625A62.632,62.632,0,0,0,64.8,49.577a40.343,40.343,0,0,1-1.733,9.3c-.841,2.9-1.1,5.847-1.861,8.72.464.135.927.249,1.405.356a.091.091,0,0,1-.007-.043,1.824,1.824,0,0,1,.007-.278,3.244,3.244,0,0,1,.256-.9c.093-.228.186-.449.286-.677a5.064,5.064,0,0,0,.171-.713c.085-.342.114-.763.171-1.141a8.788,8.788,0,0,1,.235-1.233c.05-.186.107-.364.164-.542l.021-.064v-.022l.022-.057.007-.007.014-.028.057-.136.121-.264a9.2,9.2,0,0,1,.507-.991,21.907,21.907,0,0,1,2.167-3.115c1.369-1.64,2.31-2.552,2.431-2.46.143.107-.57,1.219-1.747,2.966a28.911,28.911,0,0,0-1.867,3.13,7.893,7.893,0,0,0-.435.934l-.107.242-.05.121-.007.015-.022.071c-.05.178-.1.364-.149.542a9.418,9.418,0,0,0-.179,1.048,9.987,9.987,0,0,1-.178,1.226,5.975,5.975,0,0,1-.2.841c-.128.328-.242.542-.335.77a2.272,2.272,0,0,0-.178.563l-.014.1c.007.022.014.036.007.05v.007l.029.057c.028.057.028.036.035.043a.822.822,0,0,0,.271.193q.6.063,1.2.085a10.1,10.1,0,0,1,.492-2.039C68.615,58.7,77.17,54.71,83.658,50.475a.782.782,0,0,1,.028-.535c.663-1.761,2.581-2.188,4.242-2.524a1.094,1.094,0,0,1,.257-.014.834.834,0,0,1,.549.107c.335.178,1.19.464,2.224.849a6.914,6.914,0,0,1,2.438-2.51c.892-.535,1.462-.563,1.519-.456.064.135-.456.449-1.077,1.048a8.962,8.962,0,0,0-1.782,2.267,9.545,9.545,0,0,1,1.169.47c.364.164.7.343,1.027.521a1.941,1.941,0,0,1,.214-.029h.242a3.219,3.219,0,0,1,.656-1.846,1.812,1.812,0,0,1,.784-.606c.214-.086.335-.093.364-.043.078.136-.3.4-.585,1.005a2.864,2.864,0,0,0-.249,1.155,2.352,2.352,0,0,0,.007.314c1.818-.043,3.643-.136,5.461-.15a11.815,11.815,0,0,1,3.4-2.409c-2.31-2.146-6.067-1.576-8.983-2.168a.826.826,0,0,1-.4-.2,1.292,1.292,0,0,1-.171-.122c-2.452-2.153-6.7-3.735-9.346-1.069a.794.794,0,0,1-.585.257,3.362,3.362,0,0,1,.143.934,3.847,3.847,0,0,1-.392,1.668q-.183.321-.343.556a1.766,1.766,0,0,1-.306.335c-.186.178-.321.25-.392.207s-.072-.193-.007-.442c.021-.122.085-.271.121-.428s.078-.335.128-.52a3.218,3.218,0,0,0-.47-2.71,3.008,3.008,0,0,0-.286-.32,10.3,10.3,0,0,0-5.91.035c.057.157.114.321.157.471a10.061,10.061,0,0,1,.335,2.146c.057,1.212-.028,1.925-.171,1.946s-.357-.692-.613-1.832c-.014-.043-.029-.1-.043-.15a4.657,4.657,0,0,1-.378,2.36C76,49.37,75.388,49.954,75.259,49.9c-.171-.085.214-.9.578-2.138a4.531,4.531,0,0,0,.071-2.139c-.028-.2-.114-.406-.164-.613L75.7,44.85c0-.014-.042-.093-.057-.143l-.135-.328a9.758,9.758,0,0,1-.556-1.511,3.371,3.371,0,0,1-.072-.464c-1.5-1.3-2.809-2.481-4.848-2.252,1.441,3.087,2.446,6.48,3.423,8.926C74.012,49.555,73.527,50.753,72.572,50.625Z"></path><path d="M44.9,53.576a11.824,11.824,0,0,1-3.236-1.64,21.852,21.852,0,0,1-4.342-4.206c-.242,2.845-.727,5.682-.057,8.47,4.228-2.011,8.184.328,12.348,1.739A12.636,12.636,0,0,1,44.9,53.576Z"></path><path d="M31.649,38.928l1,.482-.885-1.743c-.713-1.405-1.451-2.859-2.212-4.241L29.32,33l-.352.33c-.888.833.2,3.138.236,3.217h0A5.07,5.07,0,0,0,31.649,38.928Z"></path><path d="M67.731,80.09a2.982,2.982,0,0,1-1.362-.869,3.117,3.117,0,0,1-1.119-1.662,6.234,6.234,0,0,1-.214-1.269,8.137,8.137,0,0,1,.021-2.352v-.05c-.314-.022-.627-.043-.941-.079.021.685.036,1.483.029,2.353a12.661,12.661,0,0,1-.428,3.344c-.25.848-.563,1.312-.713,1.269-.171-.05-.15-.585-.128-1.405s.042-1.953.064-3.229a22.515,22.515,0,0,1,.157-2.46c-.521-.064-1.034-.143-1.548-.228a107.284,107.284,0,0,1,.079,11.129c.356.121.706.256,1.055.392.613-.321,1.3-.535,1.975-.806a2.565,2.565,0,0,1,.984-2.794C66.162,80.946,67.032,80.568,67.731,80.09Z"></path><path d="M59.853,84.076a90.753,90.753,0,0,0-.121-10.965c-2.353-.485-4.67-1.127-6.987-1.79,2.723,3.907,5.539,7.8,6.373,12.583C59.368,83.954,59.61,84.019,59.853,84.076Z"></path><path d="M65.464,92.46a.867.867,0,0,0-.043-.136c-.307-.777-1.348-1.112-1.048-2.131.028-.1.057-.193.085-.286l.1-.2.171-.328c.029-.086.072-.157.107-.257.036-.121.071-.235.107-.349a2.277,2.277,0,0,0,.021-.243l.022-.32q.01-.332,0-.642a11.183,11.183,0,0,0-.071-1.148,3.93,3.93,0,0,0-.086-.478,7.208,7.208,0,0,0-1.027.385,5.742,5.742,0,0,0-.648.756c-.3.428-1.084,1.319-.635,1.882.264.335.677.107.963.293.434.285.442.976.406,1.433a3.88,3.88,0,0,1-.264.976,2.558,2.558,0,0,1-.028,1.783,3.024,3.024,0,0,1-.45.777l-.028.043c-.007.014-.107.121-.107.121s-.057.05-.057.05l.371.042a15.3,15.3,0,0,1,2.36.471,3.294,3.294,0,0,1,.335.1l-.15-.307C65.62,93.985,65.663,93.2,65.464,92.46Z"></path><path d="M60.787,71.692a37.966,37.966,0,0,0,4.334.6c.007-.777.007-1.59.05-2.4-3.8-.142-7.179-1.8-10.779-2.866A4.256,4.256,0,0,0,51.561,69.3c2.973.862,5.932,1.739,8.948,2.338A1.242,1.242,0,0,1,60.787,71.692Z"></path><path d="M59.967,27.718c.014-.007.028-.021.043-.028.912-.364.37-3.622.278-4.335-.221-1.6-1.49-5.212-3.515-2.994a.51.51,0,0,1-.057.057,42.8,42.8,0,0,0,2.146,5.2C59.218,26.306,59.6,27.005,59.967,27.718Z"></path><path d="M93.251,52.738c.506-.074,1.01-.15,1.514-.257l.822-.174-.68-.5a6.479,6.479,0,0,0-.611-.4,22.258,22.258,0,0,0-2.64-1.277c-.445-.182-.908-.345-1.373-.508a19.155,19.155,0,0,1-1.985-.78l-.109-.053-.271.048a6.315,6.315,0,0,0-2.194.668l-.612.387.67.276c1.339.551,2.684,1.092,4.03,1.633l2.67,1.078Z"></path><path d="M59.774,50.539a.937.937,0,0,1-.285-.043c-.057.086-.107.164-.171.25a.87.87,0,0,1-.72.392,16.322,16.322,0,0,1-11.072,3c1.811,1.94,4.449,3.016,6.623,4.549A60.1,60.1,0,0,0,59.774,50.539Z"></path><path d="M55.1,60.328a43.308,43.308,0,0,0,.485,4.883,1.061,1.061,0,0,1-.057.485c1.333.428,2.645.927,3.971,1.369.278-1.269.129-2.567.471-3.814.442-1.619.927-3.23,1.383-4.848a39.928,39.928,0,0,0,1.661-8.741,8.72,8.72,0,0,0-.955.157,61.354,61.354,0,0,1-6.837,10.373A1.127,1.127,0,0,1,55.1,60.328Z"></path><path d="M62.911,47.93a33.089,33.089,0,0,1,8.484.713c-1.618-4.456-3.778-12.491-8.4-14.131,1.269,4.371,1.875,8.427.135,12.9C63.061,47.58,62.983,47.752,62.911,47.93Z"></path><path d="M119.59,53.512a18.078,18.078,0,0,0-8.5-4.755c-3.493-.842-5.689-.606-8.163,1.525a22.438,22.438,0,0,1,3.978.528,12.593,12.593,0,0,1,4.649,1.968c1.062.784,1.468,1.525,1.354,1.618-.135.128-.727-.364-1.8-.9a20.37,20.37,0,0,0-4.47-1.519c-1.769-.4-3.422-.641-4.642-.848a.776.776,0,0,1-.6.128l-.157.022c-1.555.007-3.1.078-4.656.128a1.721,1.721,0,0,1,.464,1.312c3.643,2.388,3.272,7.985.071,10.6a12.692,12.692,0,0,0,1.511-.128,6.527,6.527,0,0,0,1.269-.335,4.357,4.357,0,0,0,1.084-.578,4.627,4.627,0,0,0,1.447-1.725,8.076,8.076,0,0,0,.756-1.925,5.641,5.641,0,0,0,.171-1.661,2.493,2.493,0,0,0-.385-1.141,2.092,2.092,0,0,0-.542-.57c-.157-.121-.228-.207-.214-.236s.129-.028.321.029a1.715,1.715,0,0,1,.784.492,2.68,2.68,0,0,1,.671,1.326A5.434,5.434,0,0,1,104,58.8a8.4,8.4,0,0,1-.706,2.2,8.3,8.3,0,0,1-.656,1.133,6.162,6.162,0,0,1-.456.549c-.1.093-.15.157-.3.286l-.263.2a5.677,5.677,0,0,1-1.305.749,8.028,8.028,0,0,1-1.49.428,11.223,11.223,0,0,1-1.305.142,3.517,3.517,0,0,0,.378.1c.242.057.5.1.756.143l.185.028a.255.255,0,0,0,.071.014l.086.007.385.029c1.034.086,2.032.192,2.973.257,1.868.05,3.565.114,5,.121,2.88.057,4.669.192,4.669.356s-1.775.335-4.655.5c-1.433.1-3.166.129-5.105.129-.456-.022-.927-.043-1.4-.079,1.868.749,3.743,1.554,5.561,2.446a11.624,11.624,0,0,0,2.559.114,9,9,0,0,0,3.194-.849c.221-.128.442-.242.649-.363s.385-.278.577-.407a9.5,9.5,0,0,0,.963-.841,12.7,12.7,0,0,0,1.2-1.461c.278-.371.47-.564.549-.528s.021.292-.136.749a6.618,6.618,0,0,1-.976,1.789,6.976,6.976,0,0,1-.97,1.055c-.193.171-.392.357-.613.521-.235.149-.478.3-.727.463a8.986,8.986,0,0,1-3.622,1.077h-.128c.991.556,1.953,1.14,2.873,1.76a.917.917,0,0,1,.1-.071c3.129-1.889,6.5-3.465,8.391-6.787C122.384,61.133,122.769,56.713,119.59,53.512Z"></path><path d="M117.151,97.122c-.028-.092-.064-.2-.092-.292a1.722,1.722,0,0,1-.991-.078,2.014,2.014,0,0,1-.984-.97,3.9,3.9,0,0,1-.321-.9,7.72,7.72,0,0,1-.178-1.141,2.349,2.349,0,0,1-.67-.421,5.69,5.69,0,0,1-1.127-1.5c-.171-.3-.335-.642-.5-.977a2.577,2.577,0,0,1-.442.25,3.97,3.97,0,0,1-.884.292,4.892,4.892,0,0,1-.92.05,7.3,7.3,0,0,1-3.386-1.126,8.131,8.131,0,0,1-2.887-2.638c-.172-.285-.364-.613-.457-.813l-.178-.342c-.071-.129-.164-.257-.242-.385l-.122-.193-.057-.085c-.014-.022-.028-.036-.035-.05s-.015-.007-.036-.007l-.478-.1a6.167,6.167,0,0,1-.655-.185,5.479,5.479,0,0,1-.656-.271,6.155,6.155,0,0,1-1.127-.742,7.548,7.548,0,0,1-1.618-1.882A8.578,8.578,0,0,1,96.9,79.306a14.373,14.373,0,0,1-3.272-.6c-.307-.107-.607-.214-.9-.314-.278-.128-.542-.256-.8-.385a5.436,5.436,0,0,1-.891-.5,4.1,4.1,0,0,1,.021.414,4.759,4.759,0,0,1-.071.613c-.15.7-.321,1.29-.45,1.861-.1.834-.278,1.725-.392,2.666-.035.278-.064.563-.078.877a5.391,5.391,0,0,0,.043.863,17.8,17.8,0,0,0,.313,1.91,12.468,12.468,0,0,0,.606,1.954,6.034,6.034,0,0,0,.457.905,2.6,2.6,0,0,0,.278.364c.043.043.071.085.114.128l.235.171a2.224,2.224,0,0,0,.834.3,9.019,9.019,0,0,0,1.127.035,3.032,3.032,0,0,1,2.124.7,4.143,4.143,0,0,1,.535.535,8.552,8.552,0,0,1,.791,1.183,10.849,10.849,0,0,1,.514,1.326,18.4,18.4,0,0,1,.527,2.7c.079.528.157,1.034.25,1.49.035.236.114.492.178.742l.1.371.007.014v.007l.014.021.036.079.071.157.285.627c.114.2.257.385.378.577l.185.286.229.256.456.514a17.361,17.361,0,0,0,4.563,2.859l.591.278-.328.548a7.127,7.127,0,0,0-.955,2.1.708.708,0,0,0,.121.641,1.437,1.437,0,0,0,.735.293l.05.007a1.543,1.543,0,0,1,.171-.7,3.217,3.217,0,0,1,.955-1.012c.606-.414,1.027-.542,1.134-.421s-.15.513-.542,1.034a4.239,4.239,0,0,0-.542.87c-.05.149-.029.214-.022.206s-.014,0,.029.022l.157.1.035.007a.455.455,0,0,0,.15.021A36.327,36.327,0,0,0,110.849,107a20.359,20.359,0,0,0,7.058-7.9l-.278-.706C117.472,97.992,117.315,97.571,117.151,97.122ZM99.5,92.1c-.093.079-.542-.264-1.219-.948a13.492,13.492,0,0,1-1.882-2.6,1.036,1.036,0,0,1-.2.092,2.263,2.263,0,0,1-.991.143,3.224,3.224,0,0,1-1.732-.734,2.648,2.648,0,0,1-.6-.678l-.128-.235-.065-.157a3.262,3.262,0,0,1-.114-.47,3.461,3.461,0,0,1,.186-1.569,2.346,2.346,0,0,1,.449-.755.77.77,0,0,1,.142-.136l.122-.078a1.058,1.058,0,0,1,.492-.186,1.215,1.215,0,0,1,.213-.021c.186,0,.343.043.471.043a8.9,8.9,0,0,0-.542-1.69c-.207-.577-.207-.948-.128-.984s.285.25.606.692a9.522,9.522,0,0,1,.584.877,3.59,3.59,0,0,1,.492,1.44l.036.363-.364.114a8.3,8.3,0,0,1-1.133.15.239.239,0,0,0-.05.022l-.114.1-.057.05a.068.068,0,0,0-.007.036c0,.036-.086.178-.136.335a2.41,2.41,0,0,0-.085,1.034c.021.057.028.149.05.192l.064.157a.465.465,0,0,1,.05.064,1.405,1.405,0,0,0,.335.364,2.076,2.076,0,0,0,1.076.477.858.858,0,0,0,.792-.256l.62-.677.342.791C98.266,90.2,99.741,91.9,99.5,92.1Zm11.621,10.915a2.529,2.529,0,0,1-1.683.485,2.739,2.739,0,0,1-2.331-1.433,4.976,4.976,0,0,1-.278-3.158,3.954,3.954,0,0,1,.806-1.7,3.518,3.518,0,0,1-.9-.414,1.793,1.793,0,0,1-.42-.413l-.107-.171-.007-.022-.043-.071-.007-.014-.022-.065a.53.53,0,0,1-.042-.128,2.071,2.071,0,0,1-.015-.834,1.544,1.544,0,0,1,.521-1.019.537.537,0,0,1,.328-.107c.064.014.1.035.114.064s-.014.071-.064.114a.992.992,0,0,0-.107.178,1.751,1.751,0,0,0-.1.813,1.54,1.54,0,0,0,.114.542.1.1,0,0,0,.021.028l.015.022.128.149a.169.169,0,0,0,.107.086c.036.014.043.028.093.05a8.917,8.917,0,0,0,1.732.42l1.355.314-1.248.72A2.62,2.62,0,0,0,108,99.168a4.426,4.426,0,0,0,.129,2.46,1.762,1.762,0,0,0,.591.677,2.344,2.344,0,0,0,.82.35c1.148.242,1.84-.335,1.954-.179C111.533,102.526,111.448,102.755,111.12,103.011Z"></path><path d="M103.563,108.593a2.24,2.24,0,0,1-.036-.805,6.2,6.2,0,0,1,.72-1.961,16.39,16.39,0,0,1-4.384-2.745l-.542-.591-.271-.3-.235-.342c-.15-.228-.314-.449-.449-.684l-.357-.763-.085-.193-.043-.092-.015-.029c-.007-.014-.028-.071-.028-.071l-.007-.043-.107-.378c-.064-.249-.143-.485-.193-.77-.114-.563-.2-1.091-.271-1.618-.263-1.761-.527-3.429-1.525-4.577a2.43,2.43,0,0,0-.357-.364,2.5,2.5,0,0,0-.385-.256,2.213,2.213,0,0,0-.948-.179,9.494,9.494,0,0,1-1.29-.071,3.2,3.2,0,0,1-1.355-.542l-.235-.171c-.093-.093-.193-.192-.285-.292a4.5,4.5,0,0,1-.407-.549,6.542,6.542,0,0,1-.527-1.112,12.866,12.866,0,0,1-.592-2.161,16.637,16.637,0,0,1-.264-2.053,6.161,6.161,0,0,1,0-1.026c.029-.3.079-.614.129-.927.085-.464.178-.9.27-1.319.022-.421.058-.877.122-1.369.071-.585.2-1.24.292-1.9a1.167,1.167,0,0,0,.014-.221c-.021-.192-.05-.385-.085-.556-.029-.135-.064-.249-.1-.37a1.8,1.8,0,0,0-.285-.4c-.243-.249-.492-.442-.842-.748-.306-.25-.627-.563-.955-.891a9.9,9.9,0,0,1-1.625-2.267,7.907,7.907,0,0,1-.549-1.334c-.072-.235-.136-.449-.186-.656,0-.014-.007-.021-.007-.035a15.25,15.25,0,0,1-.513,1.44,8.159,8.159,0,0,1-2.709,3.586c-.186.121-.314.235-.542.364-.164.085-.292.164-.485.256a5.468,5.468,0,0,1-1.233.442,2.632,2.632,0,0,1-.806.043,1.9,1.9,0,0,1-.955-.378l-.064-.064a11.385,11.385,0,0,1-1.533,2.609,6.718,6.718,0,0,1-1.69,1.462l-.257.157a1.544,1.544,0,0,1-.221.107l-.434.192-.221.1-.107.05-.129.05-.064.021c-.157.064-.328.114-.506.171a5.711,5.711,0,0,1-1.148.243,2.354,2.354,0,0,1-1.583-.371,1.759,1.759,0,0,1-.513-.542,8.991,8.991,0,0,1-1.547,1.119c-.834.514-2.153,1.041-1.483,2.153.021.036.036.079.057.115a1.528,1.528,0,0,1,.435.213,2.236,2.236,0,0,1,.877,1.512.408.408,0,0,1,.007.092c.036.193.043.371.057.507a2.22,2.22,0,0,0,.043.363c.007.043.007.029,0,.05a1.237,1.237,0,0,0,.1.186.8.8,0,0,1,.114.149c.05.072.071.05.1.093.035-.014,0,.043.135-.014a6.217,6.217,0,0,0,.92-.542,3.166,3.166,0,0,0,1.254-1.248,5.911,5.911,0,0,0,.378-1.226c.072-.328.15-.513.236-.513s.164.185.235.513a3.525,3.525,0,0,1-.05,1.526A3.642,3.642,0,0,1,70.033,87.7a5.445,5.445,0,0,1-1.162.742,1.326,1.326,0,0,1-1.112-.036,3.1,3.1,0,0,1-.292-.228A1.74,1.74,0,0,1,67.3,88.1l-.114-.086-.064-.043c-.022-.021-.086-.092-.086-.092-.007-.015-.05-.072-.05-.072a1.663,1.663,0,0,1-.142-.249,2.45,2.45,0,0,1-.129-.856c0-.185.007-.385.007-.584,0-.022-.014-.05-.014-.072s-.035-.064-.035-.064c-.043-.043-.058-.114-.129-.157a4.19,4.19,0,0,1-.449-.313l-.028-.036c-.172.078-.343.15-.521.214a4.289,4.289,0,0,1,.185.577,10.545,10.545,0,0,1,.207,1.248c.022.221.043.449.05.691.007.122.007.243.007.364a2.5,2.5,0,0,1-.028.471c-.029.114-.057.235-.079.349-.035.135-.1.292-.149.442a3.5,3.5,0,0,0-.243.6c0,.064,0,.128.136.314.078.128.164.164.47.377a1.647,1.647,0,0,1,.442.45.561.561,0,0,1,.093.156,1.549,1.549,0,0,1,.128.756,3.508,3.508,0,0,0,.178,1.433l.129.335.178.357a3.154,3.154,0,0,0,1.034,1.126,2.949,2.949,0,0,0,.513.214,3,3,0,0,0,.585.093,6.646,6.646,0,0,1,.784.085,3.934,3.934,0,0,1,.413.093l.193.071.1.029c.271.092.513.47.77.513s.477-.128.72-.192a1.55,1.55,0,0,1,.556-.036l.071.007a.418.418,0,0,1,.071.014l.079.022a.825.825,0,0,1,.178.05c.67.249,1.312.848,2.06.67.649-.15,1.327-.556,2-.742.157-.042.321-.085.47-.128.093-.021.129-.043.25-.064.435-.214.948-.471,1.583-.72a7.364,7.364,0,0,1,1.1-.357,3,3,0,0,1,1.475-.014l.628.178-.307.613a23.519,23.519,0,0,1-1.412,2.588,24.7,24.7,0,0,1-1.953,2.624l-.406.485-.378.435c-.243.292-.485.584-.706.876a13.309,13.309,0,0,0-1.141,1.74,6.242,6.242,0,0,0-.385.856c-.121.32-.235.627-.349.926a7.591,7.591,0,0,1-.428.877,6.532,6.532,0,0,1-.542.742,3.875,3.875,0,0,1-1.219.934,101.212,101.212,0,0,1,23.313,6.445c1.077-.949,2.182-1.883,3.33-2.752a12.015,12.015,0,0,1-2.175.328,14.132,14.132,0,0,1-1.554,0c-.485-.036-.962-.086-1.412-.136a13.576,13.576,0,0,1-2.395-.513,7.136,7.136,0,0,1-.9-.371,5.09,5.09,0,0,1-.642-.42c-.264-.279-.378-.471-.328-.542s.278-.029.627.128c.186.05.393.078.614.15.249.043.534.092.848.149.642.079,1.412.157,2.281.2.442.021.906.043,1.383.057.407-.014.991.021,1.448-.021a13.773,13.773,0,0,0,4.819-1.148c.136-.064.257-.121.378-.185.357-.307.72-.628,1.1-.963a2.052,2.052,0,0,1-.385-.264A1.49,1.49,0,0,1,103.563,108.593ZM78.425,94.577a9.909,9.909,0,0,1-4.513.164,8.411,8.411,0,0,1-4.021-2.174c-.756-.842-1.077-1.462-.97-1.576s.692.314,1.562.963a11.385,11.385,0,0,0,3.685,1.611,15.083,15.083,0,0,0,4.1.178c1.069-.128,1.768-.185,1.818-.014C80.136,93.878,79.523,94.221,78.425,94.577Zm3.821,9.832a3.792,3.792,0,0,1,.578-1.049c.078-.092.156-.185.242-.285s.192-.171.3-.263a2.014,2.014,0,0,1,.385-.264,1.916,1.916,0,0,1,1.519-.207c.328.093.649.228.912.307a1.954,1.954,0,0,0,.385.085.359.359,0,0,1,.122.007,1.194,1.194,0,0,0,.242-.043l.086-.014a.1.1,0,0,0,.028-.014l.043-.014c.05-.029.121-.05.135-.072s.022-.014.029-.021a2.342,2.342,0,0,0-.371-.649c-.114-.157-.235-.313-.356-.477a3.186,3.186,0,0,1-.392-.678,2.794,2.794,0,0,1-.079-.271l-.007-.078-.007-.036v-.114c0-.014.007-.064.007-.064a.977.977,0,0,1,.449-.713,1.837,1.837,0,0,1,.941-.221,7.579,7.579,0,0,1,1.39.15,3.705,3.705,0,0,1,1.811.634,4.22,4.22,0,0,1,1.184,1.583,3.254,3.254,0,0,1,.285,2.174,1.623,1.623,0,0,1-.913,1.034,1.886,1.886,0,0,1-.549.15,2.6,2.6,0,0,1-.62,1.134,2.089,2.089,0,0,1-1.846.648,2.777,2.777,0,0,1-.35-.092l-.164-.043-.085-.029a.192.192,0,0,0-.05-.028l-.064-.029a.725.725,0,0,0-.121-.071,1.583,1.583,0,0,1-.592-.841c-.079-.271-.107-.485-.15-.628a.225.225,0,0,0-.036-.092c-.014,0-.021,0-.057.021a2.516,2.516,0,0,0-.349.242,4.082,4.082,0,0,1-.47.321,1.065,1.065,0,0,1-.842.114l-.028-.007a.99.99,0,0,1-.442-.392,1.263,1.263,0,0,1-.086-.278c-.007-.071-.007-.15-.007-.214.014-.121.029-.214.043-.278,0-.028,0-.021.014-.035a.62.62,0,0,0-.007-.107,1.064,1.064,0,0,0-.093-.279.507.507,0,0,0-.142-.156.707.707,0,0,0-.528.007,1.971,1.971,0,0,0-.52.264c-.057.042-.1.085-.15.121-.093.121-.171.235-.242.335-.293.485-.371.805-.464.805C82.132,105.407,82.046,105.036,82.246,104.409ZM94.5,103.246l-.071.428-.043.214-.021.114-.007.05-.007.007-.022.071-.007.008-.007.028-.143.357a6.45,6.45,0,0,1-.869,1.518,8.242,8.242,0,0,1-2.824,2.217,7.488,7.488,0,0,1-1.732.606c-.314.043-.613.086-.92.122-.035.007.007.007-.1.007h-.05l-.1-.007-.207-.008-.4-.014c-.535-.028-1.07-.043-1.576-.085s-.984-.072-1.454-.1a6.719,6.719,0,0,0-.713.071c-.228.036-.4.071-.67.107a3.647,3.647,0,0,1-1.59-.028c-.107-.036-.207-.057-.321-.1-.135-.072-.271-.15-.406-.228a1.271,1.271,0,0,1-.328-.286,1.232,1.232,0,0,1-.25-.335,2.356,2.356,0,0,1-.271-1.418,6.339,6.339,0,0,1,.635-2.054,10.789,10.789,0,0,1,.784-1.354c.478-.7.806-1.034.877-.991.086.05-.1.485-.428,1.24-.164.378-.356.842-.549,1.383a6.422,6.422,0,0,0-.385,1.826,1.474,1.474,0,0,0,.207.834c.021.064.086.1.128.142s.086.1.15.114a.874.874,0,0,1,.15.093c.085.028.206.05.306.078a2.7,2.7,0,0,0,1.1-.064c.193-.028.485-.1.735-.142a6.6,6.6,0,0,1,.734-.107c1,.035,2.06.071,3.158.107l.4.014H87.6l.1.007h.029a.159.159,0,0,0,.028-.007c.235-.036.478-.064.72-.1a7.318,7.318,0,0,0,1.433-.513,7.212,7.212,0,0,0,2.381-1.84,4.7,4.7,0,0,0,.713-1.19l.157-.357.05-.249.064-.314c.014-.1.007-.207.014-.306a3.138,3.138,0,0,0-.834-2.154,5.3,5.3,0,0,0-1.775-1.276,5.588,5.588,0,0,0-3.229-.42c-.186.042-.357.078-.5.107s-.278.107-.385.135c-.213.071-.335.086-.356.05s.057-.135.221-.285a3.293,3.293,0,0,1,.335-.243c.15-.078.335-.164.542-.263a5.181,5.181,0,0,1,2.73-.2,11.525,11.525,0,0,0-1.6-.77,8.868,8.868,0,0,0-1.589-.406c-.892-.164-1.583-.114-1.612-.314-.021-.157.507-.535,1.647-.62a5.922,5.922,0,0,1,1.9.171,7.5,7.5,0,0,1,3.921,2.481,6.313,6.313,0,0,1,.863,1.468,4.164,4.164,0,0,1,.934,2.539C94.5,102.954,94.516,103.1,94.5,103.246Z"></path><path d="M57.122,111.467a.971.971,0,0,1,.385-.086c.05-.029.1-.064.15-.093a1.252,1.252,0,0,1,.192-.1c.043-.029.079-.058.122-.086a1.439,1.439,0,0,0,.142-.15,1.652,1.652,0,0,1-.178-.014,20.96,20.96,0,0,1-12.056-5.568,24.4,24.4,0,0,1-6.616,5.09l-.071.065-.014-.015c-2.175,1.2-4.47,2.217-6.695,3.251a11.308,11.308,0,0,1-5.917,1.169c-2.175-.185-4.092-1.589-6.253-2.046-.791,1.269-1.39,5.376.243,5.668,1.426.257,2.88.378,4.313.606A93.418,93.418,0,0,0,36.1,120.492a.816.816,0,0,1,.342-.292,37.055,37.055,0,0,1,10.908-3.75C51.355,115.88,53.586,112.992,57.122,111.467Z"></path><path d="M53.836,65.511c-.236-1.64-.442-3.273-.514-4.92a26.372,26.372,0,0,1-6.381-1.946,21.215,21.215,0,0,0,3.53,9.275A6.249,6.249,0,0,1,53.836,65.511Z"></path><path d="M107.313,75.492l-.007.007v.007l.007-.007Z"></path><polygon points="95.685 71.314 95.685 71.343 95.692 71.35 95.692 71.343 95.685 71.314"></polygon><path d="M110.7,73.018c-.142-.021-.292-.036-.442-.071-.206,0-.442.078-.67.1,0,.008-.028.029-.05.043l-.007.022h-.014l.021-.022.014-.043h.029v-.007l-.036-.021h-.071c-.043.014-.1.014-.135.028a1.286,1.286,0,0,0-.207.086c-.1.071-.1.071-.121.193a2.078,2.078,0,0,0,.085.691c.064.285.143.578.2.891l.142.742-.713-.036c-.484-.028-.812-.078-1.147-.071a1.186,1.186,0,0,0-.257.028,2.116,2.116,0,0,0,.257.613c.135.236.292.457.427.656.578.8.97,1.234.9,1.348s-.685-.143-1.455-.856a5.494,5.494,0,0,1-.606-.649,2.547,2.547,0,0,1-.542-1.062,1.06,1.06,0,0,1,.05-.5l.029-.071.014-.036L106.4,75v-.007l.043-.064.043-.057a1.054,1.054,0,0,1,.271-.229,1.925,1.925,0,0,1,.755-.2c.15-.014.3-.014.457-.014a1.324,1.324,0,0,1-.036-.136,3.049,3.049,0,0,1-.114-1.141,1.525,1.525,0,0,1,.221-.613,1.592,1.592,0,0,1,.471-.435,2.231,2.231,0,0,1,.306-.142,126.866,126.866,0,0,0-16.59-7.172,7.193,7.193,0,0,1-5.254,3.165,3.361,3.361,0,0,0-.635.357,1.06,1.06,0,0,1-.092.078l-.057.071.007.007.007.008c0,.007,0,0-.007.014V68.6a1.415,1.415,0,0,0,.014.228,7.644,7.644,0,0,0,.2,1.133c.049.2.092.4.142.6s.121.414.178.592a6.979,6.979,0,0,0,.471,1.126,9.429,9.429,0,0,0,1.4,1.99c.136.142.271.285.414.42a2.964,2.964,0,0,1,.221-1.654,2.847,2.847,0,0,1,1.148-1.3,2.331,2.331,0,0,1-.628-.7.868.868,0,0,1-.128-.506c.007-.107.028-.171.071-.186.086-.042.214.229.442.393a5.2,5.2,0,0,0,1.326.691l.891.371-.955.435a2.152,2.152,0,0,0-1.133,1.219,1.934,1.934,0,0,0,.263,1.853c.05.065.122.129.179.193l.007.007.014.014.071.05.136.114a2.176,2.176,0,0,0,.456.236,2.706,2.706,0,0,0,1.055.2,4.79,4.79,0,0,0,1.918-.4c1.077-.449,1.547-1.062,1.7-.962.135.049-.128.955-1.3,1.711a5.225,5.225,0,0,1-.941.47c.079.014.157.036.243.05a16.027,16.027,0,0,0,3.8.214l1.026-.057.071,1.112a6.477,6.477,0,0,0,1.106,3.094,4.306,4.306,0,0,0,2.623,2l.057.015a6.1,6.1,0,0,1-.413-.9l-.064-.214-.029-.128-.014-.085-.057-.335a4.958,4.958,0,0,1-.036-.792,2.434,2.434,0,0,1,.592-1.554,2.209,2.209,0,0,1,1.447-.62c.171-.007.335.007.492.014a11.554,11.554,0,0,1-.364-1.982c0-.7.086-1.077.179-1.077s.221.371.377.977c.207.613.535,1.447.949,2.538l.278.756-.856-.128c-.62-.093-1.361-.065-1.654.306a2.3,2.3,0,0,0-.1,1.939,6.061,6.061,0,0,0,1.376,2.146c.628.535.82.464,1.212-.1l.478-.684.342.642a4.552,4.552,0,0,0,1.312,1.775,1.19,1.19,0,0,0,.513.135c.164-.014.257-.007.271.036s-.035.121-.157.228a1.1,1.1,0,0,1-.805.107,2.951,2.951,0,0,1-1.512-1.2,1.445,1.445,0,0,1-.748.457,1.6,1.6,0,0,1-.407.028l.029.043c.164.342.278.535.4.756a6.322,6.322,0,0,0,2.046,1.974,5.861,5.861,0,0,0,2.353,1.013,1.816,1.816,0,0,0,.934-.064,1.953,1.953,0,0,0,.734-.457l.97-.812.428.934a18.707,18.707,0,0,1,.777,2.231,7.917,7.917,0,0,0,.506,1.269,16.89,16.89,0,0,1,.114-1.732,11.237,11.237,0,0,1,.264-1.391,5.571,5.571,0,0,1-1.034-2.217,5.784,5.784,0,0,1-.029-2.367,1.188,1.188,0,0,1-.384-.157,1.985,1.985,0,0,1-.721-.834,3.522,3.522,0,0,1-.335-1.5,2.392,2.392,0,0,1,.164-.977c.093-.214.193-.285.25-.271s.064.15.093.35a7.079,7.079,0,0,0,.156.82,3.9,3.9,0,0,0,.478,1.126,1.058,1.058,0,0,0,.414.392.47.47,0,0,0,.42-.028l1.134-.492-.4,1.19a4.772,4.772,0,0,0-.065,2.488,4.826,4.826,0,0,0,1.091,2.2l.093.107.021.029a.007.007,0,0,0,.007.007l.05.05a1.736,1.736,0,0,0,.214.164,1.065,1.065,0,0,0,.335.164.735.735,0,0,0,.635-.128,2.021,2.021,0,0,0,.677-1.077c.093-.328.121-.535.214-.549.071-.014.207.178.249.585a2.124,2.124,0,0,1-.577,1.682,1.617,1.617,0,0,1-1.348.471,2.017,2.017,0,0,1-.777-.264c-.028-.021-.042-.029-.064-.043.014.15.036.314.05.485.079.677.15,1.483.278,2.338a9.085,9.085,0,0,0,.264,1.269,2.989,2.989,0,0,0,.207.521.5.5,0,0,0,.064.1c.035-.015.078-.036.121-.05l.178-.121,1.1-.756.3,1.176c.121.492.235.956.349,1.405.093-.1.171-.186.257-.278a20.05,20.05,0,0,0,1.162-7.365A18.54,18.54,0,0,0,110.7,73.018Zm-7.314,2.046a2.129,2.129,0,0,1-.314.87,2.167,2.167,0,0,1-1,.82,3.945,3.945,0,0,1-3.116-.278,4.608,4.608,0,0,1-1.5-1.148,2.8,2.8,0,0,1-.542-.963,1.9,1.9,0,0,1-.064-.855,5.379,5.379,0,0,1-.948-.271,2.217,2.217,0,0,1-.82-.57,2,2,0,0,1-.428-.877l-.036-.171-.156-.043-.171-.107v-.029l.142-.1a2.888,2.888,0,0,1,.093-.421,2.073,2.073,0,0,1,.313-.827,1.464,1.464,0,0,1,.6-.578c-.4-.363-.8-.648-1.069-.891-.414-.335-.62-.563-.57-.641s.342,0,.841.206a7.452,7.452,0,0,1,1.989,1.227l.6.534-.863.221a.8.8,0,0,0-.6.428,1.421,1.421,0,0,0-.085.677V71.3l.007-.007.007-.007c0,.014.007.035.014.078l-.014-.014.043.164c.028.107.057.256.1.256.05.036.028.086.1.129a1.219,1.219,0,0,0,.407.249,12.079,12.079,0,0,0,1.426.335l.734.164-.364.735-.064.142a1.091,1.091,0,0,0,.293,1.062,3.836,3.836,0,0,0,1.1.906,3.345,3.345,0,0,0,2.332.456,1.749,1.749,0,0,0,1.14-1.012c.186-.378.257-.635.357-.621C103.356,74.323,103.456,74.579,103.385,75.064Z"></path><path d="M107.306,75.527c.014-.014.014-.021.007-.014l-.007.007Z"></path><path d="M97.332,117.969a12.752,12.752,0,0,1-3.137,4.163q2.588.064,5.169.086c.05,0,.085.007.128.007a22.117,22.117,0,0,0,2.816-.649A7.2,7.2,0,0,0,97.332,117.969Z"></path><path d="M75.566,111.246c-4.192-.649-12.22-2.56-15.842.634,2.432,1.847,6.153,2,9.012,2.56,3.65.727,7.208,1.974,10.829,2.866,3.772.933,9.411.627,12.6,3.308a1.5,1.5,0,0,0-.364-.863,6.655,6.655,0,0,0-2.26-1.576,31.262,31.262,0,0,0-4.313-1.582c-1.376-.407-2.631-.742-3.686-1.02-2.1-.549-3.422-.934-3.379-1.112.028-.15,1.383-.064,3.557.285,1.091.171,2.382.421,3.8.777a25.779,25.779,0,0,1,4.549,1.569,10.139,10.139,0,0,1,1.426.819,5.03,5.03,0,0,1,1.233,1.134,2.644,2.644,0,0,1,.556,1.533,11.306,11.306,0,0,0,2.5-3.479A99.061,99.061,0,0,0,75.566,111.246Z"></path><path d="M72.907,117.377c-2.809-.806-6.467-1.084-9.7-1.975.242.121.491.242.741.356a48.829,48.829,0,0,0,6.994,2.788c.92.242,1.668.471,2.21.578.528.135.82.242.82.327s-.321.129-.87.136a12.674,12.674,0,0,1-2.353-.214,29.951,29.951,0,0,1-7.314-2.531c-.621-.278-1.205-.592-1.783-.884-.328-.171-.549-.307-.827-.435s-.549-.264-.82-.392a10.271,10.271,0,0,1-1.554-.905,3.4,3.4,0,0,1-.8-.8c-.948.7-1.918,1.7-1.177,2.759a8.461,8.461,0,0,0,3.572,2.431,70.3,70.3,0,0,0,7.664,2.6h.122c7.749.171,15.5.6,23.248.834-2.1-1.733-5.625-1.9-8.141-2.267A78.5,78.5,0,0,1,72.907,117.377Z"></path><path d="M84.9,103.567a1.624,1.624,0,0,1,.278.606c.007.05.014.064.022.136a1.09,1.09,0,0,1,0,.214.617.617,0,0,1-.008.128,3.272,3.272,0,0,0,.321-.264,4.343,4.343,0,0,1,.464-.364,1.139,1.139,0,0,1,.926-.149,1.062,1.062,0,0,1,.521.335,1.334,1.334,0,0,1,.242.449c.086.257.129.463.186.606.157.3.028.185.591.321a.982.982,0,0,0,.671-.321,1.509,1.509,0,0,0,.342-.92l.021-.613.663-.014a1.325,1.325,0,0,0,.528-.071.29.29,0,0,0,.178-.221,2.2,2.2,0,0,0-.228-1.255,3.028,3.028,0,0,0-.777-1.077,2.468,2.468,0,0,0-1.177-.4h-.035l-.014-.007a6.274,6.274,0,0,0-1.17-.157.2.2,0,0,0-.064,0c.043.071.093.15.136.221.114.164.228.328.335.492a4.783,4.783,0,0,1,.335.563,1.633,1.633,0,0,1,.192.856,1.107,1.107,0,0,1-.57.848,1.227,1.227,0,0,1-.349.157l-.086.029-.043.014-.014.007-.078.014h-.008l-.128.022a2.651,2.651,0,0,1-.278.028c-.128-.007-.257-.014-.385-.028a2.672,2.672,0,0,1-.584-.172c-.357-.142-.607-.278-.849-.363a1.572,1.572,0,0,0-.321-.079l-.078-.007-.014-.021-.2.05-.021.007A1.136,1.136,0,0,1,84.9,103.567Z"></path><path d="M79.18,73.6a4.755,4.755,0,0,0,0,1.269.351.351,0,0,0,.043.142.763.763,0,0,0,.164-.028,3.365,3.365,0,0,0,.7-.285c.114-.05.292-.165.442-.243.078-.043.228-.157.342-.235A7.39,7.39,0,0,0,83.059,71.5c.542-1.026.948-2.067,1.347-2.923a12.268,12.268,0,0,1,1.1-2.017c.328-.442.578-.635.706-.578.057.029.078.114.086.236,5.746-.157,7.022-7.536,5.625-12.049-2.2-.9-4.4-1.768-6.6-2.666-4.834,3.286-10.11,6.052-14.351,10.145a12.456,12.456,0,0,0-3.836,6.958,18.27,18.27,0,0,1,1.946-2.531A10.055,10.055,0,0,1,70.8,64.555c.457-.292.756-.392.856-.3s-.014.4-.285.856c-.25.456-.663,1.062-1.141,1.839a25.238,25.238,0,0,0-2.93,6.238,8.49,8.49,0,0,0-.321,2.937c.278,1.191.913,2.082,2.288,2.039.036-.185.072-.37.122-.541a10.086,10.086,0,0,1,.378-.956c.263-.542.556-1.083.755-1.54.428-1.019.87-1.967,1.241-2.894s.741-1.783,1.069-2.567.656-1.5.941-2.117.578-1.127.813-1.547c.478-.827.8-1.262.934-1.212s.05.591-.2,1.518-.648,2.232-1.126,3.857c-.257.813-.542,1.7-.841,2.659s-.706,1.975-1.1,3.045c-.228.584-.471,1.062-.7,1.59-.193.434-.777,1.29-.734,1.739.114,1.105,1.312.357,1.818.171l.05-.014.1-.043.221-.1.435-.192c.072-.036.157-.064.214-.1l.136-.1a4.985,4.985,0,0,0,1.126-.962,12.366,12.366,0,0,0,1.647-2.788c.364-.763.706-1.5,1.041-2.217a13.167,13.167,0,0,1,.428-1.3,7.885,7.885,0,0,1,1.447-2.666c1.233-2.595,2.089-4.128,2.331-4.028s-.278,2.16-1.376,5.39C80.064,71.257,79.651,72.391,79.18,73.6Z"></path><path d="M54.42,115.324a11.888,11.888,0,0,1-4.655,2.516A53.405,53.405,0,0,0,39.1,120.934c4.435.785,9.725.029,14.038.029,2.688,0,5.375.05,8.07.107a19.053,19.053,0,0,1-4.27-2.1C55.789,118.182,54.263,116.913,54.42,115.324Z"></path></g></svg>