<svg xmlns="http://www.w3.org/2000/svg" xmlns:xlink="http://www.w3.org/1999/xlink" version="1.1" x="0px" y="0px" viewBox="0 0 100 100" enable-background="new 0 0 100 100" xml:space="preserve"><g><g><g><path fill-rule="evenodd" clip-rule="evenodd" d="M72.159,16.205h-3.948c-5.932,1.266-9.728,3.977-12.123,8.352     C50.29,35.695,59.02,48.529,71.86,47.541c7.223-0.57,12.705-6.219,13.976-13.537v-4.25C84.304,22.138,79.772,17.63,72.159,16.205     L72.159,16.205z M68.211,51.918c-8.603-0.709-14.252-6.629-16.786-13.264H36.605c2.681,7.189,7.635,19.198,10.421,26.795h-4.489     C37.309,53.48,32.094,41.63,26.886,29.619H14.164v4.508h9.602c5.212,11.996,10.419,23.993,15.646,35.848h34.003     c2.842-7.332,5.938-14.537,8.632-21.875c-3.377,2.246-7.903,4.239-13.835,3.84V51.918z M79.083,34.126h-17.93     c0.16-1.385-0.135-3.213,0.16-4.508h17.77V34.126z"></path></g></g><circle fill-rule="evenodd" clip-rule="evenodd" cx="44.793" cy="78.254" r="5.542"></circle><circle fill-rule="evenodd" clip-rule="evenodd" cx="68.044" cy="78.254" r="5.542"></circle></g></svg>