<svg xmlns:dc="http://purl.org/dc/elements/1.1/" xmlns:cc="http://creativecommons.org/ns#" xmlns:rdf="http://www.w3.org/1999/02/22-rdf-syntax-ns#" xmlns:svg="http://www.w3.org/2000/svg" xmlns="http://www.w3.org/2000/svg" xmlns:sodipodi="http://sodipodi.sourceforge.net/DTD/sodipodi-0.dtd" xmlns:inkscape="http://www.inkscape.org/namespaces/inkscape" viewBox="0 0 16.933333 16.933334" version="1.1" x="0px" y="0px"><g transform="matrix(0.99999977,0,0,1.0000024,2.3817659,-1.0588542)"  stroke-width="1.00001"><path  d="m 6.3319157,2.1171825 c -0.9648372,0 -1.7387005,0.7650311 -1.7497646,1.7239217 C 4.110614,3.8459037 3.8123034,4.0391866 3.6364723,4.2906881 3.4634462,4.5381764 3.4067502,4.825718 3.353802,5.0224246 c -0.00241,0.0084 -0.0047,0.017219 -0.0062,0.025839 l -0.086818,0.51728 h -3.60701516 c -0.55335911,0 -1.01182484,0.4452586 -1.01182484,1.0056209 V 14.42958 h -0.2268595 c -0.147128,5.2e-4 -0.26825,0.12046 -0.267684,0.267683 v 0.491959 c 0,0.953553 0.7794833,1.744592 1.75183147,1.744592 H 12.271089 c 0.962983,0 1.751315,-0.783752 1.751315,-1.744592 V 14.697263 C 14.02296,14.55004 13.905467,14.4301 13.758338,14.42958 h -0.229961 l -0.001,-7.8584166 C 13.527274,6.0066381 13.069912,5.5655425 12.516553,5.5655425 H 9.4030469 L 9.3162305,5.0482627 c -0.00151,-0.0086 -0.00328,-0.017409 -0.00568,-0.025839 C 9.2575673,4.825718 9.2049017,4.5453712 9.0268437,4.290687 8.8439152,4.0290327 8.5515826,3.8461122 8.0832303,3.8411042 8.0720204,2.8883485 7.2977039,2.1171825 6.3319157,2.1171825 Z m 0,0.5327827 c 0.6727652,0 1.2064879,0.535975 1.2180137,1.1906222 H 5.1154523 c 0.0113,-0.6587551 0.5435752,-1.1906222 1.2164634,-1.1906222 z m -1.7321944,1.723405 h 3.4643889 c 0.2961148,0 0.4322922,0.090146 0.5260661,0.2242751 0.1125411,0.1609687 0.1537883,0.3730304 0.2030884,0.556554 l 0.7369061,4.4048883 c 0.02264,0.180167 -0.051164,0.344053 -0.1808674,0.4676714 -0.136638,0.130227 -0.3402667,0.216524 -0.5426029,0.216524 H 3.8586811 c -0.2023362,0 -0.4059667,-0.08629 -0.5426028,-0.216524 C 3.1794424,9.8965306 3.1113097,9.7329766 3.1331437,9.5590876 l 0.73949,-4.4048883 c 0.05772,-0.2148486 0.098227,-0.4102604 0.2005044,-0.556554 0.09377,-0.1341286 0.239829,-0.2242751 0.5265832,-0.2242751 z m 0,1.1921723 C 4.453453,5.566204 4.3350979,5.6847958 4.3346212,5.8311587 c -4.234e-4,0.1402 0.1077679,0.2567603 0.2475299,0.2666499 v 0.226859 c 0,0.9623754 0.7769073,1.7430417 1.7497646,1.7430417 0.9645351,0 1.7513146,-0.7723394 1.7513146,-1.7430417 V 6.0983253 C 8.2233957,6.0886813 8.3319662,5.9717434 8.3312772,5.8311587 8.330801,5.6839893 8.2111852,5.5650718 8.0641102,5.5655425 H 7.5706 C 7.4233236,5.5647752 7.3033959,5.6837867 7.3029162,5.8311587 c -4.234e-4,0.1402 0.107768,0.2567603 0.2475299,0.2666499 v 0.226859 c 0,0.6644272 -0.5383793,1.2102592 -1.2185304,1.210259 -0.680151,0 -1.2169804,-0.5406277 -1.2169804,-1.210259 V 6.0983253 C 5.2548965,6.088422 5.3631725,5.9715577 5.3624655,5.8311587 5.3619892,5.6837864 5.2420581,5.564785 5.0947814,5.5655425 Z M 9.6572949,7.0822422 H 11.72642 c 0.126199,0 0.228113,0.097847 0.228926,0.2284092 l 0.04651,7.1189286 h -0.727604 l -0.140043,-0.139526 0.334863,-0.334345 c 0.148447,-0.148444 0.07452,-0.402411 -0.130225,-0.448551 L 9.0599153,12.983677 c -0.1755532,-0.0415 -0.3613529,0.121154 -0.3141928,0.32091 l 0.260966,1.124993 H 7.5706 c -0.1478961,-5.82e-4 -0.2682519,0.119693 -0.2676838,0.267683 v 0.472322 H 4.8674053 v -0.472322 c 5.821e-4,-0.14799 -0.119788,-0.268252 -0.267684,-0.267683 H 0.16639898 V 7.3085845 c 0,-0.1212807 0.10583722,-0.2263423 0.22996018,-0.2263423 H 3.00757 L 2.6065608,9.4820906 c -7.144e-4,0.0033 -0.00146,0.0065 -0.00206,0.0098 -0.04642,0.369677 0.1055513,0.6960074 0.3436483,0.9229394 0.2380981,0.22693 0.5646469,0.361734 0.9105392,0.361734 H 8.806704 c 0.3458901,0 0.670376,-0.134804 0.9084719,-0.361734 C 9.9532698,10.187898 10.107554,9.8593936 10.060374,9.4869816 Z M 9.1803214,11.061835 c -0.147133,5.03e-4 -0.2677462,0.119937 -0.2671673,0.267167 v 0.696596 c 5.027e-4,0.14646 0.1208013,0.265631 0.2671673,0.266133 0.1471348,5.82e-4 0.2687302,-0.118905 0.2692342,-0.266133 V 11.329002 C 9.4501377,11.181005 9.3282264,11.061251 9.1803214,11.061835 Z m -1.399915,0.69608 c -0.070883,1.87e-4 -0.1387666,0.02864 -0.1886191,0.07906 -0.1040252,0.104742 -0.1030981,0.274157 0.00206,0.377753 L 8.11888,12.736143 c 0.1040726,0.104476 0.2731654,0.104476 0.377238,0 C 8.6001435,12.6314 8.5992166,12.461985 8.494058,12.358389 L 7.9695422,11.836463 c -0.050064,-0.05036 -0.1181483,-0.07863 -0.1891358,-0.07855 z m -0.6971151,1.393193 c -0.1479032,-5.82e-4 -0.2693017,0.119167 -0.2687178,0.267167 5.027e-4,0.147228 0.1215835,0.266198 0.2687178,0.265616 h 0.6991823 c 0.146367,-5.03e-4 0.2682124,-0.119157 0.2687175,-0.265616 5.821e-4,-0.147229 -0.1215837,-0.266661 -0.2687175,-0.267167 z m -8.4005231,1.811772 h 5.651853 v 0.473871 c 5.291e-4,0.146455 0.1187389,0.265099 0.2651001,0.265617 H 7.5706 c 0.1463611,-5.3e-4 0.2645823,-0.11916 0.2651004,-0.265617 V 14.96288 h 1.2944949 l 0.1405599,0.605646 c 0.04726,0.204089 0.3008485,0.276628 0.4485514,0.128157 0.3850424,-0.488163 0.4647684,-0.206899 0.8490444,0.174666 0.103877,0.103299 0.27181,0.103299 0.375687,0 l 0.6997,-0.69608 c 0.0583,-0.05806 0.0837,-0.136378 0.077,-0.212389 h 1.766818 v 0.226342 c 0,0.671303 -0.547123,1.211809 -1.216464,1.211809 H -0.10076823 c -0.67662408,0 -1.21646357,-0.547793 -1.21646357,-1.211809 z"></path></g></svg>