<svg xmlns="http://www.w3.org/2000/svg" xmlns:xlink="http://www.w3.org/1999/xlink" version="1.1" x="0px" y="0px" viewBox="0 0 512 512" enable-background="new 0 0 512 512" xml:space="preserve"><g><path d="M29.027,495.585H482.99V181.596H29.027V495.585z M68.276,220.845h375.466v196.242H68.276V220.845z"></path><path d="M511.988,94.912L445.43,16.415h-58.045l39.967,78.497v22.187l0,0c0,23.374,18.953,42.311,42.326,42.311   c23.374,0,42.311-18.937,42.311-42.311V94.912L511.988,94.912z"></path><path d="M256.016,159.409c23.375,0,42.312-18.938,42.312-42.311V94.912l0,0l-13.312-78.497h-58.029l-13.313,78.497v22.187l0,0   C213.674,140.473,232.627,159.409,256.016,159.409z"></path><path d="M106.853,117.099L106.853,117.099c0,23.374,18.951,42.311,42.325,42.311s42.326-18.937,42.326-42.311V94.912L204.8,16.415   h-58.027l-39.92,78.497V117.099L106.853,117.099z"></path><path d="M320.498,117.099L320.498,117.099c0,23.374,18.97,42.311,42.342,42.311c23.391,0,42.326-18.937,42.326-42.311V94.912   l-39.967-78.497h-58.014l13.313,78.497V117.099L320.498,117.099z"></path><path d="M84.665,117.099V94.912l39.92-78.497H66.557L0.028,94.912l0,0v22.187H0.012c0,23.374,18.953,42.311,42.326,42.311   C65.713,159.409,84.665,140.473,84.665,117.099z"></path></g></svg>