<svg xmlns="http://www.w3.org/2000/svg" xmlns:xlink="http://www.w3.org/1999/xlink" xml:space="preserve" version="1.1"  viewBox="0 0 625 795" x="0px" y="0px" fill-rule="evenodd" clip-rule="evenodd"><defs></defs><g><path  d="M215 278l0 -33 -62 0 -121 525 561 0 -129 -551 26 0 135 576 -625 0 133 -576 82 0 0 -114c-6,-140 201,-140 195,0l0 114 29 0 0 26 -29 0 0 34c65,17 53,115 -16,115 -32,0 -58,-26 -58,-59l25 0c0,44 67,44 67,0 0,-12 -7,-24 -18,-29l0 26 -26 0 0 -87 -144 0 0 87 -25 0 0 -27c-32,15 -22,64 14,64 18,0 33,-15 33,-34l26 0c0,77 -118,78 -118,0 0,-27 19,-50 45,-57zm169 -59l0 -115c9,-95 -144,-116 -144,1l0 114 144 0z"></path></g></svg>