<svg xmlns="http://www.w3.org/2000/svg" xmlns:xlink="http://www.w3.org/1999/xlink" xml:space="preserve"  viewBox="0 0 0.310567 0.247835" x="0px" y="0px" fill-rule="evenodd" clip-rule="evenodd"><defs></defs><g><path  d="M-0 0.102945l0.0228504 -0.102945 0.264866 0 0.0228504 0.102945 -0.00143307 0c0.000468504,0.0018189 0.000720472,0.00372835 0.000720472,0.00568504 0,0.0128031 -0.0105984,0.0231811 -0.0236732,0.0231811 -0.00617717,0 -0.0117953,-0.00231102 -0.0160079,-0.00610236l0 0.122126c-0.077252,0 -0.1545,0 -0.231752,0l0 -0.120535c-0.0039252,0.00283465 -0.00878346,0.00451181 -0.0140354,0.00451181 -0.0130748,0 -0.0236732,-0.010378 -0.0236732,-0.0231811 0,-0.00195669 0.000251969,-0.00386614 0.000720472,-0.00568504l-0.00143307 0zm0.261079 0.0201102c-0.00433465,0.00533465 -0.0110276,0.00875591 -0.0185315,0.00875591 -0.00980709,0 -0.0182205,-0.00583858 -0.021815,-0.0141575 -0.00359449,0.0083189 -0.0120079,0.0141575 -0.021815,0.0141575 -0.00981102,0 -0.0182205,-0.00583858 -0.0218189,-0.0141575 -0.00359055,0.0083189 -0.0120079,0.0141575 -0.021815,0.0141575 -0.00980709,0 -0.0182205,-0.00583858 -0.021815,-0.0141575 -0.00359449,0.0083189 -0.0120079,0.0141575 -0.0218189,0.0141575 -0.00980709,0 -0.0182165,-0.00583858 -0.021815,-0.0141575 -0.00359055,0.0083189 -0.0120079,0.0141575 -0.021815,0.0141575 -0.00875984,0 -0.0164134,-0.00466142 -0.0205079,-0.0115906l0 0.118524 0.0794016 0 0 -0.0673858c0,-0.0362205 0.0547717,-0.0362165 0.0547717,0l0 0.0673858 0.0793937 0 0 -0.115689zm0.0381969 -0.0292008l-0.0188189 -0.0847638 -0.250346 0 -0.0188189 0.0847638 0.287984 0z"></path><path  d="M0.099378 0.0453346c0.00481496,-0.0159016 0.0280157,-0.0279646 0.0559055,-0.0279646 0.0313858,0 0.0568307,0.0152677 0.0568307,0.0340945 0,0.00057874 -2.75591e-005,0.00114961 -7.48031e-005,0.00172047l-0.0184843 -0.00792126 -0.00153543 -9.84252e-005 -0.0226929 0.00625984 -0.0162756 -0.00775197 -0.00144882 -0.000692913 -0.00116535 0.00111417 -0.0151732 0.0144094c-0.00354724,-0.00135039 -0.0140276,-0.00528346 -0.0358858,-0.0131693z"></path><path  d="M0.0984567 0.0514646c0,-0.000496063 1.9685e-005,-0.000984252 5.51181e-005,-0.00147638 0.0273228,0.00985039 0.0363504,0.0133583 0.036378,0.0133701l0.00140157 0.000602362 0.00112205 -0.00105906 0.0150669 -0.0143189 0.0156063 0.00743307 0.00162598 0.000133858 0.0227559 -0.00627165 0.0186378 0.00798425c-0.00498819,0.0157717 -0.0280827,0.0277008 -0.0558228,0.0277008 -0.0313819,0 -0.0568268,-0.0152677 -0.0568268,-0.0340984z"></path></g></svg>