<svg xmlns="http://www.w3.org/2000/svg" xmlns:xlink="http://www.w3.org/1999/xlink" version="1.1" x="0px" y="0px" viewBox="0 0 96 96" enable-background="new 0 0 96 96" xml:space="preserve"><path d="M48,9.239L10.736,49.892h8.628c0.551,0,1,0.448,1,1v35.869h55.272V50.892c0-0.552,0.448-1,1-1h8.627L48,9.239z   M49.424,76.13c-0.015,0.258-0.03,0.483-0.046,0.692l-0.057,0.655c-0.017,0.198-0.036,0.401-0.056,0.616l-0.158,1.456  c-0.02,0.188-0.043,0.366-0.065,0.538l-0.252,1.768c-0.055,0.383-0.383,0.663-0.764,0.663c-0.021,0-0.042-0.001-0.064-0.003  l-0.483-0.04c-5.695-0.468-10.156-8.807-10.156-18.984c0-7.016,2.291-13.653,5.835-16.907l1.067-0.98  c0.241-0.222,0.594-0.266,0.883-0.114c0.289,0.153,0.45,0.471,0.403,0.795l-0.293,2.004c-0.019,0.146-0.037,0.294-0.051,0.436  c-0.013,0.116-0.022,0.227-0.03,0.328l-0.015,0.169c-0.015,0.173-0.029,0.347-0.041,0.527c-0.008,0.146-0.017,0.3-0.023,0.45  c-0.009,0.2-0.015,0.395-0.02,0.608l-0.003,0.47c0,0.193,0.003,0.393,0.009,0.609l0.021,0.496c0.011,0.187,0.022,0.391,0.041,0.622  l0.045,0.479c0.021,0.207,0.047,0.416,0.075,0.624c0.023,0.174,0.048,0.34,0.075,0.516c0.035,0.21,0.075,0.424,0.129,0.694  c0.03,0.158,0.059,0.305,0.092,0.453c0.049,0.221,0.106,0.441,0.162,0.646l0.037,0.141c0.033,0.127,0.064,0.248,0.1,0.368  c0.057,0.194,0.12,0.384,0.195,0.61l0.091,0.273c0.031,0.094,0.062,0.186,0.095,0.275c0.083,0.226,0.173,0.442,0.282,0.706  l0.111,0.27c0.026,0.064,0.05,0.123,0.075,0.177c0.201,0.443,0.387,0.822,0.573,1.165c0.214,0.397,0.416,0.821,0.602,1.263  c0.02,0.048,0.037,0.093,0.066,0.174l0.15,0.409c0.096,0.251,0.196,0.511,0.282,0.778c0.036,0.111,0.065,0.222,0.098,0.346  l0.126,0.453c0.061,0.206,0.123,0.421,0.175,0.634c0.032,0.139,0.059,0.269,0.086,0.41l0.115,0.547  c0.039,0.179,0.079,0.366,0.111,0.556c0.022,0.134,0.042,0.269,0.063,0.41l0.067,0.45c0.035,0.225,0.07,0.457,0.098,0.681  c0.014,0.114,0.024,0.224,0.04,0.39l0.037,0.382c0.028,0.267,0.057,0.54,0.078,0.815c0.012,0.146,0.02,0.297,0.028,0.453  l0.027,0.476c0.013,0.218,0.025,0.438,0.034,0.665c0.006,0.152,0.01,0.31,0.012,0.472l0.009,0.436  c0.005,0.224,0.009,0.446,0.011,0.626L49.424,76.13z M52.637,80.616l-1.014,0.855c-0.143,0.12-0.319,0.182-0.498,0.182  c-0.126,0-0.253-0.03-0.37-0.094c-0.28-0.153-0.437-0.461-0.396-0.777l0.223-1.713c0.026-0.231,0.053-0.486,0.082-0.777l0.06-0.622  c0.024-0.259,0.046-0.527,0.068-0.808l0.136-2.203c0.012-0.26,0.022-0.536,0.029-0.809c0.008-0.247,0.014-0.484,0.017-0.723  c0.004-0.283,0.004-0.567,0.004-0.856l-0.004-0.729c-0.003-0.232-0.012-0.477-0.02-0.713l-0.004-0.13  c-0.007-0.243-0.017-0.481-0.029-0.731c-0.015-0.283-0.035-0.567-0.057-0.854l-0.013-0.165c-0.013-0.188-0.026-0.368-0.043-0.545  c-0.018-0.209-0.042-0.411-0.07-0.652l-0.042-0.359c-0.021-0.189-0.043-0.372-0.069-0.566c-0.033-0.232-0.074-0.469-0.118-0.726  l-0.055-0.333c-0.026-0.157-0.051-0.311-0.081-0.466c-0.038-0.189-0.081-0.385-0.135-0.622l-0.113-0.493  c-0.035-0.154-0.059-0.263-0.088-0.381c-0.06-0.23-0.134-0.475-0.21-0.725l-0.088-0.297c-0.041-0.143-0.078-0.271-0.119-0.391  c-0.103-0.308-0.218-0.598-0.334-0.888l-0.093-0.253c-0.029-0.078-0.06-0.159-0.089-0.228c-0.2-0.468-0.408-0.899-0.618-1.284  c-0.197-0.369-0.378-0.735-0.54-1.095l-0.045-0.105c-0.006-0.014-0.018-0.048-0.023-0.062l-0.116-0.286  c-0.086-0.2-0.181-0.427-0.267-0.664c-0.02-0.052-0.04-0.114-0.079-0.235l-0.109-0.337c-0.06-0.175-0.117-0.347-0.17-0.533  c-0.02-0.07-0.039-0.143-0.065-0.25l-0.088-0.347c-0.042-0.156-0.085-0.325-0.116-0.473l-0.126-0.661  c-0.029-0.149-0.057-0.3-0.08-0.451c-0.015-0.1-0.027-0.197-0.044-0.337l-0.035-0.278c-0.02-0.147-0.04-0.305-0.055-0.463  c-0.009-0.089-0.015-0.175-0.022-0.29l-0.019-0.273c-0.012-0.167-0.024-0.333-0.031-0.5c-0.005-0.1-0.007-0.201-0.008-0.305  l-0.003-0.176c-0.004-0.18-0.008-0.369-0.006-0.572c0-0.106,0.003-0.226,0.008-0.349l0.006-0.214  c0.004-0.166,0.009-0.298,0.016-0.408l0.137-1.558c0.002-0.027,0.006-0.053,0.011-0.08l0.651-3.355  c0.075-0.386,0.426-0.651,0.82-0.622l0.459,0.037c5.683,0.463,10.134,8.803,10.134,18.987C58.678,70.796,56.306,77.52,52.637,80.616  z"></path></svg>