<svg xmlns="http://www.w3.org/2000/svg" xmlns:xlink="http://www.w3.org/1999/xlink" version="1.1" x="0px" y="0px" viewBox="0 0 100 100"  xml:space="preserve"><g><path d="M57.5,80H70h12.5c1.382,0,2.5,1.118,2.5,2.5S83.882,85,82.5,85h-25c-1.382,0-2.5-1.118-2.5-2.5S56.118,80,57.5,80z    M100,92.5c0,1.382-1.123,2.5-2.5,2.5h-95C1.118,95,0,93.882,0,92.5S1.118,90,2.5,90H5V43.897C0.001,41.298,0,35,0,35L15,5h70   l4.902,9.804l0.412,0.824l0.807,1.613l0.92,1.84l2.771,5.542l0.41,0.823l0.808,1.614l0.92,1.839L100,35c0,0-0.001,6.298-5,8.897V90   h2.5C98.877,90,100,91.118,100,92.5z M10.036,40c3.995,0,4.925-2.708,4.998-5H5.036C5.094,37.246,6.007,40,10.036,40z M35,43.897   c-0.994,0.517-2.188,0.886-3.616,1.032c0.008,0.044,0.018,0.087,0.021,0.135c-0.028,1.442-2.056,1.395-2.084,0.006   c0.002-0.031,0.01-0.058,0.014-0.087c-1.163-0.055-2.18-0.249-3.071-0.55c0.128,0.16,0.216,0.37,0.233,0.631   c-0.028,1.442-2.056,1.395-2.085,0.006c0.042-0.628,0.466-0.959,0.921-1.009c-0.537-0.25-1.019-0.542-1.452-0.864   c-0.483,0.799-1.898,0.579-1.923-0.581c0.026-0.393,0.204-0.667,0.442-0.833c-0.336-0.41-0.625-0.837-0.874-1.27   c-0.331,1.059-1.998,0.907-2.024-0.353c0.057-0.846,0.804-1.159,1.389-0.96C20.001,36.994,20,35,20,35s-0.001,3.766-2.313,6.676   c0.593-0.237,1.389,0.079,1.445,0.934c-0.029,1.442-2.056,1.395-2.084,0.006c0.006-0.098,0.024-0.187,0.048-0.27   c-1.21,1.235-2.925,2.223-5.354,2.543c0.011,0.057,0.023,0.113,0.027,0.175c-0.021,1.094-1.191,1.329-1.768,0.774v3.412   c0.567-0.555,1.702-0.303,1.768,0.723c-0.021,1.093-1.191,1.329-1.768,0.774v3.412c0.567-0.555,1.702-0.303,1.768,0.723   c-0.021,1.094-1.191,1.33-1.768,0.775v3.412c0.567-0.555,1.702-0.304,1.768,0.723c-0.021,1.094-1.191,1.329-1.768,0.774v3.412   c0.567-0.555,1.702-0.304,1.768,0.723c-0.021,1.094-1.191,1.329-1.768,0.774v3.412c0.567-0.555,1.702-0.303,1.768,0.724   c-0.021,1.094-1.191,1.329-1.768,0.774v3.412c0.567-0.555,1.702-0.304,1.768,0.723c-0.021,1.094-1.191,1.329-1.768,0.774v3.412   c0.567-0.555,1.702-0.304,1.768,0.724c-0.021,1.093-1.191,1.328-1.768,0.773v3.412c0.567-0.555,1.702-0.303,1.768,0.724   c-0.021,1.094-1.191,1.329-1.768,0.774v3.412c0.567-0.555,1.702-0.304,1.768,0.723c-0.006,0.327-0.119,0.574-0.285,0.75h3.404   c-0.171-0.176-0.288-0.422-0.294-0.743c0.092-1.371,1.998-1.346,2.085-0.007c-0.006,0.327-0.119,0.574-0.285,0.75h3.403   c-0.171-0.176-0.288-0.422-0.294-0.743c0.091-1.371,1.998-1.346,2.085-0.007c-0.006,0.327-0.119,0.574-0.285,0.75h3.403   c-0.171-0.176-0.288-0.422-0.294-0.743c0.092-1.371,1.998-1.346,2.085-0.007c-0.006,0.327-0.119,0.574-0.284,0.75h3.403   c-0.171-0.176-0.288-0.422-0.294-0.743c0.091-1.371,1.998-1.346,2.084-0.007c-0.006,0.327-0.119,0.574-0.285,0.75h3.404   c-0.171-0.176-0.288-0.422-0.294-0.743c0.037-0.559,0.376-0.881,0.77-0.981v-2.911c-0.409-0.107-0.758-0.447-0.77-1.018   c0.037-0.558,0.376-0.881,0.77-0.981v-2.91c-0.409-0.108-0.758-0.448-0.77-1.018c0.037-0.559,0.376-0.881,0.77-0.981v-2.91   c-0.409-0.108-0.758-0.448-0.77-1.018c0.037-0.559,0.376-0.881,0.77-0.981v-2.911c-0.409-0.107-0.758-0.447-0.77-1.017   c0.037-0.559,0.376-0.882,0.77-0.982v-2.91c-0.409-0.108-0.758-0.448-0.77-1.018c0.037-0.559,0.376-0.881,0.77-0.981v-2.911   c-0.409-0.107-0.758-0.447-0.77-1.018c0.037-0.558,0.376-0.881,0.77-0.98v-2.911c-0.409-0.107-0.758-0.448-0.77-1.018   c0.037-0.558,0.376-0.881,0.77-0.981v-2.91c-0.409-0.108-0.758-0.448-0.77-1.018c0.037-0.559,0.376-0.881,0.77-0.981v-2.911   c-0.409-0.108-0.758-0.448-0.77-1.018c0.037-0.558,0.376-0.88,0.77-0.981V43.897z M30,40c3.994,0,4.925-2.708,4.998-5H25   C25.059,37.246,25.972,40,30,40z M41.15,30h2.972c0.324-0.905,1.617-0.89,1.938,0h2.972c0.324-0.905,1.617-0.89,1.938,0h2.972   c0.322-0.905,1.616-0.89,1.938,0h2.971c0.324-0.905,1.617-0.89,1.938,0h2.972c0.323-0.905,1.616-0.89,1.938,0h2.971   c0.324-0.905,1.617-0.89,1.938,0h2.972c0.323-0.905,1.616-0.89,1.938,0h2.972c0.323-0.905,1.616-0.89,1.938,0h2.972   c0.323-0.905,1.616-0.89,1.938,0h2.972c0.323-0.905,1.616-0.89,1.938,0h1.666l-0.563-1.127c-0.359-0.137-0.648-0.468-0.659-0.985   c0.006-0.09,0.021-0.173,0.041-0.251l-0.718-1.436c-0.574,0.567-1.756,0.291-1.777-0.768c0.04-0.615,0.446-0.946,0.89-1.007   l-2.687-5.372c-0.358-0.137-0.647-0.468-0.658-0.985c0.006-0.09,0.021-0.173,0.041-0.251L85.1,16.382   c-0.573,0.567-1.755,0.291-1.777-0.769c0.041-0.614,0.447-0.946,0.891-1.007L81.909,10h-1.706c0.161,0.167,0.275,0.397,0.295,0.698   c-0.028,1.442-2.056,1.395-2.085,0.006c0.021-0.305,0.134-0.537,0.293-0.704h-3.413c0.162,0.167,0.275,0.397,0.295,0.698   c-0.027,1.442-2.055,1.395-2.084,0.006c0.02-0.305,0.133-0.537,0.293-0.704h-3.412c0.161,0.167,0.275,0.397,0.295,0.698   c-0.029,1.442-2.056,1.395-2.085,0.006c0.021-0.305,0.134-0.537,0.293-0.704h-3.413c0.162,0.167,0.275,0.397,0.295,0.698   c-0.027,1.442-2.055,1.395-2.084,0.006c0.02-0.305,0.133-0.537,0.293-0.704h-3.412c0.161,0.167,0.275,0.397,0.295,0.698   c-0.029,1.442-2.057,1.395-2.086,0.006c0.021-0.305,0.134-0.537,0.294-0.704h-3.413c0.162,0.167,0.275,0.397,0.295,0.698   c-0.027,1.442-2.056,1.395-2.084,0.006C53.887,10.399,54,10.167,54.16,10h-3.413c0.162,0.167,0.276,0.397,0.295,0.698   c-0.029,1.442-2.056,1.395-2.085,0.006c0.021-0.305,0.133-0.537,0.293-0.704h-3.413c0.162,0.167,0.276,0.397,0.295,0.698   c-0.028,1.442-2.055,1.395-2.084,0.006c0.02-0.305,0.133-0.537,0.293-0.704h-3.413c0.162,0.167,0.275,0.397,0.295,0.698   c-0.028,1.442-2.056,1.395-2.084,0.006c0.02-0.305,0.133-0.537,0.293-0.704H36.02c0.162,0.167,0.275,0.397,0.295,0.698   c-0.028,1.442-2.056,1.395-2.084,0.006c0.021-0.305,0.133-0.537,0.293-0.704H31.11c0.162,0.167,0.275,0.397,0.295,0.698   c-0.028,1.442-2.056,1.395-2.084,0.006c0.02-0.305,0.133-0.537,0.293-0.704h-3.413c0.162,0.167,0.275,0.397,0.295,0.698   c-0.028,1.442-2.056,1.395-2.085,0.006c0.021-0.305,0.134-0.537,0.293-0.704h-3.413c0.161,0.167,0.275,0.397,0.295,0.698   c-0.028,1.442-2.056,1.395-2.085,0.006c0.021-0.305,0.133-0.537,0.293-0.704h-1.705l-2.304,4.608c0.444,0.063,0.852,0.397,0.891,1   c-0.021,1.098-1.199,1.33-1.774,0.767l-4.026,8.052c0.444,0.063,0.852,0.397,0.891,1c-0.021,1.098-1.199,1.33-1.774,0.768L8.091,30   h1.667c0.323-0.905,1.616-0.89,1.938,0h2.972c0.324-0.905,1.617-0.89,1.938,0h2.972c0.323-0.905,1.617-0.89,1.938,0h2.972   c0.324-0.905,1.617-0.89,1.938,0h2.972c0.324-0.905,1.617-0.89,1.938,0h2.972c0.324-0.905,1.617-0.89,1.938,0h2.971   C39.537,29.095,40.83,29.11,41.15,30z M65,35c0.059,2.246,0.972,5,5,5c3.994,0,4.926-2.708,4.998-5H65z M45,35   c0.059,2.246,0.972,5,5,5c3.994,0,4.926-2.708,4.998-5H45z M90,45c-10,0-10-10-10-10s0,10-10,10S60,35,60,35s0,10-10,10   S40,35,40,35v55h50V45z M95.023,35h-9.998c0.059,2.246,0.972,5,5,5C94.02,40,94.951,37.292,95.023,35z M60,55h25c0,0,0,1.714,0,10   s-6.719,15-15,15c-5.34,0-10.025-2.793-12.684-6.997c-0.839,0-1.923,0-3.317,0c-4.971,0-8.999-4.033-8.999-9.004   C45,59.033,49.028,55,53.999,55H60z M55,60c-3.137-0.296-5,1.797-5,3.999c0,2.207,1.785,4.351,5,4.004V60z M60,60.844v2.861   c0.433,0.074,0.822,0.408,0.861,0.997c-0.013,0.621-0.396,0.965-0.83,1.045c0.148,1.995,0.883,3.828,2.034,5.328   c0.56-0.106,1.2,0.228,1.25,0.991c-0.003,0.117-0.022,0.222-0.049,0.319c1.468,1.339,3.336,2.246,5.399,2.522   c-0.04-0.113-0.068-0.238-0.071-0.38c0.091-1.371,1.997-1.346,2.085-0.007c-0.004,0.176-0.037,0.328-0.094,0.46   c2.133-0.124,4.086-0.92,5.655-2.178c-0.164-0.175-0.276-0.417-0.282-0.73c0.069-1.048,1.197-1.276,1.766-0.73   c0.306-0.372,0.585-0.766,0.836-1.18c-0.086-0.15-0.143-0.329-0.147-0.544c0.042-0.624,0.459-0.955,0.909-1.01   c0.363-0.932,0.59-1.931,0.655-2.973c-0.611,0.335-1.545,0.012-1.564-0.928c0.063-0.945,0.989-1.227,1.587-0.87v-3.122   c-0.564,0.328-1.423,0.075-1.564-0.717h-2.869c-0.2,1.158-1.84,1.123-2.04,0h-2.87c-0.199,1.158-1.838,1.123-2.039,0h-2.87   c-0.199,1.158-1.839,1.123-2.039,0h-2.87C60.752,60.503,60.396,60.782,60,60.844z M27.5,65c-1.382,0-2.5,1.118-2.5,2.5   s1.118,2.5,2.5,2.5s2.5-1.118,2.5-2.5S28.882,65,27.5,65z M17.048,13.159c0.029,1.388,2.056,1.436,2.084-0.007   C19.045,11.813,17.139,11.788,17.048,13.159z M21.957,13.159c0.029,1.388,2.057,1.436,2.085-0.007   C23.955,11.813,22.048,11.788,21.957,13.159z M26.866,13.159c0.029,1.388,2.056,1.436,2.084-0.007   C28.864,11.813,26.958,11.788,26.866,13.159z M31.775,13.159c0.029,1.388,2.057,1.436,2.085-0.007   C33.773,11.813,31.867,11.788,31.775,13.159z M36.685,13.159c0.029,1.388,2.057,1.436,2.085-0.007   C38.683,11.813,36.776,11.788,36.685,13.159z M43.679,13.152c-0.087-1.339-1.994-1.364-2.085,0.007   C41.623,14.547,43.65,14.595,43.679,13.152z M48.588,13.152c-0.087-1.339-1.993-1.364-2.085,0.007   C46.532,14.547,48.56,14.595,48.588,13.152z M53.497,13.152c-0.087-1.339-1.993-1.364-2.085,0.007   C51.441,14.547,53.469,14.595,53.497,13.152z M58.406,13.152c-0.087-1.339-1.993-1.364-2.085,0.007   C56.351,14.547,58.378,14.595,58.406,13.152z M63.315,13.152c-0.087-1.339-1.993-1.364-2.085,0.007   C61.26,14.547,63.287,14.595,63.315,13.152z M68.225,13.152c-0.087-1.339-1.993-1.364-2.084,0.007   C66.17,14.547,68.196,14.595,68.225,13.152z M73.134,13.152c-0.087-1.339-1.993-1.364-2.085,0.007   C71.078,14.547,73.105,14.595,73.134,13.152z M78.043,13.152c-0.086-1.339-1.993-1.364-2.084,0.007   C75.987,14.547,78.016,14.595,78.043,13.152z M82.953,13.152c-0.088-1.339-1.994-1.364-2.086,0.007   C80.896,14.547,82.924,14.595,82.953,13.152z M19.502,15.613c0.029,1.389,2.057,1.437,2.085-0.006   C21.5,14.269,19.593,14.243,19.502,15.613z M24.411,15.613c0.029,1.389,2.057,1.437,2.085-0.006   C26.409,14.269,24.503,14.243,24.411,15.613z M29.321,15.613c0.029,1.389,2.056,1.437,2.084-0.006   C31.318,14.269,29.412,14.243,29.321,15.613z M34.23,15.613c0.029,1.389,2.056,1.437,2.084-0.006   C36.228,14.269,34.321,14.243,34.23,15.613z M41.224,15.607c-0.087-1.339-1.993-1.364-2.084,0.006   C39.168,17.002,41.195,17.05,41.224,15.607z M46.133,15.607c-0.087-1.339-1.993-1.364-2.084,0.006   C44.078,17.002,46.104,17.05,46.133,15.607z M51.043,15.607c-0.087-1.339-1.994-1.364-2.085,0.006   C48.987,17.002,51.014,17.05,51.043,15.607z M55.951,15.607c-0.086-1.339-1.993-1.364-2.084,0.006   C53.896,17.002,55.924,17.05,55.951,15.607z M60.861,15.607c-0.088-1.339-1.994-1.364-2.086,0.006   C58.805,17.002,60.832,17.05,60.861,15.607z M65.77,15.607c-0.086-1.339-1.993-1.364-2.084,0.006   C63.715,17.002,65.742,17.05,65.77,15.607z M70.68,15.607c-0.088-1.339-1.994-1.364-2.085,0.006   C68.624,17.002,70.65,17.05,70.68,15.607z M75.588,15.607c-0.086-1.339-1.992-1.364-2.084,0.006   C73.533,17.002,75.561,17.05,75.588,15.607z M80.498,15.607c-0.087-1.339-1.994-1.364-2.085,0.006   C78.442,17.002,80.47,17.05,80.498,15.607z M17.048,18.068c0.029,1.388,2.056,1.436,2.084-0.007   C19.045,16.723,17.139,16.697,17.048,18.068z M21.957,18.068c0.029,1.388,2.057,1.436,2.085-0.007   C23.955,16.723,22.048,16.697,21.957,18.068z M26.866,18.068c0.029,1.388,2.056,1.436,2.084-0.007   C28.864,16.723,26.958,16.697,26.866,18.068z M31.775,18.068c0.029,1.388,2.057,1.436,2.085-0.007   C33.773,16.723,31.867,16.697,31.775,18.068z M36.685,18.068c0.029,1.388,2.057,1.436,2.085-0.007   C38.683,16.723,36.776,16.697,36.685,18.068z M43.679,18.062c-0.087-1.338-1.994-1.364-2.085,0.007   C41.623,19.457,43.65,19.504,43.679,18.062z M48.588,18.062c-0.087-1.338-1.993-1.364-2.085,0.007   C46.532,19.457,48.56,19.504,48.588,18.062z M53.497,18.062c-0.087-1.338-1.993-1.364-2.085,0.007   C51.441,19.457,53.469,19.504,53.497,18.062z M58.406,18.062c-0.087-1.338-1.993-1.364-2.085,0.007   C56.351,19.457,58.378,19.504,58.406,18.062z M63.315,18.062c-0.087-1.338-1.993-1.364-2.085,0.007   C61.26,19.457,63.287,19.504,63.315,18.062z M68.225,18.062c-0.087-1.338-1.993-1.364-2.084,0.007   C66.17,19.457,68.196,19.504,68.225,18.062z M73.134,18.062c-0.087-1.338-1.993-1.364-2.085,0.007   C71.078,19.457,73.105,19.504,73.134,18.062z M78.043,18.062c-0.086-1.338-1.993-1.364-2.084,0.007   C75.987,19.457,78.016,19.504,78.043,18.062z M82.953,18.062c-0.088-1.338-1.994-1.364-2.086,0.007   C80.896,19.457,82.924,19.504,82.953,18.062z M14.593,20.523c0.029,1.389,2.057,1.436,2.085-0.006   C16.591,19.178,14.685,19.152,14.593,20.523z M19.502,20.523c0.029,1.389,2.057,1.436,2.085-0.006   C21.5,19.178,19.593,19.152,19.502,20.523z M24.411,20.523c0.029,1.389,2.057,1.436,2.085-0.006   C26.409,19.178,24.503,19.152,24.411,20.523z M29.321,20.523c0.029,1.389,2.056,1.436,2.084-0.006   C31.318,19.178,29.412,19.152,29.321,20.523z M34.23,20.523c0.029,1.389,2.056,1.436,2.084-0.006   C36.228,19.178,34.321,19.152,34.23,20.523z M41.224,20.517c-0.087-1.339-1.993-1.364-2.084,0.006   C39.168,21.912,41.195,21.959,41.224,20.517z M46.133,20.517c-0.087-1.339-1.993-1.364-2.084,0.006   C44.078,21.912,46.104,21.959,46.133,20.517z M51.043,20.517c-0.087-1.339-1.994-1.364-2.085,0.006   C48.987,21.912,51.014,21.959,51.043,20.517z M55.951,20.517c-0.086-1.339-1.993-1.364-2.084,0.006   C53.896,21.912,55.924,21.959,55.951,20.517z M60.861,20.517c-0.088-1.339-1.994-1.364-2.086,0.006   C58.805,21.912,60.832,21.959,60.861,20.517z M65.77,20.517c-0.086-1.339-1.993-1.364-2.084,0.006   C63.715,21.912,65.742,21.959,65.77,20.517z M70.68,20.517c-0.088-1.339-1.994-1.364-2.085,0.006   C68.624,21.912,70.65,21.959,70.68,20.517z M75.588,20.517c-0.086-1.339-1.992-1.364-2.084,0.006   C73.533,21.912,75.561,21.959,75.588,20.517z M80.498,20.517c-0.087-1.339-1.994-1.364-2.085,0.006   C78.442,21.912,80.47,21.959,80.498,20.517z M85.406,20.517c-0.086-1.339-1.992-1.364-2.084,0.006   C83.352,21.912,85.379,21.959,85.406,20.517z M12.139,22.978c0.029,1.388,2.056,1.436,2.084-0.006   C14.136,21.633,12.23,21.607,12.139,22.978z M17.048,22.978c0.029,1.388,2.056,1.436,2.084-0.006   C19.045,21.633,17.139,21.607,17.048,22.978z M21.957,22.978c0.029,1.388,2.057,1.436,2.085-0.006   C23.955,21.633,22.048,21.607,21.957,22.978z M26.866,22.978c0.029,1.388,2.056,1.436,2.084-0.006   C28.864,21.633,26.958,21.607,26.866,22.978z M31.775,22.978c0.029,1.388,2.057,1.436,2.085-0.006   C33.773,21.633,31.867,21.607,31.775,22.978z M36.685,22.978c0.029,1.388,2.057,1.436,2.085-0.006   C38.683,21.633,36.776,21.607,36.685,22.978z M43.679,22.972c-0.087-1.339-1.994-1.364-2.085,0.006   C41.623,24.366,43.65,24.414,43.679,22.972z M48.588,22.972c-0.087-1.339-1.993-1.364-2.085,0.006   C46.532,24.366,48.56,24.414,48.588,22.972z M53.497,22.972c-0.087-1.339-1.993-1.364-2.085,0.006   C51.441,24.366,53.469,24.414,53.497,22.972z M58.406,22.972c-0.087-1.339-1.993-1.364-2.085,0.006   C56.351,24.366,58.378,24.414,58.406,22.972z M63.315,22.972c-0.087-1.339-1.993-1.364-2.085,0.006   C61.26,24.366,63.287,24.414,63.315,22.972z M68.225,22.972c-0.087-1.339-1.993-1.364-2.084,0.006   C66.17,24.366,68.196,24.414,68.225,22.972z M73.134,22.972c-0.087-1.339-1.993-1.364-2.085,0.006   C71.078,24.366,73.105,24.414,73.134,22.972z M78.043,22.972c-0.086-1.339-1.993-1.364-2.084,0.006   C75.987,24.366,78.016,24.414,78.043,22.972z M82.953,22.972c-0.088-1.339-1.994-1.364-2.086,0.006   C80.896,24.366,82.924,24.414,82.953,22.972z M87.861,22.972c-0.086-1.339-1.993-1.364-2.084,0.006   C85.807,24.366,87.834,24.414,87.861,22.972z M14.593,25.433c0.029,1.389,2.057,1.436,2.085-0.006   C16.591,24.087,14.685,24.062,14.593,25.433z M19.502,25.433c0.029,1.389,2.057,1.436,2.085-0.006   C21.5,24.087,19.593,24.062,19.502,25.433z M24.411,25.433c0.029,1.389,2.057,1.436,2.085-0.006   C26.409,24.087,24.503,24.062,24.411,25.433z M29.321,25.433c0.029,1.389,2.056,1.436,2.084-0.006   C31.318,24.087,29.412,24.062,29.321,25.433z M34.23,25.433c0.029,1.389,2.056,1.436,2.084-0.006   C36.228,24.087,34.321,24.062,34.23,25.433z M41.224,25.426c-0.087-1.339-1.993-1.365-2.084,0.006   C39.168,26.821,41.195,26.869,41.224,25.426z M46.133,25.426c-0.087-1.339-1.993-1.365-2.084,0.006   C44.078,26.821,46.104,26.869,46.133,25.426z M51.043,25.426c-0.087-1.339-1.994-1.365-2.085,0.006   C48.987,26.821,51.014,26.869,51.043,25.426z M55.951,25.426c-0.086-1.339-1.993-1.365-2.084,0.006   C53.896,26.821,55.924,26.869,55.951,25.426z M60.861,25.426c-0.088-1.339-1.994-1.365-2.086,0.006   C58.805,26.821,60.832,26.869,60.861,25.426z M65.77,25.426c-0.086-1.339-1.993-1.365-2.084,0.006   C63.715,26.821,65.742,26.869,65.77,25.426z M70.68,25.426c-0.088-1.339-1.994-1.365-2.085,0.006   C68.624,26.821,70.65,26.869,70.68,25.426z M75.588,25.426c-0.086-1.339-1.992-1.365-2.084,0.006   C73.533,26.821,75.561,26.869,75.588,25.426z M80.498,25.426c-0.087-1.339-1.994-1.365-2.085,0.006   C78.442,26.821,80.47,26.869,80.498,25.426z M85.406,25.426c-0.086-1.339-1.992-1.365-2.084,0.006   C83.352,26.821,85.379,26.869,85.406,25.426z M12.139,27.888c0.029,1.388,2.056,1.436,2.084-0.007   C14.136,26.542,12.23,26.517,12.139,27.888z M17.048,27.888c0.029,1.388,2.056,1.436,2.084-0.007   C19.045,26.542,17.139,26.517,17.048,27.888z M21.957,27.888c0.029,1.388,2.057,1.436,2.085-0.007   C23.955,26.542,22.048,26.517,21.957,27.888z M26.866,27.888c0.029,1.388,2.056,1.436,2.084-0.007   C28.864,26.542,26.958,26.517,26.866,27.888z M31.775,27.888c0.029,1.388,2.057,1.436,2.085-0.007   C33.773,26.542,31.867,26.517,31.775,27.888z M36.685,27.888c0.029,1.388,2.057,1.436,2.085-0.007   C38.683,26.542,36.776,26.517,36.685,27.888z M43.679,27.881c-0.087-1.339-1.994-1.364-2.085,0.007   C41.623,29.276,43.65,29.323,43.679,27.881z M48.588,27.881c-0.087-1.339-1.993-1.364-2.085,0.007   C46.532,29.276,48.56,29.323,48.588,27.881z M53.497,27.881c-0.087-1.339-1.993-1.364-2.085,0.007   C51.441,29.276,53.469,29.323,53.497,27.881z M58.406,27.881c-0.087-1.339-1.993-1.364-2.085,0.007   C56.351,29.276,58.378,29.323,58.406,27.881z M63.315,27.881c-0.087-1.339-1.993-1.364-2.085,0.007   C61.26,29.276,63.287,29.323,63.315,27.881z M68.225,27.881c-0.087-1.339-1.993-1.364-2.084,0.007   C66.17,29.276,68.196,29.323,68.225,27.881z M73.134,27.881c-0.087-1.339-1.993-1.364-2.085,0.007   C71.078,29.276,73.105,29.323,73.134,27.881z M78.043,27.881c-0.086-1.339-1.993-1.364-2.084,0.007   C75.987,29.276,78.016,29.323,78.043,27.881z M82.953,27.881c-0.088-1.339-1.994-1.364-2.086,0.007   C80.896,29.276,82.924,29.323,82.953,27.881z M87.861,27.881c-0.086-1.339-1.993-1.364-2.084,0.007   C85.807,29.276,87.834,29.323,87.861,27.881z M14.593,45.071c0.029,1.389,2.057,1.436,2.085-0.006   C16.591,43.726,14.685,43.7,14.593,45.071z M19.502,45.071c0.029,1.389,2.057,1.436,2.085-0.006   C21.5,43.726,19.593,43.7,19.502,45.071z M12.139,47.525c0.029,1.389,2.056,1.437,2.084-0.006   C14.136,46.181,12.23,46.155,12.139,47.525z M17.048,47.525c0.029,1.389,2.056,1.437,2.084-0.006   C19.045,46.181,17.139,46.155,17.048,47.525z M21.957,47.525c0.029,1.389,2.057,1.437,2.085-0.006   C23.955,46.181,22.048,46.155,21.957,47.525z M28.951,47.52c-0.087-1.339-1.993-1.364-2.084,0.006   C26.896,48.914,28.922,48.962,28.951,47.52z M33.86,47.52c-0.087-1.339-1.994-1.364-2.085,0.006   C31.804,48.914,33.832,48.962,33.86,47.52z M14.593,49.98c0.029,1.389,2.057,1.436,2.085-0.006   C16.591,48.635,14.685,48.609,14.593,49.98z M19.502,49.98c0.029,1.389,2.057,1.436,2.085-0.006   C21.5,48.635,19.593,48.609,19.502,49.98z M26.496,49.974c-0.087-1.339-1.993-1.365-2.085,0.006   C24.44,51.369,26.468,51.416,26.496,49.974z M29.321,49.98c0.029,1.389,2.056,1.436,2.084-0.006   C31.318,48.635,29.412,48.609,29.321,49.98z M12.139,52.436c0.029,1.388,2.056,1.436,2.084-0.007   C14.136,51.09,12.23,51.064,12.139,52.436z M17.048,52.436c0.029,1.388,2.056,1.436,2.084-0.007   C19.045,51.09,17.139,51.064,17.048,52.436z M21.957,52.436c0.029,1.388,2.057,1.436,2.085-0.007   C23.955,51.09,22.048,51.064,21.957,52.436z M28.951,52.429c-0.087-1.339-1.993-1.364-2.084,0.007   C26.896,53.823,28.922,53.871,28.951,52.429z M33.86,52.429c-0.087-1.339-1.994-1.364-2.085,0.007   C31.804,53.823,33.832,53.871,33.86,52.429z M14.593,54.89c0.029,1.389,2.057,1.437,2.085-0.007   C16.591,53.545,14.685,53.52,14.593,54.89z M19.502,54.89c0.029,1.389,2.057,1.437,2.085-0.007   C21.5,53.545,19.593,53.52,19.502,54.89z M26.496,54.883c-0.087-1.338-1.993-1.363-2.085,0.007   C24.44,56.278,26.468,56.326,26.496,54.883z M29.321,54.89c0.029,1.389,2.056,1.437,2.084-0.007   C31.318,53.545,29.412,53.52,29.321,54.89z M12.139,57.345c0.029,1.388,2.056,1.437,2.084-0.007   C14.136,56,12.23,55.974,12.139,57.345z M17.048,57.345c0.029,1.388,2.056,1.437,2.084-0.007   C19.045,56,17.139,55.974,17.048,57.345z M21.957,57.345c0.029,1.388,2.057,1.437,2.085-0.007   C23.955,56,22.048,55.974,21.957,57.345z M28.951,57.338c-0.087-1.338-1.993-1.364-2.084,0.007   C26.896,58.732,28.922,58.781,28.951,57.338z M33.86,57.338c-0.087-1.338-1.994-1.364-2.085,0.007   C31.804,58.732,33.832,58.781,33.86,57.338z M14.593,59.799c0.029,1.389,2.057,1.437,2.085-0.006   C16.591,58.454,14.685,58.429,14.593,59.799z M19.502,59.799c0.029,1.389,2.057,1.437,2.085-0.006   C21.5,58.454,19.593,58.429,19.502,59.799z M26.496,59.793c-0.087-1.339-1.993-1.364-2.085,0.006   C24.44,61.188,26.468,61.235,26.496,59.793z M29.321,59.799c0.029,1.389,2.056,1.437,2.084-0.006   C31.318,58.454,29.412,58.429,29.321,59.799z M12.139,62.254c0.029,1.389,2.056,1.437,2.084-0.006   C14.136,60.909,12.23,60.884,12.139,62.254z M17.048,62.254c0.029,1.389,2.056,1.437,2.084-0.006   C19.045,60.909,17.139,60.884,17.048,62.254z M21.957,62.254c0.029,1.389,2.057,1.437,2.085-0.006   C23.955,60.909,22.048,60.884,21.957,62.254z M28.951,62.248c-0.087-1.339-1.993-1.364-2.084,0.006   C26.896,63.643,28.922,63.69,28.951,62.248z M33.86,62.248c-0.087-1.339-1.994-1.364-2.085,0.006   C31.804,63.643,33.832,63.69,33.86,62.248z M63.315,62.248c-0.087-1.339-1.993-1.364-2.085,0.006   C61.26,63.643,63.287,63.69,63.315,62.248z M68.225,62.248c-0.087-1.339-1.993-1.364-2.084,0.006   C66.17,63.643,68.196,63.69,68.225,62.248z M73.134,62.248c-0.087-1.339-1.993-1.364-2.085,0.006   C71.078,63.643,73.105,63.69,73.134,62.248z M78.043,62.248c-0.086-1.339-1.993-1.364-2.084,0.006   C75.987,63.643,78.016,63.69,78.043,62.248z M14.593,64.709c0.029,1.389,2.057,1.436,2.085-0.007   C16.591,63.363,14.685,63.338,14.593,64.709z M19.502,64.709c0.029,1.389,2.057,1.436,2.085-0.007   C21.5,63.363,19.593,63.338,19.502,64.709z M29.321,64.709c0.029,1.389,2.056,1.436,2.084-0.007   C31.318,63.363,29.412,63.338,29.321,64.709z M65.77,64.702c-0.086-1.339-1.993-1.364-2.084,0.007   C63.715,66.098,65.742,66.145,65.77,64.702z M70.68,64.702c-0.088-1.339-1.994-1.364-2.085,0.007   C68.624,66.098,70.65,66.145,70.68,64.702z M75.588,64.702c-0.086-1.339-1.992-1.364-2.084,0.007   C73.533,66.098,75.561,66.145,75.588,64.702z M12.139,67.164c0.029,1.388,2.056,1.436,2.084-0.007   C14.136,65.818,12.23,65.793,12.139,67.164z M17.048,67.164c0.029,1.388,2.056,1.436,2.084-0.007   C19.045,65.818,17.139,65.793,17.048,67.164z M21.957,67.164c0.029,1.388,2.057,1.436,2.085-0.007   C23.955,65.818,22.048,65.793,21.957,67.164z M33.86,67.157c-0.087-1.339-1.994-1.364-2.085,0.007   C31.804,68.552,33.832,68.6,33.86,67.157z M63.315,67.157c-0.087-1.339-1.993-1.364-2.085,0.007   C61.26,68.552,63.287,68.6,63.315,67.157z M68.225,67.157c-0.087-1.339-1.993-1.364-2.084,0.007   C66.17,68.552,68.196,68.6,68.225,67.157z M73.134,67.157c-0.087-1.339-1.993-1.364-2.085,0.007   C71.078,68.552,73.105,68.6,73.134,67.157z M78.043,67.157c-0.086-1.339-1.993-1.364-2.084,0.007   C75.987,68.552,78.016,68.6,78.043,67.157z M14.593,69.619c0.029,1.388,2.057,1.436,2.085-0.007   C16.591,68.273,14.685,68.248,14.593,69.619z M19.502,69.619c0.029,1.388,2.057,1.436,2.085-0.007   C21.5,68.273,19.593,68.248,19.502,69.619z M65.77,69.612c-0.086-1.339-1.993-1.364-2.084,0.007   C63.715,71.007,65.742,71.055,65.77,69.612z M70.68,69.612c-0.088-1.339-1.994-1.364-2.085,0.007   C68.624,71.007,70.65,71.055,70.68,69.612z M75.588,69.612c-0.086-1.339-1.992-1.364-2.084,0.007   C73.533,71.007,75.561,71.055,75.588,69.612z M12.139,72.073c0.029,1.389,2.056,1.437,2.084-0.007   C14.136,70.729,12.23,70.703,12.139,72.073z M17.048,72.073c0.029,1.389,2.056,1.437,2.084-0.007   C19.045,70.729,17.139,70.703,17.048,72.073z M21.957,72.073c0.029,1.389,2.057,1.437,2.085-0.007   C23.955,70.729,22.048,70.703,21.957,72.073z M26.866,72.073c0.029,1.389,2.056,1.437,2.084-0.007   C28.864,70.729,26.958,70.703,26.866,72.073z M33.86,72.066c-0.087-1.338-1.994-1.363-2.085,0.007   C31.804,73.462,33.832,73.51,33.86,72.066z M68.225,72.066c-0.087-1.338-1.993-1.363-2.084,0.007   C66.17,73.462,68.196,73.51,68.225,72.066z M73.134,72.066c-0.087-1.338-1.993-1.363-2.085,0.007   C71.078,73.462,73.105,73.51,73.134,72.066z M14.593,74.528c0.029,1.388,2.057,1.436,2.085-0.007   C16.591,73.183,14.685,73.157,14.593,74.528z M19.502,74.528c0.029,1.388,2.057,1.436,2.085-0.007   C21.5,73.183,19.593,73.157,19.502,74.528z M24.411,74.528c0.029,1.388,2.057,1.436,2.085-0.007   C26.409,73.183,24.503,73.157,24.411,74.528z M29.321,74.528c0.029,1.388,2.056,1.436,2.084-0.007   C31.318,73.183,29.412,73.157,29.321,74.528z M12.139,76.982c0.029,1.389,2.056,1.437,2.084-0.006   C14.136,75.638,12.23,75.612,12.139,76.982z M17.048,76.982c0.029,1.389,2.056,1.437,2.084-0.006   C19.045,75.638,17.139,75.612,17.048,76.982z M21.957,76.982c0.029,1.389,2.057,1.437,2.085-0.006   C23.955,75.638,22.048,75.612,21.957,76.982z M26.866,76.982c0.029,1.389,2.056,1.437,2.084-0.006   C28.864,75.638,26.958,75.612,26.866,76.982z M33.86,76.977c-0.087-1.339-1.994-1.364-2.085,0.006   C31.804,78.371,33.832,78.419,33.86,76.977z M14.593,79.438c0.029,1.389,2.057,1.436,2.085-0.006   C16.591,78.093,14.685,78.066,14.593,79.438z M19.502,79.438c0.029,1.389,2.057,1.436,2.085-0.006   C21.5,78.093,19.593,78.066,19.502,79.438z M24.411,79.438c0.029,1.389,2.057,1.436,2.085-0.006   C26.409,78.093,24.503,78.066,24.411,79.438z M29.321,79.438c0.029,1.389,2.056,1.436,2.084-0.006   C31.318,78.093,29.412,78.066,29.321,79.438z M12.139,81.893c0.029,1.388,2.056,1.436,2.084-0.007   C14.136,80.547,12.23,80.521,12.139,81.893z M17.048,81.893c0.029,1.388,2.056,1.436,2.084-0.007   C19.045,80.547,17.139,80.521,17.048,81.893z M21.957,81.893c0.029,1.388,2.057,1.436,2.085-0.007   C23.955,80.547,22.048,80.521,21.957,81.893z M26.866,81.893c0.029,1.388,2.056,1.436,2.084-0.007   C28.864,80.547,26.958,80.521,26.866,81.893z M33.86,81.886c-0.087-1.339-1.994-1.364-2.085,0.007   C31.804,83.28,33.832,83.328,33.86,81.886z M14.593,84.347c0.029,1.389,2.057,1.437,2.085-0.006   C16.591,83.002,14.685,82.977,14.593,84.347z M19.502,84.347c0.029,1.389,2.057,1.437,2.085-0.006   C21.5,83.002,19.593,82.977,19.502,84.347z M24.411,84.347c0.029,1.389,2.057,1.437,2.085-0.006   C26.409,83.002,24.503,82.977,24.411,84.347z M29.321,84.347c0.029,1.389,2.056,1.437,2.084-0.006   C31.318,83.002,29.412,82.977,29.321,84.347z M12.139,86.802c0.029,1.389,2.056,1.437,2.084-0.007   C14.136,85.457,12.23,85.432,12.139,86.802z M17.048,86.802c0.029,1.389,2.056,1.437,2.084-0.007   C19.045,85.457,17.139,85.432,17.048,86.802z M21.957,86.802c0.029,1.389,2.057,1.437,2.085-0.007   C23.955,85.457,22.048,85.432,21.957,86.802z M26.866,86.802c0.029,1.389,2.056,1.437,2.084-0.007   C28.864,85.457,26.958,85.432,26.866,86.802z M33.86,86.795c-0.087-1.338-1.994-1.363-2.085,0.007   C31.804,88.19,33.832,88.238,33.86,86.795z"></path></g></svg>