<svg xmlns="http://www.w3.org/2000/svg" xmlns:xlink="http://www.w3.org/1999/xlink" version="1.1" x="0px" y="0px" viewBox="0 0 96 96" enable-background="new 0 0 96 96" xml:space="preserve"><path d="M85.884,1.328C85.6,0.532,84.852,0,84,0H11.876c-0.848,0-1.604,0.536-1.888,1.336L4,18.316V32c0,3.252,1.832,6,4,6  c3.308,0,6-2.692,6-6c0-1.1,0.896-2,2-2s2,0.9,2,2c0,3.308,2.692,6,6,6s6-2.692,6-6c0-1.1,0.896-2,2-2s2,0.9,2,2  c0,3.308,2.692,6,6,6s6-2.692,6-6c0-1.1,0.896-2,2-2c1.104,0,2,0.9,2,2c0,3.308,2.691,6,6,6s6-2.692,6-6c0-1.1,0.9-2,2-2s2,0.9,2,2  c0,3.308,2.691,6,6,6s6-2.692,6-6c0-1.1,0.9-2,2-2s2,0.9,2,2c0,2.764,1.309,6,5,6s5-3.236,5-6V18.456L85.884,1.328z"></path><path d="M72,41.756c-3.264,0-6.172-1.452-8-3.888c-1.828,2.428-4.736,4.072-8,4.072s-6.172-1.544-8-3.976  c-1.828,2.432-4.732,4.02-8,4.02s-6.172-1.572-8-4c-1.828,2.428-4.732,4.008-8,4.008c-1.428,0-2.768-0.344-4-0.884V76h56V40.78  C74.764,41.376,73.428,41.756,72,41.756z"></path><path d="M80,78c0,1.1-0.9,2-2,2H18c-1.104,0-2-0.9-2-2V37.992C14.172,40.42,11.268,42,8,42v52c0,1.1,0.896,2,2,2h76c1.1,0,2-0.9,2-2  c0,0,0-49.064,0-52.948c-2.977,0-6.336-0.888-8-3.036V78z"></path></svg>