<svg xmlns="http://www.w3.org/2000/svg" xmlns:xlink="http://www.w3.org/1999/xlink" version="1.1" x="0px" y="0px" viewBox="0 0 100 100"  xml:space="preserve"><circle cx="45.8" cy="59.5" r="2.5"></circle><circle cx="59.1" cy="59.5" r="2.5"></circle><path d="M63.7,42.2l-22.5-2.5l-1.1-6c-0.1-0.5-0.5-0.9-1.1-0.9l-5.3,0.1c-0.3,0-0.6,0.1-0.8,0.3  c-0.2,0.2-0.3,0.5-0.3,0.8c0,0.3,0.1,0.6,0.3,0.8c0.2,0.2,0.5,0.3,0.8,0.3l4.4-0.1l3.6,19.6c0.1,0.5,0.5,0.9,1.1,0.9H63  c0.6,0,1.1-0.5,1.1-1l0.5-11C64.7,42.7,64.2,42.2,63.7,42.2z M62,53.2H43.7l-2.1-11.3l20.8,2.3L62,53.2z"></path><path d="M70.3,2.8H30.4c-3.1,0-5.8,2.6-5.8,5.8v81.9c0,3.1,2.6,5.8,5.8,5.8h39.9c3.1,0,5.8-2.6,5.8-5.8V8.6  C76.1,5.5,73.4,2.8,70.3,2.8z M72.9,90.5c0,1.5-1.1,2.6-2.6,2.6H30.4c-1.5,0-2.6-1.1-2.6-2.6v-8.9h45.2V90.5z M72.9,78.4H27.8V14.4  h45.2V78.4z M72.9,11.2H27.8V8.6c0-1.5,1.1-2.6,2.6-2.6h14.3c0.1,0.6,0.6,1,1.2,1h8.8c0.6,0,1.1-0.5,1.2-1h14.3  c1.5,0,2.6,1.1,2.6,2.6V11.2z"></path><circle cx="50.4" cy="87.4" r="2.7"></circle></svg>