<svg xmlns="http://www.w3.org/2000/svg" data-name="Layer 1" viewBox="0 0 100 100" x="0px" y="0px"><title>Artboard 25</title><circle cx="36.77" cy="87.94" r="7.32"></circle><circle cx="61.04" cy="87.94" r="7.32"></circle><path d="M7.47,29.83h6.18l9.86,34.29a11.1,11.1,0,0,0,10.66,8h29.4a11.09,11.09,0,0,0,10.66-8l1.32-4.58a12,12,0,0,1-4-2.59C66.65,52.07,59.12,43.4,55.77,33H26.87l-3-9a7.44,7.44,0,0,0-7.08-5.13H7.62a5.56,5.56,0,0,0-5.5,4.33A5.48,5.48,0,0,0,7.47,29.83Z"></path><path d="M80,4.74q-.58,0-1.16,0A18.11,18.11,0,0,0,62.06,22.92c.12,12,10.12,23.36,15.15,28.3a4,4,0,0,0,5.65,0C87.92,46.25,98,34.82,98,22.71A18,18,0,0,0,80,4.74ZM80,29.9a7.19,7.19,0,1,1,7.19-7.19A7.19,7.19,0,0,1,80,29.9Z"></path></svg>