<svg id="mainsvg" xmlns="http://www.w3.org/2000/svg" xmlns:xlink="http://www.w3.org/1999/xlink" version="1.1" x="0px" y="0px" enable-background="new 0 0 200 162.5" xml:space="preserve" viewBox="0 0 339 23"><path fill="#000" transform="translate(-2.24, 22.400000000000002)" d="M21.38-6.72L21.38-6.72Q21.38-5.31 20.85-4.10Q20.32-2.88 19.41-1.95Q18.50-1.02 17.26-0.50Q16.03 0.03 14.66 0.03L14.66 0.03L2.27 0.03Q2.24 0.03 2.24 0L2.24 0L2.24-22.37Q2.24-22.40 2.27-22.40L2.27-22.40L14.66-22.40Q16.03-22.40 17.26-21.87Q18.50-21.34 19.41-20.43Q20.32-19.52 20.85-18.29Q21.38-17.06 21.38-15.68L21.38-15.68Q21.38-14.37 20.93-13.23Q20.48-12.10 19.68-11.20L19.68-11.20Q20.48-10.30 20.93-9.15Q21.38-8 21.38-6.72ZM14.66-8.93L6.75-8.93L6.75-4.51L14.66-4.51Q15.58-4.51 16.22-5.15Q16.86-5.79 16.86-6.72L16.86-6.72Q16.86-7.65 16.22-8.29Q15.58-8.93 14.66-8.93L14.66-8.93ZM6.75-13.44L14.66-13.44Q15.58-13.44 16.22-14.10Q16.86-14.75 16.86-15.68L16.86-15.68Q16.86-16.58 16.22-17.23Q15.58-17.89 14.66-17.89L14.66-17.89L6.75-17.89L6.75-13.44ZM52.45-22.40L59.65 0L59.65 0L59.65 0.03L54.94 0.03L54.91 0L53.92-3.04L46.24-3.04L45.25 0L45.25 0.03L40.54 0.03L40.54 0.03L40.51 0L40.51 0L40.51 0L40.51 0L40.51-4.45L25.92-4.45Q25.89-4.45 25.89-4.48L25.89-4.48L25.89-22.37Q25.89-22.40 25.92-22.40L25.92-22.40L40.54-22.40L40.54-22.40L49.66-22.40L49.66-22.40L52.45-22.40L52.45-22.40ZM47.68-7.55L52.48-7.55L50.08-15.01L47.68-7.55ZM75.36 0.03L75.36 0.03Q73.22 0.03 71.15-0.78Q69.09-1.60 67.46-3.26L67.46-3.26Q65.86-4.86 65.01-6.90Q64.16-8.93 64.16-11.20L64.16-11.20Q64.16-13.44 65.01-15.47Q65.86-17.50 67.46-19.10L67.46-19.10Q69.09-20.77 71.15-21.58Q73.22-22.40 75.38-22.40Q77.54-22.40 79.60-21.58Q81.66-20.77 83.30-19.10L83.30-19.10Q83.33-19.10 83.30-19.07L83.30-19.07L80.13-15.90Q80.13-15.90 80.10-15.90L80.10-15.90Q79.14-16.90 77.90-17.39Q76.67-17.89 75.38-17.89Q74.08-17.89 72.85-17.39Q71.62-16.90 70.66-15.90L70.66-15.90Q69.70-14.98 69.18-13.76Q68.67-12.54 68.67-11.20L68.67-11.20Q68.67-9.86 69.18-8.64Q69.70-7.42 70.66-6.46L70.66-6.46Q71.62-5.47 72.85-4.99Q74.08-4.51 75.38-4.51Q76.67-4.51 77.90-4.99Q79.14-5.47 80.10-6.46L80.10-6.46Q80.13-6.46 80.13-6.46L80.13-6.46L83.30-3.30Q83.33-3.26 83.30-3.26L83.30-3.26Q81.66-1.60 79.60-0.78Q77.54 0.03 75.36 0.03ZM93.09 0.03L87.84 0.03Q87.81 0.03 87.81 0L87.81 0L87.81-22.37Q87.81-22.40 87.84-22.40L87.84-22.40L92.32-22.40Q92.32-22.40 92.32-22.37L92.32-22.37L92.32-7.33L94.72-11.20L97.38-15.46L97.38-15.46L101.66-22.40L101.66-22.40L106.94-22.40L106.94-22.40L106.94-22.37L100.03-11.20L106.94 0L106.94 0L106.94 0.03L101.66 0.03L101.66 0L97.38-6.88L93.12 0L93.09 0.03ZM117.38-9.34L111.49-9.34Q111.46-9.34 111.46-9.38L111.46-9.38L111.46-17.89Q111.46-17.92 111.49-17.92L111.49-17.92L117.38-17.92Q118.24-17.92 119.02-17.58Q119.81-17.25 120.40-16.67Q120.99-16.10 121.33-15.31Q121.66-14.53 121.66-13.63L121.66-13.63Q121.66-12.58 121.18-11.66Q120.70-10.75 119.84-10.14L119.84-10.14Q118.72-9.34 117.38-9.34L117.38-9.34ZM138.02-22.37L145.22 0L145.22 0L145.22 0.03L140.51 0.03L140.48 0L139.49-3.04L131.81-3.04L130.82 0L130.82 0.03L126.11 0.03L126.11 0.03L111.49 0.03Q111.46 0.03 111.46 0L111.46 0L111.46-4.90Q111.46-4.93 111.49-4.93L111.49-4.93L117.38-4.93Q117.60-4.93 117.79-4.93L117.79-4.93Q120.19-5.06 122.18-6.37L122.18-6.37Q124.03-7.58 125.06-9.50Q126.08-11.42 126.08-13.63L126.08-13.63Q126.08-15.46 125.39-17.04Q124.70-18.62 123.52-19.81Q122.34-20.99 120.75-21.68Q119.17-22.37 117.38-22.37L117.38-22.37Q117.34-22.37 117.34-22.37L117.34-22.37Q117.34-22.40 117.38-22.40L117.38-22.40L126.11-22.40L126.11-22.40L135.23-22.40L135.23-22.40L138.02-22.40L138.02-22.37ZM133.25-7.55L138.05-7.55L135.65-15.01L133.25-7.55ZM155.65-9.34L149.76-9.34Q149.73-9.34 149.73-9.38L149.73-9.38L149.73-17.89Q149.73-17.92 149.76-17.92L149.76-17.92L155.65-17.92Q156.51-17.92 157.30-17.58Q158.08-17.25 158.67-16.67Q159.26-16.10 159.60-15.31Q159.94-14.53 159.94-13.63L159.94-13.63Q159.94-12.58 159.46-11.66Q158.98-10.75 158.11-10.14L158.11-10.14Q156.99-9.34 155.65-9.34L155.65-9.34ZM183.49-17.89L168.86-17.89L168.86-13.44L179.01-13.44Q179.04-13.44 179.04-13.44L179.04-13.44L179.04-8.96Q179.04-8.93 179.01-8.93L179.01-8.93L168.86-8.93L168.86-4.51L183.49-4.51Q183.49-4.51 183.49-4.48L183.49-4.48L183.49 0Q183.49 0.03 183.49 0.03L183.49 0.03L164.38 0.03L164.38 0.03L149.76 0.03Q149.73 0.03 149.73 0L149.73 0L149.73-4.90Q149.73-4.93 149.76-4.93L149.76-4.93L155.65-4.93Q155.87-4.93 156.06-4.93L156.06-4.93Q158.46-5.06 160.45-6.37L160.45-6.37Q162.30-7.58 163.33-9.50Q164.35-11.42 164.35-13.63L164.35-13.63Q164.35-15.46 163.66-17.04Q162.98-18.62 161.79-19.81Q160.61-20.99 159.02-21.68Q157.44-22.37 155.65-22.37L155.65-22.37Q155.62-22.37 155.62-22.37L155.62-22.37Q155.62-22.40 155.65-22.40L155.65-22.40L164.38-22.40L164.38-22.40L183.49-22.40Q183.49-22.40 183.49-22.37L183.49-22.37L183.49-17.89Q183.49-17.89 183.49-17.89L183.49-17.89ZM192.51 0.03L188.03 0.03Q188 0.03 188 0L188 0L188-22.37Q188-22.40 188.03-22.40L188.03-22.40L198.40-22.40Q200.19-22.40 201.79-21.71Q203.39-21.02 204.58-19.84Q205.76-18.66 206.45-17.06Q207.14-15.46 207.14-13.63L207.14-13.63Q207.14-11.42 206.11-9.50Q205.09-7.58 203.23-6.34L203.23-6.34L207.14 0L207.14 0L207.14 0.03L201.86 0.03L201.86 0L198.82-4.90Q198.59-4.86 198.40-4.86L198.40-4.86L192.51-4.86L192.51 0Q192.51 0.03 192.51 0.03L192.51 0.03ZM200.83-10.18L200.83-10.18Q201.66-10.78 202.14-11.70Q202.62-12.61 202.62-13.63L202.62-13.63Q202.62-14.53 202.29-15.30Q201.95-16.06 201.38-16.64Q200.80-17.22 200.03-17.55Q199.26-17.89 198.40-17.89L198.40-17.89L192.51-17.89L192.51-9.41L198.40-9.41Q199.74-9.41 200.83-10.18ZM216.16 0.03L211.68 0.03Q211.65 0.03 211.65 0L211.65 0L211.65-22.37Q211.65-22.40 211.68-22.40L211.68-22.40L222.05-22.40Q223.84-22.40 225.44-21.71Q227.04-21.02 228.22-19.84Q229.41-18.66 230.10-17.06Q230.78-15.46 230.78-13.63L230.78-13.63Q230.78-11.42 229.76-9.50Q228.74-7.58 226.88-6.34L226.88-6.34L230.78 0L230.78 0L230.78 0.03L225.50 0.03L225.50 0L222.46-4.90Q222.24-4.86 222.05-4.86L222.05-4.86L216.16-4.86L216.16 0Q216.16 0.03 216.16 0.03L216.16 0.03ZM224.48-10.18L224.48-10.18Q225.31-10.78 225.79-11.70Q226.27-12.61 226.27-13.63L226.27-13.63Q226.27-14.53 225.94-15.30Q225.60-16.06 225.02-16.64Q224.45-17.22 223.68-17.55Q222.91-17.89 222.05-17.89L222.05-17.89L216.16-17.89L216.16-9.41L222.05-9.41Q223.39-9.41 224.48-10.18ZM235.30-4.48L235.30-8.96Q235.30-8.96 235.33-8.96L235.33-8.96L245.66-8.96Q245.44-10.08 245.44-11.20L245.44-11.20Q245.44-12.32 245.66-13.41L245.66-13.41L235.33-13.41Q235.30-13.41 235.30-13.44L235.30-13.44L235.30-17.89Q235.30-17.92 235.33-17.92L235.33-17.92L247.68-17.92Q248.16-18.56 248.70-19.10L248.70-19.10Q250.30-20.70 252.35-21.55Q254.40-22.40 256.64-22.40L256.64-22.40Q258.91-22.40 260.94-21.55Q262.98-20.70 264.58-19.10L264.58-19.10Q264.58-19.10 264.58-19.07L264.58-19.07L261.41-15.90Q261.41-15.90 261.38-15.90L261.38-15.90Q260.42-16.86 259.20-17.38Q257.98-17.89 256.64-17.89L256.64-17.89Q255.30-17.89 254.08-17.38Q252.86-16.86 251.90-15.90L251.90-15.90Q250.94-14.94 250.45-13.71Q249.95-12.48 249.95-11.20Q249.95-9.92 250.45-8.67Q250.94-7.42 251.90-6.46L251.90-6.46Q252.74-5.63 253.73-5.15Q254.72-4.67 255.81-4.54Q256.90-4.42 257.98-4.64Q259.07-4.86 260.06-5.44L260.06-5.44L260.06-11.20Q260.06-11.20 260.10-11.20L260.10-11.20L264.54-11.20Q264.58-11.20 264.58-11.20L264.58-11.20L264.58-3.26L264.58-3.26Q263.78-2.46 262.85-1.82L262.85-1.82Q261.44-0.93 259.87-0.45Q258.30 0.03 256.64 0.03L256.64 0.03Q256.10 0.03 255.58-0.03L255.58-0.03Q253.63-0.22 251.87-1.04Q250.11-1.86 248.70-3.26L248.70-3.26Q248.16-3.81 247.68-4.45L247.68-4.45L235.33-4.45Q235.30-4.45 235.30-4.48L235.30-4.48ZM279.30-22.37L279.30-9.54Q279.30-8.48 278.90-7.55Q278.50-6.62 277.79-5.94Q277.09-5.25 276.16-4.85Q275.23-4.45 274.18-4.45L274.18-4.45Q273.12-4.45 272.19-4.85Q271.26-5.25 270.58-5.94Q269.89-6.62 269.49-7.55Q269.09-8.48 269.09-9.54L269.09-9.54L269.09-22.37Q269.09-22.40 269.12-22.40L269.12-22.40L279.26-22.40Q279.30-22.40 279.30-22.37L279.30-22.37ZM288.22-4.51L302.85-4.51Q302.85-4.51 302.85-4.48L302.85-4.48L302.85 0Q302.85 0.03 302.85 0.03L302.85 0.03L274.18 0.03Q274.18 0.03 274.18 0L274.18 0Q274.18-0.03 274.18-0.03L274.18-0.03Q276.16-0.03 277.89-0.78Q279.62-1.54 280.91-2.82Q282.21-4.10 282.96-5.84Q283.71-7.58 283.71-9.54L283.71-9.54L283.71-22.37Q283.71-22.40 283.74-22.40L283.74-22.40L288.22-22.40Q288.22-22.40 288.22-22.37L288.22-22.37L288.22-4.51ZM314.66-7.52L309.82-7.52L309.79-7.52L309.79-7.55L312.22-15.07Q312.22-15.17 312.26-15.07L312.26-15.07L314.69-7.55L314.69-7.52L314.66-7.52ZM308.38-3.07L316.10-3.07L316.13-3.07L317.12 0L317.12 0L317.09 0.03L307.39 0.03L307.36 0L307.36 0L308.35-3.07L308.38-3.07ZM336.99-6.34L340.90 0L340.90 0L340.90 0.03L335.62 0.03L335.62 0L332.58-4.90Q332.35-4.86 332.16-4.86L332.16-4.86L326.27-4.86L326.27 0Q326.27 0.03 326.27 0.03L326.27 0.03L321.79 0.03L321.76 0L321.76 0L314.56-22.37L314.56-22.40L314.59-22.40L332.16-22.40Q333.95-22.40 335.55-21.71Q337.15-21.02 338.34-19.84Q339.52-18.66 340.21-17.06Q340.90-15.46 340.90-13.63L340.90-13.63Q340.90-11.42 339.87-9.50Q338.85-7.58 336.99-6.34L336.99-6.34ZM334.59-10.18L334.59-10.18Q335.46-10.78 335.92-11.70Q336.38-12.61 336.38-13.63L336.38-13.63Q336.38-14.53 336.05-15.30Q335.71-16.06 335.14-16.64Q334.56-17.22 333.79-17.55Q333.02-17.89 332.16-17.89L332.16-17.89L326.27-17.89L326.27-9.41L332.16-9.41Q333.50-9.41 334.59-10.18Z"/></svg>