<svg id="mainsvg" xmlns="http://www.w3.org/2000/svg" xmlns:xlink="http://www.w3.org/1999/xlink" version="1.1" x="0px" y="0px" enable-background="new 0 0 200 162.5" xml:space="preserve" viewBox="0 0 100 25"><path fill="#000" transform="translate(-2.3125, 24)" d="M15.23 0L10.67-8.77L6.27-8.77L6.27 0L2.31 0L2.31-22.75L10.31-22.75Q14.25-22.75 16.39-20.98Q18.53-19.22 18.53-15.88L18.53-15.88Q18.53-13.59 17.43-12.05Q16.33-10.52 14.36-9.69L14.36-9.69L19.47-0.20L19.47 0L15.23 0ZM6.27-19.56L6.27-11.94L10.33-11.94Q12.33-11.94 13.45-12.95Q14.58-13.95 14.58-15.70L14.58-15.70Q14.58-17.53 13.54-18.53Q12.50-19.53 10.44-19.56L10.44-19.56L6.27-19.56ZM21.20-8.42L21.20-8.61Q21.20-11.09 22.19-13.09Q23.17-15.08 24.95-16.15Q26.73-17.22 29.05-17.22L29.05-17.22Q32.47-17.22 34.60-15.02Q36.73-12.81 36.91-9.17L36.91-9.17L36.92-8.28Q36.92-5.78 35.96-3.81Q35-1.84 33.21-0.77Q31.42 0.31 29.08 0.31L29.08 0.31Q25.50 0.31 23.35-2.07Q21.20-4.45 21.20-8.42L21.20-8.42ZM25-8.28L25-8.28Q25-5.67 26.08-4.20Q27.16-2.72 29.08-2.72Q31-2.72 32.07-4.22Q33.14-5.72 33.14-8.61L33.14-8.61Q33.14-11.17 32.04-12.67Q30.94-14.17 29.05-14.17L29.05-14.17Q27.19-14.17 26.09-12.70Q25-11.22 25-8.28ZM54.97-8.50L54.97-8.28Q54.97-4.34 53.21-2.02Q51.45 0.31 48.38 0.31L48.38 0.31Q45.41 0.31 43.75-1.83L43.75-1.83L43.56 0L40.13 0L40.13-24L43.92-24L43.92-15.28Q45.56-17.22 48.34-17.22L48.34-17.22Q51.44-17.22 53.20-14.92Q54.97-12.63 54.97-8.50L54.97-8.50ZM51.17-8.13L51.17-8.61Q51.17-11.36 50.20-12.73Q49.23-14.11 47.39-14.11L47.39-14.11Q44.92-14.11 43.92-11.95L43.92-11.95L43.92-4.98Q44.94-2.78 47.42-2.78L47.42-2.78Q49.20-2.78 50.17-4.11Q51.14-5.44 51.17-8.13L51.17-8.13ZM57.44-8.42L57.44-8.61Q57.44-11.09 58.42-13.09Q59.41-15.08 61.19-16.15Q62.97-17.22 65.28-17.22L65.28-17.22Q68.70-17.22 70.84-15.02Q72.97-12.81 73.14-9.17L73.14-9.17L73.16-8.28Q73.16-5.78 72.20-3.81Q71.23-1.84 69.45-0.77Q67.66 0.31 65.31 0.31L65.31 0.31Q61.73 0.31 59.59-2.07Q57.44-4.45 57.44-8.42L57.44-8.42ZM61.23-8.28L61.23-8.28Q61.23-5.67 62.31-4.20Q63.39-2.72 65.31-2.72Q67.23-2.72 68.30-4.22Q69.38-5.72 69.38-8.61L69.38-8.61Q69.38-11.17 68.27-12.67Q67.17-14.17 65.28-14.17L65.28-14.17Q63.42-14.17 62.33-12.70Q61.23-11.22 61.23-8.28ZM77.33-21.02L81.13-21.02L81.13-16.91L84.11-16.91L84.11-14.09L81.13-14.09L81.13-4.66Q81.13-3.69 81.51-3.26Q81.89-2.83 82.88-2.83L82.88-2.83Q83.53-2.83 84.20-2.98L84.20-2.98L84.20-0.05Q82.91 0.31 81.70 0.31L81.70 0.31Q77.33 0.31 77.33-4.52L77.33-4.52L77.33-14.09L74.55-14.09L74.55-16.91L77.33-16.91L77.33-21.02ZM86.30-8.42L86.30-8.61Q86.30-11.09 87.28-13.09Q88.27-15.08 90.05-16.15Q91.83-17.22 94.14-17.22L94.14-17.22Q97.56-17.22 99.70-15.02Q101.83-12.81 102-9.17L102-9.17L102.02-8.28Q102.02-5.78 101.05-3.81Q100.09-1.84 98.30-0.77Q96.52 0.31 94.17 0.31L94.17 0.31Q90.59 0.31 88.45-2.07Q86.30-4.45 86.30-8.42L86.30-8.42ZM90.09-8.28L90.09-8.28Q90.09-5.67 91.17-4.20Q92.25-2.72 94.17-2.72Q96.09-2.72 97.16-4.22Q98.23-5.72 98.23-8.61L98.23-8.61Q98.23-11.17 97.13-12.67Q96.03-14.17 94.14-14.17L94.14-14.17Q92.28-14.17 91.19-12.70Q90.09-11.22 90.09-8.28Z"/></svg>