<svg id="mainsvg" xmlns="http://www.w3.org/2000/svg" xmlns:xlink="http://www.w3.org/1999/xlink" version="1.1" x="0px" y="0px" enable-background="new 0 0 200 162.5" xml:space="preserve" viewBox="0 0 85 27"><path fill="#000" transform="translate(-1.568, 26.208000000000002)" d="M8.99 0.35L8.99 0.35Q6.24 0.35 4.61-0.67Q2.98-1.70 2.27-3.62Q1.57-5.54 1.57-8.16L1.57-8.16L1.57-17.86Q1.57-20.48 2.27-22.35Q2.98-24.22 4.61-25.22Q6.24-26.21 8.99-26.21L8.99-26.21Q11.81-26.21 13.42-25.22Q15.04-24.22 15.76-22.35Q16.48-20.48 16.48-17.86L16.48-17.86L16.48-8.13Q16.48-5.54 15.76-3.63Q15.04-1.73 13.42-0.69Q11.81 0.35 8.99 0.35ZM8.99-3.14L8.99-3.14Q10.18-3.14 10.74-3.65Q11.30-4.16 11.49-5.06Q11.68-5.95 11.68-7.01L11.68-7.01L11.68-18.94Q11.68-20.03 11.49-20.90Q11.30-21.76 10.74-22.26Q10.18-22.75 8.99-22.75L8.99-22.75Q7.87-22.75 7.30-22.26Q6.72-21.76 6.53-20.90Q6.34-20.03 6.34-18.94L6.34-18.94L6.34-7.01Q6.34-5.95 6.51-5.06Q6.69-4.16 7.26-3.65Q7.84-3.14 8.99-3.14ZM24.70 0.29L24.70 0.29Q22.37 0.29 20.86-0.96Q19.36-2.21 18.72-4.61L18.72-4.61L21.95-5.86Q22.34-4.35 22.98-3.55Q23.62-2.75 24.64-2.75L24.64-2.75Q25.41-2.75 25.79-3.14Q26.18-3.52 26.18-4.19L26.18-4.19Q26.18-4.96 25.71-5.58Q25.25-6.21 24.13-7.14L24.13-7.14L21.89-9.02Q20.67-10.08 19.92-11.18Q19.17-12.29 19.17-13.95L19.17-13.95Q19.17-15.46 19.86-16.53Q20.54-17.60 21.74-18.19Q22.94-18.78 24.42-18.78L24.42-18.78Q26.66-18.78 28.02-17.46Q29.38-16.13 29.76-13.98L29.76-13.98L26.91-12.77Q26.75-13.54 26.45-14.19Q26.14-14.85 25.66-15.26Q25.18-15.68 24.54-15.68L24.54-15.68Q23.87-15.68 23.47-15.26Q23.07-14.85 23.07-14.21L23.07-14.21Q23.07-13.66 23.54-13.09Q24-12.51 24.86-11.78L24.86-11.78L27.14-9.73Q27.87-9.09 28.54-8.35Q29.22-7.62 29.66-6.70Q30.11-5.79 30.11-4.61L30.11-4.61Q30.11-3.01 29.39-1.92Q28.67-0.83 27.44-0.27Q26.21 0.29 24.70 0.29ZM38.21 0L34.43 0L31.58-18.50L35.20-18.50L36.83-6.50L38.75-18.50L41.98-18.50L43.81-6.37L45.57-18.50L48.99-18.50L46.08 0L42.40 0L40.35-11.68L38.21 0ZM55.04 0.29L55.04 0.29Q53.79 0.29 52.90-0.37Q52-1.02 51.52-2.03Q51.04-3.04 51.04-4.13L51.04-4.13Q51.04-5.86 51.68-7.04Q52.32-8.22 53.38-9.02Q54.43-9.82 55.78-10.42Q57.12-11.01 58.50-11.49L58.50-11.49L58.50-13.09Q58.50-13.89 58.38-14.43Q58.27-14.98 57.97-15.26Q57.66-15.55 57.02-15.55L57.02-15.55Q56.48-15.55 56.14-15.30Q55.81-15.04 55.66-14.58Q55.52-14.11 55.49-13.50L55.49-13.50L55.42-12.38L51.30-12.54Q51.39-15.74 52.88-17.26Q54.37-18.78 57.41-18.78L57.41-18.78Q60.19-18.78 61.46-17.25Q62.72-15.71 62.72-13.09L62.72-13.09L62.72-4.54Q62.72-3.52 62.77-2.69Q62.82-1.86 62.90-1.18Q62.98-0.51 63.04 0L63.04 0L59.14 0Q59.04-0.64 58.90-1.46Q58.75-2.27 58.69-2.66L58.69-2.66Q58.37-1.54 57.47-0.62Q56.58 0.29 55.04 0.29ZM56.64-2.94L56.64-2.94Q57.06-2.94 57.42-3.15Q57.79-3.36 58.08-3.65Q58.37-3.94 58.50-4.16L58.50-4.16L58.50-9.31Q57.79-8.90 57.17-8.48Q56.54-8.06 56.08-7.57Q55.62-7.07 55.38-6.50Q55.14-5.92 55.14-5.15L55.14-5.15Q55.14-4.13 55.54-3.54Q55.94-2.94 56.64-2.94ZM70.53 0L66.21 0L66.21-25.92L70.53-25.92L70.53 0ZM78.14 0.29L78.14 0.29Q75.94 0.29 74.80-1.28Q73.66-2.85 73.66-6.30L73.66-6.30L73.66-11.97Q73.66-13.89 74.10-15.42Q74.53-16.96 75.49-17.87Q76.45-18.78 78.08-18.78L78.08-18.78Q79.07-18.78 79.92-18.38Q80.77-17.98 81.47-17.34L81.47-17.34L81.47-25.92L85.82-25.92L85.82 0L81.47 0L81.47-1.31Q80.74-0.58 79.90-0.14Q79.07 0.29 78.14 0.29ZM79.74-2.72L79.74-2.72Q80.10-2.72 80.54-2.88Q80.99-3.04 81.47-3.33L81.47-3.33L81.47-15.20Q81.09-15.46 80.64-15.63Q80.19-15.81 79.71-15.81L79.71-15.81Q78.78-15.81 78.42-14.96Q78.05-14.11 78.05-12.90L78.05-12.90L78.05-5.98Q78.05-5.06 78.18-4.32Q78.30-3.58 78.67-3.15Q79.04-2.72 79.74-2.72Z"/></svg>