<svg id="mainsvg" xmlns="http://www.w3.org/2000/svg" xmlns:xlink="http://www.w3.org/1999/xlink" version="1.1" x="0px" y="0px" enable-background="new 0 0 200 162.5" xml:space="preserve" viewBox="0 0 97 20"><path fill="#000" transform="translate(-1.536, 19.424)" d="M1.54 0L1.54-18.24L7.30-18.24L7.30-4.22L14.75-4.22L14.75 0L1.54 0ZM29.86 0L25.31 0L24.80-2.02Q23.33 0.38 20.70 0.38L20.70 0.38Q18.56 0.38 17.20-0.82Q15.84-2.02 15.84-4.19L15.84-4.19Q15.84-5.54 16.62-6.54Q17.41-7.55 18.78-7.97L18.78-7.97Q20.58-8.48 24.32-8.54L24.32-8.54Q24.32-10.66 24.13-10.78L24.13-10.78Q23.97-10.91 23.10-10.91L23.10-10.91Q22.56-10.91 21.60-10.85L21.60-10.85Q20.06-10.78 17.44-10.50L17.44-10.50Q17.18-12.22 17.06-14.21L17.06-14.21Q18.75-14.56 20.61-14.80Q22.46-15.04 23.94-15.04L23.94-15.04Q26.50-15.04 27.78-14.19Q29.06-13.34 29.44-11.97Q29.82-10.59 29.79-8.48L29.79-8.48L29.76-3.78L29.86 0ZM22.56-3.20Q23.39-3.20 24.32-3.52L24.32-3.52L24.32-5.89L24.06-5.89Q21.70-5.89 21.44-5.63L21.44-5.63Q21.28-5.47 21.20-5.15Q21.12-4.83 21.12-4.54L21.12-4.54Q21.12-3.78 21.47-3.49Q21.82-3.20 22.56-3.20L22.56-3.20ZM32.35 0L32.35-19.20L37.82-19.42L37.82 0L32.35 0ZM49.47-3.84Q50.27-3.84 52.45-4L52.45-4Q52.74-4 53.50-4.06L53.50-4.06L53.98-0.77Q51.52 0.38 47.58 0.38L47.58 0.38Q43.90 0.38 41.94-1.47Q39.97-3.33 39.97-7.07L39.97-7.07Q39.97-8.99 40.46-10.78Q40.96-12.58 41.60-13.28L41.60-13.28Q42.27-13.98 44.10-14.50Q45.92-15.01 47.71-15.01L47.71-15.01Q50.59-15.01 52.03-13.98Q53.47-12.96 53.92-11.15Q54.37-9.34 54.37-6.30L54.37-6.30Q52.19-6.18 50.11-6.18L50.11-6.18L45.57-6.18Q45.57-5.15 46-4.64Q46.43-4.13 47.23-3.98Q48.03-3.84 49.47-3.84L49.47-3.84ZM45.89-11.20Q45.70-11.10 45.60-10.37Q45.50-9.63 45.47-8.70L45.47-8.70L47.14-8.70Q48.64-8.70 49.31-8.74L49.31-8.74Q49.31-10.27 48.88-10.91Q48.45-11.55 47.39-11.55L47.39-11.55Q46.53-11.55 45.89-11.20L45.89-11.20ZM61.82-3.58L69.06-3.58L69.06 0L55.84 0L55.84-3.68L62.94-11.23L56.03-11.23L56.03-14.72L68.90-14.72L68.90-11.07L61.82-3.58ZM84.54 0L80 0L79.49-2.02Q78.02 0.38 75.39 0.38L75.39 0.38Q73.25 0.38 71.89-0.82Q70.53-2.02 70.53-4.19L70.53-4.19Q70.53-5.54 71.31-6.54Q72.10-7.55 73.47-7.97L73.47-7.97Q75.26-8.48 79.01-8.54L79.01-8.54Q79.01-10.66 78.82-10.78L78.82-10.78Q78.66-10.91 77.79-10.91L77.79-10.91Q77.25-10.91 76.29-10.85L76.29-10.85Q74.75-10.78 72.13-10.50L72.13-10.50Q71.87-12.22 71.74-14.21L71.74-14.21Q73.44-14.56 75.30-14.80Q77.15-15.04 78.62-15.04L78.62-15.04Q81.18-15.04 82.46-14.19Q83.74-13.34 84.13-11.97Q84.51-10.59 84.48-8.48L84.48-8.48L84.45-3.78L84.54 0ZM77.25-3.20Q78.08-3.20 79.01-3.52L79.01-3.52L79.01-5.89L78.75-5.89Q76.38-5.89 76.13-5.63L76.13-5.63Q75.97-5.47 75.89-5.15Q75.81-4.83 75.81-4.54L75.81-4.54Q75.81-3.78 76.16-3.49Q76.51-3.20 77.25-3.20L77.25-3.20ZM96.06-15.04Q96.48-15.04 96.94-14.94Q97.41-14.85 97.63-14.72L97.63-14.72Q97.63-14.02 97.47-12.40Q97.31-10.78 97.18-10.11L97.18-10.11Q96.86-10.14 96-10.14L96-10.14Q93.98-10.14 92.42-9.92L92.42-9.92L92.42 0L86.94 0L86.94-14.72L91.52-14.72L92.16-12.35L92.19-12.35Q93.12-13.57 94.18-14.30Q95.23-15.04 96.06-15.04L96.06-15.04Z"/></svg>