<svg id="mainsvg" xmlns="http://www.w3.org/2000/svg" xmlns:xlink="http://www.w3.org/1999/xlink" version="1.1" x="0px" y="0px" enable-background="new 0 0 200 162.5" xml:space="preserve" viewBox="0 0 122 30"><path fill="#000" transform="translate(-0.8, 22.88)" d="M24.06-11.23L24.06-11.23Q24.06-9.38 23.54-7.71Q23.01-6.05 22.05-4.64L22.05-4.64L24.06-2.59L24.06 2.85L12.42-8.80L12.42-14.24L19.26-7.42Q20.22-9.15 20.22-11.23L20.22-11.23Q20.22-12.80 19.65-14.21Q19.07-15.62 17.95-16.74L17.95-16.74Q16.83-17.86 15.42-18.45Q14.02-19.04 12.42-19.04L12.42-19.04Q10.85-19.04 9.44-18.45Q8.03-17.86 6.91-16.74L6.91-16.74Q5.79-15.62 5.22-14.21Q4.64-12.80 4.64-11.23L4.64-11.23Q4.64-9.66 5.22-8.24Q5.79-6.82 6.91-5.70L6.91-5.70Q8.03-4.58 9.44-4Q10.85-3.42 12.42-3.42L12.42-3.42Q12.83-3.42 13.23-3.47Q13.63-3.52 14.02-3.58L14.02-3.58L17.06-0.54Q16-0.10 14.83 0.16Q13.66 0.42 12.42 0.42L12.42 0.42Q10.02 0.42 7.89-0.50Q5.76-1.41 4.19-2.99Q2.62-4.58 1.71-6.70Q0.80-8.83 0.80-11.23L0.80-11.23Q0.80-13.63 1.71-15.76Q2.62-17.89 4.19-19.47Q5.76-21.06 7.89-21.97Q10.02-22.88 12.42-22.88L12.42-22.88Q14.85-22.88 16.96-21.97Q19.07-21.06 20.66-19.47Q22.24-17.89 23.15-15.76Q24.06-13.63 24.06-11.23ZM37.63-16L41.47-16L41.47 0L37.63 0L37.63-1.22Q36.77-0.48 35.68-0.02Q34.59 0.45 33.25 0.45L33.25 0.45Q31.68 0.45 30.40-0.14Q29.12-0.74 28.21-1.76Q27.30-2.78 26.80-4.16Q26.30-5.54 26.30-7.10L26.30-7.10L26.30-16L30.14-16L30.14-7.10Q30.14-5.60 31.26-4.48L31.26-4.48Q32.35-3.39 33.89-3.39L33.89-3.39Q35.46-3.39 36.54-4.48L36.54-4.48Q37.63-5.57 37.63-7.10L37.63-7.10L37.63-16ZM56.13-16.03L59.97-16.03L59.97 0L56.13 0L56.13-8Q56.13-9.92 54.78-11.26L54.78-11.26Q53.44-12.61 51.52-12.61L51.52-12.61Q50.59-12.61 49.74-12.26Q48.90-11.90 48.26-11.26L48.26-11.26Q46.91-9.92 46.91-8L46.91-8Q46.91-6.11 48.26-4.77L48.26-4.77Q48.90-4.10 49.74-3.76Q50.59-3.42 51.52-3.42L51.52-3.42Q52.48-3.42 53.25-3.74L53.25-3.74L54.62-0.32Q53.15 0.42 51.20 0.42L51.20 0.42Q49.44 0.42 47.95-0.24Q46.46-0.90 45.38-2.05Q44.29-3.20 43.68-4.74Q43.07-6.27 43.07-8L43.07-8Q43.07-9.76 43.68-11.30Q44.29-12.83 45.38-13.98Q46.46-15.14 47.95-15.79Q49.44-16.45 51.20-16.45L51.20-16.45Q52.77-16.45 53.98-15.97Q55.20-15.49 56.13-14.75L56.13-14.75L56.13-16.03ZM70.27-16.45L70.27-16.45Q71.84-16.45 73.12-15.86Q74.40-15.26 75.31-14.22Q76.22-13.18 76.72-11.81Q77.22-10.43 77.22-8.86L77.22-8.86L77.22 0L73.38 0L73.38-8.86Q73.38-10.46 72.26-11.52L72.26-11.52Q71.17-12.61 69.63-12.61L69.63-12.61Q68.06-12.61 66.98-11.52L66.98-11.52Q65.89-10.43 65.89-8.86L65.89-8.86L65.89 0L62.05 0L62.05-16L65.89-16L65.89-14.78Q66.75-15.52 67.84-15.98Q68.93-16.45 70.27-16.45ZM86.62-3.84L87.58 0L84.06 0Q82.98 0 82.02-0.42Q81.06-0.83 80.35-1.55Q79.65-2.27 79.23-3.23Q78.82-4.19 78.82-5.28L78.82-5.28L78.82-19.23L82.66-20.19L82.66-14.08L84.90-14.08L85.86-10.24L82.66-10.24L82.66-5.28Q82.66-4.67 83.07-4.26Q83.49-3.84 84.06-3.84L84.06-3.84L86.62-3.84ZM92.70 0L88.86 0L88.86-16L92.70-16L92.70 0ZM88.86-18.56L88.86-22.40L92.70-22.40L92.70-18.56L88.86-18.56ZM102.34-18.56L102.34-18.56Q101.54-18.56 100.85-18.26Q100.16-17.95 99.63-17.44Q99.10-16.93 98.78-16.24Q98.46-15.55 98.46-14.75L98.46-14.75L100.74-14.75L101.70-10.91L98.46-10.91L98.46 0L94.62 0L94.62-10.91L94.62-14.72L94.62-14.75Q94.66-16.29 95.23-17.68Q95.81-19.07 96.90-20.16L96.90-20.16Q97.98-21.25 99.39-21.82Q100.80-22.40 102.34-22.40L102.34-22.40L102.34-18.56ZM117.66-16L121.89-16L114.46 0L113.47 2.18Q112.58 4.13 110.78 5.28Q108.99 6.43 106.82 6.43L106.82 6.43L105.12 6.43L106.08 2.59L107.01 2.59Q107.94 2.59 108.74 2.08Q109.54 1.57 109.92 0.70L109.92 0.70L110.24 0L102.82-16L107.04-16L112.35-4.54L117.66-16Z"/></svg>