<svg id="mainsvg" xmlns="http://www.w3.org/2000/svg" xmlns:xlink="http://www.w3.org/1999/xlink" version="1.1" x="0px" y="0px" enable-background="new 0 0 200 162.5" xml:space="preserve" viewBox="0 0 267 27"><path fill="#000" transform="translate(0, 20.64)" d="M19.94-15.49L19.94-15.49Q19.94-13.60 18.88-12Q17.82-10.40 15.39-9.57L15.39-9.57L19.10 0L11.97 0L9.15-8.86L8.80-8.86L6.91 0L0 0L4.32-20.32L12.74-20.32Q14.21-20.32 15.52-20.14Q16.83-19.97 17.81-19.44Q18.78-18.91 19.36-17.97Q19.94-17.02 19.94-15.49ZM9.22-10.91L10.72-10.91Q11.55-10.91 12.14-11.47Q12.74-12.03 13.10-12.83Q13.47-13.63 13.63-14.54Q13.79-15.46 13.79-16.13L13.79-16.13Q13.79-16.96 13.50-17.55Q13.22-18.14 12.26-18.14L12.26-18.14L10.82-18.14L9.22-10.91ZM21.95-9.73L22.56-12.58Q24.19-13.38 25.90-13.74Q27.62-14.11 29.73-14.11L29.73-14.11Q31.78-14.11 33.12-13.79Q34.46-13.47 35.26-12.86Q36.06-12.26 36.38-11.42Q36.70-10.59 36.70-9.54L36.70-9.54Q36.70-8.93 36.62-8.22Q36.54-7.52 36.45-7.04L36.45-7.04L34.94 0L29.79 0L29.22-2.05L29.02-2.05Q28-0.93 26.64-0.34Q25.28 0.26 23.94 0.26L23.94 0.26Q23.17 0.26 22.43 0.03Q21.70-0.19 21.12-0.66Q20.54-1.12 20.19-1.84Q19.84-2.56 19.84-3.58L19.84-3.58Q19.84-5.25 20.75-6.22Q21.66-7.20 23.15-7.70Q24.64-8.19 26.51-8.32Q28.38-8.45 30.27-8.45L30.27-8.45Q30.34-8.77 30.43-9.36Q30.53-9.95 30.53-10.40L30.53-10.40Q30.53-10.98 30.22-11.47Q29.92-11.97 28.96-11.97L28.96-11.97Q27.84-11.97 27.31-11.31Q26.78-10.66 26.62-9.73L26.62-9.73L21.95-9.73ZM29.41-4.48L29.92-6.94L29.34-6.94Q28.42-6.94 27.76-6.70Q27.10-6.46 26.70-6.08Q26.30-5.70 26.11-5.22Q25.92-4.74 25.92-4.26L25.92-4.26Q25.92-3.49 26.32-3.10Q26.72-2.72 27.26-2.72L27.26-2.72Q27.94-2.72 28.59-3.20Q29.25-3.68 29.41-4.48L29.41-4.48ZM53.06-5.28L52.13-0.77Q50.78-0.22 49.30 0.02Q47.81 0.26 45.92 0.26L45.92 0.26Q44.26 0.26 42.86-0.08Q41.47-0.42 40.45-1.15Q39.42-1.89 38.85-3.06Q38.27-4.22 38.27-5.89L38.27-5.89Q38.27-7.62 38.86-9.10Q39.46-10.59 40.66-11.71Q41.86-12.83 43.71-13.47Q45.57-14.11 48.13-14.11L48.13-14.11Q50.21-14.11 51.74-13.78Q53.28-13.44 54.27-12.26L54.27-12.26L53.38-8.16L49.02-8.16Q49.06-8.70 49.09-9.12Q49.12-9.54 49.12-10.05L49.12-10.05Q49.12-11.07 48.90-11.50Q48.67-11.94 48.16-11.94L48.16-11.94Q47.26-11.94 46.59-11.06Q45.92-10.18 45.49-8.94Q45.06-7.71 44.85-6.35Q44.64-4.99 44.64-4.03L44.64-4.03Q44.64-3.68 44.67-3.31Q44.70-2.94 44.82-2.62Q44.93-2.30 45.12-2.11Q45.31-1.92 45.66-1.92L45.66-1.92Q45.98-1.92 46.40-2.11Q46.82-2.30 47.20-2.70Q47.58-3.10 47.94-3.74Q48.29-4.38 48.48-5.28L48.48-5.28L53.06-5.28ZM63.74-13.76L60.77 0L54.27 0L57.18-13.76L63.74-13.76ZM64.58-17.95L64.58-17.95Q64.58-17.22 64.27-16.67Q63.97-16.13 63.47-15.74Q62.98-15.36 62.34-15.17Q61.70-14.98 61.02-14.98L61.02-14.98Q59.74-14.98 58.88-15.58Q58.02-16.19 58.02-17.50L58.02-17.50Q58.02-18.21 58.30-18.77Q58.59-19.33 59.09-19.70Q59.58-20.06 60.24-20.26Q60.90-20.45 61.60-20.45L61.60-20.45Q62.85-20.45 63.71-19.84Q64.58-19.23 64.58-17.95ZM72.35-11.71L72.54-11.71Q73.22-12.35 74.05-12.90L74.05-12.90Q74.78-13.34 75.78-13.73Q76.77-14.11 77.98-14.11L77.98-14.11Q79.65-14.11 80.74-13.26Q81.82-12.42 81.82-10.94L81.82-10.94Q81.82-10.53 81.73-9.94Q81.63-9.34 81.50-8.70Q81.38-8.06 81.23-7.41Q81.09-6.75 80.99-6.24L80.99-6.24L79.65 0L73.15 0L74.91-8.35Q74.98-8.77 75.07-9.20Q75.17-9.63 75.17-9.98L75.17-9.98Q75.17-10.46 74.93-10.77Q74.69-11.07 74.21-11.07L74.21-11.07Q73.63-11.07 73.10-10.66Q72.58-10.24 72.29-9.95L72.29-9.95L70.18 0L63.65 0L66.56-13.76L71.78-13.76L72.35-11.71ZM94.34-11.68L95.78-13.76L100.96-13.76L98.34-1.31Q98.05 0.13 97.38 1.34Q96.70 2.56 95.50 3.46Q94.30 4.35 92.50 4.86Q90.69 5.38 88.10 5.38L88.10 5.38Q87.62 5.38 86.94 5.36Q86.27 5.34 85.57 5.33Q84.86 5.31 84.22 5.28Q83.58 5.25 83.20 5.22L83.20 5.22L83.81 2.91Q84.83 3.07 85.90 3.09Q86.98 3.10 87.74 3.10L87.74 3.10Q88.70 3.10 89.36 2.93Q90.02 2.75 90.45 2.37Q90.88 1.98 91.15 1.34Q91.42 0.70 91.58-0.22L91.58-0.22L91.97-2.30L91.74-2.30Q91.55-2.02 91.18-1.62Q90.82-1.22 90.24-0.85Q89.66-0.48 88.88-0.24Q88.10 0 87.10 0L87.10 0Q85.98 0 85.20-0.34Q84.42-0.67 83.94-1.26Q83.46-1.86 83.23-2.67Q83.01-3.49 83.01-4.45L83.01-4.45Q83.01-4.86 83.07-5.73Q83.14-6.59 83.38-7.68Q83.62-8.77 84.08-9.90Q84.54-11.04 85.33-11.97Q86.11-12.90 87.28-13.50Q88.45-14.11 90.11-14.11L90.11-14.11Q90.62-14.11 91.23-14.02Q91.84-13.92 92.42-13.66Q92.99-13.41 93.44-12.93Q93.89-12.45 94.14-11.68L94.14-11.68L94.34-11.68ZM92.19-10.98L92.19-10.98Q91.42-10.98 90.91-10.16Q90.40-9.34 90.08-8.26Q89.76-7.17 89.62-6.10Q89.47-5.02 89.47-4.51L89.47-4.51Q89.47-3.87 89.68-3.44Q89.89-3.01 90.43-3.01L90.43-3.01Q90.75-3.01 91.06-3.17Q91.36-3.33 91.63-3.54Q91.90-3.74 92.11-3.97Q92.32-4.19 92.42-4.32L92.42-4.32L93.60-9.92Q93.34-10.27 93.01-10.62Q92.67-10.98 92.19-10.98ZM100.29 3.39L100.96 0.48L116.06 0.48L115.42 3.39L100.29 3.39ZM137.41-14.43L132.10-14.43Q132.19-14.91 132.19-15.74L132.19-15.74Q132.19-16.22 132.13-16.69Q132.06-17.15 131.90-17.52Q131.74-17.89 131.42-18.10Q131.10-18.30 130.59-18.30L130.59-18.30Q130.02-18.30 129.54-18.05Q129.06-17.79 128.69-17.39Q128.32-16.99 128.11-16.46Q127.90-15.94 127.90-15.36L127.90-15.36Q127.90-14.53 128.34-14.08Q128.77-13.63 129.47-13.34Q130.18-13.06 131.07-12.86Q131.97-12.67 132.93-12.42L132.93-12.42Q133.73-12.19 134.53-11.84Q135.33-11.49 135.95-10.90Q136.58-10.30 136.96-9.36Q137.34-8.42 137.34-7.01L137.34-7.01Q137.34-4.99 136.54-3.62Q135.74-2.24 134.34-1.38Q132.93-0.51 130.99-0.13Q129.06 0.26 126.78 0.26L126.78 0.26Q124.48 0.26 123.02-0.05Q121.57-0.35 120.74-0.70L120.74-0.70Q119.74-1.12 119.26-1.66L119.26-1.66L120.35-6.05L125.98-6.05Q125.95-5.76 125.92-5.26Q125.89-4.77 125.89-4.48L125.89-4.48Q125.89-4.10 125.98-3.68Q126.08-3.26 126.29-2.91Q126.50-2.56 126.88-2.34Q127.26-2.11 127.84-2.11L127.84-2.11Q128.48-2.11 128.98-2.40Q129.47-2.69 129.81-3.12Q130.14-3.55 130.32-4.08Q130.50-4.61 130.50-5.12L130.50-5.12Q130.50-5.82 130.16-6.30Q129.82-6.78 129.25-7.12Q128.67-7.46 127.92-7.70Q127.17-7.94 126.37-8.19L126.37-8.19Q125.60-8.42 124.75-8.74Q123.90-9.06 123.20-9.63Q122.50-10.21 122.03-11.09Q121.57-11.97 121.57-13.34L121.57-13.34Q121.57-15.39 122.61-16.78Q123.65-18.18 125.23-19.04Q126.82-19.90 128.70-20.27Q130.59-20.64 132.29-20.64L132.29-20.64Q134.53-20.64 136.14-20.11Q137.76-19.58 138.59-18.88L138.59-18.88L137.41-14.43ZM139.97-9.73L140.58-12.58Q142.21-13.38 143.92-13.74Q145.63-14.11 147.74-14.11L147.74-14.11Q149.79-14.11 151.14-13.79Q152.48-13.47 153.28-12.86Q154.08-12.26 154.40-11.42Q154.72-10.59 154.72-9.54L154.72-9.54Q154.72-8.93 154.64-8.22Q154.56-7.52 154.46-7.04L154.46-7.04L152.96 0L147.81 0L147.23-2.05L147.04-2.05Q146.02-0.93 144.66-0.34Q143.30 0.26 141.95 0.26L141.95 0.26Q141.18 0.26 140.45 0.03Q139.71-0.19 139.14-0.66Q138.56-1.12 138.21-1.84Q137.86-2.56 137.86-3.58L137.86-3.58Q137.86-5.25 138.77-6.22Q139.68-7.20 141.17-7.70Q142.66-8.19 144.53-8.32Q146.40-8.45 148.29-8.45L148.29-8.45Q148.35-8.77 148.45-9.36Q148.54-9.95 148.54-10.40L148.54-10.40Q148.54-10.98 148.24-11.47Q147.94-11.97 146.98-11.97L146.98-11.97Q145.86-11.97 145.33-11.31Q144.80-10.66 144.64-9.73L144.64-9.73L139.97-9.73ZM147.42-4.48L147.94-6.94L147.36-6.94Q146.43-6.94 145.78-6.70Q145.12-6.46 144.72-6.08Q144.32-5.70 144.13-5.22Q143.94-4.74 143.94-4.26L143.94-4.26Q143.94-3.49 144.34-3.10Q144.74-2.72 145.28-2.72L145.28-2.72Q145.95-2.72 146.61-3.20Q147.26-3.68 147.42-4.48L147.42-4.48ZM164.32-11.71L164.51-11.71Q165.18-12.35 166.02-12.90L166.02-12.90Q166.75-13.34 167.74-13.73Q168.74-14.11 169.95-14.11L169.95-14.11Q171.62-14.11 172.70-13.26Q173.79-12.42 173.79-10.94L173.79-10.94Q173.79-10.53 173.70-9.94Q173.60-9.34 173.47-8.70Q173.34-8.06 173.20-7.41Q173.06-6.75 172.96-6.24L172.96-6.24L171.62 0L165.12 0L166.88-8.35Q166.94-8.77 167.04-9.20Q167.14-9.63 167.14-9.98L167.14-9.98Q167.14-10.46 166.90-10.77Q166.66-11.07 166.18-11.07L166.18-11.07Q165.60-11.07 165.07-10.66Q164.54-10.24 164.26-9.95L164.26-9.95L162.14 0L155.62 0L158.53-13.76L163.74-13.76L164.32-11.71ZM188.67-9.73L184.51-9.73Q184.54-9.89 184.58-10.05Q184.61-10.21 184.61-10.40L184.61-10.40Q184.61-10.98 184.40-11.47Q184.19-11.97 183.58-11.97L183.58-11.97Q183.04-11.97 182.50-11.50Q181.95-11.04 181.95-10.27L181.95-10.27Q181.95-9.76 182.22-9.46Q182.50-9.15 182.94-8.96Q183.39-8.77 183.95-8.64Q184.51-8.51 185.06-8.38L185.06-8.38Q185.82-8.19 186.51-7.92Q187.20-7.65 187.74-7.20Q188.29-6.75 188.61-6.10Q188.93-5.44 188.93-4.48L188.93-4.48Q188.93-3.14 188.30-2.22Q187.68-1.31 186.58-0.75Q185.47-0.19 183.98 0.03Q182.50 0.26 180.80 0.26L180.80 0.26Q178.21 0.26 176.51-0.13Q174.82-0.51 174.14-0.86L174.14-0.86L174.82-4.06L179.14-4.06Q179.10-3.90 179.10-3.76Q179.10-3.62 179.10-3.46L179.10-3.46Q179.10-2.72 179.44-2.29Q179.78-1.86 180.61-1.86L180.61-1.86Q181.54-1.86 181.94-2.38Q182.34-2.91 182.34-3.36L182.34-3.36Q182.34-3.81 182-4.14Q181.66-4.48 181.15-4.72Q180.64-4.96 180.02-5.14Q179.39-5.31 178.82-5.47L178.82-5.47Q178.40-5.57 177.87-5.79Q177.34-6.02 176.86-6.43Q176.38-6.85 176.06-7.50Q175.74-8.16 175.74-9.15L175.74-9.15Q175.74-10.56 176.43-11.50Q177.12-12.45 178.22-13.02Q179.33-13.60 180.72-13.86Q182.11-14.11 183.52-14.11L183.52-14.11Q185.28-14.11 186.85-13.79Q188.42-13.47 189.41-12.96L189.41-12.96L188.67-9.73ZM189.34 3.39L190.02 0.48L205.12 0.48L204.48 3.39L189.34 3.39ZM221.70-20.64L221.70-20.64Q224.45-20.64 226.16-19.94Q227.87-19.23 228.86-17.76L228.86-17.76Q229.50-16.77 229.86-15.52Q230.21-14.27 230.21-12.64L230.21-12.64Q230.21-11.23 229.95-9.82Q229.70-8.42 229.23-7.12Q228.77-5.82 228.11-4.69Q227.46-3.55 226.66-2.69L226.66-2.69Q225.15-1.06 223.18-0.40Q221.22 0.26 218.34 0.26L218.34 0.26Q215.55 0.26 213.86-0.32Q212.16-0.90 211.17-2.18L211.17-2.18Q210.46-3.07 210.06-4.45Q209.66-5.82 209.66-7.90L209.66-7.90Q209.66-11.46 210.93-14.26Q212.19-17.06 214.53-18.69L214.53-18.69Q215.94-19.68 217.66-20.16Q219.39-20.64 221.70-20.64ZM218.08-1.98L218.08-1.98Q218.82-1.98 219.47-2.64Q220.13-3.30 220.69-4.40Q221.25-5.50 221.71-6.91Q222.18-8.32 222.50-9.82Q222.82-11.33 222.99-12.82Q223.17-14.30 223.17-15.52L223.17-15.52Q223.17-17.18 222.83-17.81Q222.50-18.43 221.86-18.43L221.86-18.43Q221.12-18.43 220.45-17.79Q219.78-17.15 219.18-16.08Q218.59-15.01 218.13-13.62Q217.66-12.22 217.33-10.75Q216.99-9.28 216.82-7.84Q216.64-6.40 216.64-5.18L216.64-5.18Q216.64-3.36 217.04-2.67Q217.44-1.98 218.08-1.98ZM238.85-11.71L239.04-11.71Q239.71-12.35 240.54-12.90L240.54-12.90Q241.28-13.34 242.27-13.73Q243.26-14.11 244.48-14.11L244.48-14.11Q246.14-14.11 247.23-13.26Q248.32-12.42 248.32-10.94L248.32-10.94Q248.32-10.53 248.22-9.94Q248.13-9.34 248-8.70Q247.87-8.06 247.73-7.41Q247.58-6.75 247.49-6.24L247.49-6.24L246.14 0L239.65 0L241.41-8.35Q241.47-8.77 241.57-9.20Q241.66-9.63 241.66-9.98L241.66-9.98Q241.66-10.46 241.42-10.77Q241.18-11.07 240.70-11.07L240.70-11.07Q240.13-11.07 239.60-10.66Q239.07-10.24 238.78-9.95L238.78-9.95L236.67 0L230.14 0L233.06-13.76L238.27-13.76L238.85-11.71ZM265.18-6.43L256.19-6.43Q256.06-5.73 256.02-5.09Q255.97-4.45 255.97-3.94L255.97-3.94Q255.97-3.65 256-3.30Q256.03-2.94 256.14-2.64Q256.26-2.34 256.46-2.13Q256.67-1.92 257.06-1.92L257.06-1.92Q257.34-1.92 257.71-2.11Q258.08-2.30 258.45-2.66Q258.82-3.01 259.15-3.52Q259.49-4.03 259.68-4.67L259.68-4.67L264.93-4.67L264.10-1.25Q263.46-0.83 262.62-0.54Q261.79-0.26 260.86-0.08Q259.94 0.10 258.98 0.18Q258.02 0.26 257.15 0.26L257.15 0.26Q255.55 0.26 254.18-0.03Q252.80-0.32 251.78-1.02Q250.75-1.73 250.16-2.90Q249.57-4.06 249.57-5.79L249.57-5.79Q249.57-7.36 250.06-8.86Q250.56-10.37 251.73-11.54Q252.90-12.70 254.86-13.41Q256.83-14.11 259.78-14.11L259.78-14.11Q262.98-14.11 264.59-13.12Q266.21-12.13 266.21-10.02L266.21-10.02Q266.21-9.15 265.95-8.14Q265.70-7.14 265.18-6.43L265.18-6.43ZM260.45-10.24L260.45-10.24Q260.45-11.23 260.13-11.58Q259.81-11.94 259.36-11.94L259.36-11.94Q258.85-11.94 258.42-11.60Q257.98-11.26 257.63-10.70Q257.28-10.14 256.99-9.42Q256.70-8.70 256.51-7.90L256.51-7.90L260.16-7.90Q260.22-8.29 260.29-8.70L260.29-8.70Q260.35-9.06 260.40-9.47Q260.45-9.89 260.45-10.24Z"/></svg>