<svg id="mainsvg" xmlns="http://www.w3.org/2000/svg" xmlns:xlink="http://www.w3.org/1999/xlink" version="1.1" x="0px" y="0px" enable-background="new 0 0 200 162.5" xml:space="preserve" viewBox="0 0 235 32"><path fill="#000" transform="translate(-1.088, 25.056)" d="M1.09-22.02L1.09-22.66Q1.89-22.62 3.25-22.59Q4.61-22.56 5.95-22.56L5.95-22.56Q7.49-22.56 8.93-22.59Q10.37-22.62 10.98-22.62L10.98-22.62Q15.42-22.62 17.63-20.86Q19.84-19.10 19.84-16.32L19.84-16.32Q19.84-15.17 19.39-13.90Q18.94-12.64 17.87-11.57Q16.80-10.50 14.94-9.82Q13.09-9.15 10.27-9.15L10.27-9.15L7.01-9.15L7.01-9.79L9.95-9.79Q11.84-9.79 12.82-10.66Q13.79-11.52 14.16-12.93Q14.53-14.34 14.53-15.97L14.53-15.97Q14.53-19.01 13.63-20.51Q12.74-22.02 10.56-22.02L10.56-22.02Q9.31-22.02 8.94-21.47Q8.58-20.93 8.58-19.26L8.58-19.26L8.58-3.58Q8.58-2.34 8.83-1.73Q9.09-1.12 9.82-0.93Q10.56-0.74 12-0.70L12-0.70L12 0Q11.01-0.03 9.44-0.06Q7.87-0.10 6.14-0.10L6.14-0.10Q4.77-0.10 3.46-0.06Q2.14-0.03 1.09 0L1.09 0L1.09-0.64Q2.11-0.70 2.62-0.90Q3.14-1.09 3.31-1.66Q3.49-2.24 3.49-3.39L3.49-3.39L3.49-19.26Q3.49-20.45 3.31-21.01Q3.14-21.57 2.61-21.78Q2.08-21.98 1.09-22.02L1.09-22.02ZM27.81-25.06L27.81-25.06L27.81-2.98Q27.81-1.63 28.27-1.15Q28.74-0.67 29.86-0.67L29.86-0.67L29.86 0Q29.25-0.03 28.03-0.08Q26.82-0.13 25.57-0.13L25.57-0.13Q24.32-0.13 23.06-0.08Q21.79-0.03 21.15 0L21.15 0L21.15-0.67Q22.27-0.67 22.74-1.15Q23.20-1.63 23.20-2.98L23.20-2.98L23.20-21.22Q23.20-22.66 22.77-23.34Q22.34-24.03 21.15-24.03L21.15-24.03L21.15-24.70Q22.18-24.61 23.14-24.61L23.14-24.61Q24.45-24.61 25.63-24.72Q26.82-24.83 27.81-25.06ZM35.46 0.22L35.46 0.22Q33.31 0.22 32.35-0.90Q31.39-2.02 31.39-3.62L31.39-3.62Q31.39-4.99 32.02-5.86Q32.64-6.72 33.63-7.28Q34.62-7.84 35.73-8.21Q36.83-8.58 37.84-8.94Q38.85-9.31 39.47-9.79Q40.10-10.27 40.10-11.01L40.10-11.01L40.10-13.50Q40.10-14.34 39.82-14.99Q39.55-15.65 38.99-16Q38.43-16.35 37.54-16.35L37.54-16.35Q36.90-16.35 36.26-16.18Q35.62-16 35.20-15.58L35.20-15.58Q36.10-15.26 36.59-14.61Q37.09-13.95 37.09-13.12L37.09-13.12Q37.09-12.03 36.34-11.39Q35.58-10.75 34.56-10.75L34.56-10.75Q33.41-10.75 32.82-11.47Q32.22-12.19 32.22-13.22L32.22-13.22Q32.22-14.14 32.69-14.75Q33.15-15.36 33.98-15.90L33.98-15.90Q34.88-16.42 36.14-16.70Q37.41-16.99 38.88-16.99L38.88-16.99Q40.35-16.99 41.54-16.69Q42.72-16.38 43.52-15.58L43.52-15.58Q44.26-14.85 44.48-13.78Q44.70-12.70 44.70-11.07L44.70-11.07L44.70-2.37Q44.70-1.60 44.86-1.28Q45.02-0.96 45.41-0.96L45.41-0.96Q45.73-0.96 46.02-1.12Q46.30-1.28 46.56-1.50L46.56-1.50L46.88-0.96Q46.21-0.38 45.33-0.08Q44.45 0.22 43.36 0.22L43.36 0.22Q41.44 0.22 40.82-0.56Q40.19-1.34 40.16-2.37L40.16-2.37Q39.36-1.06 38.19-0.42Q37.02 0.22 35.46 0.22ZM37.92-1.82L37.92-1.82Q38.53-1.82 39.06-2.11Q39.58-2.40 40.10-3.14L40.10-3.14L40.10-9.70Q39.71-9.06 39.02-8.62Q38.34-8.19 37.62-7.70Q36.90-7.20 36.42-6.43Q35.94-5.66 35.94-4.38L35.94-4.38Q35.94-3.01 36.51-2.42Q37.09-1.82 37.92-1.82ZM63.46-16.54L63.46-16.54L63.46-15.90Q62.85-15.74 62.30-15.15Q61.76-14.56 61.25-13.15L61.25-13.15L56.74-0.48L55.55 1.76L48.58-14.08Q48.03-15.33 47.50-15.60Q46.98-15.87 46.59-15.87L46.59-15.87L46.59-16.54Q47.65-16.45 48.78-16.40Q49.92-16.35 50.98-16.35L50.98-16.35Q52.29-16.35 53.38-16.42Q54.46-16.48 55.42-16.54L55.42-16.54L55.42-15.87Q54.78-15.87 54.22-15.79Q53.66-15.71 53.46-15.34Q53.25-14.98 53.63-14.08L53.63-14.08L57.66-4.35L57.38-4.16L59.74-10.78Q60.64-13.38 60.03-14.58Q59.42-15.78 57.89-15.90L57.89-15.90L57.89-16.54Q58.62-16.51 59.49-16.48Q60.35-16.45 60.99-16.45L60.99-16.45Q61.63-16.45 62.34-16.48Q63.04-16.51 63.46-16.54ZM55.97-0.42L56.74-0.48L55.52 2.94Q54.91 4.58 54.11 5.22L54.11 5.22Q53.66 5.60 52.96 5.81Q52.26 6.02 51.33 6.02L51.33 6.02Q50.56 6.02 49.74 5.76Q48.93 5.50 48.38 4.93Q47.84 4.35 47.84 3.46L47.84 3.46Q47.84 2.46 48.54 1.87Q49.25 1.28 50.40 1.28L50.40 1.28Q51.46 1.28 52.13 1.79Q52.80 2.30 52.80 3.30L52.80 3.30Q52.80 3.94 52.40 4.51Q52 5.09 51.20 5.38L51.20 5.38Q51.36 5.41 51.58 5.41Q51.81 5.41 51.94 5.41L51.94 5.41Q52.90 5.41 53.63 4.80Q54.37 4.19 54.85 2.88L54.85 2.88L55.97-0.42ZM72.86-25.02L72.86-25.02Q73.98-25.02 74.82-24.74Q75.65-24.45 76.29-23.97L76.29-23.97Q76.74-23.62 77.06-22.99Q77.38-22.37 77.38-21.57L77.38-21.57Q77.38-20.70 76.75-20.03Q76.13-19.36 75.10-19.36L75.10-19.36Q74.05-19.36 73.36-19.97Q72.67-20.58 72.67-21.63L72.67-21.63Q72.67-22.46 73.15-23.10Q73.63-23.74 74.56-24L74.56-24Q74.46-24.19 74.18-24.32Q73.89-24.45 73.41-24.45L73.41-24.45Q72.77-24.45 72.35-24.22Q71.94-24 71.68-23.62L71.68-23.62Q71.33-23.14 71.20-22.22Q71.07-21.31 71.07-19.42L71.07-19.42L71.07-16.51L74.50-16.51L74.50-15.87L71.07-15.87L71.07-3.30Q71.07-1.73 71.87-1.20Q72.67-0.67 74.08-0.67L74.08-0.67L74.08 0Q73.25-0.03 71.74-0.08Q70.24-0.13 68.58-0.13L68.58-0.13Q67.36-0.13 66.19-0.08Q65.02-0.03 64.42 0L64.42 0L64.42-0.67Q65.54-0.67 66-1.15Q66.46-1.63 66.46-2.98L66.46-2.98L66.46-15.87L64.29-15.87L64.29-16.51L66.46-16.51Q66.46-19.36 66.91-20.85Q67.36-22.34 68.48-23.42L68.48-23.42Q69.18-24.10 70.35-24.56Q71.52-25.02 72.86-25.02ZM79.90 0.22L79.90 0.22Q77.76 0.22 76.80-0.90Q75.84-2.02 75.84-3.62L75.84-3.62Q75.84-4.99 76.46-5.86Q77.09-6.72 78.08-7.28Q79.07-7.84 80.18-8.21Q81.28-8.58 82.29-8.94Q83.30-9.31 83.92-9.79Q84.54-10.27 84.54-11.01L84.54-11.01L84.54-13.50Q84.54-14.34 84.27-14.99Q84-15.65 83.44-16Q82.88-16.35 81.98-16.35L81.98-16.35Q81.34-16.35 80.70-16.18Q80.06-16 79.65-15.58L79.65-15.58Q80.54-15.26 81.04-14.61Q81.54-13.95 81.54-13.12L81.54-13.12Q81.54-12.03 80.78-11.39Q80.03-10.75 79.01-10.75L79.01-10.75Q77.86-10.75 77.26-11.47Q76.67-12.19 76.67-13.22L76.67-13.22Q76.67-14.14 77.14-14.75Q77.60-15.36 78.43-15.90L78.43-15.90Q79.33-16.42 80.59-16.70Q81.86-16.99 83.33-16.99L83.33-16.99Q84.80-16.99 85.98-16.69Q87.17-16.38 87.97-15.58L87.97-15.58Q88.70-14.85 88.93-13.78Q89.15-12.70 89.15-11.07L89.15-11.07L89.15-2.37Q89.15-1.60 89.31-1.28Q89.47-0.96 89.86-0.96L89.86-0.96Q90.18-0.96 90.46-1.12Q90.75-1.28 91.01-1.50L91.01-1.50L91.33-0.96Q90.66-0.38 89.78-0.08Q88.90 0.22 87.81 0.22L87.81 0.22Q85.89 0.22 85.26-0.56Q84.64-1.34 84.61-2.37L84.61-2.37Q83.81-1.06 82.64-0.42Q81.47 0.22 79.90 0.22ZM82.37-1.82L82.37-1.82Q82.98-1.82 83.50-2.11Q84.03-2.40 84.54-3.14L84.54-3.14L84.54-9.70Q84.16-9.06 83.47-8.62Q82.78-8.19 82.06-7.70Q81.34-7.20 80.86-6.43Q80.38-5.66 80.38-4.38L80.38-4.38Q80.38-3.01 80.96-2.42Q81.54-1.82 82.37-1.82ZM96.42-24.80L96.42-24.80Q97.76-24.80 98.54-24.14Q99.33-23.49 99.33-22.34L99.33-22.34Q99.33-21.18 98.54-20.53Q97.76-19.87 96.42-19.87L96.42-19.87Q95.07-19.87 94.29-20.53Q93.50-21.18 93.50-22.34L93.50-22.34Q93.50-23.49 94.29-24.14Q95.07-24.80 96.42-24.80ZM98.91-16.90L98.91-16.90L98.91-2.98Q98.91-1.63 99.38-1.15Q99.84-0.67 100.96-0.67L100.96-0.67L100.96 0Q100.38-0.03 99.17-0.08Q97.95-0.13 96.70-0.13L96.70-0.13Q95.46-0.13 94.18-0.08Q92.90-0.03 92.26 0L92.26 0L92.26-0.67Q93.38-0.67 93.84-1.15Q94.30-1.63 94.30-2.98L94.30-2.98L94.30-13.06Q94.30-14.50 93.87-15.18Q93.44-15.87 92.26-15.87L92.26-15.87L92.26-16.54Q93.28-16.45 94.24-16.45L94.24-16.45Q95.58-16.45 96.75-16.56Q97.92-16.67 98.91-16.90ZM113.34-16.99L113.34-16.99Q114.37-16.99 115.01-16.56Q115.65-16.13 115.95-15.46Q116.26-14.78 116.26-14.05L116.26-14.05Q116.26-12.86 115.57-12.11Q114.88-11.36 113.76-11.36L113.76-11.36Q112.64-11.36 112.02-11.92Q111.39-12.48 111.39-13.41L111.39-13.41Q111.39-14.30 111.79-14.90Q112.19-15.49 112.80-15.90L112.80-15.90Q112.35-16.03 111.90-15.87L111.90-15.87Q111.07-15.74 110.42-15.09Q109.76-14.43 109.38-13.54Q108.99-12.64 108.99-11.78L108.99-11.78L108.99-3.30Q108.99-1.76 109.74-1.22Q110.50-0.67 112-0.67L112-0.67L112 0Q111.26-0.03 109.86-0.08Q108.45-0.13 106.91-0.13L106.91-0.13Q105.63-0.13 104.32-0.08Q103.01-0.03 102.34 0L102.34 0L102.34-0.67Q103.46-0.67 103.92-1.15Q104.38-1.63 104.38-2.98L104.38-2.98L104.38-13.06Q104.38-14.50 103.95-15.18Q103.52-15.87 102.34-15.87L102.34-15.87L102.34-16.54Q103.36-16.45 104.32-16.45L104.32-16.45Q105.66-16.45 106.83-16.56Q108-16.67 108.99-16.90L108.99-16.90L108.99-13.92Q109.38-14.78 110.02-15.49Q110.66-16.19 111.49-16.59Q112.32-16.99 113.34-16.99ZM134.94-22.66L134.94-22.66Q141.25-22.66 144.32-19.79Q147.39-16.93 147.39-11.58L147.39-11.58Q147.39-8.10 145.89-5.49Q144.38-2.88 141.52-1.44Q138.66 0 134.66 0L134.66 0Q133.89 0 132.46-0.05Q131.04-0.10 129.98-0.10L129.98-0.10Q128.58-0.10 127.22-0.08Q125.86-0.06 125.06 0L125.06 0L125.06-0.64Q126.08-0.70 126.59-0.90Q127.10-1.09 127.28-1.66Q127.46-2.24 127.46-3.39L127.46-3.39L127.46-19.26Q127.46-20.45 127.28-21.01Q127.10-21.57 126.58-21.78Q126.05-21.98 125.06-22.02L125.06-22.02L125.06-22.66Q125.86-22.62 127.22-22.58Q128.58-22.53 129.92-22.56L129.92-22.56Q131.07-22.59 132.53-22.62Q133.98-22.66 134.94-22.66ZM134.91-22.08L134.91-22.08Q133.44-22.08 132.99-21.54Q132.54-20.99 132.54-19.33L132.54-19.33L132.54-3.33Q132.54-1.66 133.01-1.12Q133.47-0.58 134.94-0.58L134.94-0.58Q137.63-0.58 139.18-1.84Q140.74-3.10 141.41-5.54Q142.08-7.97 142.08-11.46L142.08-11.46Q142.08-16.83 140.42-19.46Q138.75-22.08 134.91-22.08ZM153.73-24.80L153.73-24.80Q155.07-24.80 155.86-24.14Q156.64-23.49 156.64-22.34L156.64-22.34Q156.64-21.18 155.86-20.53Q155.07-19.87 153.73-19.87L153.73-19.87Q152.38-19.87 151.60-20.53Q150.82-21.18 150.82-22.34L150.82-22.34Q150.82-23.49 151.60-24.14Q152.38-24.80 153.73-24.80ZM156.22-16.90L156.22-16.90L156.22-2.98Q156.22-1.63 156.69-1.15Q157.15-0.67 158.27-0.67L158.27-0.67L158.27 0Q157.70-0.03 156.48-0.08Q155.26-0.13 154.02-0.13L154.02-0.13Q152.77-0.13 151.49-0.08Q150.21-0.03 149.57 0L149.57 0L149.57-0.67Q150.69-0.67 151.15-1.15Q151.62-1.63 151.62-2.98L151.62-2.98L151.62-13.06Q151.62-14.50 151.18-15.18Q150.75-15.87 149.57-15.87L149.57-15.87L149.57-16.54Q150.59-16.45 151.55-16.45L151.55-16.45Q152.90-16.45 154.06-16.56Q155.23-16.67 156.22-16.90ZM165.98-16.99L165.98-16.99Q167.33-16.99 168.34-16.66Q169.34-16.32 169.79-16L169.79-16Q170.88-15.26 171.14-16.96L171.14-16.96L171.81-16.96Q171.74-16.06 171.71-14.77Q171.68-13.47 171.68-11.33L171.68-11.33L171.01-11.33Q170.85-12.51 170.40-13.66Q169.95-14.82 169.10-15.55Q168.26-16.29 166.91-16.29L166.91-16.29Q165.98-16.29 165.34-15.76Q164.70-15.23 164.70-14.24L164.70-14.24Q164.70-13.28 165.28-12.56Q165.86-11.84 166.77-11.18Q167.68-10.53 168.67-9.79L168.67-9.79Q170.27-8.61 171.38-7.41Q172.48-6.21 172.48-4.29L172.48-4.29Q172.48-2.85 171.65-1.78Q170.82-0.70 169.46-0.13Q168.10 0.45 166.43 0.45L166.43 0.45Q165.47 0.45 164.72 0.26Q163.97 0.06 163.42-0.22L163.42-0.22Q163.01-0.42 162.64-0.59Q162.27-0.77 161.95-0.90L161.95-0.90Q161.63-0.99 161.39-0.67Q161.15-0.35 161.02 0.22L161.02 0.22L160.35 0.22Q160.42-0.80 160.45-2.27Q160.48-3.74 160.48-6.18L160.48-6.18L161.15-6.18Q161.34-4.45 161.86-3.12Q162.37-1.79 163.25-1.04Q164.13-0.29 165.47-0.29L165.47-0.29Q166.30-0.29 167.01-0.82Q167.71-1.34 167.71-2.56L167.71-2.56Q167.71-3.97 166.80-4.90Q165.89-5.82 164.48-6.91L164.48-6.91Q163.46-7.74 162.54-8.56Q161.63-9.38 161.06-10.35Q160.48-11.33 160.48-12.58L160.48-12.58Q160.48-14.02 161.25-15.01Q162.02-16 163.28-16.50Q164.54-16.99 165.98-16.99ZM180.96-16.90L180.96-16.90L180.96 2.62Q180.96 4.13 181.73 4.62Q182.50 5.12 183.84 5.12L183.84 5.12L183.84 5.79Q183.01 5.76 181.55 5.71Q180.10 5.66 178.46 5.66L178.46 5.66Q177.28 5.66 176.14 5.71Q175.01 5.76 174.43 5.79L174.43 5.79L174.43 5.12Q175.49 5.12 175.92 4.67Q176.35 4.22 176.35 2.94L176.35 2.94L176.35-13.06Q176.35-14.50 175.90-15.18Q175.46-15.87 174.30-15.87L174.30-15.87L174.30-16.54Q175.33-16.45 176.29-16.45L176.29-16.45Q177.60-16.45 178.78-16.56Q179.97-16.67 180.96-16.90ZM185.92-16.99L185.92-16.99Q188.35-16.99 190.00-15.01Q191.65-13.02 191.65-9.02L191.65-9.02Q191.65-5.92 190.72-3.81Q189.79-1.70 188.14-0.62Q186.50 0.45 184.22 0.45L184.22 0.45Q182.98 0.45 181.95 0.02Q180.93-0.42 180.38-1.22L180.38-1.22L180.70-1.63Q181.02-1.06 181.62-0.74Q182.21-0.42 182.98-0.42L182.98-0.42Q184.42-0.42 185.25-1.39Q186.08-2.37 186.45-4.14Q186.82-5.92 186.82-8.38L186.82-8.38Q186.82-11.14 186.46-12.70Q186.11-14.27 185.50-14.94Q184.90-15.62 184.03-15.62L184.03-15.62Q182.88-15.62 181.94-14.72Q180.99-13.82 180.86-12.16L180.86-12.16L180.70-13.28Q181.28-15.10 182.67-16.05Q184.06-16.99 185.92-16.99ZM200.16-25.06L200.16-25.06L200.16-2.98Q200.16-1.63 200.62-1.15Q201.09-0.67 202.21-0.67L202.21-0.67L202.21 0Q201.60-0.03 200.38-0.08Q199.17-0.13 197.92-0.13L197.92-0.13Q196.67-0.13 195.41-0.08Q194.14-0.03 193.50 0L193.50 0L193.50-0.67Q194.62-0.67 195.09-1.15Q195.55-1.63 195.55-2.98L195.55-2.98L195.55-21.22Q195.55-22.66 195.12-23.34Q194.69-24.03 193.50-24.03L193.50-24.03L193.50-24.70Q194.53-24.61 195.49-24.61L195.49-24.61Q196.80-24.61 197.98-24.72Q199.17-24.83 200.16-25.06ZM207.81 0.22L207.81 0.22Q205.66 0.22 204.70-0.90Q203.74-2.02 203.74-3.62L203.74-3.62Q203.74-4.99 204.37-5.86Q204.99-6.72 205.98-7.28Q206.98-7.84 208.08-8.21Q209.18-8.58 210.19-8.94Q211.20-9.31 211.82-9.79Q212.45-10.27 212.45-11.01L212.45-11.01L212.45-13.50Q212.45-14.34 212.18-14.99Q211.90-15.65 211.34-16Q210.78-16.35 209.89-16.35L209.89-16.35Q209.25-16.35 208.61-16.18Q207.97-16 207.55-15.58L207.55-15.58Q208.45-15.26 208.94-14.61Q209.44-13.95 209.44-13.12L209.44-13.12Q209.44-12.03 208.69-11.39Q207.94-10.75 206.91-10.75L206.91-10.75Q205.76-10.75 205.17-11.47Q204.58-12.19 204.58-13.22L204.58-13.22Q204.58-14.14 205.04-14.75Q205.50-15.36 206.34-15.90L206.34-15.90Q207.23-16.42 208.50-16.70Q209.76-16.99 211.23-16.99L211.23-16.99Q212.70-16.99 213.89-16.69Q215.07-16.38 215.87-15.58L215.87-15.58Q216.61-14.85 216.83-13.78Q217.06-12.70 217.06-11.07L217.06-11.07L217.06-2.37Q217.06-1.60 217.22-1.28Q217.38-0.96 217.76-0.96L217.76-0.96Q218.08-0.96 218.37-1.12Q218.66-1.28 218.91-1.50L218.91-1.50L219.23-0.96Q218.56-0.38 217.68-0.08Q216.80 0.22 215.71 0.22L215.71 0.22Q213.79 0.22 213.17-0.56Q212.54-1.34 212.51-2.37L212.51-2.37Q211.71-1.06 210.54-0.42Q209.38 0.22 207.81 0.22ZM210.27-1.82L210.27-1.82Q210.88-1.82 211.41-2.11Q211.94-2.40 212.45-3.14L212.45-3.14L212.45-9.70Q212.06-9.06 211.38-8.62Q210.69-8.19 209.97-7.70Q209.25-7.20 208.77-6.43Q208.29-5.66 208.29-4.38L208.29-4.38Q208.29-3.01 208.86-2.42Q209.44-1.82 210.27-1.82ZM235.81-16.54L235.81-16.54L235.81-15.90Q235.20-15.74 234.66-15.15Q234.11-14.56 233.60-13.15L233.60-13.15L229.09-0.48L227.90 1.76L220.93-14.08Q220.38-15.33 219.86-15.60Q219.33-15.87 218.94-15.87L218.94-15.87L218.94-16.54Q220-16.45 221.14-16.40Q222.27-16.35 223.33-16.35L223.33-16.35Q224.64-16.35 225.73-16.42Q226.82-16.48 227.78-16.54L227.78-16.54L227.78-15.87Q227.14-15.87 226.58-15.79Q226.02-15.71 225.81-15.34Q225.60-14.98 225.98-14.08L225.98-14.08L230.02-4.35L229.73-4.16L232.10-10.78Q232.99-13.38 232.38-14.58Q231.78-15.78 230.24-15.90L230.24-15.90L230.24-16.54Q230.98-16.51 231.84-16.48Q232.70-16.45 233.34-16.45L233.34-16.45Q233.98-16.45 234.69-16.48Q235.39-16.51 235.81-16.54ZM228.32-0.42L229.09-0.48L227.87 2.94Q227.26 4.58 226.46 5.22L226.46 5.22Q226.02 5.60 225.31 5.81Q224.61 6.02 223.68 6.02L223.68 6.02Q222.91 6.02 222.10 5.76Q221.28 5.50 220.74 4.93Q220.19 4.35 220.19 3.46L220.19 3.46Q220.19 2.46 220.90 1.87Q221.60 1.28 222.75 1.28L222.75 1.28Q223.81 1.28 224.48 1.79Q225.15 2.30 225.15 3.30L225.15 3.30Q225.15 3.94 224.75 4.51Q224.35 5.09 223.55 5.38L223.55 5.38Q223.71 5.41 223.94 5.41Q224.16 5.41 224.29 5.41L224.29 5.41Q225.25 5.41 225.98 4.80Q226.72 4.19 227.20 2.88L227.20 2.88L228.32-0.42Z"/></svg>