<svg id="mainsvg" xmlns="http://www.w3.org/2000/svg" xmlns:xlink="http://www.w3.org/1999/xlink" version="1.1" x="0px" y="0px" enable-background="new 0 0 200 162.5" xml:space="preserve" viewBox="0 0 198 22"><path fill="#000" transform="translate(-2.464, 21.056)" d="M17.31-14.43L17.31-14.43Q17.31-12.99 16.56-11.94Q15.81-10.88 14.30-10.24L14.30-10.24Q16.16-9.63 17.09-8.42Q18.02-7.20 18.02-5.54L18.02-5.54Q18.02-2.50 15.81-1.02Q13.60 0.45 9.41 0.45L9.41 0.45Q8.80 0.45 8.11 0.42Q7.42 0.38 6.72 0.30Q6.02 0.22 5.31 0.08Q4.61-0.06 4-0.26L4-0.26Q2.46-0.77 2.46-2.14L2.46-2.14L2.46-17.79Q2.46-18.40 2.78-18.72Q3.10-19.04 3.68-19.23L3.68-19.23Q4.77-19.58 6.21-19.73Q7.65-19.87 9.22-19.87L9.22-19.87Q13.09-19.87 15.20-18.54Q17.31-17.22 17.31-14.43ZM13.79-5.70L13.79-5.70Q13.79-6.98 12.88-7.71Q11.97-8.45 10.24-8.45L10.24-8.45L6.50-8.45L6.50-3.10Q7.10-2.94 7.95-2.88Q8.80-2.82 9.63-2.82L9.63-2.82Q11.58-2.82 12.69-3.50Q13.79-4.19 13.79-5.70ZM6.50-16.45L6.50-11.49L9.73-11.49Q11.46-11.49 12.30-12.19Q13.15-12.90 13.15-14.14L13.15-14.14Q13.15-16.67 9.25-16.67L9.25-16.67Q8.45-16.67 7.73-16.61Q7.01-16.54 6.50-16.45L6.50-16.45ZM27.49-2.59L27.49-2.59Q28.42-2.59 29.18-2.77Q29.95-2.94 30.30-3.20L30.30-3.20L30.30-6.75L27.20-6.46Q25.92-6.34 25.25-5.90Q24.58-5.47 24.58-4.54L24.58-4.54Q24.58-3.62 25.26-3.10Q25.95-2.59 27.49-2.59ZM27.36-15.62L27.36-15.62Q30.50-15.62 32.37-14.27Q34.24-12.93 34.24-10.11L34.24-10.11L34.24-2.72Q34.24-1.95 33.86-1.50Q33.47-1.06 32.90-0.70L32.90-0.70Q32-0.16 30.62 0.16Q29.25 0.48 27.49 0.48L27.49 0.48Q24.29 0.48 22.45-0.75Q20.61-1.98 20.61-4.45L20.61-4.45Q20.61-6.59 21.97-7.73Q23.33-8.86 25.92-9.12L25.92-9.12L30.30-9.57L30.30-10.14Q30.30-11.36 29.42-11.94Q28.54-12.51 26.94-12.51L26.94-12.51Q25.70-12.51 24.51-12.21Q23.33-11.90 22.40-11.46L22.40-11.46Q22.05-11.71 21.81-12.14Q21.57-12.58 21.57-13.09L21.57-13.09Q21.57-13.73 21.87-14.13Q22.18-14.53 22.85-14.85L22.85-14.85Q23.78-15.23 24.96-15.42Q26.14-15.62 27.36-15.62ZM42.46-0.03L42.46-0.03Q42.21 0.03 41.71 0.13Q41.22 0.22 40.64 0.22L40.64 0.22Q39.49 0.22 38.96-0.19Q38.43-0.61 38.43-1.66L38.43-1.66L38.43-20.80Q38.69-20.90 39.18-20.98Q39.68-21.06 40.26-21.06L40.26-21.06Q41.41-21.06 41.94-20.64Q42.46-20.22 42.46-19.17L42.46-19.17L42.46-0.03ZM61.66-7.58L61.66-7.58Q61.66-5.73 61.10-4.24Q60.54-2.75 59.52-1.70Q58.50-0.64 57.06-0.08Q55.62 0.48 53.82 0.48L53.82 0.48Q52.03 0.48 50.59-0.08Q49.15-0.64 48.13-1.68Q47.10-2.72 46.54-4.21Q45.98-5.70 45.98-7.58L45.98-7.58Q45.98-9.44 46.54-10.93Q47.10-12.42 48.14-13.46Q49.18-14.50 50.62-15.06Q52.06-15.62 53.82-15.62L53.82-15.62Q55.58-15.62 57.02-15.06Q58.46-14.50 59.50-13.44Q60.54-12.38 61.10-10.90Q61.66-9.41 61.66-7.58ZM53.82-12.42L53.82-12.42Q52.10-12.42 51.10-11.15Q50.11-9.89 50.11-7.58L50.11-7.58Q50.11-5.25 51.09-4Q52.06-2.75 53.82-2.75L53.82-2.75Q55.58-2.75 56.56-4.02Q57.54-5.28 57.54-7.58L57.54-7.58Q57.54-9.89 56.54-11.15Q55.55-12.42 53.82-12.42ZM79.90-7.58L79.90-7.58Q79.90-5.73 79.34-4.24Q78.78-2.75 77.76-1.70Q76.74-0.64 75.30-0.08Q73.86 0.48 72.06 0.48L72.06 0.48Q70.27 0.48 68.83-0.08Q67.39-0.64 66.37-1.68Q65.34-2.72 64.78-4.21Q64.22-5.70 64.22-7.58L64.22-7.58Q64.22-9.44 64.78-10.93Q65.34-12.42 66.38-13.46Q67.42-14.50 68.86-15.06Q70.30-15.62 72.06-15.62L72.06-15.62Q73.82-15.62 75.26-15.06Q76.70-14.50 77.74-13.44Q78.78-12.38 79.34-10.90Q79.90-9.41 79.90-7.58ZM72.06-12.42L72.06-12.42Q70.34-12.42 69.34-11.15Q68.35-9.89 68.35-7.58L68.35-7.58Q68.35-5.25 69.33-4Q70.30-2.75 72.06-2.75L72.06-2.75Q73.82-2.75 74.80-4.02Q75.78-5.28 75.78-7.58L75.78-7.58Q75.78-9.89 74.78-11.15Q73.79-12.42 72.06-12.42ZM97.31-19.42L97.31-19.42Q97.47-19.17 97.62-18.74Q97.76-18.30 97.76-17.79L97.76-17.79Q97.76-16.93 97.36-16.48Q96.96-16.03 96.26-16.03L96.26-16.03L91.84-16.03L91.84-0.03Q91.58 0.03 91.04 0.13Q90.50 0.22 89.92 0.22L89.92 0.22Q88.70 0.22 88.19-0.22Q87.68-0.67 87.68-1.73L87.68-1.73L87.68-16.03L82.30-16.03Q82.14-16.32 82-16.74Q81.86-17.15 81.86-17.66L81.86-17.66Q81.86-18.56 82.26-18.99Q82.66-19.42 83.36-19.42L83.36-19.42L97.31-19.42ZM106.46-2.59L106.46-2.59Q107.39-2.59 108.16-2.77Q108.93-2.94 109.28-3.20L109.28-3.20L109.28-6.75L106.18-6.46Q104.90-6.34 104.22-5.90Q103.55-5.47 103.55-4.54L103.55-4.54Q103.55-3.62 104.24-3.10Q104.93-2.59 106.46-2.59ZM106.34-15.62L106.34-15.62Q109.47-15.62 111.34-14.27Q113.22-12.93 113.22-10.11L113.22-10.11L113.22-2.72Q113.22-1.95 112.83-1.50Q112.45-1.06 111.87-0.70L111.87-0.70Q110.98-0.16 109.60 0.16Q108.22 0.48 106.46 0.48L106.46 0.48Q103.26 0.48 101.42-0.75Q99.58-1.98 99.58-4.45L99.58-4.45Q99.58-6.59 100.94-7.73Q102.30-8.86 104.90-9.12L104.90-9.12L109.28-9.57L109.28-10.14Q109.28-11.36 108.40-11.94Q107.52-12.51 105.92-12.51L105.92-12.51Q104.67-12.51 103.49-12.21Q102.30-11.90 101.38-11.46L101.38-11.46Q101.02-11.71 100.78-12.14Q100.54-12.58 100.54-13.09L100.54-13.09Q100.54-13.73 100.85-14.13Q101.15-14.53 101.82-14.85L101.82-14.85Q102.75-15.23 103.94-15.42Q105.12-15.62 106.34-15.62ZM139.74-10.14L139.74-0.03Q139.49 0.03 138.99 0.13Q138.50 0.22 137.92 0.22L137.92 0.22Q136.77 0.22 136.24-0.19Q135.71-0.61 135.71-1.66L135.71-1.66L135.71-9.98Q135.71-11.26 135.01-11.84Q134.30-12.42 133.15-12.42L133.15-12.42Q132.38-12.42 131.66-12.13Q130.94-11.84 130.40-11.36L130.40-11.36Q130.50-10.91 130.50-10.46L130.50-10.46L130.50-0.03Q130.24 0.03 129.74 0.13Q129.25 0.22 128.67 0.22L128.67 0.22Q127.52 0.22 126.99-0.19Q126.46-0.61 126.46-1.66L126.46-1.66L126.46-9.98Q126.46-11.26 125.73-11.84Q124.99-12.42 123.84-12.42L123.84-12.42Q123.04-12.42 122.37-12.16Q121.70-11.90 121.25-11.65L121.25-11.65L121.25-0.03Q120.96 0.03 120.48 0.13Q120 0.22 119.39 0.22L119.39 0.22Q118.27 0.22 117.73-0.19Q117.18-0.61 117.18-1.66L117.18-1.66L117.18-11.94Q117.18-12.67 117.50-13.17Q117.82-13.66 118.50-14.11L118.50-14.11Q119.46-14.75 120.93-15.18Q122.40-15.62 123.97-15.62L123.97-15.62Q126.88-15.62 128.70-14.05L128.70-14.05Q129.63-14.72 130.83-15.17Q132.03-15.62 133.66-15.62L133.66-15.62Q134.91-15.62 136.03-15.31Q137.15-15.01 137.97-14.34Q138.78-13.66 139.26-12.62Q139.74-11.58 139.74-10.14L139.74-10.14ZM166.37-10.14L166.37-0.03Q166.11 0.03 165.62 0.13Q165.12 0.22 164.54 0.22L164.54 0.22Q163.39 0.22 162.86-0.19Q162.34-0.61 162.34-1.66L162.34-1.66L162.34-9.98Q162.34-11.26 161.63-11.84Q160.93-12.42 159.78-12.42L159.78-12.42Q159.01-12.42 158.29-12.13Q157.57-11.84 157.02-11.36L157.02-11.36Q157.12-10.91 157.12-10.46L157.12-10.46L157.12-0.03Q156.86 0.03 156.37 0.13Q155.87 0.22 155.30 0.22L155.30 0.22Q154.14 0.22 153.62-0.19Q153.09-0.61 153.09-1.66L153.09-1.66L153.09-9.98Q153.09-11.26 152.35-11.84Q151.62-12.42 150.46-12.42L150.46-12.42Q149.66-12.42 148.99-12.16Q148.32-11.90 147.87-11.65L147.87-11.65L147.87-0.03Q147.58 0.03 147.10 0.13Q146.62 0.22 146.02 0.22L146.02 0.22Q144.90 0.22 144.35-0.19Q143.81-0.61 143.81-1.66L143.81-1.66L143.81-11.94Q143.81-12.67 144.13-13.17Q144.45-13.66 145.12-14.11L145.12-14.11Q146.08-14.75 147.55-15.18Q149.02-15.62 150.59-15.62L150.59-15.62Q153.50-15.62 155.33-14.05L155.33-14.05Q156.26-14.72 157.46-15.17Q158.66-15.62 160.29-15.62L160.29-15.62Q161.54-15.62 162.66-15.31Q163.78-15.01 164.59-14.34Q165.41-13.66 165.89-12.62Q166.37-11.58 166.37-10.14L166.37-10.14ZM176.42-2.59L176.42-2.59Q177.34-2.59 178.11-2.77Q178.88-2.94 179.23-3.20L179.23-3.20L179.23-6.75L176.13-6.46Q174.85-6.34 174.18-5.90Q173.50-5.47 173.50-4.54L173.50-4.54Q173.50-3.62 174.19-3.10Q174.88-2.59 176.42-2.59ZM176.29-15.62L176.29-15.62Q179.42-15.62 181.30-14.27Q183.17-12.93 183.17-10.11L183.17-10.11L183.17-2.72Q183.17-1.95 182.78-1.50Q182.40-1.06 181.82-0.70L181.82-0.70Q180.93-0.16 179.55 0.16Q178.18 0.48 176.42 0.48L176.42 0.48Q173.22 0.48 171.38-0.75Q169.54-1.98 169.54-4.45L169.54-4.45Q169.54-6.59 170.90-7.73Q172.26-8.86 174.85-9.12L174.85-9.12L179.23-9.57L179.23-10.14Q179.23-11.36 178.35-11.94Q177.47-12.51 175.87-12.51L175.87-12.51Q174.62-12.51 173.44-12.21Q172.26-11.90 171.33-11.46L171.33-11.46Q170.98-11.71 170.74-12.14Q170.50-12.58 170.50-13.09L170.50-13.09Q170.50-13.73 170.80-14.13Q171.10-14.53 171.78-14.85L171.78-14.85Q172.70-15.23 173.89-15.42Q175.07-15.62 176.29-15.62ZM187.01-17.02L187.01-17.02Q187.01-17.66 187.42-18.19Q187.84-18.72 188.58-19.10Q189.31-19.49 190.35-19.70Q191.39-19.90 192.61-19.90L192.61-19.90Q194.34-19.90 195.66-19.47Q196.99-19.04 197.90-18.27Q198.82-17.50 199.28-16.45Q199.74-15.39 199.74-14.11L199.74-14.11Q199.74-12.38 198.80-10.75Q197.86-9.12 195.68-7.26L195.68-7.26L191.01-3.20L199.58-3.20Q199.74-2.94 199.87-2.53Q200-2.11 200-1.63L200-1.63Q200-0.80 199.62-0.40Q199.23 0 198.56 0L198.56 0L187.36 0Q186.85-0.35 186.56-0.90Q186.27-1.44 186.27-2.18L186.27-2.18Q186.27-2.98 186.61-3.55Q186.94-4.13 187.39-4.54L187.39-4.54L192.48-9.18Q194.27-10.78 194.94-11.86Q195.62-12.93 195.62-13.95L195.62-13.95Q195.62-15.14 194.75-15.87Q193.89-16.61 192.22-16.61L192.22-16.61Q190.88-16.61 189.82-16.18Q188.77-15.74 188.06-15.23L188.06-15.23Q187.62-15.49 187.31-15.94Q187.01-16.38 187.01-17.02Z"/></svg>