<svg id="mainsvg" xmlns="http://www.w3.org/2000/svg" xmlns:xlink="http://www.w3.org/1999/xlink" version="1.1" x="0px" y="0px" enable-background="new 0 0 200 162.5" xml:space="preserve" viewBox="0 0 72 23"><path fill="#000" transform="translate(-2.08, 22.400000000000002)" d="M2.08-22.40L2.08 0L3.81 0L3.81-18.50L18.91 0L19.58 0L19.58-22.40L17.89-22.40L17.89-3.87L2.82-22.40ZM31.42 0.22C33.95 0.22 36.70-0.80 38.24-2.82L37.12-3.71C35.94-2.14 33.50-1.31 31.42-1.31C28.16-1.31 25.31-3.46 24.99-7.17L39.23-7.17C39.84-13.34 35.87-16.06 31.42-16.06C26.98-16.06 23.39-12.64 23.39-7.90C23.39-2.88 26.98 0.22 31.42 0.22ZM24.99-8.54C25.34-12.42 28.16-14.62 31.42-14.62C35.23-14.62 37.79-12.45 37.82-8.54ZM44.16-15.81L42.27-15.81L42.27-15.74L47.94-8.19L41.82-0.06L41.82 0L43.68 0L48.86-7.07L54.05 0L55.90 0L55.90-0.06L49.79-8.19L55.46-15.74L55.46-15.81L53.57-15.81L48.86-9.34ZM72.48-15.81L72.48-12.35C71.17-14.82 68.58-16 66.02-16C61.60-16 57.98-12.74 57.98-7.90C57.98-3.07 61.60 0.26 66.02 0.26C68.58 0.26 70.94-0.90 72.48-3.36L72.48 0L74.05 0C74.05-5.28 74.05-10.53 74.05-15.81ZM66.02-14.50C74.82-14.50 74.82-1.28 66.02-1.28C62.43-1.28 59.55-3.94 59.55-7.90C59.55-11.87 62.43-14.50 66.02-14.50Z"/></svg>