<svg id="mainsvg" xmlns="http://www.w3.org/2000/svg" xmlns:xlink="http://www.w3.org/1999/xlink" version="1.1" x="0px" y="0px" enable-background="new 0 0 200 162.5" xml:space="preserve" viewBox="0 0 125 26"><path fill="#000" transform="translate(0, 23.424)" d="M7.26-8.58C0.61-18.40 17.66-21.34 18.94-16.61C19.36-15.14 17.92-12.67 13.60-12.67L13.57-17.15L8.64-16.38L9.34 1.54C21.15 2.62 25.66-1.86 25.66-5.92C25.66-8.51 23.84-10.98 20.90-11.62C22.85-13.02 23.74-14.85 23.65-16.61C23.49-20.10 19.62-23.42 12.83-23.42C8.80-23.42 0-20.70 0-13.57C0-6.56 6.56-8.16 7.26-8.58ZM13.57-2.53L13.57-9.31C24.83-9.31 22.59-2.53 13.57-2.53ZM26.72-0.35L31.14 0.58L31.97-2.72L37.38-2.46L38.05 0.29L43.23-0.35L37.57-18.78L32.45-18.82L28.83-7.10L27.33-7.33L26.72-3.01L27.55-2.98L26.72-0.35ZM34.66-13.47L36.54-5.79L32.86-6.37L34.66-13.47ZM53.41 0.13L57.31-0.03L58.78-19.01L53.50-18.85L53.38-8L50.34-18.02L44.74-19.01L44.38-0.67L48.42-0.38L49.25-9.25L53.41 0.13ZM60.58-15.04L64.32-15.26L64.99-0.06L69.22-0.48L68.90-15.55L72.38-15.78L72.80-19.17L60.16-19.49L60.58-15.04ZM73.92-10.40L73.22-10.40L73.57-6.59L74.14-6.62L74.53 0.16L79.01-0.19L78.91-6.94L82.21-7.17L82.08-0.38L86.30-0.29L87.23-18.66L82.37-18.85L82.24-10.40L78.85-10.40L78.69-19.74L73.41-19.23L73.92-10.40ZM93.79-18.14L89.15-18.34L88.86-0.38L93.09-0.29L93.79-18.14ZM104.38 0.13L108.29-0.03L109.76-19.01L104.48-18.85L104.35-8L101.31-18.02L95.71-19.01L95.36-0.67L99.39-0.38L100.22-9.25L104.38 0.13ZM111.14-19.17L111.17 0.26L115.65 0.16L115.90-5.95L121.98 0.83L124.64-3.33L118.40-9.15L124.90-14.91L122.08-19.33L116.16-12.16L116.45-19.36L111.14-19.17Z"/></svg>