<svg id="mainsvg" xmlns="http://www.w3.org/2000/svg" xmlns:xlink="http://www.w3.org/1999/xlink" version="1.1" x="0px" y="0px" enable-background="new 0 0 200 162.5" xml:space="preserve" viewBox="0 0 162 31"><path fill="#000" transform="translate(-1.625, 23.203125)" d="M23.84-11.45L23.84-11.45Q23.84-5.69 21.02-2.69Q18.19 0.31 12.73 0.31L12.73 0.31Q7.36 0.31 4.49-2.70Q1.63-5.72 1.63-11.48L1.63-11.48Q1.63-17.19 4.48-20.20Q7.33-23.20 12.77-23.20L12.77-23.20Q18.22-23.20 21.03-20.22Q23.84-17.23 23.84-11.45ZM8.13-11.45L8.13-11.45Q8.13-4.83 12.73-4.83L12.73-4.83Q15.08-4.83 16.21-6.44Q17.34-8.05 17.34-11.45L17.34-11.45Q17.34-14.88 16.20-16.51Q15.05-18.14 12.77-18.14L12.77-18.14Q8.13-18.14 8.13-11.45ZM38.23 0.31L38.23 0.31Q36.89 0.31 35.83-0.13Q34.77-0.58 33.72-1.73L33.72-1.73L33.44-1.73Q33.72 0.13 33.72 0.58L33.72 0.58L33.72 7.69L27.61 7.69L27.61-17.70L32.58-17.70L33.44-15.45L33.72-15.45Q35.42-18.02 38.42-18.02L38.42-18.02Q41.36-18.02 43.03-15.58Q44.70-13.14 44.70-8.89L44.70-8.89Q44.70-4.61 42.96-2.15Q41.22 0.31 38.23 0.31ZM36.19-13.22L36.19-13.22Q34.84-13.22 34.30-12.26Q33.77-11.30 33.72-9.41L33.72-9.41L33.72-8.92Q33.72-6.64 34.33-5.63Q34.94-4.61 36.25-4.61L36.25-4.61Q37.42-4.61 37.95-5.62Q38.48-6.63 38.48-8.95L38.48-8.95Q38.48-11.23 37.95-12.23Q37.42-13.22 36.19-13.22ZM56.73 0.31L56.73 0.31Q52.31 0.31 49.87-2.04Q47.42-4.39 47.42-8.73L47.42-8.73Q47.42-13.22 49.69-15.62Q51.95-18.02 56.16-18.02L56.16-18.02Q60.16-18.02 62.34-15.93Q64.52-13.84 64.52-9.92L64.52-9.92L64.52-7.20L53.59-7.20Q53.66-5.72 54.68-4.88Q55.70-4.03 57.47-4.03L57.47-4.03Q59.08-4.03 60.43-4.34Q61.78-4.64 63.36-5.38L63.36-5.38L63.36-0.98Q61.92-0.25 60.39 0.03Q58.86 0.31 56.73 0.31ZM56.38-13.86L56.38-13.86Q55.30-13.86 54.57-13.18Q53.84-12.50 53.72-11.05L53.72-11.05L58.97-11.05Q58.94-12.33 58.24-13.09Q57.55-13.86 56.38-13.86ZM85.25 0L79.14 0L79.14-9.66Q79.14-11.42 78.63-12.32Q78.13-13.22 77-13.22L77-13.22Q75.45-13.22 74.77-11.98Q74.08-10.75 74.08-7.75L74.08-7.75L74.08 0L67.97 0L67.97-17.70L72.58-17.70L73.34-15.52L73.70-15.52Q74.48-16.77 75.87-17.39Q77.25-18.02 79.05-18.02L79.05-18.02Q81.98-18.02 83.62-16.31Q85.25-14.61 85.25-11.52L85.25-11.52L85.25 0ZM104.70-6.94L104.70-6.94Q104.70-4.81 103.63-3.16Q102.55-1.52 100.52-0.60Q98.48 0.31 95.75 0.31L95.75 0.31Q93.47 0.31 91.92-0.01Q90.38-0.33 88.70-1.13L88.70-1.13L88.70-6.63Q90.47-5.72 92.38-5.21Q94.28-4.70 95.88-4.70L95.88-4.70Q97.25-4.70 97.89-5.18Q98.53-5.66 98.53-6.41L98.53-6.41Q98.53-6.88 98.27-7.23Q98.02-7.58 97.45-7.94Q96.88-8.30 94.41-9.41L94.41-9.41Q92.17-10.42 91.05-11.38Q89.94-12.33 89.40-13.56Q88.86-14.80 88.86-16.48L88.86-16.48Q88.86-19.64 91.16-21.41Q93.45-23.17 97.47-23.17L97.47-23.17Q101.02-23.17 104.70-21.53L104.70-21.53L102.81-16.77Q99.61-18.23 97.28-18.23L97.28-18.23Q96.08-18.23 95.53-17.81Q94.98-17.39 94.98-16.77L94.98-16.77Q94.98-16.09 95.68-15.56Q96.38-15.03 99.45-13.63L99.45-13.63Q102.41-12.30 103.55-10.77Q104.70-9.25 104.70-6.94ZM123.66 0L119.42 0L118.25-2.34L118.13-2.34Q116.89-0.81 115.61-0.25Q114.33 0.31 112.30 0.31L112.30 0.31Q109.80 0.31 108.36-1.19Q106.92-2.69 106.92-5.41L106.92-5.41Q106.92-8.23 108.89-9.62Q110.86-11 114.59-11.17L114.59-11.17L117.55-11.27L117.55-11.52Q117.55-13.70 115.39-13.70L115.39-13.70Q113.45-13.70 110.47-12.39L110.47-12.39L108.70-16.42Q111.80-18.02 116.52-18.02L116.52-18.02Q119.92-18.02 121.79-16.33Q123.66-14.64 123.66-11.61L123.66-11.61L123.66 0ZM114.89-4L114.89-4Q116-4 116.79-4.70Q117.58-5.41 117.58-6.53L117.58-6.53L117.58-7.91L116.17-7.84Q113.16-7.73 113.16-5.63L113.16-5.63Q113.16-4 114.89-4ZM145.09 0L138.98 0L138.98-9.66Q138.98-11.42 138.48-12.32Q137.97-13.22 136.84-13.22L136.84-13.22Q135.30-13.22 134.61-11.98Q133.92-10.75 133.92-7.75L133.92-7.75L133.92 0L127.81 0L127.81-17.70L132.42-17.70L133.19-15.52L133.55-15.52Q134.33-16.77 135.71-17.39Q137.09-18.02 138.89-18.02L138.89-18.02Q141.83-18.02 143.46-16.31Q145.09-14.61 145.09-11.52L145.09-11.52L145.09 0ZM162.92-5.44L162.92-5.44Q162.92-2.59 160.98-1.14Q159.05 0.31 155.42 0.31L155.42 0.31Q153.45 0.31 152 0.10Q150.55-0.11 149.03-0.67L149.03-0.67L149.03-5.56Q150.45-4.94 152.15-4.53Q153.84-4.13 155.17-4.13L155.17-4.13Q157.16-4.13 157.16-5.03L157.16-5.03Q157.16-5.50 156.60-5.87Q156.05-6.23 153.38-7.30L153.38-7.30Q150.94-8.30 149.97-9.57Q149-10.84 149-12.80L149-12.80Q149-15.27 150.91-16.64Q152.81-18.02 156.30-18.02L156.30-18.02Q158.05-18.02 159.59-17.63Q161.13-17.25 162.78-16.52L162.78-16.52L161.13-12.58Q159.91-13.13 158.55-13.51Q157.19-13.89 156.33-13.89L156.33-13.89Q154.83-13.89 154.83-13.16L154.83-13.16Q154.83-12.70 155.35-12.38Q155.88-12.06 158.38-11.08L158.38-11.08Q160.23-10.31 161.15-9.58Q162.06-8.84 162.49-7.85Q162.92-6.86 162.92-5.44Z"/></svg>