<svg id="mainsvg" xmlns="http://www.w3.org/2000/svg" xmlns:xlink="http://www.w3.org/1999/xlink" version="1.1" x="0px" y="0px" enable-background="new 0 0 200 162.5" xml:space="preserve" viewBox="0 0 114 25"><path fill="#000" transform="translate(-0.928, 24.064)" d="M6.62-8.77L6.62-1.70Q7.49-1.60 8.26-1.39Q9.02-1.18 9.70-0.93L9.70-0.93L9.70 0L0.93 0L0.93-0.93Q1.57-1.25 2.24-1.41Q2.91-1.57 3.55-1.70L3.55-1.70L3.55-20.67Q2.82-20.80 2.18-21.01Q1.54-21.22 0.93-21.47L0.93-21.47L0.93-22.40L3.81-22.40Q5.09-22.40 6.59-22.53Q8.10-22.66 9.47-22.66L9.47-22.66Q11.04-22.66 12.54-22.32Q14.05-21.98 15.22-21.18Q16.38-20.38 17.10-19.06Q17.82-17.73 17.82-15.74L17.82-15.74Q17.82-13.86 17.09-12.51Q16.35-11.17 15.12-10.30Q13.89-9.44 12.32-9.04Q10.75-8.64 9.09-8.64L9.09-8.64Q8.93-8.64 8.59-8.64Q8.26-8.64 7.87-8.66Q7.49-8.67 7.14-8.70Q6.78-8.74 6.62-8.77L6.62-8.77ZM8.80-20.99L8.80-20.99Q8.03-20.99 7.55-20.96Q7.07-20.93 6.62-20.83L6.62-20.83L6.62-10.46Q6.78-10.40 7.09-10.38Q7.39-10.37 7.73-10.34Q8.06-10.30 8.38-10.30Q8.70-10.30 8.90-10.30L8.90-10.30Q10.02-10.30 11.01-10.61Q12-10.91 12.75-11.58Q13.50-12.26 13.95-13.28Q14.40-14.30 14.40-15.74L14.40-15.74Q14.40-18.37 12.91-19.68Q11.42-20.99 8.80-20.99ZM33.47-0.93L33.47 0L24.48 0L24.48-0.93Q25.18-1.18 25.90-1.38Q26.62-1.57 27.46-1.70L27.46-1.70L27.46-20.74L22.56-20.74L20.86-16.16L20.06-16.16Q19.97-16.80 19.90-17.62Q19.84-18.43 19.79-19.28Q19.74-20.13 19.71-20.94Q19.68-21.76 19.68-22.40L19.68-22.40L38.27-22.40Q38.27-21.76 38.24-20.96Q38.21-20.16 38.16-19.31Q38.11-18.46 38.06-17.65Q38.02-16.83 37.92-16.16L37.92-16.16L37.09-16.16L35.42-20.74L30.53-20.74L30.53-1.70Q31.36-1.54 32.08-1.38Q32.80-1.22 33.47-0.93L33.47-0.93ZM50.14-6.91L51.46-2.21Q51.84-1.82 52.45-1.55Q53.06-1.28 54.27-1.28L54.27-1.28Q55.30-1.28 56.19-1.55Q57.09-1.82 57.74-2.35Q58.40-2.88 58.78-3.63Q59.17-4.38 59.17-5.34L59.17-5.34Q59.17-6.62 58.38-7.49Q57.60-8.35 56.43-9.02Q55.26-9.70 53.89-10.34Q52.51-10.98 51.34-11.86Q50.18-12.74 49.39-13.97Q48.61-15.20 48.61-17.06L48.61-17.06Q48.61-18.40 49.09-19.46Q49.57-20.51 50.45-21.25Q51.33-21.98 52.54-22.38Q53.76-22.78 55.26-22.78L55.26-22.78Q57.22-22.78 58.83-22.48Q60.45-22.18 61.38-21.73L61.38-21.73Q61.38-21.18 61.30-20.46Q61.22-19.74 61.10-18.98Q60.99-18.21 60.86-17.49Q60.74-16.77 60.61-16.22L60.61-16.22L59.78-16.22L58.50-20.61Q57.92-20.86 57.04-20.99Q56.16-21.12 55.17-21.12L55.17-21.12Q53.54-21.12 52.54-20.21Q51.55-19.30 51.55-17.66L51.55-17.66Q51.55-16.35 52.34-15.46Q53.12-14.56 54.30-13.86Q55.49-13.15 56.85-12.50Q58.21-11.84 59.39-10.98Q60.58-10.11 61.36-8.93Q62.14-7.74 62.14-5.98L62.14-5.98Q62.14-4.54 61.62-3.36Q61.09-2.18 60.10-1.34Q59.10-0.51 57.66-0.06Q56.22 0.38 54.40 0.38L54.40 0.38Q52.38 0.38 50.78-0.10Q49.18-0.58 48.51-1.12L48.51-1.12Q48.54-1.66 48.62-2.43Q48.70-3.20 48.82-4.02Q48.93-4.83 49.06-5.60Q49.18-6.37 49.31-6.91L49.31-6.91L50.14-6.91ZM77.63-2.75L78.08-2.24Q77.82-1.70 77.28-1.22Q76.74-0.74 76.03-0.38Q75.33-0.03 74.50 0.18Q73.66 0.38 72.80 0.38L72.80 0.38Q70.91 0.38 69.47-0.21Q68.03-0.80 67.07-1.90Q66.11-3.01 65.62-4.54Q65.12-6.08 65.12-8L65.12-8Q65.12-12.10 67.01-14.24Q68.90-16.38 72.35-16.38L72.35-16.38Q73.47-16.38 74.56-16.08Q75.65-15.78 76.50-15.07Q77.34-14.37 77.87-13.20Q78.40-12.03 78.40-10.30L78.40-10.30Q78.40-9.76 78.35-9.20Q78.30-8.64 78.18-8L78.18-8L68.19-8Q68.19-6.66 68.53-5.49Q68.86-4.32 69.54-3.46Q70.21-2.59 71.23-2.10Q72.26-1.60 73.63-1.60L73.63-1.60Q74.75-1.60 75.90-1.92Q77.06-2.24 77.63-2.75L77.63-2.75ZM72.22-14.98L72.22-14.98Q70.40-14.98 69.44-13.74Q68.48-12.51 68.29-9.41L68.29-9.41L75.33-9.41Q75.36-9.70 75.38-9.97Q75.39-10.24 75.39-10.50L75.39-10.50Q75.39-12.54 74.62-13.76Q73.86-14.98 72.22-14.98ZM91.97-13.60L87.71-13.60Q87.36-13.41 86.83-12.82Q86.30-12.22 85.89-11.07L85.89-11.07L85.89-1.57Q86.53-1.50 87.17-1.33Q87.81-1.15 88.45-0.80L88.45-0.80L88.45 0L80.90 0L80.90-0.80Q81.47-1.12 81.98-1.28Q82.50-1.44 83.01-1.57L83.01-1.57L83.01-14.14L80.90-14.40L80.90-15.23Q81.92-15.68 83.01-15.95Q84.10-16.22 85.09-16.38L85.09-16.38L85.89-16.38L85.89-12.99L86.02-12.99Q86.30-13.63 86.83-14.27Q87.36-14.91 88.05-15.42Q88.74-15.94 89.55-16.21Q90.37-16.48 91.23-16.38L91.23-16.38Q91.46-15.97 91.63-15.47Q91.81-14.98 91.97-14.43L91.97-14.43L91.97-13.60ZM100.61-0.80L100.61 0L93.50 0L93.50-0.80Q93.98-1.06 94.50-1.23Q95.01-1.41 95.62-1.57L95.62-1.57L95.62-14.14L93.50-14.40L93.50-15.23Q94.43-15.62 95.52-15.90Q96.61-16.19 97.70-16.38L97.70-16.38L98.50-16.38L98.50-1.57Q99.14-1.41 99.65-1.23Q100.16-1.06 100.61-0.80L100.61-0.80ZM95.01-21.44L95.01-21.44Q95.01-22.30 95.57-22.82Q96.13-23.33 97.06-23.33L97.06-23.33Q97.98-23.33 98.53-22.82Q99.07-22.30 99.07-21.44L99.07-21.44Q99.07-20.58 98.53-20.08Q97.98-19.58 97.06-19.58L97.06-19.58Q96.13-19.58 95.57-20.08Q95.01-20.58 95.01-21.44ZM111.62-24.06L111.62-24.06Q111.90-24.06 112.29-24.03Q112.67-24 113.09-23.95Q113.50-23.90 113.89-23.82Q114.27-23.74 114.56-23.65L114.56-23.65Q114.46-22.59 114.29-21.68Q114.11-20.77 113.86-20.03L113.86-20.03L113.06-20.03L111.65-22.78Q110.72-22.78 110.06-22.59Q109.41-22.40 108.98-21.86Q108.54-21.31 108.34-20.29Q108.13-19.26 108.13-17.60L108.13-17.60L108.13-16L111.81-16L111.81-14.40L108.13-14.40L108.13-1.57Q109.79-1.38 111.20-0.80L111.20-0.80L111.20 0L103.14 0L103.14-0.80Q104.13-1.38 105.25-1.57L105.25-1.57L105.25-14.40L102.82-14.40L102.82-15.23Q103.94-15.94 105.25-16.29L105.25-16.29L105.25-17.41Q105.25-19.39 105.73-20.69Q106.21-21.98 107.07-22.74Q107.94-23.49 109.10-23.78Q110.27-24.06 111.62-24.06Z"/></svg>