<svg id="mainsvg" xmlns="http://www.w3.org/2000/svg" xmlns:xlink="http://www.w3.org/1999/xlink" version="1.1" x="0px" y="0px" enable-background="new 0 0 200 162.5" xml:space="preserve" viewBox="0 0 70 23"><path fill="#000" transform="translate(-1.088, 22.592)" d="M1.09-10.78C1.09-3.49 5.73 0.26 12.22 0.26C15.33 0.26 18.21-0.64 20.16-2.02L19.14-5.82C17.60-4.67 15.20-3.74 12.64-3.74C8.45-3.74 5.73-6.37 5.73-10.78C5.73-15.10 8.45-17.73 11.94-17.73C13.09-17.73 14.18-17.66 15.17-17.50L15.55-12.19L19.87-12.19L19.87-20.38C17.54-21.18 15.33-21.70 12.03-21.70C5.76-21.70 1.09-17.98 1.09-10.78ZM21.92-19.36L24.06-19.36L24.06-3.26L21.92-3.26L21.92 0L30.56 0L30.56-3.26L28.42-3.26L28.42-22.59L21.92-22.59ZM32.06-8.29C32.06-2.78 35.07 0.26 39.20 0.26C41.25 0.26 42.85-0.38 44.03-1.66L44.03 0L50.50 0L50.50-3.26L48.38-3.26L48.38-16.45L44.03-16.45L44.03-14.75C42.91-16.06 41.28-16.70 39.20-16.70C35.07-16.70 32.06-13.66 32.06-8.29ZM36.54-8.19C36.54-11.14 38.21-12.83 40.51-12.83C42.18-12.83 43.52-11.84 44.03-10.18L44.03-6.11C43.55-4.48 42.18-3.49 40.51-3.49C38.21-3.49 36.54-5.25 36.54-8.19ZM58.24 0L58.24-1.76C59.49-0.45 61.18 0.26 63.14 0.26C67.23 0.26 70.24-2.78 70.24-8.29C70.24-13.66 67.23-16.70 63.14-16.70C61.12-16.70 59.49-16.03 58.24-14.66L58.24-22.59L51.81-22.59L51.81-19.36L53.89-19.36L53.89-3.26L51.81-3.26L51.81 0ZM58.24-10.05C58.72-11.81 60.06-12.83 61.82-12.83C64.13-12.83 65.79-11.14 65.79-8.19C65.79-5.25 64.13-3.49 61.82-3.49C60.06-3.49 58.72-4.48 58.24-6.24Z"/></svg>