<svg id="mainsvg" xmlns="http://www.w3.org/2000/svg" xmlns:xlink="http://www.w3.org/1999/xlink" version="1.1" x="0px" y="0px" enable-background="new 0 0 200 162.5" xml:space="preserve" viewBox="0 0 157 31"><path fill="#000" transform="translate(-1.28, 23.68)" d="M23.14 0.90L23.14 0.90Q23.81 0.90 24.38 1.46Q24.96 2.02 24.96 2.75L24.96 2.75Q24.96 3.49 24.30 4.14Q23.65 4.80 22.62 5.31Q21.60 5.82 20.50 6.11Q19.39 6.40 18.50 6.40L18.50 6.40Q16.51 6.40 15.33 6.03Q14.14 5.66 13.38 5.20Q12.61 4.74 11.94 4.37Q11.26 4 10.30 4L10.30 4Q9.70 4 9.33 4.21Q8.96 4.42 8.53 4.62Q8.10 4.83 7.33 4.83L7.33 4.83Q6.53 4.83 5.98 4.22Q5.44 3.62 5.44 2.91L5.44 2.91Q5.44 1.66 6.56 1.25L6.56 1.25L13.18-1.22L16.06-0.51L9.86 1.79L11.68 0.74Q12.80 0.74 13.65 1.07Q14.50 1.41 15.26 1.82Q16.03 2.24 16.85 2.58Q17.66 2.91 18.72 2.91L18.72 2.91Q19.58 2.91 20.18 2.62Q20.77 2.34 21.22 1.98L21.22 1.98Q21.76 1.57 22.19 1.23Q22.62 0.90 23.14 0.90ZM23.01-11.20L23.01-11.20Q23.01-8.80 22.21-6.72Q21.41-4.64 19.95-3.06Q18.50-1.47 16.50-0.58Q14.50 0.32 12.13 0.32L12.13 0.32Q9.76 0.32 7.78-0.58Q5.79-1.47 4.34-3.06Q2.88-4.64 2.08-6.72Q1.28-8.80 1.28-11.20L1.28-11.20Q1.28-13.60 2.08-15.68Q2.88-17.76 4.34-19.34Q5.79-20.93 7.78-21.82Q9.76-22.72 12.13-22.72L12.13-22.72Q14.50-22.72 16.50-21.82Q18.50-20.93 19.95-19.34Q21.41-17.76 22.21-15.68Q23.01-13.60 23.01-11.20ZM18.85-11.20L18.85-11.20Q18.85-13.34 17.98-15.09Q17.12-16.83 15.62-17.86Q14.11-18.88 12.13-18.88L12.13-18.88Q10.14-18.88 8.64-17.86Q7.14-16.83 6.29-15.10Q5.44-13.38 5.44-11.20L5.44-11.20Q5.44-9.06 6.29-7.31Q7.14-5.57 8.64-4.54Q10.14-3.52 12.13-3.52L12.13-3.52Q14.11-3.52 15.62-4.54Q17.12-5.57 17.98-7.31Q18.85-9.06 18.85-11.20ZM38.94-17.12L38.94-17.12Q39.78-17.12 40.32-16.56Q40.86-16 40.86-15.17L40.86-15.17L40.86-7.04Q40.86-3.65 38.98-1.66Q37.09 0.32 33.54 0.32L33.54 0.32Q29.98 0.32 28.11-1.66Q26.24-3.65 26.24-7.04L26.24-7.04L26.24-15.17Q26.24-16 26.78-16.56Q27.33-17.12 28.16-17.12L28.16-17.12Q28.99-17.12 29.54-16.56Q30.08-16 30.08-15.17L30.08-15.17L30.08-7.04Q30.08-5.09 30.94-4.14Q31.81-3.20 33.54-3.20L33.54-3.20Q35.30-3.20 36.16-4.14Q37.02-5.09 37.02-7.04L37.02-7.04L37.02-15.17Q37.02-16 37.57-16.56Q38.11-17.12 38.94-17.12ZM48.64-15.17L48.64-1.95Q48.64-1.12 48.10-0.56Q47.55 0 46.72 0L46.72 0Q45.89 0 45.34-0.56Q44.80-1.12 44.80-1.95L44.80-1.95L44.80-15.17Q44.80-16 45.34-16.56Q45.89-17.12 46.72-17.12L46.72-17.12Q47.55-17.12 48.10-16.56Q48.64-16 48.64-15.17L48.64-15.17ZM46.69-19.20L46.69-19.20Q45.60-19.20 45.15-19.55Q44.70-19.90 44.70-20.80L44.70-20.80L44.70-21.41Q44.70-22.34 45.20-22.67Q45.70-23.01 46.72-23.01L46.72-23.01Q47.84-23.01 48.29-22.66Q48.74-22.30 48.74-21.41L48.74-21.41L48.74-20.80Q48.74-19.87 48.26-19.54Q47.78-19.20 46.69-19.20ZM60.03-17.44L60.03-17.44Q61.86-17.44 63.22-17.06Q64.58-16.67 65.33-15.98Q66.08-15.30 66.08-14.34L66.08-14.34Q66.08-13.70 65.70-13.14Q65.31-12.58 64.58-12.58L64.58-12.58Q64.06-12.58 63.73-12.72Q63.39-12.86 63.14-13.09Q62.88-13.31 62.53-13.50L62.53-13.50Q62.21-13.70 61.55-13.81Q60.90-13.92 60.58-13.92L60.58-13.92Q58.94-13.92 57.81-13.22Q56.67-12.51 56.06-11.31Q55.46-10.11 55.46-8.54L55.46-8.54Q55.46-7.01 56.08-5.81Q56.70-4.61 57.81-3.90Q58.91-3.20 60.35-3.20L60.35-3.20Q61.15-3.20 61.73-3.30Q62.30-3.39 62.69-3.58L62.69-3.58Q63.14-3.84 63.49-4.13Q63.84-4.42 64.54-4.42L64.54-4.42Q65.38-4.42 65.82-3.89Q66.27-3.36 66.27-2.59L66.27-2.59Q66.27-1.79 65.38-1.14Q64.48-0.48 63.02-0.08Q61.57 0.32 59.87 0.32L59.87 0.32Q57.34 0.32 55.49-0.85Q53.63-2.02 52.62-4.03Q51.62-6.05 51.62-8.54L51.62-8.54Q51.62-11.17 52.69-13.17Q53.76-15.17 55.66-16.30Q57.57-17.44 60.03-17.44ZM71.30 0L71.30 0Q70.46 0 69.92-0.56Q69.38-1.12 69.38-1.95L69.38-1.95L69.38-21.73Q69.38-22.56 69.92-23.12Q70.46-23.68 71.30-23.68L71.30-23.68Q72.13-23.68 72.67-23.12Q73.22-22.56 73.22-21.73L73.22-21.73L73.22-1.95Q73.22-1.12 72.67-0.56Q72.13 0 71.30 0ZM81.47-17.12L81.47-17.12Q82.21-17.12 82.75-16.51Q83.30-15.90 83.30-15.33L83.30-15.33Q83.30-14.56 82.53-13.89L82.53-13.89L72.90-5.02L72.74-9.44L80.06-16.51Q80.67-17.12 81.47-17.12ZM81.95-0.03L81.95-0.03Q81.12-0.03 80.54-0.67L80.54-0.67L74.62-6.94L77.54-9.63L83.30-3.36Q83.90-2.72 83.90-1.92L83.90-1.92Q83.90-1.09 83.25-0.56Q82.59-0.03 81.95-0.03ZM86.27-2.66L86.27-2.66Q85.95-3.10 85.98-3.81Q86.02-4.51 86.82-5.02L86.82-5.02Q87.33-5.34 87.90-5.30Q88.48-5.25 89.02-4.70L89.02-4.70Q89.95-3.78 90.98-3.26Q92-2.75 93.54-2.75L93.54-2.75Q94.02-2.78 94.59-2.90Q95.17-3.01 95.60-3.41Q96.03-3.81 96.03-4.64L96.03-4.64Q96.03-5.34 95.55-5.76Q95.07-6.18 94.29-6.46Q93.50-6.75 92.54-7.01L92.54-7.01Q91.55-7.30 90.51-7.65Q89.47-8 88.61-8.56Q87.74-9.12 87.20-10.05Q86.66-10.98 86.66-12.38L86.66-12.38Q86.66-13.98 87.55-15.10Q88.45-16.22 89.87-16.83Q91.30-17.44 92.86-17.44L92.86-17.44Q93.86-17.44 94.94-17.20Q96.03-16.96 97.02-16.43Q98.02-15.90 98.69-15.04L98.69-15.04Q99.04-14.56 99.10-13.89Q99.17-13.22 98.50-12.67L98.50-12.67Q98.02-12.29 97.38-12.34Q96.74-12.38 96.32-12.77L96.32-12.77Q95.78-13.47 94.86-13.89Q93.95-14.30 92.77-14.30L92.77-14.30Q92.29-14.30 91.73-14.19Q91.17-14.08 90.75-13.71Q90.34-13.34 90.34-12.54L90.34-12.54Q90.34-11.81 90.82-11.38Q91.30-10.94 92.11-10.67Q92.93-10.40 93.86-10.14L93.86-10.14Q94.82-9.89 95.81-9.54Q96.80-9.18 97.63-8.61Q98.46-8.03 98.98-7.12Q99.49-6.21 99.49-4.80L99.49-4.80Q99.49-3.17 98.53-2.02Q97.57-0.86 96.13-0.27Q94.69 0.32 93.18 0.32L93.18 0.32Q91.30 0.32 89.41-0.34Q87.52-0.99 86.27-2.66ZM116.54-17.44L116.54-17.44Q117.38-17.44 117.92-16.90Q118.46-16.35 118.46-15.49L118.46-15.49L118.46-1.95Q118.46-1.12 117.92-0.56Q117.38 0 116.54 0L116.54 0Q115.71 0 115.17-0.56Q114.62-1.12 114.62-1.95L114.62-1.95L114.62-3.52L115.33-3.23Q115.33-2.82 114.88-2.22Q114.43-1.63 113.66-1.06Q112.90-0.48 111.86-0.08Q110.82 0.32 109.60 0.32L109.60 0.32Q107.39 0.32 105.60-0.82Q103.81-1.95 102.77-3.95Q101.73-5.95 101.73-8.54L101.73-8.54Q101.73-11.17 102.77-13.17Q103.81-15.17 105.57-16.30Q107.33-17.44 109.47-17.44L109.47-17.44Q110.85-17.44 112-17.02Q113.15-16.61 114-15.97Q114.85-15.33 115.31-14.67Q115.78-14.02 115.78-13.57L115.78-13.57L114.62-13.15L114.62-15.49Q114.62-16.32 115.17-16.88Q115.71-17.44 116.54-17.44ZM110.08-3.20L110.08-3.20Q111.49-3.20 112.54-3.90Q113.60-4.61 114.19-5.82Q114.78-7.04 114.78-8.54L114.78-8.54Q114.78-10.08 114.19-11.30Q113.60-12.51 112.54-13.22Q111.49-13.92 110.08-13.92L110.08-13.92Q108.70-13.92 107.65-13.22Q106.59-12.51 106-11.30Q105.41-10.08 105.41-8.54L105.41-8.54Q105.41-7.04 106-5.82Q106.59-4.61 107.65-3.90Q108.70-3.20 110.08-3.20ZM131.78-17.44L131.78-17.44Q134.14-17.44 135.38-16.45Q136.61-15.46 137.07-13.81Q137.54-12.16 137.54-10.14L137.54-10.14L137.54-1.95Q137.54-1.12 136.99-0.56Q136.45 0 135.62 0L135.62 0Q134.78 0 134.24-0.56Q133.70-1.12 133.70-1.95L133.70-1.95L133.70-10.14Q133.70-11.20 133.42-12.05Q133.15-12.90 132.45-13.41Q131.74-13.92 130.43-13.92L130.43-13.92Q129.15-13.92 128.27-13.41Q127.39-12.90 126.93-12.05Q126.46-11.20 126.46-10.14L126.46-10.14L126.46-1.95Q126.46-1.12 125.92-0.56Q125.38 0 124.54 0L124.54 0Q123.71 0 123.17-0.56Q122.62-1.12 122.62-1.95L122.62-1.95L122.62-15.17Q122.62-16 123.17-16.56Q123.71-17.12 124.54-17.12L124.54-17.12Q125.38-17.12 125.92-16.56Q126.46-16 126.46-15.17L126.46-15.17L126.46-13.79L125.98-13.89Q126.27-14.43 126.82-15.06Q127.36-15.68 128.10-16.22Q128.83-16.77 129.76-17.10Q130.69-17.44 131.78-17.44ZM155.55-23.68L155.55-23.68Q156.38-23.68 156.93-23.14Q157.47-22.59 157.47-21.73L157.47-21.73L157.47-1.95Q157.47-1.12 156.93-0.56Q156.38 0 155.55 0L155.55 0Q154.72 0 154.18-0.56Q153.63-1.12 153.63-1.95L153.63-1.95L153.63-3.52L154.34-3.23Q154.34-2.82 153.89-2.22Q153.44-1.63 152.67-1.06Q151.90-0.48 150.86-0.08Q149.82 0.32 148.61 0.32L148.61 0.32Q146.40 0.32 144.61-0.82Q142.82-1.95 141.78-3.95Q140.74-5.95 140.74-8.54L140.74-8.54Q140.74-11.17 141.78-13.17Q142.82-15.17 144.58-16.30Q146.34-17.44 148.48-17.44L148.48-17.44Q149.86-17.44 151.01-17.02Q152.16-16.61 153.01-15.97Q153.86-15.33 154.32-14.67Q154.78-14.02 154.78-13.57L154.78-13.57L153.63-13.15L153.63-21.73Q153.63-22.56 154.18-23.12Q154.72-23.68 155.55-23.68ZM149.09-3.20L149.09-3.20Q150.50-3.20 151.55-3.90Q152.61-4.61 153.20-5.82Q153.79-7.04 153.79-8.54L153.79-8.54Q153.79-10.08 153.20-11.30Q152.61-12.51 151.55-13.22Q150.50-13.92 149.09-13.92L149.09-13.92Q147.71-13.92 146.66-13.22Q145.60-12.51 145.01-11.30Q144.42-10.08 144.42-8.54L144.42-8.54Q144.42-7.04 145.01-5.82Q145.60-4.61 146.66-3.90Q147.71-3.20 149.09-3.20Z"/></svg>