<svg id="mainsvg" xmlns="http://www.w3.org/2000/svg" xmlns:xlink="http://www.w3.org/1999/xlink" version="1.1" x="0px" y="0px" enable-background="new 0 0 200 162.5" xml:space="preserve" viewBox="0 0 252 34"><path fill="#000" transform="translate(0, 23.104)" d="M10.69 0.06C12-0.16 13.34 0.06 14.66 0.06C15.94-4.13 17.70-9.31 19.20-13.57C21.60-20.32 23.01-21.18 24.83-22.02L24.83-22.40C22.53-22.08 20.96-22.08 18.66-22.40L18.66-22.02C20.42-20.83 20.29-19.36 18.53-14.37L15.52-5.89C14.21-8.64 13.09-11.36 12-14.11C10.98-16.70 9.66-20.54 11.97-22.02L11.97-22.40C8.10-22.08 3.65-22.11 0-22.40L0-22.02C1.92-21.70 3.87-18.08 6.82-10.85C8.45-6.85 9.70-3.74 10.69 0.06ZM35.52 0.06C36.83-0.16 38.18 0.06 39.49 0.06C40.77-4.13 42.53-9.31 44.03-13.57C46.43-20.32 47.84-21.18 49.66-22.02L49.66-22.40C47.36-22.08 45.79-22.08 43.49-22.40L43.49-22.02C45.25-20.83 45.12-19.36 43.36-14.37L40.35-5.89C39.04-8.64 37.92-11.36 36.83-14.11C35.81-16.70 34.50-20.54 36.80-22.02L36.80-22.40C32.93-22.08 28.48-22.11 24.83-22.40L24.83-22.02C26.75-21.70 28.70-18.08 31.65-10.85C33.28-6.85 34.53-3.74 35.52 0.06ZM49.66 0C53.06-0.32 56.26-0.22 59.65 0C66.85 0.42 73.38-3.55 73.38-11.46C73.38-19.30 66.88-22.85 59.65-22.40C55.94-22.14 52.96-22.14 49.66-22.40L49.66-22.02C52.03-21.89 52.29-16.86 52.29-11.42C52.29-5.54 52.13-0.58 49.66-0.38ZM58.40-0.86C58.08-7.90 58.08-14.53 58.40-21.57L59.01-21.57C65.12-21.57 67.10-16.93 67.10-11.46C67.10-5.92 65.12-0.86 59.01-0.86ZM83.68 0.80C89.54 0.80 92.51-2.34 92.51-6.18C92.51-9.38 90.43-11.20 86.91-12.96C85.57-13.63 82.27-14.98 81.28-15.52C79.20-16.61 78.05-17.50 78.05-19.04C78.05-20.99 79.90-22.40 82.75-22.40C87.33-22.40 89.18-17.95 89.38-14.59L90.46-14.59L92.26-22.62C89.02-21.12 86.50-23.10 82.94-23.10C78.05-23.10 73.95-20.42 73.95-16.77C73.95-13.98 75.14-12.26 78.40-10.46C79.62-9.79 83.71-7.90 84.90-7.30C87.17-6.11 88.93-5.06 88.93-3.20C88.93-1.54 86.85 0.13 83.87 0.10C78.75 0.06 76.80-4.80 76.61-9.09L75.30-9.09L73.76-0.16C77.25-1.76 79.10 0.80 83.68 0.80ZM93.54 2.88L103.78 2.88L103.78 1.92L93.54 1.92ZM117.22 0.48C123.46 0.48 130.11-3.14 130.11-11.14C130.11-18.59 124.35-22.88 117.89-22.88C111.17-22.88 105.06-18.75 105.06-11.36C105.06-4.22 110.78 0.48 117.22 0.48ZM118.62-0.26C114.30-0.26 111.42-7.68 111.42-13.63C111.42-17.73 112.93-21.92 116.32-22.14C120.58-22.40 123.74-15.87 123.74-9.54C123.74-5.25 122.24-0.26 118.62-0.26ZM130.11 0C133.15-0.32 136.90-0.32 140 0L140-0.29C137.76-1.89 137.25-4.03 137.06-8.70C137.06-8.96 137.02-9.22 137.02-9.47C137.25-11.55 138.75-12.96 140.03-12.96C141.38-12.96 141.73-11.46 141.28-10.66C142.75-9.82 145.34-10.62 145.28-13.28C145.28-14.62 144.38-15.84 142.40-15.84C139.87-15.84 137.79-13.09 137.02-11.07C137.02-12.64 137.15-14.24 137.38-15.68C135.39-14.40 132.45-13.92 130.02-13.86L130.02-13.50C131.97-12.74 132.22-10.34 132.22-7.42C132.22-3.65 131.81-0.96 130.11-0.38ZM154.27 10.62C159.07 10.62 162.59 7.23 162.59 4.13C162.59-1.54 154.66-0.06 151.46-2.56C152.35-3.07 153.38-4.03 154.62-4.26C158.78-4.48 162.02-6.69 162.02-10.08C162.02-13.44 158.72-15.68 154.66-15.90C154.94-17.47 155.81-18.91 156.93-18.91C158.14-18.91 158.14-17.63 157.47-16.96C158.62-15.39 161.76-16.06 161.73-18.43C161.73-19.97 160.48-21.06 158.69-21.06C155.94-21.06 154.50-17.79 154.18-15.94L153.92-15.94C149.47-15.94 145.82-13.66 145.82-10.08C145.82-6.82 149.18-4.51 153.18-4.26C151.10-3.30 149.02-0.77 145.79-0.77C147.46 0.77 150.05 2.08 154.43 3.07C157.73 3.84 159.71 4.70 159.71 6.78C159.71 8.54 157.79 9.86 155.01 9.86C150.62 9.86 149.79 6.08 152.26 5.25C152.19 4.16 151.55 2.82 149.15 2.82C147.52 2.82 145.86 3.87 145.86 5.76C145.86 8.61 150.02 10.62 154.27 10.62ZM154.82-4.77C153.28-4.64 151.10-7.23 150.91-10.46C150.72-12.80 151.49-15.26 153.18-15.39C155.30-15.55 156.74-12.99 156.93-10.05C157.12-7.46 156.42-4.93 154.82-4.77ZM168.22 0.22C170.50 0.22 172.86-1.44 173.63-4C174.43-0.54 176.64 0 177.92 0C180.80 0 181.63-3.26 181.63-4.10L181.28-4.10C181.18-3.46 180.96-2.62 180.13-2.62C178.34-2.62 178.08-8 177.28-11.17C176.32-14.88 172.99-15.55 170.34-15.55C166.27-15.55 163.46-13.82 163.46-11.62C163.46-10.05 164.77-8.83 166.30-8.83C168.16-8.83 169.06-10.37 169.06-11.17C168.13-11.14 167.20-11.74 167.20-12.80C167.20-13.95 168.29-14.85 169.70-14.85C170.88-14.85 171.68-14.24 172.22-12.96C173.79-7.46 163.26-9.82 163.26-3.97C163.26-1.44 165.70 0.22 168.22 0.22ZM170.88-2.82C169.70-2.82 168.74-3.90 168.74-5.38C168.74-7.74 171.58-9.73 172.90-10.24C173.09-9.06 173.22-7.62 173.34-5.92L173.44-4.99C173.12-3.84 172.38-2.82 170.88-2.82ZM180.64 0C183.65-0.32 186.56-0.32 189.66 0L189.66-0.38C188.10-0.93 187.55-3.14 187.55-8.54C187.58-11.49 189.09-13.73 190.66-13.73C192.67-13.73 193.41-10.50 193.47-6.43C193.57-2.82 192.90-1.09 191.49-0.38L191.49 0C194.37-0.32 198.21-0.32 201.60 0L201.60-0.38C199.04-1.66 199.04-3.33 198.53-9.09C198.24-12.29 197.15-15.71 193.66-15.71C190.78-15.71 189.25-13.57 187.65-13.22C187.68-14.05 187.74-14.88 187.87-15.68C185.92-14.40 182.94-13.92 180.51-13.86L180.51-13.50C182.66-12.93 182.72-10.34 182.72-7.42C182.72-3.65 182.34-0.96 180.64-0.38ZM207.62 0C210.91 0 212.13-2.18 213.70-2.43C213.66-1.60 213.57-0.80 213.47-0.03C215.87-0.32 217.98-0.32 220.74-0.03L220.74-0.38C218.75-0.86 218.62-5.60 218.62-8.29C218.62-12.03 218.82-13.28 219.58-15.71C217.41-14.43 214.78-13.44 211.58-13.66L211.58-13.25C213.38-12.61 213.79-12.13 213.79-7.10C213.79-4.22 212.48-2.02 210.82-2.02C208.67-2.02 208.06-5.22 208.06-9.28C208.06-12.03 208.32-14.75 208.83-16.03C206.62-14.85 203.68-13.89 200.64-13.89L200.64-13.50C203.20-12.58 203.10-10.05 202.66-6.53C202.14-2.30 204.22 0 207.62 0ZM220.61 0C223.65-0.32 226.53-0.32 229.63 0L229.63-0.38C228.03-0.93 227.55-3.17 227.55-8.70L227.55-9.22C227.74-11.65 228.74-13.73 230.18-13.73C232.16-13.73 232.99-10.50 232.96-6.43C232.90-3.20 232.42-1.09 231.04-0.38L231.04 0C233.92-0.32 237.47-0.32 240.83 0L240.83-0.38C238.14-1.34 238.37-3.62 237.79-9.09C237.60-11.84 238.98-13.95 240.35-13.95C242.56-13.95 243.26-10.05 243.36-6.02C243.42-2.78 243.14-1.09 241.79-0.38L241.79 0C244.86-0.32 248.19-0.32 251.58 0L251.58-0.38C248.90-1.76 249.12-3.62 248.42-9.09C248.03-12.16 246.62-15.71 242.94-15.71C239.87-15.71 238.43-13.38 236.74-13.25C236.00-14.69 234.85-15.71 232.96-15.71C229.95-15.71 228.99-13.47 227.65-13.28C227.68-14.08 227.78-14.91 227.87-15.68C225.89-14.40 222.94-13.92 220.51-13.86L220.51-13.50C222.62-12.93 222.72-10.34 222.72-7.42C222.72-3.65 222.30-0.96 220.61-0.38Z"/></svg>