<svg id="mainsvg" xmlns="http://www.w3.org/2000/svg" xmlns:xlink="http://www.w3.org/1999/xlink" version="1.1" x="0px" y="0px" enable-background="new 0 0 200 162.5" xml:space="preserve" viewBox="0 0 296 24"><path fill="#000" transform="translate(-2.496, 22.848)" d="M17.22-22.40L17.22-17.28C17.22-13.22 17.28-9.25 17.25-9.25L17.22-9.25C17.18-9.25 13.76-14.08 12.32-16L7.55-22.40L2.50-22.40L2.50 0L7.87 0L7.87-4.96C7.87-9.86 7.81-13.31 7.84-13.31L7.87-13.31C7.90-13.31 10.91-9.06 12.96-6.24L17.54 0L22.59 0L22.59-22.40ZM26.21-11.20C26.21-4.45 31.39 0.45 37.82 0.45C44.26 0.45 49.47-4.45 49.47-11.20C49.47-17.95 44.26-22.85 37.82-22.85C31.39-22.85 26.21-17.95 26.21-11.20ZM31.81-11.20C31.81-14.98 34.21-17.54 37.82-17.54C41.47-17.54 43.87-14.98 43.87-11.20C43.87-7.46 41.47-4.86 37.82-4.86C34.21-4.86 31.81-7.46 31.81-11.20ZM67.71-22.40L63.39-10.05C62.53-7.55 62.14-5.95 62.11-5.95L62.08-5.95C62.05-5.95 61.66-7.55 60.80-10.05L56.48-22.40L50.59-22.40L59.20 0L64.99 0L73.60-22.40ZM81.47-5.02L81.47-8.99L90.02-8.99L90.02-13.70L81.47-13.70L81.47-17.38L92.38-17.38L92.38-22.40L76.10-22.40L76.10 0L92.58 0L92.58-5.02ZM117.73-16.90C115.74-20.48 111.97-22.85 107.55-22.85C101.12-22.85 95.94-17.95 95.94-11.20C95.94-4.45 101.12 0.45 107.55 0.45C112.26 0.45 116.26-2.18 118.11-6.14L112.67-7.55C111.74-6.02 109.70-4.93 107.55-4.93C104.06-4.93 101.54-7.33 101.54-11.20C101.54-14.88 103.84-17.54 107.55-17.54C109.31-17.54 111.23-16.74 112.26-15.46ZM126.82-5.02L126.82-8.99L135.36-8.99L135.36-13.70L126.82-13.70L126.82-17.38L137.73-17.38L137.73-22.40L121.44-22.40L121.44 0L137.92 0L137.92-5.02ZM157.38-22.40L157.38-17.28C157.38-13.22 157.44-9.25 157.41-9.25L157.38-9.25C157.34-9.25 153.92-14.08 152.48-16L147.71-22.40L142.66-22.40L142.66 0L148.03 0L148.03-4.96C148.03-9.86 147.97-13.31 148-13.31L148.03-13.31C148.06-13.31 151.07-9.06 153.12-6.24L157.70 0L162.75 0L162.75-22.40ZM165.57-22.40L165.57-17.38L172.29-17.38L172.29 0L177.66 0L177.66-17.38L184.48-17.38L184.48-22.40ZM185.92-11.20C185.92-4.45 191.10 0.45 197.54 0.45C203.97 0.45 209.18-4.45 209.18-11.20C209.18-17.95 203.97-22.85 197.54-22.85C191.10-22.85 185.92-17.95 185.92-11.20ZM191.52-11.20C191.52-14.98 193.92-17.54 197.54-17.54C201.18-17.54 203.58-14.98 203.58-11.20C203.58-7.46 201.18-4.86 197.54-4.86C193.92-4.86 191.52-7.46 191.52-11.20ZM237.57-22.40L234.82-11.84C234.27-9.73 233.95-8.22 233.92-8.22L233.89-8.22C233.86-8.22 233.50-9.73 232.74-11.84L229.63-20.29L224.61-20.29L221.50-11.84C220.74-9.73 220.38-8.22 220.35-8.22L220.32-8.22C220.29-8.22 219.97-9.73 219.42-11.84L216.67-22.40L210.94-22.40L217.73 0L222.78 0L226.11-10.34C226.82-12.54 227.07-14.11 227.10-14.11L227.14-14.11C227.17-14.11 227.42-12.54 228.13-10.34L231.46 0L236.51 0L243.30-22.40ZM251.81 0L251.81-22.40L246.43-22.40L246.43 0ZM256.80-22.40L256.80 0L266.59 0C272.99 0 278.18-4.38 278.18-11.10C278.18-17.82 272.99-22.40 266.59-22.40ZM262.18-5.02L262.18-17.38L266.59-17.38C269.79-17.38 272.58-14.94 272.58-11.10C272.58-7.26 269.79-5.02 266.59-5.02ZM287.17-5.02L287.17-8.99L295.71-8.99L295.71-13.70L287.17-13.70L287.17-17.38L298.08-17.38L298.08-22.40L281.79-22.40L281.79 0L298.27 0L298.27-5.02Z"/></svg>