<svg id="mainsvg" xmlns="http://www.w3.org/2000/svg" xmlns:xlink="http://www.w3.org/1999/xlink" version="1.1" x="0px" y="0px" enable-background="new 0 0 200 162.5" xml:space="preserve" viewBox="0 0 256 32"><path fill="#000" transform="translate(-1.344, 22.88)" d="M14.27-2.91C14.98-1.06 14.59-0.67 12.61-0.29L12.61 0L21.66 0L21.66-0.29C20.06-0.61 18.75-1.79 18.05-3.62L10.43-22.88L9.50-22.88L2.34-3.65C1.73-1.98 0.42-0.83-1.28-0.32L-1.34-0.29L-1.34 0L5.25 0L5.25-0.29L4.42-0.54C3.33-0.86 2.82-1.89 3.23-2.94L4.61-6.56L12.83-6.56ZM8.58-17.38L12.58-7.17L4.83-7.17ZM28.38-18.37C28.38-17.57 29.34-16.74 30.43-16.74C32.38-16.74 33.06-18.21 33.06-19.36C33.06-20.22 32.51-21.06 31.46-21.79C30.50-22.40 29.06-22.88 27.78-22.88C24.61-22.88 22.43-21.09 22.43-18.56L22.43-14.72L20.13-14.72L20.13-13.76L22.43-13.76L22.43-2.14C22.43-1.31 21.89-0.64 21.09-0.48L20.13-0.29L20.13 0L28.13 0L28.13-0.29L27.17-0.48C26.37-0.64 25.82-1.31 25.82-2.14L25.82-13.76L31.20-13.76L31.20-14.72L25.82-14.72L25.82-18.56C25.82-20.58 26.05-22.08 27.46-22.08C29.86-22.08 30.59-18.82 28.38-18.37ZM36.38-14.72L36.38-20.29L35.01-20.29C35.01-17.06 32.61-14.72 29.73-14.72L29.73-13.76L32.99-13.76L32.99-3.84C32.99-1.28 35.20 0.48 38.53 0.48C40.99 0.48 42.72-1.02 42.91-3.36L41.70-3.36C41.50-1.38 40.64-0.48 38.91-0.48C37.41-0.48 36.38-1.95 36.38-4.19L36.38-13.76L40.80-13.76L40.80-14.72ZM54.98-6.34C53.89-6.34 52.93-5.50 52.93-4.70C53.73-4.54 54.21-3.71 54.21-3.07C54.21-1.63 52.83-0.32 51.36-0.35C48.29-0.42 46.94-4.83 47.39-8.96L57.57-8.96C57.31-10.66 56.67-12.10 55.58-13.22C54.37-14.46 52.54-15.20 50.62-15.20C48.70-15.20 46.88-14.46 45.70-13.22C44.29-11.74 43.55-9.79 43.55-7.36C43.55-4.99 44.32-3.07 45.86-1.60C47.20-0.22 49.25 0.51 51.36 0.45C54.59 0.51 57.60-1.38 57.60-3.71C57.60-4.86 56.93-6.34 54.98-6.34ZM50.46-14.50C51.23-14.50 51.84-14.08 52.38-13.25C52.86-12.51 53.18-11.36 53.34-9.82L47.52-9.82C47.81-11.84 48.64-14.50 50.46-14.50ZM70.11-14.40C68.19-15.74 65.34-14.18 64.03-11.33L64.03-14.72L58.34-14.72L58.34-14.43L59.30-14.24C60.10-14.08 60.64-13.41 60.64-12.58L60.64-2.14C60.64-1.31 60.10-0.64 59.30-0.48L58.34-0.29L58.34 0L66.34 0L66.34-0.29L65.38-0.48C64.58-0.64 64.03-1.31 64.03-2.14L64.03-10.08C64.99-12.22 66.05-12.96 67.39-12.16C68.19-11.68 68.58-10.75 68.26-9.98C68.90-9.54 70.34-9.86 70.94-10.75C72.03-12.38 71.07-13.73 70.11-14.40ZM85.38-15.84C84.16-15.84 82.78-15.49 81.95-14.59C81.70-14.69 81.41-14.78 80.99-14.88C80.38-15.04 79.52-15.20 78.59-15.20C76.54-15.20 74.75-14.59 73.54-13.63C72.22-12.54 71.52-11.23 71.52-9.76C71.52-9.02 71.65-8.45 71.94-7.81C72.51-6.72 73.25-5.98 74.30-5.44C72.80-4.64 71.33-3.62 71.33-2.24C71.33-0.83 72.70 0.32 75.71 0.32L81.22 0.32C83.55 0.32 84.70 1.31 84.70 3.36C84.70 4.48 84.13 5.60 83.17 6.30C81.98 7.17 80.70 7.36 79.17 7.36C77.06 7.36 74.08 6.72 74.08 4.32C74.08 3.36 74.88 2.85 75.68 2.69C75.68 1.89 75.36 0.74 73.31 0.74C71.36 0.74 70.69 2.53 70.69 3.68C70.69 7.30 76.10 8.16 79.17 8.16C81.31 8.16 83.04 7.52 84.38 6.46C85.79 5.34 86.56 4 86.56 2.40C86.56-0.29 84.38-2.11 81.22-2.11L75.71-2.11C74.50-2.11 73.18-2.21 73.18-3.20C73.18-3.90 74.08-4.58 74.94-5.09C75.94-4.58 77.34-4.32 78.59-4.32C80.64-4.32 82.43-4.93 83.65-5.89C84.96-6.98 85.66-8.29 85.66-9.76C85.66-11.74 84.67-13.25 82.69-14.24L82.75-14.24C83.23-14.82 84.03-15.17 84.70-15.17C85.82-15.17 86.85-14.69 86.85-13.63C86.85-13.12 86.50-12.51 85.89-12.38C85.89-11.78 86.62-11.17 87.42-11.17C88.58-11.17 89.09-12.26 89.09-13.12C89.09-14.85 87.39-15.84 85.38-15.84ZM79.04-4.83C78.11-4.74 77.38-5.06 76.70-5.76C75.97-6.50 75.46-7.84 75.30-9.47C75.17-11.10 75.42-12.51 76.03-13.34C76.58-14.18 77.28-14.62 78.14-14.69C79.04-14.78 79.81-14.46 80.51-13.76C81.22-13.02 81.73-11.68 81.89-10.05C82.02-8.42 81.76-7.01 81.15-6.18C80.61-5.34 79.94-4.90 79.04-4.83ZM87.84-0.29L87.84 0L95.84 0L95.84-0.29L94.88-0.48C94.08-0.64 93.54-1.31 93.54-2.14L93.54-22.40L87.84-22.40L87.84-22.11L88.80-21.92C89.60-21.76 90.14-21.09 90.14-20.26L90.14-2.14C90.14-1.31 89.60-0.64 88.80-0.48ZM104.42-15.17C102.40-15.36 100.51-14.75 99.10-13.57C97.47-12.26 96.51-10.37 96.32-8C96.10-5.66 96.70-3.65 98.08-2.08C99.30-0.67 101.06 0.29 103.07 0.45C105.02 0.61 106.98 0 108.45-1.15C110.05-2.53 110.98-4.35 111.17-6.72C111.36-9.06 110.82-11.07 109.47-12.67C108.22-14.08 106.40-15.01 104.42-15.17ZM103.10-14.69C103.94-14.75 104.77-14.43 105.66-13.34C106.56-12.16 107.20-10.18 107.42-7.68C107.62-5.18 107.36-3.10 106.66-1.82C105.98-0.58 105.22-0.10 104.38-0.03C103.55 0.03 102.72-0.29 101.86-1.41C100.93-2.53 100.29-4.51 100.06-7.04C99.87-9.57 100.13-11.62 100.86-12.93C101.50-14.14 102.27-14.62 103.10-14.69ZM123.36-10.50L128.16 0.48L129.06 0.48L133.54-11.74C133.98-12.96 134.94-13.86 136.16-14.24L136.74-14.43L136.74-14.72L130.66-14.72L130.66-14.43L131.36-14.21C132.38-13.89 132.86-12.86 132.51-11.84L129.79-4.29L125.02-15.20L124.13-15.20L120.03-4.29L116.99-11.87C116.54-12.99 117.09-14.14 118.30-14.43L118.30-14.72L110.30-14.72L110.30-14.43L110.40-14.40C111.81-14.11 112.90-13.18 113.44-11.87L118.37 0.48L119.26 0.48ZM136-9.92L136-8.64L146.24-8.64L146.24-9.92ZM147.97-22.40L147.97-22.11L149.09-21.89C149.92-21.73 150.46-21.06 150.46-20.22L150.46-2.18C150.46-1.34 149.92-0.67 149.09-0.51L147.97-0.29L147.97 0L156.80 0L156.80-0.29L155.68-0.51C154.85-0.67 154.30-1.34 154.30-2.18L154.30-11.20L155.81-11.20C159.07-11.20 160.77-10.43 161.28-7.20L161.89-3.14C162.24-0.80 163.62 0.48 165.60 0.48C166.88 0.48 168.29-0.03 168.83-0.96L168.16-1.28C167.94-0.99 167.52-0.48 167.04-0.48C166.56-0.48 166.27-0.86 166.18-1.60L165.34-7.20C164.80-10.82 161.47-11.20 158.11-11.52C159.65-11.62 161.02-11.87 162.21-12.29C163.23-12.67 164.38-13.15 165.09-13.89C165.95-14.78 166.37-15.68 166.37-16.80C166.37-18.37 165.47-19.71 163.78-20.74C162.08-21.73 159.39-22.40 155.81-22.40ZM162.11-16.80C162.11-13.57 159.87-11.84 155.81-11.84L154.30-11.84L154.30-21.76L155.81-21.76C159.87-21.76 162.11-20.03 162.11-16.80ZM180.19-6.34C179.10-6.34 178.14-5.50 178.14-4.70C178.94-4.54 179.42-3.71 179.42-3.07C179.42-1.63 178.05-0.32 176.58-0.35C173.50-0.42 172.16-4.83 172.61-8.96L182.78-8.96C182.53-10.66 181.89-12.10 180.80-13.22C179.58-14.46 177.76-15.20 175.84-15.20C173.92-15.20 172.10-14.46 170.91-13.22C169.50-11.74 168.77-9.79 168.77-7.36C168.77-4.99 169.54-3.07 171.07-1.60C172.42-0.22 174.46 0.51 176.58 0.45C179.81 0.51 182.82-1.38 182.82-3.71C182.82-4.86 182.14-6.34 180.19-6.34ZM175.68-14.50C176.45-14.50 177.06-14.08 177.60-13.25C178.08-12.51 178.40-11.36 178.56-9.82L172.74-9.82C173.02-11.84 173.86-14.50 175.68-14.50ZM197.60-15.84C196.38-15.84 195.01-15.49 194.18-14.59C193.92-14.69 193.63-14.78 193.22-14.88C192.61-15.04 191.74-15.20 190.82-15.20C188.77-15.20 186.98-14.59 185.76-13.63C184.45-12.54 183.74-11.23 183.74-9.76C183.74-9.02 183.87-8.45 184.16-7.81C184.74-6.72 185.47-5.98 186.53-5.44C185.02-4.64 183.55-3.62 183.55-2.24C183.55-0.83 184.93 0.32 187.94 0.32L193.44 0.32C195.78 0.32 196.93 1.31 196.93 3.36C196.93 4.48 196.35 5.60 195.39 6.30C194.21 7.17 192.93 7.36 191.39 7.36C189.28 7.36 186.30 6.72 186.30 4.32C186.30 3.36 187.10 2.85 187.90 2.69C187.90 1.89 187.58 0.74 185.54 0.74C183.58 0.74 182.91 2.53 182.91 3.68C182.91 7.30 188.32 8.16 191.39 8.16C193.54 8.16 195.26 7.52 196.61 6.46C198.02 5.34 198.78 4 198.78 2.40C198.78-0.29 196.61-2.11 193.44-2.11L187.94-2.11C186.72-2.11 185.41-2.21 185.41-3.20C185.41-3.90 186.30-4.58 187.17-5.09C188.16-4.58 189.57-4.32 190.82-4.32C192.86-4.32 194.66-4.93 195.87-5.89C197.18-6.98 197.89-8.29 197.89-9.76C197.89-11.74 196.90-13.25 194.91-14.24L194.98-14.24C195.46-14.82 196.26-15.17 196.93-15.17C198.05-15.17 199.07-14.69 199.07-13.63C199.07-13.12 198.72-12.51 198.11-12.38C198.11-11.78 198.85-11.17 199.65-11.17C200.80-11.17 201.31-12.26 201.31-13.12C201.31-14.85 199.62-15.84 197.60-15.84ZM191.26-4.83C190.34-4.74 189.60-5.06 188.93-5.76C188.19-6.50 187.68-7.84 187.52-9.47C187.39-11.10 187.65-12.51 188.26-13.34C188.80-14.18 189.50-14.62 190.37-14.69C191.26-14.78 192.03-14.46 192.74-13.76C193.44-13.02 193.95-11.68 194.11-10.05C194.24-8.42 193.98-7.01 193.38-6.18C192.83-5.34 192.16-4.90 191.26-4.83ZM216.32-14.24L217.28-14.43L217.28-14.72L209.47-14.72L209.47-14.43L210.27-14.24C211.04-14.05 211.58-13.41 211.58-12.61L211.58-4C211.58-2.14 209.47-0.48 207.90-0.48C206.21-0.48 205.18-1.98 205.18-4.64L205.18-12.61C205.18-13.41 205.73-14.05 206.50-14.24L207.30-14.43L207.30-14.72L199.49-14.72L199.49-14.43L200.45-14.24C201.25-14.08 201.79-13.41 201.79-12.58L201.79-4.32C201.79-1.41 204.32 0.48 207.33 0.48C209.02 0.48 210.59-0.29 211.58-1.50L211.58 0L217.28 0L217.28-0.29L216.32-0.48C215.52-0.64 214.98-1.31 214.98-2.14L214.98-12.58C214.98-13.41 215.52-14.08 216.32-14.24ZM217.54-0.29L217.54 0L225.54 0L225.54-0.29L224.58-0.48C223.78-0.64 223.23-1.31 223.23-2.14L223.23-22.40L217.54-22.40L217.54-22.11L218.50-21.92C219.30-21.76 219.84-21.09 219.84-20.26L219.84-2.14C219.84-1.31 219.30-0.64 218.50-0.48ZM240.51-0.48C239.71-0.64 239.17-1.31 239.17-2.14L239.17-10.40C239.17-13.31 236.80-15.20 233.06-15.20C230.24-15.20 227.14-13.92 227.14-11.68C227.14-10.53 227.81-9.06 229.76-9.06C230.85-9.06 231.81-9.89 231.81-10.69C231.01-10.85 230.53-11.68 230.53-12.32C230.53-13.76 231.58-14.40 233.06-14.40C235.26-14.40 235.78-13.09 235.78-10.40L235.78-8.48C232.86-8.48 230.08-7.94 228.29-6.91C226.69-5.98 225.79-4.77 225.79-3.52C225.79-0.99 227.94 0.48 231.52 0.48C232.32 0.48 233.02 0.35 233.57 0.10C234.50-0.32 235.23-0.83 235.78-1.50L235.78 0L241.47 0L241.47-0.29ZM235.78-3.14C235.58-2.66 235.30-2.21 234.91-1.82C234.21-1.12 233.47-0.51 232.45-0.51C231.17-0.51 230.14-1.70 230.14-3.26C230.14-6.02 232.10-7.49 235.78-7.49ZM253.31-14.40C251.39-15.74 248.54-14.18 247.23-11.33L247.23-14.72L241.54-14.72L241.54-14.43L242.50-14.24C243.30-14.08 243.84-13.41 243.84-12.58L243.84-2.14C243.84-1.31 243.30-0.64 242.50-0.48L241.54-0.29L241.54 0L249.54 0L249.54-0.29L248.58-0.48C247.78-0.64 247.23-1.31 247.23-2.14L247.23-10.08C248.19-12.22 249.25-12.96 250.59-12.16C251.39-11.68 251.78-10.75 251.46-9.98C252.10-9.54 253.54-9.86 254.14-10.75C255.23-12.38 254.27-13.73 253.31-14.40Z"/></svg>