<svg id="mainsvg" xmlns="http://www.w3.org/2000/svg" xmlns:xlink="http://www.w3.org/1999/xlink" version="1.1" x="0px" y="0px" enable-background="new 0 0 200 162.5" xml:space="preserve" viewBox="0 0 96 24"><path fill="#000" transform="translate(-2.432, 23.072)" d="M19.52-22.72Q20.42-22.72 20.94-22.16Q21.47-21.60 21.47-20.67L21.47-20.67L21.47-1.89Q21.47-0.96 20.93-0.38Q20.38 0.19 19.52 0.19L19.52 0.19Q18.50 0.19 17.95-0.54L17.95-0.54L6.27-15.74L6.27-1.89Q6.27-0.96 5.76-0.38Q5.25 0.19 4.35 0.19L4.35 0.19Q3.46 0.19 2.94-0.38Q2.43-0.96 2.43-1.89L2.43-1.89L2.43-20.67Q2.43-21.60 2.98-22.16Q3.52-22.72 4.42-22.72L4.42-22.72Q5.41-22.72 5.95-21.98L5.95-21.98L17.60-6.85L17.60-20.67Q17.60-21.60 18.13-22.16Q18.66-22.72 19.52-22.72L19.52-22.72ZM38.34-15.97Q39.26-15.97 39.81-15.46Q40.35-14.94 40.35-14.08L40.35-14.08L40.35-1.66Q40.35-0.83 39.79-0.32Q39.23 0.19 38.34 0.19L38.34 0.19Q37.47 0.19 36.96-0.29Q36.45-0.77 36.45-1.60L36.45-1.60L36.45-2.40Q35.71-1.12 34.46-0.43Q33.22 0.26 31.65 0.26L31.65 0.26Q25.89 0.26 25.89-6.21L25.89-6.21L25.89-14.08Q25.89-14.94 26.43-15.46Q26.98-15.97 27.87-15.97L27.87-15.97Q28.80-15.97 29.34-15.46Q29.89-14.94 29.89-14.08L29.89-14.08L29.89-6.18Q29.89-4.51 30.56-3.71Q31.23-2.91 32.67-2.91L32.67-2.91Q34.34-2.91 35.34-4.02Q36.35-5.12 36.35-6.94L36.35-6.94L36.35-14.08Q36.35-14.94 36.90-15.46Q37.44-15.97 38.34-15.97L38.34-15.97ZM53.60-16.03Q56.42-16.03 57.79-14.43Q59.17-12.83 59.17-9.60L59.17-9.60L59.17-1.73Q59.17-0.83 58.64-0.32Q58.11 0.19 57.18 0.19L57.18 0.19Q56.26 0.19 55.71-0.32Q55.17-0.83 55.17-1.73L55.17-1.73L55.17-9.38Q55.17-11.20 54.48-12.03Q53.79-12.86 52.32-12.86L52.32-12.86Q50.59-12.86 49.55-11.78Q48.51-10.69 48.51-8.86L48.51-8.86L48.51-1.73Q48.51-0.83 47.97-0.32Q47.42 0.19 46.50 0.19L46.50 0.19Q45.57 0.19 45.04-0.32Q44.51-0.83 44.51-1.73L44.51-1.73L44.51-14.11Q44.51-14.94 45.06-15.46Q45.60-15.97 46.53-15.97L46.53-15.97Q47.36-15.97 47.89-15.47Q48.42-14.98 48.42-14.18L48.42-14.18L48.42-13.31Q49.22-14.62 50.56-15.33Q51.90-16.03 53.60-16.03L53.60-16.03ZM65.22 0.19Q64.35 0.19 63.79-0.30Q63.23-0.80 63.23-1.73L63.23-1.73L63.23-14.08Q63.23-15.01 63.79-15.49Q64.35-15.97 65.22-15.97L65.22-15.97Q66.08-15.97 66.66-15.49Q67.23-15.01 67.23-14.08L67.23-14.08L67.23-1.73Q67.23-0.80 66.66-0.30Q66.08 0.19 65.22 0.19L65.22 0.19ZM65.22-18.82Q64.13-18.82 63.49-19.41Q62.85-20 62.85-20.96L62.85-20.96Q62.85-21.92 63.49-22.50Q64.13-23.07 65.22-23.07L65.22-23.07Q66.27-23.07 66.93-22.50Q67.58-21.92 67.58-20.96L67.58-20.96Q67.58-20 66.94-19.41Q66.30-18.82 65.22-18.82L65.22-18.82ZM79.49-2.78Q81.09-2.69 81.09-1.34L81.09-1.34Q81.09-0.58 80.46-0.18Q79.84 0.22 78.69 0.16L78.69 0.16L77.82 0.10Q72.45-0.29 72.45-5.66L72.45-5.66L72.45-12.64L70.85-12.64Q69.98-12.64 69.52-13.02Q69.06-13.41 69.06-14.14L69.06-14.14Q69.06-14.88 69.52-15.26Q69.98-15.65 70.85-15.65L70.85-15.65L72.45-15.65L72.45-18.59Q72.45-19.46 72.99-19.97Q73.54-20.48 74.46-20.48L74.46-20.48Q75.36-20.48 75.90-19.97Q76.45-19.46 76.45-18.59L76.45-18.59L76.45-15.65L79.17-15.65Q80.03-15.65 80.50-15.26Q80.96-14.88 80.96-14.14L80.96-14.14Q80.96-13.41 80.50-13.02Q80.03-12.64 79.17-12.64L79.17-12.64L76.45-12.64L76.45-5.38Q76.45-3.01 78.62-2.85L78.62-2.85L79.49-2.78ZM90.30 0.26Q87.90 0.26 86.10-0.74Q84.29-1.73 83.30-3.58Q82.30-5.44 82.30-7.90L82.30-7.90Q82.30-10.37 83.30-12.21Q84.29-14.05 86.10-15.04Q87.90-16.03 90.30-16.03L90.30-16.03Q92.70-16.03 94.51-15.04Q96.32-14.05 97.30-12.21Q98.27-10.37 98.27-7.90L98.27-7.90Q98.27-5.44 97.30-3.58Q96.32-1.73 94.51-0.74Q92.70 0.26 90.30 0.26L90.30 0.26ZM90.27-2.85Q92.22-2.85 93.25-4.13Q94.27-5.41 94.27-7.90L94.27-7.90Q94.27-10.37 93.25-11.66Q92.22-12.96 90.30-12.96L90.30-12.96Q88.38-12.96 87.34-11.66Q86.30-10.37 86.30-7.90L86.30-7.90Q86.30-5.41 87.33-4.13Q88.35-2.85 90.27-2.85L90.27-2.85Z"/></svg>