<svg id="mainsvg" xmlns="http://www.w3.org/2000/svg" xmlns:xlink="http://www.w3.org/1999/xlink" version="1.1" x="0px" y="0px" enable-background="new 0 0 200 162.5" xml:space="preserve" viewBox="0 0 96 23"><path fill="#000" transform="translate(-0.704, 22.496000000000002)" d="M0.70 0L2.85 0C4.22 0 4.70-0.58 4.80-1.95L5.86-15.62C5.95-16.83 5.95-18.82 5.95-18.82L6.02-18.82C6.02-18.82 6.69-16.74 7.20-15.62L12.51-4.19L14.53-4.19L19.87-15.62C20.42-16.77 21.02-18.75 21.02-18.75L21.09-18.75C21.09-18.75 21.09-16.83 21.18-15.62L22.24-1.95C22.34-0.58 22.82 0 24.19 0L26.37 0L26.37-1.98L25.15-1.98C24.70-1.98 24.48-2.21 24.45-2.69L22.88-22.50L20.61-22.50L14.66-9.41C14.14-8.26 13.57-6.75 13.57-6.75L13.50-6.75C13.50-6.75 12.93-8.26 12.38-9.41L6.43-22.50L4.16-22.50L2.59-2.69C2.56-2.21 2.34-1.98 1.89-1.98L0.70-1.98ZM29.76-5.86C29.76-1.66 31.36 0.38 35.17 0.38C38.69 0.38 40.80-2.11 41.44-3.68L41.50-3.68C41.50-3.68 41.44-3.17 41.44-2.53L41.44-1.79C41.44-0.58 42.05 0 43.39 0L45.60 0L45.60-1.89L44.26-1.89C43.81-1.89 43.55-2.11 43.55-2.59L43.55-16.10L41.38-16.10L41.38-8.38C41.38-4.90 39.10-1.66 35.46-1.66C32.35-1.66 31.94-3.90 31.94-6.43L31.94-14.21C31.94-15.52 31.36-16.10 29.98-16.10L27.71-16.10L27.71-14.21L29.06-14.21C29.50-14.21 29.76-13.95 29.76-13.50ZM47.26-2.43C47.26-2.43 49.25 0.38 53.44 0.38C56.64 0.38 59.07-1.44 59.07-4.13C59.07-9.47 50.05-8.64 50.05-12.26C50.05-13.82 51.39-14.59 53.63-14.59C54.69-14.59 56.42-14.14 56.42-12.96L56.42-12.19L58.46-12.19L58.46-13.57C58.46-15.84 55.20-16.48 53.57-16.48C50.34-16.48 47.84-15.04 47.84-12.13C47.84-6.94 56.86-7.58 56.86-4.06C56.86-2.37 55.26-1.50 53.47-1.50C50.30-1.50 48.51-3.94 48.51-3.94ZM61.70-8.03C61.70-3.07 65.34 0.38 70.11 0.38C73.76 0.38 76.10-1.92 76.10-1.92L75.04-3.55C75.04-3.55 73.15-1.57 70.21-1.57C66.88-1.57 64.03-3.90 63.97-7.97L76.32-7.97C76.32-7.97 76.38-8.67 76.38-9.06C76.38-13.06 74.08-16.48 69.63-16.48C65.31-16.48 61.70-13.31 61.70-8.03ZM64.06-9.70C64.61-12.93 66.94-14.66 69.60-14.66C71.97-14.66 74.02-13.02 74.14-9.70ZM79.23-8.13C79.23-3.26 83.04 0.38 87.74 0.38C92.42 0.38 96.22-3.26 96.22-8.13C96.22-12.90 92.42-16.48 87.71-16.48C83.04-16.48 79.23-12.90 79.23-8.13ZM81.47-8.13C81.47-11.78 84.29-14.50 87.74-14.50C91.17-14.50 93.98-11.78 93.98-8.13C93.98-4.38 91.17-1.57 87.74-1.57C84.29-1.57 81.47-4.38 81.47-8.13Z"/></svg>