<svg id="mainsvg" xmlns="http://www.w3.org/2000/svg" xmlns:xlink="http://www.w3.org/1999/xlink" version="1.1" x="0px" y="0px" enable-background="new 0 0 200 162.5" xml:space="preserve" viewBox="0 0 148 26"><path fill="#000" transform="translate(-1.6, 25.6)" d="M6.40-25.60C3.26-25.60 1.60-23.90 1.60-20.80L1.60-4.80C1.60-1.66 3.30 0 6.40 0L8.42 0C11.55 0 13.22-1.70 13.22-4.80L13.22-20.80C13.22-23.94 11.52-25.60 8.42-25.60ZM8.42-22.40C9.47-22.40 10.02-21.82 10.02-20.80L10.02-4.80C10.02-3.74 9.44-3.20 8.42-3.20L6.40-3.20C5.34-3.20 4.80-3.78 4.80-4.80L4.80-20.80C4.80-21.86 5.38-22.40 6.40-22.40L8.42-22.40ZM20.51-17.60C17.66-17.60 15.62-15.55 15.62-12.70L15.62-4.90C15.62-2.05 17.66 0 20.51 0L22.08 0C24.93 0 26.98-2.05 26.98-4.90L26.98-5.22L23.78-5.22L23.78-4.83C23.78-3.87 23.10-3.20 22.14-3.20L20.45-3.20C19.49-3.20 18.82-3.87 18.82-4.83L18.82-12.77C18.82-13.73 19.49-14.40 20.45-14.40L22.14-14.40C23.10-14.40 23.78-13.73 23.78-12.77L23.78-12.42L26.98-12.42L26.98-12.70C26.98-15.55 24.93-17.60 22.08-17.60ZM30.82-22.37L30.82-17.54L28.10-17.54L28.10-14.34L30.82-14.34L30.82-4.90C30.82-2.05 32.67 0 35.23 0L36.58 0L36.58-3.20L35.23-3.20C34.53-3.20 34.02-3.87 34.02-4.83L34.02-14.34L36.74-14.34L36.74-17.54L34.02-17.54L34.02-22.37ZM39.20-17.57L39.20-14.37L39.20-13.09L42.40-13.09L42.40-14.37L44.58-14.37C45.63-14.37 46.18-13.82 46.18-12.77L46.18-11.14L42.98-11.14C39.87-11.14 38.18-9.44 38.18-6.34L38.18-4.80C38.18-1.70 39.87 0 42.98 0L50.66 0L50.66-3.20L49.38-3.20L49.38-12.77C49.38-15.90 47.68-17.57 44.58-17.57ZM46.18-3.20L42.98-3.20C41.95-3.20 41.38-3.78 41.38-4.80L41.38-6.34C41.38-7.39 41.95-7.94 42.98-7.94L46.18-7.94ZM52.10-14.40L53.38-14.40L53.38-3.23L52.10-3.23L52.10-0.03L57.86-0.03L57.86-3.23L56.58-3.23L56.58-14.40L56.61-14.40L59.90-14.40C60.86-14.40 61.54-13.73 61.54-12.77L61.54-3.23L60.26-3.23L60.26-0.03L66.02-0.03L66.02-3.23L64.74-3.23L64.74-12.70C64.74-15.55 62.69-17.60 59.84-17.60L56.67-17.60L56.58-17.60L52.10-17.60ZM67.62-17.60L67.62-14.40L68.90-14.40L68.90-3.20L67.62-3.20L67.62 0L73.38 0L73.38-3.20L72.10-3.20L72.10-17.60ZM70.02-24.45C68.90-24.45 67.97-23.52 67.97-22.40C67.97-21.28 68.90-20.42 70.02-20.42C71.14-20.42 72.06-21.28 72.06-22.40C72.06-23.52 71.14-24.45 70.02-24.45ZM80.10-17.70C76.96-17.70 75.30-16 75.30-12.90L75.30-12.26C75.30-9.12 76.96-7.46 80.10-7.46L80.77-7.46C81.82-7.46 82.37-6.91 82.37-5.86L82.37-4.80C82.37-3.74 81.79-3.20 80.77-3.20L79.78-3.20C78.72-3.20 78.18-3.78 78.18-4.80L74.98-4.80C74.98-1.66 76.67 0 79.78 0L80.77 0C83.90 0 85.57-1.66 85.57-4.80L85.57-5.86C85.57-8.96 83.90-10.66 80.77-10.66L80.10-10.66C79.04-10.66 78.50-11.20 78.50-12.26L78.50-12.90C78.50-13.95 79.07-14.50 80.10-14.50L80.45-14.50C81.18-14.50 81.73-14.08 81.73-13.31L84.93-13.31C84.93-16.16 83.55-17.70 80.45-17.70ZM88.51-12.96L88.51-9.92L97.86-9.92L97.86-12.96ZM105.76-25.60C102.62-25.60 100.96-23.90 100.96-20.80L100.96-17.22C100.96-14.08 102.62-12.42 105.76-12.42L107.78-12.42C108.83-12.42 109.38-11.87 109.38-10.82L109.38-4.80C109.38-3.74 108.80-3.20 107.78-3.20L105.76-3.20C104.70-3.20 104.16-3.78 104.16-4.80L104.16-7.20L100.96-7.20L100.96-4.80C100.96-1.66 102.66 0 105.76 0L107.78 0C110.91 0 112.58-1.66 112.58-4.80L112.58-10.82C112.58-13.92 110.91-15.62 107.78-15.62L105.76-15.62C104.70-15.62 104.16-16.16 104.16-17.22L104.16-20.80C104.16-21.86 104.74-22.40 105.76-22.40L107.78-22.40C108.83-22.40 109.38-21.98 109.38-21.22L109.38-19.14L112.58-19.14L112.58-21.22C112.58-24.06 110.88-25.60 107.78-25.60ZM114.34-25.57L114.34-22.37L115.62-22.37L115.62-4.90C115.62-2.05 117.47 0 120.03 0L121.38 0L121.38-3.20L120.03-3.20C119.33-3.20 118.82-3.87 118.82-4.83L118.82-25.57ZM123.84-17.57L123.84-14.37L123.84-13.09L127.04-13.09L127.04-14.37L129.22-14.37C130.27-14.37 130.82-13.82 130.82-12.77L130.82-11.14L127.62-11.14C124.51-11.14 122.82-9.44 122.82-6.34L122.82-4.80C122.82-1.70 124.51 0 127.62 0L135.30 0L135.30-3.20L134.02-3.20L134.02-12.77C134.02-15.90 132.32-17.57 129.22-17.57ZM130.82-3.20L127.62-3.20C126.59-3.20 126.02-3.78 126.02-4.80L126.02-6.34C126.02-7.39 126.59-7.94 127.62-7.94L130.82-7.94ZM136.58-25.57L136.58-22.37L137.86-22.37L137.86 0L144.32 0C147.17 0 149.22-2.05 149.22-4.90L149.22-12.70C149.22-15.55 147.17-17.60 144.32-17.60L142.75-17.60C142.14-17.60 141.57-17.50 141.06-17.34L141.06-25.57ZM144.38-14.40C145.34-14.40 146.02-13.73 146.02-12.77L146.02-4.83C146.02-3.87 145.34-3.20 144.38-3.20L141.06-3.20L141.06-12.77C141.06-13.73 141.73-14.40 142.69-14.40L144.38-14.40Z"/></svg>