<svg id="mainsvg" xmlns="http://www.w3.org/2000/svg" xmlns:xlink="http://www.w3.org/1999/xlink" version="1.1" x="0px" y="0px" enable-background="new 0 0 200 162.5" xml:space="preserve" viewBox="0 0 142 22"><path fill="#000" transform="translate(-1.53125, 21.1875)" d="M1.53-0.80L4.77-0.80L4.77-20.16L1.53-20.16L1.53-20.95L12.36-20.95Q14.14-20.95 15.36-20.77Q16.58-20.59 17.70-19.84Q18.83-19.09 19.32-17.99Q19.81-16.89 19.81-15.91L19.81-15.91Q19.81-12.17 14.08-11.02L14.08-11.02L14.08-10.94Q20.55-9.89 20.55-5.56L20.55-5.56Q20.55-4.50 19.97-3.32Q19.39-2.14 18.13-1.28Q16.86-0.42 15.54-0.21Q14.22 0 12.22 0L12.22 0L1.53 0L1.53-0.80ZM11.69-20.16L11.69-20.16L8.48-20.16L8.48-11.36L11.36-11.36Q14.28-11.36 15.09-12.50Q15.91-13.64 15.91-16.09L15.91-16.09Q15.91-18.02 15.38-18.89Q14.84-19.77 14.02-19.96Q13.20-20.16 11.69-20.16ZM11.33-10.56L11.33-10.56L8.48-10.56L8.48-0.80L11.42-0.80Q13.06-0.80 14.04-1.05Q15.02-1.30 15.70-2.38Q16.39-3.47 16.39-5.80L16.39-5.80Q16.39-8.28 15.35-9.42Q14.31-10.56 11.33-10.56ZM23.75-6.17L23.75-6.17Q23.75-8.88 25.61-10.77Q27.47-12.67 30.22-12.67L30.22-12.67Q32.91-12.67 34.77-10.85Q36.64-9.03 36.64-6.30L36.64-6.30Q36.64-3.50 34.70-1.55Q32.77 0.39 30.13 0.39L30.13 0.39Q27.53 0.39 25.64-1.51Q23.75-3.41 23.75-6.17ZM33.13-6.17L33.13-6.17Q33.13-9.05 32.93-9.97Q32.73-10.89 32.05-11.43Q31.38-11.97 30.19-11.97L30.19-11.97Q29.06-11.97 28.34-11.41Q27.61-10.86 27.44-9.94Q27.27-9.02 27.27-6.14L27.27-6.14Q27.27-3.25 27.48-2.31Q27.69-1.38 28.40-0.84Q29.11-0.31 30.19-0.31L30.19-0.31Q31.28-0.31 32.01-0.85Q32.73-1.39 32.93-2.35Q33.13-3.31 33.13-6.17ZM52.14-21.19L52.14-21.19L52.14-0.80L54.25-0.80L54.25 0L52.50 0Q50.84 0 49 0.19L49 0.19L49-2.38L48.94-2.38Q47.69 0.39 44.94 0.39L44.94 0.39Q42.73 0.39 41.05-1.57Q39.38-3.53 39.38-6.02L39.38-6.02Q39.38-8.67 41.15-10.67Q42.92-12.67 45.33-12.67L45.33-12.67Q47.78-12.67 48.94-10.47L48.94-10.47L49-10.47L49-20.16L46.16-20.16L46.16-20.95L49-20.95Q50.58-20.95 52.14-21.19ZM45.42-11.97L45.42-11.97Q43.72-11.97 43.29-10.70Q42.86-9.42 42.86-5.53L42.86-5.53Q42.86-2.17 43.41-1.30Q43.95-0.42 45.17-0.42L45.17-0.42Q46.48-0.42 47.48-1.31Q48.48-2.20 48.80-3.34Q49.11-4.48 49.11-7.05L49.11-7.05Q49.11-9.48 48.13-10.73Q47.14-11.97 45.42-11.97ZM56.42-6.17L56.42-6.17Q56.42-8.88 58.28-10.77Q60.14-12.67 62.89-12.67L62.89-12.67Q65.58-12.67 67.45-10.85Q69.31-9.03 69.31-6.30L69.31-6.30Q69.31-3.50 67.38-1.55Q65.44 0.39 62.80 0.39L62.80 0.39Q60.20 0.39 58.31-1.51Q56.42-3.41 56.42-6.17ZM65.80-6.17L65.80-6.17Q65.80-9.05 65.60-9.97Q65.41-10.89 64.73-11.43Q64.05-11.97 62.86-11.97L62.86-11.97Q61.73-11.97 61.01-11.41Q60.28-10.86 60.11-9.94Q59.94-9.02 59.94-6.14L59.94-6.14Q59.94-3.25 60.15-2.31Q60.36-1.38 61.07-0.84Q61.78-0.31 62.86-0.31L62.86-0.31Q63.95-0.31 64.68-0.85Q65.41-1.39 65.60-2.35Q65.80-3.31 65.80-6.17ZM71.66-0.80L73.88-0.80L73.88-11.48L71.66-11.48L71.66-12.28L73.08-12.28Q75.19-12.28 76.91-12.52L76.91-12.52L76.91-9.47L76.97-9.47Q78.58-12.67 81.52-12.67L81.52-12.67Q82.89-12.67 83.77-11.97Q84.66-11.27 84.98-10.31Q85.30-9.36 85.30-7.36L85.30-7.36L85.30-0.80L87.73-0.80L87.73 0L80.17 0L80.17-0.80L82.25-0.80L82.25-8.61Q82.25-10.41 82.02-11.09Q81.80-11.78 80.84-11.78L80.84-11.78Q79.33-11.78 78.12-10.23Q76.91-8.67 76.91-6.05L76.91-6.05L76.91-0.80L78.95-0.80L78.95 0L71.66 0L71.66-0.80ZM90.98-18.53L90.98-18.53Q90.98-19.22 91.49-19.72Q92-20.22 92.69-20.22L92.69-20.22Q93.38-20.22 93.88-19.73Q94.39-19.23 94.39-18.53L94.39-18.53Q94.39-17.80 93.89-17.31Q93.39-16.83 92.69-16.83L92.69-16.83Q91.98-16.83 91.48-17.32Q90.98-17.81 90.98-18.53ZM94.13-12.52L94.13-12.52L94.13-0.80L96.17-0.80L96.17 0L88.91 0L88.91-0.80L91.09-0.80L91.09-11.48L88.91-11.48L88.91-12.28L91.13-12.28Q92.72-12.28 94.13-12.52ZM98.13-20.16L98.13-20.95L105.64-20.95L110.13-6.14L110.19-6.14L114.70-20.95L122.03-20.95L122.03-20.16L118.92-20.16L118.92-0.80L122.03-0.80L122.03 0L112.17 0L112.17-0.80L115.38-0.80L115.38-20.52L115.31-20.52L109.08 0L108.36 0L102.13-20.52L102.06-20.52L102.06-0.80L105.27-0.80L105.27 0L98.13 0L98.13-0.80L101.27-0.80L101.27-20.16L98.13-20.16ZM124.55-13.83L125.09-20.95L142.95-20.95L143.50-13.83L142.70-13.83Q141.97-17.41 140.76-18.78Q139.55-20.16 137.58-20.16L137.58-20.16L135.88-20.16L135.88-0.80L139.63-0.80L139.63 0L128.42 0L128.42-0.80L132.17-0.80L132.17-20.16L130.47-20.16Q128.50-20.16 127.29-18.78Q126.08-17.41 125.34-13.83L125.34-13.83L124.55-13.83Z"/></svg>