<svg id="mainsvg" xmlns="http://www.w3.org/2000/svg" xmlns:xlink="http://www.w3.org/1999/xlink" version="1.1" x="0px" y="0px" enable-background="new 0 0 200 162.5" xml:space="preserve" viewBox="0 0 217 24"><path fill="#000" transform="translate(-0.64, 24)" d="M4.96 0L12.64 0L12.64-2.88L10.72-3.20L10.72-18.88L13.76-18.88L14.08-16.64L16.96-16.64L16.96-22.40L0.64-22.40L0.64-16.64L3.52-16.64L3.84-18.88L6.88-18.88L6.88-3.20L4.96-2.88ZM26.40-12.48C27.04-12.48 27.52-12.06 27.52-11.36C27.52-10.82 27.20-10.40 26.56-10.24L22.72-9.28L22.72-11.36C22.72-12 23.20-12.48 23.84-12.48ZM30.72 0L30.72-3.52L24.96-3.52C23.74-3.52 22.85-4.26 22.72-5.60L27.36-6.72C29.38-7.20 31.36-8.64 31.36-11.36C31.36-14.08 29.38-16 26.56-16L23.36-16C20.80-16 18.88-13.95 18.88-11.36L18.88-6.08C18.88-2.75 21.63 0 24.96 0ZM42.24-12.48L42.56-10.56L45.44-10.56L45.44-16L41.28-16C40.16-16 39.04-15.55 38.40-15.04L37.76-16L32.96-16L32.96-13.12L34.88-12.80L34.88-3.20L32.96-2.88L32.96 0L40.64 0L40.64-2.88L38.72-3.20L38.72-9.92C38.72-11.52 39.68-12.48 41.28-12.48ZM48.32-12.80L48.32-4.96C48.32-2.24 50.40 0 53.12 0L55.68 0L55.68-3.52L53.60-3.52C52.80-3.52 52.16-4.16 52.16-4.96L52.16-12.48L55.36-12.80L55.36-16L52.16-16L52.16-22.40L48.67-22.40L48.32-16L46.40-16L46.40-13.12ZM66.24-12.48L66.56-10.56L69.44-10.56L69.44-16L65.28-16C64.16-16 63.04-15.55 62.40-15.04L61.76-16L56.96-16L56.96-13.12L58.88-12.80L58.88-3.20L56.96-2.88L56.96 0L64.64 0L64.64-2.88L62.72-3.20L62.72-9.92C62.72-11.52 63.68-12.48 65.28-12.48ZM78.88-12.48C79.52-12.48 80-12.06 80-11.36C80-10.82 79.68-10.40 79.04-10.24L75.20-9.28L75.20-11.36C75.20-12 75.68-12.48 76.32-12.48ZM83.20 0L83.20-3.52L77.44-3.52C76.22-3.52 75.33-4.26 75.20-5.60L79.84-6.72C81.86-7.20 83.84-8.64 83.84-11.36C83.84-14.08 81.86-16 79.04-16L75.84-16C73.28-16 71.36-13.95 71.36-11.36L71.36-6.08C71.36-2.75 74.11 0 77.44 0ZM85.44-19.52L87.36-19.20L87.36-3.20L85.44-2.88L85.44 0L101.12 0L101.12-5.76L98.24-5.76L97.92-3.52L91.20-3.52L91.20-10.24L96.64-10.24L96.96-8.32L99.84-8.32L99.84-15.04L96.96-15.04L96.64-13.76L91.20-13.76L91.20-18.88L97.92-18.88L98.24-16.96L101.12-16.96L101.12-22.40L85.44-22.40ZM111.68-3.20L110.40-2.88L110.40 0L117.44 0L117.44-2.88L115.84-3.20L112.00-8L115.84-12.80L117.44-13.12L117.44-16L110.40-16L110.40-13.12L111.68-12.80L109.92-10.59L108.16-12.80L109.44-13.12L109.44-16L102.40-16L102.40-13.12L104.00-12.80L107.84-8L104.00-3.20L102.40-2.88L102.40 0L109.44 0L109.44-2.88L108.16-3.20L109.92-5.38ZM120.32-12.80L120.32-4.96C120.32-2.24 122.40 0 125.12 0L127.68 0L127.68-3.52L125.60-3.52C124.80-3.52 124.16-4.16 124.16-4.96L124.16-12.48L127.36-12.80L127.36-16L124.16-16L124.16-22.40L120.67-22.40L120.32-16L118.40-16L118.40-13.12ZM138.24-12.48L138.56-10.56L141.44-10.56L141.44-16L137.28-16C136.16-16 135.04-15.55 134.40-15.04L133.76-16L128.96-16L128.96-13.12L130.88-12.80L130.88-3.20L128.96-2.88L128.96 0L136.64 0L136.64-2.88L134.72-3.20L134.72-9.92C134.72-11.52 135.68-12.48 137.28-12.48ZM144.32-16L144.32-10.56L147.20-10.56L147.52-12.48L150.56-12.48C151.20-12.48 151.68-11.87 151.68-11.20L151.68-10.37L146.72-9.12C144.61-8.58 143.04-6.75 143.04-4.64C143.04-1.82 144.67 0 147.68 0L157.44 0L157.44-2.88L155.52-3.20L155.52-11.36C155.52-13.95 153.60-16 150.88-16ZM146.88-4.80C146.88-5.44 147.30-5.86 147.84-5.98L151.68-6.88L151.68-3.52L148.16-3.52C147.36-3.52 146.88-4.16 146.88-4.80ZM175.36-16.64C175.36-19.84 172.93-22.40 169.60-22.40L158.72-22.40L158.72-19.52L160.64-19.20L160.64-3.20L158.72-2.88L158.72 0L168.96 0C172.58 0 175.68-2.88 175.68-6.56C175.68-8.96 174.40-10.88 172.80-11.94C174.40-12.96 175.36-14.62 175.36-16.64ZM164.48-13.76L164.48-18.88L168.96-18.88C170.37-18.88 171.52-17.76 171.52-16.32C171.52-14.88 170.37-13.76 168.96-13.76ZM171.84-6.24C171.84-4.70 170.43-3.52 168.96-3.52L164.48-3.52L164.48-10.24L168.96-10.24C170.43-10.24 171.84-9.02 171.84-7.52ZM185.60 0C188.48 0 190.72-2.40 190.72-5.28L190.72-11.36C190.72-13.95 188.83-16 186.24-16L182.40-16C179.81-16 177.92-13.95 177.92-11.36L177.92-5.28C177.92-2.40 180.16 0 183.04 0ZM183.36-3.52C182.40-3.52 181.76-4.16 181.76-5.12L181.76-11.36C181.76-12 182.24-12.48 182.88-12.48L185.76-12.48C186.40-12.48 186.88-12 186.88-11.36L186.88-5.12C186.88-4.16 186.24-3.52 185.28-3.52ZM192.64-21.12L194.56-20.80L194.56-3.20L192.64-2.88L192.64 0L200.32 0L200.32-2.88L198.40-3.20L198.40-24L192.64-24ZM216.64 0L216.64-2.88L214.72-3.20L214.72-24L208.96-24L208.96-21.12L210.88-20.80L210.88-16L206.88-16C204.26-16 202.24-13.95 202.24-11.36L202.24-6.08C202.24-2.75 205.12 0 208.45 0ZM208.48-3.52C207.17-3.52 206.08-4.64 206.08-5.92L206.08-11.36C206.08-12.03 206.56-12.48 207.20-12.48L210.88-12.48L210.88-3.52Z"/></svg>