<svg id="mainsvg" xmlns="http://www.w3.org/2000/svg" xmlns:xlink="http://www.w3.org/1999/xlink" version="1.1" x="0px" y="0px" enable-background="new 0 0 200 162.5" xml:space="preserve" viewBox="0 0 177 24"><path fill="#000" transform="translate(-1.6320000000000001, 23.072)" d="M6.43 0C6.82 0 6.91-0.13 6.94-0.48L7.39-6.37C8.03-6.18 8.77-6.08 9.73-6.08C15.90-6.08 18.46-10.75 18.46-15.74C18.46-20.32 16.29-23.04 10.78-23.04C8.90-23.04 5.63-22.72 3.42-22.72C3.20-22.72 2.94-22.56 2.94-22.24C2.91-20.32 2.91-19.65 2.27-12.06C1.92-7.97 1.63-3.94 1.63-2.85C1.63-0.99 2.56 0 4.96 0ZM10.14-18.24C12.32-18.24 13.02-17.25 13.02-15.42C13.02-13.79 12.48-10.56 9.50-10.56C8.99-10.56 8.35-10.62 7.71-10.78C7.90-13.57 8.06-16.29 8.13-18.08C8.90-18.18 9.60-18.24 10.14-18.24ZM27.30 0.32C35.33 0.32 36.86-6.40 36.86-10.43C36.86-15.17 34.72-17.92 29.34-17.92C22.02-17.92 19.74-12.83 19.74-7.68C19.74-3.23 21.44 0.32 27.30 0.32ZM28.80-13.66C30.69-13.66 31.42-12.35 31.42-10.24C31.42-8.26 30.78-3.94 27.78-3.94C26.11-3.94 25.18-5.22 25.18-8.03C25.18-9.86 25.57-13.66 28.80-13.66ZM46.66 0.32C49.50 0.32 52.93-0.67 52.93-3.17C52.93-5.09 50.91-5.44 50.50-5.44C49.60-5.44 49.63-3.68 47.39-3.68C45.22-3.68 44.35-5.31 44.35-6.94C46.43-6.94 54.37-7.26 54.37-13.12C54.37-15.74 52.80-17.92 48.35-17.92C40.10-17.92 38.85-10.40 38.85-7.17C38.85-1.34 42.94 0.32 46.66 0.32ZM47.26-13.66C48.35-13.66 48.90-12.86 48.90-12C48.90-10.43 47.07-9.54 44.45-9.50C44.67-11.33 45.38-13.66 47.26-13.66ZM64.86-13.28C66.78-13.28 67.20-14.14 67.30-15.42L67.42-17.15C67.42-17.47 67.23-17.60 66.91-17.60L63.55-17.60C63.62-18.43 63.65-19.07 63.65-19.49C63.65-21.02 63.07-22.30 61.28-22.30L60.35-22.30C59.78-22.30 58.82-19.14 58.21-17.60C56.22-17.60 55.97-16.45 55.90-15.36L55.81-13.73C55.81-13.44 55.84-13.28 56.16-13.28L57.86-13.28C57.41-7.23 57.12-5.34 57.12-4.03C57.12-1.12 58.56 0.32 61.63 0.32C64.74 0.32 65.89-1.15 65.89-3.49C65.89-4.70 65.57-4.93 65.28-4.93C64.70-4.93 64.35-4.10 63.39-4.10C62.82-4.10 62.56-4.38 62.56-5.47C62.56-6.69 62.88-10.08 63.17-13.28ZM76.51-17.92C72.99-17.92 69.18-16.38 69.18-12C69.18-6.05 76.19-7.10 76.19-4.67C76.19-3.78 75.20-3.62 74.14-3.62C71.33-3.62 70.98-4.80 69.92-4.80C68.67-4.80 68.06-3.10 68.06-2.37C68.06-0.35 72.45 0.32 74.85 0.32C79.17 0.32 81.38-1.86 81.38-4.93C81.38-10.66 73.76-9.66 73.76-12.32C73.76-13.18 74.56-13.82 75.74-13.82C77.50-13.82 77.57-12.45 77.60-11.68C77.60-11.33 77.76-11.23 78.37-11.23C80.58-11.23 81.79-12.26 81.79-14.11C81.79-16.32 80.10-17.92 76.51-17.92ZM91.49 0.32C94.34 0.32 97.76-0.67 97.76-3.17C97.76-5.09 95.74-5.44 95.33-5.44C94.43-5.44 94.46-3.68 92.22-3.68C90.05-3.68 89.18-5.31 89.18-6.94C91.26-6.94 99.20-7.26 99.20-13.12C99.20-15.74 97.63-17.92 93.18-17.92C84.93-17.92 83.68-10.40 83.68-7.17C83.68-1.34 87.78 0.32 91.49 0.32ZM92.10-13.66C93.18-13.66 93.73-12.86 93.73-12C93.73-10.43 91.90-9.54 89.28-9.50C89.50-11.33 90.21-13.66 92.10-13.66ZM112.03-2.82C112.03-1.02 112.64 0 115.33 0L116.35 0C117.09 0 117.22-0.06 117.22-0.99C117.22-2.08 118.08-10.05 118.08-12.13C118.08-16.48 116.38-17.92 112.80-17.92C110.24-17.92 108.67-17.18 107.33-14.91C107.23-16.32 106.56-17.60 104-17.60L102.75-17.60C102.46-17.60 102.34-17.60 102.24-17.50C102.14-17.41 102.11-17.18 102.08-16.67C101.41-7.26 101.12-4.35 101.12-3.04C101.12-1.09 101.76 0 104.38 0L105.54 0C106.08 0 106.21-0.13 106.24-0.64C106.98-11.23 107.81-13.63 110.75-13.63C112.29-13.63 112.70-12.61 112.70-11.49C112.70-9.38 112.03-4.67 112.03-2.82ZM132.58-23.07C123.68-23.07 120.90-16.48 120.90-9.82C120.90-4.19 122.94 0.32 129.98 0.32C139.55 0.32 141.31-8.19 141.31-13.31C141.31-19.46 138.85-23.07 132.58-23.07ZM131.90-18.11C134.37-18.11 135.36-16.16 135.36-13.06C135.36-10.43 134.53-4.67 130.59-4.67C128.22-4.67 126.85-6.40 126.85-10.27C126.85-12.80 127.42-18.11 131.90-18.11ZM154.59-2.82C154.59-1.02 155.20 0 157.89 0L158.91 0C159.65 0 159.78-0.06 159.78-0.99C159.78-2.08 160.64-10.05 160.64-12.13C160.64-16.48 158.94-17.92 155.36-17.92C152.80-17.92 151.23-17.18 149.89-14.91C149.79-16.32 149.12-17.60 146.56-17.60L145.31-17.60C145.02-17.60 144.90-17.60 144.80-17.50C144.70-17.41 144.67-17.18 144.64-16.67C143.97-7.26 143.68-4.35 143.68-3.04C143.68-1.09 144.32 0 146.94 0L148.10 0C148.64 0 148.77-0.13 148.80-0.64C149.54-11.23 150.37-13.63 153.31-13.63C154.85-13.63 155.26-12.61 155.26-11.49C155.26-9.38 154.59-4.67 154.59-2.82ZM170.88 0.32C173.73 0.32 177.15-0.67 177.15-3.17C177.15-5.09 175.14-5.44 174.72-5.44C173.82-5.44 173.86-3.68 171.62-3.68C169.44-3.68 168.58-5.31 168.58-6.94C170.66-6.94 178.59-7.26 178.59-13.12C178.59-15.74 177.02-17.92 172.58-17.92C164.32-17.92 163.07-10.40 163.07-7.17C163.07-1.34 167.17 0.32 170.88 0.32ZM171.49-13.66C172.58-13.66 173.12-12.86 173.12-12C173.12-10.43 171.30-9.54 168.67-9.50C168.90-11.33 169.60-13.66 171.49-13.66Z"/></svg>