<svg id="mainsvg" xmlns="http://www.w3.org/2000/svg" xmlns:xlink="http://www.w3.org/1999/xlink" version="1.1" x="0px" y="0px" enable-background="new 0 0 200 162.5" xml:space="preserve" viewBox="0 0 110 41"><path fill="#000" transform="translate(-1.472, 30.080000000000002)" d="M26.34-19.07Q26.34-16.35 24.93-14.08Q23.52-11.81 20.83-10.37Q18.14-8.93 14.43-8.67L14.43-8.67L13.06-0.96Q12.26 3.49 8.70 3.49L8.70 3.49Q6.75 3.49 5.10 2.34Q3.46 1.18 2.46-1.18Q1.47-3.55 1.47-7.01L1.47-7.01Q1.47-13.50 3.57-18.03Q5.66-22.56 9.20-24.82Q12.74-27.07 16.99-27.07L16.99-27.07Q20-27.07 22.10-26.02Q24.19-24.96 25.26-23.15Q26.34-21.34 26.34-19.07L26.34-19.07ZM15.01-11.97Q21.57-12.80 21.57-18.78L21.57-18.78Q21.57-20.90 20.18-22.22Q18.78-23.55 15.87-23.55L15.87-23.55Q12.58-23.55 10.13-21.47Q7.68-19.39 6.35-15.70Q5.02-12 5.02-7.26L5.02-7.26Q5.02-5.28 5.42-3.74Q5.82-2.21 6.45-1.36Q7.07-0.51 7.65-0.51L7.65-0.51Q8.45-0.51 8.86-2.72L8.86-2.72L9.92-8.77Q8.67-8.96 8.83-8.93L8.83-8.93Q7.87-9.09 7.58-9.52Q7.30-9.95 7.30-10.62L7.30-10.62Q7.30-11.33 7.70-11.74Q8.10-12.16 8.80-12.16L8.80-12.16Q9.12-12.16 9.28-12.13L9.28-12.13Q10.05-12 10.46-11.97L10.46-11.97Q10.88-14.46 11.65-18.66L11.65-18.66Q11.84-19.74 12.53-20.21Q13.22-20.67 14.14-20.67L14.14-20.67Q15.20-20.67 15.66-20.27Q16.13-19.87 16.13-19.01L16.13-19.01Q16.13-18.50 16.06-18.18L16.06-18.18L15.01-11.97ZM31.23 0.16Q29.25 0.16 28.06-1.28Q26.88-2.72 26.88-5.06L26.88-5.06Q26.88-7.62 28.06-9.90Q29.25-12.19 31.22-13.58Q33.18-14.98 35.39-14.98L35.39-14.98Q36.10-14.98 36.34-14.70Q36.58-14.43 36.74-13.73L36.74-13.73Q37.41-13.86 38.14-13.86L38.14-13.86Q39.71-13.86 39.71-12.74L39.71-12.74Q39.71-12.06 39.23-9.54L39.23-9.54Q38.50-5.86 38.50-4.42L38.50-4.42Q38.50-3.94 38.74-3.65Q38.98-3.36 39.36-3.36L39.36-3.36Q39.97-3.36 40.83-4.14Q41.70-4.93 43.17-6.69L43.17-6.69Q43.55-7.14 44.03-7.14L44.03-7.14Q44.45-7.14 44.69-6.75Q44.93-6.37 44.93-5.70L44.93-5.70Q44.93-4.42 44.32-3.71L44.32-3.71Q43.01-2.08 41.54-0.96Q40.06 0.16 38.69 0.16L38.69 0.16Q37.63 0.16 36.75-0.56Q35.87-1.28 35.42-2.53L35.42-2.53Q33.76 0.16 31.23 0.16L31.23 0.16ZM32.38-3.07Q33.09-3.07 33.73-3.90Q34.37-4.74 34.66-6.11L34.66-6.11L35.84-12Q34.50-11.97 33.36-10.99Q32.22-10.02 31.55-8.42Q30.88-6.82 30.88-5.02L30.88-5.02Q30.88-4.03 31.28-3.55Q31.68-3.07 32.38-3.07L32.38-3.07ZM48.45 0.16Q45.31 0.16 43.57-1.62Q41.82-3.39 41.82-6.30L41.82-6.30Q41.82-8.90 42.85-10.85Q43.87-12.80 45.50-13.86Q47.14-14.91 48.93-14.91L48.93-14.91Q50.69-14.91 51.66-13.87Q52.64-12.83 52.64-11.20L52.64-11.20Q52.64-9.86 52.05-8.93Q51.46-8 50.50-8L50.50-8Q49.89-8 49.52-8.29Q49.15-8.58 49.15-9.09L49.15-9.09Q49.15-9.31 49.22-9.60Q49.28-9.89 49.31-10.02L49.31-10.02Q49.47-10.50 49.47-10.91L49.47-10.91Q49.47-11.33 49.26-11.55Q49.06-11.78 48.67-11.78L48.67-11.78Q47.94-11.78 47.30-11.12Q46.66-10.46 46.27-9.34Q45.89-8.22 45.89-6.88L45.89-6.88Q45.89-3.17 49.12-3.17L49.12-3.17Q50.43-3.17 51.95-4.05Q53.47-4.93 54.94-6.69L54.94-6.69Q55.33-7.14 55.81-7.14L55.81-7.14Q56.22-7.14 56.46-6.75Q56.70-6.37 56.70-5.70L56.70-5.70Q56.70-4.48 56.10-3.71L56.10-3.71Q54.59-1.86 52.50-0.85Q50.40 0.16 48.45 0.16L48.45 0.16ZM58.30-17.02Q56.96-17.02 56.29-17.65Q55.62-18.27 55.62-19.39L55.62-19.39Q55.62-20.51 56.50-21.26Q57.38-22.02 58.69-22.02L58.69-22.02Q59.87-22.02 60.61-21.44Q61.34-20.86 61.34-19.81L61.34-19.81Q61.34-18.53 60.51-17.78Q59.68-17.02 58.30-17.02L58.30-17.02ZM58.05 0.16Q55.97 0.16 55.02-1.31Q54.08-2.78 54.08-5.22L54.08-5.22Q54.08-6.66 54.45-8.91Q54.82-11.17 55.39-13.12L55.39-13.12Q55.68-14.14 56.16-14.53Q56.64-14.91 57.70-14.91L57.70-14.91Q59.33-14.91 59.33-13.82L59.33-13.82Q59.33-13.02 58.72-10.11L58.72-10.11Q57.95-6.59 57.95-5.34L57.95-5.34Q57.95-4.38 58.21-3.87Q58.46-3.36 59.07-3.36L59.07-3.36Q59.65-3.36 60.51-4.16Q61.38-4.96 62.82-6.69L62.82-6.69Q63.20-7.14 63.68-7.14L63.68-7.14Q64.10-7.14 64.34-6.75Q64.58-6.37 64.58-5.70L64.58-5.70Q64.58-4.42 63.97-3.71L63.97-3.71Q60.80 0.16 58.05 0.16L58.05 0.16ZM83.94-7.14Q84.35-7.14 84.59-6.75Q84.83-6.37 84.83-5.70L84.83-5.70Q84.83-4.42 84.22-3.71L84.22-3.71Q82.91-2.11 81.33-0.98Q79.74 0.16 78.14 0.16L78.14 0.16Q76.06 0.16 75.12-1.31Q74.18-2.78 74.18-5.22L74.18-5.22Q74.18-6.46 74.45-8.29Q74.72-10.11 75.17-11.87L75.17-11.87Q71.97-11.87 67.58-11.58L67.58-11.58Q66.88-7.10 66.88-3.23L66.88-3.23Q66.88-0.26 67.22 2.99Q67.55 6.24 68.22 6.24L68.22 6.24Q68.54 6.24 68.90 5.12Q69.25 4 69.47 2.05Q69.70 0.10 69.70-2.27L69.70-2.27Q69.70-4.86 69.41-7.87L69.41-7.87Q69.34-8.77 69.71-9.20Q70.08-9.63 70.82-9.63L70.82-9.63Q71.49-9.63 71.81-9.28Q72.13-8.93 72.19-8.10L72.19-8.10Q72.35-5.76 72.35-2.53L72.35-2.53Q72.35 2.69 71.09 6.40Q69.82 10.11 67.17 10.11L67.17 10.11Q64.90 10.11 63.90 6.83Q62.91 3.55 62.91-3.01L62.91-3.01Q62.91-6.88 63.52-11.30L63.52-11.30Q63.30-11.26 62.94-11.26L62.94-11.26Q61.95-11.26 61.62-11.62Q61.28-11.97 61.28-12.70L61.28-12.70Q61.28-13.50 61.71-13.98Q62.14-14.46 63.36-14.56L63.36-14.56Q63.58-14.59 64.06-14.59L64.06-14.59Q64.93-18.91 66.27-22.43Q67.62-25.95 69.34-28.02Q71.07-30.08 72.99-30.08L72.99-30.08Q74.50-30.08 75.31-28.91Q76.13-27.74 76.13-25.92L76.13-25.92Q76.13-19.49 70.94-14.98L70.94-14.98Q74.85-15.14 77.25-15.14L77.25-15.14Q78.14-15.14 78.72-14.80Q79.30-14.46 79.30-13.50L79.30-13.50Q79.30-12.86 79.09-11.55Q78.88-10.24 78.62-8.93L78.62-8.93Q78.05-6.21 78.05-5.34L78.05-5.34Q78.05-4.38 78.30-3.87Q78.56-3.36 79.17-3.36L79.17-3.36Q79.71-3.36 80.56-4.11Q81.41-4.86 83.07-6.69L83.07-6.69Q83.46-7.14 83.94-7.14L83.94-7.14ZM72.38-27.01Q71.62-27.01 70.43-23.68Q69.25-20.35 68.29-15.62L68.29-15.62Q69.89-16.74 70.96-18.40Q72.03-20.06 72.56-21.84Q73.09-23.62 73.09-25.12L73.09-25.12Q73.09-27.01 72.38-27.01L72.38-27.01ZM78.59-17.02Q77.25-17.02 76.58-17.65Q75.90-18.27 75.90-19.39L75.90-19.39Q75.90-20.51 76.78-21.26Q77.66-22.02 78.98-22.02L78.98-22.02Q80.16-22.02 80.90-21.44Q81.63-20.86 81.63-19.81L81.63-19.81Q81.63-18.53 80.80-17.78Q79.97-17.02 78.59-17.02L78.59-17.02ZM88.35 0.16Q85.22 0.16 83.47-1.62Q81.73-3.39 81.73-6.30L81.73-6.30Q81.73-8.90 82.75-10.85Q83.78-12.80 85.41-13.86Q87.04-14.91 88.83-14.91L88.83-14.91Q90.59-14.91 91.57-13.87Q92.54-12.83 92.54-11.20L92.54-11.20Q92.54-9.86 91.95-8.93Q91.36-8 90.40-8L90.40-8Q89.79-8 89.42-8.29Q89.06-8.58 89.06-9.09L89.06-9.09Q89.06-9.31 89.12-9.60Q89.18-9.89 89.22-10.02L89.22-10.02Q89.38-10.50 89.38-10.91L89.38-10.91Q89.38-11.33 89.17-11.55Q88.96-11.78 88.58-11.78L88.58-11.78Q87.84-11.78 87.20-11.12Q86.56-10.46 86.18-9.34Q85.79-8.22 85.79-6.88L85.79-6.88Q85.79-3.17 89.02-3.17L89.02-3.17Q90.34-3.17 91.86-4.05Q93.38-4.93 94.85-6.69L94.85-6.69Q95.23-7.14 95.71-7.14L95.71-7.14Q96.13-7.14 96.37-6.75Q96.61-6.37 96.61-5.70L96.61-5.70Q96.61-4.48 96.00-3.71L96.00-3.71Q94.50-1.86 92.40-0.85Q90.30 0.16 88.35 0.16L88.35 0.16ZM110.34-9.82Q110.75-9.82 110.98-9.41Q111.20-8.99 111.20-8.35L111.20-8.35Q111.20-6.82 110.27-6.53L110.27-6.53Q108.35-5.86 106.05-5.76L106.05-5.76Q105.44-3.07 103.65-1.46Q101.86 0.16 99.58 0.16L99.58 0.16Q97.66 0.16 96.30-0.77Q94.94-1.70 94.24-3.23Q93.54-4.77 93.54-6.56L93.54-6.56Q93.54-8.99 94.46-10.90Q95.39-12.80 97.02-13.87Q98.66-14.94 100.64-14.94L100.64-14.94Q103.07-14.94 104.56-13.26Q106.05-11.58 106.30-9.12L106.30-9.12Q107.81-9.22 109.89-9.76L109.89-9.76Q110.14-9.82 110.34-9.82L110.34-9.82ZM99.84-3.23Q100.86-3.23 101.62-4.06Q102.37-4.90 102.62-6.46L102.62-6.46Q101.63-7.14 101.10-8.22Q100.58-9.31 100.58-10.53L100.58-10.53Q100.58-11.04 100.67-11.55L100.67-11.55L100.51-11.55Q99.23-11.55 98.38-10.32Q97.54-9.09 97.54-6.85L97.54-6.85Q97.54-5.09 98.22-4.16Q98.91-3.23 99.84-3.23L99.84-3.23Z"/></svg>