<svg id="mainsvg" xmlns="http://www.w3.org/2000/svg" xmlns:xlink="http://www.w3.org/1999/xlink" version="1.1" x="0px" y="0px" enable-background="new 0 0 200 162.5" xml:space="preserve" viewBox="0 0 161 22"><path fill="#000" transform="translate(0, 21.859375)" d="M4.19-13.02L4.19-17.67L9.36-17.67L9.36-13.02L4.19-13.02ZM9.38-8.84L9.38-4.19L4.19-4.19L4.19-8.84L9.38-8.84ZM10.34-21.86L0-21.86L0 0L10.34 0L13.55-3.20L13.55-9.78L12.41-10.89L13.55-12.03L13.55-18.64L10.34-21.86ZM20.08-4.19L20.08-21.86L15.89-21.86L15.89 0L26.98 0L26.98-4.19L20.08-4.19ZM38.70-17.67L38.70-4.19L33.52-4.19L33.52-17.67L38.70-17.67ZM39.67-21.86L32.53-21.86L29.33-18.64L29.33-3.20L32.53 0L39.67 0L42.88-3.20L42.88-18.64L39.67-21.86ZM55.56-21.86L48.42-21.86L45.22-18.64L45.22-3.20L48.42 0L55.56 0L58.77-3.20L58.77-7.45L54.59-7.45L54.59-4.19L49.41-4.19L49.41-17.67L54.59-17.67L54.59-14.41L58.77-14.41L58.77-18.64L55.56-21.86ZM75.17-21.86L70.50-21.86L65.30-12.77L65.30-21.86L61.11-21.86L61.11 0L65.30 0L65.30-9.08L70.50 0L75.17 0L68.91-10.92L75.17-21.86ZM81.70-4.19L81.70-21.86L77.52-21.86L77.52 0L88.61 0L88.61-4.19L81.70-4.19ZM102.06-21.86L90.95-21.86L90.95 0L102.06 0L102.06-4.19L95.14-4.19L95.14-8.84L100.67-8.84L100.67-13.02L95.14-13.02L95.14-17.67L102.06-17.67L102.06-21.86ZM116.67-21.86L104.41-21.86L104.41-17.67L108.44-17.67L108.44 0L112.63 0L112.63-17.67L116.67-17.67L116.67-21.86ZM131.28-21.86L119.02-21.86L119.02-17.67L123.05-17.67L123.05 0L127.23 0L127.23-17.67L131.28-17.67L131.28-21.86ZM144.73-21.86L133.63-21.86L133.63 0L144.73 0L144.73-4.19L137.81-4.19L137.81-8.84L143.34-8.84L143.34-13.02L137.81-13.02L137.81-17.67L144.73-17.67L144.73-21.86ZM156.45-17.67L156.45-12.48L151.27-12.48L151.27-17.67L156.45-17.67ZM157.42-21.86L147.08-21.86L147.08 0L151.27 0L151.27-8.31L156.45-8.31L156.45 0L160.63 0L160.63-9.78L159.48-10.89L160.63-12.03L160.63-18.64L157.42-21.86Z"/></svg>