<svg id="mainsvg" xmlns="http://www.w3.org/2000/svg" xmlns:xlink="http://www.w3.org/1999/xlink" version="1.1" x="0px" y="0px" enable-background="new 0 0 200 162.5" xml:space="preserve" viewBox="0 0 120 24"><path fill="#000" transform="translate(-1.984, 22.72)" d="M2.30 0L3.58 0C3.78 0 3.90-0.13 3.90-0.32L3.90-8.35L7.17-8.35C10.34-8.35 12.38-10.46 12.38-13.50L12.38-16.96C12.38-20.32 10.37-22.72 7.17-22.72C3.97-22.72 1.98-20.32 1.98-16.96L1.98-0.32C1.98-0.13 2.11 0 2.30 0ZM3.90-10.14L3.90-16.96C3.90-19.33 5.15-20.93 7.17-20.93C9.18-20.93 10.46-19.33 10.46-16.96L10.46-13.50C10.46-11.46 9.15-10.14 7.17-10.14ZM15.81 0L16.99 0C17.18 0 17.31-0.13 17.31-0.32L17.31-11.20C17.31-13.22 18.53-14.56 20.32-14.56C22.27-14.56 23.39-13.22 23.39-11.20L23.39-0.32C23.39-0.13 23.52 0 23.71 0L24.90 0C25.09 0 25.22-0.13 25.22-0.32L25.22-11.20C25.22-14.18 23.39-16.32 20.48-16.32C19.07-16.32 18.02-15.71 17.31-14.78L17.31-22.08C17.31-22.27 17.18-22.40 16.99-22.40L15.81-22.40C15.62-22.40 15.49-22.27 15.49-22.08L15.49-0.32C15.49-0.13 15.62 0 15.81 0ZM33.31 0.29C36.13 0.29 38.08-1.73 38.18-4.74C38.18-4.93 38.05-5.06 37.86-5.06L36.67-5.06C36.48-5.06 36.35-4.96 36.35-4.74C36.29-2.78 35.10-1.47 33.31-1.47C31.39-1.47 30.24-2.82 30.24-4.74L30.24-6.69L33.31-6.69C36.26-6.69 38.21-8.70 38.21-11.36C38.21-14.18 36.26-16.29 33.31-16.29C30.30-16.29 28.42-14.18 28.42-11.23L28.42-4.74C28.42-1.73 30.37 0.29 33.31 0.29ZM30.24-8.45L30.24-11.23C30.24-13.22 31.33-14.53 33.31-14.53C35.23-14.53 36.38-13.22 36.38-11.36C36.38-9.66 35.23-8.45 33.31-8.45ZM41.50 0L42.69 0C42.88 0 43.01-0.13 43.01-0.32L43.01-11.30C43.01-13.25 44.13-14.59 45.95-14.59C47.78-14.59 48.90-13.25 48.90-11.30L48.90-0.32C48.90-0.13 49.02 0 49.22 0L50.40 0C50.59 0 50.72-0.13 50.72-0.32L50.72-11.30C50.72-14.18 48.80-16.32 45.95-16.32C43.10-16.32 41.18-14.18 41.18-11.30L41.18-0.32C41.18-0.13 41.31 0 41.50 0ZM58.85 0.32C61.82 0.32 63.78-1.82 63.78-4.70L63.78-11.30C63.78-14.18 61.82-16.32 58.85-16.32C55.87-16.32 53.92-14.18 53.92-11.30L53.92-4.70C53.92-1.82 55.87 0.32 58.85 0.32ZM58.85-1.41C56.93-1.41 55.78-2.75 55.78-4.70L55.78-11.30C55.78-13.25 56.93-14.59 58.85-14.59C60.77-14.59 61.92-13.25 61.92-11.30L61.92-4.70C61.92-2.75 60.77-1.41 58.85-1.41ZM78.88-16.32C77.22-16.32 75.90-15.33 75.23-13.92C74.53-15.33 73.22-16.32 71.55-16.32C68.77-16.32 66.98-14.18 66.98-11.30L66.98-0.32C66.98-0.13 67.10 0 67.30 0L68.48 0C68.67 0 68.80-0.13 68.80-0.32L68.80-11.30C68.80-13.22 69.79-14.56 71.55-14.56C73.31-14.56 74.30-13.22 74.30-11.30L74.30-0.32C74.30-0.13 74.43 0 74.62 0L75.81 0C76.00 0 76.13-0.13 76.13-0.32L76.13-11.30C76.13-13.22 77.12-14.56 78.88-14.56C80.64-14.56 81.63-13.22 81.63-11.30L81.63-0.32C81.63-0.13 81.76 0 81.95 0L83.14 0C83.33 0 83.46-0.13 83.46-0.32L83.46-11.30C83.46-14.18 81.66-16.32 78.88-16.32ZM91.55 0.29C94.37 0.29 96.32-1.73 96.42-4.74C96.42-4.93 96.29-5.06 96.10-5.06L94.91-5.06C94.72-5.06 94.59-4.96 94.59-4.74C94.53-2.78 93.34-1.47 91.55-1.47C89.63-1.47 88.48-2.82 88.48-4.74L88.48-6.69L91.55-6.69C94.50-6.69 96.45-8.70 96.45-11.36C96.45-14.18 94.50-16.29 91.55-16.29C88.54-16.29 86.66-14.18 86.66-11.23L86.66-4.74C86.66-1.73 88.61 0.29 91.55 0.29ZM88.48-8.45L88.48-11.23C88.48-13.22 89.57-14.53 91.55-14.53C93.47-14.53 94.62-13.22 94.62-11.36C94.62-9.66 93.47-8.45 91.55-8.45ZM99.74 0L100.93 0C101.12 0 101.25-0.13 101.25-0.32L101.25-11.30C101.25-13.25 102.37-14.59 104.19-14.59C106.02-14.59 107.14-13.25 107.14-11.30L107.14-0.32C107.14-0.13 107.26 0 107.46 0L108.64 0C108.83 0 108.96-0.13 108.96-0.32L108.96-11.30C108.96-14.18 107.04-16.32 104.19-16.32C101.34-16.32 99.42-14.18 99.42-11.30L99.42-0.32C99.42-0.13 99.55 0 99.74 0ZM116.86 0.29C119.81 0.29 121.73-1.82 121.73-4.67L121.73-11.36C121.73-14.18 119.84-16.32 116.90-16.32C114.14-16.32 112.35-14.34 112.19-11.62C112.19-11.42 112.32-11.30 112.51-11.30L113.70-11.30C113.89-11.30 113.98-11.39 114.02-11.62C114.14-13.38 115.20-14.56 116.90-14.56C118.78-14.56 119.90-13.22 119.90-11.36L119.90-9.28L116.80-9.28C113.89-9.28 111.94-7.20 111.94-4.67C111.94-1.82 113.89 0.29 116.86 0.29ZM116.86-1.47C114.91-1.47 113.76-2.78 113.76-4.67C113.76-6.24 114.91-7.52 116.80-7.52L119.90-7.52L119.90-4.67C119.90-2.78 118.78-1.47 116.86-1.47Z"/></svg>