<svg id="mainsvg" xmlns="http://www.w3.org/2000/svg" xmlns:xlink="http://www.w3.org/1999/xlink" version="1.1" x="0px" y="0px" enable-background="new 0 0 200 162.5" xml:space="preserve" viewBox="0 0 169 29"><path fill="#000" transform="translate(-1.4375, 27.90625)" d="M13.06-14.59L13.06-2.34Q13.06-1.98 12.98-1.58Q12.89-1.17 12.63-0.82Q12.38-0.47 11.91-0.23Q11.44 0 10.69 0L10.69 0L3.81 0Q3.08 0 2.62-0.14Q2.16-0.28 1.89-0.55Q1.63-0.81 1.53-1.22Q1.44-1.63 1.44-2.17L1.44-2.17L1.44-19.72Q1.44-20.61 1.64-21.15Q1.84-21.69 2.22-21.98Q2.59-22.27 3.12-22.35Q3.64-22.44 4.28-22.44L4.28-22.44L18.80-22.44Q19.55-22.44 19.55-21.66L19.55-21.66L19.55-20.22Q19.55-19.91 19.36-19.81Q19.17-19.72 18.91-19.72L18.91-19.72Q18.75-19.72 18.42-19.77Q18.09-19.81 17.66-19.88Q17.22-19.95 16.71-20.05Q16.20-20.16 15.69-20.25L15.69-20.25Q14.48-20.48 13.06-20.80L13.06-20.80L13.06-16.83L18.88-16.83Q19.20-16.83 19.20-16.50L19.20-16.50L19.20-14.94Q19.20-14.59 18.88-14.59L18.88-14.59L13.06-14.59ZM11.73-2.31L11.73-21.03L10.52-21.28L10.52-1.31Q10.89-1.31 11.13-1.34Q11.36-1.36 11.50-1.46Q11.64-1.56 11.69-1.76Q11.73-1.95 11.73-2.31L11.73-2.31ZM36.19 0L27.84 0Q27 0 26.15-0.11Q25.30-0.22 24.52-0.46Q23.75-0.70 23.08-1.09Q22.41-1.48 21.91-2.06Q21.42-2.64 21.14-3.42Q20.86-4.20 20.86-5.22L20.86-5.22Q20.86-6.58 21.38-7.55Q21.89-8.52 22.76-9.16Q23.63-9.80 24.75-10.14Q25.88-10.48 27.08-10.58L27.08-10.58L27.08-11.66Q27.08-12.27 26.92-12.63Q26.77-12.98 26.52-13.16Q26.28-13.34 25.99-13.40Q25.70-13.45 25.44-13.45L25.44-13.45Q25.13-13.45 24.77-13.36Q24.42-13.27 24.09-13.13Q23.77-13 23.47-12.84Q23.17-12.69 22.97-12.56L22.97-12.56Q22.88-12.50 22.80-12.45Q22.72-12.41 22.64-12.41L22.64-12.41Q22.50-12.41 22.38-12.61L22.38-12.61L21.84-13.45Q21.77-13.56 21.77-13.69L21.77-13.69Q21.77-13.81 21.87-13.91Q21.97-14 22.06-14.06L22.06-14.06Q22.58-14.42 23.38-14.80Q24.17-15.17 25.16-15.47Q26.16-15.77 27.31-15.95Q28.47-16.14 29.70-16.14L29.70-16.14Q30.88-16.14 31.99-16.06Q33.11-15.98 34.10-15.73Q35.09-15.47 35.91-14.99Q36.73-14.52 37.34-13.73Q37.94-12.95 38.27-11.81Q38.59-10.67 38.59-9.08L38.59-9.08L38.59-2.11Q38.59-1.59 38.50-1.20Q38.41-0.80 38.14-0.53Q37.88-0.27 37.41-0.13Q36.94 0 36.19 0L36.19 0ZM27.08-2L27.08-8.59Q25.95-8.59 25.19-8.31Q24.42-8.03 23.95-7.56Q23.48-7.09 23.28-6.48Q23.08-5.86 23.08-5.20L23.08-5.20Q23.08-4.55 23.28-3.96Q23.48-3.38 23.95-2.94Q24.42-2.50 25.19-2.25Q25.95-2 27.08-2L27.08-2ZM36.05-9.48L36.05-1.31Q36.42-1.31 36.66-1.34Q36.89-1.36 37.03-1.46Q37.17-1.56 37.22-1.76Q37.27-1.95 37.27-2.31L37.27-2.31L37.27-9.42Q37.27-10.69 37-11.55Q36.73-12.42 36.34-12.98Q35.94-13.53 35.47-13.82Q35-14.11 34.59-14.25L34.59-14.25Q34.78-14.05 35.04-13.67Q35.30-13.30 35.52-12.72Q35.73-12.14 35.89-11.34Q36.05-10.53 36.05-9.48L36.05-9.48ZM52.61-16.55L52.61-16.55Q53.61-16.55 54.61-16.43Q55.61-16.31 56.51-16.13Q57.41-15.94 58.15-15.71Q58.89-15.48 59.36-15.27L59.36-15.27Q59.44-15.23 59.52-15.17Q59.61-15.11 59.61-14.94L59.61-14.94Q59.61-14.89 59.59-14.81Q59.58-14.73 59.56-14.66L59.56-14.66L59.38-13.73Q59.34-13.55 59.29-13.51Q59.23-13.47 59.19-13.47L59.19-13.47Q59.11-13.47 58.89-13.52Q58.67-13.56 58.42-13.56L58.42-13.56Q57.53-13.56 57.02-13.09Q56.50-12.61 56.36-11.42L56.36-11.42L55.48-4.13Q55.36-3.16 54.84-2.31Q54.31-1.47 53.33-0.83Q52.34-0.19 50.90 0.18Q49.45 0.55 47.52 0.55L47.52 0.55Q46.30 0.55 45.14 0.40Q43.98 0.25 43.01 0.04Q42.03-0.17 41.30-0.38Q40.58-0.59 40.22-0.72L40.22-0.72Q40.09-0.75 40.02-0.80Q39.95-0.86 39.95-0.98L39.95-0.98Q39.95-1.05 39.97-1.13Q39.98-1.20 40.02-1.31L40.02-1.31L40.20-2.19Q40.23-2.31 40.31-2.39Q40.39-2.47 40.59-2.47L40.59-2.47Q41.11-2.47 41.63-2.52Q42.16-2.58 42.60-2.81Q43.05-3.05 43.38-3.53Q43.72-4.02 43.84-4.89L43.84-4.89L44.94-12.42Q45.11-13.61 45.81-14.41Q46.52-15.20 47.55-15.68Q48.59-16.16 49.91-16.35Q51.22-16.55 52.61-16.55ZM49.64-0.91L49.64-0.91Q51.80-1.16 52.91-2.12Q54.03-3.08 54.20-4.52L54.20-4.52L55.03-11.42Q55.17-12.61 55.73-13.39Q56.28-14.17 57.25-14.34L57.25-14.34Q56.38-14.34 55.76-14.11Q55.14-13.88 54.72-13.48Q54.30-13.08 54.07-12.55Q53.84-12.02 53.78-11.42L53.78-11.42L52.95-4.52Q52.88-3.91 52.63-3.34Q52.39-2.78 51.98-2.30Q51.58-1.83 50.99-1.46Q50.41-1.09 49.64-0.91ZM71.72-7.91L71.72-7.91Q71.72-6.33 72.05-5.28Q72.39-4.23 72.91-3.62Q73.42-3 74.02-2.75Q74.61-2.50 75.13-2.50L75.13-2.50Q75.52-2.50 75.84-2.60Q76.17-2.70 76.42-2.84Q76.67-2.97 76.84-3.07Q77.02-3.17 77.11-3.17L77.11-3.17Q77.25-3.17 77.30-3.13Q77.36-3.08 77.44-2.95L77.44-2.95L77.98-2.11Q78.06-1.98 78.06-1.89L78.06-1.89Q78.06-1.78 78-1.72Q77.94-1.66 77.88-1.61L77.88-1.61Q77.36-1.25 76.61-0.85Q75.86-0.45 74.87-0.13Q73.88 0.20 72.66 0.42Q71.44 0.64 70 0.64L70 0.64Q68.83 0.64 67.66 0.45Q66.48 0.27 65.41-0.16Q64.34-0.58 63.42-1.24Q62.50-1.91 61.82-2.85Q61.14-3.80 60.75-5.05Q60.36-6.31 60.36-7.91L60.36-7.91Q60.36-9.50 60.75-10.76Q61.14-12.02 61.82-12.96Q62.50-13.91 63.42-14.57Q64.34-15.23 65.41-15.66Q66.48-16.08 67.66-16.27Q68.83-16.45 70-16.45L70-16.45Q71.28-16.45 72.47-16.26Q73.66-16.06 74.66-15.74Q75.67-15.42 76.48-15.04Q77.28-14.66 77.78-14.28L77.78-14.28Q77.84-14.23 77.91-14.17Q77.97-14.11 77.97-14L77.97-14Q77.97-13.89 77.89-13.78L77.89-13.78L77.34-12.94Q77.27-12.81 77.21-12.77Q77.16-12.72 77.02-12.72L77.02-12.72Q76.92-12.72 76.77-12.81Q76.61-12.91 76.38-13.02Q76.14-13.14 75.83-13.24Q75.52-13.34 75.13-13.34L75.13-13.34Q74.61-13.34 74.02-13.09Q73.42-12.83 72.91-12.20Q72.39-11.58 72.05-10.53Q71.72-9.48 71.72-7.91ZM73.80-1.88L73.80-1.88Q73.30-1.98 72.70-2.34Q72.11-2.70 71.59-3.41Q71.08-4.13 70.73-5.23Q70.39-6.33 70.39-7.91L70.39-7.91Q70.39-9.48 70.73-10.59Q71.08-11.70 71.59-12.41Q72.11-13.13 72.70-13.49Q73.30-13.86 73.80-13.97L73.80-13.97Q72.95-13.95 72.12-13.62Q71.28-13.28 70.61-12.56Q69.94-11.84 69.52-10.70Q69.11-9.55 69.11-7.91L69.11-7.91Q69.11-6.27 69.52-5.13Q69.94-3.98 70.61-3.27Q71.28-2.55 72.12-2.22Q72.95-1.89 73.80-1.88ZM79.81-2.17L79.81-13.83Q79.81-14.36 79.91-14.77Q80-15.19 80.27-15.45Q80.53-15.72 81-15.86Q81.47-16 82.22-16L82.22-16L89.06-16Q89.78-16 90.23-15.87Q90.67-15.73 90.92-15.47Q91.17-15.20 91.25-14.80Q91.33-14.39 91.33-13.83L91.33-13.83L91.33-2.14Q91.33-1.61 91.25-1.21Q91.17-0.81 90.92-0.54Q90.67-0.27 90.23-0.13Q89.78 0 89.06 0L89.06 0L82.22 0Q81.47 0 81-0.14Q80.53-0.28 80.27-0.55Q80-0.81 79.91-1.22Q79.81-1.63 79.81-2.17L79.81-2.17ZM80.39-22.69L80.39-22.69Q80.39-23.77 80.80-24.72Q81.22-25.67 81.92-26.38Q82.63-27.08 83.58-27.49Q84.53-27.91 85.61-27.91L85.61-27.91Q86.67-27.91 87.62-27.49Q88.56-27.08 89.27-26.38Q89.97-25.67 90.38-24.72Q90.80-23.77 90.80-22.69L90.80-22.69Q90.80-21.63 90.38-20.68Q89.97-19.73 89.27-19.03Q88.56-18.33 87.62-17.91Q86.67-17.50 85.61-17.50L85.61-17.50Q84.53-17.50 83.58-17.91Q82.63-18.33 81.92-19.03Q81.22-19.73 80.80-20.68Q80.39-21.63 80.39-22.69ZM90-2.31L90-13.69Q90-14.03 89.95-14.23Q89.91-14.44 89.77-14.54Q89.63-14.64 89.39-14.66Q89.16-14.69 88.78-14.69L88.78-14.69L88.78-1.31Q89.16-1.31 89.39-1.34Q89.63-1.36 89.77-1.46Q89.91-1.56 89.95-1.76Q90-1.95 90-2.31L90-2.31ZM88.19-22.69L88.19-22.69Q88.19-21.59 87.76-20.63Q87.33-19.66 86.59-18.94L86.59-18.94Q87.22-19.09 87.74-19.45Q88.27-19.81 88.65-20.30Q89.03-20.80 89.25-21.41Q89.47-22.02 89.47-22.69L89.47-22.69Q89.47-23.36 89.25-23.97Q89.03-24.58 88.65-25.07Q88.27-25.56 87.74-25.91Q87.22-26.27 86.59-26.44L86.59-26.44Q87.33-25.72 87.76-24.75Q88.19-23.78 88.19-22.69ZM94.20-2.17L94.20-13.83Q94.20-14.36 94.30-14.77Q94.39-15.19 94.66-15.45Q94.92-15.72 95.39-15.86Q95.86-16 96.61-16L96.61-16L103-16Q103.70-16 104.21-15.86Q104.72-15.72 104.94-15.38L104.94-15.38Q105.14-15.52 105.43-15.68Q105.72-15.84 106.06-15.98Q106.41-16.13 106.80-16.22Q107.19-16.31 107.61-16.31L107.61-16.31Q109.11-16.31 109.95-15.28Q110.78-14.25 110.78-12.25L110.78-12.25L110.78-0.73Q110.78-0.47 110.71-0.32Q110.64-0.17 110.54-0.10Q110.44-0.03 110.30-0.02Q110.16 0 110.02 0L110.02 0L109.02 0Q108.61 0 108.49-0.23Q108.38-0.47 108.38-0.73L108.38-0.73L108.38-12.41Q108.38-13.30 108.05-13.77Q107.73-14.23 107.03-14.23L107.03-14.23Q106.67-14.23 106.30-14.04Q105.94-13.84 105.72-13.63L105.72-13.63L105.72-2.19Q105.72-1.64 105.63-1.23Q105.53-0.83 105.27-0.55Q105-0.28 104.53-0.14Q104.06 0 103.31 0L103.31 0L96.61 0Q95.86 0 95.39-0.14Q94.92-0.28 94.66-0.55Q94.39-0.81 94.30-1.22Q94.20-1.63 94.20-2.17L94.20-2.17ZM104.39-2.31L104.39-13.69Q104.39-14.23 104.10-14.46Q103.81-14.69 103.17-14.69L103.17-14.69L103.17-1.31Q103.55-1.31 103.78-1.34Q104.02-1.36 104.16-1.46Q104.30-1.56 104.34-1.76Q104.39-1.95 104.39-2.31L104.39-2.31ZM128.53 0L120.19 0Q119.34 0 118.49-0.11Q117.64-0.22 116.87-0.46Q116.09-0.70 115.42-1.09Q114.75-1.48 114.26-2.06Q113.77-2.64 113.48-3.42Q113.20-4.20 113.20-5.22L113.20-5.22Q113.20-6.58 113.72-7.55Q114.23-8.52 115.10-9.16Q115.97-9.80 117.09-10.14Q118.22-10.48 119.42-10.58L119.42-10.58L119.42-11.66Q119.42-12.27 119.27-12.63Q119.11-12.98 118.87-13.16Q118.63-13.34 118.34-13.40Q118.05-13.45 117.78-13.45L117.78-13.45Q117.47-13.45 117.12-13.36Q116.77-13.27 116.44-13.13Q116.11-13 115.81-12.84Q115.52-12.69 115.31-12.56L115.31-12.56Q115.22-12.50 115.14-12.45Q115.06-12.41 114.98-12.41L114.98-12.41Q114.84-12.41 114.72-12.61L114.72-12.61L114.19-13.45Q114.11-13.56 114.11-13.69L114.11-13.69Q114.11-13.81 114.21-13.91Q114.31-14 114.41-14.06L114.41-14.06Q114.92-14.42 115.72-14.80Q116.52-15.17 117.51-15.47Q118.50-15.77 119.66-15.95Q120.81-16.14 122.05-16.14L122.05-16.14Q123.22-16.14 124.34-16.06Q125.45-15.98 126.45-15.73Q127.44-15.47 128.26-14.99Q129.08-14.52 129.68-13.73Q130.28-12.95 130.61-11.81Q130.94-10.67 130.94-9.08L130.94-9.08L130.94-2.11Q130.94-1.59 130.84-1.20Q130.75-0.80 130.48-0.53Q130.22-0.27 129.75-0.13Q129.28 0 128.53 0L128.53 0ZM119.42-2L119.42-8.59Q118.30-8.59 117.53-8.31Q116.77-8.03 116.30-7.56Q115.83-7.09 115.63-6.48Q115.42-5.86 115.42-5.20L115.42-5.20Q115.42-4.55 115.63-3.96Q115.83-3.38 116.30-2.94Q116.77-2.50 117.53-2.25Q118.30-2 119.42-2L119.42-2ZM128.39-9.48L128.39-1.31Q128.77-1.31 129-1.34Q129.23-1.36 129.38-1.46Q129.52-1.56 129.56-1.76Q129.61-1.95 129.61-2.31L129.61-2.31L129.61-9.42Q129.61-10.69 129.34-11.55Q129.08-12.42 128.68-12.98Q128.28-13.53 127.81-13.82Q127.34-14.11 126.94-14.25L126.94-14.25Q127.13-14.05 127.38-13.67Q127.64-13.30 127.86-12.72Q128.08-12.14 128.23-11.34Q128.39-10.53 128.39-9.48L128.39-9.48ZM134.33-10.88L132.70-10.88Q132.38-10.88 132.38-11.22L132.38-11.22L132.38-12.47Q132.38-12.80 132.70-12.80L132.70-12.80L134.33-12.80L134.33-16.34Q134.33-16.58 134.40-16.81Q134.47-17.05 134.78-17.17L134.78-17.17L143.41-20.36Q144-20.58 144.39-20.69Q144.78-20.80 145.08-20.80L145.08-20.80Q145.19-20.80 145.32-20.76Q145.45-20.72 145.57-20.63Q145.69-20.53 145.77-20.37Q145.84-20.20 145.84-19.97L145.84-19.97L145.84-12.80L148.66-12.80Q148.98-12.80 148.98-12.47L148.98-12.47L148.98-11.22Q148.98-10.88 148.66-10.88L148.66-10.88L145.84-10.88L145.84-4.58Q145.84-3.47 146.21-3.02Q146.58-2.56 147.34-2.56L147.34-2.56Q147.52-2.56 147.70-2.60Q147.89-2.64 148.05-2.68Q148.22-2.72 148.36-2.76Q148.50-2.80 148.59-2.80L148.59-2.80Q148.77-2.80 148.77-2.59L148.77-2.59L148.77-1.39Q148.77-1.08 148.64-0.97Q148.52-0.86 148.42-0.83L148.42-0.83Q147.83-0.58 147.02-0.33Q146.22-0.08 145.29 0.12Q144.36 0.31 143.33 0.43Q142.30 0.55 141.27 0.55L141.27 0.55Q139.78 0.55 138.51 0.40Q137.23 0.25 136.30-0.28Q135.38-0.81 134.85-1.86Q134.33-2.91 134.33-4.70L134.33-4.70L134.33-10.88ZM144.52-4.11L144.52-18.56Q144.52-18.88 144.45-19.07Q144.38-19.27 144.11-19.27L144.11-19.27Q144.02-19.27 143.87-19.23Q143.72-19.20 143.55-19.13L143.55-19.13L143.30-19.02L143.30-4.17Q143.30-3.47 143.53-3.03Q143.77-2.59 144.11-2.34Q144.45-2.09 144.84-2.01Q145.23-1.92 145.55-1.92L145.55-1.92Q145.31-2.11 145.12-2.30Q144.92-2.50 144.79-2.76Q144.66-3.02 144.59-3.34Q144.52-3.66 144.52-4.11L144.52-4.11ZM165.53-2.59L165.53-2.59Q165.95-2.59 166.30-2.71Q166.64-2.83 166.91-2.97Q167.19-3.11 167.37-3.23Q167.55-3.34 167.64-3.34L167.64-3.34Q167.78-3.34 167.84-3.30Q167.89-3.25 167.97-3.13L167.97-3.13L168.52-2.28Q168.59-2.16 168.59-2.06L168.59-2.06Q168.59-1.95 168.53-1.89Q168.47-1.83 168.41-1.78L168.41-1.78Q167.89-1.42 167.14-1.01Q166.39-0.59 165.40-0.25Q164.41 0.09 163.16 0.32Q161.91 0.55 160.41 0.55L160.41 0.55Q159.23 0.55 158.06 0.36Q156.89 0.17 155.82-0.23Q154.75-0.64 153.83-1.30Q152.91-1.95 152.23-2.91Q151.55-3.86 151.16-5.12Q150.77-6.38 150.77-8L150.77-8Q150.77-9.59 151.16-10.85Q151.55-12.11 152.23-13.06Q152.91-14.02 153.83-14.68Q154.75-15.34 155.82-15.76Q156.89-16.17 158.06-16.36Q159.23-16.55 160.41-16.55L160.41-16.55Q162.36-16.55 164.04-16.11Q165.72-15.67 166.95-14.67Q168.19-13.67 168.89-12.05Q169.59-10.42 169.59-8.06L169.59-8.06L169.59-7.19Q169.59-6.91 169.45-6.75Q169.31-6.59 168.98-6.59L168.98-6.59L162.52-6.59Q162.64-5.44 162.96-4.66Q163.28-3.89 163.70-3.43Q164.11-2.97 164.59-2.78Q165.08-2.59 165.53-2.59ZM162.45-8.52L167.38-8.52Q167.38-9.77 167.18-10.59Q166.98-11.41 166.66-11.90Q166.33-12.39 165.88-12.59Q165.44-12.80 164.95-12.80L164.95-12.80Q164.59-12.80 164.17-12.66Q163.75-12.52 163.38-12.06Q163.02-11.61 162.76-10.77Q162.50-9.92 162.45-8.52L162.45-8.52ZM164.50-1.72L164.50-1.72Q164-1.83 163.41-2.16Q162.81-2.50 162.30-3.20Q161.78-3.91 161.44-5.05Q161.09-6.19 161.09-7.91L161.09-7.91Q161.09-9.48 161.40-10.58Q161.70-11.67 162.19-12.38Q162.67-13.08 163.28-13.43Q163.89-13.78 164.50-13.88L164.50-13.88Q163.56-13.84 162.71-13.51Q161.86-13.17 161.21-12.45Q160.56-11.73 160.19-10.61Q159.81-9.48 159.81-7.91L159.81-7.91Q159.81-6.22 160.25-5.04Q160.69-3.86 161.37-3.12Q162.05-2.38 162.88-2.05Q163.70-1.72 164.50-1.72Z"/></svg>