<svg id="mainsvg" xmlns="http://www.w3.org/2000/svg" xmlns:xlink="http://www.w3.org/1999/xlink" version="1.1" x="0px" y="0px" enable-background="new 0 0 200 162.5" xml:space="preserve" viewBox="0 0 255 26"><path fill="#000" transform="translate(-1.76, 25.6)" d="M15.01-11.42L15.01-20.64C15.01-23.84 13.22-25.60 10.02-25.60L2.34-25.60C1.73-25.60 1.28-25.15 1.28-24.54L1.28-20.64L-0.16-20.64C-0.42-20.64-0.61-20.45-0.61-20.22C-0.61-19.97-0.42-19.78-0.16-19.78L2.46-19.78C2.59-19.78 2.69-19.68 2.69-19.55C2.69-19.42 2.59-19.33 2.46-19.33L1.28-19.33L1.28-9.63L-1.31-9.63C-1.57-9.63-1.76-9.44-1.76-9.22C-1.76-8.96-1.57-8.77-1.31-8.77L4.19-8.77C4.32-8.77 4.42-8.67 4.42-8.54C4.42-8.42 4.32-8.32 4.19-8.32L1.28-8.32L1.28-4.42L-0.16-4.42C-0.42-4.42-0.61-4.22-0.61-4C-0.61-3.74-0.42-3.55-0.16-3.55L1.28-3.55L1.28-1.09C1.28-0.45 1.73 0 2.34 0L5.54 0C6.14 0 6.59-0.45 6.59-1.09L6.59-6.46L7.71-6.46L9.60-0.86C9.73-0.32 10.14 0 10.69 0L13.86 0C14.21 0 14.53-0.13 14.69-0.38C14.85-0.54 14.98-0.83 14.85-1.31L12.90-7.10C13.95-7.74 15.01-8.96 15.01-11.42ZM9.70-12.29C9.70-11.81 9.50-11.65 9.02-11.65L6.59-11.65L6.59-20.42L9.02-20.42C9.50-20.42 9.70-20.26 9.70-19.78ZM26.05-22.40L22.66-22.40C19.49-22.40 17.76-20.67 17.76-17.50L17.76-13.95L15.33-13.95C15.07-13.95 14.88-13.76 14.88-13.54C14.88-13.28 15.07-13.09 15.33-13.09L19.62-13.09C19.74-13.09 19.84-12.99 19.84-12.90C19.84-12.77 19.74-12.67 19.62-12.67L17.76-12.67L17.76-8.22L16.45-8.22C16.22-8.22 16.03-8.03 16.03-7.81C16.03-7.58 16.22-7.39 16.45-7.39L17.76-7.39L17.76-4.93C17.76-1.76 19.49 0 22.66 0L26.05 0C29.22 0 30.94-1.76 30.94-4.93L30.94-17.50C30.94-20.67 29.22-22.40 26.05-22.40ZM25.92-5.70C25.92-5.18 25.76-5.06 25.28-5.06L23.55-5.06C23.04-5.06 22.91-5.18 22.91-5.70L22.91-16.74C22.91-17.22 23.07-17.38 23.55-17.38L25.28-17.38C25.76-17.38 25.92-17.22 25.92-16.74ZM49.60-1.22L44.58-21.54C44.48-22.08 44.06-22.40 43.52-22.40L39.33-22.40C38.75-22.40 38.37-22.08 38.24-21.54L37.79-19.62L36.64-19.62C36.38-19.62 36.19-19.42 36.19-19.20C36.19-18.94 36.38-18.75 36.64-18.75L37.57-18.75L36.51-14.46L33.79-14.46C33.54-14.46 33.34-14.27 33.34-14.05C33.34-13.82 33.54-13.63 33.79-13.63L38.66-13.63C38.78-13.63 38.88-13.54 38.88-13.41C38.88-13.28 38.78-13.18 38.66-13.18L36.19-13.18L34.40-5.89L33.22-5.89C32.96-5.89 32.77-5.70 32.77-5.47C32.77-5.25 32.96-5.06 33.22-5.06L34.18-5.06L33.25-1.25C33.15-0.83 33.25-0.54 33.38-0.38C33.47-0.22 33.73 0 34.21 0L37.41 0C37.95 0 38.34-0.35 38.46-0.90L39.20-3.14L43.62-3.14L44.38-0.90C44.48-0.35 44.86 0 45.41 0L48.61 0C49.02 0 49.28-0.19 49.41-0.35C49.54-0.51 49.66-0.77 49.60-1.22ZM40.16-7.78L41.41-13.41L42.66-7.78ZM60.16-22.40L52.93-22.40C52.29-22.40 51.87-21.98 51.87-21.38L51.87-16.80L50.34-16.80C50.08-16.80 49.89-16.61 49.89-16.35C49.89-16.13 50.08-15.94 50.34-15.94L51.87-15.94L51.87-10.50L49.18-10.50C48.96-10.50 48.77-10.30 48.77-10.08C48.77-9.82 48.96-9.63 49.18-9.63L53.50-9.63C53.63-9.63 53.73-9.54 53.73-9.44C53.73-9.31 53.63-9.22 53.50-9.22L51.87-9.22L51.87-4.22L50.91-4.22C50.66-4.22 50.46-4.03 50.46-3.78C50.46-3.55 50.66-3.36 50.91-3.36L51.87-3.36L51.87-1.06C51.87-0.42 52.26 0 52.93 0L60.16 0C63.33 0 65.06-1.76 65.06-4.93L65.06-17.47C65.06-20.61 63.26-22.40 60.16-22.40ZM59.94-5.76C59.94-5.28 59.81-5.15 59.30-5.15L57.12-5.15L57.12-17.28L59.30-17.28C59.78-17.28 59.94-17.12 59.94-16.64ZM76.90-14.37L80.03-14.37C80.64-14.37 81.09-14.82 81.09-15.42L81.09-17.47C81.09-20.64 79.33-22.40 76.16-22.40L72.80-22.40C69.66-22.40 67.87-20.61 67.87-17.47L67.87-13.50L65.25-13.50C64.99-13.50 64.80-13.31 64.80-13.09C64.80-12.83 64.99-12.64 65.25-12.64L70.69-12.64C70.82-12.64 70.91-12.54 70.91-12.45C70.91-12.32 70.82-12.22 70.69-12.22L67.87-12.22L67.87-10.94C67.87-10.14 68.32-9.54 69.09-9.28L75.84-7.07L75.84-5.76C75.84-5.28 75.68-5.12 75.20-5.12L73.76-5.12C73.28-5.12 73.12-5.28 73.12-5.76L73.12-6.37C73.12-7.01 72.70-7.42 72.06-7.42L68.93-7.42C68.29-7.42 67.87-6.98 67.87-6.37L67.87-4.93L66.37-4.93C66.14-4.93 65.95-4.74 65.95-4.51C65.95-4.26 66.14-4.06 66.37-4.06L70.11-4.06C70.24-4.06 70.34-3.97 70.34-3.87C70.34-3.74 70.24-3.65 70.11-3.65L68.00-3.65C68.42-1.31 70.11 0 72.80 0L76.16 0C79.33 0 81.09-1.73 81.09-4.90L81.09-9.60C81.09-10.37 80.70-10.91 79.90-11.23L73.12-13.47L73.12-16.64C73.12-17.09 73.31-17.28 73.76-17.28L75.20-17.28C75.68-17.28 75.84-17.12 75.84-16.64L75.84-15.42C75.84-14.82 76.26-14.37 76.90-14.37ZM95.36-22.40L84.26-22.40C83.65-22.40 83.23-21.95 83.23-21.34L83.23-18.34C83.23-17.70 83.65-17.28 84.26-17.28L87.20-17.28L87.20-11.23L84.29-11.23C84.06-11.23 83.87-11.04 83.87-10.78C83.87-10.56 84.06-10.37 84.29-10.37L89.76-10.37C89.86-10.37 89.95-10.27 89.95-10.14C89.95-10.02 89.86-9.92 89.76-9.92L87.20-9.92L87.20-6.66L86.02-6.66C85.76-6.66 85.57-6.46 85.57-6.21C85.57-5.98 85.76-5.79 86.02-5.79L87.20-5.79L87.20-1.06C87.20-0.42 87.62 0 88.26 0L91.39 0C92.03 0 92.45-0.42 92.45-1.06L92.45-17.28L95.36-17.28C96.00-17.28 96.42-17.70 96.42-18.34L96.42-21.34C96.42-21.98 96.00-22.40 95.36-22.40ZM114.46-1.22L109.44-21.54C109.34-22.08 108.93-22.40 108.38-22.40L104.19-22.40C103.62-22.40 103.23-22.08 103.10-21.54L102.66-19.62L101.50-19.62C101.25-19.62 101.06-19.42 101.06-19.20C101.06-18.94 101.25-18.75 101.50-18.75L102.43-18.75L101.38-14.46L98.66-14.46C98.40-14.46 98.21-14.27 98.21-14.05C98.21-13.82 98.40-13.63 98.66-13.63L103.52-13.63C103.65-13.63 103.74-13.54 103.74-13.41C103.74-13.28 103.65-13.18 103.52-13.18L101.06-13.18L99.26-5.89L98.08-5.89C97.82-5.89 97.63-5.70 97.63-5.47C97.63-5.25 97.82-5.06 98.08-5.06L99.04-5.06L98.11-1.25C98.02-0.83 98.11-0.54 98.24-0.38C98.34-0.22 98.59 0 99.07 0L102.27 0C102.82 0 103.20-0.35 103.33-0.90L104.06-3.14L108.48-3.14L109.25-0.90C109.34-0.35 109.73 0 110.27 0L113.47 0C113.89 0 114.14-0.19 114.27-0.35C114.40-0.51 114.53-0.77 114.46-1.22ZM105.02-7.78L106.27-13.41L107.52-7.78ZM130.14-10.14L130.14-17.47C130.14-20.64 128.42-22.40 125.25-22.40L117.66-22.40C117.06-22.40 116.61-21.95 116.61-21.34L116.61-11.23L114.05-11.23C113.79-11.23 113.60-11.04 113.60-10.78C113.60-10.56 113.79-10.37 114.05-10.37L118.37-10.37C118.46-10.37 118.56-10.27 118.56-10.14C118.56-10.02 118.46-9.92 118.37-9.92L116.61-9.92L116.61-7.23L115.20-7.23C114.94-7.23 114.75-7.04 114.75-6.78C114.75-6.56 114.94-6.37 115.20-6.37L116.61-6.37L116.61-1.06C116.61-0.42 117.06 0 117.66 0L120.80 0C121.41 0 121.86-0.42 121.86-1.06L121.86-5.22L122.94-5.22L124.83-0.83C124.96-0.29 125.34 0 125.89 0L129.02 0C129.38 0 129.66-0.13 129.86-0.35C129.98-0.51 130.11-0.80 129.98-1.28L128.06-5.86C129.12-6.46 130.14-7.71 130.14-10.14ZM124.90-10.98C124.90-10.50 124.74-10.34 124.26-10.34L121.86-10.34L121.86-17.28L124.26-17.28C124.74-17.28 124.90-17.12 124.90-16.64ZM138.50-14.11L133.76-14.11C133.09-14.11 132.61-13.63 132.61-12.93L132.61-10.18C132.61-9.47 133.09-9.02 133.76-9.02L138.50-9.02C139.17-9.02 139.68-9.47 139.68-10.18L139.68-12.93C139.68-13.63 139.17-14.11 138.50-14.11ZM155.90-11.42L155.90-20.64C155.90-23.84 154.11-25.60 150.91-25.60L143.23-25.60C142.62-25.60 142.18-25.15 142.18-24.54L142.18-20.64L140.74-20.64C140.48-20.64 140.29-20.45 140.29-20.22C140.29-19.97 140.48-19.78 140.74-19.78L143.36-19.78C143.49-19.78 143.58-19.68 143.58-19.55C143.58-19.42 143.49-19.33 143.36-19.33L142.18-19.33L142.18-9.63L139.58-9.63C139.33-9.63 139.14-9.44 139.14-9.22C139.14-8.96 139.33-8.77 139.58-8.77L145.09-8.77C145.22-8.77 145.31-8.67 145.31-8.54C145.31-8.42 145.22-8.32 145.09-8.32L142.18-8.32L142.18-4.42L140.74-4.42C140.48-4.42 140.29-4.22 140.29-4C140.29-3.74 140.48-3.55 140.74-3.55L142.18-3.55L142.18-1.09C142.18-0.45 142.62 0 143.23 0L146.43 0C147.04 0 147.49-0.45 147.49-1.09L147.49-6.46L148.61-6.46L150.50-0.86C150.62-0.32 151.04 0 151.58 0L154.75 0C155.10 0 155.42-0.13 155.58-0.38C155.74-0.54 155.87-0.83 155.74-1.31L153.79-7.10C154.85-7.74 155.90-8.96 155.90-11.42ZM150.59-12.29C150.59-11.81 150.40-11.65 149.92-11.65L147.49-11.65L147.49-20.42L149.92-20.42C150.40-20.42 150.59-20.26 150.59-19.78ZM170.75-17.25C171.39-17.25 171.81-17.70 171.81-18.34L171.81-21.38C171.81-22.02 171.39-22.40 170.75-22.40L159.65-22.40C159.07-22.40 158.62-21.98 158.62-21.38L158.62-18.50L156.80-18.50C156.54-18.50 156.35-18.30 156.35-18.08C156.35-17.86 156.54-17.66 156.80-17.66L158.62-17.66L158.62-11.65L156.80-11.65C156.54-11.65 156.35-11.46 156.35-11.23C156.35-10.98 156.54-10.78 156.80-10.78L160.51-10.78C160.64-10.78 160.74-10.69 160.74-10.56C160.74-10.46 160.64-10.37 160.51-10.37L158.62-10.37L158.62-3.07L157.34-3.07C157.12-3.07 156.93-2.88 156.93-2.66C156.93-2.40 157.12-2.21 157.34-2.21L158.62-2.21L158.62-1.06C158.62-0.45 159.07 0 159.65 0L170.75 0C171.39 0 171.81-0.42 171.81-1.06L171.81-4.10C171.81-4.74 171.42-5.15 170.75-5.15L163.78-5.15L163.78-7.23L168.96-7.23C169.60-7.23 170.02-7.68 170.02-8.32L170.02-11.30C170.02-11.94 169.60-12.38 168.96-12.38L163.78-12.38L163.78-17.25ZM184.03-13.31L187.07-13.31C187.68-13.31 188.13-13.76 188.13-14.37L188.13-17.50C188.13-20.61 186.34-22.40 183.20-22.40L179.23-22.40C176.42-22.40 174.72-21.02 174.37-18.50L173.57-18.50C173.34-18.50 173.15-18.30 173.15-18.08C173.15-17.86 173.34-17.66 173.57-17.66L174.30-17.66L174.30-17.50L174.30-11.07L171.87-11.07C171.62-11.07 171.42-10.88 171.42-10.66C171.42-10.40 171.62-10.21 171.87-10.21L176.19-10.21C176.29-10.21 176.38-10.11 176.38-10.02C176.38-9.89 176.29-9.79 176.19-9.79L174.30-9.79L174.30-4.93C174.30-4.22 174.40-3.62 174.56-3.07L173.57-3.07C173.34-3.07 173.15-2.88 173.15-2.66C173.15-2.40 173.34-2.21 173.57-2.21L174.91-2.21C175.65-0.77 177.12 0 179.23 0L183.20 0C186.34 0 188.13-1.79 188.13-4.93L188.13-10.46C188.13-11.07 187.68-11.49 187.07-11.49L181.98-11.49C181.34-11.49 180.93-11.10 180.93-10.46L180.93-7.42C180.93-6.82 181.38-6.37 181.98-6.37L182.98-6.37L182.98-5.76C182.98-5.28 182.85-5.15 182.37-5.15L180.19-5.15C179.71-5.15 179.55-5.28 179.55-5.76L179.55-16.67C179.55-17.15 179.71-17.28 180.19-17.28L182.37-17.28C182.82-17.28 182.98-17.12 182.98-16.67L182.98-14.37C182.98-13.73 183.42-13.31 184.03-13.31ZM202.62-22.40L199.87-22.40C199.20-22.40 198.69-21.86 198.69-21.22L198.69-5.76C198.69-5.28 198.53-5.12 198.05-5.12L196.48-5.12C196-5.12 195.84-5.28 195.84-5.76L195.84-21.22C195.84-21.86 195.33-22.40 194.66-22.40L191.78-22.40C191.14-22.40 190.59-21.86 190.59-21.22L190.59-13.73L188.19-13.73C187.97-13.73 187.78-13.54 187.78-13.28C187.78-13.06 187.97-12.86 188.19-12.86L192.51-12.86C192.61-12.86 192.70-12.77 192.70-12.64C192.70-12.54 192.61-12.45 192.51-12.45L190.59-12.45L190.59-8L189.34-8C189.09-8 188.90-7.81 188.90-7.58C188.90-7.33 189.09-7.14 189.34-7.14L190.59-7.14L190.59-4.90C190.59-1.73 192.35 0 195.52 0L198.88 0C202.05 0 203.81-1.73 203.81-4.90L203.81-21.22C203.81-21.86 203.26-22.40 202.62-22.40ZM217.25-5.15L211.58-5.15L211.58-21.38C211.58-21.98 211.17-22.40 210.56-22.40L207.42-22.40C206.78-22.40 206.37-21.98 206.37-21.38L206.37-16.22L203.46-16.22C203.23-16.22 203.04-16.03 203.04-15.78C203.04-15.55 203.23-15.36 203.46-15.36L208.35-15.36C208.48-15.36 208.58-15.26 208.58-15.14C208.58-15.04 208.48-14.94 208.35-14.94L206.37-14.94L206.37-9.92L205.18-9.92C204.96-9.92 204.77-9.73 204.77-9.50C204.77-9.28 204.96-9.09 205.18-9.09L206.37-9.09L206.37-4.80L204.61-4.80C204.38-4.80 204.19-4.61 204.19-4.35C204.19-4.13 204.38-3.94 204.61-3.94L207.20-3.94C207.33-3.94 207.42-3.84 207.42-3.71C207.42-3.58 207.33-3.49 207.20-3.49L206.37-3.49L206.37-1.06C206.37-0.45 206.78 0 207.42 0L217.25 0C217.89 0 218.30-0.42 218.30-1.06L218.30-4.10C218.30-4.70 217.89-5.15 217.25-5.15ZM236.86-1.22L231.84-21.54C231.74-22.08 231.33-22.40 230.78-22.40L226.59-22.40C226.02-22.40 225.63-22.08 225.50-21.54L225.06-19.62L223.90-19.62C223.65-19.62 223.46-19.42 223.46-19.20C223.46-18.94 223.65-18.75 223.90-18.75L224.83-18.75L223.78-14.46L221.06-14.46C220.80-14.46 220.61-14.27 220.61-14.05C220.61-13.82 220.80-13.63 221.06-13.63L225.92-13.63C226.05-13.63 226.14-13.54 226.14-13.41C226.14-13.28 226.05-13.18 225.92-13.18L223.46-13.18L221.66-5.89L220.48-5.89C220.22-5.89 220.03-5.70 220.03-5.47C220.03-5.25 220.22-5.06 220.48-5.06L221.44-5.06L220.51-1.25C220.42-0.83 220.51-0.54 220.64-0.38C220.74-0.22 220.99 0 221.47 0L224.67 0C225.22 0 225.60-0.35 225.73-0.90L226.46-3.14L230.88-3.14L231.65-0.90C231.74-0.35 232.13 0 232.67 0L235.87 0C236.29 0 236.54-0.19 236.67-0.35C236.80-0.51 236.93-0.77 236.86-1.22ZM227.42-7.78L228.67-13.41L229.92-7.78ZM252.54-10.14L252.54-17.47C252.54-20.64 250.82-22.40 247.65-22.40L240.06-22.40C239.46-22.40 239.01-21.95 239.01-21.34L239.01-11.23L236.45-11.23C236.19-11.23 236.00-11.04 236.00-10.78C236.00-10.56 236.19-10.37 236.45-10.37L240.77-10.37C240.86-10.37 240.96-10.27 240.96-10.14C240.96-10.02 240.86-9.92 240.77-9.92L239.01-9.92L239.01-7.23L237.60-7.23C237.34-7.23 237.15-7.04 237.15-6.78C237.15-6.56 237.34-6.37 237.60-6.37L239.01-6.37L239.01-1.06C239.01-0.42 239.46 0 240.06 0L243.20 0C243.81 0 244.26-0.42 244.26-1.06L244.26-5.22L245.34-5.22L247.23-0.83C247.36-0.29 247.74 0 248.29 0L251.42 0C251.78 0 252.06-0.13 252.26-0.35C252.38-0.51 252.51-0.80 252.38-1.28L250.46-5.86C251.52-6.46 252.54-7.71 252.54-10.14ZM247.30-10.98C247.30-10.50 247.14-10.34 246.66-10.34L244.26-10.34L244.26-17.28L246.66-17.28C247.14-17.28 247.30-17.12 247.30-16.64Z"/></svg>