<svg id="mainsvg" xmlns="http://www.w3.org/2000/svg" xmlns:xlink="http://www.w3.org/1999/xlink" version="1.1" x="0px" y="0px" enable-background="new 0 0 200 162.5" xml:space="preserve" viewBox="0 0 130 35"><path fill="#000" transform="translate(-0.64, 25.76)" d="M0.64-22.24C0.64-21.25 1.09-20.16 1.66-19.62C1.95-19.78 2.34-19.87 2.75-20C2.72-19.94 2.72-19.87 2.69-19.81C1.70-16.26 0.99-11.97 0.99-7.42C0.99-6.21 1.06-4.96 1.15-3.68C1.09-3.49 1.09-3.26 1.09-3.04C1.09-1.95 1.66-0.74 2.24-0.10C3.33-0.54 4.96-0.74 6.72-0.74C9.41-0.74 12.42-0.58 14.27 0.13C14.98-0.26 15.42-1.66 15.42-3.01C15.42-4.16 15.10-5.28 14.34-5.57C13.12-6.02 11.26-5.95 9.22-5.95C8.35-5.95 7.49-5.92 6.62-5.82C6.59-6.30 6.59-6.78 6.59-7.26C6.59-8.22 6.62-9.47 6.72-10.40C7.55-10.50 8.42-10.59 9.25-10.59C10.11-10.59 10.94-10.50 11.62-10.30C12.03-10.75 12.42-12.13 12.42-13.47C12.42-15.68 11.68-16.16 9.57-16.16C8.93-16.16 8.26-16.13 7.55-16C7.81-17.22 8.16-18.43 8.51-19.58C8.45-19.87 8.16-20.16 7.81-20.42C10.94-20.38 14.34-20 16.10-19.46C16.70-19.90 17.28-21.22 17.28-22.50C17.28-25.54 14.43-25.76 10.53-25.76C6.30-25.76 0.64-25.38 0.64-22.24ZM16.61-7.58C16.61-3.33 18.27 0.22 22.11 0.22C23.90 0.22 25.09-0.83 25.89-2.50C26.82-0.64 28.38 0.19 29.98 0.19C34.94 0.19 38.50-7.74 32.45-7.74C32.45-7.20 31.94-4.70 30.82-4.70C29.89-4.70 29.70-5.79 29.70-7.20C29.70-9.98 30.59-14.46 31.52-16.29C31.07-16.96 29.66-17.66 28.26-17.66C26.88-17.66 26.11-17.22 25.73-16.03C25.25-17.06 24.03-17.79 22.46-17.79C18.05-17.79 16.61-12.26 16.61-7.58ZM21.79-8.42C21.79-10.14 22.37-13.06 23.52-13.06C24.45-13.06 24.86-11.04 24.77-9.50C24.58-6.05 23.74-4.67 23.17-4.67C22.27-4.67 21.79-6.85 21.79-8.42ZM32.45-11.81C32.45-6.02 38.43-6.78 38.43-5.18C38.43-4.83 38.18-4.38 37.57-4.38C36.64-4.38 35.23-5.44 34.85-6.82C33.73-5.95 33.15-4.61 33.15-3.42C33.15-1.09 35.74 0.22 38.11 0.22C41.12 0.22 43.74-1.73 43.74-4.96C43.74-10.30 37.79-8.64 37.79-11.87C37.79-12.93 38.24-13.50 38.59-13.50C38.94-13.50 39.30-12.99 39.30-11.78C39.30-11.52 39.30-11.26 39.26-10.94C39.52-10.59 40.19-10.40 40.93-10.40C42.82-10.40 43.65-11.20 43.65-12.99C43.65-16.19 40.83-18.18 38.30-18.18C34.91-18.18 32.45-15.58 32.45-11.81ZM44.03-9.09C44.03-4.58 45.02 0.06 48.96 0.06C50.18 0.06 51.39-0.48 52.26-1.50C52.29-0.99 52.32-0.42 52.32 0.13C52.32 2.37 51.94 4.64 50.75 4.64C50.14 4.64 49.79 4.13 49.79 3.58C49.79 3.23 49.92 2.88 50.24 2.66C49.73 2.11 49.09 1.89 48.48 1.89C47.04 1.89 45.63 3.14 45.63 4.99C45.63 7.46 47.71 8.93 50.50 8.93C55.36 8.93 57.60 4.58 57.60-0.70C57.60-1.38 57.41-5.12 57.41-6.78C57.41-12.90 58.21-15.90 58.21-15.90C57.86-16.80 56.45-17.38 55.10-17.38C51.71-17.38 51.74-12.90 51.84-7.71C51.71-5.76 51.17-4.64 50.59-4.64C50.05-4.64 49.47-5.76 49.41-8.22C49.34-10.40 49.92-13.76 50.69-15.97C50.53-16.70 48.83-17.34 47.36-17.34C46.34-17.34 45.41-17.02 45.15-16.26C44.54-14.34 44.03-11.97 44.03-9.09ZM59.04-21.57C59.04-19.97 59.55-18.30 60.58-18.40L60.96-18.62C60.16-13.38 59.71-9.92 59.71-6.50C59.71-2.66 59.58-0.10 62.91-0.10C64.22-0.10 65.50-0.61 65.86-1.38C65.57-3.49 65.47-5.41 65.47-7.26C65.47-7.78 65.50-8.29 65.50-8.80C65.63-8.67 65.76-8.58 65.89-8.48C66.46-5.06 68.93 0.29 71.84 0.29C73.54 0.29 75.23-1.09 75.68-2.75C73.38-4.64 71.71-6.21 70.53-8.61C73.66-10.56 75.10-15.10 75.10-17.98C75.10-21.79 72.16-25.70 66.43-25.70C64.58-25.70 62.40-25.28 59.97-24.29C59.36-24.03 59.04-22.82 59.04-21.57ZM65.31-20.35C65.98-20.51 66.69-20.61 67.30-20.61C69.02-20.61 70.34-19.84 70.14-17.54C70.02-15.52 68.06-12.22 65.70-11.42C65.92-14.11 66.37-16.67 66.85-19.33C66.46-19.84 65.92-20.19 65.31-20.35ZM75.78-9.09C75.78-4.42 76.70 0.06 81.28 0.06C84.35 0.06 86.56-2.37 86.56-5.41C86.56-7.36 85.22-7.65 83.52-7.74C83.30-5.92 82.69-4.74 82.14-4.74C81.60-4.74 81.22-5.76 81.15-8.22C81.09-10.40 81.50-13.76 82.18-15.97C82.02-16.70 80.32-17.34 78.85-17.34C77.82-17.34 76.83-17.02 76.64-16.26C76.16-14.34 75.78-11.97 75.78-9.09ZM77.57-20.61C77.57-22.05 78.75-23.23 80.19-23.23C81.63-23.23 82.82-22.05 82.82-20.61C82.82-19.17 81.63-17.98 80.19-17.98C78.75-17.98 77.57-19.17 77.57-20.61ZM83.36-8.29C83.36-3.81 84.96 0 88.99 0C90.85 0 92.06-1.12 92.86-2.85C94.05-0.77 95.90 0.13 97.70 0.13C100.80 0.13 102.91-2.37 102.91-5.41C102.91-7.36 101.57-7.65 99.87-7.74C99.65-5.92 98.91-4.74 98.24-4.74C97.06-4.74 96.83-7.49 96.83-9.25C96.83-13.57 97.89-19.04 98.59-21.09C98.43-21.82 96.74-22.46 95.26-22.46C94.24-22.46 93.31-22.14 93.06-21.38C92.74-20.42 92.35-18.72 92.03-16.74C91.68-17.44 90.21-17.95 88.99-17.95C84.61-17.95 83.36-12.90 83.36-8.29ZM88.54-8.74C88.54-11.81 89.25-12.67 90.14-12.67C90.91-12.67 91.42-11.71 91.42-9.47C91.42-7.74 90.98-5.02 89.79-5.02C89.15-5.02 88.54-6.27 88.54-8.74ZM99.71-8C99.71-2.91 103.20 0.32 108.13 0.32C109.38 0.32 110.59 0.06 111.62-0.35C111.78-0.29 111.97-0.26 112.13-0.26C116.38-0.26 117.57-4.51 117.57-12.45C118.43-12.45 118.75-12.48 119.68-12.58C119.17-10.78 118.82-8.70 118.82-6.75C118.82-2.50 120.58 0.19 124.51 0.19C127.20 0.19 130.37-1.44 130.37-5.18C130.37-6.72 128.54-7.74 127.23-7.74C127.23-7.74 126.59-4.70 125.31-4.70C124.29-4.70 124.13-5.95 124.13-7.20C124.13-9.66 124.93-13.47 126.18-15.01C125.60-15.81 124.67-16.35 123.74-16.58C123.49-17.25 122.94-17.76 122.21-17.98C121.02-17.22 119.42-17.06 117.44-17.06C116.06-17.06 114.82-17.12 114.14-17.18C114.14-17.18 114.08-17.06 113.98-16.80C113.22-16.51 112.51-16.10 112.19-15.55C112.54-14.59 112.93-11.62 112.93-9.06C112.93-5.95 111.10-4.22 108.10-4.22C106.50-4.22 105.15-4.86 104.83-6.53C105.25-6.18 105.82-5.95 106.53-5.95C109.50-5.95 111.04-9.06 111.04-12.38C111.04-15.52 109.25-18.02 106.53-18.02C102.18-18.02 99.71-12.90 99.71-8ZM104.80-9.31C105.02-11.10 105.63-13.31 106.56-13.31C106.88-13.31 107.10-12.93 107.10-12.13C107.10-10.05 105.89-9.47 104.80-9.31Z"/></svg>