<svg id="mainsvg" xmlns="http://www.w3.org/2000/svg" xmlns:xlink="http://www.w3.org/1999/xlink" version="1.1" x="0px" y="0px" enable-background="new 0 0 200 162.5" xml:space="preserve" viewBox="0 0 142 24"><path fill="#000" transform="translate(-1.472, 22.72)" d="M1.95-0.96C1.63-0.96 1.47-0.80 1.47-0.48C1.47-0.16 1.63 0 1.95 0L8.03 0C8.35 0 8.51-0.16 8.51-0.48C8.51-0.80 8.35-0.96 8.03-0.96L6.11-0.96C5.79-0.96 5.63-1.12 5.63-1.44L5.63-20.32C5.63-20.67 5.86-20.64 5.95-20.48L19.07-0.48C19.26-0.16 19.52 0 19.87 0L23.39 0C23.71 0 23.87-0.16 23.87-0.48C23.87-0.80 23.71-0.96 23.39-0.96L21.15-0.96C20.83-0.96 20.67-1.12 20.67-1.44L20.67-20.96C20.67-21.28 20.83-21.44 21.15-21.44L23.39-21.44C23.71-21.44 23.87-21.60 23.87-21.92C23.87-22.24 23.71-22.40 23.39-22.40L17.31-22.40C16.99-22.40 16.83-22.24 16.83-21.92C16.83-21.60 16.99-21.44 17.31-21.44L19.23-21.44C19.55-21.44 19.71-21.28 19.71-20.96L19.71-2.08C19.71-1.73 19.49-1.76 19.39-1.92L6.27-21.92C6.08-22.24 5.82-22.40 5.47-22.40L1.95-22.40C1.63-22.40 1.47-22.24 1.47-21.92C1.47-21.60 1.63-21.44 1.95-21.44L4.19-21.44C4.51-21.44 4.67-21.28 4.67-20.96L4.67-1.44C4.67-1.12 4.51-0.96 4.19-0.96L1.95-0.96ZM26.78-0.96C26.46-0.96 26.30-0.80 26.30-0.48C26.30-0.16 26.46 0 26.78 0L33.18 0C33.50 0 33.66-0.16 33.66-0.48C33.66-0.80 33.50-0.96 33.18-0.96L30.94-0.96C30.62-0.96 30.46-1.12 30.46-1.44L30.46-15.52C30.46-15.84 30.30-16 29.98-16L26.78-16C26.46-16 26.30-15.84 26.30-15.52C26.30-15.20 26.46-15.04 26.78-15.04L29.02-15.04C29.34-15.04 29.50-14.88 29.50-14.56L29.50-1.44C29.50-1.12 29.34-0.96 29.02-0.96ZM28.90-18.91C29.41-18.43 30.24-18.43 30.72-18.91C31.23-19.42 31.23-20.26 30.72-20.74C30.24-21.25 29.41-21.25 28.90-20.74C28.42-20.26 28.42-19.42 28.90-18.91ZM35.46-0.96C35.14-0.96 34.98-0.80 34.98-0.48C34.98-0.16 35.14 0 35.46 0L41.54 0C41.86 0 42.02-0.16 42.02-0.48C42.02-0.80 41.86-0.96 41.54-0.96L39.62-0.96C39.26-0.96 39.07-1.18 39.30-1.44L43.30-7.01C43.46-7.23 43.58-7.23 43.74-7.01L47.78-1.44C48.00-1.18 47.81-0.96 47.46-0.96L45.54-0.96C45.22-0.96 45.06-0.80 45.06-0.48C45.06-0.16 45.22 0 45.54 0L51.62 0C51.94 0 52.10-0.16 52.10-0.48C52.10-0.80 51.94-0.96 51.62-0.96L49.70-0.96C49.44-0.96 49.18-1.12 48.90-1.44L44.32-7.81C44.19-8 44.19-8.19 44.32-8.38L48.74-14.56C48.93-14.88 49.18-15.04 49.54-15.04L51.46-15.04C51.78-15.04 51.94-15.20 51.94-15.52C51.94-15.84 51.78-16 51.46-16L45.38-16C45.06-16 44.90-15.84 44.90-15.52C44.90-15.20 45.06-15.04 45.38-15.04L47.30-15.04C47.65-15.04 47.84-14.82 47.62-14.56L43.74-9.22C43.58-8.99 43.46-8.99 43.30-9.22L39.46-14.56C39.23-14.82 39.42-15.04 39.78-15.04L41.70-15.04C42.02-15.04 42.18-15.20 42.18-15.52C42.18-15.84 42.02-16 41.70-16L35.62-16C35.30-16 35.14-15.84 35.14-15.52C35.14-15.20 35.30-15.04 35.62-15.04L37.54-15.04C37.89-15.04 38.14-14.88 38.34-14.56L42.75-8.38C42.88-8.19 42.88-8 42.75-7.81L38.18-1.44C37.89-1.12 37.63-0.96 37.38-0.96L35.46-0.96ZM54.46-0.96C54.14-0.96 53.98-0.80 53.98-0.48C53.98-0.16 54.14 0 54.46 0L60.86 0C61.18 0 61.34-0.16 61.34-0.48C61.34-0.80 61.18-0.96 60.86-0.96L58.62-0.96C58.30-0.96 58.14-1.12 58.14-1.44L58.14-15.52C58.14-15.84 57.98-16 57.66-16L54.46-16C54.14-16 53.98-15.84 53.98-15.52C53.98-15.20 54.14-15.04 54.46-15.04L56.70-15.04C57.02-15.04 57.18-14.88 57.18-14.56L57.18-1.44C57.18-1.12 57.02-0.96 56.70-0.96ZM56.58-18.91C57.09-18.43 57.92-18.43 58.40-18.91C58.91-19.42 58.91-20.26 58.40-20.74C57.92-21.25 57.09-21.25 56.58-20.74C56.10-20.26 56.10-19.42 56.58-18.91ZM71.14-0.64C69.18-0.64 67.62-1.31 66.40-2.62C65.34-3.81 64.74-5.34 64.61-7.20C64.58-7.52 64.74-7.68 65.09-7.68L77.70-7.68C78.34-7.68 78.66-8 78.66-8.64L78.66-9.12C78.66-11.10 77.95-12.80 76.54-14.21C75.14-15.62 73.34-16.32 71.14-16.32C68.86-16.32 67.07-15.55 65.70-14.02C64.32-12.45 63.62-10.43 63.62-8C63.62-5.57 64.32-3.55 65.70-1.98C67.07-0.45 68.86 0.32 71.14 0.32C74.62 0.32 76.54-1.12 77.66-2.14C77.89-2.34 77.92-2.56 77.70-2.82C77.47-3.04 77.28-3.20 76.99-2.94C76.03-2.08 74.46-0.64 71.14-0.64ZM64.64-9.12C64.80-10.78 65.41-12.19 66.40-13.31C67.62-14.69 69.18-15.36 71.14-15.36C73.02-15.36 74.56-14.75 75.81-13.50C77.06-12.29 77.70-10.82 77.70-9.12C77.70-8.80 77.54-8.64 77.22-8.64L65.09-8.64C64.74-8.64 64.61-8.80 64.64-9.12ZM84.90-2.91C86.85-0.77 89.44 0.32 92.67 0.32C95.90 0.32 98.50-0.77 100.45-2.91C102.40-5.09 103.39-7.84 103.39-11.20C103.39-14.56 102.40-17.31 100.45-19.46C98.50-21.63 95.90-22.72 92.67-22.72C89.44-22.72 86.85-21.63 84.90-19.46C82.94-17.31 81.95-14.56 81.95-11.20C81.95-7.84 82.94-5.09 84.90-2.91ZM85.60-18.78C87.39-20.77 89.76-21.76 92.67-21.76C95.58-21.76 97.95-20.77 99.74-18.78C101.54-16.80 102.43-14.27 102.43-11.20C102.43-8.13 101.54-5.60 99.74-3.62C97.95-1.63 95.58-0.64 92.67-0.64C89.76-0.64 87.39-1.63 85.60-3.62C83.81-5.60 82.91-8.13 82.91-11.20C82.91-14.27 83.81-16.80 85.60-18.78ZM106.88-0.96C106.56-0.96 106.40-0.80 106.40-0.48C106.40-0.16 106.56 0 106.88 0L112.96 0C113.28 0 113.44-0.16 113.44-0.48C113.44-0.80 113.28-0.96 112.96-0.96L111.04-0.96C110.72-0.96 110.56-1.12 110.56-1.44L110.56-11.04C111.04-11.84 111.58-12.54 112.22-13.18C113.66-14.62 115.20-15.36 116.80-15.36C120.10-15.36 122.08-13.54 122.08-9.92L122.08-1.44C122.08-1.12 121.92-0.96 121.60-0.96L119.68-0.96C119.36-0.96 119.20-0.80 119.20-0.48C119.20-0.16 119.36 0 119.68 0L125.76 0C126.08 0 126.24-0.16 126.24-0.48C126.24-0.80 126.08-0.96 125.76-0.96L123.52-0.96C123.20-0.96 123.04-1.12 123.04-1.44L123.04-9.92C123.04-14.05 120.74-16.32 116.80-16.32C114.72-16.32 112.80-15.36 111.07-13.41C110.72-13.06 110.56-13.31 110.56-13.73L110.56-15.52C110.56-15.84 110.40-16 110.08-16L106.88-16C106.56-16 106.40-15.84 106.40-15.52C106.40-15.20 106.56-15.04 106.88-15.04L109.12-15.04C109.44-15.04 109.60-14.88 109.60-14.56L109.60-1.44C109.60-1.12 109.44-0.96 109.12-0.96L106.88-0.96ZM135.81-0.64C133.86-0.64 132.29-1.31 131.07-2.62C130.02-3.81 129.41-5.34 129.28-7.20C129.25-7.52 129.41-7.68 129.76-7.68L142.37-7.68C143.01-7.68 143.33-8 143.33-8.64L143.33-9.12C143.33-11.10 142.62-12.80 141.22-14.21C139.81-15.62 138.02-16.32 135.81-16.32C133.54-16.32 131.74-15.55 130.37-14.02C128.99-12.45 128.29-10.43 128.29-8C128.29-5.57 128.99-3.55 130.37-1.98C131.74-0.45 133.54 0.32 135.81 0.32C139.30 0.32 141.22-1.12 142.34-2.14C142.56-2.34 142.59-2.56 142.37-2.82C142.14-3.04 141.95-3.20 141.66-2.94C140.70-2.08 139.14-0.64 135.81-0.64ZM129.31-9.12C129.47-10.78 130.08-12.19 131.07-13.31C132.29-14.69 133.86-15.36 135.81-15.36C137.70-15.36 139.23-14.75 140.48-13.50C141.73-12.29 142.37-10.82 142.37-9.12C142.37-8.80 142.21-8.64 141.89-8.64L129.76-8.64C129.41-8.64 129.28-8.80 129.31-9.12Z"/></svg>