<svg id="mainsvg" xmlns="http://www.w3.org/2000/svg" xmlns:xlink="http://www.w3.org/1999/xlink" version="1.1" x="0px" y="0px" enable-background="new 0 0 200 162.5" xml:space="preserve" viewBox="0 0 100 23"><path fill="#000" transform="translate(-0.625, 22.4375)" d="M0.63 0.31L0.63-22.44L3.52-22.44L3.52 0.31L0.63 0.31ZM7.97-19.52L7.97-8.28Q9.89-8.36 11.45-10L11.45-10Q13.02-11.64 13.02-13.91L13.02-13.91Q13.02-16.16 11.45-17.80L11.45-17.80Q9.89-19.44 7.97-19.52L7.97-19.52ZM15.92-13.91L15.92-13.91Q15.92-11.59 14.75-9.59L14.75-9.59Q13.63-7.67 12.16-6.81L12.16-6.81Q13.56-5.98 14.69-4.14L14.69-4.14Q15.83-2.23 15.92 0.31L15.92 0.31L13.03 0.31Q12.91-2.16 11.36-3.70L11.36-3.70Q9.81-5.25 7.97-5.34L7.97-5.34L7.97 0.31L5.08 0.31L5.08-22.44L7.97-22.44L7.97-22.42Q11.11-22.31 13.50-19.83L13.50-19.83Q15.92-17.34 15.92-13.91ZM28.86-2.58L28.86-2.58Q32.36-2.58 34.86-5.06L34.86-5.06Q37.34-7.56 37.34-11.06L37.34-11.06Q37.34-14.56 34.86-17.06L34.86-17.06Q32.36-19.55 28.86-19.55L28.86-19.55Q25.36-19.55 22.86-17.06L22.86-17.06Q20.38-14.56 20.38-11.06L20.38-11.06Q20.38-7.56 22.86-5.06L22.86-5.06Q25.36-2.58 28.86-2.58ZM28.86-22.44L28.86-22.44Q33.56-22.44 36.91-19.11L36.91-19.11Q40.23-15.77 40.23-11.06L40.23-11.06Q40.23-6.36 36.91-3.02L36.91-3.02Q33.56 0.31 28.86 0.31L28.86 0.31Q24.16 0.31 20.81-3.02L20.81-3.02Q17.48-6.36 17.48-11.06L17.48-11.06Q17.48-15.77 20.81-19.11L20.81-19.11Q24.16-22.44 28.86-22.44ZM46.64-22.44L46.64-22.44Q48.66-22.44 50.08-21.02L50.08-21.02Q51.50-19.59 51.50-17.59L51.50-17.59L51.50 0.31L48.61 0.31L48.61-17.59Q48.61-18.39 48.03-18.97L48.03-18.97Q47.45-19.55 46.64-19.55L46.64-19.55Q45.84-19.55 45.27-18.97L45.27-18.97Q44.69-18.39 44.69-17.59L44.69-17.59L44.69 0.31L41.80 0.31L41.80-17.59Q41.80-19.59 43.22-21.02L43.22-21.02Q44.64-22.44 46.64-22.44ZM53.06-11.06L53.06-11.06Q53.06-15.77 56.39-19.11L56.39-19.11Q59.73-22.44 64.75-22.44L64.75-22.44L64.75-19.55Q60.94-19.55 58.44-17.06L58.44-17.06Q55.95-14.56 55.95-11.06L55.95-11.06Q55.95-7.56 58.44-5.06L58.44-5.06Q60.94-2.58 64.75-2.58L64.75-2.58L64.75 0.31Q59.73 0.31 56.39-3.02L56.39-3.02Q53.06-6.36 53.06-11.06ZM66.31-22.44L69.20-22.44L69.20-2.58L74.31-2.58L74.31 0.31L66.31 0.31L66.31-22.44ZM78.77-8.25L82.69-8.25L82.69-17.59Q82.69-18.39 82.11-18.97L82.11-18.97Q81.53-19.55 80.72-19.55L80.72-19.55Q79.92-19.55 79.34-18.97L79.34-18.97Q78.77-18.39 78.77-17.59L78.77-17.59L78.77-8.25ZM80.72-22.44L80.72-22.44Q82.73-22.44 84.16-21.02L84.16-21.02Q85.58-19.59 85.58-17.59L85.58-17.59L85.58 0.31L82.69 0.31L82.69-5.36L78.77-5.36L78.77 0.31L75.88 0.31L75.88-17.59Q75.88-19.59 77.30-21.02L77.30-21.02Q78.72-22.44 80.72-22.44ZM90.03-19.42L90.03-2.70Q92.83-3.06 94.94-5.44L94.94-5.44Q97.06-7.86 97.06-11.06L97.06-11.06Q97.06-14.27 94.94-16.69L94.94-16.69Q92.83-19.06 90.03-19.42L90.03-19.42ZM87.14-22.44L88.59-22.44Q93.30-22.44 96.63-19.11L96.63-19.11Q99.97-15.77 99.97-11.06L99.97-11.06Q99.97-6.36 96.63-3.02L96.63-3.02Q93.30 0.31 88.59 0.31L88.59 0.31L87.14 0.31L87.14-22.44Z"/></svg>