<svg id="mainsvg" xmlns="http://www.w3.org/2000/svg" xmlns:xlink="http://www.w3.org/1999/xlink" version="1.1" x="0px" y="0px" enable-background="new 0 0 200 162.5" xml:space="preserve" viewBox="0 0 80 24"><path fill="#000" transform="translate(-2.816, 22.944)" d="M3.52 0Q3.20 0 3.01-0.21Q2.82-0.42 2.82-0.74L2.82-0.74L2.82-21.63Q2.82-21.98 3.01-22.19Q3.20-22.40 3.52-22.40L3.52-22.40L11.33-22.40Q14.98-22.40 17.04-20.69Q19.10-18.98 19.10-15.71L19.10-15.71Q19.10-13.28 17.89-11.71Q16.67-10.14 14.50-9.54L14.50-9.54L19.42-0.99Q19.52-0.80 19.52-0.64L19.52-0.64Q19.52-0.38 19.33-0.19Q19.14 0 18.88 0L18.88 0L17.47 0Q16.99 0 16.72-0.22Q16.45-0.45 16.22-0.86L16.22-0.86L11.52-9.06L5.82-9.06L5.82-0.74Q5.82-0.42 5.60-0.21Q5.38 0 5.06 0L5.06 0L3.52 0ZM5.82-11.68L11.20-11.68Q16.03-11.68 16.03-15.74L16.03-15.74Q16.03-19.81 11.20-19.81L11.20-19.81L5.82-19.81L5.82-11.68ZM29.54 0.32Q26.50 0.32 24.83-1.65Q23.17-3.62 23.17-6.88L23.17-6.88L23.17-15.90Q23.17-16.22 23.38-16.43Q23.58-16.64 23.90-16.64L23.90-16.64L25.38-16.64Q25.70-16.64 25.90-16.43Q26.11-16.22 26.11-15.90L26.11-15.90L26.11-7.04Q26.11-2.18 30.34-2.18L30.34-2.18Q32.38-2.18 33.58-3.47Q34.78-4.77 34.78-7.04L34.78-7.04L34.78-15.90Q34.78-16.22 34.99-16.43Q35.20-16.64 35.52-16.64L35.52-16.64L36.99-16.64Q37.31-16.64 37.52-16.43Q37.73-16.22 37.73-15.90L37.73-15.90L37.73-0.74Q37.73-0.42 37.52-0.21Q37.31 0 36.99 0L36.99 0L35.62 0Q35.30 0 35.09-0.21Q34.88-0.42 34.88-0.74L34.88-0.74L34.88-2.18Q33.95-0.93 32.70-0.30Q31.46 0.32 29.54 0.32L29.54 0.32ZM50.66 0.32Q47.20 0.32 45.38-2.11L45.38-2.11L45.38-0.74Q45.38-0.42 45.17-0.21Q44.96 0 44.64 0L44.64 0L43.30 0Q42.98 0 42.77-0.21Q42.56-0.42 42.56-0.74L42.56-0.74L42.56-21.98Q42.56-22.34 42.77-22.53Q42.98-22.72 43.30-22.72L43.30-22.72L44.74-22.72Q45.06-22.72 45.26-22.51Q45.47-22.30 45.47-21.98L45.47-21.98L45.47-14.59Q47.26-16.96 50.66-16.96L50.66-16.96Q54.02-16.96 55.70-14.77Q57.38-12.58 57.47-9.28L57.47-9.28Q57.50-8.93 57.50-8.32L57.50-8.32Q57.50-7.71 57.47-7.36L57.47-7.36Q57.38-4.06 55.70-1.87Q54.02 0.32 50.66 0.32L50.66 0.32ZM50.05-2.18Q52.35-2.18 53.41-3.62Q54.46-5.06 54.56-7.39L54.56-7.39Q54.59-7.71 54.59-8.32L54.59-8.32Q54.59-14.46 50.05-14.46L50.05-14.46Q47.87-14.46 46.70-13.04Q45.54-11.62 45.47-9.66L45.47-9.66Q45.44-9.31 45.44-8.42L45.44-8.42Q45.44-7.55 45.47-7.20L45.47-7.20Q45.54-5.15 46.67-3.66Q47.81-2.18 50.05-2.18L50.05-2.18ZM62.02-19.78Q61.70-19.78 61.49-19.98Q61.28-20.19 61.28-20.51L61.28-20.51L61.28-22.18Q61.28-22.50 61.49-22.72Q61.70-22.94 62.02-22.94L62.02-22.94L63.90-22.94Q64.22-22.94 64.45-22.72Q64.67-22.50 64.67-22.18L64.67-22.18L64.67-20.51Q64.67-20.19 64.45-19.98Q64.22-19.78 63.90-19.78L63.90-19.78L62.02-19.78ZM62.27 0Q61.95 0 61.74-0.21Q61.54-0.42 61.54-0.74L61.54-0.74L61.54-15.90Q61.54-16.22 61.74-16.43Q61.95-16.64 62.27-16.64L62.27-16.64L63.68-16.64Q64.00-16.64 64.21-16.43Q64.42-16.22 64.42-15.90L64.42-15.90L64.42-0.74Q64.42-0.42 64.21-0.21Q64.00 0 63.68 0L63.68 0L62.27 0ZM69.98 0Q69.66 0 69.46-0.21Q69.25-0.42 69.25-0.74L69.25-0.74L69.25-21.98Q69.25-22.34 69.46-22.53Q69.66-22.72 69.98-22.72L69.98-22.72L71.36-22.72Q71.68-22.72 71.89-22.51Q72.10-22.30 72.10-21.98L72.10-21.98L72.10-10.82L78.50-16.10Q78.98-16.45 79.17-16.54Q79.36-16.64 79.78-16.64L79.78-16.64L81.38-16.64Q81.66-16.64 81.84-16.46Q82.02-16.29 82.02-15.97L82.02-15.97Q82.02-15.68 81.66-15.36L81.66-15.36L74.18-9.22L82.46-1.28Q82.82-0.93 82.82-0.67L82.82-0.67Q82.82-0.38 82.64-0.19Q82.46 0 82.18 0L82.18 0L80.61 0Q80.13 0 79.92-0.10Q79.71-0.19 79.33-0.54L79.33-0.54L72.10-7.39L72.10-0.74Q72.10-0.42 71.89-0.21Q71.68 0 71.36 0L71.36 0L69.98 0Z"/></svg>