<svg id="mainsvg" xmlns="http://www.w3.org/2000/svg" xmlns:xlink="http://www.w3.org/1999/xlink" version="1.1" x="0px" y="0px" enable-background="new 0 0 200 162.5" xml:space="preserve" viewBox="0 0 134 30"><path fill="#000" transform="translate(-0.32, 23.712)" d="M27.23-13.76C27.23-18.08 24.06-20.54 19.17-20.51L0.32-20.38L0.74-11.84L3.58-11.84L3.78-3.20L1.34-3.10L1.63 0L20.80 0.06C23.74 0.06 26.24-1.70 26.24-4.86C26.24-8.03 23.71-8.45 23.71-8.45C23.71-8.45 27.23-9.44 27.23-13.76ZM18.85-10.62C18.85-9.89 18.50-8.93 17.54-8.93L10.75-8.90L10.82-12.10L17.50-12.10C18.46-12.10 18.85-11.36 18.85-10.62ZM19.39-4.74C19.39-3.74 18.75-3.07 17.89-3.07L10.62-3.07L10.62-6.11L17.82-6.21C18.59-6.24 19.39-5.70 19.39-4.74ZM38.56-22.82L30.85-22.98L31.10-18.91L38.34-19.17ZM40.42-2.85L38.02-2.94L38.24-17.09L28.83-16.99L29.06-8.77L31.52-8.86L31.65-2.85L29.25-2.85L29.38-0.10L40.19 0ZM62.37-17.22L53.57-17.18L53.44-11.78C53.44-11.78 52.26-17.60 48.22-17.60C44.13-17.60 41.70-14.11 41.70-8.32C41.70-2.02 45.76 0.29 48.77 0.29C51.71 0.29 53.44-2.53 53.44-2.53L53.63-0.32C53.73 1.06 52.83 2.14 50.50 2.14C48.16 2.14 43.36 1.06 43.36 1.06L43.49 4.10C43.49 4.10 50.59 5.73 53.50 5.73C56.45 5.73 59.94 3.65 60 1.12L60.29-8.64L62.24-8.54ZM53.25-8.10C53.25-5.92 51.74-3.17 50.02-3.17C48.32-3.17 47.74-4.58 47.74-5.95C47.74-7.30 48.64-9.09 50.62-9.09C52.35-9.09 53.25-8.10 53.25-8.10ZM76.74-22.85C75.42-23.14 73.79-23.71 70.98-23.71C67.39-23.71 65.22-21.09 65.76-16.26L63.33-16.42L63.58-8.70L66.24-8.80L66.24-2.94L63.68-2.82L63.81 0.06L75.52 0.10L75.52-2.91L72.99-2.85L72.83-9.09L75.68-9.34L76.19-15.65L72.64-15.94C72.35-18.40 74.37-18.66 76.06-18.40ZM87.26-22.82L79.55-22.98L79.81-18.91L87.04-19.17ZM89.12-2.85L86.72-2.94L86.94-17.09L77.54-16.99L77.76-8.77L80.22-8.86L80.35-2.85L77.95-2.85L78.08-0.10L88.90 0ZM110.56-17.57L102.43-17.38L102.53-13.54C102.18-14.98 100.80-17.73 96.19-17.73C91.97-17.73 90.08-15.04 90.08-11.58C90.08-8.10 92.58-6.05 96.22-5.50L102.69-4.48C105.34-4.06 105.60-2.59 102.66-2.59C99.90-2.59 98.66-3.74 98.40-4.42L92.10-4.48L92 0.58L95.74 0.32L95.74-2.34C96.48-1.18 98.37 0.35 102.11 0.35C106.24 0.35 108.77-1.31 108.77-3.81C108.77-6.11 107.14-7.01 104.38-7.74L99.10-9.18C97.15-9.73 97.28-11.55 99.26-11.55C101.18-11.55 102.08-10.53 102.43-9.31L109.92-9.12ZM133.79 0.03L133.73-2.88L131.87-2.88L132.13-10.40C132.29-14.88 129.95-17.60 126.91-17.60C123.97-17.60 121.66-15.49 120.61-11.42L120.45-22.82L111.68-22.85L111.84-14.21L113.89-14.18L114.24-2.82L111.74-2.91L111.84-0.06L123.39 0.03L123.39-3.07L120.61-2.94L120.61-7.68C121.66-9.25 125.82-11.17 125.60-7.20L125.22 0Z"/></svg>