<svg id="mainsvg" xmlns="http://www.w3.org/2000/svg" xmlns:xlink="http://www.w3.org/1999/xlink" version="1.1" x="0px" y="0px" enable-background="new 0 0 200 162.5" xml:space="preserve" viewBox="0 0 79 23"><path fill="#000" transform="translate(0, 22.40625)" d="M2.63-22.41L2.63-22.41L20.11-22.41Q21.55-22.41 22.48-20.73L22.48-20.73Q22.66-20.22 22.66-19.94L22.66-19.94L22.66-19.31Q22.66-18.19 20.66-16.50L20.66-16.50Q19.33-15.13 9.77-5.61L9.77-5.61L9.72-5.61L9.72-5.56L19.53-5.56Q21.92-5.56 22.56-3.53L22.56-3.53Q22.66-3.36 22.66-3.05L22.66-3.05L22.66-2.42Q22.66-1.13 21.05-0.22L21.05-0.22Q20.59 0 20.20 0L20.20 0L2.50 0Q1.08 0 0.17-1.72L0.17-1.72Q0-2.17 0-2.52L0-2.52L0-3Q0-4.30 2-5.95L2-5.95Q5.75-9.73 12.89-16.84L12.89-16.84L2.86-16.84Q0.88-16.84 0.09-18.83L0.09-18.83Q0-19.23 0-19.41L0-19.41L0-19.80Q0-21.50 2-22.31L2-22.31Q2.34-22.41 2.63-22.41ZM26.92-22.41L26.92-22.41L27.34-22.41Q28.78-22.41 29.73-20.81L29.73-20.81Q30-20.30 30-19.58L30-19.58L30-2.69Q30-0.86 27.84-0.05L27.84-0.05Q27.59 0 27.44 0L27.44 0L26.80 0Q25.33 0 24.41-1.72L24.41-1.72Q24.22-2.17 24.22-2.52L24.22-2.52L24.22-19.80Q24.22-21.50 26.28-22.31L26.28-22.31Q26.63-22.41 26.92-22.41ZM42.69-22.41L42.69-22.41L43.17-22.41Q44.91-22.41 45.97-19.64L45.97-19.64Q53.98-3.84 54.22-3.22L54.22-3.22L54.22-2.38Q54.22-0.95 52.34-0.09L52.34-0.09Q51.94 0 51.69 0L51.69 0L51.28 0Q49.53 0 48.45-2.86L48.45-2.86Q42.94-13.77 42.86-13.83L42.86-13.83Q36.69-1.42 36.34-0.92L36.34-0.92Q35.42 0 34.44 0L34.44 0L34.05 0Q32.63 0 31.70-1.72L31.70-1.72Q31.56-2.22 31.56-2.52L31.56-2.52L31.56-2.86Q31.56-3.48 33.16-6.47L33.16-6.47L40.69-21.34Q41.58-22.41 42.69-22.41ZM58.41-22.41L58.41-22.41L58.81-22.41Q60.02-22.41 61.27-21L61.27-21Q69.14-13.25 72.81-9.70L72.81-9.70L72.81-19.41Q72.81-21.50 74.73-22.28L74.73-22.28Q75.16-22.41 75.50-22.41L75.50-22.41L75.89-22.41Q77.33-22.41 78.27-20.73L78.27-20.73Q78.44-20.22 78.44-19.94L78.44-19.94L78.44-2.42Q78.44-1.13 76.83-0.22L76.83-0.22Q76.38 0 75.98 0L75.98 0L75.36 0Q74.16 0 72.38-2.08L72.38-2.08L61.41-12.80L61.41-2.69Q61.41-0.86 59.30-0.05L59.30-0.05Q59.06 0 58.91 0L58.91 0L58.28 0Q56.86 0 55.95-1.72L55.95-1.72Q55.78-2.17 55.78-2.52L55.78-2.52L55.78-19.80Q55.78-21.50 57.78-22.31L57.78-22.31Q58.13-22.41 58.41-22.41Z"/></svg>