<svg id="mainsvg" xmlns="http://www.w3.org/2000/svg" xmlns:xlink="http://www.w3.org/1999/xlink" version="1.1" x="0px" y="0px" enable-background="new 0 0 200 162.5" xml:space="preserve" viewBox="0 0 141 28"><path fill="#000" transform="translate(0, 25.9375)" d="M1.95 1.09L1.95 1.09Q1.80 1.09 1.70 0.84L1.70 0.84L1.61 0.59Q1.47 0.09 1.30-0.03L1.30-0.03Q1.19-0.13 0.88-0.13L0.88-0.13L0.50-0.11Q0.11-0.11 0.05-0.61L0.05-0.61L0-0.95Q0-1.48 0.66-1.48L0.66-1.48L0.81-1.52Q1.02-1.56 1.02-1.75L1.02-1.75Q1.02-2 0.92-2.44L0.92-2.44Q0.70-3.36 0.70-4.27L0.70-4.27Q0.70-5.97 0.80-8.45L0.80-8.45Q0.80-8.91 0.88-10.08L0.88-10.08L0.95-12.20Q0.97-12.44 1.09-12.66Q1.22-12.89 1.22-13.02L1.22-13.02Q1.22-13.09 1.19-13.19L1.19-13.19Q1.06-13.63 1.06-14.03L1.06-14.03L1.06-14.20Q1.42-19.48 1.42-20.25L1.42-20.25L1.44-20.36Q1.44-20.44 1.41-20.52L1.41-20.52Q1.23-20.95 1.23-21.39L1.23-21.39Q1.23-21.66 1.30-21.91L1.30-21.91L1.33-22.23Q1.48-23.61 1.69-25L1.69-25L2.67-25.02Q3.16-24.98 3.31-24.48L3.31-24.48Q3.86-22.77 3.98-20.97L3.98-20.97Q4.05-19.25 4.05-17.55L4.05-17.55Q4.05-15.41 3.95-13.97L3.95-13.97L3.91-12.77Q3.89-12.50 3.80-12.27Q3.72-12.03 3.72-11.88L3.72-11.88L3.73-11.75Q3.81-11.42 3.81-11.11L3.81-11.11Q3.81-10.86 3.77-10.61L3.77-10.61Q3.72-10.19 3.72-9.75L3.72-9.75L3.72-9.59Q3.72-9.22 3.66-8.84L3.66-8.84Q3.64-8.72 3.64-8.58L3.64-8.58L3.66-8.23Q3.69-7.92 3.69-7.59L3.69-7.59Q3.69-7.09 3.61-6.59L3.61-6.59Q3.56-6.33 3.56-6.08L3.56-6.08Q3.56-5.86 3.59-5.66L3.59-5.66L3.61-5.36Q3.61-5.03 3.54-4.70Q3.47-4.36 3.45-4.02L3.45-4.02Q3.44-3.61 3.36-3.19L3.36-3.19L3.28-2.58Q3.28-2.34 3.41-2.19L3.41-2.19Q3.59-1.98 6.48-1.98L6.48-1.98L6.97-1.98Q8.16-1.97 9.31-1.77L9.31-1.77Q9.61-1.72 9.91-1.69Q10.22-1.66 10.53-1.61L10.53-1.61Q10.78-1.56 10.78-1.36L10.78-1.36Q10.78-1.30 10.75-1.22L10.75-1.22Q10.59-0.86 10.34-0.61L10.34-0.61Q9.89-0.14 8.39-0.14L8.39-0.14L8.11-0.14Q7.02-0.20 5.92-0.20L5.92-0.20L5.05-0.19L3.67-0.17Q3.42-0.17 3.23-0.14L3.23-0.14Q2.77-0.14 2.68 0.27Q2.59 0.67 2.23 0.95L2.23 0.95Q2.08 1.09 1.95 1.09ZM18.47 1.78L18.47 1.78Q17.83 1.78 16.81 1.38L16.81 1.38L16.73 1.34Q16.53 1.13 16.30 0.92L16.30 0.92Q15.80 0.44 15.34-0.08L15.34-0.08Q14.77-0.84 14.56-1.72Q14.36-2.59 14.33-3.53L14.33-3.53L14.33-3.55Q14.33-3.67 14.36-3.70L14.36-3.70Q14.53-3.98 14.53-4.25L14.53-4.25Q14.53-4.55 14.34-5.33L14.34-5.33Q14.31-5.50 14.31-5.70L14.31-5.70Q14.31-5.83 14.36-5.97Q14.41-6.11 14.41-6.28L14.41-6.28L14.39-6.48Q14.28-7.27 14.28-8.03L14.28-8.03L14.38-10.11Q14.41-10.45 14.41-10.81L14.41-10.81Q14.41-11.38 14.33-11.94L14.33-11.94Q14.28-12.17 14.28-12.41L14.28-12.41Q14.28-12.52 14.47-14.52L14.47-14.52L14.47-14.53L14.48-14.63Q14.48-14.75 14.52-14.75L14.52-14.75Q14.53-14.75 14.53-14.73L14.53-14.73Q14.53-14.75 14.50-14.77L14.50-14.77L14.48-14.73Q14.45-14.70 14.45-14.67L14.45-14.67Q14.45-14.61 14.47-14.56L14.47-14.56L14.47-14.52L14.41-14.52Q14.36-14.52 14.31-14.48Q14.27-14.45 14.21-14.40Q14.16-14.34 14.10-14.31Q14.05-14.28 14-14.28L14-14.28L13.94-14.28Q14.11-15.63 14.25-16.98L14.25-16.98Q14.41-18.78 14.69-20.58L14.69-20.58Q14.77-21.11 14.80-21.66L14.80-21.66Q14.83-22.09 15.06-24.27L15.06-24.27Q15.11-24.61 15.41-24.70Q15.72-24.78 16.03-24.80L16.03-24.80Q17.27-24.91 18.52-25.08L18.52-25.08Q20.55-25.36 22.61-25.45L22.61-25.45Q23.42-25.47 25.11-25.69L25.11-25.69L25.48-25.70Q26.52-25.70 26.75-25.47L26.75-25.47Q26.89-25.30 26.97-24.78L26.97-24.78Q26.17-24.58 25.36-24.58L25.36-24.58Q25.05-24.58 24.73-24.55L24.73-24.55Q23.63-24.47 22.53-24.42L22.53-24.42Q20.89-24.38 19.24-24.20Q17.59-24.02 17.45-23.86Q17.31-23.70 17.31-23.39L17.31-23.39Q17.30-22.70 17.25-22.02L17.25-22.02Q17.19-21.06 17.19-20.13L17.19-20.13Q17.19-19.13 17.22-18.88L17.22-18.88Q17.34-18.36 17.34-17.84L17.34-17.84Q17.34-17.33 17.22-16.81L17.22-16.81L17.20-16.69L17.22-16.56L17.23-16.02Q17.23-15.08 17.03-14.16L17.03-14.16Q17-13.91 17-13.63L17-13.63L17-13.45L16.98-13.30Q16.98-13.16 17-13.05Q17.02-12.95 17.02-12.86L17.02-12.86Q17.02-12.64 16.95-12.42L16.95-12.42L16.95-12.34Q16.95-12.16 17.17-12.14L17.17-12.14Q17.44-12.14 17.70-12.17L17.70-12.17Q19.39-12.39 21.09-12.45L21.09-12.45Q21.66-12.45 22.53-12.63L22.53-12.63Q23.75-12.88 24.70-12.88L24.70-12.88Q24.91-12.88 25.11-12.83L25.11-12.83Q25.13-12.81 25.16-12.81L25.16-12.81Q25.31-12.77 25.46-12.68Q25.61-12.59 25.61-12.31L25.61-12.31Q25.61-11.89 25.19-11.73L25.19-11.73L25.09-11.72Q22.58-10.94 17.53-10.78L17.53-10.78Q17.14-10.78 17.03-10.66Q16.92-10.55 16.92-10.08L16.92-10.08L16.91-9.69Q16.91-9.34 16.95-8.99Q17-8.64 17-8.25L17-8.25Q17-7.92 16.97-7.59Q16.94-7.27 16.94-6.95L16.94-6.95L16.95-6.52Q17.14-4.14 17.48-1.77L17.48-1.77L17.50-1.67Q17.52-1.45 17.58-1.27L17.58-1.27Q17.94-0.23 18.50-0.02L18.50-0.02Q18.77 0.08 19.09 0.08L19.09 0.08Q19.44 0.08 19.84-0.03L19.84-0.03Q21.34-0.44 22.94-1.58L22.94-1.58L23.08-1.66Q23.36-1.89 23.59-1.89L23.59-1.89Q23.70-1.89 23.81-1.84L23.81-1.84L23.89-1.83Q24.03-1.83 24.22-2.02L24.22-2.02Q24.53-2.25 24.67-2.39L24.67-2.39Q24.91-2.63 25.22-2.80L25.22-2.80L25.31-2.84Q25.45-2.94 25.63-2.94L25.63-2.94Q25.72-2.94 25.80-2.87Q25.89-2.80 25.89-2.72L25.89-2.72L25.88-2.67Q25.53-1.72 24.48-1.03L24.48-1.03Q22.83 0.02 21.16 1.03L21.16 1.03Q20.13 1.59 18.94 1.73L18.94 1.73Q18.70 1.78 18.47 1.78ZM42.67 1.27L42.67 1.27L42.64 1.27Q42.33 1.27 42.03 0.72L42.03 0.72Q41.55-0.34 41.41-1.88Q41.27-3.41 41.25-4.91L41.25-4.91Q41.23-5.88 41.19-6.66L41.19-6.66Q41.17-6.92 41.17-7.28L41.17-7.28L41.19-8.08L41.20-9.42Q41.19-10.06 41.11-10.38L41.11-10.38Q41.09-10.48 41.09-10.61L41.09-10.61Q41.09-10.77 41.13-10.95Q41.17-11.13 41.17-11.31L41.17-11.31L41.17-11.64Q41.17-14.48 41.42-17.28L41.42-17.28L41.44-17.92L41.44-18.47Q41.44-19.30 41.64-19.94L41.64-19.94Q41.66-19.98 41.66-20.05L41.66-20.05Q41.66-20.19 41.58-20.25L41.58-20.25Q41.44-20.17 41.36-19.95L41.36-19.95Q41.36-19.84 39.70-15.53L39.70-15.53Q38.89-13.52 38.50-11.34L38.50-11.34Q38.28-10.16 37.73-9.09L37.73-9.09Q37.52-8.66 37.09-8.32Q36.67-7.98 36.27-7.98L36.27-7.98Q36.20-7.98 35.95-8.01Q35.69-8.03 35.41-8.81L35.41-8.81Q35.09-9.72 34.73-10.61L34.73-10.61Q34.19-11.89 33.81-13.22L33.81-13.22Q33.63-13.98 33.52-14.30L33.52-14.30Q33.45-14.47 33.36-14.47L33.36-14.47Q33.27-14.47 33.08-14.34L33.08-14.34L33.05-14.33Q33.19-14.58 33.19-14.70L33.19-14.70Q33.19-14.86 33.09-14.86L33.09-14.86Q32.95-14.86 32.95-14.63L32.95-14.63Q32.95-14.59 32.97-14.56Q32.98-14.53 33.05-14.33L33.05-14.33Q33.17-14.08 33.17-13.64L33.17-13.64Q33.17-13.30 32.95-12.91L32.95-12.91L32.92-12.91Q32.94-12.91 32.94-12.89L32.94-12.89L32.94-12.88L32.66-12.38Q33.05-12.45 33.05-12.58L33.05-12.58Q33.05-12.67 32.94-12.88L32.94-12.88L32.95-12.91L33.06-12.84Q33.41-12.73 33.41-12.44L33.41-12.44L33.38-12.20Q33.17-11.08 33.17-10.30L33.17-10.30Q33.17-10.03 33.20-9.80L33.20-9.80L33.22-9.55Q33.22-9.20 33.14-9.08L33.14-9.08Q32.95-8.81 32.88-8.68Q32.80-8.55 32.80-8.34L32.80-8.34L32.80-8.20L32.86-8.20Q32.95-8.20 33.02-8.32Q33.09-8.44 33.19-8.45L33.19-8.45Q33.20-8.45 33.22-8.44Q33.23-8.42 33.26-8.39Q33.28-8.36 33.28-8.34L33.28-8.34L33.27-8.16Q33.17-5.94 33.02-5.66Q32.88-5.38 32.88-5.17L32.88-5.17Q32.88-4.92 33.20-4.78L33.20-4.78Q33.33-4.72 33.33-4.56L33.33-4.56Q33.33-4.48 33.30-4.41L33.30-4.41Q33.06-4.08 33.06-3.67L33.06-3.67L33.06-3.53Q32.91-3.20 32.80-2.84Q32.69-2.47 32.52-2.14Q32.36-1.81 32.03-1.56L32.03-1.56Q31.80-1.41 31.59-1.41L31.59-1.41Q31.39-1.41 31.16-1.66Q30.92-1.92 30.80-2.48L30.80-2.48Q30.70-2.89 30.70-3.19L30.70-3.19Q30.70-3.31 30.72-3.42L30.72-3.42Q30.77-3.64 30.77-3.86L30.77-3.86Q30.77-4.11 30.70-4.36L30.70-4.36Q30.66-4.78 30.50-10.17L30.50-10.17Q30.34-15.02 30.34-15.92L30.34-15.92L30.45-18.11Q30.27-18.80 30.27-19.70L30.27-19.70Q30.27-19.98 30.29-20.31Q30.31-20.64 30.31-20.97L30.31-20.97Q30.31-21.84 30.09-22.50L30.09-22.50Q30.98-22.95 31.36-22.95L31.36-22.95Q31.50-22.95 31.73-22.89Q31.97-22.83 32.14-22.36L32.14-22.36Q32.44-21.59 32.98-21.03L32.98-21.03Q33.59-20.25 34.17-18.91L34.17-18.91Q34.89-17.23 35.31-15.36L35.31-15.36Q35.53-14.36 35.83-13.38L35.83-13.38Q36-12.81 36.17-12L36.17-12Q36.53-10.31 36.77-9.98L36.77-9.98Q36.80-10.05 36.84-10.10Q36.89-10.16 36.92-10.22L36.92-10.22Q37.33-11.30 37.75-12.36L37.75-12.36L40.31-19.06Q40.56-19.77 40.78-20.50L40.78-20.50Q41.16-21.88 41.78-23.05L41.78-23.05Q42.19-23.78 42.23-24.30L42.23-24.30Q42.23-24.45 42.28-24.55Q42.33-24.64 42.52-24.70L42.52-24.70Q42.92-24.84 43.23-25.06L43.23-25.06Q43.42-25.19 43.64-25.19L43.64-25.19Q43.80-25.19 44.12-25.16Q44.44-25.13 44.47-24.86L44.47-24.86Q44.50-24.73 44.50-24.59L44.50-24.59L44.47-24.27Q44.44-24.02 44.34-22.59L44.34-22.59Q44.13-19.63 44.05-17.30L44.05-17.30Q43.97-15.42 43.91-14.75L43.91-14.75L43.83-13.56Q43.83-12.23 43.72-11.41L43.72-11.41L43.70-11.25L43.70-11.16Q43.80-10.25 43.80-9.41L43.80-9.41Q43.80-8.72 43.73-8.09L43.73-8.09Q43.70-7.66 43.70-7.38L43.70-7.38Q43.70-7.03 43.75-6.94L43.75-6.94Q43.98-6.73 43.98-6.58L43.98-6.58Q43.98-6.42 43.89-6.23L43.89-6.23Q43.73-5.89 43.73-5.58L43.73-5.58L43.75-5.33Q43.84-4.50 43.84-4L43.84-4Q43.84-3.42 43.77-3.03L43.77-3.03Q43.73-2.91 43.73-2.81L43.73-2.81L43.73-2.75Q43.78-2.48 43.78-2.22L43.78-2.22Q43.78-1.88 43.69-1.42Q43.59-0.97 43.41-0.41Q43.23 0.14 43.12 0.69Q43 1.23 42.67 1.27ZM32.81-6.58L32.81-6.58Q32.88-6.58 32.89-6.77L32.89-6.77Q32.89-6.94 32.84-6.94L32.84-6.94Q32.78-6.94 32.67-6.72L32.67-6.72Q32.77-6.58 32.81-6.58ZM32.77-7.52L32.77-7.52Q32.83-7.52 32.83-7.59L32.83-7.59Q32.83-7.69 32.73-7.77L32.73-7.77Q32.69-7.67 32.69-7.61L32.69-7.61Q32.69-7.52 32.77-7.52ZM32.97-9.41L32.97-9.41Q33.05-9.41 33.05-9.52L33.05-9.52Q33.05-9.61 32.97-9.61L32.97-9.61Q32.92-9.61 32.84-9.52L32.84-9.52Q32.92-9.41 32.97-9.41ZM32.80-10.22L32.80-10.22Q32.84-10.22 32.86-10.27L32.86-10.27Q33.05-10.72 33.05-11.08L33.05-11.08Q33.05-11.38 32.84-11.70L32.84-11.70Q32.69-11.44 32.66-11.40Q32.63-11.36 32.63-11.35Q32.63-11.34 32.63-11.33L32.63-11.33L32.66-11.19Q32.66-10.70 32.64-10.34L32.64-10.34Q32.64-10.22 32.80-10.22ZM54.58-0.08L54.58-0.08Q54.52-0.08 54.37-0.09Q54.22-0.11 54.03-0.31L54.03-0.31Q53.92-0.41 53.73-0.44L53.73-0.44L53.55-0.48Q52.06-1.03 50.97-2.19L50.97-2.19Q50.86-2.33 50.69-2.38L50.69-2.38Q50.33-2.45 50.22-2.83L50.22-2.83Q50.16-2.98 50.02-3.11L50.02-3.11Q49.20-3.92 48.70-4.94L48.70-4.94L48.48-5.31Q48.17-5.78 48.17-6.33L48.17-6.33Q48.17-6.48 48.20-6.62Q48.23-6.75 48.23-6.86L48.23-6.86Q48.23-7.09 48.08-7.30L48.08-7.30Q47.80-7.70 47.79-8.18Q47.78-8.66 47.77-9.13L47.77-9.13Q47.70-10.02 47.70-10.91L47.70-10.91Q47.70-14.44 48.58-16.33L48.58-16.33Q48.73-16.70 48.95-17.73L48.95-17.73Q49.02-18.08 49.06-18.16L49.06-18.16Q49.39-18.77 49.66-19.41L49.66-19.41Q50-20.27 50.47-21.05L50.47-21.05Q51.06-22.16 52.25-22.73L52.25-22.73Q53.52-23.31 54.86-23.31L54.86-23.31Q55.22-23.31 56.13-23.16L56.13-23.16Q56.17-23.08 56.22-23.08L56.22-23.08Q56.28-23.08 56.33-23.16L56.33-23.16Q56.98-23.16 57.49-22.86Q58-22.56 58.47-22.16L58.47-22.16Q58.48-22.13 58.52-22.11L58.52-22.11Q58.64-21.78 58.80-21.47L58.80-21.47Q59.53-20.03 59.66-16.20L59.66-16.20Q59.66-16.11 59.64-16.03Q59.63-15.95 59.63-15.89L59.63-15.89Q59.63-15.78 59.67-15.69L59.67-15.69Q59.91-15.16 59.91-14.38L59.91-14.38Q59.91-14.09 59.88-13.80L59.88-13.80Q59.88-13.36 59.84-12.92L59.84-12.92L59.84-12.70Q59.84-11.88 59.64-11.06L59.64-11.06Q59.63-10.98 59.63-10.89L59.63-10.89L59.63-10.81Q59.69-10.27 59.69-9.72L59.69-9.72Q59.69-9.23 59.64-8.77L59.64-8.77Q59.59-8.19 59.59-7.61L59.59-7.61Q59.59-5.95 59.23-4.34L59.23-4.34Q58.77-1.80 56.45-0.59L56.45-0.59L56.25-0.50Q55.50-0.08 54.58-0.08ZM55.33-2.28L55.33-2.28Q55.59-2.28 55.81-2.47L55.81-2.47L55.91-2.55Q56.17-2.78 56.38-3.08L56.38-3.08Q56.97-3.86 57.25-4.81L57.25-4.81L57.27-4.91Q57.69-6.72 57.73-8.09L57.73-8.09Q57.77-9.25 58-10.39L58-10.39Q58.02-10.50 58.02-11.20L58.02-11.20Q58.02-13.92 57.88-16.66L57.88-16.66Q57.78-17.97 57.34-19.20L57.34-19.20Q57.22-19.64 56.83-19.88L56.83-19.88Q56.08-20.42 55.16-20.56L55.16-20.56Q54.80-20.61 54.45-20.67L54.45-20.67L54.05-20.73Q53.77-20.80 53.67-21.06L53.67-21.06L53.70-21.05Q53.61-21.13 53.61-21.20L53.61-21.20Q53.61-21.36 53.88-21.48L53.88-21.48Q53.91-21.50 53.95-21.52Q53.98-21.53 53.98-21.59L53.98-21.59Q53.98-21.63 53.95-21.66L53.95-21.66Q53.92-21.64 53.91-21.63Q53.89-21.63 53.86-21.60Q53.83-21.58 53.72-21.58L53.72-21.58Q53.45-21.58 53.45-21.89L53.45-21.89L53.45-21.92Q53.45-22.08 53.27-22.08L53.27-22.08L53.20-22.08Q52.67-21.94 52.42-21.44L52.42-21.44Q51.84-20.52 51.56-19.47L51.56-19.47Q51.36-18.66 51.11-17.88L51.11-17.88Q50.91-17.30 50.88-16.69L50.88-16.69Q50.84-16.16 50.73-15.60Q50.63-15.05 50.63-14.45L50.63-14.45L50.64-14.02Q50.47-13.55 50.47-13.08L50.47-13.08L50.48-12.80Q50.48-12.50 50.47-12.22L50.47-12.22L50.45-12.02Q50.45-11.77 50.53-11.53L50.53-11.53Q50.75-10.77 50.81-9.95L50.81-9.95L50.88-9.41Q51.03-8.22 51.03-7.80L51.03-7.80Q51.03-7.48 51-7.17L51-7.17Q50.97-7.06 50.97-6.95L50.97-6.95Q50.97-6.77 51.06-6.58L51.06-6.58Q51.31-6.13 51.45-5.64L51.45-5.64Q51.78-4.55 52.28-4.09L52.28-4.09L52.66-3.72Q53.69-2.69 55.09-2.31L55.09-2.31Q55.22-2.28 55.33-2.28ZM56.33-11.70L56.31-11.69L56.13-11.69L56.11-11.70L56.33-11.70ZM63.72 2L63.72 2Q63.48 2 63.31 1.67Q63.14 1.34 63.14 1.03L63.14 1.03Q63.14 0.83 63.20 0.64L63.20 0.64Q63.28 0.23 63.28-0.14L63.28-0.14L63.27-0.41Q63.27-1 63.32-1.50Q63.38-2 63.64-2.48L63.64-2.48Q63.83-2.80 63.83-3.17L63.83-3.17Q63.83-3.36 63.78-3.55Q63.73-3.73 63.73-3.89L63.73-3.89Q63.73-4.05 63.84-4.72L63.84-4.72L63.86-4.94Q63.86-5.03 63.83-5.15Q63.80-5.27 63.80-5.41L63.80-5.41Q63.80-5.64 63.94-5.86L63.94-5.86Q64.03-5.97 64.03-6.11L64.03-6.11L64.02-6.19Q63.98-6.34 63.98-6.50L63.98-6.50Q63.98-6.66 64.02-6.84Q64.05-7.02 64.05-7.22L64.05-7.22L64.03-7.67L64.03-7.81Q64.03-8.34 63.94-8.84L63.94-8.84Q63.89-9.13 63.89-9.39L63.89-9.39Q63.89-9.98 64.11-10.56L64.11-10.56Q64.23-10.84 64.23-11.02L64.23-11.02L64.22-11.16Q64.19-11.31 64.19-11.45L64.19-11.45Q64.19-11.66 64.25-11.84L64.25-11.84Q64.39-12.53 64.39-13.20L64.39-13.20L64.39-13.86Q64.39-14.09 64.30-14.31Q64.20-14.53 64.20-14.67L64.20-14.67L64.20-14.73Q64.23-14.98 64.23-15.25L64.23-15.25Q64.23-15.56 64.20-15.87Q64.16-16.17 64.16-16.44L64.16-16.44Q64.16-16.72 64.19-16.98L64.19-16.98Q64.23-17.45 64.23-17.94L64.23-17.94L64.25-18.72L64.28-19.11Q64.28-19.47 64.16-19.66L64.16-19.66Q64.13-19.72 64.13-19.98L64.13-19.98L64.30-23.48Q64.30-23.70 64.27-23.92L64.27-23.92Q64.50-24.09 64.80-24.19L64.80-24.19Q65.03-24.25 65.27-24.39L65.27-24.39Q65.41-24.48 65.58-24.48L65.58-24.48Q65.83-24.48 66.20-24.34L66.20-24.34L66.27-24.33Q66.58-24.22 66.66-23.78L66.66-23.78Q66.88-22.94 67.39-22.25L67.39-22.25L67.50-22.09Q68.16-21.02 68.58-19.83L68.58-19.83Q68.73-19.41 68.91-19L68.91-19Q69.50-17.45 69.83-15.83L69.83-15.83Q69.97-15.19 70.13-14.56L70.13-14.56Q70.69-12.16 70.94-11.36L70.94-11.36Q71.05-11 71.19-10.09L71.19-10.09Q71.56-8.13 72.31-5.88L72.31-5.88Q72.83-4.50 73.13-3.06L73.13-3.06Q73.16-2.92 73.23-2.84L73.23-2.84Q73.38-3.03 73.38-3.38L73.38-3.38L73.39-3.53Q73.52-5.27 73.52-6.98L73.52-6.98L73.52-7.38Q73.52-8.11 73.53-8.83L73.53-8.83Q73.59-10.89 73.59-11.45L73.59-11.45Q73.58-12.53 73.55-13.59L73.55-13.59L73.47-16.41Q73.47-17.58 73.58-18.75L73.58-18.75Q73.64-19.38 73.67-20.02L73.67-20.02Q73.78-22.47 74.58-24.91L74.58-24.91Q74.70-25.22 74.92-25.52L74.92-25.52Q75-25.61 75.07-25.72Q75.14-25.83 75.26-25.88Q75.38-25.94 75.50-25.94L75.50-25.94Q75.89-25.94 75.89-25.55L75.89-25.55Q75.89-25.11 75.81-24.69L75.81-24.69Q75.48-23.16 75.38-21.59L75.38-21.59Q75.38-21.28 75.32-21.09Q75.27-20.91 75.27-20.73L75.27-20.73Q75.27-20.58 75.31-20.41L75.31-20.41Q75.42-20.05 75.42-19.67L75.42-19.67Q75.42-19.27 75.28-18.86L75.28-18.86L75.27-18.86L75.25-18.78Q75.31-18.52 75.31-18.27L75.31-18.27Q75.31-18.05 75.27-17.80Q75.22-17.56 75.22-17.30L75.22-17.30L75.23-16.78Q75.23-16.36 75.13-15.34L75.13-15.34Q75.06-14.42 75.06-13.52L75.06-13.52Q75.06-12.98 75.08-12.47L75.08-12.47Q75.08-12.08 75.05-11.71Q75.02-11.34 74.98-9.89L74.98-9.89Q74.94-8.23 74.83-6.56L74.83-6.56Q74.75-5.48 74.70-4.39L74.70-4.39L74.63-2.58L74.61-1.64Q74.61-1.09 74.66-0.16L74.66-0.16Q74.66 0.56 74.06 0.81L74.06 0.81Q73.58 1.06 73.31 1.06L73.31 1.06Q73.23 1.06 73.07 1.02Q72.91 0.98 72.59 0.05L72.59 0.05Q72.17-1.03 71.88-2.16L71.88-2.16Q71.47-3.66 70.92-5.13L70.92-5.13L70.42-6.61Q69.47-9.31 68.14-14.09L68.14-14.09Q67.56-16.17 67.50-16.27L67.50-16.27L67.47-16.34Q67.22-16.22 67.22-15.84L67.22-15.84L67.16-14.44Q67.16-13.42 67.05-12.64L67.05-12.64L67.03-12.30L67.05-11.86L67.03-11.08Q67-10.80 67-10.50L67-10.50Q67-9.94 67.11-9.36L67.11-9.36L67.13-9.14Q67.13-8.83 66.67-6.63L66.67-6.63Q66.52-5.94 66.48-5.23L66.48-5.23Q66.44-3.80 65.91-2.45L65.91-2.45Q65.56-1.72 65.56-0.91L65.56-0.91L65.59-0.33Q65.59 0.31 65.06 0.81L65.06 0.81Q64.78 1.08 64.52 1.38L64.52 1.38Q64.31 1.61 64.11 1.80Q63.91 2 63.72 2ZM64.64-12.70L64.64-12.70Q64.72-12.78 64.73-12.84Q64.73-12.91 64.73-12.94L64.73-12.94Q64.72-13.02 64.69-13.06Q64.66-13.11 64.66-13.13L64.66-13.13Q64.56-13.03 64.56-12.88L64.56-12.88Q64.56-12.86 64.57-12.82Q64.58-12.78 64.61-12.75Q64.64-12.72 64.64-12.70ZM64.64-12.02L64.69-11.92L64.70-11.98Q64.70-12.03 64.67-12.06L64.67-12.06L64.67-12.09L64.64-12.02ZM64.45-8.31L64.45-8.31L64.52-8.33Q64.58-8.44 64.58-8.53L64.58-8.53Q64.58-8.64 64.55-8.72Q64.53-8.80 64.48-8.84L64.48-8.84Q64.47-8.78 64.45-8.76Q64.42-8.73 64.42-8.71Q64.42-8.69 64.41-8.66L64.41-8.66L64.39-8.48Q64.39-8.39 64.45-8.31ZM63.94-1.08L63.94-1.08Q64.27-1.39 64.27-1.72L64.27-1.72Q64.27-1.77 64.25-1.83Q64.23-1.89 64.20-1.95Q64.16-2 64.14-2.03L64.14-2.03Q64.11-2 64.07-1.98Q64.03-1.97 64-1.95L64-1.95Q63.88-1.88 63.88-1.52L63.88-1.52Q63.88-1.31 63.94-1.08ZM64.20-3.36L64.25-3.34Q64.33-3.34 64.41-3.50Q64.50-3.66 64.52-3.98L64.52-3.98L64.53-4.03Q64.53-4.33 64.48-4.41L64.48-4.41Q64.38-4.63 64.38-4.84L64.38-4.84Q64.38-5.08 64.52-5.31L64.52-5.31Q64.73-5.78 64.73-6.30L64.73-6.30Q64.73-6.78 64.63-6.78L64.63-6.78L64.56-6.80Q64.45-6.80 64.42-6.66L64.42-6.66Q64.09-5.36 64.08-3.97L64.08-3.97L64.08-3.67Q64.08-3.47 64.20-3.36L64.20-3.36ZM79.75 1.56L79.75 1.56Q79.55 1.56 79.34 1.48L79.34 1.48Q79.05 1.41 79.05 1.19L79.05 1.19L79.06 1.03Q79.22 0.17 79.23-0.70L79.23-0.70L79.33-3.11Q79.58-11.39 80.73-17.20L80.73-17.20Q81.14-19.63 81.61-21.30L81.61-21.30Q81.78-21.88 81.92-22.47L81.92-22.47Q82.13-23.19 82.73-24.75L82.73-24.75Q82.95-25.31 83.58-25.44L83.58-25.44Q83.92-25.50 84.23-25.50L84.23-25.50Q85.03-25.50 85.86-25.06L85.86-25.06Q87.36-24.30 87.88-21.22L87.88-21.22Q88.02-20.33 88.27-19.45L88.27-19.45Q88.36-19.06 88.39-18.66L88.39-18.66Q88.42-18.33 88.48-18L88.48-18Q88.61-17.45 88.70-16.91L88.70-16.91Q88.78-16.47 88.88-16.05L88.88-16.05Q89-15.36 89.03-14.69L89.03-14.69Q89.05-14.13 89.14-13.55Q89.23-12.97 89.27-12.38L89.27-12.38L89.36-11.50Q89.41-11.25 89.48-11L89.48-11Q89.61-10.67 89.61-10.34L89.61-10.34Q89.61-10 89.45-9.67L89.45-9.67L89.44-9.58Q89.44-9.48 89.58-9.33L89.58-9.33Q89.80-9.11 89.80-8.89L89.80-8.89L89.78-8.53Q89.78-8.14 89.84-7.71Q89.89-7.28 89.89-7.17L89.89-7.17Q89.89-6.81 89.83-6.70L89.83-6.70Q89.78-6.47 89.78-6.25L89.78-6.25Q89.78-6.05 89.94-5.88L89.94-5.88Q89.89-5.75 89.89-5.63L89.89-5.63Q89.89-5.47 89.96-5.26Q90.03-5.05 90.03-4.86L90.03-4.86Q90.03-4.70 89.95-4.56L89.95-4.56Q89.92-4.52 89.92-4.44L89.92-4.44L89.94-4.31Q90.03-3.86 90.03-3.41L90.03-3.41Q90.03-3.23 90.02-3.05Q90-2.86 90-2.64L90-2.64L90.02-2.16L90.03-2.03Q90.03-2 90.03-1.94Q90.03-1.88 89.98-1.84Q89.92-1.80 89.84-1.80L89.84-1.80L89.72-1.81Q89.70-1.81 89.67-1.76Q89.64-1.70 89.62-1.63Q89.59-1.56 89.59-1.52L89.59-1.52L89.59-1.38Q89.59-1.25 89.58-1.13Q89.56-1.02 89.56-0.89L89.56-0.89Q89.56-0.73 89.59-0.58L89.59-0.58Q89.63-0.48 89.63-0.39L89.63-0.39Q89.63-0.11 89.34 0.09L89.34 0.09L89.17 0.25Q88.73 0.63 88.38 0.63L88.38 0.63Q87.80 0.63 87.47 0.06L87.47 0.06Q86.75-1.25 86.70-2.75L86.70-2.75L86.56-5.16L86.53-5.45Q86.50-5.80 86.44-6.14L86.44-6.14Q86.38-6.38 86.13-6.38L86.13-6.38L84.73-6.39Q83.16-6.39 81.61-6.11L81.61-6.11Q81.25-6.05 81.16-5.95Q81.08-5.84 81.08-5.58L81.08-5.58L81.08-4.45Q81.08-2.95 80.91-1.69L80.91-1.69Q80.81-0.81 80.77 0.06L80.77 0.06Q80.75 0.25 80.71 0.45Q80.67 0.64 80.66 0.84L80.66 0.84Q80.66 1.14 80.53 1.29Q80.41 1.44 80.02 1.53L80.02 1.53Q79.89 1.56 79.75 1.56ZM81.25-7.13L81.34-7.13Q81.47-7.13 81.58-7.16L81.58-7.16Q82.88-7.44 84.34-7.44L84.34-7.44L85.97-7.44Q86.33-7.44 86.33-7.67L86.33-7.67Q86.27-8.44 86.13-9.69L86.13-9.69Q85.81-12.72 85.72-13.73L85.72-13.73Q85.66-14.67 85.28-17.59L85.28-17.59Q84.95-19.83 84.75-22.06L84.75-22.06Q84.73-22.84 84.36-23.58L84.36-23.58Q84.19-23.48 84.09-23.34L84.09-23.34Q84.05-23.27 83.89-22.88L83.89-22.88Q83.39-21.61 83.13-20.28L83.13-20.28Q83-19.66 82.84-19.05L82.84-19.05Q82.47-17.56 82.23-16.06L82.23-16.06Q82.06-15.14 82-14.95L82-14.95Q81.89-14.63 81.88-14.30L81.88-14.30Q81.83-13.44 81.69-12.58L81.69-12.58Q81.59-12.06 81.55-11.53L81.55-11.53Q81.19-8.44 81.17-7.61L81.17-7.61Q81.17-7.31 81.25-7.13L81.25-7.13ZM99.89-1.91L99.91-1.91L99.89-1.91ZM96.23 1.53L96.23 1.53Q95.83 1.53 95.47 1.33L95.47 1.33Q95.48 1.14 95.59 1.01Q95.70 0.88 95.97 0.67L95.97 0.67Q96.14 0.53 96.29 0.40Q96.44 0.27 96.44 0.13L96.44 0.13Q96.44 0.03 96.38-0.08L96.38-0.08Q95.95-0.89 95.81-1.77L95.81-1.77Q95.53-3.41 95.53-8.06L95.53-8.06Q95.53-9.72 95.58-11.36L95.58-11.36Q95.63-14.66 95.66-15.78L95.66-15.78Q95.72-17.03 95.72-18.28L95.72-18.28Q95.72-19.64 95.58-21.81L95.58-21.81L95.56-21.89Q95.56-22.02 95.54-22.11Q95.52-22.20 95.38-22.20L95.38-22.20Q95.27-22.20 95.22-22L95.22-22Q95.14-21.83 94.79-21.46Q94.44-21.09 94.03-21.09L94.03-21.09Q93.80-21.09 93.53-21.22L93.53-21.22L93.31-21.31L93.19-21.36Q93.80-23.25 95.31-24.47L95.31-24.47Q95.80-24.84 96.38-25.05L96.38-25.05Q97.52-25.45 98.66-25.45L98.66-25.45Q99.56-25.45 100.48-25.20L100.48-25.20L101.16-25.02Q103.17-24.56 104.72-23.16L104.72-23.16L104.69-23.16Q105.05-22.94 105.11-22.86L105.11-22.86Q105.36-22.44 105.69-22.08L105.69-22.08Q106.14-21.61 106.42-20.97L106.42-20.97Q107.11-19.27 107.28-17.45L107.28-17.45L107.41-16.05Q107.69-13.03 107.69-12.52L107.69-12.52Q107.69-12.09 107.64-11.66L107.64-11.66L107.59-10.98Q107.56-9.80 107.17-8.67L107.17-8.67Q107.11-8.50 107.08-8.31L107.08-8.31Q107.05-7.88 106.78-7.64L106.78-7.64Q106.75-7.64 106.75-7.56L106.75-7.56Q106.67-6.73 106.19-6.09L106.19-6.09Q106.02-5.83 105.88-5.55L105.88-5.55L105.80-5.41Q105.61-5.09 105.55-4.77L105.55-4.77Q105.38-3.80 104.22-3.14L104.22-3.14Q103.64-2.80 103.20-2.34L103.20-2.34Q102.31-1.31 101.03-0.83L101.03-0.83Q100.45-0.59 99.97-0.13L99.97-0.13L99.89-0.06Q98.47 1.16 96.64 1.48L96.64 1.48Q96.44 1.53 96.23 1.53ZM99.88-1.88L99.89-1.88L99.89-1.89L99.91-1.89Q99.92-1.89 99.92-1.91L99.92-1.91L99.95-1.91L99.89-1.94L99.89-1.91L99.88-1.91L99.91-1.89L99.88-1.88ZM98.19-1.38L98.20-0.92Q98.56-1 98.75-1.38L98.75-1.38Q99.47-2.58 100.61-3.41L100.61-3.41Q101.11-3.81 101.52-4.33L101.52-4.33Q101.72-4.56 101.93-4.79Q102.14-5.02 102.14-5.27Q102.14-5.52 102.30-5.77Q102.47-6.02 102.63-6.25L102.63-6.25Q103.02-6.83 103.31-7.44L103.31-7.44Q103.97-8.98 104.08-9.56L104.08-9.56Q104.70-11.34 104.75-13.22L104.75-13.22Q104.75-14.72 104.63-16.19L104.63-16.19L104.56-17.48Q104.28-21.59 101.42-23.16L101.42-23.16Q100.75-23.53 100.02-23.70L100.02-23.70Q98.78-23.97 98.13-23.97L98.13-23.97Q97.36-23.97 96.55-23.50L96.55-23.50Q97.02-23.20 97.23-22.81L97.23-22.81Q97.63-22.06 97.69-20.75L97.69-20.75Q97.72-20.36 97.78-19.97L97.78-19.97Q97.98-18.56 97.98-17.56L97.98-17.56L97.98-17.22Q97.98-16.73 98.08-16.25L98.08-16.25Q98.20-15.63 98.23-14.98L98.23-14.98Q98.25-14.50 98.31-14.05Q98.38-13.61 98.38-13.17L98.38-13.17Q98.38-12.81 98.34-12.47Q98.31-12.13 98.30-11.83Q98.30-11.53 98.27-11.23Q98.23-10.92 98.23-10.61L98.23-10.61Q98.23-10.09 98.33-9.56L98.33-9.56Q98.34-9.45 98.34-9.31L98.34-9.31L98.34-8.55Q98.34-7.66 98.38-6.79Q98.42-5.92 98.42-5.05L98.42-5.05Q98.42-3.84 98.30-2.73L98.30-2.73Q98.19-2.20 98.19-1.38L98.19-1.38ZM121.13 0.61L121.13 0.61Q120.92 0.55 120.88 0.28L120.88 0.28L120.86 0.19Q120.31-1.44 120.16-3.13L120.16-3.13L120.09-4.19Q119.98-5.53 119.98-7.22L119.98-7.22L120-7.47Q120-7.77 119.91-8.03L119.91-8.03Q119.84-8.06 119.81-8.06L119.81-8.06Q119.75-8.06 119.75-7.98L119.75-7.98Q119.64-7.11 119.14-5.73L119.14-5.73Q118.95-5.16 118.84-4.56L118.84-4.56Q118.67-3.34 117.67-2.61L117.67-2.61L117.66-2.59Q117.20-2.27 116.81-2.23L116.81-2.23Q116.52-2.22 116.27-2.08L116.27-2.08Q115.58-1.72 115.14-1.72L115.14-1.72Q114.81-1.72 114.52-1.91L114.52-1.91Q114.31-2.05 114.05-2.13L114.05-2.13L113.81-2.22L113.81-2.20Q113.78-2.25 113.75-2.27Q113.72-2.28 113.69-2.28L113.69-2.28L113.66-2.28L113.61-2.19L113.61-2.22Q113.19-2.67 112.59-2.92L112.59-2.92Q112.09-3.13 111.98-3.69L111.98-3.69L111.98-3.70L111.97-3.70L111.97-3.69Q111.42-4.44 111.31-5.34L111.31-5.34Q110.98-7 110.95-8.70L110.95-8.70L110.89-9.69Q110.89-10.14 110.98-10.61L110.98-10.61L111-10.69L110.98-10.78Q110.92-11.17 110.92-11.56L110.92-11.56Q110.92-11.78 110.95-12.04Q110.97-12.30 110.97-12.58L110.97-12.58L110.95-12.94Q110.91-13.53 110.91-14.11L110.91-14.11Q110.91-15.05 111.02-15.97L111.02-15.97L111.03-16.13Q111.33-19.72 111.61-21.67L111.61-21.67Q111.69-22.20 111.73-22.73L111.73-22.73L111.80-23.23Q112.42-23.66 113.05-23.66L113.05-23.66Q113.88-23.66 113.94-22.63L113.94-22.63Q113.98-21.84 113.98-21.05L113.98-21.05Q113.98-20.11 114.06-19.41L114.06-19.41Q114.08-19.28 114.08-19.14L114.08-19.14L113.97-16.03Q113.97-15.41 113.92-15L113.92-15Q113.80-13.78 113.80-12.58L113.80-12.58L113.81-11.53Q113.84-11.19 113.84-10.09L113.84-10.09Q113.84-7.58 114.19-5.66L114.19-5.66Q114.38-4.44 115.39-3.70L115.39-3.70Q115.72-3.47 115.94-3.47L115.94-3.47Q115.95-3.47 116.08-3.48Q116.20-3.50 116.48-3.88Q116.77-4.25 116.98-4.67L116.98-4.67Q117.73-6.25 118.44-7.83L118.44-7.83Q119.34-10 119.81-12.31L119.81-12.31Q119.91-12.86 119.91-13.39L119.91-13.39L119.89-13.80L119.88-15.08Q119.88-16.53 119.97-17.97L119.97-17.97Q120.02-18.72 120.03-19.48L120.03-19.48Q120.08-21 120.25-22.14L120.25-22.14Q120.45-23.41 121.78-23.84L121.78-23.84Q122.23-24 122.67-24L122.67-24Q123.03-24 123.03-23.67L123.03-23.67L123.02-23.56Q122.72-22.16 122.61-20.73L122.61-20.73Q122.55-20.08 122.47-19.44L122.47-19.44Q122.39-18.66 122.39-17.88L122.39-17.88Q122.39-16.95 122.27-14.45L122.27-14.45Q122.20-13.27 122.20-11.98L122.20-11.98Q122.20-9.53 122.38-7.73L122.38-7.73Q122.41-7.47 122.41-7.19L122.41-7.19Q122.41-6.81 122.34-6.44L122.34-6.44Q122.17-5.22 122.17-3.97L122.17-3.97Q122.17-3.34 121.95-2.11L121.95-2.11Q121.86-1.36 121.58-0.64L121.58-0.64Q121.48-0.41 121.45-0.13L121.45-0.13Q121.45 0.33 121.13 0.61ZM133.44 0.48L133.44 0.48Q133.27 0.48 133.02 0.31L133.02 0.31Q132.59 0.03 132.42-0.38L132.42-0.38Q132.08-1.14 132.08-2.53L132.08-2.53L132.08-2.72Q132.06-3.92 132.06-5.83L132.06-5.83Q132.11-6.55 132.11-7.19L132.11-7.19Q132.11-7.97 132.06-8.63L132.06-8.63L132.06-9.19Q132.06-10.72 132.20-12.23L132.20-12.23Q132.23-12.84 132.42-14.97L132.42-14.97Q132.67-17.70 132.67-19.31L132.67-19.31Q132.67-20.91 132.64-21.06L132.64-21.06Q132.55-21.58 132.38-21.69L132.38-21.69Q132.27-21.75 132.09-21.75L132.09-21.75Q131.95-21.75 131.80-21.72L131.80-21.72Q130.95-21.63 130.11-21.63L130.11-21.63L129.80-21.61L126.86-21.56Q126.77-21.56 126.64-21.59Q126.52-21.61 126.38-21.91L126.38-21.91Q126.22-22.08 126.22-22.27L126.22-22.27Q126.22-22.39 126.31-22.51Q126.41-22.63 126.42-22.84L126.42-22.84Q126.47-23.11 126.78-23.17L126.78-23.17L126.84-23.19L127.03-23.20L127.13-23.20Q127.41-23.14 127.67-23.14L127.67-23.14Q128.09-23.14 128.52-23.28L128.52-23.28Q131.45-23.88 134.44-23.88L134.44-23.88Q135.39-23.88 139.02-23.78L139.02-23.78Q139.56-23.78 140.11-23.72L140.11-23.72Q140.56-23.69 140.56-23.31L140.56-23.31L140.55-23.14Q140.42-22.30 139.33-22.30L139.33-22.30L137.39-22.23Q135-22.17 134.53-22.09L134.53-22.09Q134.31-22.06 134.31-21.88L134.31-21.88L134.31-21.80Q134.61-20.50 134.67-19.17L134.67-19.17Q134.80-17.84 134.80-16.50L134.80-16.50Q134.80-14.38 134.78-13.13L134.78-13.13L134.77-11.56L134.78-10L134.78-8.63Q134.78-8.09 134.81-7.56L134.81-7.56Q134.86-6.72 134.86-5.86L134.86-5.86Q134.86-2.63 134.42-1.48L134.42-1.48L133.88 0.06Q133.73 0.48 133.44 0.48Z"/></svg>