<svg id="mainsvg" xmlns="http://www.w3.org/2000/svg" xmlns:xlink="http://www.w3.org/1999/xlink" version="1.1" x="0px" y="0px" enable-background="new 0 0 200 162.5" xml:space="preserve" viewBox="0 0 138 23"><path fill="#000" transform="translate(-0.5213697477121845, 21.536)" d="M20.48-0.90L13.41-20.06C13.12-20.74 12.80-21.06 12.10-21.06L9.02-21.06C8.32-21.06 7.97-20.74 7.71-20.06L0.61-0.90C0.45-0.51 0.45 0 1.15 0L4.51 0C5.22 0 5.47-0.19 5.73-0.96L6.62-3.49L14.46-3.49L15.36-0.96C15.62-0.19 15.87 0 16.58 0L19.94 0C20.64 0 20.64-0.51 20.48-0.90ZM8.16-7.97L10.56-15.04L12.96-7.97ZM40.58-1.02L36.06-7.58C38.05-8.26 40.51-10.59 40.51-13.95C40.51-16 39.84-17.82 38.66-18.98C37.31-20.32 35.78-21.02 32.29-21.02L24.22-21.02C23.49-21.02 23.33-20.67 23.33-20.10L23.33-0.93C23.33-0.19 23.65 0 24.22 0L27.39 0C27.97 0 28.32-0.19 28.32-0.93L28.32-16.54L32.58-16.54C34.24-16.54 35.52-15.49 35.52-13.82C35.52-12.32 34.05-11.23 32.48-11.23L31.84-11.23C31.10-11.23 30.91-10.88 30.91-10.30L30.91-7.74C30.91-6.85 30.98-6.50 31.26-6.11L34.72-0.96C35.17-0.29 35.55 0 36.32 0L40.10 0C40.70 0 40.86-0.58 40.58-1.02ZM60.86-6.24C60.86-7.01 60.61-7.33 59.90-7.33L56.77-7.33C56.06-7.33 56.00-6.82 55.90-6.18C55.65-4.64 54.27-4 52.54-4C50.43-4 48.99-5.15 48.99-7.20L48.99-13.86C48.99-15.87 50.43-17.06 52.54-17.06C54.27-17.06 55.17-16.58 55.84-15.52C56.10-15.14 56.13-14.53 56.80-14.53L59.87-14.53C60.61-14.53 60.86-14.69 60.86-15.46C60.45-19.52 56.51-21.54 52.54-21.54C48.74-21.54 43.97-19.33 43.97-14.30L43.97-6.75C43.97-1.73 48.74 0.48 52.54 0.48C56.51 0.48 60.86-2.11 60.86-6.24ZM81.12-21.06L77.95-21.06C77.38-21.06 77.02-20.86 77.02-20.13L77.02-12.90L69.89-12.90L69.89-20.13C69.89-20.86 69.57-21.06 68.96-21.06L65.79-21.06C65.22-21.06 64.86-20.86 64.86-20.13L64.86-0.93C64.86-0.19 65.22 0 65.79 0L68.96 0C69.57 0 69.89-0.19 69.89-0.93L69.89-8.16L77.02-8.16L77.02-0.93C77.02-0.19 77.38 0 77.95 0L81.12 0C81.70 0 82.05-0.19 82.05-0.93L82.05-20.13C82.05-20.86 81.70-21.06 81.12-21.06ZM95.94-4.38L93.92-4.38L93.92-16.61L95.84-16.61C96.58-16.61 96.77-16.96 96.77-17.54L96.77-20.13C96.77-20.70 96.58-21.06 95.84-21.06L86.94-21.06C86.21-21.06 86.02-20.70 86.02-20.13L86.02-17.54C86.02-16.96 86.21-16.61 86.94-16.61L88.90-16.61L88.90-4.38L86.88-4.38C86.14-4.38 85.95-4.03 85.95-3.46L85.95-0.93C85.95-0.35 86.14 0 86.88 0L95.94 0C96.67 0 96.86-0.35 96.86-0.93L96.86-3.46C96.86-4.03 96.67-4.38 95.94-4.38ZM117.79-21.06L114.40-21.06C113.54-21.06 113.31-20.80 113.06-20.03L108.74-6.78L104.38-20.03C104.13-20.80 103.90-21.06 103.07-21.06L99.52-21.06C98.91-21.06 98.78-20.54 98.94-20.13L105.82-0.96C106.21-0.13 106.43 0 107.14 0L110.21 0C110.91 0 111.14-0.13 111.52-0.96L118.37-20.13C118.53-20.54 118.40-21.06 117.79-21.06ZM136.61-4.48L126.40-4.48L126.40-8.70L134.98-8.70C135.71-8.70 135.90-9.06 135.90-9.63L135.90-12.13C135.90-12.70 135.71-13.06 134.98-13.06L126.40-13.06L126.40-16.54L136.06-16.54C136.80-16.54 136.99-16.90 136.99-17.47L136.99-20.13C136.99-20.70 136.80-21.06 136.06-21.06L122.27-21.06C121.54-21.06 121.34-20.70 121.34-20.13L121.34-0.93C121.34-0.35 121.54 0 122.27 0L136.61 0C137.34 0 137.54-0.35 137.54-0.93L137.54-3.55C137.54-4.13 137.34-4.48 136.61-4.48Z"/></svg>