<svg id="mainsvg" xmlns="http://www.w3.org/2000/svg" xmlns:xlink="http://www.w3.org/1999/xlink" version="1.1" x="0px" y="0px" enable-background="new 0 0 200 162.5" xml:space="preserve" viewBox="0 0 71 23"><path fill="#000" transform="translate(-0.71875, 21.875)" d="M11.03-18.19L11.03-10.94L4.72-10.94L4.72-3.69Q4.72-2.50 5.88-2.50L5.88-2.50Q7.03-2.50 7.03-3.69L7.03-3.69L7.03-9.45L11.03-9.45L11.03-3.69Q11.03 0.16 5.88 0.16L5.88 0.16Q0.72 0.16 0.72-3.69L0.72-3.69L0.72-18.19Q0.72-21.88 5.88-21.88L5.88-21.88Q11.03-21.88 11.03-18.19L11.03-18.19ZM4.72-13.44L7.03-13.44L7.03-18.19Q7.03-19.38 5.88-19.38L5.88-19.38Q4.72-19.38 4.72-18.19L4.72-18.19L4.72-13.44ZM12.14-3.69L12.14-7.30L16.14-7.30L16.14-3.69Q16.14-2.50 17.30-2.50L17.30-2.50Q18.45-2.50 18.45-3.69L18.45-3.69Q18.45-6.59 16.09-9.53Q13.73-12.47 12.94-13.30Q12.14-14.14 12.14-15.59L12.14-15.59L12.14-18.19Q12.14-21.88 17.30-21.88L17.30-21.88Q22.45-21.88 22.45-18.19L22.45-18.19L22.45-14.61L18.45-14.61L18.45-18.19Q18.45-19.38 17.30-19.38L17.30-19.38Q16.14-19.38 16.14-18.19L16.14-18.19Q16.08-16.03 16.69-15.34Q17.30-14.66 19.88-11.39Q22.45-8.13 22.45-6.30L22.45-6.30L22.45-3.69Q22.45 0.16 17.30 0.16L17.30 0.16Q12.14 0.16 12.14-3.69L12.14-3.69ZM30.52-14.69L30.52-17.19L27.42-17.19L27.42-21.88L23.42-21.88L23.42-17.19L22.23-17.19L22.23-14.69L23.42-14.69L23.42-4.69Q23.42-2.27 24.55-1.13Q25.67 0 28.58 0L28.58 0L30.52 0L30.52-2.50L28.58-2.50Q27.42-2.50 27.42-4.69L27.42-4.69L27.42-14.69L30.52-14.69ZM43.08-18.19L43.08 0L39.08 0L39.08-0.70Q38.61 0.25 36.25 0.25L36.25 0.25Q32.77 0.25 32.77-2.50L32.77-2.50L32.77-9.52Q32.77-10.73 33.57-11.64Q34.38-12.55 37.05-13.91L37.05-13.91Q38.91-14.69 39.08-15.16L39.08-15.16L39.08-18.19Q39.08-19.38 37.92-19.38L37.92-19.38Q36.77-19.38 36.77-18.19L36.77-18.19L36.77-14.84L32.77-14.84L32.77-18.19Q32.77-21.88 37.92-21.88L37.92-21.88Q43.08-21.88 43.08-18.19L43.08-18.19ZM39.08-3.69L39.08-3.69L39.08-11.66Q36.75-11.28 36.77-10.28L36.77-10.28L36.77-3.69Q36.77-2.50 37.92-2.50L37.92-2.50Q39.08-2.50 39.08-3.69ZM48.31-0.61L48.31-0.61L48.31 0L44.31 0L44.31-21.88L48.31-21.88L48.31-18.84Q49.55-19.53 51.52-19.53L51.52-19.53Q52.72-19.53 53.67-18.88Q54.63-18.22 54.63-15.84L54.63-15.84L54.63-3.69Q54.63-1.34 53.48-0.59Q52.33 0.16 50.64 0.16L50.64 0.16Q49.33 0.16 48.31-0.61ZM50.63-3.69L50.63-3.69L50.63-15.84Q50.63-17.03 49.47-17.03L49.47-17.03Q48.31-17.03 48.31-15.84L48.31-15.84L48.31-3.69Q48.31-2.50 49.47-2.50L49.47-2.50Q50.63-2.50 50.63-3.69ZM59.70-21.88L59.70 0L55.70 0L55.70-21.88L59.70-21.88ZM60.86-3.69L60.86-3.69L60.86-18.19Q60.86-21.88 66.02-21.88L66.02-21.88Q71.17-21.88 71.17-18.19L71.17-18.19L71.17-3.69Q71.17 0.16 66.02 0.16L66.02 0.16Q60.86 0.16 60.86-3.69ZM67.17-3.69L67.17-3.69L67.17-18.19Q67.17-19.38 66.02-19.38L66.02-19.38Q64.86-19.38 64.86-18.19L64.86-18.19L64.86-3.69Q64.86-2.50 66.02-2.50L66.02-2.50Q67.17-2.50 67.17-3.69Z"/></svg>