<svg id="mainsvg" xmlns="http://www.w3.org/2000/svg" xmlns:xlink="http://www.w3.org/1999/xlink" version="1.1" x="0px" y="0px" enable-background="new 0 0 200 162.5" xml:space="preserve" viewBox="0 0 257 24"><path fill="#000" transform="translate(-2.3040000000000003, 22.176000000000002)" d="M2.30-21.89L2.30 1.34L8.48 0L8.48-5.76C9.28-5.73 10.11-5.70 10.98-5.70C16.61-5.70 23.42-7.01 23.10-13.95C22.88-19.04 18.43-21.89 12.26-21.89ZM24.83 0L29.44 0L31.20-4.13L40.96-4.13L42.72 0L49.18 0L40.16-21.89L33.89-21.89ZM32.45-7.04L36.13-16.10L39.74-7.04ZM58.05 0L58.05-8.22C58.30-8.26 58.53-8.26 58.78-8.26L59.52-8.26L66.69 0L73.95 0L66.02-9.06C70.05-10.21 72.10-12.42 72.10-15.26C72.10-18.82 67.94-21.89 61.82-21.89L51.87-21.89L51.87 0ZM60.13-18.98C63.33-18.98 65.57-17.22 65.57-15.10C65.57-12.45 63.07-11.17 58.59-11.17L58.05-11.17L58.05-18.98ZM75.10-21.89L75.10-18.98L82.21-18.98L82.21 0L88.35 0L88.35-18.98L95.46-18.98L95.46-21.89ZM104.93-8.64L104.93 0L111.14 0L111.14-8.93L120.38-21.89L115.46-21.89L108.96-12.99L102.98-21.89L95.65-21.89ZM146.94 0C152.77 0 155.39-3.94 155.39-6.53C155.39-8.32 154.37-10.43 151.97-11.78C153.54-12.96 154.24-14.56 154.24-16C154.24-18.34 151.94-21.89 146.56-21.89L134.08-21.89L134.08 0ZM176.58 0L176.58-2.94L165.41-2.94L165.41-21.89L159.23-21.89L159.23 0ZM204.70-6.72C205.31-8.13 205.57-9.54 205.57-10.98C205.57-15.26 202.53-22.18 192.61-22.18C185.82-22.18 181.98-18.72 180.48-15.39C179.84-13.95 179.52-12.45 179.52-10.98C179.52-3.84 185.70 0.42 192.54 0.42C199.52 0.42 203.33-3.42 204.70-6.72ZM231.10-7.58L229.54-5.66C228.03-3.87 225.98-2.46 223.20-2.46C220.22-2.46 218.37-3.58 217.12-5.34C215.87-7.07 215.39-9.28 215.39-10.98C215.39-15.20 218.91-19.26 223.26-19.26C226.24-19.26 227.90-18.21 228.83-16.42L229.57-14.91L232.45-17.09L232.19-17.54C230.50-20.26 227.49-22.18 222.21-22.18C212.06-22.18 208.83-15.49 208.83-10.98C208.83-6.18 212.22 0.42 222.69 0.42C227.62 0.42 230.75-1.95 232.32-4.22L232.51-4.48ZM242.37 0L242.37-8.64L251.65 0L259.17 0L246.02-12.19L258.66-21.89L252.61-21.89L242.37-14.08L242.37-21.89L236.16-21.89L236.16 0Z"/></svg>