<svg id="mainsvg" xmlns="http://www.w3.org/2000/svg" xmlns:xlink="http://www.w3.org/1999/xlink" version="1.1" x="0px" y="0px" enable-background="new 0 0 200 162.5" xml:space="preserve" viewBox="0 0 316 23"><path fill="#000" transform="translate(0, 22.624)" d="M8.96-1.02L7.94 0L7.14 0L8.96-1.82L8.96-1.02ZM2.82 0L7.30-4.48L8.10-4.48L3.62 0L2.82 0ZM8.96-0.74L8.96 0L8.22 0L8.96-0.74ZM0-3.68L0.80-4.48L1.60-4.48L0-2.88L0-3.68ZM10.98-21.38L12-22.40L12.80-22.40L10.98-20.58L10.98-21.38ZM0-3.97L0-4.48L0.51-4.48L0-3.97ZM8.96-3.20L5.76 0L4.96 0L8.96-4L8.96-3.20ZM8.96-2.11L6.85 0L6.05 0L8.96-2.91L8.96-2.11ZM19.58-22.40L19.94-22.40L19.94-21.95L17.44-19.46L17.60-19.33L19.94-21.66L19.94-20.86L17.44-18.37L17.60-18.24L19.94-20.58L19.94-19.78L18.08-17.92L17.70-17.92L17.70-17.57L17.34-17.92L17.28-17.92L17.31-17.95L17.15-18.08L16.99-17.92L16.83-17.92L17.70-17.06L17.70-16.48L16.26-17.92L16.19-17.92L16.22-17.95L16.10-18.08L15.90-17.92L15.74-17.92L17.70-15.97L17.70-15.39L15.17-17.92L15.10-17.92L15.14-17.95L15.01-18.08L14.82-17.92L14.66-17.92L17.70-14.88L17.70-14.30L14.08-17.92L14.05-17.92L14.05-17.95L13.92-18.08L13.76-17.92L13.57-17.92L17.70-13.79L17.70-8.90L17.63-8.96L17.12-8.96L17.70-8.38L17.70-7.81L16.54-8.96L16.03-8.96L17.70-7.30L17.70-6.72L15.46-8.96L14.98-8.96L17.70-6.24L17.70-5.66L14.40-8.96L13.89-8.96L17.70-5.15L17.70-4.58L13.31-8.96L6.72-8.96L6.72-4.48L7.01-4.48L2.53 0L1.73 0L6.21-4.48L5.92-4.48L1.44 0L0.64 0L5.12-4.48L4.83-4.48L0.35 0L0 0L0-0.45L4.03-4.48L3.74-4.48L0-0.74L0-1.54L2.94-4.48L2.66-4.48L0-1.82L0-2.62L1.86-4.48L2.24-4.48L2.24-17.92L2.18-17.92L0-20.10L0-20.67L2.75-17.92L3.26-17.92L0-21.18L0-21.76L3.84-17.92L4.35-17.92L0-22.27L0-22.40L0.45-22.40L4.93-17.92L5.44-17.92L0.96-22.40L1.54-22.40L6.02-17.92L6.50-17.92L2.02-22.40L2.59-22.40L7.07-17.92L6.72-17.92L6.72-13.44L13.22-13.44L13.22-13.95L13.73-13.44L14.24-13.44L13.22-14.46L13.22-15.04L14.82-13.44L15.33-13.44L13.22-15.55L13.22-16.13L15.90-13.44L16.42-13.44L13.22-16.64L13.22-17.22L16.99-13.44L17.47-13.44L13.22-17.70L13.22-17.92L12.96-17.92L13.22-18.18L13.22-18.27L13.28-18.24L13.50-18.50L13.38-18.62L12.67-17.92L11.87-17.92L13.22-19.26L13.22-19.36L13.28-19.33L13.50-19.58L13.38-19.71L11.58-17.92L10.98-17.92L10.98-18.11L13.22-20.35L13.22-20.45L13.28-20.42L13.50-20.64L13.38-20.80L10.98-18.40L10.98-19.20L13.22-21.44L13.22-21.54L13.28-21.47L13.50-21.73L13.38-21.89L10.98-19.49L10.98-20.29L13.09-22.40L13.89-22.40L13.66-22.18L13.79-22.02L14.05-22.27L13.95-22.40L14.98-22.40L14.75-22.18L14.88-22.02L15.14-22.27L15.01-22.40L16.06-22.40L15.84-22.18L15.97-22.02L16.22-22.27L16.10-22.40L17.15-22.40L16.93-22.18L17.06-22.02L17.31-22.27L17.18-22.40L18.24-22.40L17.44-21.63L17.60-21.47L18.53-22.40L19.30-22.40L17.44-20.54L17.60-20.42L19.58-22.40ZM13.66-18.91L13.79-18.78L14.05-19.04L13.92-19.17L13.66-18.91ZM13.66-20L13.79-19.87L14.05-20.13L13.92-20.26L13.66-20ZM13.66-21.09L13.79-20.93L14.05-21.18L13.92-21.34L13.66-21.09ZM14.21-18.37L14.34-18.24L14.59-18.50L14.46-18.62L14.21-18.37ZM14.21-19.46L14.34-19.33L14.59-19.58L14.46-19.71L14.21-19.46ZM14.21-20.54L14.34-20.42L14.59-20.64L14.46-20.80L14.21-20.54ZM14.21-21.63L14.34-21.47L14.59-21.73L14.46-21.89L14.21-21.63ZM14.75-18.91L14.88-18.78L15.14-19.04L15.01-19.17L14.75-18.91ZM14.75-20L14.88-19.87L15.14-20.13L15.01-20.26L14.75-20ZM14.75-21.09L14.88-20.93L15.14-21.18L15.01-21.34L14.75-21.09ZM15.30-18.37L15.42-18.24L15.68-18.50L15.55-18.62L15.30-18.37ZM15.30-19.46L15.42-19.33L15.68-19.58L15.55-19.71L15.30-19.46ZM15.30-20.54L15.42-20.42L15.68-20.64L15.55-20.80L15.30-20.54ZM15.30-21.63L15.42-21.47L15.68-21.73L15.55-21.89L15.30-21.63ZM15.84-18.91L15.97-18.78L16.22-19.04L16.10-19.17L15.84-18.91ZM15.84-20L15.97-19.87L16.22-20.13L16.10-20.26L15.84-20ZM15.84-21.09L15.97-20.93L16.22-21.18L16.10-21.34L15.84-21.09ZM16.38-18.37L16.51-18.24L16.77-18.50L16.64-18.62L16.38-18.37ZM16.38-19.46L16.51-19.33L16.77-19.58L16.64-19.71L16.38-19.46ZM16.38-20.54L16.51-20.42L16.77-20.64L16.64-20.80L16.38-20.54ZM16.38-21.63L16.51-21.47L16.77-21.73L16.64-21.89L16.38-21.63ZM16.93-18.91L17.06-18.78L17.31-19.04L17.15-19.17L16.93-18.91ZM16.93-20L17.06-19.87L17.31-20.13L17.15-20.26L16.93-20ZM16.93-21.09L17.06-20.93L17.31-21.18L17.15-21.34L16.93-21.09ZM19.94-18.40L19.94-17.92L19.46-17.92L19.94-18.40ZM19.94-18.69L19.17-17.92L18.37-17.92L19.94-19.49L19.94-18.69ZM4.67 0L3.87 0L8.35-4.48L8.96-4.48L8.96-4.29L4.67 0ZM10.98-21.63L10.98-22.40L11.74-22.40L10.98-21.63ZM8.03-22.40L8.96-21.47L8.96-20.90L7.46-22.40L8.03-22.40ZM8.51-22.40L8.96-22.40L8.96-21.95L8.51-22.40ZM6.94-22.40L8.96-20.38L8.96-19.81L6.37-22.40L6.94-22.40ZM0-19.58L1.66-17.92L1.09-17.92L0-19.01L0-19.58ZM0-18.50L0.58-17.92L0-17.92L0-17.92L0-18.50ZM13.22-7.97L13.22-8.54L17.28-4.48L19.94-4.48L19.94 0L10.98 0L10.98-4.48L13.44-4.48L13.22-4.70L13.22-5.28L14.02-4.48L14.53-4.48L13.22-5.79L13.22-6.37L15.10-4.48L15.62-4.48L13.22-6.88L13.22-7.46L16.19-4.48L16.70-4.48L13.22-7.97ZM8.96-18.21L8.96-17.92L8.67-17.92L4.19-22.40L4.77-22.40L8.96-18.21ZM5.86-22.40L8.96-19.30L8.96-18.72L5.28-22.40L5.86-22.40ZM3.68-22.40L8.16-17.92L7.58-17.92L3.10-22.40L3.68-22.40ZM39.84-15.68L39.84-6.72L39.58-6.72L39.84-6.46Q39.84-6.30 39.82-6.19Q39.81-6.08 39.78-5.92L39.78-5.92L39.01-6.72L38.50-6.72L39.71-5.50L39.62-5.02L37.92-6.72L37.41-6.72L39.52-4.64Q39.46-4.51 39.42-4.42Q39.39-4.32 39.36-4.19L39.36-4.19L36.83-6.72L36.32-6.72L39.20-3.84Q39.07-3.58 39.01-3.49L39.01-3.49L35.74-6.72L35.36-6.72L35.36-15.68Q35.36-15.84 35.34-15.97Q35.33-16.10 35.30-16.26L35.30-16.26L38.59-19.55Q38.69-19.42 38.77-19.31Q38.85-19.20 38.91-19.07L38.91-19.07L35.52-15.68L35.81-15.68L39.01-18.91Q39.07-18.75 39.14-18.64Q39.20-18.53 39.26-18.37L39.26-18.37L36.61-15.68L36.90-15.68L39.36-18.18Q39.42-18.02 39.47-17.87Q39.52-17.73 39.58-17.57L39.58-17.57L37.66-15.68L37.95-15.68L39.62-17.34Q39.68-17.18 39.71-17.01Q39.74-16.83 39.78-16.67L39.78-16.67L38.75-15.68L39.04-15.68L39.81-16.42Q39.84-16.26 39.84-16.06Q39.84-15.87 39.84-15.68L39.84-15.68ZM37.98-20.32L34.82-17.15Q34.72-17.25 34.62-17.34Q34.53-17.44 34.40-17.54L34.40-17.54L37.57-20.70Q37.70-20.61 37.79-20.51Q37.89-20.42 37.98-20.32L37.98-20.32ZM37.41-20.83L34.21-17.63Q34.02-17.76 33.63-17.86L33.63-17.86L36.96-21.18Q37.18-21.02 37.41-20.83L37.41-20.83ZM38.46-19.71L35.20-16.45Q35.10-16.70 34.94-16.99L34.94-16.99L38.11-20.16Q38.30-19.94 38.46-19.71L38.46-19.71ZM26.40-15.17L26.40-14.59L22.53-18.46L22.72-18.85L26.40-15.17ZM33.12-4.48L33.15-4.48L36.64-0.99L36.26-0.80L33.12-3.94L33.12-3.42L35.94-0.61Q35.84-0.54 35.74-0.53Q35.65-0.51 35.52-0.45L35.52-0.45L33.12-2.85L33.12-2.34L35.17-0.32Q35.01-0.26 34.69-0.19L34.69-0.19L33.12-1.76L33.12-1.28L34.27-0.10Q34.14-0.06 34.03-0.06Q33.92-0.06 33.79-0.03L33.79-0.03L33.12-0.70L33.12-0.19L33.31 0L33.12 0L28.64 0Q27.23 0 26.02-0.53Q24.80-1.06 23.89-1.97Q22.98-2.88 22.45-4.10Q21.92-5.31 21.92-6.72L21.92-6.72L22.34-6.72L21.92-7.14L21.92-7.71L22.91-6.72L23.42-6.72L21.92-8.22L21.92-8.80L24-6.72L24.51-6.72L21.92-9.31L21.92-9.89L25.09-6.72L25.60-6.72L21.92-10.40L21.92-10.98L26.18-6.72L26.40-6.72Q26.40-5.79 27.06-5.14Q27.71-4.48 28.64-4.48L28.64-4.48L33.12-4.48ZM26.40-7.58L26.40-7.01L21.92-11.49L21.92-12.06L26.40-7.58ZM26.40-8.67L26.40-8.10L21.92-12.58L21.92-13.15L26.40-8.67ZM26.40-9.73L26.40-9.15L21.92-13.63L21.92-14.21L26.40-9.73ZM36.93-1.18L33.60-4.54Q33.86-4.61 34.05-4.67L34.05-4.67L37.28-1.44Q37.18-1.38 37.10-1.31Q37.02-1.25 36.93-1.18L36.93-1.18ZM38.59-2.82L35.26-6.11Q35.36-6.34 35.36-6.62L35.36-6.62L38.82-3.17Q38.75-3.07 38.70-2.98Q38.66-2.88 38.59-2.82L38.59-2.82ZM38.11-2.21L34.91-5.38Q35.01-5.50 35.14-5.76L35.14-5.76L38.37-2.53Q38.30-2.43 38.24-2.35Q38.18-2.27 38.11-2.21L38.11-2.21ZM37.54-1.66L34.37-4.86Q34.56-4.99 34.69-5.12L34.69-5.12L37.86-1.95Q37.66-1.76 37.54-1.66L37.54-1.66ZM26.40-15.68L26.40-15.65L22.91-19.17Q22.98-19.33 23.14-19.52L23.14-19.52L26.46-16.19Q26.40-15.87 26.40-15.68L26.40-15.68ZM24.13-20.67L27.33-17.47Q27.20-17.41 27.01-17.22L27.01-17.22L23.84-20.38L24.13-20.67ZM26.40-10.82L26.40-10.24L21.92-14.72L21.92-15.30L26.40-10.82ZM24.74-21.15L28.06-17.82Q27.78-17.76 27.65-17.66L27.65-17.66L24.42-20.90Q24.48-20.96 24.58-21.02Q24.67-21.09 24.74-21.15L24.74-21.15ZM28.64-17.92L28.48-17.92L25.06-21.34Q25.15-21.44 25.41-21.57L25.41-21.57L28.67-18.30L28.93-18.56L28.77-18.69L28.64-18.56L28.64-18.85L25.73-21.73Q25.82-21.79 25.94-21.82Q26.05-21.86 26.14-21.92L26.14-21.92L28.67-19.39L28.93-19.65L28.77-19.78L28.64-19.65L28.64-19.90L26.50-22.05Q26.62-22.11 26.74-22.13Q26.85-22.14 26.94-22.18L26.94-22.18L28.67-20.45L28.93-20.70L28.77-20.86L28.64-20.70L28.64-20.99L27.36-22.27Q27.49-22.30 27.60-22.32Q27.71-22.34 27.87-22.37L27.87-22.37L28.67-21.54L28.93-21.79L28.77-21.95L28.64-21.79L28.64-22.08L28.32-22.40L28.64-22.40L29.25-22.40L29.06-22.24L29.22-22.08L29.47-22.34L29.41-22.40L30.34-22.40L30.14-22.24L30.30-22.08L30.56-22.34L30.50-22.40L31.39-22.40L31.23-22.24L31.39-22.08L31.62-22.34L31.58-22.40L32.48-22.40L32.32-22.24L32.45-22.08L32.70-22.34L32.67-22.40L33.12-22.40L33.57-22.40L33.12-21.95L32.86-21.70L32.99-21.54L33.82-22.37Q33.98-22.34 34.16-22.32Q34.34-22.30 34.50-22.24L34.50-22.24L33.12-20.86L32.86-20.61L32.99-20.45L34.75-22.21Q34.91-22.14 35.06-22.11Q35.20-22.08 35.36-22.02L35.36-22.02L33.12-19.78L32.86-19.52L32.99-19.39L35.55-21.95Q35.71-21.89 35.84-21.82Q35.97-21.76 36.13-21.70L36.13-21.70L33.12-18.69L32.86-18.43L32.99-18.30L36.29-21.60Q36.45-21.54 36.56-21.46Q36.67-21.38 36.80-21.31L36.80-21.31L33.41-17.89Q33.31-17.92 33.12-17.92L33.12-17.92L32.61-17.92L32.70-18.02L32.58-18.14L32.35-17.92L31.55-17.92L31.62-18.02L31.49-18.14L31.26-17.92L30.46-17.92L30.56-18.02L30.40-18.14L30.18-17.92L29.38-17.92L29.47-18.02L29.31-18.14L29.09-17.92L28.64-17.92ZM32.58-21.41L32.32-21.15L32.45-20.99L32.70-21.25L32.58-21.41ZM32.58-20.32L32.32-20.06L32.45-19.94L32.70-20.19L32.58-20.32ZM32.58-19.23L32.32-18.98L32.45-18.85L32.70-19.10L32.58-19.23ZM32.03-21.95L31.78-21.70L31.90-21.54L32.16-21.79L32.03-21.95ZM32.03-20.86L31.78-20.61L31.90-20.45L32.16-20.70L32.03-20.86ZM32.03-19.78L31.78-19.52L31.90-19.39L32.16-19.65L32.03-19.78ZM32.03-18.69L31.78-18.43L31.90-18.30L32.16-18.56L32.03-18.69ZM31.49-21.41L31.23-21.15L31.39-20.99L31.62-21.25L31.49-21.41ZM31.49-20.32L31.23-20.06L31.39-19.94L31.62-20.19L31.49-20.32ZM31.49-19.23L31.23-18.98L31.39-18.85L31.62-19.10L31.49-19.23ZM30.94-21.95L30.69-21.70L30.85-21.54L31.10-21.79L30.94-21.95ZM30.94-20.86L30.69-20.61L30.85-20.45L31.10-20.70L30.94-20.86ZM30.94-19.78L30.69-19.52L30.85-19.39L31.10-19.65L30.94-19.78ZM30.94-18.69L30.69-18.43L30.85-18.30L31.10-18.56L30.94-18.69ZM30.40-21.41L30.14-21.15L30.30-20.99L30.56-21.25L30.40-21.41ZM30.40-20.32L30.14-20.06L30.30-19.94L30.56-20.19L30.40-20.32ZM30.40-19.23L30.14-18.98L30.30-18.85L30.56-19.10L30.40-19.23ZM29.86-21.95L29.60-21.70L29.76-21.54L30.02-21.79L29.86-21.95ZM29.86-20.86L29.60-20.61L29.76-20.45L30.02-20.70L29.86-20.86ZM29.86-19.78L29.60-19.52L29.76-19.39L30.02-19.65L29.86-19.78ZM29.86-18.69L29.60-18.43L29.76-18.30L30.02-18.56L29.86-18.69ZM29.31-21.41L29.06-21.15L29.22-20.99L29.47-21.25L29.31-21.41ZM29.31-20.32L29.06-20.06L29.22-19.94L29.47-20.19L29.31-20.32ZM29.31-19.23L29.06-18.98L29.22-18.85L29.47-19.10L29.31-19.23ZM23.62-20.13L26.78-16.93Q26.72-16.86 26.67-16.77Q26.62-16.67 26.59-16.58L26.59-16.58L23.33-19.81Q23.39-19.87 23.47-19.97Q23.55-20.06 23.62-20.13L23.62-20.13ZM26.40-11.90L26.40-11.33L21.92-15.81Q21.92-15.97 21.92-16.08Q21.92-16.19 21.95-16.35L21.95-16.35L26.40-11.90ZM26.40-12.99L26.40-12.42L22.02-16.80L22.11-17.28L26.40-12.99ZM26.40-14.08L26.40-13.50L22.21-17.66Q22.27-17.79 22.29-17.89Q22.30-17.98 22.37-18.11L22.37-18.11L26.40-14.08ZM57.44-22.40L64.22-22.40L64.22-17.92L61.98-17.92L61.98-17.63L61.70-17.92L61.18-17.92L61.98-17.12L61.98-16.54L60.61-17.92L60.10-17.92L61.98-16.03L61.98-15.46L59.78-17.70L59.58-17.38L61.98-14.94L61.98-14.37L59.36-17.02L59.14-16.70L61.98-13.89L61.98-13.31L58.94-16.35L58.72-16.03L61.98-12.80L61.98-12.22L58.50-15.68L58.30-15.39L61.98-11.71L61.98-11.14L58.08-15.04L57.89-14.72L61.98-10.62L61.98-10.05L57.66-14.37L53.02-7.01L48.48-14.18L44.06-9.76L44.06-10.56L48.19-14.66L48.06-14.85L44.06-10.82L44.06-11.62L47.78-15.33L47.65-15.52L44.06-11.90L44.06-12.70L47.36-16L47.23-16.16L44.06-12.99L44.06-13.79L46.91-16.67L46.82-16.83L44.06-14.08L44.06-14.88L46.50-17.31L46.40-17.50L44.06-15.17L44.06-15.97L46.08-17.98L45.98-18.14L44.06-16.26L44.06-17.06L45.66-18.66L45.57-18.82L44.06-17.31L44.06-17.92L43.87-17.92L45.25-19.33L45.15-19.49L43.58-17.92L42.78-17.92L44.83-19.97L44.74-20.16L42.50-17.92L41.82-17.92L41.82-18.05L44.42-20.64L44.29-20.80L41.82-18.34L41.82-19.14L44-21.31L43.87-21.47L41.82-19.42L41.82-20.22L43.58-21.95L43.46-22.14L41.82-20.51L41.82-21.31L42.91-22.40L48.61-22.40L53.02-15.39L57.44-22.40ZM50.78-3.97L50.27-4.48L50.78-4.48L50.78-3.97ZM47.46-4.48L47.58-4.48L50.78-1.28L50.78-0.74L47.04-4.48L46.66-4.48L48.54-6.37L48.54-5.57L47.46-4.48ZM49.18-4.48L49.76-4.48L50.78-3.46L50.78-2.88L49.18-4.48ZM48.54-4.48L48.67-4.48L50.78-2.37L50.78-1.79L48.10-4.48L47.74-4.48L48.54-5.28L48.54-4.48ZM41.82-4.48L42.18-4.48L46.66 0L46.08 0L41.82-4.26L41.82-4.48ZM44.22-4.48L44.35-4.48L48.83 0L48.26 0L43.78-4.48L44.06-4.48L44.06-5.12L48.54-9.60L48.54-8.80L44.22-4.48ZM45.28-4.48L45.44-4.48L49.92 0L49.34 0L44.86-4.48L44.48-4.48L48.54-8.54L48.54-7.74L45.28-4.48ZM41.82-3.17L41.82-3.74L45.57 0L44.99 0L41.82-3.17ZM46.37-4.48L46.53-4.48L50.78-0.22L50.78 0L50.43 0L45.95-4.48L45.57-4.48L48.54-7.46L48.54-6.66L46.37-4.48ZM42.69-4.48L43.26-4.48L47.74 0L47.17 0L42.69-4.48ZM57.50-12.35L57.50-12.93L61.98-8.45L61.98-7.87L57.50-12.35ZM61.98-9.54L61.98-8.96L57.50-13.44L57.50-14.02L61.98-9.54ZM57.50-11.30L57.50-11.87L61.98-7.39L61.98-6.82L57.50-11.30ZM41.82 0L41.82-0.51L42.34 0L41.82 0ZM41.82-1.02L41.82-1.60L43.42 0L42.85 0L41.82-1.02ZM57.50-10.21L57.50-10.78L61.98-6.30L61.98-5.73L57.50-10.21ZM41.82-2.11L41.82-2.69L44.51 0L43.94 0L41.82-2.11ZM57.50-9.12L57.50-9.70L61.98-5.22L61.98-4.64L57.50-9.12ZM41.86-22.40L42.62-22.40L41.82-21.57L41.82-22.37L41.86-22.40ZM55.26-3.74L55.26-4.48L56-4.48L55.26-3.74ZM63.42 0L62.62 0L64.22-1.60L64.22-0.80L63.42 0ZM55.26-2.66L55.26-3.46L56.29-4.48L57.09-4.48L55.26-2.66ZM64.22 0L63.71 0L64.22-0.51L64.22 0ZM61.98-2.59L63.87-4.48L64.22-4.48L64.22-4.03L61.98-1.79L61.98-1.54L64.22-3.78L64.22-2.98L61.98-0.74L61.98-0.45L64.22-2.69L64.22-1.89L62.34 0L57.22 0L57.60-0.38L57.50-0.45L57.50-0.58L56.93 0L56.13 0L57.60-1.44L57.50-1.54L57.50-1.66L55.84 0L55.26 0L55.26-0.22L57.60-2.53L57.50-2.62L57.50-2.75L55.26-0.51L55.26-1.31L57.60-3.62L57.50-3.71L57.50-3.81L55.26-1.57L55.26-2.37L57.38-4.48L57.82-4.48L57.50-4.80L57.50-5.38L58.40-4.45L58.43-4.48L58.88-4.48L57.50-5.86L57.50-6.43L59.49-4.45L59.52-4.48L59.97-4.48L57.50-6.94L57.50-7.52L60.58-4.45L60.61-4.48L61.06-4.48L57.50-8.03L57.50-8.61L61.66-4.45L61.70-4.48L62.50-4.48L61.98-3.97L61.98-3.68L62.78-4.48L63.58-4.48L61.98-2.88L61.98-2.59ZM57.89-0.67L58.11-0.93L57.98-1.06L57.73-0.80L57.89-0.67ZM57.89-1.73L58.11-1.98L57.98-2.14L57.73-1.89L57.89-1.73ZM57.89-2.82L58.11-3.07L57.98-3.23L57.73-2.98L57.89-2.82ZM57.89-3.90L58.11-4.16L57.98-4.29L57.73-4.06L57.89-3.90ZM58.40-0.13L58.66-0.38L58.53-0.51L58.27-0.26L58.40-0.13ZM58.40-1.22L58.66-1.44L58.53-1.60L58.27-1.34L58.40-1.22ZM58.40-2.27L58.66-2.53L58.53-2.69L58.27-2.43L58.40-2.27ZM58.40-3.36L58.66-3.62L58.53-3.78L58.27-3.52L58.40-3.36ZM58.94-0.67L59.20-0.93L59.07-1.06L58.82-0.80L58.94-0.67ZM58.94-1.73L59.20-1.98L59.07-2.14L58.82-1.89L58.94-1.73ZM58.94-2.82L59.20-3.07L59.07-3.23L58.82-2.98L58.94-2.82ZM58.94-3.90L59.20-4.16L59.07-4.29L58.82-4.06L58.94-3.90ZM59.49-0.13L59.74-0.38L59.62-0.51L59.36-0.26L59.49-0.13ZM59.49-1.22L59.74-1.44L59.62-1.60L59.36-1.34L59.49-1.22ZM59.49-2.27L59.74-2.53L59.62-2.69L59.36-2.43L59.49-2.27ZM59.49-3.36L59.74-3.62L59.62-3.78L59.36-3.52L59.49-3.36ZM60.03-0.67L60.29-0.93L60.16-1.06L59.90-0.80L60.03-0.67ZM60.03-1.73L60.29-1.98L60.16-2.14L59.90-1.89L60.03-1.73ZM60.03-2.82L60.29-3.07L60.16-3.23L59.90-2.98L60.03-2.82ZM60.03-3.90L60.29-4.16L60.16-4.29L59.90-4.06L60.03-3.90ZM60.58-0.13L60.83-0.38L60.70-0.51L60.45-0.26L60.58-0.13ZM60.58-1.22L60.83-1.44L60.70-1.60L60.45-1.34L60.58-1.22ZM60.58-2.27L60.83-2.53L60.70-2.69L60.45-2.43L60.58-2.27ZM60.58-3.36L60.83-3.62L60.70-3.78L60.45-3.52L60.58-3.36ZM61.12-0.67L61.38-0.93L61.25-1.06L60.99-0.80L61.12-0.67ZM61.12-1.73L61.38-1.98L61.25-2.14L60.99-1.89L61.12-1.73ZM61.12-2.82L61.38-3.07L61.25-3.23L60.99-2.98L61.12-2.82ZM61.12-3.90L61.38-4.16L61.25-4.29L60.99-4.06L61.12-3.90ZM61.66-0.13L61.92-0.38L61.76-0.51L61.54-0.26L61.66-0.13ZM61.66-1.22L61.92-1.44L61.76-1.60L61.54-1.34L61.66-1.22ZM61.66-2.27L61.92-2.53L61.76-2.69L61.54-2.43L61.66-2.27ZM61.66-3.36L61.92-3.62L61.76-3.78L61.54-3.52L61.66-3.36ZM48.54-13.95L48.54-13.15L44.06-8.67L44.06-9.47L48.54-13.95ZM44.06-5.41L44.06-6.21L48.54-10.69L48.54-9.89L44.06-5.41ZM44.06-7.58L44.06-8.38L48.54-12.86L48.54-12.06L44.06-7.58ZM44.06-6.50L44.06-7.30L48.54-11.78L48.54-10.98L44.06-6.50ZM67.33 0L66.21-1.12L66.21-1.70L67.90 0L67.33 0ZM68.42 0L66.21-2.21L66.21-2.78L68.99 0L68.42 0ZM66.24 0L66.21-0.03L66.21-0.61L66.82 0L66.24 0ZM71.65 0L67.17-4.48L67.74-4.48L72.22 0L71.65 0ZM69.50 0L66.21-3.30L66.21-3.87L70.08 0L69.50 0ZM66.21-4.35L66.21-4.48L66.66-4.48L71.14 0L70.56 0L66.21-4.35ZM77.41-10.82L74.78-13.44L75.36-13.44L77.41-11.39L77.41-10.82ZM77.41-9.73L73.70-13.44L74.27-13.44L77.41-10.30L77.41-9.73ZM76.96-13.44L77.41-13.44L77.41-12.99L76.96-13.44ZM77.41-11.90L75.87-13.44L76.45-13.44L77.41-12.48L77.41-11.90ZM66.21-21.76L66.21-22.40L66.85-22.40L66.21-21.76ZM66.21-21.47L67.10-22.40L67.90-22.40L66.21-20.67L66.21-21.47ZM72.26-22.40L67.78-17.92L66.98-17.92L71.46-22.40L72.26-22.40ZM66.21-20.42L68.19-22.40L68.99-22.40L66.21-19.62L66.21-20.42ZM66.21-19.33L69.28-22.40L70.08-22.40L66.21-18.53L66.21-19.33ZM79.30-6.72L77.41-4.83L77.41-5.63L78.50-6.72L79.30-6.72ZM78.24-6.72L77.41-5.89L77.41-6.69L77.44-6.72L78.24-6.72ZM70.37-22.40L71.17-22.40L66.69-17.92L66.21-17.92L66.21-18.24L70.37-22.40ZM81.89-22.40L81.89-15.68L77.41-15.68L77.41-17.92L76.70-17.92L77.41-18.62L77.41-18.88L76.42-17.92L75.62-17.92L77.41-19.68L77.41-19.97L75.36-17.92L74.56-17.92L77.41-20.77L77.41-21.06L74.27-17.92L73.47-17.92L77.41-21.86L77.41-22.14L73.18-17.92L72.93-17.92L72.93-13.44L73.18-13.44L77.41-9.22L77.41-8.96L77.09-8.96L72.61-13.44L72.13-13.44L76.61-8.96L76.03-8.96L71.55-13.44L71.04-13.44L75.52-8.96L74.94-8.96L70.46-13.44L69.95-13.44L74.43-8.96L73.86-8.96L69.38-13.44L68.86-13.44L73.34-8.96L72.93-8.96L72.93-4.48L73.15-4.48L77.44-0.22L77.66-0.48L77.54-0.61L77.41-0.48L77.41-0.74L73.66-4.48L74.24-4.48L77.44-1.31L77.66-1.57L77.54-1.70L77.41-1.57L77.41-1.82L74.75-4.48L75.33-4.48L77.44-2.40L77.66-2.66L77.54-2.78L77.41-2.66L77.41-2.91L75.84-4.48L76.42-4.48L77.44-3.46L77.66-3.71L77.54-3.87L77.41-3.74L77.41-4L76.93-4.48L77.41-4.48L77.41-4.54L79.58-6.72L80.38-6.72L78.14-4.48L78.43-4.48L80.67-6.72L81.47-6.72L79.23-4.48L79.52-4.48L81.76-6.72L81.89-6.72L81.89-6.05L80.32-4.48L80.61-4.48L81.89-5.76L81.89-4.96L81.41-4.48L81.70-4.48L81.89-4.67L81.89-3.84L81.86-3.87L81.60-3.62L81.76-3.46L81.89-3.58L81.89-2.75L81.86-2.78L81.60-2.53L81.76-2.40L81.89-2.53L81.89-1.70L81.86-1.70L81.60-1.44L81.76-1.31L81.89-1.44L81.89-0.61L81.86-0.61L81.60-0.35L81.76-0.22L81.89-0.35L81.89 0L81.41 0L81.31-0.06L81.25 0L80.32 0L80.26-0.06L80.16 0L79.23 0L79.17-0.06L79.07 0L78.14 0L78.08-0.06L78.02 0L77.06 0L72.58-4.48L72.10-4.48L76.58 0L76 0L71.52-4.48L71.01-4.48L75.49 0L74.91 0L70.43-4.48L69.92-4.48L74.40 0L73.82 0L69.34-4.48L68.83-4.48L73.31 0L72.74 0L68.26-4.48L68.45-4.48L68.45-9.54L69.02-8.96L69.54-8.96L68.45-10.05L68.45-10.62L70.11-8.96L70.59-8.96L68.45-11.10L68.45-11.68L71.17-8.96L71.68-8.96L68.45-12.19L68.45-12.77L72.26-8.96L72.77-8.96L68.45-13.28L68.45-17.92L68.06-17.92L72.54-22.40L73.34-22.40L68.86-17.92L69.12-17.92L73.60-22.40L74.40-22.40L69.92-17.92L70.21-17.92L74.69-22.40L75.49-22.40L71.01-17.92L71.30-17.92L75.78-22.40L76.58-22.40L72.10-17.92L72.38-17.92L76.86-22.40L81.89-22.40ZM81.47-4.26L81.31-4.42L81.09-4.16L81.22-4L81.47-4.26ZM81.47-3.17L81.31-3.33L81.09-3.07L81.22-2.91L81.47-3.17ZM81.47-2.11L81.31-2.24L81.09-1.98L81.22-1.86L81.47-2.11ZM81.47-1.02L81.31-1.15L81.09-0.90L81.22-0.77L81.47-1.02ZM80.93-3.71L80.80-3.87L80.54-3.62L80.67-3.46L80.93-3.71ZM80.93-2.66L80.80-2.78L80.54-2.53L80.67-2.40L80.93-2.66ZM80.93-1.57L80.80-1.70L80.54-1.44L80.67-1.31L80.93-1.57ZM80.93-0.48L80.80-0.61L80.54-0.35L80.67-0.22L80.93-0.48ZM80.38-4.26L80.26-4.42L80-4.16L80.13-4L80.38-4.26ZM80.38-3.17L80.26-3.33L80-3.07L80.13-2.91L80.38-3.17ZM80.38-2.11L80.26-2.24L80-1.98L80.13-1.86L80.38-2.11ZM80.38-1.02L80.26-1.15L80-0.90L80.13-0.77L80.38-1.02ZM79.84-3.71L79.71-3.87L79.46-3.62L79.58-3.46L79.84-3.71ZM79.84-2.66L79.71-2.78L79.46-2.53L79.58-2.40L79.84-2.66ZM79.84-1.57L79.71-1.70L79.46-1.44L79.58-1.31L79.84-1.57ZM79.84-0.48L79.71-0.61L79.46-0.35L79.58-0.22L79.84-0.48ZM79.30-4.26L79.17-4.42L78.91-4.16L79.04-4L79.30-4.26ZM79.30-3.17L79.17-3.33L78.91-3.07L79.04-2.91L79.30-3.17ZM79.30-2.11L79.17-2.24L78.91-1.98L79.04-1.86L79.30-2.11ZM79.30-1.02L79.17-1.15L78.91-0.90L79.04-0.77L79.30-1.02ZM78.75-3.71L78.62-3.87L78.37-3.62L78.50-3.46L78.75-3.71ZM78.75-2.66L78.62-2.78L78.37-2.53L78.50-2.40L78.75-2.66ZM78.75-1.57L78.62-1.70L78.37-1.44L78.50-1.31L78.75-1.57ZM78.75-0.48L78.62-0.61L78.37-0.35L78.50-0.22L78.75-0.48ZM78.21-4.26L78.08-4.42L77.82-4.16L77.95-4L78.21-4.26ZM78.21-3.17L78.08-3.33L77.82-3.07L77.95-2.91L78.21-3.17ZM78.21-2.11L78.08-2.24L77.82-1.98L77.95-1.86L78.21-2.11ZM78.21-1.02L78.08-1.15L77.82-0.90L77.95-0.77L78.21-1.02ZM89.95-9.38L89.95-9.38Q87.94-9.92 86.70-10.77Q85.47-11.62 84.80-12.56Q84.13-13.50 83.90-14.45Q83.68-15.39 83.68-16.13L83.68-16.13Q83.68-17.50 84.24-18.69Q84.80-19.87 85.79-20.75Q86.78-21.63 88.10-22.13Q89.41-22.62 90.94-22.62L90.94-22.62Q92.58-22.62 93.79-22.32Q95.01-22.02 96-21.47L96-21.47L96-21.54L96.86-22.40L97.66-22.40L96-20.74L96-20.45L97.95-22.40L98.75-22.40L96-19.65L96-19.36L99.04-22.40L99.84-22.40L96-18.56L96-18.27L100.13-22.40L100.48-22.40L100.48-21.95L96-17.47L96-17.18L100.48-21.66L100.48-20.90L96-16.42L96-16.13L100.48-20.61L100.48-19.81L96.35-15.68L95.97-15.68Q95.42-16.29 94.91-16.75Q94.40-17.22 93.82-17.52Q93.25-17.82 92.56-17.98Q91.87-18.14 90.94-18.14L90.94-18.14Q89.63-18.14 88.90-17.50Q88.16-16.86 88.16-16.13L88.16-16.13Q88.16-14.85 89.95-14.08L89.95-14.08Q90.94-13.66 92.64-13.38L92.64-13.38Q93.12-13.31 93.57-13.22Q94.02-13.12 94.43-13.02L94.43-13.02Q94.59-12.96 94.70-12.94Q94.82-12.93 94.94-12.86L94.94-12.86L94.43-12.35L94.43-12.06L95.17-12.80Q95.33-12.74 95.47-12.70Q95.62-12.67 95.78-12.61L95.78-12.61L94.43-11.26L94.43-10.98L95.97-12.51Q96.13-12.45 96.26-12.40Q96.38-12.35 96.54-12.29L96.54-12.29L94.43-10.18L94.43-9.89L96.74-12.19Q96.99-12.03 97.25-11.94L97.25-11.94L94.43-9.09L94.43-8.83L97.44-11.81L97.92-11.52L94.66-8.22Q94.56-8.26 94.43-8.32L94.43-8.32Q93.86-8.58 93.22-8.72Q92.58-8.86 91.97-8.96L91.97-8.96Q91.42-9.02 90.91-9.14Q90.40-9.25 89.95-9.38ZM100.48-18.43L100.48-17.63L98.53-15.68L97.73-15.68L100.48-18.43ZM100.48-19.52L100.48-18.72L97.44-15.68L96.64-15.68L100.48-19.52ZM83.90 0L83.90-0.26L84.16 0L83.90 0ZM100.48-17.34L100.48-16.54L99.62-15.68L98.82-15.68L100.48-17.34ZM96-22.40L96.58-22.40L96-21.82L96-22.40ZM94.85-8.13L98.08-11.39Q98.21-11.30 98.32-11.22Q98.43-11.14 98.53-11.04L98.53-11.04L95.36-7.84Q95.14-8 94.85-8.13L94.85-8.13ZM100.48-16.26L100.48-15.68L99.90-15.68L100.48-16.26ZM83.90-0.77L83.90-1.34L85.25 0L84.67 0L83.90-0.77ZM99.10-10.53L95.94-7.36Q95.84-7.46 95.74-7.55Q95.65-7.65 95.52-7.74L95.52-7.74L98.69-10.91Q98.82-10.82 98.91-10.72Q99.01-10.62 99.10-10.53L99.10-10.53ZM99.62-9.95L96.32-6.66Q96.22-6.91 96.06-7.20L96.06-7.20L99.23-10.37Q99.33-10.27 99.42-10.16Q99.52-10.05 99.62-9.95L99.62-9.95ZM100.03-9.28L96.35-5.63Q96.45-5.82 96.45-6.05L96.45-6.05Q96.45-6.21 96.38-6.46L96.38-6.46L99.71-9.79Q99.81-9.66 99.89-9.54Q99.97-9.41 100.03-9.28L100.03-9.28ZM83.90-4L83.90-4.58L88.38-0.10L88.38 0L87.90 0L83.90-4ZM90.21-0.26L94.24-4.29Q94.94-4.38 95.33-4.61L95.33-4.61L90.82-0.10Q90.56-0.13 90.21-0.26L90.21-0.26ZM91.07-0.03L100.13-9.12Q100.19-8.96 100.27-8.83Q100.35-8.70 100.42-8.58L100.42-8.58L91.74 0.10Q91.58 0.06 91.41 0.05Q91.23 0.03 91.07-0.03L91.07-0.03ZM92 0.13L100.48-8.38Q100.64-8.03 100.67-7.78L100.67-7.78L92.70 0.19Q92.54 0.19 92.35 0.18Q92.16 0.16 92 0.13L92 0.13ZM93.63-4.26L93.92-4.26L89.98-0.32Q89.82-0.38 89.68-0.43Q89.54-0.48 89.38-0.54L89.38-0.54L93.12-4.26L93.63-4.26ZM88.64-0.86L92.16-4.38Q92.32-4.32 92.50-4.32Q92.67-4.32 92.86-4.29L92.86-4.29L89.18-0.61Q89.02-0.67 88.91-0.74Q88.80-0.80 88.64-0.86L88.64-0.86ZM88.13-1.44L91.30-4.61Q91.46-4.54 91.60-4.51Q91.74-4.48 91.90-4.42L91.90-4.42L88.45-0.96Q88.45-0.96 88.38-0.99L88.38-0.99L88.38-0.61L87.36-1.63L87.30-1.70L87.17-1.82L87.14-1.79Q87.01-1.89 86.90-1.98Q86.78-2.08 86.69-2.14L86.69-2.14L86.75-2.24L86.62-2.37L86.53-2.27Q86.43-2.37 86.32-2.46Q86.21-2.56 86.11-2.66L86.11-2.66L86.21-2.78L86.08-2.91L85.95-2.78Q85.86-2.88 85.76-2.99Q85.66-3.10 85.57-3.20L85.57-3.20L85.70-3.33L85.54-3.46L85.41-3.33Q85.31-3.46 85.22-3.55Q85.12-3.65 85.02-3.74L85.02-3.74L85.15-3.87L84.99-4L84.90-3.90Q84.80-4 84.70-4.11Q84.61-4.22 84.51-4.32L84.51-4.32L84.61-4.38L84.45-4.54L84.38-4.48Q84.29-4.58 84.21-4.69Q84.13-4.80 84.03-4.90L84.03-4.90L84.06-4.93L83.90-5.09L83.90-5.06L83.90-5.86L84.06-6.02L83.90-6.18L83.90-6.14L83.90-6.72L88.38-6.72Q88.51-6.59 88.58-6.50L88.58-6.50L88.38-6.30L88.38-6.02L88.26-6.18L88-5.92L88.13-5.76L88.74-6.37Q88.83-6.24 88.93-6.14Q89.02-6.05 89.12-5.95L89.12-5.95L88.38-5.22L88.38-4.96L88.26-5.09L88-4.83L88.13-4.67L89.28-5.82Q89.47-5.60 89.73-5.47L89.73-5.47L88.38-4.13L88.38-3.87L88.26-4L88-3.74L88.13-3.62L89.89-5.34Q90.14-5.12 90.37-5.02L90.37-5.02L88.38-3.04L88.38-2.78L88.26-2.91L88-2.66L88.13-2.53L90.53-4.93Q90.69-4.86 90.80-4.80Q90.91-4.74 91.07-4.67L91.07-4.67L88.38-1.98L88.38-1.70L88.26-1.82L88-1.57L88.13-1.44ZM84.19-6.46L84.45-6.72L84.61-6.56L84.35-6.30L84.19-6.46ZM84.35-5.22L84.61-5.47L84.45-5.63L84.19-5.38L84.35-5.22ZM84.90-4.67L85.15-4.93L84.99-5.09L84.74-4.83L84.90-4.67ZM84.90-5.76L85.15-6.02L84.99-6.18L84.74-5.92L84.90-5.76ZM85.44-4.16L85.70-4.38L85.54-4.54L85.28-4.29L85.44-4.16ZM85.44-5.22L85.70-5.47L85.54-5.63L85.28-5.38L85.44-5.22ZM85.70-6.56L85.44-6.30L85.28-6.46L85.54-6.72L85.70-6.56ZM85.98-3.62L86.21-3.87L86.08-4L85.82-3.74L85.98-3.62ZM85.98-4.67L86.21-4.93L86.08-5.09L85.82-4.83L85.98-4.67ZM85.98-5.76L86.21-6.02L86.08-6.18L85.82-5.92L85.98-5.76ZM86.50-3.07L86.75-3.33L86.62-3.46L86.37-3.20L86.50-3.07ZM86.50-4.16L86.75-4.38L86.62-4.54L86.37-4.29L86.50-4.16ZM86.50-5.22L86.75-5.47L86.62-5.63L86.37-5.38L86.50-5.22ZM86.75-6.56L86.50-6.30L86.37-6.46L86.62-6.72L86.75-6.56ZM87.04-2.53L87.30-2.78L87.17-2.91L86.91-2.66L87.04-2.53ZM87.04-3.62L87.30-3.87L87.17-4L86.91-3.74L87.04-3.62ZM87.04-4.67L87.30-4.93L87.17-5.09L86.91-4.83L87.04-4.67ZM87.04-5.76L87.30-6.02L87.17-6.18L86.91-5.92L87.04-5.76ZM87.58-1.98L87.84-2.24L87.71-2.37L87.46-2.11L87.58-1.98ZM87.58-3.07L87.84-3.33L87.71-3.46L87.46-3.20L87.58-3.07ZM87.58-4.16L87.84-4.38L87.71-4.54L87.46-4.29L87.58-4.16ZM87.58-5.22L87.84-5.47L87.71-5.63L87.46-5.38L87.58-5.22ZM87.84-6.56L87.58-6.30L87.46-6.46L87.71-6.72L87.84-6.56ZM99.58-2.37L98.72-1.47Q97.82-0.77 96.80-0.35L96.80-0.35L100.61-4.16Q100.29-3.20 99.58-2.37L99.58-2.37ZM83.90-2.94L83.90-3.49L87.39 0L86.85 0L83.90-2.94ZM94.05 0.22L100.90-6.62Q100.90-6.46 100.91-6.32Q100.93-6.18 100.93-6.05L100.93-6.05Q100.93-5.92 100.90-5.82L100.90-5.82L94.94 0.13Q94.72 0.16 94.51 0.18Q94.30 0.19 94.05 0.22L94.05 0.22ZM100.74-4.58L96.35-0.19Q96.10-0.13 95.82-0.06Q95.55 0 95.30 0.06L95.30 0.06L100.90-5.54Q100.86-5.28 100.83-5.06Q100.80-4.83 100.74-4.58L100.74-4.58ZM92.99 0.19L100.74-7.55Q100.80-7.36 100.82-7.20Q100.83-7.04 100.86-6.88L100.86-6.88L93.76 0.22L93.63 0.22Q93.47 0.22 93.31 0.22Q93.15 0.22 92.99 0.19L92.99 0.19ZM83.90-1.86L83.90-2.43L86.34 0L85.76 0L83.90-1.86ZM109.47-10.88L109.47-11.46L113.95-6.98L113.95-6.40L109.47-10.88ZM109.47-11.94L109.47-12.51L113.95-8.03L113.95-7.46L109.47-11.94ZM109.47-9.79L109.47-10.37L113.95-5.89L113.95-5.31L109.47-9.79ZM109.47-14.11L109.47-14.69L113.95-10.21L113.95-9.63L109.47-14.11ZM109.47-13.02L109.47-13.60L113.95-9.12L113.95-8.54L109.47-13.02ZM109.47-15.20L109.47-15.78L113.95-11.30L113.95-10.72L109.47-15.20ZM113.95-12.38L113.95-11.81L109.47-16.29L109.47-16.86L113.95-12.38ZM116.19 0L115.52 0L116.19-0.67L116.19 0ZM115.23 0L114.43 0L116.19-1.76L116.19-0.96L115.23 0ZM107.23-3.90L107.23-4.48L107.81-4.48L107.23-3.90ZM113.89-2.69L115.65-4.48L116.19-4.48L116.19-4.22L113.73-1.76L113.89-1.63L116.19-3.94L116.19-3.14L113.73-0.67L113.89-0.54L116.19-2.85L116.19-2.05L114.14 0L113.34 0L113.60-0.26L113.44-0.38L113.18-0.13L113.34 0L112.26 0L112.51-0.26L112.35-0.38L112.13-0.13L112.26 0L111.17 0L111.42-0.26L111.30-0.38L111.04-0.13L111.17 0L110.08 0L110.34-0.26L110.21-0.38L109.95-0.13L110.08 0L109.02 0L109.47-0.45L109.47-0.61L109.54-0.54L109.79-0.80L109.66-0.93L108.74 0L107.94 0L109.47-1.54L109.47-1.70L109.54-1.63L109.79-1.89L109.66-2.02L107.65 0L107.23 0L107.23-0.38L109.47-2.62L109.47-2.78L109.54-2.69L109.79-2.94L109.66-3.10L107.23-0.67L107.23-1.47L109.47-3.71L109.47-3.87L109.54-3.78L109.79-4.03L109.66-4.19L107.23-1.76L107.23-2.56L109.15-4.48L109.47-4.48L109.47-4.96L109.95-4.48L109.95-4.48L109.95-4.48L110.08-4.32L110.24-4.48L110.43-4.48L109.47-5.44L109.47-6.02L111.01-4.48L111.04-4.48L111.04-4.48L111.17-4.32L111.33-4.48L111.52-4.48L109.47-6.53L109.47-7.10L112.10-4.48L112.13-4.48L112.13-4.48L112.26-4.32L112.42-4.48L112.61-4.48L109.47-7.62L109.47-8.19L113.18-4.48L113.22-4.48L113.18-4.48L113.34-4.32L113.50-4.48L113.70-4.48L109.47-8.70L109.47-9.28L113.95-4.80L113.95-4.48L114.30-4.48L113.73-3.94L113.89-3.78L114.56-4.48L115.36-4.48L113.73-2.85L113.89-2.69ZM110.08-1.09L110.34-1.34L110.21-1.47L109.95-1.22L110.08-1.09ZM110.08-2.18L110.34-2.40L110.21-2.56L109.95-2.30L110.08-2.18ZM110.08-3.23L110.34-3.49L110.21-3.65L109.95-3.39L110.08-3.23ZM110.62-0.54L110.88-0.80L110.75-0.93L110.50-0.67L110.62-0.54ZM110.62-1.63L110.88-1.89L110.75-2.02L110.50-1.76L110.62-1.63ZM110.62-2.69L110.88-2.94L110.75-3.10L110.50-2.85L110.62-2.69ZM110.62-3.78L110.88-4.03L110.75-4.19L110.50-3.94L110.62-3.78ZM111.17-1.09L111.42-1.34L111.30-1.47L111.04-1.22L111.17-1.09ZM111.17-2.18L111.42-2.40L111.30-2.56L111.04-2.30L111.17-2.18ZM111.17-3.23L111.42-3.49L111.30-3.65L111.04-3.39L111.17-3.23ZM111.71-0.54L111.97-0.80L111.84-0.93L111.58-0.67L111.71-0.54ZM111.71-1.63L111.97-1.89L111.84-2.02L111.58-1.76L111.71-1.63ZM111.71-2.69L111.97-2.94L111.84-3.10L111.58-2.85L111.71-2.69ZM111.71-3.78L111.97-4.03L111.84-4.19L111.58-3.94L111.71-3.78ZM112.26-1.09L112.51-1.34L112.35-1.47L112.13-1.22L112.26-1.09ZM112.26-2.18L112.51-2.40L112.35-2.56L112.13-2.30L112.26-2.18ZM112.26-3.23L112.51-3.49L112.35-3.65L112.13-3.39L112.26-3.23ZM112.80-0.54L113.06-0.80L112.90-0.93L112.64-0.67L112.80-0.54ZM112.80-1.63L113.06-1.89L112.90-2.02L112.64-1.76L112.80-1.63ZM112.80-2.69L113.06-2.94L112.90-3.10L112.64-2.85L112.80-2.69ZM112.80-3.78L113.06-4.03L112.90-4.19L112.64-3.94L112.80-3.78ZM113.34-1.09L113.60-1.34L113.44-1.47L113.18-1.22L113.34-1.09ZM113.34-2.18L113.60-2.40L113.44-2.56L113.18-2.30L113.34-2.18ZM113.34-3.23L113.60-3.49L113.44-3.65L113.18-3.39L113.34-3.23ZM107.23-2.85L107.23-3.65L108.06-4.48L108.86-4.48L107.23-2.85ZM115.90-22.40L120.67-22.40L120.67-15.68L116.19-15.68L116.19-17.92L115.78-17.92L116.19-18.34L116.19-18.62L115.49-17.92L114.69-17.92L116.19-19.42L116.19-19.71L114.40-17.92L113.82-17.92L113.95-17.79L113.95-17.22L113.25-17.92L112.74-17.92L113.95-16.70L113.95-16.13L112.16-17.92L111.65-17.92L113.95-15.62L113.95-15.04L111.07-17.92L110.56-17.92L113.95-14.53L113.95-13.95L109.98-17.92L109.50-17.92L113.95-13.47L113.95-12.90L109.47-17.38L109.47-17.92L107.23-17.92L107.23-15.68L102.75-15.68L102.75-22.40L110.43-22.40L110.46-22.37L110.50-22.40L111.52-22.40L111.55-22.37L111.58-22.40L112.58-22.40L112.64-22.37L112.67-22.40L113.66-22.40L113.70-22.37L113.76-22.40L114.56-22.40L113.95-21.79L113.95-21.54L113.82-21.66L113.57-21.41L113.70-21.28L114.82-22.40L115.62-22.40L113.95-20.74L113.95-20.45L113.82-20.61L113.57-20.35L113.70-20.19L115.90-22.40ZM109.47-18.11L109.63-18.27L109.50-18.43L109.47-18.40L109.47-18.11ZM109.47-19.20L109.63-19.36L109.50-19.52L109.47-19.49L109.47-19.20ZM109.47-20.29L109.63-20.45L109.50-20.61L109.47-20.58L109.47-20.29ZM109.47-21.38L109.63-21.54L109.50-21.66L109.47-21.66L109.47-21.38ZM109.92-18.56L110.18-18.82L110.05-18.98L109.79-18.72L109.92-18.56ZM109.92-19.65L110.18-19.90L110.05-20.06L109.79-19.81L109.92-19.65ZM109.92-20.74L110.18-20.99L110.05-21.12L109.79-20.86L109.92-20.74ZM109.92-21.82L110.18-22.08L110.05-22.21L109.79-21.95L109.92-21.82ZM110.46-18.02L110.72-18.27L110.56-18.43L110.34-18.18L110.46-18.02ZM110.46-19.10L110.72-19.36L110.56-19.52L110.34-19.26L110.46-19.10ZM110.46-20.19L110.72-20.45L110.56-20.61L110.34-20.35L110.46-20.19ZM110.46-21.28L110.72-21.54L110.56-21.66L110.34-21.41L110.46-21.28ZM111.01-18.56L111.26-18.82L111.10-18.98L110.85-18.72L111.01-18.56ZM111.01-19.65L111.26-19.90L111.10-20.06L110.85-19.81L111.01-19.65ZM111.01-20.74L111.26-20.99L111.10-21.12L110.85-20.86L111.01-20.74ZM111.01-21.82L111.26-22.08L111.10-22.21L110.85-21.95L111.01-21.82ZM111.55-18.02L111.81-18.27L111.65-18.43L111.39-18.18L111.55-18.02ZM111.55-19.10L111.81-19.36L111.65-19.52L111.39-19.26L111.55-19.10ZM111.55-20.19L111.81-20.45L111.65-20.61L111.39-20.35L111.55-20.19ZM111.55-21.28L111.81-21.54L111.65-21.66L111.39-21.41L111.55-21.28ZM112.10-18.56L112.35-18.82L112.19-18.98L111.94-18.72L112.10-18.56ZM112.10-19.65L112.35-19.90L112.19-20.06L111.94-19.81L112.10-19.65ZM112.10-20.74L112.35-20.99L112.19-21.12L111.94-20.86L112.10-20.74ZM112.10-21.82L112.35-22.08L112.19-22.21L111.94-21.95L112.10-21.82ZM112.64-18.02L112.90-18.27L112.74-18.43L112.48-18.18L112.64-18.02ZM112.64-19.10L112.90-19.36L112.74-19.52L112.48-19.26L112.64-19.10ZM112.64-20.19L112.90-20.45L112.74-20.61L112.48-20.35L112.64-20.19ZM112.64-21.28L112.90-21.54L112.74-21.66L112.48-21.41L112.64-21.28ZM113.18-18.56L113.41-18.82L113.28-18.98L113.02-18.72L113.18-18.56ZM113.18-19.65L113.41-19.90L113.28-20.06L113.02-19.81L113.18-19.65ZM113.18-20.74L113.41-20.99L113.28-21.12L113.02-20.86L113.18-20.74ZM113.18-21.82L113.41-22.08L113.28-22.21L113.02-21.95L113.18-21.82ZM116.19-20.51L116.19-20.80L113.95-18.56L113.95-18.30L113.82-18.43L113.57-18.18L113.70-18.02L116.19-20.51ZM116.19-21.60L116.19-21.89L113.95-19.65L113.95-19.39L113.82-19.52L113.57-19.26L113.70-19.10L116.19-21.60ZM123.78 0L122.66-1.12L122.66-1.70L124.35 0L123.78 0ZM124.86 0L122.66-2.21L122.66-2.78L125.44 0L124.86 0ZM122.69 0L122.66-0.03L122.66-0.61L123.26 0L122.69 0ZM128.10 0L123.62-4.48L124.19-4.48L128.67 0L128.10 0ZM125.95 0L122.66-3.30L122.66-3.87L126.53 0L125.95 0ZM122.66-4.35L122.66-4.48L123.10-4.48L127.58 0L127.01 0L122.66-4.35ZM133.86-10.82L131.23-13.44L131.81-13.44L133.86-11.39L133.86-10.82ZM133.86-9.73L130.14-13.44L130.72-13.44L133.86-10.30L133.86-9.73ZM133.41-13.44L133.86-13.44L133.86-12.99L133.41-13.44ZM133.86-11.90L132.32-13.44L132.90-13.44L133.86-12.48L133.86-11.90ZM122.66-21.76L122.66-22.40L123.30-22.40L122.66-21.76ZM122.66-21.47L123.55-22.40L124.35-22.40L122.66-20.67L122.66-21.47ZM128.70-22.40L124.22-17.92L123.42-17.92L127.90-22.40L128.70-22.40ZM122.66-20.42L124.64-22.40L125.44-22.40L122.66-19.62L122.66-20.42ZM122.66-19.33L125.73-22.40L126.53-22.40L122.66-18.53L122.66-19.33ZM135.74-6.72L133.86-4.83L133.86-5.63L134.94-6.72L135.74-6.72ZM134.69-6.72L133.86-5.89L133.86-6.69L133.89-6.72L134.69-6.72ZM126.82-22.40L127.62-22.40L123.14-17.92L122.66-17.92L122.66-18.24L126.82-22.40ZM138.34-22.40L138.34-15.68L133.86-15.68L133.86-17.92L133.15-17.92L133.86-18.62L133.86-18.88L132.86-17.92L132.06-17.92L133.86-19.68L133.86-19.97L131.81-17.92L131.01-17.92L133.86-20.77L133.86-21.06L130.72-17.92L129.92-17.92L133.86-21.86L133.86-22.14L129.63-17.92L129.38-17.92L129.38-13.44L129.63-13.44L133.86-9.22L133.86-8.96L133.54-8.96L129.06-13.44L128.58-13.44L133.06-8.96L132.48-8.96L128.00-13.44L127.49-13.44L131.97-8.96L131.39-8.96L126.91-13.44L126.40-13.44L130.88-8.96L130.30-8.96L125.82-13.44L125.31-13.44L129.79-8.96L129.38-8.96L129.38-4.48L129.60-4.48L133.89-0.22L134.11-0.48L133.98-0.61L133.86-0.48L133.86-0.74L130.11-4.48L130.69-4.48L133.89-1.31L134.11-1.57L133.98-1.70L133.86-1.57L133.86-1.82L131.20-4.48L131.78-4.48L133.89-2.40L134.11-2.66L133.98-2.78L133.86-2.66L133.86-2.91L132.29-4.48L132.86-4.48L133.89-3.46L134.11-3.71L133.98-3.87L133.86-3.74L133.86-4L133.38-4.48L133.86-4.48L133.86-4.54L136.03-6.72L136.83-6.72L134.59-4.48L134.88-4.48L137.12-6.72L137.92-6.72L135.68-4.48L135.97-4.48L138.21-6.72L138.34-6.72L138.34-6.05L136.77-4.48L137.06-4.48L138.34-5.76L138.34-4.96L137.86-4.48L138.14-4.48L138.34-4.67L138.34-3.84L138.30-3.87L138.05-3.62L138.21-3.46L138.34-3.58L138.34-2.75L138.30-2.78L138.05-2.53L138.21-2.40L138.34-2.53L138.34-1.70L138.30-1.70L138.05-1.44L138.21-1.31L138.34-1.44L138.34-0.61L138.30-0.61L138.05-0.35L138.21-0.22L138.34-0.35L138.34 0L137.86 0L137.76-0.06L137.70 0L136.77 0L136.70-0.06L136.61 0L135.68 0L135.62-0.06L135.52 0L134.59 0L134.53-0.06L134.46 0L133.50 0L129.02-4.48L128.54-4.48L133.02 0L132.45 0L127.97-4.48L127.46-4.48L131.94 0L131.36 0L126.88-4.48L126.37-4.48L130.85 0L130.27 0L125.79-4.48L125.28-4.48L129.76 0L129.18 0L124.70-4.48L124.90-4.48L124.90-9.54L125.47-8.96L125.98-8.96L124.90-10.05L124.90-10.62L126.56-8.96L127.04-8.96L124.90-11.10L124.90-11.68L127.62-8.96L128.13-8.96L124.90-12.19L124.90-12.77L128.70-8.96L129.22-8.96L124.90-13.28L124.90-17.92L124.51-17.92L128.99-22.40L129.79-22.40L125.31-17.92L125.57-17.92L130.05-22.40L130.85-22.40L126.37-17.92L126.66-17.92L131.14-22.40L131.94-22.40L127.46-17.92L127.74-17.92L132.22-22.40L133.02-22.40L128.54-17.92L128.83-17.92L133.31-22.40L138.34-22.40ZM137.92-4.26L137.76-4.42L137.54-4.16L137.66-4L137.92-4.26ZM137.92-3.17L137.76-3.33L137.54-3.07L137.66-2.91L137.92-3.17ZM137.92-2.11L137.76-2.24L137.54-1.98L137.66-1.86L137.92-2.11ZM137.92-1.02L137.76-1.15L137.54-0.90L137.66-0.77L137.92-1.02ZM137.38-3.71L137.25-3.87L136.99-3.62L137.12-3.46L137.38-3.71ZM137.38-2.66L137.25-2.78L136.99-2.53L137.12-2.40L137.38-2.66ZM137.38-1.57L137.25-1.70L136.99-1.44L137.12-1.31L137.38-1.57ZM137.38-0.48L137.25-0.61L136.99-0.35L137.12-0.22L137.38-0.48ZM136.83-4.26L136.70-4.42L136.45-4.16L136.58-4L136.83-4.26ZM136.83-3.17L136.70-3.33L136.45-3.07L136.58-2.91L136.83-3.17ZM136.83-2.11L136.70-2.24L136.45-1.98L136.58-1.86L136.83-2.11ZM136.83-1.02L136.70-1.15L136.45-0.90L136.58-0.77L136.83-1.02ZM136.29-3.71L136.16-3.87L135.90-3.62L136.03-3.46L136.29-3.71ZM136.29-2.66L136.16-2.78L135.90-2.53L136.03-2.40L136.29-2.66ZM136.29-1.57L136.16-1.70L135.90-1.44L136.03-1.31L136.29-1.57ZM136.29-0.48L136.16-0.61L135.90-0.35L136.03-0.22L136.29-0.48ZM135.74-4.26L135.62-4.42L135.36-4.16L135.49-4L135.74-4.26ZM135.74-3.17L135.62-3.33L135.36-3.07L135.49-2.91L135.74-3.17ZM135.74-2.11L135.62-2.24L135.36-1.98L135.49-1.86L135.74-2.11ZM135.74-1.02L135.62-1.15L135.36-0.90L135.49-0.77L135.74-1.02ZM135.20-3.71L135.07-3.87L134.82-3.62L134.94-3.46L135.20-3.71ZM135.20-2.66L135.07-2.78L134.82-2.53L134.94-2.40L135.20-2.66ZM135.20-1.57L135.07-1.70L134.82-1.44L134.94-1.31L135.20-1.57ZM135.20-0.48L135.07-0.61L134.82-0.35L134.94-0.22L135.20-0.48ZM134.66-4.26L134.53-4.42L134.27-4.16L134.40-4L134.66-4.26ZM134.66-3.17L134.53-3.33L134.27-3.07L134.40-2.91L134.66-3.17ZM134.66-2.11L134.53-2.24L134.27-1.98L134.40-1.86L134.66-2.11ZM134.66-1.02L134.53-1.15L134.27-0.90L134.40-0.77L134.66-1.02ZM160.38 0L159.58 0L162.30-2.72L162.30-1.92L160.38 0ZM161.47 0L160.67 0L162.30-1.63L162.30-0.83L161.47 0ZM159.30 0L158.50 0L162.30-3.81L162.30-3.01L159.30 0ZM161.89-4.48L162.30-4.48L162.30-4.10L158.21 0L157.41 0L161.89-4.48ZM162.30 0L161.76 0L162.30-0.54L162.30 0ZM153.34-2.69L153.34-3.49L154.30-4.48L155.10-4.48L153.34-2.69ZM160.13-4.48L160.54-4.48L156.06 0L155.26 0L159.74-4.48L159.46-4.48L154.98 0L154.18 0L158.66-4.48L158.37-4.48L153.89 0L153.34 0L153.34-0.26L157.57-4.48L157.28-4.48L153.34-0.54L153.34-1.34L156.48-4.48L156.19-4.48L153.34-1.63L153.34-2.43L155.39-4.48L155.46-4.48L154.72-6.98L154.46-6.72L153.66-6.72L154.53-7.58L154.46-7.81L153.38-6.72L152.58-6.72L154.27-8.42L154.21-8.64L152.29-6.72L151.49-6.72L154.02-9.25L153.95-9.47L151.20-6.72L150.40-6.72L153.79-10.08L153.73-10.30L150.14-6.72L149.34-6.72L153.54-10.91L153.47-11.14L149.06-6.72L148.26-6.72L152.74-11.20L153.44-11.20L151.42-17.92L151.23-17.92L149.09-10.82L149.47-11.20L150.27-11.20L148.74-9.66L148.64-9.25L150.56-11.20L151.36-11.20L148.29-8.13L148.16-7.71L151.65-11.20L152.45-11.20L147.97-6.72L147.87-6.72L147.20-4.48L147.55-4.48L147.33-4.29L147.49-4.13L147.74-4.38L147.65-4.48L148.61-4.48L148.42-4.29L148.58-4.13L148.83-4.38L148.74-4.48L149.31-4.48L149.31-3.90L149.22-4L148.96-3.74L149.12-3.58L149.31-3.81L149.31-2.82L149.22-2.91L148.96-2.66L149.12-2.53L149.31-2.72L149.31-1.73L149.22-1.82L148.96-1.57L149.12-1.44L149.31-1.63L149.31-0.67L149.22-0.74L148.96-0.48L149.12-0.35L149.31-0.54L149.31 0L148.77 0L148.83-0.06L148.67-0.19L148.48 0L147.68 0L147.74-0.06L147.58-0.19L147.39 0L146.59 0L146.66-0.06L146.53-0.19L146.30 0L145.50 0L145.57-0.06L145.44-0.19L145.22 0L144.42 0L144.48-0.06L144.35-0.19L144.13 0L143.33 0L143.39-0.06L143.26-0.19L143.07 0L142.27 0L142.34-0.06L142.18-0.19L141.98 0L141.18 0L141.25-0.06L141.09-0.19L140.90 0L140.35 0L140.35-0.45L140.45-0.35L140.70-0.61L140.54-0.74L140.35-0.54L140.35-1.54L140.45-1.44L140.70-1.70L140.54-1.82L140.35-1.63L140.35-2.62L140.45-2.53L140.70-2.78L140.54-2.91L140.35-2.69L140.35-3.71L140.45-3.58L140.70-3.84L140.54-4L140.35-3.78L140.35-4.48L141.06-4.48L140.83-4.29L140.99-4.13L141.25-4.38L141.15-4.48L142.11-4.48L141.92-4.29L142.08-4.13L142.34-4.38L142.24-4.48L142.53-4.48L147.90-22.40L154.75-22.40L160.13-4.48ZM140.99-0.90L141.25-1.15L141.09-1.28L140.83-1.02L140.99-0.90ZM140.99-1.98L141.25-2.24L141.09-2.37L140.83-2.11L140.99-1.98ZM140.99-3.07L141.25-3.30L141.09-3.46L140.83-3.20L140.99-3.07ZM141.54-0.35L141.79-0.61L141.63-0.74L141.38-0.48L141.54-0.35ZM141.54-1.44L141.79-1.70L141.63-1.82L141.38-1.57L141.54-1.44ZM141.54-2.53L141.79-2.78L141.63-2.91L141.38-2.66L141.54-2.53ZM141.54-3.58L141.79-3.84L141.63-4L141.38-3.74L141.54-3.58ZM142.08-0.90L142.34-1.15L142.18-1.28L141.92-1.02L142.08-0.90ZM142.08-1.98L142.34-2.24L142.18-2.37L141.92-2.11L142.08-1.98ZM142.08-3.07L142.34-3.30L142.18-3.46L141.92-3.20L142.08-3.07ZM142.62-0.35L142.88-0.61L142.72-0.74L142.46-0.48L142.62-0.35ZM142.62-1.44L142.88-1.70L142.72-1.82L142.46-1.57L142.62-1.44ZM142.62-2.53L142.88-2.78L142.72-2.91L142.46-2.66L142.62-2.53ZM142.62-3.58L142.88-3.84L142.72-4L142.46-3.74L142.62-3.58ZM143.17-0.90L143.39-1.15L143.26-1.28L143.01-1.02L143.17-0.90ZM143.17-1.98L143.39-2.24L143.26-2.37L143.01-2.11L143.17-1.98ZM143.17-3.07L143.39-3.30L143.26-3.46L143.01-3.20L143.17-3.07ZM143.17-4.13L143.39-4.38L143.33-4.48L143.20-4.48L143.01-4.29L143.17-4.13ZM143.68-0.35L143.94-0.61L143.81-0.74L143.55-0.48L143.68-0.35ZM143.68-1.44L143.94-1.70L143.81-1.82L143.55-1.57L143.68-1.44ZM143.68-2.53L143.94-2.78L143.81-2.91L143.55-2.66L143.68-2.53ZM143.68-3.58L143.94-3.84L143.81-4L143.55-3.74L143.68-3.58ZM144.22-0.90L144.48-1.15L144.35-1.28L144.10-1.02L144.22-0.90ZM144.22-1.98L144.48-2.24L144.35-2.37L144.10-2.11L144.22-1.98ZM144.22-3.07L144.48-3.30L144.35-3.46L144.10-3.20L144.22-3.07ZM144.22-4.13L144.48-4.38L144.42-4.48L144.29-4.48L144.10-4.29L144.22-4.13ZM148.67-3.46L148.42-3.20L148.58-3.07L148.83-3.30L148.67-3.46ZM148.67-2.37L148.42-2.11L148.58-1.98L148.83-2.24L148.67-2.37ZM148.67-1.28L148.42-1.02L148.58-0.90L148.83-1.15L148.67-1.28ZM148.13-4L147.87-3.74L148.03-3.58L148.29-3.84L148.13-4ZM148.13-2.91L147.87-2.66L148.03-2.53L148.29-2.78L148.13-2.91ZM148.13-1.82L147.87-1.57L148.03-1.44L148.29-1.70L148.13-1.82ZM148.13-0.74L147.87-0.48L148.03-0.35L148.29-0.61L148.13-0.74ZM144.77-0.35L145.02-0.61L144.90-0.74L144.64-0.48L144.77-0.35ZM144.77-1.44L145.02-1.70L144.90-1.82L144.64-1.57L144.77-1.44ZM144.77-2.53L145.02-2.78L144.90-2.91L144.64-2.66L144.77-2.53ZM144.77-3.58L145.02-3.84L144.90-4L144.64-3.74L144.77-3.58ZM145.31-0.90L145.57-1.15L145.44-1.28L145.18-1.02L145.31-0.90ZM145.31-1.98L145.57-2.24L145.44-2.37L145.18-2.11L145.31-1.98ZM145.31-3.07L145.57-3.30L145.44-3.46L145.18-3.20L145.31-3.07ZM145.31-4.13L145.57-4.38L145.50-4.48L145.38-4.48L145.18-4.29L145.31-4.13ZM145.86-0.35L146.11-0.61L145.98-0.74L145.73-0.48L145.86-0.35ZM145.86-1.44L146.11-1.70L145.98-1.82L145.73-1.57L145.86-1.44ZM145.86-2.53L146.11-2.78L145.98-2.91L145.73-2.66L145.86-2.53ZM145.86-3.58L146.11-3.84L145.98-4L145.73-3.74L145.86-3.58ZM146.40-0.90L146.66-1.15L146.53-1.28L146.27-1.02L146.40-0.90ZM146.40-1.98L146.66-2.24L146.53-2.37L146.27-2.11L146.40-1.98ZM146.40-3.07L146.66-3.30L146.53-3.46L146.27-3.20L146.40-3.07ZM146.40-4.13L146.66-4.38L146.56-4.48L146.46-4.48L146.27-4.29L146.40-4.13ZM146.94-0.35L147.20-0.61L147.04-0.74L146.82-0.48L146.94-0.35ZM146.94-1.44L147.20-1.70L147.04-1.82L146.82-1.57L146.94-1.44ZM146.94-2.53L147.20-2.78L147.04-2.91L146.82-2.66L146.94-2.53ZM147.58-3.46L147.33-3.20L147.49-3.07L147.74-3.30L147.58-3.46ZM147.58-2.37L147.33-2.11L147.49-1.98L147.74-2.24L147.58-2.37ZM147.58-1.28L147.33-1.02L147.49-0.90L147.74-1.15L147.58-1.28ZM147.20-3.84L147.04-4L146.82-3.74L146.94-3.58L147.20-3.84ZM153.34-3.78L153.34-4.48L154.05-4.48L153.34-3.78ZM160.83-4.48L161.60-4.48L157.12 0L156.35 0L160.83-4.48ZM180.96-18.02L177.57-14.62Q177.50-14.78 177.46-14.93Q177.41-15.07 177.34-15.23L177.34-15.23L180.64-18.50Q180.70-18.37 180.80-18.26Q180.90-18.14 180.96-18.02L180.96-18.02ZM181.31-17.31L177.73-13.70Q177.70-13.86 177.68-14.05Q177.66-14.24 177.63-14.40L177.63-14.40L181.06-17.82Q181.22-17.57 181.31-17.31L181.31-17.31ZM173.25-17.92L172.48-17.92L176.38-21.82Q176.54-21.76 176.67-21.71Q176.80-21.66 176.96-21.60L176.96-21.60L173.28-17.92L173.25-17.92ZM172.19-17.92L171.39-17.92L175.55-22.08Q175.84-22.05 176.19-21.89L176.19-21.89L172.19-17.92ZM165.06-22.40L165.86-22.40L164.29-20.83L164.29-21.63L165.06-22.40ZM164.29-22.40L164.77-22.40L164.29-21.92L164.29-22.40ZM182.21-13.57L182.21-13.44L182.21-8.96Q182.21-7.10 181.50-5.47Q180.80-3.84 179.58-2.62Q178.37-1.41 176.74-0.70Q175.10 0 173.25 0L173.25 0L164.29 0L164.29-4.48L166.53-4.48L166.53-4.77L166.82-4.48L167.33-4.48L166.53-5.28L166.53-5.86L167.90-4.48L168.42-4.48L166.53-6.37L166.53-6.94L168.99-4.48L169.50-4.48L166.53-7.46L166.53-8.03L170.08-4.48L170.59-4.48L166.53-8.54L166.53-9.12L171.01-4.64L171.01-4.48L173.25-4.48Q174.18-4.48 174.99-4.83Q175.81-5.18 176.42-5.79Q177.02-6.40 177.38-7.22Q177.73-8.03 177.73-8.96L177.73-8.96L177.73-9.09L177.79-9.18L177.73-9.25L177.73-10.18L177.79-10.24L177.73-10.34L177.73-11.26L177.79-11.33L177.73-11.42L177.73-12.35L177.79-12.42L177.73-12.51L177.73-13.41L181.41-17.12Q181.47-16.96 181.54-16.83Q181.60-16.70 181.66-16.54L181.66-16.54L178.50-13.38L178.62-13.25L181.73-16.35Q181.79-16.19 181.82-16.03Q181.86-15.87 181.92-15.71L181.92-15.71L179.58-13.38L179.71-13.25L181.95-15.49Q182.02-15.33 182.03-15.15Q182.05-14.98 182.11-14.82L182.11-14.82L180.67-13.38L180.80-13.25L182.14-14.59Q182.18-14.40 182.18-14.21Q182.18-14.02 182.21-13.86L182.21-13.86L181.73-13.38L181.89-13.25L182.21-13.57ZM178.08-9.47L178.34-9.73L178.21-9.86L177.95-9.60L178.08-9.47ZM178.08-10.53L178.34-10.78L178.21-10.94L177.95-10.69L178.08-10.53ZM178.08-11.62L178.34-11.87L178.21-12.03L177.95-11.78L178.08-11.62ZM178.08-12.70L178.34-12.96L178.21-13.09L177.95-12.86L178.08-12.70ZM178.69-8.96L178.88-9.18L178.75-9.31L178.50-9.06L178.59-8.96L178.69-8.96ZM178.62-9.98L178.88-10.24L178.75-10.40L178.50-10.14L178.62-9.98ZM178.62-11.07L178.88-11.33L178.75-11.49L178.50-11.23L178.62-11.07ZM178.62-12.16L178.88-12.42L178.75-12.58L178.50-12.32L178.62-12.16ZM179.17-9.47L179.42-9.73L179.30-9.86L179.04-9.60L179.17-9.47ZM179.17-10.53L179.42-10.78L179.30-10.94L179.04-10.69L179.17-10.53ZM179.17-11.62L179.42-11.87L179.30-12.03L179.04-11.78L179.17-11.62ZM179.17-12.70L179.42-12.96L179.30-13.09L179.04-12.86L179.17-12.70ZM179.74-8.96L179.97-9.18L179.84-9.31L179.58-9.06L179.68-8.96L179.74-8.96ZM179.71-9.98L179.97-10.24L179.84-10.40L179.58-10.14L179.71-9.98ZM179.71-11.07L179.97-11.33L179.84-11.49L179.58-11.23L179.71-11.07ZM179.71-12.16L179.97-12.42L179.84-12.58L179.58-12.32L179.71-12.16ZM180.26-9.47L180.51-9.73L180.38-9.86L180.13-9.60L180.26-9.47ZM180.26-10.53L180.51-10.78L180.38-10.94L180.13-10.69L180.26-10.53ZM180.26-11.62L180.51-11.87L180.38-12.03L180.13-11.78L180.26-11.62ZM180.26-12.70L180.51-12.96L180.38-13.09L180.13-12.86L180.26-12.70ZM180.83-8.96L181.06-9.18L180.93-9.31L180.67-9.06L180.77-8.96L180.83-8.96ZM180.80-9.98L181.06-10.24L180.93-10.40L180.67-10.14L180.80-9.98ZM180.80-11.07L181.06-11.33L180.93-11.49L180.67-11.23L180.80-11.07ZM180.80-12.16L181.06-12.42L180.93-12.58L180.67-12.32L180.80-12.16ZM181.34-9.47L181.60-9.73L181.44-9.86L181.18-9.60L181.34-9.47ZM181.34-10.53L181.60-10.78L181.44-10.94L181.18-10.69L181.34-10.53ZM181.34-11.62L181.60-11.87L181.44-12.03L181.18-11.78L181.34-11.62ZM181.34-12.70L181.60-12.96L181.44-13.09L181.18-12.86L181.34-12.70ZM181.92-8.96L182.14-9.18L181.98-9.31L181.73-9.06L181.86-8.96L181.92-8.96ZM181.89-9.98L182.14-10.24L181.98-10.40L181.73-10.14L181.89-9.98ZM181.89-11.07L182.14-11.33L181.98-11.49L181.73-11.23L181.89-11.07ZM181.89-12.16L182.14-12.42L181.98-12.58L181.73-12.32L181.89-12.16ZM178.34-20.80L175.07-17.54Q174.91-17.60 174.77-17.65Q174.62-17.70 174.46-17.76L174.46-17.76L177.86-21.12Q177.98-21.06 178.10-20.98Q178.21-20.90 178.34-20.80L178.34-20.80ZM166.53-19.84L164.61-17.92L164.29-17.92L164.29-18.40L166.53-20.64L166.53-20.93L164.29-18.69L164.29-19.49L166.53-21.73L166.53-21.98L164.29-19.74L164.29-20.54L166.14-22.40L171.26-22.40L170.91-22.05L171.01-21.95L171.01-21.86L171.55-22.40L172.35-22.40L170.91-20.96L171.01-20.86L171.01-20.77L172.64-22.40L173.25-22.40L173.41-22.40L170.91-19.87L171.01-19.81L171.01-19.71L173.70-22.40Q173.89-22.37 174.06-22.35Q174.24-22.34 174.43-22.30L174.43-22.30L170.91-18.82L171.01-18.72L171.01-18.62L174.69-22.27Q174.85-22.24 175.01-22.22Q175.17-22.21 175.33-22.14L175.33-22.14L171.10-17.92L170.72-17.92L171.01-17.63L171.01-17.06L170.08-17.98L170.02-17.92L169.63-17.92L171.01-16.54L171.01-15.97L168.99-17.98L168.96-17.92L168.54-17.92L171.01-15.46L171.01-14.88L167.90-17.98L167.87-17.92L167.46-17.92L171.01-14.37L171.01-13.79L166.85-17.98L166.78-17.92L165.98-17.92L166.53-18.46L166.53-18.75L165.70-17.92L164.90-17.92L166.53-19.55L166.53-19.84ZM170.62-21.76L170.37-21.50L170.53-21.38L170.75-21.63L170.62-21.76ZM170.62-20.67L170.37-20.42L170.53-20.29L170.75-20.54L170.62-20.67ZM170.62-19.58L170.37-19.36L170.53-19.20L170.75-19.46L170.62-19.58ZM170.62-18.53L170.37-18.27L170.53-18.11L170.75-18.37L170.62-18.53ZM170.08-22.30L169.82-22.05L169.98-21.92L170.24-22.18L170.08-22.30ZM170.08-21.22L169.82-20.96L169.98-20.83L170.24-21.09L170.08-21.22ZM170.08-20.13L169.82-19.87L169.98-19.74L170.24-20L170.08-20.13ZM170.08-19.07L169.82-18.82L169.98-18.66L170.24-18.91L170.08-19.07ZM169.54-21.76L169.28-21.50L169.44-21.38L169.70-21.63L169.54-21.76ZM169.54-20.67L169.28-20.42L169.44-20.29L169.70-20.54L169.54-20.67ZM169.54-19.58L169.28-19.36L169.44-19.20L169.70-19.46L169.54-19.58ZM169.54-18.53L169.28-18.27L169.44-18.11L169.70-18.37L169.54-18.53ZM168.99-22.30L168.74-22.05L168.90-21.92L169.15-22.18L168.99-22.30ZM168.99-21.22L168.74-20.96L168.90-20.83L169.15-21.09L168.99-21.22ZM168.99-20.13L168.74-19.87L168.90-19.74L169.15-20L168.99-20.13ZM168.99-19.07L168.74-18.82L168.90-18.66L169.15-18.91L168.99-19.07ZM168.45-21.76L168.19-21.50L168.35-21.38L168.61-21.63L168.45-21.76ZM168.45-20.67L168.19-20.42L168.35-20.29L168.61-20.54L168.45-20.67ZM168.45-19.58L168.19-19.36L168.35-19.20L168.61-19.46L168.45-19.58ZM168.45-18.53L168.19-18.27L168.35-18.11L168.61-18.37L168.45-18.53ZM167.90-22.30L167.68-22.05L167.81-21.92L168.06-22.18L167.90-22.30ZM167.90-21.22L167.68-20.96L167.81-20.83L168.06-21.09L167.90-21.22ZM167.90-20.13L167.68-19.87L167.81-19.74L168.06-20L167.90-20.13ZM167.90-19.07L167.68-18.82L167.81-18.66L168.06-18.91L167.90-19.07ZM167.39-21.76L167.14-21.50L167.26-21.38L167.52-21.63L167.39-21.76ZM167.39-20.67L167.14-20.42L167.26-20.29L167.52-20.54L167.39-20.67ZM167.39-19.58L167.14-19.36L167.26-19.20L167.52-19.46L167.39-19.58ZM167.39-18.53L167.14-18.27L167.26-18.11L167.52-18.37L167.39-18.53ZM166.85-22.30L166.59-22.05L166.72-21.92L166.98-22.18L166.85-22.30ZM166.85-21.22L166.59-20.96L166.72-20.83L166.98-21.09L166.85-21.22ZM166.85-20.13L166.59-19.87L166.72-19.74L166.98-20L166.85-20.13ZM166.85-19.07L166.59-18.82L166.72-18.66L166.98-18.91L166.85-19.07ZM178.94-20.35L175.74-17.15Q175.62-17.22 175.50-17.30Q175.39-17.38 175.23-17.44L175.23-17.44L178.50-20.70Q178.62-20.61 178.74-20.53Q178.85-20.45 178.94-20.35L178.94-20.35ZM180.03-19.26L176.86-16.10Q176.77-16.19 176.67-16.30Q176.58-16.42 176.48-16.51L176.48-16.51L179.65-19.68Q179.74-19.58 179.84-19.49Q179.94-19.39 180.03-19.26L180.03-19.26ZM180.51-18.66L177.25-15.42Q177.15-15.65 176.96-15.90L176.96-15.90L180.16-19.10Q180.35-18.88 180.51-18.66L180.51-18.66ZM179.52-19.84L176.35-16.67Q176.13-16.86 175.90-17.02L175.90-17.02L179.10-20.22Q179.20-20.13 179.31-20.03Q179.42-19.94 179.52-19.84L179.52-19.84ZM177.66-21.22L174.24-17.79Q173.89-17.89 173.54-17.89L173.54-17.89L177.15-21.50Q177.28-21.44 177.41-21.36Q177.54-21.28 177.66-21.22L177.66-21.22ZM171.01-8.96L171.01-8.38L166.53-12.86L166.53-13.44L171.01-8.96ZM171.01-11.14L171.01-10.56L166.53-15.04L166.53-15.62L171.01-11.14ZM171.01-12.22L171.01-11.65L166.53-16.13L166.53-16.70L171.01-12.22ZM171.01-13.31L171.01-12.74L166.53-17.22L166.53-17.79L171.01-13.31ZM166.53-9.63L166.53-10.21L171.01-5.73L171.01-5.15L166.53-9.63ZM171.01-10.05L171.01-9.47L166.53-13.95L166.53-14.53L171.01-10.05ZM171.01-6.78L171.01-6.24L166.53-10.72L166.53-11.26L171.01-6.78ZM171.01-7.87L171.01-7.30L166.53-11.78L166.53-12.35L171.01-7.87ZM200.67-18.02L197.28-14.62Q197.22-14.78 197.17-14.93Q197.12-15.07 197.06-15.23L197.06-15.23L200.35-18.50Q200.42-18.37 200.51-18.26Q200.61-18.14 200.67-18.02L200.67-18.02ZM201.02-17.31L197.44-13.70Q197.41-13.86 197.39-14.05Q197.38-14.24 197.34-14.40L197.34-14.40L200.77-17.82Q200.93-17.57 201.02-17.31L201.02-17.31ZM192.96-17.92L192.19-17.92L196.10-21.82Q196.26-21.76 196.38-21.71Q196.51-21.66 196.67-21.60L196.67-21.60L192.99-17.92L192.96-17.92ZM191.90-17.92L191.10-17.92L195.26-22.08Q195.55-22.05 195.90-21.89L195.90-21.89L191.90-17.92ZM184.77-22.40L185.57-22.40L184-20.83L184-21.63L184.77-22.40ZM184-22.40L184.48-22.40L184-21.92L184-22.40ZM201.92-13.57L201.92-13.44L201.92-8.96Q201.92-7.10 201.22-5.47Q200.51-3.84 199.30-2.62Q198.08-1.41 196.45-0.70Q194.82 0 192.96 0L192.96 0L184 0L184-4.48L186.24-4.48L186.24-4.77L186.53-4.48L187.04-4.48L186.24-5.28L186.24-5.86L187.62-4.48L188.13-4.48L186.24-6.37L186.24-6.94L188.70-4.48L189.22-4.48L186.24-7.46L186.24-8.03L189.79-4.48L190.30-4.48L186.24-8.54L186.24-9.12L190.72-4.64L190.72-4.48L192.96-4.48Q193.89-4.48 194.70-4.83Q195.52-5.18 196.13-5.79Q196.74-6.40 197.09-7.22Q197.44-8.03 197.44-8.96L197.44-8.96L197.44-9.09L197.50-9.18L197.44-9.25L197.44-10.18L197.50-10.24L197.44-10.34L197.44-11.26L197.50-11.33L197.44-11.42L197.44-12.35L197.50-12.42L197.44-12.51L197.44-13.41L201.12-17.12Q201.18-16.96 201.25-16.83Q201.31-16.70 201.38-16.54L201.38-16.54L198.21-13.38L198.34-13.25L201.44-16.35Q201.50-16.19 201.54-16.03Q201.57-15.87 201.63-15.71L201.63-15.71L199.30-13.38L199.42-13.25L201.66-15.49Q201.73-15.33 201.74-15.15Q201.76-14.98 201.82-14.82L201.82-14.82L200.38-13.38L200.51-13.25L201.86-14.59Q201.89-14.40 201.89-14.21Q201.89-14.02 201.92-13.86L201.92-13.86L201.44-13.38L201.60-13.25L201.92-13.57ZM197.79-9.47L198.05-9.73L197.92-9.86L197.66-9.60L197.79-9.47ZM197.79-10.53L198.05-10.78L197.92-10.94L197.66-10.69L197.79-10.53ZM197.79-11.62L198.05-11.87L197.92-12.03L197.66-11.78L197.79-11.62ZM197.79-12.70L198.05-12.96L197.92-13.09L197.66-12.86L197.79-12.70ZM198.40-8.96L198.59-9.18L198.46-9.31L198.21-9.06L198.30-8.96L198.40-8.96ZM198.34-9.98L198.59-10.24L198.46-10.40L198.21-10.14L198.34-9.98ZM198.34-11.07L198.59-11.33L198.46-11.49L198.21-11.23L198.34-11.07ZM198.34-12.16L198.59-12.42L198.46-12.58L198.21-12.32L198.34-12.16ZM198.88-9.47L199.14-9.73L199.01-9.86L198.75-9.60L198.88-9.47ZM198.88-10.53L199.14-10.78L199.01-10.94L198.75-10.69L198.88-10.53ZM198.88-11.62L199.14-11.87L199.01-12.03L198.75-11.78L198.88-11.62ZM198.88-12.70L199.14-12.96L199.01-13.09L198.75-12.86L198.88-12.70ZM199.46-8.96L199.68-9.18L199.55-9.31L199.30-9.06L199.39-8.96L199.46-8.96ZM199.42-9.98L199.68-10.24L199.55-10.40L199.30-10.14L199.42-9.98ZM199.42-11.07L199.68-11.33L199.55-11.49L199.30-11.23L199.42-11.07ZM199.42-12.16L199.68-12.42L199.55-12.58L199.30-12.32L199.42-12.16ZM199.97-9.47L200.22-9.73L200.10-9.86L199.84-9.60L199.97-9.47ZM199.97-10.53L200.22-10.78L200.10-10.94L199.84-10.69L199.97-10.53ZM199.97-11.62L200.22-11.87L200.10-12.03L199.84-11.78L199.97-11.62ZM199.97-12.70L200.22-12.96L200.10-13.09L199.84-12.86L199.97-12.70ZM200.54-8.96L200.77-9.18L200.64-9.31L200.38-9.06L200.48-8.96L200.54-8.96ZM200.51-9.98L200.77-10.24L200.64-10.40L200.38-10.14L200.51-9.98ZM200.51-11.07L200.77-11.33L200.64-11.49L200.38-11.23L200.51-11.07ZM200.51-12.16L200.77-12.42L200.64-12.58L200.38-12.32L200.51-12.16ZM201.06-9.47L201.31-9.73L201.15-9.86L200.90-9.60L201.06-9.47ZM201.06-10.53L201.31-10.78L201.15-10.94L200.90-10.69L201.06-10.53ZM201.06-11.62L201.31-11.87L201.15-12.03L200.90-11.78L201.06-11.62ZM201.06-12.70L201.31-12.96L201.15-13.09L200.90-12.86L201.06-12.70ZM201.63-8.96L201.86-9.18L201.70-9.31L201.44-9.06L201.57-8.96L201.63-8.96ZM201.60-9.98L201.86-10.24L201.70-10.40L201.44-10.14L201.60-9.98ZM201.60-11.07L201.86-11.33L201.70-11.49L201.44-11.23L201.60-11.07ZM201.60-12.16L201.86-12.42L201.70-12.58L201.44-12.32L201.60-12.16ZM198.05-20.80L194.78-17.54Q194.62-17.60 194.48-17.65Q194.34-17.70 194.18-17.76L194.18-17.76L197.57-21.12Q197.70-21.06 197.81-20.98Q197.92-20.90 198.05-20.80L198.05-20.80ZM186.24-19.84L184.32-17.92L184-17.92L184-18.40L186.24-20.64L186.24-20.93L184-18.69L184-19.49L186.24-21.73L186.24-21.98L184-19.74L184-20.54L185.86-22.40L190.98-22.40L190.62-22.05L190.72-21.95L190.72-21.86L191.26-22.40L192.06-22.40L190.62-20.96L190.72-20.86L190.72-20.77L192.35-22.40L192.96-22.40L193.12-22.40L190.62-19.87L190.72-19.81L190.72-19.71L193.41-22.40Q193.60-22.37 193.78-22.35Q193.95-22.34 194.14-22.30L194.14-22.30L190.62-18.82L190.72-18.72L190.72-18.62L194.40-22.27Q194.56-22.24 194.72-22.22Q194.88-22.21 195.04-22.14L195.04-22.14L190.82-17.92L190.43-17.92L190.72-17.63L190.72-17.06L189.79-17.98L189.73-17.92L189.34-17.92L190.72-16.54L190.72-15.97L188.70-17.98L188.67-17.92L188.26-17.92L190.72-15.46L190.72-14.88L187.62-17.98L187.58-17.92L187.17-17.92L190.72-14.37L190.72-13.79L186.56-17.98L186.50-17.92L185.70-17.92L186.24-18.46L186.24-18.75L185.41-17.92L184.61-17.92L186.24-19.55L186.24-19.84ZM190.34-21.76L190.08-21.50L190.24-21.38L190.46-21.63L190.34-21.76ZM190.34-20.67L190.08-20.42L190.24-20.29L190.46-20.54L190.34-20.67ZM190.34-19.58L190.08-19.36L190.24-19.20L190.46-19.46L190.34-19.58ZM190.34-18.53L190.08-18.27L190.24-18.11L190.46-18.37L190.34-18.53ZM189.79-22.30L189.54-22.05L189.70-21.92L189.95-22.18L189.79-22.30ZM189.79-21.22L189.54-20.96L189.70-20.83L189.95-21.09L189.79-21.22ZM189.79-20.13L189.54-19.87L189.70-19.74L189.95-20L189.79-20.13ZM189.79-19.07L189.54-18.82L189.70-18.66L189.95-18.91L189.79-19.07ZM189.25-21.76L188.99-21.50L189.15-21.38L189.41-21.63L189.25-21.76ZM189.25-20.67L188.99-20.42L189.15-20.29L189.41-20.54L189.25-20.67ZM189.25-19.58L188.99-19.36L189.15-19.20L189.41-19.46L189.25-19.58ZM189.25-18.53L188.99-18.27L189.15-18.11L189.41-18.37L189.25-18.53ZM188.70-22.30L188.45-22.05L188.61-21.92L188.86-22.18L188.70-22.30ZM188.70-21.22L188.45-20.96L188.61-20.83L188.86-21.09L188.70-21.22ZM188.70-20.13L188.45-19.87L188.61-19.74L188.86-20L188.70-20.13ZM188.70-19.07L188.45-18.82L188.61-18.66L188.86-18.91L188.70-19.07ZM188.16-21.76L187.90-21.50L188.06-21.38L188.32-21.63L188.16-21.76ZM188.16-20.67L187.90-20.42L188.06-20.29L188.32-20.54L188.16-20.67ZM188.16-19.58L187.90-19.36L188.06-19.20L188.32-19.46L188.16-19.58ZM188.16-18.53L187.90-18.27L188.06-18.11L188.32-18.37L188.16-18.53ZM187.62-22.30L187.39-22.05L187.52-21.92L187.78-22.18L187.62-22.30ZM187.62-21.22L187.39-20.96L187.52-20.83L187.78-21.09L187.62-21.22ZM187.62-20.13L187.39-19.87L187.52-19.74L187.78-20L187.62-20.13ZM187.62-19.07L187.39-18.82L187.52-18.66L187.78-18.91L187.62-19.07ZM187.10-21.76L186.85-21.50L186.98-21.38L187.23-21.63L187.10-21.76ZM187.10-20.67L186.85-20.42L186.98-20.29L187.23-20.54L187.10-20.67ZM187.10-19.58L186.85-19.36L186.98-19.20L187.23-19.46L187.10-19.58ZM187.10-18.53L186.85-18.27L186.98-18.11L187.23-18.37L187.10-18.53ZM186.56-22.30L186.30-22.05L186.43-21.92L186.69-22.18L186.56-22.30ZM186.56-21.22L186.30-20.96L186.43-20.83L186.69-21.09L186.56-21.22ZM186.56-20.13L186.30-19.87L186.43-19.74L186.69-20L186.56-20.13ZM186.56-19.07L186.30-18.82L186.43-18.66L186.69-18.91L186.56-19.07ZM198.66-20.35L195.46-17.15Q195.33-17.22 195.22-17.30Q195.10-17.38 194.94-17.44L194.94-17.44L198.21-20.70Q198.34-20.61 198.45-20.53Q198.56-20.45 198.66-20.35L198.66-20.35ZM199.74-19.26L196.58-16.10Q196.48-16.19 196.38-16.30Q196.29-16.42 196.19-16.51L196.19-16.51L199.36-19.68Q199.46-19.58 199.55-19.49Q199.65-19.39 199.74-19.26L199.74-19.26ZM200.22-18.66L196.96-15.42Q196.86-15.65 196.67-15.90L196.67-15.90L199.87-19.10Q200.06-18.88 200.22-18.66L200.22-18.66ZM199.23-19.84L196.06-16.67Q195.84-16.86 195.62-17.02L195.62-17.02L198.82-20.22Q198.91-20.13 199.02-20.03Q199.14-19.94 199.23-19.84L199.23-19.84ZM197.38-21.22L193.95-17.79Q193.60-17.89 193.25-17.89L193.25-17.89L196.86-21.50Q196.99-21.44 197.12-21.36Q197.25-21.28 197.38-21.22L197.38-21.22ZM190.72-8.96L190.72-8.38L186.24-12.86L186.24-13.44L190.72-8.96ZM190.72-11.14L190.72-10.56L186.24-15.04L186.24-15.62L190.72-11.14ZM190.72-12.22L190.72-11.65L186.24-16.13L186.24-16.70L190.72-12.22ZM190.72-13.31L190.72-12.74L186.24-17.22L186.24-17.79L190.72-13.31ZM186.24-9.63L186.24-10.21L190.72-5.73L190.72-5.15L186.24-9.63ZM190.72-10.05L190.72-9.47L186.24-13.95L186.24-14.53L190.72-10.05ZM190.72-6.78L190.72-6.24L186.24-10.72L186.24-11.26L190.72-6.78ZM190.72-7.87L190.72-7.30L186.24-11.78L186.24-12.35L190.72-7.87ZM204.61 0L203.71-0.90L203.71-1.47L205.18 0L204.61 0ZM204.13 0L203.71 0L203.71-0.42L204.13 0ZM212.67-3.87L212.06-4.48L212.64-4.48L212.67-4.45L212.67-3.87ZM212.67-2.78L210.98-4.48L211.55-4.48L212.67-3.36L212.67-2.78ZM210.43-4.61L210.30-4.48L210.46-4.48L212.67-2.27L212.67-1.70L210.43-3.94L210.43-3.55L210.37-3.49L212.67-1.18L212.67-0.61L210.43-2.85L210.43-2.46L210.37-2.40L212.67-0.10L212.67 0L212.19 0L210.43-1.76L210.43-1.38L210.37-1.31L211.68 0L211.10 0L210.43-0.67L210.43-0.29L210.37-0.22L210.62 0L205.70 0L203.71-1.98L203.71-2.56L205.95-0.32L205.95-0.83L203.71-3.07L203.71-3.65L205.95-1.41L205.95-1.92L203.71-4.16L203.71-4.48L203.97-4.48L205.95-2.50L205.95-3.01L204.48-4.48L205.06-4.48L205.95-3.58L205.95-4.10L205.57-4.48L205.95-4.48L205.95-5.28L210.43-9.76L210.43-8.96L205.95-4.48L206.14-4.48L206.18-4.42L210.43-8.67L210.43-7.87L207.04-4.48L207.20-4.48L207.26-4.42L210.43-7.58L210.43-6.78L208.13-4.48L208.29-4.48L208.35-4.42L210.43-6.50L210.43-5.70L209.22-4.48L209.38-4.48L209.44-4.42L210.43-5.41L210.43-4.61ZM206.05-0.22L206.18-0.10L206.43-0.35L206.30-0.48L206.05-0.22ZM206.05-1.31L206.18-1.18L206.43-1.44L206.30-1.57L206.05-1.31ZM206.05-2.40L206.18-2.27L206.43-2.50L206.30-2.66L206.05-2.40ZM206.05-3.49L206.18-3.33L206.43-3.58L206.30-3.74L206.05-3.49ZM206.59-0.77L206.72-0.64L206.98-0.90L206.85-1.02L206.59-0.77ZM206.59-1.86L206.72-1.73L206.98-1.98L206.85-2.11L206.59-1.86ZM206.59-2.94L206.72-2.78L206.98-3.04L206.85-3.20L206.59-2.94ZM206.59-4.03L206.72-3.87L206.98-4.13L206.85-4.29L206.59-4.03ZM207.14-0.22L207.26-0.10L207.52-0.35L207.39-0.48L207.14-0.22ZM207.14-1.31L207.26-1.18L207.52-1.44L207.39-1.57L207.14-1.31ZM207.14-2.40L207.26-2.27L207.52-2.50L207.39-2.66L207.14-2.40ZM207.14-3.49L207.26-3.33L207.52-3.58L207.39-3.74L207.14-3.49ZM207.68-0.77L207.81-0.64L208.06-0.90L207.94-1.02L207.68-0.77ZM207.68-1.86L207.81-1.73L208.06-1.98L207.94-2.11L207.68-1.86ZM207.68-2.94L207.81-2.78L208.06-3.04L207.94-3.20L207.68-2.94ZM207.68-4.03L207.81-3.87L208.06-4.13L207.94-4.29L207.68-4.03ZM208.22-0.22L208.35-0.10L208.61-0.35L208.48-0.48L208.22-0.22ZM208.22-1.31L208.35-1.18L208.61-1.44L208.48-1.57L208.22-1.31ZM208.22-2.40L208.35-2.27L208.61-2.50L208.48-2.66L208.22-2.40ZM208.22-3.49L208.35-3.33L208.61-3.58L208.48-3.74L208.22-3.49ZM208.77-0.77L208.90-0.64L209.15-0.90L208.99-1.02L208.77-0.77ZM208.77-1.86L208.90-1.73L209.15-1.98L208.99-2.11L208.77-1.86ZM208.77-2.94L208.90-2.78L209.15-3.04L208.99-3.20L208.77-2.94ZM208.77-4.03L208.90-3.87L209.15-4.13L208.99-4.29L208.77-4.03ZM209.28-0.22L209.44-0.10L209.70-0.35L209.54-0.48L209.28-0.22ZM209.28-1.31L209.44-1.18L209.70-1.44L209.54-1.57L209.28-1.31ZM209.28-2.40L209.44-2.27L209.70-2.50L209.54-2.66L209.28-2.40ZM209.28-3.49L209.44-3.33L209.70-3.58L209.54-3.74L209.28-3.49ZM209.82-0.77L209.98-0.64L210.24-0.90L210.08-1.02L209.82-0.77ZM209.82-1.86L209.98-1.73L210.24-1.98L210.08-2.11L209.82-1.86ZM209.82-2.94L209.98-2.78L210.24-3.04L210.08-3.20L209.82-2.94ZM209.82-4.03L209.98-3.87L210.24-4.13L210.08-4.29L209.82-4.03ZM212.67-22.40L212.67-22.02L210.43-19.78L210.43-19.49L212.67-21.73L212.67-20.93L210.43-18.69L210.43-18.40L212.67-20.64L212.67-19.84L210.75-17.92L210.43-17.92L210.43-13.28L205.95-8.80L205.95-9.60L209.79-13.44L209.50-13.44L205.95-9.89L205.95-10.69L208.70-13.44L208.42-13.44L205.95-10.98L205.95-11.78L207.62-13.44L207.33-13.44L205.95-12.06L205.95-12.86L206.53-13.44L206.27-13.44L205.95-13.12L205.95-17.92L205.60-17.92L205.95-18.27L205.95-18.56L205.31-17.92L204.51-17.92L205.95-19.36L205.95-19.62L204.26-17.92L203.71-17.92L203.71-18.18L205.95-20.42L205.95-20.70L203.71-18.46L203.71-19.26L205.95-21.50L205.95-21.79L203.71-19.55L203.71-20.35L205.76-22.40L210.88-22.40L210.43-21.95L210.43-21.66L211.17-22.40L211.97-22.40L210.43-20.86L210.43-20.58L212.26-22.40L212.67-22.40ZM212.67-18.78L211.81-17.92L211.01-17.92L212.67-19.58L212.67-18.78ZM203.71-21.44L204.67-22.40L205.47-22.40L203.71-20.64L203.71-21.44ZM203.71-21.73L203.71-22.40L204.38-22.40L203.71-21.73ZM205.95-8.51L210.43-12.99L210.43-12.19L205.95-7.71L205.95-8.51ZM210.43-11.10L205.95-6.62L205.95-7.42L210.43-11.90L210.43-11.10ZM212.67-18.50L212.67-17.92L212.10-17.92L212.67-18.50ZM210.43-10.05L205.95-5.57L205.95-6.37L210.43-10.85L210.43-10.05ZM220.74-9.38L220.74-9.38Q218.72-9.92 217.49-10.77Q216.26-11.62 215.58-12.56Q214.91-13.50 214.69-14.45Q214.46-15.39 214.46-16.13L214.46-16.13Q214.46-17.50 215.02-18.69Q215.58-19.87 216.58-20.75Q217.57-21.63 218.88-22.13Q220.19-22.62 221.73-22.62L221.73-22.62Q223.36-22.62 224.58-22.32Q225.79-22.02 226.78-21.47L226.78-21.47L226.78-21.54L227.65-22.40L228.45-22.40L226.78-20.74L226.78-20.45L228.74-22.40L229.54-22.40L226.78-19.65L226.78-19.36L229.82-22.40L230.62-22.40L226.78-18.56L226.78-18.27L230.91-22.40L231.26-22.40L231.26-21.95L226.78-17.47L226.78-17.18L231.26-21.66L231.26-20.90L226.78-16.42L226.78-16.13L231.26-20.61L231.26-19.81L227.14-15.68L226.75-15.68Q226.21-16.29 225.70-16.75Q225.18-17.22 224.61-17.52Q224.03-17.82 223.34-17.98Q222.66-18.14 221.73-18.14L221.73-18.14Q220.42-18.14 219.68-17.50Q218.94-16.86 218.94-16.13L218.94-16.13Q218.94-14.85 220.74-14.08L220.74-14.08Q221.73-13.66 223.42-13.38L223.42-13.38Q223.90-13.31 224.35-13.22Q224.80-13.12 225.22-13.02L225.22-13.02Q225.38-12.96 225.49-12.94Q225.60-12.93 225.73-12.86L225.73-12.86L225.22-12.35L225.22-12.06L225.95-12.80Q226.11-12.74 226.26-12.70Q226.40-12.67 226.56-12.61L226.56-12.61L225.22-11.26L225.22-10.98L226.75-12.51Q226.91-12.45 227.04-12.40Q227.17-12.35 227.33-12.29L227.33-12.29L225.22-10.18L225.22-9.89L227.52-12.19Q227.78-12.03 228.03-11.94L228.03-11.94L225.22-9.09L225.22-8.83L228.22-11.81L228.70-11.52L225.44-8.22Q225.34-8.26 225.22-8.32L225.22-8.32Q224.64-8.58 224-8.72Q223.36-8.86 222.75-8.96L222.75-8.96Q222.21-9.02 221.70-9.14Q221.18-9.25 220.74-9.38ZM231.26-18.43L231.26-17.63L229.31-15.68L228.51-15.68L231.26-18.43ZM231.26-19.52L231.26-18.72L228.22-15.68L227.42-15.68L231.26-19.52ZM214.69 0L214.69-0.26L214.94 0L214.69 0ZM231.26-17.34L231.26-16.54L230.40-15.68L229.60-15.68L231.26-17.34ZM226.78-22.40L227.36-22.40L226.78-21.82L226.78-22.40ZM225.63-8.13L228.86-11.39Q228.99-11.30 229.10-11.22Q229.22-11.14 229.31-11.04L229.31-11.04L226.14-7.84Q225.92-8 225.63-8.13L225.63-8.13ZM231.26-16.26L231.26-15.68L230.69-15.68L231.26-16.26ZM214.69-0.77L214.69-1.34L216.03 0L215.46 0L214.69-0.77ZM229.89-10.53L226.72-7.36Q226.62-7.46 226.53-7.55Q226.43-7.65 226.30-7.74L226.30-7.74L229.47-10.91Q229.60-10.82 229.70-10.72Q229.79-10.62 229.89-10.53L229.89-10.53ZM230.40-9.95L227.10-6.66Q227.01-6.91 226.85-7.20L226.85-7.20L230.02-10.37Q230.11-10.27 230.21-10.16Q230.30-10.05 230.40-9.95L230.40-9.95ZM230.82-9.28L227.14-5.63Q227.23-5.82 227.23-6.05L227.23-6.05Q227.23-6.21 227.17-6.46L227.17-6.46L230.50-9.79Q230.59-9.66 230.67-9.54Q230.75-9.41 230.82-9.28L230.82-9.28ZM214.69-4L214.69-4.58L219.17-0.10L219.17 0L218.69 0L214.69-4ZM220.99-0.26L225.02-4.29Q225.73-4.38 226.11-4.61L226.11-4.61L221.60-0.10Q221.34-0.13 220.99-0.26L220.99-0.26ZM221.86-0.03L230.91-9.12Q230.98-8.96 231.06-8.83Q231.14-8.70 231.20-8.58L231.20-8.58L222.53 0.10Q222.37 0.06 222.19 0.05Q222.02 0.03 221.86-0.03L221.86-0.03ZM222.78 0.13L231.26-8.38Q231.42-8.03 231.46-7.78L231.46-7.78L223.49 0.19Q223.33 0.19 223.14 0.18Q222.94 0.16 222.78 0.13L222.78 0.13ZM224.42-4.26L224.70-4.26L220.77-0.32Q220.61-0.38 220.46-0.43Q220.32-0.48 220.16-0.54L220.16-0.54L223.90-4.26L224.42-4.26ZM219.42-0.86L222.94-4.38Q223.10-4.32 223.28-4.32Q223.46-4.32 223.65-4.29L223.65-4.29L219.97-0.61Q219.81-0.67 219.70-0.74Q219.58-0.80 219.42-0.86L219.42-0.86ZM218.91-1.44L222.08-4.61Q222.24-4.54 222.38-4.51Q222.53-4.48 222.69-4.42L222.69-4.42L219.23-0.96Q219.23-0.96 219.17-0.99L219.17-0.99L219.17-0.61L218.14-1.63L218.08-1.70L217.95-1.82L217.92-1.79Q217.79-1.89 217.68-1.98Q217.57-2.08 217.47-2.14L217.47-2.14L217.54-2.24L217.41-2.37L217.31-2.27Q217.22-2.37 217.10-2.46Q216.99-2.56 216.90-2.66L216.90-2.66L216.99-2.78L216.86-2.91L216.74-2.78Q216.64-2.88 216.54-2.99Q216.45-3.10 216.35-3.20L216.35-3.20L216.48-3.33L216.32-3.46L216.19-3.33Q216.10-3.46 216-3.55Q215.90-3.65 215.81-3.74L215.81-3.74L215.94-3.87L215.78-4L215.68-3.90Q215.58-4 215.49-4.11Q215.39-4.22 215.30-4.32L215.30-4.32L215.39-4.38L215.23-4.54L215.17-4.48Q215.07-4.58 214.99-4.69Q214.91-4.80 214.82-4.90L214.82-4.90L214.85-4.93L214.69-5.09L214.69-5.06L214.69-5.86L214.85-6.02L214.69-6.18L214.69-6.14L214.69-6.72L219.17-6.72Q219.30-6.59 219.36-6.50L219.36-6.50L219.17-6.30L219.17-6.02L219.04-6.18L218.78-5.92L218.91-5.76L219.52-6.37Q219.62-6.24 219.71-6.14Q219.81-6.05 219.90-5.95L219.90-5.95L219.17-5.22L219.17-4.96L219.04-5.09L218.78-4.83L218.91-4.67L220.06-5.82Q220.26-5.60 220.51-5.47L220.51-5.47L219.17-4.13L219.17-3.87L219.04-4L218.78-3.74L218.91-3.62L220.67-5.34Q220.93-5.12 221.15-5.02L221.15-5.02L219.17-3.04L219.17-2.78L219.04-2.91L218.78-2.66L218.91-2.53L221.31-4.93Q221.47-4.86 221.58-4.80Q221.70-4.74 221.86-4.67L221.86-4.67L219.17-1.98L219.17-1.70L219.04-1.82L218.78-1.57L218.91-1.44ZM214.98-6.46L215.23-6.72L215.39-6.56L215.14-6.30L214.98-6.46ZM215.14-5.22L215.39-5.47L215.23-5.63L214.98-5.38L215.14-5.22ZM215.68-4.67L215.94-4.93L215.78-5.09L215.52-4.83L215.68-4.67ZM215.68-5.76L215.94-6.02L215.78-6.18L215.52-5.92L215.68-5.76ZM216.22-4.16L216.48-4.38L216.32-4.54L216.06-4.29L216.22-4.16ZM216.22-5.22L216.48-5.47L216.32-5.63L216.06-5.38L216.22-5.22ZM216.48-6.56L216.22-6.30L216.06-6.46L216.32-6.72L216.48-6.56ZM216.77-3.62L216.99-3.87L216.86-4L216.61-3.74L216.77-3.62ZM216.77-4.67L216.99-4.93L216.86-5.09L216.61-4.83L216.77-4.67ZM216.77-5.76L216.99-6.02L216.86-6.18L216.61-5.92L216.77-5.76ZM217.28-3.07L217.54-3.33L217.41-3.46L217.15-3.20L217.28-3.07ZM217.28-4.16L217.54-4.38L217.41-4.54L217.15-4.29L217.28-4.16ZM217.28-5.22L217.54-5.47L217.41-5.63L217.15-5.38L217.28-5.22ZM217.54-6.56L217.28-6.30L217.15-6.46L217.41-6.72L217.54-6.56ZM217.82-2.53L218.08-2.78L217.95-2.91L217.70-2.66L217.82-2.53ZM217.82-3.62L218.08-3.87L217.95-4L217.70-3.74L217.82-3.62ZM217.82-4.67L218.08-4.93L217.95-5.09L217.70-4.83L217.82-4.67ZM217.82-5.76L218.08-6.02L217.95-6.18L217.70-5.92L217.82-5.76ZM218.37-1.98L218.62-2.24L218.50-2.37L218.24-2.11L218.37-1.98ZM218.37-3.07L218.62-3.33L218.50-3.46L218.24-3.20L218.37-3.07ZM218.37-4.16L218.62-4.38L218.50-4.54L218.24-4.29L218.37-4.16ZM218.37-5.22L218.62-5.47L218.50-5.63L218.24-5.38L218.37-5.22ZM218.62-6.56L218.37-6.30L218.24-6.46L218.50-6.72L218.62-6.56ZM230.37-2.37L229.50-1.47Q228.61-0.77 227.58-0.35L227.58-0.35L231.39-4.16Q231.07-3.20 230.37-2.37L230.37-2.37ZM214.69-2.94L214.69-3.49L218.18 0L217.63 0L214.69-2.94ZM224.83 0.22L231.68-6.62Q231.68-6.46 231.70-6.32Q231.71-6.18 231.71-6.05L231.71-6.05Q231.71-5.92 231.68-5.82L231.68-5.82L225.73 0.13Q225.50 0.16 225.30 0.18Q225.09 0.19 224.83 0.22L224.83 0.22ZM231.52-4.58L227.14-0.19Q226.88-0.13 226.61-0.06Q226.34 0 226.08 0.06L226.08 0.06L231.68-5.54Q231.65-5.28 231.62-5.06Q231.58-4.83 231.52-4.58L231.52-4.58ZM223.78 0.19L231.52-7.55Q231.58-7.36 231.60-7.20Q231.62-7.04 231.65-6.88L231.65-6.88L224.54 0.22L224.42 0.22Q224.26 0.22 224.10 0.22Q223.94 0.22 223.78 0.19L223.78 0.19ZM214.69-1.86L214.69-2.43L217.12 0L216.54 0L214.69-1.86ZM249.31-20.13L246.14-16.96Q246.05-17.06 245.94-17.15Q245.82-17.25 245.73-17.34L245.73-17.34L248.90-20.51Q248.99-20.42 249.10-20.32Q249.22-20.22 249.31-20.13L249.31-20.13ZM248.74-20.64L245.57-17.47Q245.28-17.63 245.02-17.73L245.02-17.73L248.29-20.99Q248.51-20.83 248.74-20.64L248.74-20.64ZM241.57-8.06L240.77-8.06L250.69-17.98Q250.75-17.82 250.80-17.68Q250.85-17.54 250.91-17.38L250.91-17.38L241.57-8.06ZM248.13-21.12L244.83-17.82Q244.48-17.92 244.13-17.92L244.13-17.92L247.65-21.44Q247.78-21.38 247.89-21.30Q248-21.22 248.13-21.12L248.13-21.12ZM250.24-18.88L246.75-15.39Q246.69-15.84 246.62-16.06L246.62-16.06L249.92-19.36Q249.98-19.23 250.08-19.12Q250.18-19.01 250.24-18.88L250.24-18.88ZM250.59-18.18L246.46-14.05Q246.69-14.53 246.75-15.10L246.75-15.10L250.34-18.72Q250.40-18.56 250.46-18.45Q250.53-18.34 250.59-18.18L250.59-18.18ZM249.79-19.52L246.53-16.29Q246.40-16.58 246.24-16.80L246.24-16.80L249.44-19.97Q249.63-19.74 249.79-19.52L249.79-19.52ZM241.86-8.06L250.98-17.18Q251.01-17.02 251.04-16.85Q251.07-16.67 251.10-16.51L251.10-16.51L242.66-8.06L241.86-8.06ZM250.88-13.06L246.24-8.42Q245.98-8.32 245.73-8.27Q245.47-8.22 245.18-8.16L245.18-8.16L251.14-14.11Q251.07-13.82 251.02-13.57Q250.98-13.31 250.88-13.06L250.88-13.06ZM242.94-8.06L251.17-16.29Q251.20-16.10 251.20-15.92Q251.20-15.74 251.23-15.55L251.23-15.55L243.74-8.06L242.94-8.06ZM249.57-10.62L248.67-9.73Q247.74-8.99 246.69-8.58L246.69-8.58L250.72-12.61Q250.30-11.55 249.57-10.62L249.57-10.62ZM241.76-4.26L242.02-4.48L242.50-4.48L242.50-4.03L242.43-4.10L242.18-3.84L242.30-3.71L242.50-3.90L242.50-2.94L242.43-3.01L242.18-2.75L242.30-2.62L242.50-2.82L242.50-1.86L242.43-1.92L242.18-1.70L242.30-1.54L242.50-1.73L242.50-0.77L242.43-0.86L242.18-0.61L242.30-0.45L242.50-0.64L242.50 0L241.86 0L242.02-0.16L241.89-0.32L241.63-0.06L241.70 0L240.77 0L240.93-0.16L240.80-0.32L240.54-0.06L240.61 0L239.68 0L239.84-0.16L239.71-0.32L239.46-0.06L239.52 0L238.59 0L238.78-0.16L238.62-0.32L238.37-0.06L238.43 0L237.54 0L237.70-0.16L237.54-0.32L237.28-0.06L237.34 0L236.45 0L236.61-0.16L236.48-0.32L236.22-0.06L236.26 0L235.36 0L235.52-0.16L235.39-0.32L235.14-0.06L235.20 0L234.27 0L234.43-0.16L234.30-0.32L234.05-0.06L234.11 0L233.54 0L233.54-0.58L233.63-0.45L233.89-0.70L233.76-0.86L233.54-0.64L233.54-1.66L233.63-1.54L233.89-1.79L233.76-1.92L233.54-1.70L233.54-2.72L233.63-2.62L233.89-2.88L233.76-3.01L233.54-2.78L233.54-3.81L233.63-3.71L233.89-3.97L233.76-4.10L233.54-3.87L233.54-4.48L234.14-4.48L234.05-4.38L234.18-4.26L234.43-4.48L235.23-4.48L235.14-4.38L235.26-4.26L235.52-4.48L235.78-4.48L235.78-17.92L235.71-17.92L233.54-20.10L233.54-20.67L236.29-17.92L236.80-17.92L233.54-21.18L233.54-21.76L237.38-17.92L237.89-17.92L233.54-22.27L233.54-22.40L233.98-22.40L238.46-17.92L238.98-17.92L234.50-22.40L235.07-22.40L239.55-17.92L240.06-17.92L235.58-22.40L236.16-22.40L240.26-18.30L240.26-18.37L240.48-18.59L240.32-18.72L240.26-18.66L240.26-18.78L236.64-22.40L237.22-22.40L240.26-19.36L240.26-19.46L240.48-19.68L240.32-19.81L240.26-19.74L240.26-19.87L237.73-22.40L238.30-22.40L240.26-20.45L240.26-20.54L240.48-20.77L240.32-20.90L240.26-20.83L240.26-20.96L238.82-22.40L239.39-22.40L240.26-21.54L240.26-21.63L240.48-21.82L240.32-21.98L240.26-21.92L240.26-22.05L239.90-22.40L240.74-22.40L240.61-22.27L240.77-22.11L241.02-22.37L240.99-22.40L241.82-22.40L241.70-22.27L241.82-22.11L242.08-22.37L242.08-22.40L242.91-22.40L242.78-22.27L242.91-22.11L243.17-22.37L243.17-22.40L244-22.40L243.87-22.27L244-22.11L244.29-22.40Q244.45-22.40 244.64-22.38Q244.83-22.37 245.02-22.34L245.02-22.34L243.87-21.18L244-21.02L245.25-22.30Q245.41-22.27 245.58-22.24Q245.76-22.21 245.92-22.14L245.92-22.14L243.87-20.10L244-19.97L246.14-22.08L246.72-21.89L243.87-19.01L244-18.88L246.94-21.79Q247.20-21.70 247.46-21.54L247.46-21.54L243.87-17.92L243.04-17.92L243.17-18.05L243.04-18.18L242.78-17.92L241.95-17.92L242.08-18.05L241.95-18.18L241.70-17.92L240.90-17.92L241.02-18.05L240.86-18.18L240.61-17.92L240.64-17.92L240.26-17.92L240.26-12.54L240.64-12.54L240.26-12.16L240.26-11.87L240.93-12.54L241.73-12.54L240.26-11.07L240.26-10.78L242.02-12.54L242.82-12.54L240.26-9.98L240.26-9.70L243.10-12.54L243.90-12.54L240.26-8.90L240.26-8.64L244.19-12.54Q244.77-12.58 245.25-12.83L245.25-12.83L240.48-8.06L240.26-8.06L240.26-4.48L240.64-4.48L240.54-4.38L240.67-4.26L240.93-4.48L241.73-4.48L241.63-4.38L241.76-4.26ZM243.58-21.98L243.33-21.73L243.46-21.57L243.71-21.82L243.58-21.98ZM243.58-20.90L243.33-20.64L243.46-20.51L243.71-20.77L243.58-20.90ZM243.58-19.81L243.33-19.55L243.46-19.42L243.71-19.68L243.58-19.81ZM243.58-18.72L243.33-18.46L243.46-18.34L243.71-18.59L243.58-18.72ZM243.04-21.44L242.78-21.18L242.91-21.02L243.17-21.28L243.04-21.44ZM243.04-20.35L242.78-20.10L242.91-19.97L243.17-20.22L243.04-20.35ZM243.04-19.26L242.78-19.01L242.91-18.88L243.17-19.14L243.04-19.26ZM242.50-21.98L242.24-21.73L242.37-21.57L242.62-21.82L242.50-21.98ZM242.50-20.90L242.24-20.64L242.37-20.51L242.62-20.77L242.50-20.90ZM242.50-19.81L242.24-19.55L242.37-19.42L242.62-19.68L242.50-19.81ZM242.50-18.72L242.24-18.46L242.37-18.34L242.62-18.59L242.50-18.72ZM241.95-21.44L241.70-21.18L241.82-21.02L242.08-21.28L241.95-21.44ZM241.95-20.35L241.70-20.10L241.82-19.97L242.08-20.22L241.95-20.35ZM241.95-19.26L241.70-19.01L241.82-18.88L242.08-19.14L241.95-19.26ZM241.41-21.98L241.15-21.73L241.31-21.57L241.54-21.82L241.41-21.98ZM241.41-20.90L241.15-20.64L241.31-20.51L241.54-20.77L241.41-20.90ZM241.41-19.81L241.15-19.55L241.31-19.42L241.54-19.68L241.41-19.81ZM241.41-18.72L241.15-18.46L241.31-18.34L241.54-18.59L241.41-18.72ZM240.86-21.44L240.61-21.18L240.77-21.02L241.02-21.28L240.86-21.44ZM240.86-20.35L240.61-20.10L240.77-19.97L241.02-20.22L240.86-20.35ZM240.86-19.26L240.61-19.01L240.77-18.88L241.02-19.14L240.86-19.26ZM234.18-0.99L234.43-1.25L234.30-1.41L234.05-1.15L234.18-0.99ZM234.18-2.08L234.43-2.34L234.30-2.46L234.05-2.21L234.18-2.08ZM234.18-3.17L234.43-3.42L234.30-3.55L234.05-3.30L234.18-3.17ZM234.72-0.45L234.98-0.70L234.85-0.86L234.59-0.61L234.72-0.45ZM234.72-1.54L234.98-1.79L234.85-1.92L234.59-1.70L234.72-1.54ZM234.72-2.62L234.98-2.88L234.85-3.01L234.59-2.75L234.72-2.62ZM234.72-3.71L234.98-3.97L234.85-4.10L234.59-3.84L234.72-3.71ZM235.26-0.99L235.52-1.25L235.39-1.41L235.14-1.15L235.26-0.99ZM235.26-2.08L235.52-2.34L235.39-2.46L235.14-2.21L235.26-2.08ZM235.26-3.17L235.52-3.42L235.39-3.55L235.14-3.30L235.26-3.17ZM235.81-0.45L236.06-0.70L235.94-0.86L235.68-0.61L235.81-0.45ZM235.81-1.54L236.06-1.79L235.94-1.92L235.68-1.70L235.81-1.54ZM235.81-2.62L236.06-2.88L235.94-3.01L235.68-2.75L235.81-2.62ZM235.81-3.71L236.06-3.97L235.94-4.10L235.68-3.84L235.81-3.71ZM236.32-4.48L236.22-4.38L236.35-4.26L236.58-4.48L236.32-4.48ZM236.35-0.99L236.61-1.25L236.48-1.41L236.22-1.15L236.35-0.99ZM236.35-2.08L236.61-2.34L236.48-2.46L236.22-2.21L236.35-2.08ZM236.35-3.17L236.61-3.42L236.48-3.55L236.22-3.30L236.35-3.17ZM236.90-0.45L237.15-0.70L236.99-0.86L236.77-0.61L236.90-0.45ZM236.90-1.54L237.15-1.79L236.99-1.92L236.77-1.70L236.90-1.54ZM236.90-2.62L237.15-2.88L236.99-3.01L236.77-2.75L236.90-2.62ZM236.90-3.71L237.15-3.97L236.99-4.10L236.77-3.84L236.90-3.71ZM237.38-4.48L237.28-4.38L237.44-4.26L237.66-4.48L237.38-4.48ZM237.44-0.99L237.70-1.25L237.54-1.41L237.28-1.15L237.44-0.99ZM237.44-2.08L237.70-2.34L237.54-2.46L237.28-2.21L237.44-2.08ZM237.44-3.17L237.70-3.42L237.54-3.55L237.28-3.30L237.44-3.17ZM237.98-0.45L238.24-0.70L238.08-0.86L237.82-0.61L237.98-0.45ZM237.98-1.54L238.24-1.79L238.08-1.92L237.82-1.70L237.98-1.54ZM237.98-2.62L238.24-2.88L238.08-3.01L237.82-2.75L237.98-2.62ZM237.98-3.71L238.24-3.97L238.08-4.10L237.82-3.84L237.98-3.71ZM238.46-4.48L238.37-4.38L238.53-4.26L238.75-4.48L238.46-4.48ZM238.53-0.99L238.78-1.25L238.62-1.41L238.37-1.15L238.53-0.99ZM238.53-2.08L238.78-2.34L238.62-2.46L238.37-2.21L238.53-2.08ZM238.53-3.17L238.78-3.42L238.62-3.55L238.37-3.30L238.53-3.17ZM239.07-0.45L239.33-0.70L239.17-0.86L238.91-0.61L239.07-0.45ZM239.07-1.54L239.33-1.79L239.17-1.92L238.91-1.70L239.07-1.54ZM239.07-2.62L239.33-2.88L239.17-3.01L238.91-2.75L239.07-2.62ZM239.07-3.71L239.33-3.97L239.17-4.10L238.91-3.84L239.07-3.71ZM239.55-4.48L239.46-4.38L239.62-4.26L239.84-4.48L239.55-4.48ZM239.62-0.99L239.84-1.25L239.71-1.41L239.46-1.15L239.62-0.99ZM239.62-2.08L239.84-2.34L239.71-2.46L239.46-2.21L239.62-2.08ZM239.62-3.17L239.84-3.42L239.71-3.55L239.46-3.30L239.62-3.17ZM240.13-0.45L240.38-0.70L240.26-0.86L240-0.61L240.13-0.45ZM240.13-1.54L240.38-1.79L240.26-1.92L240-1.70L240.13-1.54ZM240.13-2.62L240.38-2.88L240.26-3.01L240-2.75L240.13-2.62ZM240.13-3.71L240.38-3.97L240.26-4.10L240-3.84L240.13-3.71ZM240.67-0.99L240.93-1.25L240.80-1.41L240.54-1.15L240.67-0.99ZM240.67-2.08L240.93-2.34L240.80-2.46L240.54-2.21L240.67-2.08ZM240.67-3.17L240.93-3.42L240.80-3.55L240.54-3.30L240.67-3.17ZM241.22-0.45L241.47-0.70L241.34-0.86L241.09-0.61L241.22-0.45ZM241.22-1.54L241.47-1.79L241.34-1.92L241.09-1.70L241.22-1.54ZM241.22-2.62L241.47-2.88L241.34-3.01L241.09-2.75L241.22-2.62ZM241.22-3.71L241.47-3.97L241.34-4.10L241.09-3.84L241.22-3.71ZM241.76-0.99L242.02-1.25L241.89-1.41L241.63-1.15L241.76-0.99ZM241.76-2.08L242.02-2.34L241.89-2.46L241.63-2.21L241.76-2.08ZM241.76-3.17L242.02-3.42L241.89-3.55L241.63-3.30L241.76-3.17ZM251.23-15.26L251.23-15.23Q251.23-15.01 251.22-14.82Q251.20-14.62 251.20-14.43L251.20-14.43L244.86-8.10Q244.67-8.10 244.48-8.08Q244.29-8.06 244.06-8.06L244.06-8.06L244.03-8.06L251.23-15.26ZM234.14-17.92L233.57-17.92L233.54-17.95L233.54-18.53L234.14-17.92ZM235.20-17.92L234.62-17.92L233.54-19.01L233.54-19.58L235.20-17.92ZM255.26-13.02L259.74-17.50L259.74-16.70L255.26-12.22L255.26-13.02ZM255.26-6.53L259.74-11.01L259.74-10.21L255.26-5.73L255.26-6.53ZM255.26-11.94L259.74-16.42L259.74-15.62L255.26-11.14L255.26-11.94ZM255.26-9.79L259.74-14.27L259.74-13.47L255.26-8.99L255.26-9.79ZM255.26-7.62L259.74-12.10L259.74-11.30L255.26-6.82L255.26-7.62ZM259.74-9.12L255.26-4.64L255.26-5.44L259.74-9.92L259.74-9.12ZM255.26-8.70L259.74-13.18L259.74-12.38L255.26-7.90L255.26-8.70ZM255.26-10.85L259.74-15.33L259.74-14.53L255.26-10.05L255.26-10.85ZM268.70-6.30L268.29-6.72L268.70-6.72L268.70-6.30ZM268.70-5.22L267.20-6.72L267.78-6.72L268.70-5.79L268.70-5.22ZM260.99-22.40L261.98-21.41L261.98-20.83L260.42-22.40L260.99-22.40ZM261.47-22.40L261.98-22.40L261.98-21.89L261.47-22.40ZM253.02-19.52L254.62-17.92L254.05-17.92L253.02-18.94L253.02-19.52ZM253.02-17.92L253.02-18.43L253.54-17.92L253.02-17.92ZM255.26-17.63L255.26-17.92L255.14-17.92L253.02-20.03L253.02-20.61L255.26-18.37L255.26-18.43L255.49-18.66L255.33-18.82L255.26-18.72L255.26-18.88L253.02-21.12L253.02-21.70L255.26-19.46L255.26-19.52L255.49-19.74L255.33-19.87L255.26-19.81L255.26-19.97L253.02-22.21L253.02-22.40L253.41-22.40L255.26-20.54L255.26-20.61L255.49-20.83L255.33-20.96L255.26-20.90L255.26-21.06L253.92-22.40L254.50-22.40L255.26-21.63L255.26-21.70L255.49-21.92L255.33-22.05L255.26-21.98L255.26-22.11L254.98-22.40L255.68-22.40L255.62-22.34L255.78-22.21L255.97-22.40L256.77-22.40L256.70-22.34L256.86-22.21L257.06-22.40L257.86-22.40L257.79-22.34L257.95-22.21L258.14-22.40L258.94-22.40L258.88-22.34L259.01-22.21L259.23-22.40L259.90-22.40L261.98-20.32L261.98-19.74L259.68-22.05L259.42-21.79L259.55-21.66L259.74-21.82L259.74-21.47L261.98-19.23L261.98-18.66L259.68-20.96L259.42-20.70L259.55-20.58L259.74-20.77L259.74-20.38L261.98-18.14L261.98-17.92L261.63-17.92L259.68-19.87L259.42-19.62L259.55-19.49L259.74-19.68L259.74-19.30L261.12-17.92L260.54-17.92L259.68-18.82L259.42-18.56L259.55-18.40L259.74-18.59L259.74-18.21L260.03-17.92L259.74-17.92L259.74-17.79L255.26-13.31L255.26-14.11L259.26-18.11L259.14-18.27L258.88-18.02L258.98-17.92L258.78-17.92L255.26-14.40L255.26-15.20L258.18-18.11L258.05-18.27L257.79-18.02L257.89-17.92L257.70-17.92L255.26-15.49L255.26-16.29L257.12-18.11L256.96-18.27L256.70-18.02L256.80-17.92L256.64-17.92L255.26-16.54L255.26-17.34L256.03-18.11L255.87-18.27L255.62-18.02L255.71-17.92L255.55-17.92L255.26-17.63ZM259.26-21.38L259.14-21.50L258.88-21.25L259.01-21.12L259.26-21.38ZM259.26-20.29L259.14-20.42L258.88-20.16L259.01-20.03L259.26-20.29ZM259.26-19.20L259.14-19.33L258.88-19.10L259.01-18.94L259.26-19.20ZM258.72-21.92L258.59-22.05L258.34-21.79L258.46-21.66L258.72-21.92ZM258.72-20.83L258.59-20.96L258.34-20.70L258.46-20.58L258.72-20.83ZM258.72-19.74L258.59-19.87L258.34-19.62L258.46-19.49L258.72-19.74ZM258.72-18.66L258.59-18.82L258.34-18.56L258.46-18.40L258.72-18.66ZM258.18-21.38L258.05-21.50L257.79-21.25L257.95-21.12L258.18-21.38ZM258.18-20.29L258.05-20.42L257.79-20.16L257.95-20.03L258.18-20.29ZM258.18-19.20L258.05-19.33L257.79-19.10L257.95-18.94L258.18-19.20ZM257.66-21.92L257.50-22.05L257.25-21.79L257.41-21.66L257.66-21.92ZM257.66-20.83L257.50-20.96L257.25-20.70L257.41-20.58L257.66-20.83ZM257.66-19.74L257.50-19.87L257.25-19.62L257.41-19.49L257.66-19.74ZM257.66-18.66L257.50-18.82L257.25-18.56L257.41-18.40L257.66-18.66ZM257.12-21.38L256.96-21.50L256.70-21.25L256.86-21.12L257.12-21.38ZM257.12-20.29L256.96-20.42L256.70-20.16L256.86-20.03L257.12-20.29ZM257.12-19.20L256.96-19.33L256.70-19.10L256.86-18.94L257.12-19.20ZM256.58-21.92L256.42-22.05L256.16-21.79L256.32-21.66L256.58-21.92ZM256.58-20.83L256.42-20.96L256.16-20.70L256.32-20.58L256.58-20.83ZM256.58-19.74L256.42-19.87L256.16-19.62L256.32-19.49L256.58-19.74ZM256.58-18.66L256.42-18.82L256.16-18.56L256.32-18.40L256.58-18.66ZM256.03-21.38L255.87-21.50L255.62-21.25L255.78-21.12L256.03-21.38ZM256.03-20.29L255.87-20.42L255.62-20.16L255.78-20.03L256.03-20.29ZM256.03-19.20L255.87-19.33L255.62-19.10L255.78-18.94L256.03-19.20ZM268.35-4.48L266.11-6.72L266.69-6.72L268.70-4.70L268.70-4L268.51-3.81L268.64-3.68L268.70-3.71L268.70-2.91L268.51-2.72L268.64-2.59L268.70-2.66L268.70-1.86L268.51-1.66L268.64-1.50L268.70-1.57L268.70-0.77L268.51-0.58L268.64-0.42L268.70-0.48L268.70 0L268.22 0L268.35-0.13L268.22-0.29L267.97-0.03L268 0L267.14 0L267.30-0.13L267.14-0.29L266.88-0.03L266.91 0L266.05 0L266.21-0.13L266.05-0.29L265.79-0.03L265.82 0L264.99 0L265.12-0.13L264.96-0.29L264.74-0.03L264.74 0L253.02 0L253.02-4.48L255.39-4.48L259.74-8.83L259.74-8.03L256.19-4.48L256.45-4.48L259.74-7.78L259.74-6.98L257.25-4.48L257.54-4.48L259.74-6.69L259.74-5.89L258.34-4.48L258.62-4.48L259.74-5.60L259.74-4.80L259.42-4.48L259.71-4.48L259.74-4.51L259.74-4.48L264.22-4.48L264.22-4.86L264.61-4.48L264.83-4.48L264.74-4.35L264.86-4.22L265.12-4.48L264.22-5.38L264.22-5.95L265.70-4.48L265.92-4.48L265.79-4.35L265.95-4.22L266.21-4.48L264.22-6.43L264.22-6.72L264.51-6.72L266.75-4.48L267.01-4.48L266.88-4.35L267.04-4.22L267.30-4.48L265.02-6.72L265.60-6.72L267.84-4.48L268.10-4.48L267.97-4.35L268.10-4.22L268.35-4.48ZM264.22-0.51L264.32-0.42L264.58-0.67L264.45-0.83L264.22-0.61L264.22-0.51ZM264.22-1.60L264.32-1.50L264.58-1.76L264.45-1.92L264.22-1.70L264.22-1.60ZM264.22-2.69L264.32-2.59L264.58-2.85L264.45-2.98L264.22-2.78L264.22-2.69ZM264.22-3.78L264.32-3.68L264.58-3.94L264.45-4.06L264.22-3.87L264.22-3.78ZM264.74-1.12L264.86-0.96L265.12-1.22L264.96-1.38L264.74-1.12ZM264.74-2.21L264.86-2.05L265.12-2.30L264.96-2.43L264.74-2.21ZM264.74-3.26L264.86-3.14L265.12-3.39L264.96-3.52L264.74-3.26ZM265.25-0.58L265.41-0.42L265.66-0.67L265.50-0.83L265.25-0.58ZM265.25-1.66L265.41-1.50L265.66-1.76L265.50-1.92L265.25-1.66ZM265.25-2.72L265.41-2.59L265.66-2.85L265.50-2.98L265.25-2.72ZM265.25-3.81L265.41-3.68L265.66-3.94L265.50-4.06L265.25-3.81ZM265.79-1.12L265.95-0.96L266.21-1.22L266.05-1.38L265.79-1.12ZM265.79-2.21L265.95-2.05L266.21-2.30L266.05-2.43L265.79-2.21ZM265.79-3.26L265.95-3.14L266.21-3.39L266.05-3.52L265.79-3.26ZM266.34-0.58L266.50-0.42L266.75-0.67L266.59-0.83L266.34-0.58ZM266.34-1.66L266.50-1.50L266.75-1.76L266.59-1.92L266.34-1.66ZM266.34-2.72L266.50-2.59L266.75-2.85L266.59-2.98L266.34-2.72ZM266.34-3.81L266.50-3.68L266.75-3.94L266.59-4.06L266.34-3.81ZM266.88-1.12L267.04-0.96L267.30-1.22L267.14-1.38L266.88-1.12ZM266.88-2.21L267.04-2.05L267.30-2.30L267.14-2.43L266.88-2.21ZM266.88-3.26L267.04-3.14L267.30-3.39L267.14-3.52L266.88-3.26ZM267.42-0.58L267.58-0.42L267.81-0.67L267.68-0.83L267.42-0.58ZM267.42-1.66L267.58-1.50L267.81-1.76L267.68-1.92L267.42-1.66ZM267.42-2.72L267.58-2.59L267.81-2.85L267.68-2.98L267.42-2.72ZM267.42-3.81L267.58-3.68L267.81-3.94L267.68-4.06L267.42-3.81ZM267.97-1.12L268.10-0.96L268.35-1.22L268.22-1.38L267.97-1.12ZM267.97-2.21L268.10-2.05L268.35-2.30L268.22-2.43L267.97-2.21ZM267.97-3.26L268.10-3.14L268.35-3.39L268.22-3.52L267.97-3.26ZM290.75 0L289.95 0L292.67-2.72L292.67-1.92L290.75 0ZM291.84 0L291.04 0L292.67-1.63L292.67-0.83L291.84 0ZM289.66 0L288.86 0L292.67-3.81L292.67-3.01L289.66 0ZM292.26-4.48L292.67-4.48L292.67-4.10L288.58 0L287.78 0L292.26-4.48ZM292.67 0L292.13 0L292.67-0.54L292.67 0ZM283.71-2.69L283.71-3.49L284.67-4.48L285.47-4.48L283.71-2.69ZM290.50-4.48L290.91-4.48L286.43 0L285.63 0L290.11-4.48L289.82-4.48L285.34 0L284.54 0L289.02-4.48L288.74-4.48L284.26 0L283.71 0L283.71-0.26L287.94-4.48L287.65-4.48L283.71-0.54L283.71-1.34L286.85-4.48L286.56-4.48L283.71-1.63L283.71-2.43L285.76-4.48L285.82-4.48L285.09-6.98L284.83-6.72L284.03-6.72L284.90-7.58L284.83-7.81L283.74-6.72L282.94-6.72L284.64-8.42L284.58-8.64L282.66-6.72L281.86-6.72L284.38-9.25L284.32-9.47L281.57-6.72L280.77-6.72L284.16-10.08L284.10-10.30L280.51-6.72L279.71-6.72L283.90-10.91L283.84-11.14L279.42-6.72L278.62-6.72L283.10-11.20L283.81-11.20L281.79-17.92L281.60-17.92L279.46-10.82L279.84-11.20L280.64-11.20L279.10-9.66L279.01-9.25L280.93-11.20L281.73-11.20L278.66-8.13L278.53-7.71L282.02-11.20L282.82-11.20L278.34-6.72L278.24-6.72L277.57-4.48L277.92-4.48L277.70-4.29L277.86-4.13L278.11-4.38L278.02-4.48L278.98-4.48L278.78-4.29L278.94-4.13L279.20-4.38L279.10-4.48L279.68-4.48L279.68-3.90L279.58-4L279.33-3.74L279.49-3.58L279.68-3.81L279.68-2.82L279.58-2.91L279.33-2.66L279.49-2.53L279.68-2.72L279.68-1.73L279.58-1.82L279.33-1.57L279.49-1.44L279.68-1.63L279.68-0.67L279.58-0.74L279.33-0.48L279.49-0.35L279.68-0.54L279.68 0L279.14 0L279.20-0.06L279.04-0.19L278.85 0L278.05 0L278.11-0.06L277.95-0.19L277.76 0L276.96 0L277.02-0.06L276.90-0.19L276.67 0L275.87 0L275.94-0.06L275.81-0.19L275.58 0L274.78 0L274.85-0.06L274.72-0.19L274.50 0L273.70 0L273.76-0.06L273.63-0.19L273.44 0L272.64 0L272.70-0.06L272.54-0.19L272.35 0L271.55 0L271.62-0.06L271.46-0.19L271.26 0L270.72 0L270.72-0.45L270.82-0.35L271.07-0.61L270.91-0.74L270.72-0.54L270.72-1.54L270.82-1.44L271.07-1.70L270.91-1.82L270.72-1.63L270.72-2.62L270.82-2.53L271.07-2.78L270.91-2.91L270.72-2.69L270.72-3.71L270.82-3.58L271.07-3.84L270.91-4L270.72-3.78L270.72-4.48L271.42-4.48L271.20-4.29L271.36-4.13L271.62-4.38L271.52-4.48L272.48-4.48L272.29-4.29L272.45-4.13L272.70-4.38L272.61-4.48L272.90-4.48L278.27-22.40L285.12-22.40L290.50-4.48ZM271.36-0.90L271.62-1.15L271.46-1.28L271.20-1.02L271.36-0.90ZM271.36-1.98L271.62-2.24L271.46-2.37L271.20-2.11L271.36-1.98ZM271.36-3.07L271.62-3.30L271.46-3.46L271.20-3.20L271.36-3.07ZM271.90-0.35L272.16-0.61L272-0.74L271.74-0.48L271.90-0.35ZM271.90-1.44L272.16-1.70L272-1.82L271.74-1.57L271.90-1.44ZM271.90-2.53L272.16-2.78L272-2.91L271.74-2.66L271.90-2.53ZM271.90-3.58L272.16-3.84L272-4L271.74-3.74L271.90-3.58ZM272.45-0.90L272.70-1.15L272.54-1.28L272.29-1.02L272.45-0.90ZM272.45-1.98L272.70-2.24L272.54-2.37L272.29-2.11L272.45-1.98ZM272.45-3.07L272.70-3.30L272.54-3.46L272.29-3.20L272.45-3.07ZM272.99-0.35L273.25-0.61L273.09-0.74L272.83-0.48L272.99-0.35ZM272.99-1.44L273.25-1.70L273.09-1.82L272.83-1.57L272.99-1.44ZM272.99-2.53L273.25-2.78L273.09-2.91L272.83-2.66L272.99-2.53ZM272.99-3.58L273.25-3.84L273.09-4L272.83-3.74L272.99-3.58ZM273.54-0.90L273.76-1.15L273.63-1.28L273.38-1.02L273.54-0.90ZM273.54-1.98L273.76-2.24L273.63-2.37L273.38-2.11L273.54-1.98ZM273.54-3.07L273.76-3.30L273.63-3.46L273.38-3.20L273.54-3.07ZM273.54-4.13L273.76-4.38L273.70-4.48L273.57-4.48L273.38-4.29L273.54-4.13ZM274.05-0.35L274.30-0.61L274.18-0.74L273.92-0.48L274.05-0.35ZM274.05-1.44L274.30-1.70L274.18-1.82L273.92-1.57L274.05-1.44ZM274.05-2.53L274.30-2.78L274.18-2.91L273.92-2.66L274.05-2.53ZM274.05-3.58L274.30-3.84L274.18-4L273.92-3.74L274.05-3.58ZM274.59-0.90L274.85-1.15L274.72-1.28L274.46-1.02L274.59-0.90ZM274.59-1.98L274.85-2.24L274.72-2.37L274.46-2.11L274.59-1.98ZM274.59-3.07L274.85-3.30L274.72-3.46L274.46-3.20L274.59-3.07ZM274.59-4.13L274.85-4.38L274.78-4.48L274.66-4.48L274.46-4.29L274.59-4.13ZM279.04-3.46L278.78-3.20L278.94-3.07L279.20-3.30L279.04-3.46ZM279.04-2.37L278.78-2.11L278.94-1.98L279.20-2.24L279.04-2.37ZM279.04-1.28L278.78-1.02L278.94-0.90L279.20-1.15L279.04-1.28ZM278.50-4L278.24-3.74L278.40-3.58L278.66-3.84L278.50-4ZM278.50-2.91L278.24-2.66L278.40-2.53L278.66-2.78L278.50-2.91ZM278.50-1.82L278.24-1.57L278.40-1.44L278.66-1.70L278.50-1.82ZM278.50-0.74L278.24-0.48L278.40-0.35L278.66-0.61L278.50-0.74ZM275.14-0.35L275.39-0.61L275.26-0.74L275.01-0.48L275.14-0.35ZM275.14-1.44L275.39-1.70L275.26-1.82L275.01-1.57L275.14-1.44ZM275.14-2.53L275.39-2.78L275.26-2.91L275.01-2.66L275.14-2.53ZM275.14-3.58L275.39-3.84L275.26-4L275.01-3.74L275.14-3.58ZM275.68-0.90L275.94-1.15L275.81-1.28L275.55-1.02L275.68-0.90ZM275.68-1.98L275.94-2.24L275.81-2.37L275.55-2.11L275.68-1.98ZM275.68-3.07L275.94-3.30L275.81-3.46L275.55-3.20L275.68-3.07ZM275.68-4.13L275.94-4.38L275.87-4.48L275.74-4.48L275.55-4.29L275.68-4.13ZM276.22-0.35L276.48-0.61L276.35-0.74L276.10-0.48L276.22-0.35ZM276.22-1.44L276.48-1.70L276.35-1.82L276.10-1.57L276.22-1.44ZM276.22-2.53L276.48-2.78L276.35-2.91L276.10-2.66L276.22-2.53ZM276.22-3.58L276.48-3.84L276.35-4L276.10-3.74L276.22-3.58ZM276.77-0.90L277.02-1.15L276.90-1.28L276.64-1.02L276.77-0.90ZM276.77-1.98L277.02-2.24L276.90-2.37L276.64-2.11L276.77-1.98ZM276.77-3.07L277.02-3.30L276.90-3.46L276.64-3.20L276.77-3.07ZM276.77-4.13L277.02-4.38L276.93-4.48L276.83-4.48L276.64-4.29L276.77-4.13ZM277.31-0.35L277.57-0.61L277.41-0.74L277.18-0.48L277.31-0.35ZM277.31-1.44L277.57-1.70L277.41-1.82L277.18-1.57L277.31-1.44ZM277.31-2.53L277.57-2.78L277.41-2.91L277.18-2.66L277.31-2.53ZM277.95-3.46L277.70-3.20L277.86-3.07L278.11-3.30L277.95-3.46ZM277.95-2.37L277.70-2.11L277.86-1.98L278.11-2.24L277.95-2.37ZM277.95-1.28L277.70-1.02L277.86-0.90L278.11-1.15L277.95-1.28ZM277.57-3.84L277.41-4L277.18-3.74L277.31-3.58L277.57-3.84ZM283.71-3.78L283.71-4.48L284.42-4.48L283.71-3.78ZM291.20-4.48L291.97-4.48L287.49 0L286.72 0L291.20-4.48ZM313.66-17.92L307.30-8.70L307.30-4.48L307.74-4.48L307.14-3.87L307.26-3.71L308.03-4.48L308.83-4.48L307.14-2.78L307.26-2.62L309.12-4.48L309.54-4.48L309.54-4.13L307.14-1.70L307.26-1.57L309.54-3.84L309.54-3.04L307.14-0.61L307.26-0.48L309.54-2.75L309.54-1.95L307.58 0L306.78 0L306.98-0.19L306.85-0.32L306.59-0.06L306.66 0L305.70 0L305.89-0.19L305.76-0.32L305.50-0.06L305.57 0L304.64 0L304.80-0.19L304.67-0.32L304.42-0.06L304.48 0L303.55 0L303.71-0.19L303.58-0.32L303.33-0.06L303.39 0L302.46 0L302.82-0.38L302.82-0.58L302.94-0.48L303.20-0.74L303.04-0.86L302.18 0L301.38 0L302.82-1.44L302.82-1.66L302.94-1.57L303.20-1.79L303.04-1.95L301.09 0L300.58 0L300.58-0.29L302.82-2.53L302.82-2.72L302.94-2.62L303.20-2.88L303.04-3.04L300.58-0.58L300.58-1.38L302.82-3.62L302.82-3.81L302.94-3.71L303.20-3.97L303.04-4.13L300.58-1.66L300.58-2.46L302.62-4.48L302.82-4.48L302.82-8.70L296.48-17.92L296.54-17.92L301.02-22.40L301.82-22.40L297.34-17.92L297.63-17.92L302.11-22.40L302.91-22.40L298.43-17.92L298.72-17.92L303.20-22.40L303.62-22.40L303.62-22.02L299.52-17.92L299.81-17.92L303.62-21.73L303.62-20.93L300.61-17.92L300.90-17.92L303.62-20.64L303.62-19.84L301.70-17.92L301.92-17.92L305.06-13.34L308.22-17.92L307.65-17.92L306.53-19.04L306.53-19.62L308.22-17.92L308.74-17.92L306.53-20.13L306.53-20.70L309.31-17.92L309.82-17.92L306.53-21.22L306.53-21.79L310.40-17.92L310.88-17.92L306.53-22.27L306.53-22.40L306.98-22.40L311.46-17.92L311.97-17.92L307.49-22.40L308.06-22.40L312.54-17.92L313.06-17.92L308.58-22.40L309.15-22.40L313.63-17.92L313.66-17.92ZM303.42-4.48L303.33-4.42L303.46-4.26L303.68-4.48L303.42-4.48ZM303.46-1.02L303.71-1.28L303.58-1.41L303.33-1.15L303.46-1.02ZM303.46-2.08L303.71-2.34L303.58-2.50L303.33-2.24L303.46-2.08ZM303.46-3.17L303.71-3.42L303.58-3.58L303.33-3.33L303.46-3.17ZM304-0.48L304.26-0.74L304.13-0.86L303.87-0.61L304-0.48ZM304-1.57L304.26-1.79L304.13-1.95L303.87-1.70L304-1.57ZM304-2.62L304.26-2.88L304.13-3.04L303.87-2.78L304-2.62ZM304-3.71L304.26-3.97L304.13-4.13L303.87-3.87L304-3.71ZM304.48-4.48L304.42-4.42L304.54-4.26L304.77-4.48L304.48-4.48ZM304.54-1.02L304.80-1.28L304.67-1.41L304.42-1.15L304.54-1.02ZM304.54-2.08L304.80-2.34L304.67-2.50L304.42-2.24L304.54-2.08ZM304.54-3.17L304.80-3.42L304.67-3.58L304.42-3.33L304.54-3.17ZM305.09-0.48L305.34-0.74L305.22-0.86L304.96-0.61L305.09-0.48ZM305.09-1.57L305.34-1.79L305.22-1.95L304.96-1.70L305.09-1.57ZM305.09-2.62L305.34-2.88L305.22-3.04L304.96-2.78L305.09-2.62ZM305.09-3.71L305.34-3.97L305.22-4.13L304.96-3.87L305.09-3.71ZM305.57-4.48L305.50-4.42L305.63-4.26L305.86-4.48L305.57-4.48ZM305.63-1.02L305.89-1.28L305.76-1.41L305.50-1.15L305.63-1.02ZM305.63-2.08L305.89-2.34L305.76-2.50L305.50-2.24L305.63-2.08ZM305.63-3.17L305.89-3.42L305.76-3.58L305.50-3.33L305.63-3.17ZM306.18-0.48L306.43-0.74L306.30-0.86L306.05-0.61L306.18-0.48ZM306.18-1.57L306.43-1.79L306.30-1.95L306.05-1.70L306.18-1.57ZM306.18-2.62L306.43-2.88L306.30-3.04L306.05-2.78L306.18-2.62ZM306.18-3.71L306.43-3.97L306.30-4.13L306.05-3.87L306.18-3.71ZM306.66-4.48L306.59-4.42L306.72-4.26L306.94-4.48L306.66-4.48ZM306.72-1.02L306.98-1.28L306.85-1.41L306.59-1.15L306.72-1.02ZM306.72-2.08L306.98-2.34L306.85-2.50L306.59-2.24L306.72-2.08ZM306.72-3.17L306.98-3.42L306.85-3.58L306.59-3.33L306.72-3.17ZM297.79-22.40L298.59-22.40L294.66-18.46L294.66-19.26L297.79-22.40ZM295.62-22.40L296.42-22.40L294.66-20.64L294.66-21.44L295.62-22.40ZM296.70-22.40L297.50-22.40L294.66-19.55L294.66-20.35L296.70-22.40ZM299.97-22.40L300.77-22.40L296.29-17.92L295.49-17.92L299.97-22.40ZM298.88-22.40L299.68-22.40L295.20-17.92L294.66-17.92L294.66-18.18L298.88-22.40ZM309.54 0L308.96 0L309.54-0.61L309.54 0ZM308.67 0L307.87 0L309.54-1.66L309.54-0.86L308.67 0ZM300.58-3.84L300.58-4.48L301.25-4.48L300.58-3.84ZM300.58-2.75L300.58-3.55L301.54-4.48L302.34-4.48L300.58-2.75ZM303.62-19.55L303.62-18.75L302.78-17.92L301.98-17.92L303.62-19.55ZM294.66-22.40L295.33-22.40L294.66-21.73L294.66-22.40ZM303.62-18.50L303.62-17.92L303.04-17.92L303.62-18.50ZM307.14-17.92L306.56-17.92L306.53-17.95L306.53-18.53L307.14-17.92ZM309.66-22.40L310.24-22.40L314.72-17.92L314.14-17.92L309.66-22.40ZM311.84-22.40L312.42-22.40L315.49-19.33L315.49-18.75L311.84-22.40ZM310.75-22.40L311.33-22.40L315.49-18.24L315.49-17.92L315.23-17.92L310.75-22.40ZM312.90-22.40L313.47-22.40L315.49-20.38L315.49-19.81L312.90-22.40ZM315.07-22.40L315.49-22.40L315.49-21.98L315.07-22.40ZM313.98-22.40L314.56-22.40L315.49-21.47L315.49-20.90L313.98-22.40Z"/></svg>