<svg id="mainsvg" xmlns="http://www.w3.org/2000/svg" xmlns:xlink="http://www.w3.org/1999/xlink" version="1.1" x="0px" y="0px" enable-background="new 0 0 200 162.5" xml:space="preserve" viewBox="0 0 68 22"><path fill="#000" transform="translate(-2.368, 20.736)" d="M4.67-19.58C4.67-21.06 2.37-21.15 2.37-19.58L2.37-0.93C2.37 0.54 4.67 0.74 4.67-0.93L4.67-8.83C8.80-8.83 12.38-8.83 16.45-8.83L16.45-0.93C16.45 0.70 18.78 0.64 18.78-0.93L18.78-19.58C18.78-21.12 16.45-21.12 16.45-19.58L16.45-10.85L4.67-10.85ZM33.76-16.22C32.19-16.64 30.46-16.67 28.96-16.22C23.01-14.56 21.50-7.20 24.96-2.66C26.46-0.77 28.96 0.19 31.46 0.19C33.54 0.22 35.68-0.35 37.15-1.73C38.40-3.01 36.74-4.32 35.62-3.30C34.37-2.34 32.83-1.95 31.36-1.95C28.16-1.95 25.92-4.13 25.50-6.75L38.14-6.75C39.46-6.75 39.78-7.52 39.71-8.22L39.71-8.19C39.65-12.29 37.41-15.23 33.79-16.22ZM29.66-14.11C30.75-14.43 32.06-14.43 33.12-14.14L33.09-14.14C35.58-13.50 37.25-11.42 37.47-8.70L25.41-8.70C25.60-11.30 27.10-13.44 29.66-14.11ZM45.98-15.23C45.98-16.77 43.71-16.64 43.71-15.23L43.71-1.06C43.71-0.38 44.19 0.06 44.90 0.06C45.50 0.06 46.05-0.38 46.05-1.06L46.05-8.29C46.05-11.52 47.46-14.14 50.75-14.14C51.49-14.14 51.97-14.53 51.97-15.23C51.97-15.97 51.49-16.35 50.75-16.35C48.93-16.35 47.01-15.78 45.98-13.63ZM61.95 0.29C64.48 0.29 66.78-0.70 68.35-2.59C69.76-4.29 70.40-6.34 70.27-8.74C69.98-12.32 67.81-15.26 64.32-16.26C63.49-16.48 62.72-16.54 61.95-16.54C61.15-16.54 60.29-16.48 59.52-16.26C56-15.26 53.92-12.29 53.60-8.74C53.50-6.34 54.11-4.29 55.55-2.59C57.12-0.70 59.39 0.29 61.95 0.29ZM63.68-14.14C66.40-13.44 67.97-10.91 67.97-8C67.97-6.62 67.46-5.09 66.56-4C65.44-2.72 63.68-1.89 61.95-1.89C60.19-1.89 58.50-2.66 57.38-4C56.42-5.12 55.97-6.62 55.97-8.06C55.97-10.94 57.54-13.44 60.22-14.14C60.70-14.27 61.31-14.37 61.92-14.37C62.53-14.37 63.17-14.27 63.68-14.14Z"/></svg>