<svg id="mainsvg" xmlns="http://www.w3.org/2000/svg" xmlns:xlink="http://www.w3.org/1999/xlink" version="1.1" x="0px" y="0px" enable-background="new 0 0 200 162.5" xml:space="preserve" viewBox="0 0 117 24"><path fill="#000" transform="translate(0, 19.21875)" d="M7.66-19.19L7.66-19.19Q8.94-12.78 11.53 0.03L11.53 0.03Q10.28 0.03 7.72 0.03L7.72 0.03Q6.41-6.38 3.75-19.19L3.75-19.19Q5.06-19.19 7.66-19.19ZM0-1.91L0-1.91Q0-2.69 0.56-3.25L0.56-3.25Q1.13-3.78 1.88-3.81L1.88-3.81Q1.91-3.81 1.91-3.81L1.91-3.81Q2.72-3.81 3.28-3.25L3.28-3.25Q3.84-2.69 3.84-1.88L3.84-1.88Q3.84-1.09 3.28-0.53L3.28-0.53Q2.72 0.03 1.91 0.03L1.91 0.03Q1.13 0.03 0.56-0.53L0.56-0.53Q0-1.09 0-1.91ZM18.91-3.84L18.91-3.84Q17.31-3.84 16.19-4.97L16.19-4.97Q15.06-6.09 15.06-7.69L15.06-7.69Q15.06-9.28 16.19-10.41L16.19-10.41Q17.31-11.53 18.91-11.53L18.91-11.53Q18.91-8.97 18.91-3.84ZM22.78-3.84L22.78-3.84Q22.78-4.94 22.78-7.13L22.78-7.13Q22.78-8.59 22.78-11.53L22.78-11.53Q24.34-11.53 25.47-10.41L25.47-10.41Q26.56-9.28 26.56-7.72L26.56-7.72Q26.56-7.69 26.56-7.66L26.56-7.66Q26.56-6.06 25.47-4.97L25.47-4.97Q24.34-3.84 22.78-3.84ZM15.06 0L15.06 0Q17.63 0 22.75 0L22.75 0Q24.31 0 25.44 1.13L25.44 1.13Q26.56 2.25 26.56 3.84L26.56 3.84Q24.03 3.84 18.91 3.84L18.91 3.84Q17.31 3.84 16.19 2.72L16.19 2.72Q15.06 1.59 15.06 0ZM33.31 0L33.31 0Q31.72 0 30.59-1.13L30.59-1.13Q29.47-2.25 29.47-3.84L29.47-3.84Q29.47-5.13 29.47-7.69L29.47-7.69Q29.47-9.25 30.59-10.38L30.59-10.38Q31.72-11.50 33.31-11.50L33.31-11.50Q33.31-7.69 33.31 0ZM37.16-3.84L37.16-3.84Q37.16-4.81 37.16-6.72L37.16-6.72Q37.16-8.31 37.16-11.50L37.16-11.50Q38.72-11.50 39.84-10.38L39.84-10.38Q40.97-9.25 40.97-7.69L40.97-7.69Q40.97-6.09 39.84-4.97L39.84-4.97Q38.72-3.84 37.16-3.84ZM43.88-11.53L43.88-11.53Q45.16-11.53 47.72-11.53L47.72-11.53Q47.72-7.69 47.72 0L47.72 0Q46.44 0 43.88 0L43.88 0Q43.88-3.84 43.88-11.53ZM51.56-11.53L51.56-11.53Q53.16-11.53 54.28-10.41L54.28-10.41Q55.41-9.28 55.41-7.69L55.41-7.69Q55.41-5.13 55.41 0L55.41 0Q54.13 0 51.56 0L51.56 0Q51.56-1.91 51.56-5.72L51.56-5.72Q51.56-7.66 51.56-11.53ZM64.06-19.19L64.06-19.19Q64.06-17.94 64.06-15.38L64.06-15.38Q64.06-14.72 64.06-13.44L64.06-13.44Q64.06-8.97 64.06 0L64.06 0Q62.47 0 61.34-1.13L61.34-1.13Q60.22-2.25 60.22-3.84L60.22-3.84Q60.22-7.03 60.22-13.44L60.22-13.44Q59.59-13.44 58.31-13.44L58.31-13.44Q58.31-15.84 59.97-17.53L59.97-17.53Q61.66-19.19 64.06-19.19ZM69.78-13.44L69.78-13.44Q69.78-13.81 69.63-14.19L69.63-14.19Q69.50-14.53 69.22-14.81L69.22-14.81Q68.97-15.06 68.59-15.22L68.59-15.22Q68.25-15.38 67.88-15.38L67.88-15.38Q67.50-15.38 67.13-15.22L67.13-15.22Q66.78-15.06 66.50-14.81L66.50-14.81Q66.25-14.53 66.09-14.19L66.09-14.19Q65.94-13.81 65.94-13.44L65.94-13.44Q65.94-13.06 66.09-12.72L66.09-12.72Q66.25-12.34 66.50-12.09L66.50-12.09Q66.78-11.81 67.13-11.66L67.13-11.66Q67.50-11.53 67.88-11.53L67.88-11.53Q68.25-11.53 68.59-11.66L68.59-11.66Q68.97-11.81 69.22-12.09L69.22-12.09Q69.50-12.34 69.63-12.72L69.63-12.72Q69.78-13.06 69.78-13.44ZM72.97 0L72.97 0Q72.19 0 71.63-0.56L71.63-0.56Q71.06-1.13 71.06-1.91L71.06-1.91Q71.06-2.72 71.63-3.28L71.63-3.28Q72.19-3.84 72.97-3.84L72.97-3.84Q73.78-3.84 74.34-3.28L74.34-3.28Q74.91-2.72 74.91-1.91L74.91-1.91Q74.91-1.13 74.34-0.56L74.34-0.56Q73.78 0 72.97 0ZM82.59-19.22L82.59-19.22Q83.88-19.22 86.44-19.22L86.44-19.22Q86.44-12.81 86.44 0L86.44 0Q85.16 0 82.59 0L82.59 0Q82.59-3.22 82.59-9.66L82.59-9.66Q82.59-12.84 82.59-19.22ZM80.66-5.19L80.66-5.19Q80-3.47 78.69 0L78.69 0Q76.16-6.41 71.06-19.22L71.06-19.22Q72.34-19.22 74.88-19.22L74.88-19.22Q76.78-14.56 80.66-5.19ZM93.81 0L93.81 0Q92.22 0 91.09-1.13L91.09-1.13Q89.97-2.25 89.97-3.84L89.97-3.84Q89.97-5.44 91.09-6.56L91.09-6.56Q92.22-7.69 93.81-7.69L93.81-7.69Q93.81-5.13 93.81 0ZM97.66-11.53L97.66-11.53Q99.25-11.53 100.38-10.41L100.38-10.41Q101.50-9.28 101.50-7.69L101.50-7.69Q101.50-5.13 101.50 0L101.50 0Q100.22 0 97.66 0L97.66 0Q97.66-1.44 97.66-4.31L97.66-4.31Q97.66-6.72 97.66-11.53ZM91.84-7.78L91.84-7.78Q91.06-7.78 90.53-8.34L90.53-8.34Q89.97-8.88 89.97-9.66L89.97-9.66Q89.97-10.44 90.53-10.97L90.53-10.97Q91.06-11.53 91.84-11.53L91.84-11.53Q92.59-11.53 93.16-10.97L93.16-10.97Q93.69-10.44 93.69-9.66L93.69-9.66Q93.69-9.66 93.69-9.63L93.69-9.63Q93.69-8.88 93.16-8.34L93.16-8.34Q92.59-7.78 91.84-7.78ZM108.88 0L108.88 0Q107.28 0 106.16-1.13L106.16-1.13Q105.03-2.25 105.03-3.84L105.03-3.84Q105.03-5.13 105.03-7.69L105.03-7.69Q105.03-9.28 106.16-10.41L106.16-10.41Q107.28-11.53 108.88-11.53L108.88-11.53Q108.88-7.69 108.88 0ZM112.72-9.59L112.72-9.59Q112.72-10.41 113.28-10.97L113.28-10.97Q113.81-11.53 114.63-11.53L114.63-11.53Q115.41-11.53 115.97-10.97L115.97-10.97Q116.53-10.41 116.53-9.63L116.53-9.63Q116.53-9.63 116.53-9.59L116.53-9.59Q116.53-8.81 115.97-8.25L115.97-8.25Q115.41-7.69 114.63-7.69L114.63-7.69Q113.81-7.69 113.28-8.25L113.28-8.25Q112.72-8.81 112.72-9.59Z"/></svg>