<svg id="mainsvg" xmlns="http://www.w3.org/2000/svg" xmlns:xlink="http://www.w3.org/1999/xlink" version="1.1" x="0px" y="0px" enable-background="new 0 0 200 162.5" xml:space="preserve" viewBox="0 0 205 32"><path fill="#000" transform="translate(-0.8, 24.544)" d="M12.51-22.72C13.86-22.69 15.20-22.69 16.54-22.66C19.62-22.59 20.38-21.86 20.48-20.90C20.48-20.77 20.51-20.67 20.51-20.54C20.54-20.10 20.61-20 20.77-20C20.90-20 20.99-20.13 20.99-20.42C20.99-20.77 21.09-22.98 21.09-23.94C21.09-24.13 21.09-24.32 20.93-24.32C20.80-24.32 20.51-24.22 20.03-24.16C19.52-24.06 18.78-24 17.76-24L5.76-24C5.38-24 4.16-24.06 3.23-24.16C2.37-24.22 2.05-24.54 1.82-24.54C1.70-24.54 1.57-24.13 1.50-23.94C1.44-23.68 0.80-20.93 0.80-20.61C0.80-20.42 0.86-20.32 0.96-20.32C1.09-20.32 1.18-20.38 1.28-20.64C1.38-20.86 1.47-21.09 1.82-21.63C2.34-22.40 3.10-22.62 5.09-22.66C6.66-22.69 8.26-22.69 9.82-22.72L9.82-9.18C9.82-6.11 9.82-3.58 9.66-2.24C9.54-1.31 9.38-0.61 8.74-0.48C8.45-0.42 8.06-0.35 7.78-0.35C7.58-0.35 7.52-0.26 7.52-0.16C7.52 0.03 7.68 0.10 8.03 0.10C8.99 0.10 11.01 0 11.17 0C11.33 0 13.34 0.10 15.10 0.10C15.46 0.10 15.62 0 15.62-0.16C15.62-0.26 15.55-0.35 15.36-0.35C15.07-0.35 14.37-0.42 13.92-0.48C12.96-0.61 12.77-1.31 12.67-2.24C12.51-3.58 12.51-6.11 12.51-9.18ZM27.10-7.81C27.10-5.41 27.14-2.78 26.98-1.63C26.88-0.86 26.69-0.51 26.14-0.42C25.89-0.35 25.66-0.35 25.44-0.35C25.25-0.35 25.06-0.26 25.06-0.16C25.06 0.03 25.18 0.10 25.50 0.10C26.37 0.10 27.78 0 28.29 0C28.42 0 30.21 0.10 31.87 0.10C32.19 0.10 32.32 0 32.32-0.16C32.32-0.26 32.19-0.35 31.90-0.35C31.65-0.35 31.30-0.38 30.98-0.42C29.92-0.54 29.82-1.18 29.73-1.95C29.57-3.10 29.57-5.44 29.57-8L29.57-8.45C29.57-8.58 29.60-8.61 29.73-8.61L33.02-8.58C33.22-8.58 33.28-8.51 33.41-8.38C33.95-7.71 35.23-5.98 36.48-4.45C38.14-2.30 39.10-0.86 40.45-0.29C41.15 0 41.86 0.10 43.36 0.10L45.60 0.10C46.05 0.10 46.18 0.03 46.18-0.13C46.18-0.26 46.08-0.35 45.82-0.35C45.73-0.35 45.06-0.38 44.83-0.42C43.94-0.54 42.98-0.80 41.44-2.37C39.81-4.06 37.89-6.43 35.55-9.31C38.08-11.36 38.94-13.60 38.94-15.36C38.94-17.54 37.63-18.82 37.02-19.26C35.52-20.32 33.57-20.48 31.78-20.48C30.88-20.48 28.70-20.38 28.42-20.38C28.35-20.38 26.40-20.48 25.02-20.48C24.74-20.48 24.64-20.38 24.64-20.26C24.64-20.13 24.77-20.06 24.99-20.06C25.25-20.06 25.57-20.03 25.76-20C26.75-19.81 26.98-19.33 27.04-18.46C27.10-17.60 27.10-16.83 27.10-12.61ZM29.57-19.04C29.57-19.20 29.66-19.30 29.76-19.33C30.14-19.42 30.82-19.49 31.62-19.49C34.46-19.49 36.32-17.57 36.32-14.08C36.32-12.03 35.68-10.62 34.72-10.02C34.05-9.57 33.25-9.54 32.58-9.54C31.42-9.54 30.14-9.73 29.73-9.95C29.60-10.02 29.57-10.18 29.57-10.34ZM55.65-7.71C55.78-7.71 55.84-7.65 55.90-7.55L58.43-1.12C58.62-0.64 58.43-0.48 58.30-0.42C58.18-0.38 58.08-0.29 58.08-0.19C58.08-0.03 58.27 0 58.88 0.03C61.02 0.10 63.42 0.10 63.74 0.10C64.10 0.10 64.22 0.03 64.22-0.13C64.22-0.29 64.06-0.35 63.84-0.35C63.62-0.35 63.17-0.35 62.75-0.51C62.30-0.67 61.38-1.09 60.32-3.62C58.62-7.62 54.27-18.78 53.82-19.84C53.47-20.74 53.34-20.86 53.18-20.86C52.96-20.86 52.86-20.70 52.51-19.78L46.11-2.91C45.57-1.57 45.02-0.51 43.65-0.38C43.46-0.35 43.17-0.35 43.01-0.35C42.75-0.35 42.62-0.26 42.62-0.13C42.62 0.03 42.78 0.10 43.14 0.10C44.48 0.10 45.89 0 46.21 0C46.56 0 48.03 0.10 48.74 0.10C48.96 0.10 49.22 0.03 49.22-0.13C49.22-0.26 49.12-0.35 48.83-0.35C48.74-0.35 48.70-0.35 48.61-0.35C47.90-0.35 47.55-0.61 47.55-1.18C47.55-1.70 47.78-2.56 48.10-3.46L49.50-7.46C49.57-7.62 49.66-7.71 49.82-7.71ZM50.14-8.83C50.08-8.83 50.02-8.90 50.08-9.02L52.48-16.10C52.64-16.54 52.67-16.54 52.83-16.10L55.36-9.02C55.39-8.93 55.39-8.83 55.26-8.83ZM70.78-12.61C70.78-16.83 70.78-17.54 70.85-18.40C70.91-19.33 71.17-19.81 71.90-19.97C72.26-20 72.45-20.03 72.64-20.03C72.70-20.03 72.83-20.13 72.83-20.22C72.83-20.42 72.70-20.48 72.38-20.48C71.49-20.48 69.60-20.38 69.47-20.38C69.38-20.38 67.52-20.48 66.18-20.48C65.86-20.48 65.70-20.42 65.70-20.22C65.70-20.13 65.82-20.03 65.92-20.03C66.18-20.03 66.69-20 66.88-19.97C67.78-19.74 68.06-19.30 68.13-18.43C68.19-17.57 68.19-16.83 68.19-12.61L68.19-4.80C68.19 2.53 67.26 3.90 65.34 5.73C65.15 5.92 64.77 6.24 64.45 6.40C64.22 6.56 64.03 6.62 64.03 6.82C64.03 6.94 64.19 6.98 64.26 6.98C64.35 6.98 64.42 6.98 64.45 6.94C64.74 6.82 65.22 6.46 65.57 6.27C68.06 4.61 69.34 3.33 69.92 1.95C70.82-0.10 70.78-1.89 70.78-6.50ZM87.26-7.71C87.39-7.71 87.46-7.65 87.52-7.55L90.05-1.12C90.24-0.64 90.05-0.48 89.92-0.42C89.79-0.38 89.70-0.29 89.70-0.19C89.70-0.03 89.89 0 90.50 0.03C92.64 0.10 95.04 0.10 95.36 0.10C95.71 0.10 95.84 0.03 95.84-0.13C95.84-0.29 95.68-0.35 95.46-0.35C95.23-0.35 94.78-0.35 94.37-0.51C93.92-0.67 92.99-1.09 91.94-3.62C90.24-7.62 85.89-18.78 85.44-19.84C85.09-20.74 84.96-20.86 84.80-20.86C84.58-20.86 84.48-20.70 84.13-19.78L77.73-2.91C77.18-1.57 76.64-0.51 75.26-0.38C75.07-0.35 74.78-0.35 74.62-0.35C74.37-0.35 74.24-0.26 74.24-0.13C74.24 0.03 74.40 0.10 74.75 0.10C76.10 0.10 77.50 0 77.82 0C78.18 0 79.65 0.10 80.35 0.10C80.58 0.10 80.83 0.03 80.83-0.13C80.83-0.26 80.74-0.35 80.45-0.35C80.35-0.35 80.32-0.35 80.22-0.35C79.52-0.35 79.17-0.61 79.17-1.18C79.17-1.70 79.39-2.56 79.71-3.46L81.12-7.46C81.18-7.62 81.28-7.71 81.44-7.71ZM81.76-8.83C81.70-8.83 81.63-8.90 81.70-9.02L84.10-16.10C84.26-16.54 84.29-16.54 84.45-16.10L86.98-9.02C87.01-8.93 87.01-8.83 86.88-8.83ZM98.88-3.90C98.88-1.57 98.72-0.70 98.02-0.48C97.60-0.35 97.25-0.35 97.02-0.35C96.70-0.35 96.58-0.26 96.58-0.13C96.58 0.06 96.77 0.10 97.06 0.10C98.43 0.10 99.62 0 99.84 0C100.06 0 101.22 0.10 102.94 0.10C103.30 0.10 103.46 0.03 103.46-0.13C103.46-0.26 103.33-0.35 103.07-0.35C102.82-0.35 102.27-0.35 101.76-0.48C100.96-0.67 100.77-1.50 100.70-3.71L100.29-16.22C101.09-15.39 104.29-12.06 107.62-8.61C110.40-5.89 114.85-1.47 114.98-1.41C116.54 0.06 116.86 0.29 117.09 0.29C117.31 0.29 117.38 0.13 117.38-1.47L117.44-17.54C117.44-19.46 117.66-19.78 118.40-19.94C118.75-20 119.01-20 119.20-20.03C119.39-20.06 119.49-20.16 119.49-20.29C119.49-20.45 119.39-20.48 119.04-20.48C117.79-20.48 116.80-20.38 116.48-20.38C116.19-20.38 114.85-20.48 113.47-20.48C113.15-20.48 112.90-20.45 112.90-20.29C112.90-20.16 112.96-20.03 113.28-20.03C113.50-20.03 113.98-20 114.53-19.90C115.39-19.68 115.58-19.10 115.62-17.38L115.97-4.06C115.14-4.83 111.94-8.13 109.44-10.56C104.96-15.14 100.51-19.68 100.22-20C100-20.22 99.46-20.86 99.23-20.86C98.98-20.86 98.88-20.54 98.88-19.55C98.91-14.24 98.88-19.17 98.88-3.90ZM127.33-9.18C127.33-6.11 127.33-3.58 127.17-2.24C127.04-1.31 126.88-0.61 126.24-0.48C125.95-0.42 125.57-0.35 125.28-0.35C125.09-0.35 125.02-0.26 125.02-0.16C125.02 0.03 125.18 0.10 125.54 0.10C126.50 0.10 128.51 0 128.61 0C128.77 0 130.78 0.10 132.54 0.10C132.90 0.10 133.06 0 133.06-0.16C133.06-0.26 132.99-0.35 132.80-0.35C132.51-0.35 131.81-0.42 131.36-0.48C130.40-0.61 130.21-1.31 130.11-2.24C129.95-3.58 129.95-6.11 129.95-9.18L129.95-22.34C129.95-22.66 130.02-22.88 130.21-22.94C130.50-23.07 131.04-23.14 131.58-23.14C132.32-23.14 134.27-23.26 135.97-21.54C137.66-19.81 137.76-17.66 137.76-16.86C137.76-13.50 135.33-11.39 132.22-11.39C131.55-11.39 131.36-11.36 131.36-11.10C131.36-10.94 131.55-10.88 131.71-10.88C131.87-10.85 132.22-10.85 132.38-10.85C136.93-10.85 140.26-13.92 140.26-18.08C140.26-20.16 139.36-21.60 138.66-22.27C138.14-22.75 136.70-24.10 132.70-24.10C131.23-24.10 129.38-24 128.67-24C128.42-24 126.50-24.10 125.06-24.10C124.70-24.10 124.54-24.03 124.54-23.84C124.54-23.71 124.67-23.65 124.80-23.65C125.09-23.65 125.63-23.62 125.89-23.55C126.94-23.33 127.20-22.82 127.26-21.73C127.33-20.70 127.33-19.81 127.33-14.82ZM147.17-7.81C147.17-5.41 147.20-2.78 147.04-1.63C146.94-0.86 146.75-0.51 146.21-0.42C145.95-0.35 145.73-0.35 145.50-0.35C145.31-0.35 145.12-0.26 145.12-0.16C145.12 0.03 145.25 0.10 145.57 0.10C146.43 0.10 147.84 0 148.35 0C148.48 0 150.27 0.10 151.94 0.10C152.26 0.10 152.38 0 152.38-0.16C152.38-0.26 152.26-0.35 151.97-0.35C151.71-0.35 151.36-0.38 151.04-0.42C149.98-0.54 149.89-1.18 149.79-1.95C149.63-3.10 149.63-5.44 149.63-8L149.63-8.45C149.63-8.58 149.66-8.61 149.79-8.61L153.09-8.58C153.28-8.58 153.34-8.51 153.47-8.38C154.02-7.71 155.30-5.98 156.54-4.45C158.21-2.30 159.17-0.86 160.51-0.29C161.22 0 161.92 0.10 163.42 0.10L165.66 0.10C166.11 0.10 166.24 0.03 166.24-0.13C166.24-0.26 166.14-0.35 165.89-0.35C165.79-0.35 165.12-0.38 164.90-0.42C164.00-0.54 163.04-0.80 161.50-2.37C159.87-4.06 157.95-6.43 155.62-9.31C158.14-11.36 159.01-13.60 159.01-15.36C159.01-17.54 157.70-18.82 157.09-19.26C155.58-20.32 153.63-20.48 151.84-20.48C150.94-20.48 148.77-20.38 148.48-20.38C148.42-20.38 146.46-20.48 145.09-20.48C144.80-20.48 144.70-20.38 144.70-20.26C144.70-20.13 144.83-20.06 145.06-20.06C145.31-20.06 145.63-20.03 145.82-20C146.82-19.81 147.04-19.33 147.10-18.46C147.17-17.60 147.17-16.83 147.17-12.61ZM149.63-19.04C149.63-19.20 149.73-19.30 149.82-19.33C150.21-19.42 150.88-19.49 151.68-19.49C154.53-19.49 156.38-17.57 156.38-14.08C156.38-12.03 155.74-10.62 154.78-10.02C154.11-9.57 153.31-9.54 152.64-9.54C151.49-9.54 150.21-9.73 149.79-9.95C149.66-10.02 149.63-10.18 149.63-10.34ZM176.32 0.45C183.14 0.45 187.65-4.54 187.65-10.66C187.65-17.09 182.82-20.86 176.48-20.86C168.58-20.86 165.28-14.50 165.28-10.24C165.28-5.38 168.48 0.45 176.32 0.45ZM177.12-0.64C171.74-0.64 168.26-4.80 168.26-11.07C168.26-17.12 171.84-19.87 176.29-19.87C180.67-19.87 184.64-16.29 184.64-9.86C184.64-1.73 179.26-0.64 177.12-0.64ZM195.78 0.58C201.47 0.58 205.34-3.17 205.34-7.65C205.34-11.36 202.08-13.31 200.06-13.79C200.06-13.86 200.06-13.89 200.06-13.95C201.06-14.40 204.35-16.51 204.35-19.71C204.35-21.31 203.23-24.51 198.02-24.51C195.62-24.51 193.82-23.90 192.83-23.42C192.45-23.17 192.42-23.04 192.42-22.75C192.42-22.02 192.51-20.58 192.64-19.55C192.67-19.26 192.77-19.20 192.86-19.20C192.96-19.20 193.09-19.26 193.09-19.58C193.09-22.05 194.78-23.36 197.12-23.36C200.90-23.36 201.73-20.38 201.73-19.04C201.73-15.30 198.21-13.76 196.64-13.47C196.22-13.41 195.90-13.31 195.90-13.09C195.90-12.86 196.13-12.80 196.74-12.67C198.82-12.26 202.66-10.75 202.66-6.46C202.66-2.66 200.10-0.80 196.86-0.80C193.79-0.80 192.48-2.24 192.13-4.38C192.10-4.58 192.10-4.93 192.06-5.12C192.03-5.47 192-5.57 191.84-5.57C191.68-5.57 191.62-5.41 191.58-5.09C191.49-4.38 191.36-2.59 191.36-1.09C191.36-0.70 191.42-0.48 191.87-0.19C192.54 0.19 194.46 0.58 195.78 0.58Z"/></svg>