<svg id="mainsvg" xmlns="http://www.w3.org/2000/svg" xmlns:xlink="http://www.w3.org/1999/xlink" version="1.1" x="0px" y="0px" enable-background="new 0 0 200 162.5" xml:space="preserve" viewBox="0 0 130 29"><path fill="#000" transform="translate(-5.1875, 25.078125)" d="M10.05-23.30L10.05-23.30Q10.83-23.19 11.60-23.12Q12.38-23.05 13.13-22.78L13.13-22.78Q13.59-22.63 14.10-22.35Q14.61-22.08 15.05-21.70Q15.48-21.33 15.77-20.85Q16.05-20.38 16.05-19.83L16.05-19.83Q16.05-19.34 15.78-18.87Q15.52-18.39 15.09-17.95Q14.66-17.50 14.11-17.09Q13.56-16.69 13-16.34Q12.44-16 11.91-15.73Q11.39-15.47 11-15.31L11-15.31Q10.73-15.20 10.48-15.10Q10.22-15 9.95-14.89L9.95-14.89Q10.88-14.70 11.88-14.44Q12.88-14.17 13.72-13.73L13.72-13.73Q14.31-13.42 14.84-12.97Q15.36-12.52 15.77-11.95Q16.17-11.39 16.41-10.75Q16.64-10.11 16.64-9.42L16.64-9.42Q16.64-8.44 16.13-7.58Q15.63-6.72 14.80-5.98Q13.97-5.25 12.91-4.64Q11.86-4.03 10.78-3.55Q9.70-3.08 8.69-2.72Q7.67-2.36 6.91-2.13L6.91-2.13Q6.14-1.89 3.88-1.35Q1.63-0.81-1.13-0.59L-1.13-0.59Q-1.39-0.59-1.64-0.57Q-1.89-0.55-2.16-0.55L-2.16-0.55Q-2.67-0.55-3.21-0.69Q-3.75-0.83-4.19-1.12Q-4.63-1.41-4.91-1.84Q-5.19-2.28-5.19-2.88L-5.19-2.88Q-5.19-3.19-5.02-3.38Q-4.86-3.56-4.59-3.66Q-4.31-3.77-3.98-3.80Q-3.64-3.84-3.30-3.84L-3.30-3.84Q-2.94-3.84-2.63-3.82Q-2.31-3.80-2.09-3.80L-2.09-3.80L-1.97-3.80Q-1.50-3.80-1.02-3.82Q-0.55-3.84 0.72-3.97L0.72-3.97Q1.08-6.41 2.14-10.23Q3.20-14.06 3.80-15.91Q4.39-17.75 5.02-19.81L5.02-19.81Q4.63-19.69 4.23-19.62Q3.84-19.55 3.45-19.42L3.45-19.42Q2-19 0.73-18.25Q-0.55-17.50-1.58-16.41L-1.58-16.41Q-1.80-16.17-1.99-15.92Q-2.19-15.67-2.41-15.42L-2.41-15.42Q-2.52-15.30-2.67-15.26Q-2.83-15.22-2.98-15.22L-2.98-15.22Q-3.44-15.22-3.81-15.39Q-4.19-15.56-4.46-15.86Q-4.73-16.16-4.88-16.55Q-5.03-16.94-5.03-17.38L-5.03-17.38Q-5.03-17.91-4.87-18.45Q-4.70-19-4.45-19.45L-4.45-19.45Q-3.98-20.38-3.27-20.98Q-2.56-21.59-1.71-21.96Q-0.86-22.33 0.10-22.51Q1.06-22.69 2.05-22.77Q3.05-22.86 4.02-22.88Q5-22.91 5.88-22.97L5.88-22.97Q5.97-23.16 6.01-23.35Q6.05-23.55 6.13-23.75L6.13-23.75Q6.34-24.33 6.75-24.70Q7.16-25.08 7.81-25.08L7.81-25.08Q8.23-25.08 8.55-24.89Q8.86-24.70 9.16-24.44L9.16-24.44Q9.58-24.30 9.84-24.03Q10.09-23.77 10.05-23.30ZM11.38-9.59L11.38-9.59Q11.38-10.23 10.95-10.73Q10.53-11.23 9.94-11.57Q9.34-11.91 8.70-12.08Q8.06-12.25 7.61-12.25L7.61-12.25Q7.11-12.25 6.77-12.16Q6.42-12.06 6.22-11.59L6.22-11.59Q6-11.14 5.87-10.66Q5.73-10.19 5.58-9.72L5.58-9.72Q5.22-8.64 4.88-7.57Q4.55-6.50 4.16-5.44L4.16-5.44Q4.08-5.23 4.01-5.05Q3.94-4.86 3.89-4.66L3.89-4.66Q4.39-4.73 5.14-4.96Q5.89-5.19 6.73-5.53Q7.56-5.88 8.39-6.32Q9.22-6.77 9.88-7.29Q10.55-7.81 10.96-8.39Q11.38-8.97 11.38-9.59ZM9.39-20.16L9.25-20.16Q9.09-20.16 9.03-20.14L9.03-20.14Q8.81-19.48 8.59-18.84Q8.38-18.20 8.17-17.55L8.17-17.55Q8.36-17.63 8.69-17.77Q9.02-17.92 9.41-18.12Q9.80-18.31 10.21-18.53Q10.63-18.75 10.98-18.98Q11.33-19.20 11.57-19.42Q11.81-19.64 11.86-19.81L11.86-19.81Q11.33-20.08 10.66-20.12Q9.98-20.16 9.39-20.16L9.39-20.16ZM21.13-21.95L21.13-21.95Q21.20-22.25 21.29-22.54Q21.38-22.83 21.53-23.05Q21.69-23.28 21.92-23.42Q22.16-23.56 22.53-23.56L22.53-23.56Q22.80-23.56 23.16-23.39Q23.53-23.22 23.87-22.95Q24.20-22.69 24.45-22.38Q24.69-22.06 24.69-21.78L24.69-21.78Q24.69-21.48 24.59-21.20Q24.48-20.92 24.39-20.66L24.39-20.66Q24.13-19.84 23.88-19.02Q23.64-18.20 23.39-17.38L23.39-17.38Q22.64-14.94 21.41-10.51Q20.17-6.08 21.02-6.21Q21.86-6.34 23.23-7.90Q24.61-9.45 25.05-9.92L25.05-9.92Q25.22-10.09 25.38-10.09L25.38-10.09Q25.52-10.09 25.62-9.97Q25.72-9.84 25.77-9.64Q25.83-9.44 25.83-9.16Q25.83-8.89 25.75-8.59L25.75-8.59Q25.75-8.42 25.45-7.98Q25.16-7.53 24.40-6.70Q23.64-5.88 23-5.27Q22.36-4.67 21.06-3.64L21.06-3.64Q19.48-2.72 18.20-4.02Q16.92-5.33 18.58-11.84Q20.23-18.34 21.13-21.95ZM31.88-15.16L31.88-15.16Q32.09-15.33 32.34-15.41Q32.59-15.48 32.86-15.48L32.86-15.48Q33.39-15.48 33.81-15.19Q34.23-14.89 34.23-14.33L34.23-14.33Q34.23-14.02 34.12-13.50Q34-12.98 33.81-12.36Q33.63-11.73 33.39-11.06Q33.16-10.39 32.94-9.76Q32.72-9.13 32.52-8.59Q32.33-8.05 32.22-7.70L32.22-7.70Q32.05-6.28 33.33-7.16Q34.61-8.03 35.14-8.91Q35.67-9.80 35.82-9.94Q35.97-10.08 36.22-10.08L36.22-10.08Q36.52-10.08 36.77-9.77Q37.03-9.45 36.77-8.92Q36.52-8.39 36.44-8.28L36.44-8.28Q34.19-4.56 32.58-4.34Q30.97-4.11 30.19-5.67L30.19-5.67Q28.83-4.58 28.23-4.40Q27.63-4.22 26.98-4.22L26.98-4.22Q26.08-4.22 25.50-4.58Q24.92-4.94 24.59-5.52Q24.27-6.11 24.14-6.84Q24.02-7.58 24.02-8.33L24.02-8.33Q24.02-9.69 24.53-10.95Q25.05-12.20 25.94-13.17Q26.83-14.14 28.04-14.72Q29.25-15.30 30.64-15.30L30.64-15.30Q30.95-15.30 31.26-15.26Q31.56-15.22 31.88-15.16ZM29.32-12.24Q28.11-11.47 27.49-10.09Q26.88-8.70 27.11-7.77Q27.34-6.83 28.77-8.44Q30.20-10.05 30.48-11.15Q30.75-12.25 30.64-12.63Q30.53-13.02 29.32-12.24ZM40.88-11.11L40.88-11.11Q40.88-11.28 40.94-11.45Q41-11.61 41.09-11.77Q41.17-11.92 41.27-12.08Q41.36-12.23 41.42-12.39L41.42-12.39Q40.73-12.05 40.16-11.48Q39.58-10.92 39.16-10.24Q38.75-9.56 38.52-8.79Q38.28-8.02 38.28-7.25L38.28-7.25Q38.28-7.17 38.30-6.98Q38.31-6.80 38.36-6.61Q38.41-6.42 38.48-6.27Q38.56-6.13 38.67-6.13L38.67-6.13Q39.20-6.13 39.95-6.46Q40.69-6.80 41.46-7.29Q42.23-7.78 42.94-8.33Q43.64-8.88 44.08-9.30L44.08-9.30Q44.23-9.44 44.36-9.59Q44.48-9.75 44.64-9.89L44.64-9.89Q44.77-10.02 44.90-10.04Q45.03-10.06 45.19-10.06L45.19-10.06Q45.45-10.06 45.70-9.88Q45.94-9.70 45.94-9.42L45.94-9.42Q45.94-9.13 45.76-8.74Q45.58-8.36 45.44-8.09L45.44-8.09Q45.02-7.31 44.32-6.55Q43.63-5.80 42.78-5.20Q41.94-4.59 41-4.22Q40.06-3.84 39.14-3.84L39.14-3.84Q38.28-3.84 37.52-4.14Q36.75-4.44 36.17-4.97Q35.59-5.50 35.26-6.24Q34.92-6.98 34.92-7.86L34.92-7.86Q34.92-8.75 35.17-9.62Q35.42-10.48 35.87-11.28Q36.31-12.08 36.93-12.76Q37.55-13.44 38.30-13.95Q39.05-14.45 39.91-14.73Q40.77-15.02 41.67-15.02L41.67-15.02Q42.17-15.02 42.63-14.86Q43.09-14.70 43.45-14.41Q43.80-14.13 44-13.70Q44.20-13.28 44.20-12.75L44.20-12.75Q44.20-12.30 44.02-11.87Q43.83-11.44 43.51-11.09Q43.19-10.75 42.77-10.55Q42.34-10.34 41.88-10.34L41.88-10.34Q41.53-10.34 41.20-10.53Q40.88-10.72 40.88-11.11ZM48.81-22.94L48.81-22.94Q49.11-22.94 49.50-22.75Q49.89-22.56 50.24-22.28Q50.59-22 50.84-21.66Q51.09-21.31 51.09-21L51.09-21Q51.09-20.78 50.94-20.24Q50.78-19.70 50.55-18.99Q50.31-18.28 50.02-17.48Q49.72-16.67 49.45-15.93Q49.17-15.19 48.95-14.59Q48.72-13.98 48.61-13.67L48.61-13.67Q48.89-13.86 49.35-14.22Q49.81-14.58 50.32-14.92Q50.83-15.27 51.31-15.52Q51.80-15.78 52.11-15.78L52.11-15.78Q52.61-15.78 52.74-15.52Q52.88-15.25 52.88-14.80L52.88-14.80Q52.88-14.23 52.60-13.82Q52.33-13.41 51.89-13.09Q51.45-12.77 50.40-12.06Q49.34-11.36 48.82-10.93Q48.30-10.50 48.26-10.20Q48.22-9.89 48.35-9.48Q48.48-9.08 48.66-8.64Q48.84-8.20 49.04-7.85Q49.23-7.50 49.45-7.27Q49.66-7.05 49.84-7.05L49.84-7.05Q50.23-7.05 50.56-7.24Q50.89-7.44 51.16-7.73Q51.44-8.02 51.87-8.59Q52.30-9.16 52.54-9.45Q52.78-9.73 53.05-9.93Q53.31-10.13 53.61-10.13L53.61-10.13Q53.73-10.13 53.89-10.08Q54.05-10.03 54.18-9.94Q54.31-9.84 54.40-9.72Q54.48-9.59 54.48-9.45L54.48-9.45Q54.48-9.34 54.44-9.20Q54.39-9.05 54.33-8.90Q54.27-8.75 54.20-8.61Q54.13-8.47 54.08-8.38L54.08-8.38Q53.80-7.83 53.13-6.98Q52.45-6.13 51.83-5.60Q51.20-5.08 50.52-4.73Q49.83-4.38 49.17-4.38L49.17-4.38Q48.69-4.38 48.31-4.61Q47.94-4.84 47.65-5.20Q47.36-5.55 47.13-5.96Q46.89-6.38 46.70-6.75L46.70-6.75Q46.58-6.33 46.43-5.79Q46.28-5.25 46.12-4.69Q45.95-4.13 45.77-3.61Q45.59-3.09 45.42-2.72L45.42-2.72Q45.30-2.44 45.03-2.30Q44.77-2.17 44.47-2.17L44.47-2.17Q44.09-2.17 43.84-2.38Q43.59-2.58 43.45-2.88Q43.30-3.17 43.24-3.52Q43.19-3.88 43.19-4.17L43.19-4.17Q43.19-4.48 43.26-4.98Q43.33-5.47 43.45-6.05Q43.58-6.63 43.72-7.25Q43.86-7.88 44.02-8.46Q44.17-9.05 44.30-9.55Q44.44-10.06 44.53-10.39L44.53-10.39Q45.31-13.09 46-15.78Q46.69-18.47 47.36-21.19L47.36-21.19Q47.44-21.50 47.52-21.81Q47.61-22.13 47.77-22.38Q47.92-22.63 48.17-22.78Q48.42-22.94 48.81-22.94ZM72.45-12.91L72.45-12.91Q71.89-13.11 71.31-13.24Q70.73-13.38 70.16-13.55L70.16-13.55Q69.36-13.77 68.41-14.16Q67.45-14.55 66.64-15.12Q65.83-15.69 65.28-16.45Q64.73-17.22 64.73-18.20L64.73-18.20Q64.73-19.11 65.17-19.82Q65.61-20.53 66.31-21.08Q67.02-21.63 67.92-22.01Q68.83-22.39 69.77-22.63Q70.72-22.88 71.61-22.99Q72.50-23.11 73.20-23.11L73.20-23.11L73.63-23.11Q74.09-23.11 74.68-23.05Q75.27-23 75.88-22.87Q76.50-22.73 77.09-22.51Q77.69-22.28 78.16-21.95Q78.63-21.61 78.91-21.14Q79.19-20.67 79.19-20.06L79.19-20.06Q79.19-19.52 78.95-19.02Q78.72-18.52 78.35-18.09Q77.98-17.66 77.54-17.29Q77.09-16.92 76.67-16.64L76.67-16.64Q76.27-16.36 75.83-16.09Q75.39-15.81 74.88-15.81L74.88-15.81Q74.56-15.81 74.35-15.92Q74.14-16.03 73.99-16.20Q73.84-16.38 73.74-16.60Q73.64-16.83 73.55-17.08L73.55-17.08Q73.48-17.25 73.43-17.37Q73.38-17.48 73.38-17.67L73.38-17.67Q73.38-17.86 73.69-18.05Q74-18.23 74.45-18.45Q74.91-18.66 75.41-18.90Q75.92-19.14 76.30-19.42Q76.67-19.70 76.84-20.03Q77-20.36 76.77-20.61Q76.53-20.86 76.19-20.91Q75.84-20.95 75.44-20.95L75.44-20.95Q74.61-20.95 73.59-20.77Q72.58-20.59 71.62-20.31Q70.66-20.03 69.86-19.69Q69.06-19.34 68.69-19.02L68.69-19.02Q68.55-18.89 68.35-18.66Q68.16-18.44 68.16-18.22L68.16-18.22Q68.16-17.91 68.48-17.61Q68.80-17.31 69.23-17.08Q69.67-16.84 70.13-16.67Q70.58-16.50 70.83-16.42L70.83-16.42Q71.39-16.25 71.96-16.10Q72.53-15.95 73.09-15.79Q73.66-15.63 74.21-15.44Q74.77-15.25 75.30-14.98L75.30-14.98Q76.23-14.53 77.09-13.94Q77.95-13.34 78.60-12.59Q79.25-11.83 79.64-10.90Q80.03-9.97 80.03-8.84L80.03-8.84Q80.03-7.47 79.41-5.98Q78.80-4.50 77.66-3.09Q76.53-1.67 74.95-0.41Q73.38 0.86 71.45 1.81Q69.53 2.77 67.32 3.32Q65.11 3.88 62.73 3.88L62.73 3.88Q62.48 3.88 62.24 3.87Q62 3.86 61.75 3.84L61.75 3.84Q59.78 3.75 58.26 2.97Q56.73 2.19 55.74 0.98Q54.75-0.23 54.34-1.74Q53.92-3.25 54.19-4.82Q54.45-6.39 55.45-7.90Q56.44-9.41 58.23-10.59L58.23-10.59Q59-11.11 60.02-11.48Q61.05-11.84 62.15-12.09Q63.25-12.33 64.35-12.45Q65.45-12.56 66.38-12.56L66.38-12.56Q67.06-12.56 67.87-12.51Q68.67-12.45 69.46-12.28Q70.25-12.11 70.94-11.79Q71.63-11.47 72.09-10.95L72.09-10.95Q72.27-10.78 72.42-10.54Q72.58-10.30 72.58-10.03L72.58-10.03Q72.58-9.84 72.48-9.72Q72.38-9.59 72.23-9.51Q72.08-9.42 71.90-9.39Q71.72-9.36 71.56-9.36L71.56-9.36Q70.84-9.36 70.11-9.60Q69.38-9.84 68.69-10.02L68.69-10.02Q67.66-10.30 66.56-10.30L66.56-10.30Q65.44-10.30 64.44-9.92Q63.44-9.55 62.70-8.87Q61.95-8.19 61.52-7.23Q61.08-6.28 61.08-5.13L61.08-5.13Q61.08-4.58 61.16-4.13Q61.23-3.69 61.44-3.33Q61.64-2.97 61.98-2.70Q62.31-2.42 62.84-2.20L62.84-2.20Q63.41-1.98 63.98-1.91Q64.56-1.83 65.17-1.83L65.17-1.83Q66.08-1.83 67.28-2.05Q68.48-2.28 69.76-2.72Q71.03-3.16 72.27-3.78Q73.50-4.41 74.47-5.20Q75.44-5.98 76.03-6.93Q76.63-7.88 76.63-8.94L76.63-8.94Q76.63-9.73 76.22-10.38Q75.81-11.02 75.20-11.50Q74.58-11.98 73.84-12.34Q73.11-12.69 72.45-12.91ZM83.55-3.44L83.55-3.44Q82.69-3.44 82-4.24Q81.31-5.05 81.27-6.52Q81.22-7.98 81.89-10.77Q82.56-13.56 83.53-15.75L83.53-15.75Q83.22-15.72 82.97-15.68Q82.72-15.64 82.52-15.64L82.52-15.64Q81.81-15.83 81.86-16.29Q81.91-16.75 82.02-16.95Q82.13-17.16 82.30-17.31Q82.47-17.47 82.67-17.58Q82.88-17.69 84.56-17.84L84.56-17.84Q85.36-19.56 85.83-20.02Q86.30-20.48 87.07-20.66Q87.84-20.83 88.34-20.36Q88.84-19.89 87.97-18.13L87.97-18.13Q89.06-18.19 89.68-18.23Q90.30-18.28 91.17-18.36L91.17-18.36Q91.78-18.14 91.49-17.27Q91.20-16.39 90.97-16.23Q90.73-16.08 90.10-16.03Q89.47-15.98 88.87-15.95Q88.27-15.92 87.76-15.91Q87.25-15.89 87.05-15.78Q86.86-15.67 86.48-14.89Q86.11-14.11 86.03-13.92L86.03-13.92Q85.88-13.45 85.63-12.79Q85.38-12.13 85.10-11.38Q84.83-10.63 84.57-9.84Q84.31-9.06 84.13-8.34Q83.95-7.63 83.90-7.03Q83.84-6.44 83.97-6.06L83.97-6.06Q84.06-5.88 84.20-5.88L84.20-5.88Q84.39-5.88 84.65-6.11Q84.91-6.34 85.20-6.70Q85.48-7.05 85.79-7.45Q86.09-7.86 86.84-8.80Q87.58-9.73 87.80-9.95Q88.02-10.17 88.14-10.16L88.14-10.16Q88.41-10.16 88.65-9.99Q88.89-9.83 88.89-9.53L88.89-9.53Q88.89-9.27 88.75-8.91Q88.61-8.55 88.48-8.30L88.48-8.30Q88.23-7.80 87.34-6.56Q86.45-5.33 85.92-4.77Q85.39-4.20 84.78-3.82Q84.17-3.44 83.55-3.44ZM92.42-12.56L92.42-12.56Q92-12.48 91.59-12.41Q91.17-12.33 90.77-12.22L90.77-12.22Q90.48-11.70 90.22-10.72Q89.95-9.73 89.27-8.34Q88.58-6.94 87.95-5.99Q87.33-5.05 86.84-4.59Q86.36-4.13 85.78-4.13L85.78-4.13Q85.66-4.13 85.48-4.16Q85.31-4.20 85.15-4.28Q84.98-4.36 84.87-4.48Q84.75-4.59 84.75-4.73L84.75-4.73Q84.75-4.78 84.96-5.16Q85.17-5.53 85.49-6.12Q85.81-6.70 86.98-8.91Q88.14-11.13 88.14-11.73L88.14-11.73Q88.14-12.05 88.09-12.38Q88.05-12.70 88.05-13.03L88.05-13.03Q88.05-13.16 88.13-13.35Q88.20-13.55 88.31-13.74Q88.42-13.94 88.55-14.12Q88.69-14.30 88.80-14.38L88.80-14.38L88.83-14.39Q89.03-14.53 89.41-14.59Q89.78-14.66 90.25-14.73Q90.72-14.81 91.25-14.95Q91.78-15.08 92.32-15.35Q92.86-15.63 93.36-16.08Q93.86-16.53 94.25-17.25L94.25-17.25Q94.47-17.66 94.83-17.77Q95.19-17.88 95.75-17.88L95.75-17.88Q96.20-17.88 96.50-17.69Q96.80-17.50 97.16-17.28L97.16-17.28Q97.38-17.16 97.46-17.08Q97.55-17 97.55-16.73L97.55-16.73Q97.55-16.59 97.44-16.27Q97.33-15.94 97.16-15.52Q97-15.09 96.80-14.63Q96.59-14.17 96.41-13.75Q96.23-13.33 96.09-13.01Q95.94-12.69 95.88-12.56L95.88-12.56Q95.56-11.88 95.22-11.15Q94.88-10.42 94.55-9.73Q94.23-9.03 93.98-8.42Q93.72-7.81 93.44-6.98Q93.16-6.16 93.34-5.88Q93.53-5.61 97.02-9.77L97.02-9.77Q97.16-9.94 97.35-10.02Q97.55-10.09 97.77-10.09L97.77-10.09Q98.11-10.09 98.39-9.88Q98.67-9.66 98.67-9.23L98.67-9.23Q98.67-8.98 98.39-8.54Q98.11-8.09 97.25-7.09Q96.39-6.09 95.23-4.69Q94.08-3.28 93.23-2.84Q92.39-2.39 91.66-2.45Q90.94-2.52 90.57-3.44Q90.20-4.36 90.34-6.02Q90.47-7.69 91.23-9.80Q92-11.92 92.42-12.56ZM96.63-8.48L96.63-8.48Q96.63-9.14 96.90-10.60Q97.17-12.06 98.59-13.52Q100-14.98 101.70-15.19Q103.39-15.39 104.42-14.75Q105.45-14.11 105.36-12.72Q105.27-11.33 104.44-10.45Q103.61-9.56 102.51-9.21Q101.41-8.86 100.14-8.69L100.14-8.69Q100.06-8.61 99.90-8.09Q99.73-7.58 99.94-6.82Q100.14-6.06 101.22-6.22Q102.30-6.38 103.41-7.03Q104.53-7.69 105.30-8.91L105.30-8.91Q105.50-9.16 105.66-9.38Q105.83-9.59 106.01-9.77Q106.19-9.95 106.43-10.06Q106.67-10.17 107.02-10.13Q107.38-10.08 107.49-9.91Q107.61-9.75 107.59-9.55Q107.58-9.34 107.47-9.13Q107.36-8.91 107.23-8.64L107.23-8.64Q106.86-7.84 106.27-7.02Q105.69-6.20 104.87-5.53Q104.05-4.86 102.98-4.43Q101.92-4 100.59-4L100.59-4Q99.59-4 98.84-4.34Q98.09-4.69 97.60-5.30Q97.11-5.91 96.87-6.73Q96.63-7.55 96.63-8.48ZM103.11-13.16L103.11-13.16Q102.80-12.95 102.44-12.66Q102.08-12.38 101.74-12.05Q101.41-11.73 101.12-11.38Q100.83-11.03 100.59-10.72L100.59-10.72Q100.78-10.59 101.09-10.59L101.09-10.59Q101.41-10.59 101.79-10.77Q102.17-10.94 102.48-11.26Q102.78-11.58 102.97-12.06Q103.16-12.55 103.11-13.16ZM105.66-8.48L105.66-8.48Q105.66-9.14 105.93-10.60Q106.20-12.06 107.62-13.52Q109.03-14.98 110.73-15.19Q112.42-15.39 113.45-14.75Q114.48-14.11 114.39-12.72Q114.30-11.33 113.47-10.45Q112.64-9.56 111.54-9.21Q110.44-8.86 109.17-8.69L109.17-8.69Q109.09-8.61 108.93-8.09Q108.77-7.58 108.97-6.82Q109.17-6.06 110.25-6.22Q111.33-6.38 112.45-7.03Q113.56-7.69 114.33-8.91L114.33-8.91Q114.53-9.16 114.70-9.38Q114.86-9.59 115.04-9.77Q115.22-9.95 115.46-10.06Q115.70-10.17 116.05-10.13Q116.41-10.08 116.52-9.91Q116.64-9.75 116.63-9.55Q116.61-9.34 116.50-9.13Q116.39-8.91 116.27-8.64L116.27-8.64Q115.89-7.84 115.30-7.02Q114.72-6.20 113.90-5.53Q113.08-4.86 112.02-4.43Q110.95-4 109.63-4L109.63-4Q108.63-4 107.88-4.34Q107.13-4.69 106.63-5.30Q106.14-5.91 105.90-6.73Q105.66-7.55 105.66-8.48ZM112.14-13.16L112.14-13.16Q111.83-12.95 111.47-12.66Q111.11-12.38 110.77-12.05Q110.44-11.73 110.15-11.38Q109.86-11.03 109.63-10.72L109.63-10.72Q109.81-10.59 110.13-10.59L110.13-10.59Q110.44-10.59 110.82-10.77Q111.20-10.94 111.51-11.26Q111.81-11.58 112-12.06Q112.19-12.55 112.14-13.16ZM116.73-3.44L116.73-3.44Q115.88-3.44 115.19-4.24Q114.50-5.05 114.45-6.52Q114.41-7.98 115.08-10.77Q115.75-13.56 116.72-15.75L116.72-15.75Q116.41-15.72 116.16-15.68Q115.91-15.64 115.70-15.64L115.70-15.64Q115-15.83 115.05-16.29Q115.09-16.75 115.20-16.95Q115.31-17.16 115.48-17.31Q115.66-17.47 115.86-17.58Q116.06-17.69 117.75-17.84L117.75-17.84Q118.55-19.56 119.02-20.02Q119.48-20.48 120.26-20.66Q121.03-20.83 121.53-20.36Q122.03-19.89 121.16-18.13L121.16-18.13Q122.25-18.19 122.87-18.23Q123.48-18.28 124.36-18.36L124.36-18.36Q124.97-18.14 124.68-17.27Q124.39-16.39 124.16-16.23Q123.92-16.08 123.29-16.03Q122.66-15.98 122.05-15.95Q121.45-15.92 120.95-15.91Q120.44-15.89 120.24-15.78Q120.05-15.67 119.67-14.89Q119.30-14.11 119.22-13.92L119.22-13.92Q119.06-13.45 118.81-12.79Q118.56-12.13 118.29-11.38Q118.02-10.63 117.76-9.84Q117.50-9.06 117.32-8.34Q117.14-7.63 117.09-7.03Q117.03-6.44 117.16-6.06L117.16-6.06Q117.25-5.88 117.39-5.88L117.39-5.88Q117.58-5.88 117.84-6.11Q118.09-6.34 118.38-6.70Q118.67-7.05 118.98-7.45Q119.28-7.86 120.02-8.80Q120.77-9.73 120.98-9.95Q121.20-10.17 121.33-10.16L121.33-10.16Q121.59-10.16 121.84-9.99Q122.08-9.83 122.08-9.53L122.08-9.53Q122.08-9.27 121.94-8.91Q121.80-8.55 121.67-8.30L121.67-8.30Q121.42-7.80 120.53-6.56Q119.64-5.33 119.11-4.77Q118.58-4.20 117.97-3.82Q117.36-3.44 116.73-3.44Z"/></svg>