<svg id="mainsvg" xmlns="http://www.w3.org/2000/svg" xmlns:xlink="http://www.w3.org/1999/xlink" version="1.1" x="0px" y="0px" enable-background="new 0 0 200 162.5" xml:space="preserve" viewBox="0 0 70 25"><path fill="#000" transform="translate(-0.875, 24.46875)" d="M6.30-24.17L6.30-24.17Q6.61-24.17 6.91-24L6.91-24Q7.52-23.63 7.55-22.95L7.55-22.95Q6.91-17.91 6.55-14.98L6.55-14.98Q5.64-7.77 5.64-6.80L5.64-6.80Q5.64-2.86 7.67-2.84L7.67-2.84Q11.42-2.86 14.36-6.39L14.36-6.39Q16.83-9.38 18.17-14.05L18.17-14.05Q15.33-14.17 13.61-15.55L13.61-15.55Q11.61-17.16 11.61-20L11.61-20Q11.63-21.95 13.17-23.31L13.17-23.31Q14.53-24.47 16.20-24.47L16.20-24.47Q18.38-24.47 19.83-23.06L19.83-23.06Q21.47-21.45 21.47-18.78L21.47-18.78Q21.47-18.17 21.36-16.81L21.36-16.81Q21.70-16.89 22.05-17.02L22.05-17.02Q22.89-17.30 24.14-18.08L24.14-18.08Q25.03-18.64 25.61-18.64L25.61-18.64Q25.84-18.64 26.09-18.50L26.09-18.50Q26.67-18.17 26.67-17.48L26.67-17.48Q26.66-16.52 25.13-15.61L25.13-15.61Q23.31-14.55 20.78-14.20L20.78-14.20Q20.78-14.19 20.77-14.17L20.77-14.17Q19.33-8.73 16.44-5.02L16.44-5.02Q12.53 0.05 7.17 0.05L7.17 0.05Q6.42 0.05 5.80-0.19L5.80-0.19Q3.11-1.22 3.11-6.50L3.11-6.50Q3.11-9.36 3.81-13.92L3.81-13.92Q4.53-18.56 4.67-20.30L4.67-20.30Q3.13-19.31 2.22-18.77L2.22-18.77Q0.69-17.83 0.41-17.83L0.41-17.83Q0.05-17.83-0.28-18.03L-0.28-18.03Q-0.88-18.42-0.88-19.09L-0.88-19.09Q-0.86-19.78-0.13-20.27L-0.13-20.27Q-0.08-20.30 0-20.34L0-20.34Q5.41-23.95 6.30-24.17ZM14.14-19.61L14.14-19.61Q14.14-18.84 14.48-18.23L14.48-18.23Q15.45-16.52 18.75-16.52L18.75-16.52Q19-17.84 19-18.86L19-18.86Q19-19.56 18.80-20.19L18.80-20.19Q18.23-21.83 16.63-21.83L16.63-21.83Q15.84-21.83 15.20-21.45L15.20-21.45Q14.14-20.81 14.14-19.61ZM26.05-12.11L26.05-12.11Q26.05-11.66 25.89-10.16L25.89-10.16Q25.41-5.72 25.41-4.64L25.41-4.64Q25.41-3.92 25.70-3.30L25.70-3.30Q26.14-2.36 26.88-2.36L26.88-2.36Q27.03-2.36 27.20-2.39L27.20-2.39Q27.66-2.50 28.52-3.13L28.52-3.13Q29.36-3.75 29.88-3.75L29.88-3.75Q30.09-3.75 30.31-3.59L30.31-3.59Q30.75-3.28 30.75-2.77L30.75-2.77Q30.69-1.97 29.52-1.08L29.52-1.08Q28.08-0.08 26.50-0.08L26.50-0.08Q25.17-0.08 24.30-1L24.30-1Q22.98-2.41 22.98-5.47L22.98-5.47Q22.98-6.52 23.41-9.56L23.41-9.56Q23.59-10.98 23.67-11.66L23.67-11.66Q23.69-11.80 23.70-11.94L23.70-11.94Q23.95-13.50 24.98-13.50L24.98-13.50Q25.16-13.50 25.33-13.47L25.33-13.47Q26.05-13.30 26.05-12.11ZM24.27-16.20L24.27-16.20Q24.27-16.48 24.39-16.73L24.39-16.73Q24.70-17.34 25.41-17.34L25.41-17.34Q25.69-17.34 25.94-17.22L25.94-17.22Q26.55-16.91 26.55-16.20L26.55-16.20Q26.55-15.92 26.42-15.67L26.42-15.67Q26.11-15.06 25.41-15.06L25.41-15.06Q25.13-15.06 24.88-15.19L24.88-15.19Q24.27-15.50 24.27-16.20ZM34.95-23.91L34.95-23.91Q35.11-23.91 35.28-23.89L35.28-23.89Q37.98-23.72 37.98-20.75L37.98-20.75Q37.98-17.56 35.27-13.66L35.27-13.66Q33.48-11.11 31.50-9.48L31.50-9.48Q31.63-8.48 31.81-7.63L31.81-7.63Q32.92-2.31 35.80-2.31L35.80-2.31Q36.91-2.31 37.91-2.95L37.91-2.95Q39.72-4.13 40.80-7.02L40.80-7.02Q40.03-7.13 39.39-7.47L39.39-7.47Q37.73-8.38 37.73-10.41L37.73-10.41Q37.73-11.44 38.48-12.20L38.48-12.20Q39.33-13.06 40.47-13.06L40.47-13.06Q41.59-13.06 42.41-12.44L42.41-12.44Q43.50-11.58 43.50-10.06L43.50-10.06Q43.48-9.44 43.48-9.42L43.48-9.42Q43.75-9.55 44.14-9.78L44.14-9.78Q44.75-10.17 45.16-10.17L45.16-10.17Q45.38-10.17 45.59-10.05L45.59-10.05Q46.11-9.77 46.11-9.16L46.11-9.16Q46.11-8.80 45.84-8.47L45.84-8.47Q45.13-7.58 43.05-7.14L43.05-7.14Q42.34-4.59 40.83-2.69L40.83-2.69Q38.69 0 35.98 0L35.98 0Q32.11-0.02 30.31-4.83L30.31-4.83Q29.08-8.17 29.08-12.78L29.08-12.78Q29.08-13.05 29.11-13.45L29.11-13.45Q29.33-16.73 30.34-19.48L30.34-19.48Q31.98-23.91 34.95-23.91ZM31.61-14.77L31.61-14.77Q31.44-13.50 31.39-12.33L31.39-12.33Q32.38-13.31 33.38-14.70L33.38-14.70Q35.86-18.16 35.86-20.56L35.86-20.56Q35.86-20.69 35.80-20.86L35.80-20.86Q35.55-21.55 34.98-21.55L34.98-21.55Q33.72-21.53 32.86-19.86L32.86-19.86Q32.08-18.30 31.61-14.77ZM40.69-10.89L40.69-10.89Q40.53-10.89 40.36-10.83L40.36-10.83Q39.86-10.64 39.86-10.14L39.86-10.14Q39.88-9.25 41.36-9.11L41.36-9.11Q41.36-9.22 41.38-9.44L41.38-9.44Q41.41-9.77 41.41-9.91L41.41-9.91Q41.41-9.98 41.39-10.08L41.39-10.08Q41.31-10.89 40.69-10.89ZM61.44-2.52L61.44-2.52Q61.03-3.75 61.03-5.70L61.03-5.70Q61.03-7.19 61.33-9.25L61.33-9.25Q60.80-8.98 60.16-8.86L60.16-8.86Q59.97-7.91 59.67-6.92L59.67-6.92Q58.61-3.33 57.05-1.45L57.05-1.45Q56.78-1.14 56.41-0.84L56.41-0.84Q55.08 0.19 53.61 0.19L53.61 0.19Q51.67 0.17 50.84-1.58L50.84-1.58Q49.47 0.13 47.06 0.14L47.06 0.14Q46.52 0.14 46.03 0L46.03 0Q43.28-0.81 43.28-6.03L43.28-6.03Q43.28-6.13 43.28-6.23L43.28-6.23Q43.31-8.77 43.83-11.05L43.83-11.05Q44.28-13.03 45.36-13.05L45.36-13.05Q46.38-13.03 46.41-11.81L46.41-11.81Q46.41-11.58 46.27-10.75L46.27-10.75Q45.72-7.20 45.72-5.64L45.72-5.64Q45.72-2.39 47.36-2.36L47.36-2.36Q49.56-2.52 50.34-8.13L50.34-8.13Q50.55-9.64 50.64-11.53L50.64-11.53Q50.66-11.69 50.66-11.72L50.66-11.72Q50.78-12.95 51.86-12.97L51.86-12.97Q51.97-12.97 52.08-12.95L52.08-12.95Q52.86-12.80 52.86-11.70L52.86-11.70Q52.47-7.67 52.47-4.81L52.47-4.81Q52.47-4.41 52.53-3.98L52.53-3.98Q52.78-2.13 53.89-2.13L53.89-2.13Q55.13-2.13 56.19-4L56.19-4Q57.02-5.45 58.03-8.92L58.03-8.92Q57.53-9.06 57.09-9.30L57.09-9.30Q55.47-10.22 55.47-12.22L55.47-12.22Q55.47-12.88 55.80-13.47L55.80-13.47Q56.48-14.66 57.98-14.66L57.98-14.66Q58.75-14.66 59.44-14.25L59.44-14.25Q60.56-13.56 60.56-12.33L60.56-12.33Q60.56-11.83 60.48-11.05L60.48-11.05Q61.09-11.36 62.13-12.11L62.13-12.11Q62.42-12.31 62.83-12.33L62.83-12.33Q63.45-12.31 63.91-11.92L63.91-11.92Q64.16-11.72 64.17-11.50L64.17-11.50Q64.17-11.33 64.06-11L64.06-11Q63.25-8.25 63.25-6.27L63.25-6.27Q63.25-5.02 63.52-3.88L63.52-3.88Q63.52-3.84 63.53-3.80L63.53-3.80Q63.89-2.50 64.84-2.50L64.84-2.50Q65.31-2.55 66.41-3.19L66.41-3.19Q67.38-3.83 67.84-3.83L67.84-3.83Q68.08-3.83 68.31-3.66L68.31-3.66Q68.72-3.36 68.72-2.95L68.72-2.95Q68.66-2.08 67.48-1.16L67.48-1.16Q66.09-0.16 64.52-0.16L64.52-0.16Q64.16-0.16 63.80-0.23L63.80-0.23Q62.13-0.61 61.44-2.52ZM57.34-12.11L57.34-12.11Q57.36-11.23 58.44-10.86L58.44-10.86Q58.59-11.69 58.59-12.11L58.59-12.11Q58.59-12.20 58.56-12.31L58.56-12.31Q58.45-12.73 57.98-12.73L57.98-12.73Q57.91-12.73 57.80-12.70L57.80-12.70Q57.34-12.58 57.34-12.11Z"/></svg>