<svg id="mainsvg" xmlns="http://www.w3.org/2000/svg" xmlns:xlink="http://www.w3.org/1999/xlink" version="1.1" x="0px" y="0px" enable-background="new 0 0 200 162.5" xml:space="preserve" viewBox="0 0 199 24"><path fill="#000" transform="translate(0, 22.88)" d="M0-7.10L0-5.02C0-3.10 0.99-1.44 2.56-0.64C4.64 0.61 7.36 0.13 8.93-1.70L21.02-14.02C26.11-19.20 18.82-25.98 13.70-21.12ZM5.06-22.88C2.50-22.88 0-21.09 0-18.30L0-8.29L9.98-18.56C9.73-21.41 7.68-22.88 5.06-22.88ZM45.86-15.62L45.86-17.70C45.86-19.62 44.86-21.28 43.30-22.08C41.22-23.33 38.50-22.85 36.93-21.02L24.77-8.70C19.68-3.52 27.04 3.26 32.16-1.60ZM40.80 0.16C43.36 0.16 45.86-1.63 45.86-4.42L45.86-14.43L35.87-4.16C36.13-1.31 38.18 0.16 40.80 0.16ZM57.02-17.70C57.02-20.48 54.75-22.78 51.90-22.78C49.09-22.78 46.82-20.48 46.82-17.70L46.82-5.18C46.78-3.87 47.17-2.72 47.94-1.82L56.96-10.85ZM52 0L58.08 0C64.74 0 64.74-10.24 58.08-10.24L57.63-10.24L48.58-1.18C49.47-0.42 50.66 0 52 0ZM67.52-9.12C68.35-8.70 69.28-8.35 70.18-8.29C70.43-8.19 70.37-7.87 70.11-7.87C68.61-7.87 66.94-8.29 65.70-9.12C64.29-8.10 63.68-6.82 63.68-5.09C63.68-2.82 65.28 0 68.29 0L73.86 0L73.86-22.72L71.94-22.72C62.69-22.82 61.25-12.42 67.52-9.12ZM84.06-17.70C84.06-20.51 81.82-22.72 78.88-22.72L74.66-22.72L74.66 0L75.87 0C86.02 0 86.66-12.51 78.11-14.46C77.86-14.53 77.95-14.88 78.21-14.88C79.49-14.78 80.74-14.46 81.79-13.86C83.30-14.62 84.06-16.03 84.06-17.70ZM89.98-22.72C87.14-22.72 84.93-20.38 84.93-17.57C84.93-14.85 87.14-12.51 89.98-12.51L100.35-12.51C103.10-12.51 105.22-14.91 105.22-17.57C105.22-20.38 102.91-22.72 100.06-22.72ZM95.04 0.13C97.86 0.13 100.19-2.21 100.19-5.06L100.16-11.74L89.98-11.74L89.98-5.06C89.98-2.21 92.29 0.13 95.04 0.13ZM105.70-17.60L105.70-5.06C105.70-2.30 107.94 0 110.78 0L114.40 0L114.40-22.75L110.85-22.75C107.84-22.75 105.70-20.45 105.70-17.60ZM119.49 0C124.45 0 125.57-5.02 123.42-7.74C122.40-6.53 121.02-6.08 119.62-6.08L118.21-6.08L118.21-6.69L119.62-6.69C121.02-6.69 122.02-7.26 122.82-8.16C124.22-9.57 124.58-12.54 123.71-14.43C122.62-13.28 121.18-12.80 119.71-12.83L118.21-12.83L118.21-13.47L119.68-13.47C123.04-13.47 124.19-15.90 124.19-18.08C124.29-20.54 122.43-22.75 119.39-22.75L115.20-22.75L115.20 0ZM130.11 0.06C132.51 0.06 134.59-1.60 135.07-3.81C135.04-3.94 135.07-4.13 135.07-4.22L124.99-14.27L124.99-5.06C124.99-2.18 127.30 0.06 130.11 0.06ZM147.71-5.06L147.71-7.39L134.02-20.99C133.06-21.95 131.65-22.78 130.11-22.78C127.30-22.78 124.99-20.45 124.99-17.66L124.99-15.49L138.98-1.54L139.04-1.50C141.92 1.41 147.71-0.13 147.71-5.06ZM147.71-17.66C147.71-20.45 145.41-22.78 142.56-22.78C140.19-22.78 138.11-20.99 137.63-18.82L137.73-18.46L147.71-8.58ZM148.67-11.39C148.67-5.34 153.70 0 159.84 0L159.87 0L159.87-22.75C153.70-22.59 148.67-17.66 148.67-11.39ZM164.48 0C171.78 0 171.58-11.01 164.48-11.01C162.88-11.01 161.66-11.01 160.70-11.01L160.70 0ZM164.48-11.84C171.65-11.84 171.71-22.75 164.48-22.75L160.70-22.75L160.70-11.84C161.66-11.81 162.88-11.84 164.48-11.84ZM175.90-0.03C178.82-0.03 181.06-2.37 181.06-5.15L181.06-17.63C181.06-20.42 178.82-22.66 175.90-22.66C173.09-22.66 170.85-20.42 170.85-17.63L170.85-5.15C170.85-2.37 173.09-0.03 175.90-0.03ZM192.29-17.70C192.29-20.48 190.02-22.78 187.17-22.78C184.35-22.78 182.08-20.48 182.08-17.70L182.08-5.18C182.05-3.87 182.43-2.72 183.20-1.82L192.22-10.85ZM187.26 0L193.34 0C200 0 200-10.24 193.34-10.24L192.90-10.24L183.84-1.18C184.74-0.42 185.92 0 187.26 0Z"/></svg>