<svg id="mainsvg" xmlns="http://www.w3.org/2000/svg" xmlns:xlink="http://www.w3.org/1999/xlink" version="1.1" x="0px" y="0px" enable-background="new 0 0 200 162.5" xml:space="preserve" viewBox="0 0 214 24"><path fill="#000" transform="translate(-1.2258760515005107, 22.976)" d="M9.22-22.66L3.42-22.66L1.31-7.65C0.58-2.34 4.67 0.32 9.22 0.32C13.73 0.32 18.66-2.34 19.39-7.65L21.50-22.66L15.71-22.66L13.60-7.65C13.34-5.82 11.68-4.93 9.98-4.93C8.35-4.93 6.85-5.82 7.10-7.65ZM21.73 0L27.46 0L28.70-9.06L28.64-13.44L28.77-13.47L30.11-8.93L33.98 0L39.78 0L42.94-22.66L37.25-22.66L35.81-12.38L35.87-8.48L35.74-8.45L34.46-12.99L30.34-22.66L24.90-22.66ZM52.26-22.66L46.53-22.66L43.36 0L49.09 0ZM51.94-3.78C53.66-1.06 57.02 0.32 59.74 0.32C64.64 0.32 68.48-1.89 69.31-6.30C70.37-11.94 66.53-13.44 62.59-14.18C60.86-14.56 59.71-15.14 59.87-16.45C60-17.60 61.22-18.14 62.66-18.11C63.97-18.08 65.47-17.57 66.43-16.48L70.59-19.36C68.64-22.21 66.08-22.98 63.33-22.98C59.17-22.98 55.07-21.34 54.21-16.70C53.41-12.42 56.61-9.57 60.16-8.99C61.98-8.74 63.97-8.13 63.71-6.72C63.49-5.54 62.14-4.99 60.61-4.99C58.91-4.99 57.02-5.73 56.03-7.17ZM85.15-22.66L79.94-22.66L68.86 0L75.01 0L77.02-4.54L83.07-4.54L83.94 0L90.08 0ZM79.04-9.63L81.54-16.26L81.76-16.26L82.43-9.63ZM91.55 0L97.28 0L98.53-9.06L98.46-13.44L98.59-13.47L99.94-8.93L103.81 0L109.60 0L112.77-22.66L107.07-22.66L105.63-12.38L105.70-8.48L105.57-8.45L104.29-12.99L100.16-22.66L94.72-22.66ZM112.45-3.78C114.18-1.06 117.54 0.32 120.26 0.32C125.15 0.32 128.99-1.89 129.82-6.30C130.88-11.94 127.04-13.44 123.10-14.18C121.38-14.56 120.22-15.14 120.38-16.45C120.51-17.60 121.73-18.14 123.17-18.11C124.48-18.08 125.98-17.57 126.94-16.48L131.10-19.36C129.15-22.21 126.59-22.98 123.84-22.98C119.68-22.98 115.58-21.34 114.72-16.70C113.92-12.42 117.12-9.57 120.67-8.99C122.50-8.74 124.48-8.13 124.22-6.72C124-5.54 122.66-4.99 121.12-4.99C119.42-4.99 117.54-5.73 116.54-7.17ZM149.82-7.07C149.06-5.63 147.58-5.02 146.27-5.02C144.67-5.02 143.26-5.95 143.49-7.42L144.58-15.23C144.80-16.77 146.43-17.66 148.06-17.70C149.41-17.70 150.75-17.15 151.26-15.87L156.19-17.76C154.94-21.79 151.74-22.98 148.96-22.98C144.42-22.98 139.55-20.35 138.85-15.23L137.76-7.42C137.06-2.27 141.15 0.32 145.60 0.32C148.45 0.32 151.71-0.80 154.50-4.77ZM170.11-22.66L164.90-22.66L153.82 0L159.97 0L161.98-4.54L168.03-4.54L168.90 0L175.04 0ZM164-9.63L166.50-16.26L166.72-16.26L167.39-9.63ZM176.51 0L182.24 0L183.17-6.62L186.78-6.62C192.26-6.62 195.42-10.21 195.90-14.50C196.35-18.59 194.27-22.66 188.74-22.66L179.68-22.66ZM183.87-11.71L184.67-17.31L188-17.31C189.66-17.31 190.40-16.16 190.21-14.66C190.02-13.12 188.99-11.68 187.20-11.71ZM195.58-3.78C197.31-1.06 200.67 0.32 203.39 0.32C208.29 0.32 212.13-1.89 212.96-6.30C214.02-11.94 210.18-13.44 206.24-14.18C204.51-14.56 203.36-15.14 203.52-16.45C203.65-17.60 204.86-18.14 206.30-18.11C207.62-18.08 209.12-17.57 210.08-16.48L214.24-19.36C212.29-22.21 209.73-22.98 206.98-22.98C202.82-22.98 198.72-21.34 197.86-16.70C197.06-12.42 200.26-9.57 203.81-8.99C205.63-8.74 207.62-8.13 207.36-6.72C207.14-5.54 205.79-4.99 204.26-4.99C202.56-4.99 200.67-5.73 199.68-7.17Z"/></svg>