<svg id="mainsvg" xmlns="http://www.w3.org/2000/svg" xmlns:xlink="http://www.w3.org/1999/xlink" version="1.1" x="0px" y="0px" enable-background="new 0 0 200 162.5" xml:space="preserve" viewBox="0 0 95 54"><path fill="#000" transform="translate(0, 39.80531522103826)" d="M1.47-13.92C0.67-13.92 0-13.28 0-12.48C0-11.71 0.61-11.07 1.41-11.07L3.55-11.07C3.52-7.39 3.55-3.71 3.55-0.03C3.58 3.55 3.58 7.26 3.74 10.85C3.78 11.68 3.81 12.32 4 13.12C4.26 13.89 5.06 14.27 5.82 14.02C6.56 13.76 6.98 12.93 6.72 12.19L6.72 12.16C6.69 11.65 6.62 11.17 6.62 10.62C6.43 6.98 6.43 3.20 6.43-0.48C6.40-4.03 6.40-7.58 6.40-11.17C7.94-11.20 9.47-11.26 11.01-11.26C11.81-11.26 12.45-11.90 12.48-12.67C12.48-13.47 11.84-14.11 11.07-14.11C9.50-14.11 7.97-14.08 6.43-14.02C6.43-15.90 6.46-17.79 6.46-19.65C9.82-19.46 13.15-19.68 16.54-19.71C17.34-19.71 17.98-20.35 18.02-21.12C18.02-21.92 17.38-22.56 16.61-22.56C13.31-22.56 9.86-22.30 6.53-22.53L6.53-24.19C6.56-24.99 5.92-25.63 5.15-25.63C4.35-25.63 3.68-24.99 3.68-24.19C3.68-23.74 3.65-23.30 3.65-22.85C3.20-22.91 2.78-23.01 2.34-23.10C1.57-23.30 0.80-22.82 0.61-22.05C0.42-21.28 0.86-20.51 1.63-20.32C2.30-20.16 2.94-20.03 3.62-19.94L3.55-13.95C2.85-13.92 2.14-13.92 1.47-13.92ZM33.47-8.42C32.96-8.99 32.03-9.06 31.46-8.54C31.14-8.26 30.88-8.03 30.50-7.87C28.64-7.04 27.52-10.02 27.23-11.33C27.17-11.71 27.10-12.45 27.04-12.74C26.59-14.30 25.02-14.62 23.97-13.44C23.17-12.51 22.02-9.82 20.93-6.72C20.96-9.15 20.93-11.84 20.67-13.98C20.58-14.78 19.87-15.33 19.07-15.23C18.30-15.14 17.76-14.40 17.86-13.63C18.69-10.40 18.27 1.02 18.27 3.01L18.27 3.23C18.27 5.54 21.28 4.26 21.15 2.91C20.61-0.45 23.87-6.40 24.80-8.86L24.90-9.12C25.12-8.54 25.41-7.97 25.79-7.39C27.52-4.67 30.30-4 32.96-6.05L33.38-6.40C33.95-6.91 34.02-7.84 33.47-8.42ZM44.45-9.38C43.68-9.54 42.91-9.06 42.72-8.29C42.02-6.02 37.44-2.37 34.98-2.72C33.38-2.94 33.28-5.60 33.41-7.01C33.54-6.94 33.73-6.91 33.89-6.94C36.32-7.04 37.73-7.97 39.17-9.86C39.39-10.24 39.65-10.69 39.58-11.14C39.42-12.35 39.04-13.28 37.89-13.89C35.84-14.98 33.41-13.66 32.13-11.97C30.50-9.76 30.18-6.34 30.78-3.71C31.81 0.61 35.52 0.90 38.94-0.80C41.28-1.98 44.45-4.61 45.34-7.14L45.50-7.65C45.70-8.42 45.22-9.18 44.45-9.38ZM35.94-11.36C36.29-11.46 36.51-11.46 36.64-11.26C35.94-10.40 35.30-9.92 34.14-9.82C34.56-10.56 35.14-11.17 35.94-11.36ZM56.38-9.38C55.62-9.54 54.85-9.06 54.66-8.29C53.95-6.02 49.38-2.37 46.91-2.72C45.31-2.94 45.22-5.60 45.34-7.01C45.47-6.94 45.66-6.91 45.82-6.94C48.26-7.04 49.66-7.97 51.10-9.86C51.33-10.24 51.58-10.69 51.52-11.14C51.36-12.35 50.98-13.28 49.82-13.89C47.78-14.98 45.34-13.66 44.06-11.97C42.43-9.76 42.11-6.34 42.72-3.71C43.74 0.61 47.46 0.90 50.88-0.80C53.22-1.98 56.38-4.61 57.28-7.14L57.44-7.65C57.63-8.42 57.15-9.18 56.38-9.38ZM47.87-11.36C48.22-11.46 48.45-11.46 48.58-11.26C47.87-10.40 47.23-9.92 46.08-9.82C46.50-10.56 47.07-11.17 47.87-11.36ZM66.85-39.78C66.08-39.94 65.28-39.42 65.06-38.66C64.77-37.31 64.67-34.85 64.58-33.44C64.19-27.10 63.90-20.67 63.68-14.34C62.88-16.58 61.60-18.78 59.39-18.08C56.93-17.28 55.39-12.48 54.69-10.27C54.08-8.35 54.40-6.46 55.07-4.74C56.10-2.05 58.62 1.31 62.14-0.29C64.29-1.25 65.66-4.06 66.46-6.14C66.69-6.66 66.56-7.20 66.24-7.55C66.43-9.54 66.46-11.65 66.53-13.63C66.72-19.87 67.04-26.21 67.39-32.45C67.49-34.24 67.58-36.35 67.81-38.11C68.03-38.91 67.62-39.65 66.85-39.78ZM60.45-2.75C58.53-3.23 56.80-7.49 57.34-9.41C57.66-10.56 58.94-14.21 59.90-15.23C61.02-13.98 62.05-8.90 62.43-7.36C62.56-6.72 62.72-5.86 63.07-5.22C62.40-3.94 61.44-2.53 60.45-2.75ZM94.50-2.66C94.34-3.36 94.34-4.22 94.34-4.93C94.30-6.62 94.62-11.33 94.11-12.42C93.63-13.38 92.51-13.79 91.68-13.12C91.36-12.90 91.23-12.67 91.20-12.38C90.82-11.68 89.57-10.21 89.02-9.54L88.58-8.90C88.35-9.89 88.35-11.20 88.32-11.97C88.32-12.70 87.97-13.31 87.23-13.50C86.11-13.82 85.50-12.83 85.02-12C84.22-10.56 83.46-8.96 82.69-7.49C82.27-6.66 81.66-5.31 80.99-4.26C80.99-4.54 80.99-4.80 81.02-5.09C81.15-7.20 81.60-10.40 82.11-12.45C82.37-13.18 81.92-14.02 81.18-14.24C80.67-14.40 80.16-14.27 79.81-13.92C77.95-15.20 75.65-16.29 73.47-16.06C73.15-16.22 72.80-16.32 72.45-16.42L72.06-16.48C71.30-16.58 70.56-16.06 70.46-15.26C70.43-15.07 70.43-14.91 70.46-14.72C67.23-11.78 67.33-4.42 70.66-1.76C71.62-0.99 73.38-0.42 74.43-1.31C76.26-2.91 76.90-7.84 76.74-10.18C76.70-11.01 76.54-11.87 76.29-12.64C77.02-12.32 77.73-11.87 78.43-11.39C78.59-11.30 78.75-11.20 78.91-11.17C78.69-9.89 78.50-8.48 78.37-7.42C78.18-5.70 77.70-2.05 78.98-0.77C80.10 0.32 81.47-0.35 82.37-1.34C83.62-2.66 84.83-5.31 85.70-7.04L85.98-7.62C86.40-6.24 87.20-5.22 88.58-5.38C89.98-5.57 90.69-7.01 91.49-8C91.49-8.03 91.52-8.06 91.52-8.06C91.52-7.30 91.49-6.59 91.49-6.11C91.46-4.70 91.30-1.70 92.38-0.70L92.67-0.48C93.34-0.06 94.21-0.29 94.62-0.96C94.98-1.50 94.91-2.21 94.50-2.66ZM72.77-3.81C72.67-3.84 72.54-3.94 72.42-4C70.94-5.22 70.75-8.48 71.17-10.21C71.49-11.74 72.13-12.61 72.93-12.99C73.63-12.22 73.82-10.98 73.89-9.98C73.98-8.42 73.63-5.31 72.77-3.81ZM91.20-12.35C91.17-12.26 91.14-12.13 91.14-12C91.14-12.13 91.14-12.22 91.20-12.35Z"/></svg>