<svg id="mainsvg" xmlns="http://www.w3.org/2000/svg" xmlns:xlink="http://www.w3.org/1999/xlink" version="1.1" x="0px" y="0px" enable-background="new 0 0 200 162.5" xml:space="preserve" viewBox="0 0 142 28"><path fill="#000" transform="translate(-0.109375, 22.5625)" d="M10.73-22.56L10.73-22.56L10.97-22.56Q13.20-22.56 14.55-20.70L14.55-20.70Q15.20-19.63 15.20-18.66L15.20-18.66Q15.20-15.83 13.22-13.16L13.22-13.16Q12.41-12.19 12.06-12.03L12.06-12.03Q11.52-11.77 10.92-11.77L10.92-11.77Q9.70-11.77 8.72-12.56L8.72-12.56Q8.53-12.80 8.53-12.97L8.53-12.97Q8.53-13.14 9.34-13.89L9.34-13.89Q10.88-15.42 11.30-16.03L11.30-16.03Q12.50-17.70 12.66-18.92L12.66-18.92Q12.69-19.03 12.69-19.20L12.69-19.20L12.69-19.22Q12.69-19.61 12.27-19.61L12.27-19.61Q10.36-19.61 7.95-16.34L7.95-16.34Q7.20-15.31 6.58-14.19L6.58-14.19Q5.59-12.45 4.77-10.14L4.77-10.14Q3.91-7.56 3.91-5.86L3.91-5.86L3.91-5.59Q3.91-3.55 5.25-2.98L5.25-2.98Q5.64-2.86 6.03-2.86L6.03-2.86Q9.03-2.86 13.16-8.11L13.16-8.11Q14.91-10.45 15.75-12.05L15.75-12.05Q16.23-12.97 16.53-13.38L16.53-13.38Q16.78-13.63 16.89-13.63L16.89-13.63L16.92-13.63Q17.08-13.63 17.08-13.36L17.08-13.36L17.08-13.28Q17.08-12.56 15.38-9.13L15.38-9.13Q14.20-6.81 12.27-4.27L12.27-4.27Q11.69-3.48 10.45-2.25L10.45-2.25Q7.58 0.48 4.98 0.48L4.98 0.48L4.80 0.48Q1.97 0.48 0.64-2.42L0.64-2.42Q-0.11-4.23-0.11-6.48L-0.11-6.48Q-0.11-10.33 2.19-15.06L2.19-15.06Q3.06-16.81 4.58-18.77L4.58-18.77Q5.88-20.30 6.92-21.06L6.92-21.06Q8.97-22.56 10.73-22.56ZM20.19-17.38L20.19-17.38L20.38-17.38Q21.78-17.38 23.19-15.77L23.19-15.77Q23.41-15.47 23.73-14.95L23.73-14.95Q24.30-16.67 24.48-16.95L24.48-16.95Q24.72-17.34 25-17.34L25-17.34L25.14-17.34Q25.69-17.34 26.78-16.50L26.78-16.50Q27.19-16.11 27.19-15.77L27.19-15.77L27.19-15.67Q27.19-15.03 25.80-11.86L25.80-11.86Q24.45-8.75 23.52-5.95L23.52-5.95Q23.30-5.22 23.22-4.83L23.22-4.83L23.22-4.75Q23.22-4.67 23.30-4.63L23.30-4.63L23.34-4.63Q23.89-4.63 26.61-7.92L26.61-7.92Q29.64-11.84 30.45-13.58L30.45-13.58Q30.81-14.16 31.05-14.20L31.05-14.20L31.14-14.20Q31.25-14.13 31.25-13.97L31.25-13.97L31.25-13.84Q31.25-12.88 28.56-8.31L28.56-8.31Q27.38-6.36 26-4.59L26-4.59Q23.92-2.02 22.84-2.02L22.84-2.02L22.73-2.02Q22.70-2.02 22.67-2L22.67-2Q22.66-2.02 22.63-2.02L22.63-2.02L22.56-2.02Q21.39-2.02 20.55-3.09L20.55-3.09Q20.08-3.80 20.08-4.48L20.08-4.48L20.11-4.78Q19.59-4.06 18.63-3.09L18.63-3.09Q17.44-2 16.31-2L16.31-2L16.08-2Q14.27-2 13.63-3.70L13.63-3.70Q13.44-4.36 13.44-5.06L13.44-5.06L13.44-5.09Q13.44-7.33 15.17-11.89L15.17-11.89Q15.88-13.59 16.88-15.06L16.88-15.06Q18.58-17.38 20.19-17.38ZM17.28-6.36L17.28-6.36Q17.28-5.84 17.53-5.67L17.53-5.67L17.66-5.64Q18-5.64 18.80-6.52L18.80-6.52Q19.80-7.55 20.52-8.58L20.52-8.58Q22.66-11.70 22.66-13.66L22.66-13.66L22.66-13.83Q22.66-14.64 22.02-14.95L22.02-14.95Q21.91-14.97 21.81-14.97L21.81-14.97L21.75-14.97Q20.98-14.97 19.88-13.22L19.88-13.22Q18.83-11.41 17.98-9.13L17.98-9.13Q17.36-7.23 17.36-6.83L17.36-6.83Q17.31-6.70 17.28-6.36ZM33.25-4.45L33.25-4.50Q31.30-2.06 30.11-2.06L30.11-2.06L29.95-2.06Q28.64-2.06 27.78-3.36L27.78-3.36Q27.47-3.95 27.47-4.45L27.47-4.45L27.47-4.64Q27.47-5.05 27.95-6.27L27.95-6.27Q31.38-15.86 32.48-18.72L32.48-18.72Q33.25-20.66 33.70-21.52L33.70-21.52Q33.84-21.75 34.16-21.75L34.16-21.75Q34.84-21.70 35.91-20.86L35.91-20.86Q36.28-20.48 36.28-20.13L36.28-20.13L36.28-20.05Q36.28-19.45 35.09-16.67L35.09-16.67Q32.77-11.05 31.58-7.95L31.58-7.95Q31-6.52 30.59-4.91L30.59-4.91L30.59-4.83Q30.59-4.67 30.70-4.67L30.70-4.67Q31.27-4.67 32.94-6.70Q34.61-8.73 35.96-12.50Q37.31-16.27 38.27-18.72L38.27-18.72Q38.77-20.31 39.33-20.78L39.33-20.78Q39.61-20.97 40.01-20.77Q40.41-20.56 41.06-20.10Q41.72-19.64 41.77-19.13L41.77-19.13Q41.78-18.70 40.88-16.67L40.88-16.67Q38.55-11.05 37.36-7.95L37.36-7.95Q36.78-6.52 36.38-4.91L36.38-4.91L36.38-4.83Q36.38-4.67 36.48-4.67L36.48-4.67Q37.05-4.67 39.80-8.03L39.80-8.03Q42.64-11.66 43.55-13.56L43.55-13.56Q43.97-14.25 44.25-14.27L44.25-14.27Q44.42-14.23 44.42-13.95L44.42-13.95Q44.39-12.78 41.33-7.77L41.33-7.77Q37.70-2.06 35.89-2.06L35.89-2.06L35.73-2.06Q34.42-2.06 33.56-3.36L33.56-3.36Q33.25-3.95 33.25-4.45L33.25-4.45ZM46.34-21.75L46.36-21.75Q47.02-21.75 48.17-20.80L48.17-20.80Q48.48-20.45 48.48-20.11L48.48-20.11L48.48-20.08Q48.48-19.55 47.98-18.41L47.98-18.41Q47.73-18.05 47.41-18.05L47.41-18.05Q47.08-18.05 45.86-18.67L45.86-18.67Q45.09-19.22 45.09-19.69L45.09-19.69Q45.09-19.81 45.78-21.28L45.78-21.28Q45.97-21.75 46.34-21.75L46.34-21.75ZM44.45-17.41L44.45-17.41Q45.14-17.41 46.27-16.47L46.27-16.47Q46.59-16.14 46.59-15.75L46.59-15.75Q46.59-15.13 45.20-11.97L45.20-11.97Q43.70-8.45 42.89-6L42.89-6Q42.59-4.95 42.59-4.84L42.59-4.84Q42.59-4.67 42.73-4.67L42.73-4.67Q43.45-4.88 45.75-7.69L45.75-7.69Q48.81-11.53 49.77-13.53L49.77-13.53Q50.17-14.22 50.45-14.27L50.45-14.27L50.47-14.27Q50.66-14.27 50.66-13.94L50.66-13.94Q50.66-13.02 48.25-8.88L48.25-8.88Q44.09-2.06 42.16-2.06L42.16-2.06Q40.70-2.06 39.97-3.44L39.97-3.44Q39.66-4.08 39.66-4.77L39.66-4.77Q39.66-5.63 40.78-8.72L40.78-8.72Q42.44-13.80 43.66-16.59L43.66-16.59Q44-17.25 44.13-17.31L44.13-17.31Q44.25-17.41 44.45-17.41ZM58-17.45L58-17.45Q58.64-17.45 59.81-16.58L59.81-16.58Q60.25-16.17 60.25-15.78L60.25-15.78L60.25-15.72Q60.25-15.16 59.30-12.97L59.30-12.97Q57.52-8.86 56.64-6.22L56.64-6.22Q56.25-4.97 56.25-4.83L56.25-4.83Q56.30-4.67 56.34-4.67L56.34-4.67L56.39-4.67Q56.98-4.70 59.70-8.03L59.70-8.03Q62.53-11.66 63.36-13.36L63.36-13.36Q63.83-14.25 64.14-14.25L64.14-14.25Q64.31-14.20 64.31-13.97L64.31-13.97L64.31-13.91Q64.31-12.83 61.23-7.77L61.23-7.77Q57.59-2.06 55.86-2.06L55.86-2.06L55.63-2.06Q54.44-2.06 53.59-3.16L53.59-3.16Q53.14-3.83 53.14-4.55L53.14-4.55Q53.14-5 53.58-6.11L53.58-6.11Q55.70-11.98 55.83-12.42L55.83-12.42Q55.88-12.63 55.88-12.78L55.88-12.78Q55.88-12.94 55.77-12.97L55.77-12.97Q55.31-12.97 53.45-10.63L53.45-10.63Q51.13-7.50 50.06-5.47L50.06-5.47Q49.17-3.77 49.17-3.50L49.17-3.50Q49.02-3.11 49.02-2.55L49.02-2.55L49.02-2.06Q49.02-2.03 48.97-2.03L48.97-2.03Q47.22-2.03 46.55-3.86L46.55-3.86Q46.44-4.39 46.44-4.72L46.44-4.72Q46.44-5.56 47.42-8.31L47.42-8.31Q49.28-13.98 50.48-16.67L50.48-16.67Q50.83-17.36 51.09-17.36L51.09-17.36Q51.16-17.38 51.23-17.38L51.23-17.38Q51.92-17.38 53.05-16.42L53.05-16.42Q53.36-16.08 53.36-15.70L53.36-15.70Q53.36-15.09 51.92-11.78L51.92-11.78Q55.80-17.45 58-17.45ZM66.66-17.44L66.66-17.44Q68.25-17.44 69.66-15.69L69.66-15.69L70.09-15.03Q70.64-16.63 70.83-16.98L70.83-16.98Q71.08-17.41 71.41-17.41L71.41-17.41L71.44-17.41Q72.13-17.41 73.27-16.45L73.27-16.45Q73.56-16.11 73.56-15.81L73.56-15.81L73.56-15.72Q73.56-15.09 72.17-11.95L72.17-11.95Q70.77-8.66 69.88-6.02L69.88-6.02Q69.70-5.41 69.66-5.16L69.66-5.16Q69.66-5.03 69.75-4.97L69.75-4.97L69.83-4.97Q70.36-4.97 72.84-7.91L72.84-7.91Q75.89-11.70 76.72-13.48L76.72-13.48Q77.17-14.27 77.45-14.27L77.45-14.27Q77.59-14.27 77.63-14.03L77.63-14.03L77.63-13.91Q77.63-12.91 74.78-8.14L74.78-8.14Q73.81-6.55 73-5.56L73-5.56Q71.42-3.77 70.08-2.67L70.08-2.67Q69.20-1.97 68.53-1.56L68.53-1.56Q68.19-1.42 68.19-1.34L68.19-1.34Q67.14 1.67 66.72 2.58L66.72 2.58Q66.16 3.77 64.61 4.36L64.61 4.36Q63.84 4.63 63.14 4.63L63.14 4.63L62.92 4.63Q61.67 4.63 60.55 3.70L60.55 3.70Q59.98 3.13 59.98 2.38L59.98 2.38Q59.98 0.88 61.86-0.66L61.86-0.66Q62.88-1.41 63.81-1.88L63.81-1.88Q64.70-2.30 65.50-2.59L65.50-2.59Q65.89-3.52 66.34-4.64L66.34-4.64L66.34-4.66L66.33-4.66Q66.02-4.14 64.86-3.05L64.86-3.05Q63.77-2.05 62.61-2.05L62.61-2.05L62.53-2.05Q60.53-2.05 59.97-3.86L59.97-3.86Q59.80-4.47 59.80-5.13L59.80-5.13L59.80-5.14Q59.80-7.36 61.52-11.86L61.52-11.86Q62.20-13.55 63.03-14.81L63.03-14.81Q64.80-17.44 66.66-17.44ZM63.64-6.42L63.64-6.42Q63.64-6.11 63.78-5.83L63.78-5.83Q63.89-5.70 64-5.70L64-5.70L64.02-5.70Q64.38-5.70 65.14-6.55L65.14-6.55Q66.52-8 67.16-9.06L67.16-9.06Q67.86-10.13 68.25-10.91L68.25-10.91Q69.03-12.61 69.03-13.70L69.03-13.70L69.03-13.89Q69.03-14.72 68.36-15.02L68.36-15.02Q68.19-15.05 68.16-15.05L68.16-15.05Q67.30-15.05 66.11-13.08L66.11-13.08Q65.19-11.41 64.38-9.25L64.38-9.25Q63.78-7.50 63.78-7.19L63.78-7.19Q63.70-6.95 63.64-6.42ZM62.53 1.69L62.53 1.69Q62.53 2.02 62.81 2.08L62.81 2.08L62.91 2.08Q63.28 2.08 63.88 1.22L63.88 1.22Q64.03 1.03 64.50-0.19L64.50-0.19L64.48-0.19Q63.66 0.27 62.88 0.98L62.88 0.98Q62.53 1.33 62.53 1.69ZM87.19-22.42L87.19-22.42Q88.80-22.42 90.05-21.28L90.05-21.28Q90.84-20.45 90.84-19.66L90.84-19.66L90.84-19.58Q90.84-18.95 89.31-14.13L89.31-14.13Q88.64-12.11 87.98-10.22L87.98-10.22L88.19-10.22Q90.11-10.22 92.03-10.38L92.03-10.38Q94.25-16.92 96.08-20.98L96.08-20.98Q96.58-22 96.83-22.31L96.83-22.31Q97.02-22.42 97.19-22.42L97.19-22.42Q97.88-22.42 99.11-21.45L99.11-21.45Q99.55-21.02 99.55-20.59L99.55-20.59L99.55-20.53Q99.55-19.72 97.78-16.02L97.78-16.02Q96.33-12.72 94.95-8.45Q93.58-4.19 93.58-1.23L93.58-1.23L93.58-1.13Q93.58-0.72 93.61-0.08L93.61-0.08Q93.63-0.05 93.63-0.03L93.63-0.03Q93.61 0 93.42 0L93.42 0Q91.91 0 90.64-1.09L90.64-1.09Q89.80-1.94 89.80-2.75L89.80-2.75L89.80-2.88Q89.80-3.44 91.14-7.67L91.14-7.67Q89.94-7.67 87.14-7.89L87.14-7.89Q85.48-3.34 84.22-0.78L84.22-0.78Q83.86-0.08 83.75-0.08L83.75-0.08Q83.64-0.02 83.44 0L83.44 0Q82.77 0 81.58-0.94L81.58-0.94Q81.09-1.38 81.09-1.83L81.09-1.83L81.09-1.92Q81.09-2.70 82.91-6.81L82.91-6.81L83.48-8.19L83.47-8.19Q82.59-8.25 82.59-8.59L82.59-8.59L82.59-8.69Q82.59-8.77 83.20-10.36L83.20-10.36Q83.33-10.53 83.47-10.53L83.47-10.53L83.50-10.53L84.44-10.44Q87.06-16.66 87.06-21.23L87.06-21.23L87.06-21.25Q87.06-21.66 87.03-22.34L87.03-22.34Q87.02-22.38 87.02-22.39L87.02-22.39Q87.06-22.42 87.19-22.42ZM102.86-17.28L102.86-17.28Q104.45-17.28 105.95-16.25L105.95-16.25Q106.52-15.89 106.77-14.95L106.77-14.95Q106.92-14.42 106.92-13.83L106.92-13.83L106.92-13.69Q106.92-11.75 105.23-9.41L105.23-9.41Q104.64-8.70 104.19-8.41L104.19-8.41Q103.19-7.78 102.30-7.78L102.30-7.78L102.11-7.78Q101.11-7.78 100.28-8.55L100.28-8.55L100.27-8.55Q99.77-6.83 99.77-5.88L99.77-5.88Q99.77-4.69 100.55-4.39L100.55-4.39Q100.81-4.30 101.02-4.30L101.02-4.30L101.16-4.30Q102.70-4.30 105.41-7.08L105.41-7.08Q107.13-8.95 108.08-10.34L108.08-10.34Q109.20-11.98 110.23-13.91L110.23-13.91Q110.42-14.20 110.53-14.20L110.53-14.20Q110.73-14.20 110.73-13.95L110.73-13.95Q110.73-13.11 108.92-9.56L108.92-9.56Q107.94-7.69 106.25-5.63L106.25-5.63Q105.05-4.22 104.11-3.50L104.11-3.50Q102.08-2 99.95-2L99.95-2L99.75-2Q98.72-2 98.09-2.36L98.09-2.36Q96.89-2.95 96.41-4.31L96.41-4.31Q96.11-5.09 96.11-5.86L96.11-5.86L96.11-6.16Q96.11-7.19 96.91-9.67L96.91-9.67Q97.72-12.19 98.69-13.88L98.69-13.88Q99.16-14.75 99.98-15.75L99.98-15.75Q100.88-16.67 101.30-16.86L101.30-16.86Q101.94-17.28 102.86-17.28ZM100.66-9.63L100.66-9.63Q101-9.28 101.41-9.28L101.41-9.28L101.42-9.28Q102.38-9.28 103.61-11.20L103.61-11.20Q103.94-11.72 104.28-12.64L104.28-12.64Q104.69-13.89 104.69-14.61L104.69-14.61L104.69-14.77Q104.69-15.39 104.33-15.39L104.33-15.39L104.30-15.39Q103.23-15.39 101.09-10.70L101.09-10.70Q100.77-9.94 100.66-9.63ZM113.27-17.38L113.27-17.38L113.45-17.38Q114.86-17.38 116.27-15.77L116.27-15.77Q116.48-15.47 116.81-14.95L116.81-14.95Q117.38-16.67 117.56-16.95L117.56-16.95Q117.80-17.34 118.08-17.34L118.08-17.34L118.22-17.34Q118.77-17.34 119.86-16.50L119.86-16.50Q120.27-16.11 120.27-15.77L120.27-15.77L120.27-15.67Q120.27-15.03 118.88-11.86L118.88-11.86Q117.53-8.75 116.59-5.95L116.59-5.95Q116.38-5.22 116.30-4.83L116.30-4.83L116.30-4.75Q116.30-4.67 116.38-4.63L116.38-4.63L116.42-4.63Q116.97-4.63 119.69-7.92L119.69-7.92Q122.72-11.84 123.53-13.58L123.53-13.58Q123.89-14.16 124.13-14.20L124.13-14.20L124.22-14.20Q124.33-14.13 124.33-13.97L124.33-13.97L124.33-13.84Q124.33-12.88 121.64-8.31L121.64-8.31Q120.45-6.36 119.08-4.59L119.08-4.59Q117-2.02 115.92-2.02L115.92-2.02L115.81-2.02Q115.78-2.02 115.75-2L115.75-2Q115.73-2.02 115.70-2.02L115.70-2.02L115.64-2.02Q114.47-2.02 113.63-3.09L113.63-3.09Q113.16-3.80 113.16-4.48L113.16-4.48L113.19-4.78Q112.67-4.06 111.70-3.09L111.70-3.09Q110.52-2 109.39-2L109.39-2L109.16-2Q107.34-2 106.70-3.70L106.70-3.70Q106.52-4.36 106.52-5.06L106.52-5.06L106.52-5.09Q106.52-7.33 108.25-11.89L108.25-11.89Q108.95-13.59 109.95-15.06L109.95-15.06Q111.66-17.38 113.27-17.38ZM110.36-6.36L110.36-6.36Q110.36-5.84 110.61-5.67L110.61-5.67L110.73-5.64Q111.08-5.64 111.88-6.52L111.88-6.52Q112.88-7.55 113.59-8.58L113.59-8.58Q115.73-11.70 115.73-13.66L115.73-13.66L115.73-13.83Q115.73-14.64 115.09-14.95L115.09-14.95Q114.98-14.97 114.89-14.97L114.89-14.97L114.83-14.97Q114.06-14.97 112.95-13.22L112.95-13.22Q111.91-11.41 111.06-9.13L111.06-9.13Q110.44-7.23 110.44-6.83L110.44-6.83Q110.39-6.70 110.36-6.36ZM123.17-18.23L123.17-18.23Q125.23-17.50 124.08-15.20L124.08-15.20Q123.75-14.42 123.77-14.23Q123.80-14.05 124.84-14.45Q125.88-14.84 126.56-14.84L126.56-14.84Q127.52-14.84 127.91-14.34Q128.31-13.83 128.23-13.43Q128.16-13.03 127.09-10.55L127.09-10.55L125.06-5.53Q124.77-4.88 124.94-4.69L124.94-4.69Q125.52-4.69 128.38-8.17L128.38-8.17Q130.17-10.45 131.22-12.09L131.22-12.09Q131.73-12.95 132.16-13.75L132.16-13.75Q132.50-14.22 132.67-14.22L132.67-14.22L132.72-14.22Q132.89-14.22 132.89-13.91L132.89-13.91Q132.89-12.94 130.28-8.50L130.28-8.50Q126.30-2.03 124.33-2.03L124.33-2.03Q122.89-2.03 122.08-3.28L122.08-3.28Q121.72-3.86 121.72-4.53L121.72-4.53Q121.72-5.03 122.17-6.16L122.17-6.16Q124.67-12.94 124.72-13.08L124.72-13.08Q124.73-13.19 124.63-13.16L124.63-13.16Q124.30-13.09 123.27-12.47L123.27-12.47Q122.91-12.27 122.55-12.27L122.55-12.27L122.36-12.27Q121.41-12.27 120.77-13.20L120.77-13.20Q120.55-13.66 120.55-14.08L120.55-14.08Q120.55-14.53 121-15.69L121-15.69Q121.63-17.50 121.91-18.08L121.91-18.08Q122.17-18.55 123.17-18.23ZM136.92-21.70L136.92-21.70Q137.58-21.70 138.69-20.81L138.69-20.81Q139.06-20.44 139.06-20.05L139.06-20.05Q139.06-19.53 138.30-17.70L138.30-17.70L139.97-17.70Q140.11-17.69 140.11-17.59L140.11-17.59L140.11-17.55Q139.75-16.45 139.69-16.42L139.69-16.42Q139.58-16.31 139.48-16.31L139.48-16.31L137.72-16.31Q135.44-10.78 134.20-7.56L134.20-7.56Q133.70-6.27 133.34-4.83L133.34-4.83Q133.34-4.64 133.45-4.64L133.45-4.64L133.50-4.64Q134.08-4.72 136.56-7.73L136.56-7.73Q138.70-10.42 139.78-12.17L139.78-12.17Q140.23-12.89 140.61-13.63L140.61-13.63Q140.98-14.23 141.22-14.23L141.22-14.23Q141.41-14.23 141.41-13.92L141.41-13.92Q141.41-13.17 139.89-10.42L139.89-10.42Q138.52-7.89 136.84-5.55L136.84-5.55Q136.17-4.58 135.28-3.61L135.28-3.61Q133.84-2.03 132.84-2.03L132.84-2.03L132.83-2.03Q131.42-2.03 130.61-3.25L130.61-3.25Q130.23-3.86 130.23-4.48L130.23-4.48L130.23-4.56Q130.23-5 130.59-5.89L130.59-5.89Q133.88-15.03 134.34-16.31L134.34-16.31L132.92-16.31Q132.78-16.31 132.78-16.45L132.78-16.45Q133.16-17.63 133.22-17.63L133.22-17.63Q133.33-17.70 133.41-17.70L133.41-17.70L134.89-17.70Q135.75-20.06 136.47-21.47L136.47-21.47Q136.61-21.70 136.92-21.70Z"/></svg>