<svg id="mainsvg" xmlns="http://www.w3.org/2000/svg" xmlns:xlink="http://www.w3.org/1999/xlink" version="1.1" x="0px" y="0px" enable-background="new 0 0 200 162.5" xml:space="preserve" viewBox="0 0 207 22"><path fill="#000" transform="translate(-1.504, 21.12)" d="M5.34 0.64L5.34 0.64L3.62 0.64Q2.56 0.38 2.14-1.28L2.14-1.28Q2.14-2.40 1.92-5.76Q1.70-9.12 1.70-10.24L1.70-10.24Q1.63-12.83 0.03-14.11L0.03-14.11Q-0.38-14.43-0.70-14.72L-0.70-14.72Q-1.50-15.39-1.50-16.22L-1.50-16.22Q-1.50-18.50 1.82-19.97L1.82-19.97Q4.48-21.12 7.04-21.12L7.04-21.12Q9.73-21.12 11.87-19.94L11.87-19.94Q14.50-18.46 14.50-16L14.50-16Q14.50-14.82 13.76-13.18Q13.02-11.55 13.02-10.66L13.02-10.66Q13.02-9.86 13.55-8.64Q14.08-7.42 14.08-6.62L14.08-6.62Q14.08-3.17 11.33-1.15L11.33-1.15Q8.86 0.64 5.34 0.64ZM8.10-4.90L8.10-4.90Q8.58-4.90 8.88-5.30Q9.18-5.70 9.18-6.18L9.18-6.18Q9.18-7.26 8.32-7.26L8.32-7.26Q7.84-7.26 7.55-6.86Q7.26-6.46 7.26-5.98L7.26-5.98Q7.26-4.90 8.10-4.90ZM7.68-13.44L7.68-13.44Q8.16-13.44 8.45-13.92Q8.74-14.40 8.74-14.72L8.74-14.72Q8.74-15.04 8.37-15.31Q8-15.58 7.68-15.58L7.68-15.58Q6.82-15.58 6.82-14.50L6.82-14.50Q6.82-13.44 7.68-13.44ZM21.50 0.42L21.50 0.42Q17.95 0.42 15.97-2.91L15.97-2.91Q14.24-5.76 14.24-9.60L14.24-9.60Q14.24-13.50 16.19-16.19L16.19-16.19Q18.40-19.20 22.14-19.20L22.14-19.20Q25.98-19.20 28.06-15.94L28.06-15.94Q29.82-13.15 29.82-8.96L29.82-8.96Q29.82-5.25 27.58-2.53L27.58-2.53Q25.18 0.42 21.50 0.42ZM22.14-5.34L22.14-5.34Q22.94-5.34 23.42-6Q23.90-6.66 24.06-7.46L24.06-7.46L24.06-9.38Q24.06-11.30 23.78-12.19L23.78-12.19Q23.23-13.86 21.73-13.86L21.73-13.86Q20.58-13.86 20.03-12.74L20.03-12.74Q19.58-11.87 19.58-10.66L19.58-10.66Q19.58-8.90 20.06-7.46L20.06-7.46Q20.77-5.34 22.14-5.34ZM47.65 0L47.65 0Q46.69 0 46.14-0.38Q45.60-0.77 45.34-1.33Q45.09-1.89 45.02-2.56Q44.96-3.23 44.94-3.79Q44.93-4.35 44.90-4.74Q44.86-5.12 44.64-5.12L44.64-5.12Q44.26-5.12 43.90-4.66Q43.55-4.19 43.10-3.63Q42.66-3.07 42.06-2.61Q41.47-2.14 40.61-2.14L40.61-2.14Q39.81-2.14 39.30-2.51Q38.78-2.88 38.42-3.31Q38.05-3.74 37.78-4.11Q37.50-4.48 37.18-4.48L37.18-4.48Q36.86-4.48 36.45-3.49L36.45-3.49Q35.87-2.18 35.46-1.63L35.46-1.63Q34.69-0.64 33.57-0.64L33.57-0.64Q30.98-0.64 30.46-4.13L30.46-4.13Q30.30-5.15 30.30-6.72L30.30-6.72L30.37-9.38Q30.37-18.78 36.13-18.78L36.13-18.78Q37.25-18.78 37.97-18.11Q38.69-17.44 39.22-16.64Q39.74-15.84 40.14-15.17Q40.54-14.50 41.02-14.50L41.02-14.50Q41.44-14.50 41.74-14.94Q42.05-15.39 42.82-17.38L42.82-17.38Q43.94-20.26 46.37-20.26L46.37-20.26Q47.55-20.26 48.32-19.71Q49.09-19.17 49.55-18.27Q50.02-17.38 50.24-16.26Q50.46-15.14 50.56-14Q50.66-12.86 50.66-11.81L50.66-11.81L50.62-10.02Q50.62-9.44 50.70-8.46Q50.78-7.49 50.82-6.40L50.82-6.40Q50.82-5.28 50.74-4.14Q50.66-3.01 50.32-2.08Q49.98-1.15 49.34-0.58Q48.70 0 47.65 0ZM57.06 0.64L57.06 0.64L55.33 0.64Q54.27 0.38 53.86-1.28L53.86-1.28Q53.86-2.40 53.63-5.76Q53.41-9.12 53.41-10.24L53.41-10.24Q53.34-12.83 51.74-14.11L51.74-14.11Q51.33-14.43 51.01-14.72L51.01-14.72Q50.21-15.39 50.21-16.22L50.21-16.22Q50.21-18.50 53.54-19.97L53.54-19.97Q56.19-21.12 58.75-21.12L58.75-21.12Q61.44-21.12 63.58-19.94L63.58-19.94Q66.21-18.46 66.21-16L66.21-16Q66.21-14.82 65.47-13.18Q64.74-11.55 64.74-10.66L64.74-10.66Q64.74-9.86 65.26-8.64Q65.79-7.42 65.79-6.62L65.79-6.62Q65.79-3.17 63.04-1.15L63.04-1.15Q60.58 0.64 57.06 0.64ZM59.81-4.90L59.81-4.90Q60.29-4.90 60.59-5.30Q60.90-5.70 60.90-6.18L60.90-6.18Q60.90-7.26 60.03-7.26L60.03-7.26Q59.55-7.26 59.26-6.86Q58.98-6.46 58.98-5.98L58.98-5.98Q58.98-4.90 59.81-4.90ZM59.39-13.44L59.39-13.44Q59.87-13.44 60.16-13.92Q60.45-14.40 60.45-14.72L60.45-14.72Q60.45-15.04 60.08-15.31Q59.71-15.58 59.39-15.58L59.39-15.58Q58.53-15.58 58.53-14.50L58.53-14.50Q58.53-13.44 59.39-13.44ZM72.80 0.22L72.80 0.22Q70.02 0.22 68.14-1.60Q66.27-3.42 65.95-6.18L65.95-6.18L65.95-9.18Q65.95-15.30 67.58-17.98L67.58-17.98Q68.83-20.06 71.07-20.06L71.07-20.06Q73.70-20.06 74.85-19.68L74.85-19.68Q76.83-19.01 76.83-17.06L76.83-17.06Q76.83-14.78 74.59-14.37L74.59-14.37L73.54-14.14Q72.35-13.86 72.35-13.22L72.35-13.22Q72.35-12.90 72.82-12.74Q73.28-12.58 73.86-12.35Q74.43-12.13 74.90-11.76Q75.36-11.39 75.36-10.66L75.36-10.66Q75.36-10.02 75.09-9.60Q74.82-9.18 74.42-8.91Q74.02-8.64 73.54-8.43Q73.06-8.22 72.66-8.02Q72.26-7.81 71.98-7.52Q71.71-7.23 71.71-6.82L71.71-6.82Q71.71-6.34 72.05-6.02Q72.38-5.70 72.88-5.42Q73.38-5.15 73.95-4.88Q74.53-4.61 75.02-4.26Q75.52-3.90 75.86-3.39Q76.19-2.88 76.19-2.14L76.19-2.14Q76.19-0.86 75.07-0.26L75.07-0.26Q74.21 0.22 72.80 0.22ZM88.16 0L88.16 0Q87.62 0 87.12-0.27Q86.62-0.54 86.14-0.85Q85.66-1.15 85.17-1.42Q84.67-1.70 84.13-1.70L84.13-1.70Q83.49-1.70 83.01-1.42Q82.53-1.15 82.06-0.85Q81.60-0.54 81.09-0.27Q80.58 0 79.84 0L79.84 0L78.78 0Q78.30-0.16 78.10-0.48Q77.89-0.80 77.73-1.28L77.73-1.28Q77.50-4.64 77.50-14.50L77.50-14.50Q77.34-14.98 77.31-15.36Q77.28-15.74 77.28-17.06L77.28-17.06Q78.27-18.34 80.99-18.75L80.99-18.75Q82.56-18.98 85.18-18.98L85.18-18.98Q88.10-18.98 89.98-17.76L89.98-17.76Q92.22-16.32 92.22-13.66L92.22-13.66Q92.22-12.38 91.76-11.31Q91.30-10.24 90.74-9.30Q90.18-8.35 89.71-7.49Q89.25-6.62 89.25-5.76L89.25-5.76Q89.25-5.12 89.89-4.18Q90.53-3.23 90.53-2.56L90.53-2.56Q90.53-1.57 89.81-0.78Q89.09 0 88.16 0ZM84.13-10.02L84.13-10.02Q84.86-10.02 85.46-10.75Q86.05-11.49 86.05-12.38L86.05-12.38Q86.05-13.44 84.77-13.44L84.77-13.44Q84.29-13.44 84-13.28L84-13.28Q83.42-12.90 83.33-12.19L83.33-12.19Q83.26-11.84 83.26-10.46L83.26-10.46Q83.42-10.11 83.60-10.06Q83.78-10.02 84.13-10.02ZM107.71 0.64L107.71 0.64L105.98 0.64Q104.93 0.38 104.51-1.28L104.51-1.28Q104.51-2.40 104.29-5.76Q104.06-9.12 104.06-10.24L104.06-10.24Q104.00-12.83 102.40-14.11L102.40-14.11Q101.98-14.43 101.66-14.72L101.66-14.72Q100.86-15.39 100.86-16.22L100.86-16.22Q100.86-18.50 104.19-19.97L104.19-19.97Q106.85-21.12 109.41-21.12L109.41-21.12Q112.10-21.12 114.24-19.94L114.24-19.94Q116.86-18.46 116.86-16L116.86-16Q116.86-14.82 116.13-13.18Q115.39-11.55 115.39-10.66L115.39-10.66Q115.39-9.86 115.92-8.64Q116.45-7.42 116.45-6.62L116.45-6.62Q116.45-3.17 113.70-1.15L113.70-1.15Q111.23 0.64 107.71 0.64ZM110.46-4.90L110.46-4.90Q110.94-4.90 111.25-5.30Q111.55-5.70 111.55-6.18L111.55-6.18Q111.55-7.26 110.69-7.26L110.69-7.26Q110.21-7.26 109.92-6.86Q109.63-6.46 109.63-5.98L109.63-5.98Q109.63-4.90 110.46-4.90ZM110.05-13.44L110.05-13.44Q110.53-13.44 110.82-13.92Q111.10-14.40 111.10-14.72L111.10-14.72Q111.10-15.04 110.74-15.31Q110.37-15.58 110.05-15.58L110.05-15.58Q109.18-15.58 109.18-14.50L109.18-14.50Q109.18-13.44 110.05-13.44ZM128.13 0.64L128.13 0.64Q127.23 0.64 126.74 0.21Q126.24-0.22 125.97-0.86Q125.70-1.50 125.54-2.24Q125.38-2.98 125.12-3.62Q124.86-4.26 124.45-4.69Q124.03-5.12 123.23-5.12L123.23-5.12Q122.59-5.12 122.24-4.82Q121.89-4.51 121.66-4.06Q121.44-3.62 121.28-3.09Q121.12-2.56 120.88-2.11Q120.64-1.66 120.26-1.36Q119.87-1.06 119.17-1.06L119.17-1.06Q117.89-1.06 117.25-1.90Q116.61-2.75 116.61-4.06L116.61-4.06Q116.61-7.17 116.96-10.08L116.96-10.08Q117.50-14.53 118.85-17.25L118.85-17.25Q120.51-20.70 123.46-20.70L123.46-20.70Q125.86-20.70 127.65-16.86L127.65-16.86Q129.02-13.79 129.86-8.86L129.86-8.86Q130.50-4.83 130.50-2.14L130.50-2.14Q130.50-1.15 129.78-0.26Q129.06 0.64 128.13 0.64ZM137.44-0.42L137.44-0.42Q134.08-0.42 132.16-2.78L132.16-2.78Q130.40-4.90 130.40-8.32L130.40-8.32Q130.40-14.05 131.58-17.09L131.58-17.09Q132.48-19.42 134.02-19.42L134.02-19.42Q135.33-19.42 136.18-18.58Q137.02-17.73 137.02-16.42L137.02-16.42Q137.02-14.66 136.80-12.91Q136.58-11.17 136.58-9.38L136.58-9.38Q136.58-8.03 136.80-7.30L136.80-7.30Q137.18-5.98 138.30-5.98L138.30-5.98Q138.78-5.98 139.28-6.19Q139.78-6.40 140.42-6.40L140.42-6.40Q141.34-6.40 142.27-5.52Q143.20-4.64 143.20-3.84L143.20-3.84Q143.20-2.14 140.96-1.18L140.96-1.18Q139.20-0.42 137.44-0.42ZM150.53-0.42L150.53-0.42Q147.17-0.42 145.25-2.78L145.25-2.78Q143.49-4.90 143.49-8.32L143.49-8.32Q143.49-14.05 144.67-17.09L144.67-17.09Q145.57-19.42 147.10-19.42L147.10-19.42Q148.42-19.42 149.26-18.58Q150.11-17.73 150.11-16.42L150.11-16.42Q150.11-14.66 149.89-12.91Q149.66-11.17 149.66-9.38L149.66-9.38Q149.66-8.03 149.89-7.30L149.89-7.30Q150.27-5.98 151.39-5.98L151.39-5.98Q151.87-5.98 152.37-6.19Q152.86-6.40 153.50-6.40L153.50-6.40Q154.43-6.40 155.36-5.52Q156.29-4.64 156.29-3.84L156.29-3.84Q156.29-2.14 154.05-1.18L154.05-1.18Q152.29-0.42 150.53-0.42ZM163.62 0.42L163.62 0.42Q160.06 0.42 158.08-2.91L158.08-2.91Q156.35-5.76 156.35-9.60L156.35-9.60Q156.35-13.50 158.30-16.19L158.30-16.19Q160.51-19.20 164.26-19.20L164.26-19.20Q168.10-19.20 170.18-15.94L170.18-15.94Q171.94-13.15 171.94-8.96L171.94-8.96Q171.94-5.25 169.70-2.53L169.70-2.53Q167.30 0.42 163.62 0.42ZM164.26-5.34L164.26-5.34Q165.06-5.34 165.54-6Q166.02-6.66 166.18-7.46L166.18-7.46L166.18-9.38Q166.18-11.30 165.89-12.19L165.89-12.19Q165.34-13.86 163.84-13.86L163.84-13.86Q162.69-13.86 162.14-12.74L162.14-12.74Q161.70-11.87 161.70-10.66L161.70-10.66Q161.70-8.90 162.18-7.46L162.18-7.46Q162.88-5.34 164.26-5.34ZM179.94 0.42L179.94 0.42Q176.38 0.42 174.40-2.91L174.40-2.91Q172.67-5.76 172.67-9.60L172.67-9.60Q172.67-13.50 174.62-16.19L174.62-16.19Q176.83-19.20 180.58-19.20L180.58-19.20Q184.42-19.20 186.50-15.94L186.50-15.94Q188.26-13.15 188.26-8.96L188.26-8.96Q188.26-5.25 186.02-2.53L186.02-2.53Q183.62 0.42 179.94 0.42ZM180.58-5.34L180.58-5.34Q181.38-5.34 181.86-6Q182.34-6.66 182.50-7.46L182.50-7.46L182.50-9.38Q182.50-11.30 182.21-12.19L182.21-12.19Q181.66-13.86 180.16-13.86L180.16-13.86Q179.01-13.86 178.46-12.74L178.46-12.74Q178.02-11.87 178.02-10.66L178.02-10.66Q178.02-8.90 178.50-7.46L178.50-7.46Q179.20-5.34 180.58-5.34ZM200.51 0.22L200.51 0.22Q199.14 0.22 197.76-0.83L197.76-0.83Q197.02-1.38 195.62-2.98L195.62-2.98L195.39-3.10Q195.10-3.20 194.98-3.20L194.98-3.20Q194.40-3.10 194.19-2.67Q193.98-2.24 193.74-1.73Q193.50-1.22 193.06-0.82Q192.61-0.42 191.55-0.42L191.55-0.42Q189.63-0.42 188.99-2.14L188.99-2.14Q188.99-4.42 188.96-5.57L188.96-5.57L188.96-6.37Q188.96-11.14 189.79-13.54L189.79-13.54Q190.75-16.22 192.64-16.22L192.64-16.22Q195.42-16.22 197.34-11.55L197.34-11.55Q197.79-10.40 198.18-9.60L198.18-9.60Q198.50-8.96 199.04-8.96L199.04-8.96Q199.36-8.96 199.62-9.22Q199.87-9.47 199.87-9.82L199.87-9.82L199.87-18.56Q199.87-19.36 200.96-19.90L200.96-19.90Q201.70-20.26 202.66-20.26L202.66-20.26Q204.35-20.26 204.93-18.43L204.93-18.43Q205.22-17.41 205.22-15.14L205.22-15.14L205.22-5.12Q204.99-3.14 203.84-1.60L203.84-1.60Q202.46 0.22 200.51 0.22Z"/></svg>