<svg id="mainsvg" xmlns="http://www.w3.org/2000/svg" xmlns:xlink="http://www.w3.org/1999/xlink" version="1.1" x="0px" y="0px" enable-background="new 0 0 200 162.5" xml:space="preserve" viewBox="0 0 64 24"><path fill="#000" transform="translate(-0.96, 23.168)" d="M12.16-11.20L12.16-22.40L0.96-22.40C0.96-14.94 0.96-7.46 0.96 0L18.37 0L18.37-11.20L12.16-11.20ZM31.49-23.17C24.90-23.17 19.55-17.82 19.55-11.23C19.55-4.64 24.90 0.70 31.49 0.70C38.08 0.70 43.42-4.64 43.42-11.23C43.42-17.82 38.08-23.17 31.49-23.17ZM60.38-11.17L64.74-11.17L64.74-22.40L44.54-22.40L44.54-11.17L49.18-11.17L49.18 0.03L60.38 0.03L60.38-11.17Z"/></svg>