<svg id="mainsvg" xmlns="http://www.w3.org/2000/svg" xmlns:xlink="http://www.w3.org/1999/xlink" version="1.1" x="0px" y="0px" enable-background="new 0 0 200 162.5" xml:space="preserve" viewBox="0 0 171 23"><path fill="#000" transform="translate(-1.28, 22.400000000000002)" d="M6.59-5.41L6.59-2.88L4.16-2.88L4.16-19.52L6.59-19.52L6.59-17.31L9.47-18.66L9.47-20.48C9.47-21.50 8.64-22.40 7.55-22.40L3.20-22.40C2.18-22.40 1.28-21.50 1.28-20.48L1.28-1.89C1.28-0.86 2.18 0 3.20 0L7.55 0C8.61 0 9.47-0.86 9.47-1.89L9.47-6.75ZM11.58-20.48C11.58-21.50 12.48-22.40 13.50-22.40L17.86-22.40C18.94-22.40 19.78-21.50 19.78-20.48L19.78-1.89C19.78-0.86 18.91 0 17.86 0L13.50 0C12.48 0 11.58-0.86 11.58-1.89ZM16.90-19.52L14.46-19.52L14.46-2.88L16.90-2.88ZM36.16-2.88L36.16-19.55L37.25-19.55L37.25-22.40L32.19-22.40L32.19-19.81L29.73-13.89L27.42-19.62L27.42-22.40L22.34-22.40L22.34-19.55L23.42-19.55L23.42-2.88L22.34-2.88L22.34 0L27.42 0L27.42-2.88L26.40-2.88L26.40-14.24L28.58-9.12L30.91-9.12L33.28-14.24L33.28-2.88L32.19-2.88L32.19 0L37.25 0L37.25-2.88ZM44.90-22.40L39.81-22.40L39.81-19.55L40.90-19.55L40.90-2.88L39.81-2.88L39.81 0L44.90 0L44.90-2.88L43.78-2.88L43.78-11.07L48.03-13.09C48.64-13.41 49.09-14.05 49.09-14.75L49.09-20.48C49.09-21.50 48.26-22.40 47.17-22.40ZM46.21-15.71L43.78-14.56L43.78-19.52L46.21-19.52ZM60.54-2.75L58.53-22.40L53.41-22.40L52.06-22.40L52.06-19.65L53.12-19.65L51.33-2.75L50.24-2.75L50.24 0L54.94 0L54.94-2.75L54.21-2.75L54.94-9.73L56.90-10.66L57.73-2.75L56.90-2.75L56.90 0L61.60 0L61.60-2.75ZM55.26-12.86L55.97-19.52L56.61-13.50ZM72.64-2.88L72.64-12.45C72.64-13.25 72.16-14.14 71.30-14.34C71.87-14.50 72.29-15.10 72.29-15.90L72.29-20.48C72.29-21.50 71.46-22.40 70.37-22.40L68.45-22.40L63.39-22.40L63.39-19.55L64.45-19.55L64.45-2.88L63.39-2.88L63.39 0L67.94 0L67.94-2.88L67.33-2.88L67.33-11.20L69.76-12.32L69.76-2.88L69.22-2.88L69.22 0L73.73 0L73.73-2.88ZM69.41-15.68L67.33-14.69L67.33-19.52L69.41-19.52ZM84.61-2.88L80.06-2.88L80.06-13.15L83.10-13.15L83.10-16.03L80.06-16.03L80.06-19.52L84.38-19.52L84.38-22.40L77.18-22.40L76.13-22.40L76.13-19.52L77.18-19.52L77.18-2.88L76.13-2.88L76.13 0L80.83 0L84.61 0ZM86.21-11.94L93.44-11.94L93.44-9.09L86.21-9.09ZM106.66-19.55L106.66-22.40L101.57-22.40L101.57-19.55L102.69-19.55L102.69-10.21L99.58-19.55L100.64-19.55L100.64-22.40L95.36-22.40L95.36-19.55L96.42-19.55L96.42-2.88L95.36-2.88L95.36 0L100.45 0L100.45-2.88L99.30-2.88L99.30-13.12L102.56-2.88L101.47-2.88L101.47 0L106.66 0L106.66-2.88L105.57-2.88L105.57-19.55ZM109.22-20.48C109.22-21.50 110.11-22.40 111.14-22.40L115.49-22.40C116.58-22.40 117.41-21.50 117.41-20.48L117.41-1.89C117.41-0.86 116.54 0 115.49 0L111.14 0C110.11 0 109.22-0.86 109.22-1.89ZM114.53-19.52L112.10-19.52L112.10-2.88L114.53-2.88ZM129.22-2.88L129.22-12.45C129.22-13.25 128.74-14.14 127.87-14.34C128.45-14.50 128.86-15.10 128.86-15.90L128.86-20.48C128.86-21.50 128.03-22.40 126.94-22.40L125.02-22.40L119.97-22.40L119.97-19.55L121.02-19.55L121.02-2.88L119.97-2.88L119.97 0L124.51 0L124.51-2.88L123.90-2.88L123.90-11.20L126.34-12.32L126.34-2.88L125.79-2.88L125.79 0L130.30 0L130.30-2.88ZM125.98-15.68L123.90-14.69L123.90-19.52L125.98-19.52ZM146.53-2.88L146.53-19.55L147.62-19.55L147.62-22.40L142.56-22.40L142.56-19.81L140.10-13.89L137.79-19.62L137.79-22.40L132.70-22.40L132.70-19.55L133.79-19.55L133.79-2.88L132.70-2.88L132.70 0L137.79 0L137.79-2.88L136.77-2.88L136.77-14.24L138.94-9.12L141.28-9.12L143.65-14.24L143.65-2.88L142.56-2.88L142.56 0L147.62 0L147.62-2.88ZM159.71-2.75L157.70-22.40L152.58-22.40L151.23-22.40L151.23-19.65L152.29-19.65L150.50-2.75L149.41-2.75L149.41 0L154.11 0L154.11-2.75L153.38-2.75L154.11-9.73L156.06-10.66L156.90-2.75L156.06-2.75L156.06 0L160.77 0L160.77-2.75ZM154.43-12.86L155.14-19.52L155.78-13.50ZM168.51-5.09L168.51-2.88L166.56-2.88L166.56-19.55L167.62-19.55L167.62-22.40L162.56-22.40L162.56-19.55L163.68-19.55L163.68-2.88L162.56-2.88L162.56 0L167.62 0L168.51 0L171.36 0L171.36-5.09Z"/></svg>