<svg id="mainsvg" xmlns="http://www.w3.org/2000/svg" xmlns:xlink="http://www.w3.org/1999/xlink" version="1.1" x="0px" y="0px" enable-background="new 0 0 200 162.5" xml:space="preserve" viewBox="0 0 92 25"><path fill="#000" transform="translate(-2.176, 23.936)" d="M16.10-22.53L16.10-0.96Q16.10-0.51 15.78-0.18Q15.46 0.16 14.98 0.16L14.98 0.16Q14.53 0.16 14.19-0.18Q13.86-0.51 13.86-0.96L13.86-0.96L13.86-17.82L10.21-10.69Q10.05-10.24 9.66-10.05L9.66-10.05Q9.34-9.92 9.15-9.92L9.15-9.92Q8.99-9.92 8.88-9.95Q8.77-9.98 8.64-10.05L8.64-10.05Q8.22-10.24 8.06-10.69L8.06-10.69L4.45-17.82L4.45-0.96Q4.45-0.51 4.11-0.18Q3.78 0.16 3.33 0.16L3.33 0.16Q2.85 0.16 2.51-0.18Q2.18-0.51 2.18-0.96L2.18-0.96L2.18-22.53L2.18-22.59L2.18-22.62L2.18-22.66Q2.21-22.66 2.21-22.69L2.21-22.69L2.21-22.72L2.21-22.78Q2.24-22.85 2.30-23.04L2.30-23.04Q2.30-23.04 2.34-23.07L2.34-23.07L2.34-23.10L2.37-23.14L2.37-23.17Q2.40-23.17 2.40-23.20L2.40-23.20Q2.46-23.26 2.48-23.30Q2.50-23.33 2.56-23.36L2.56-23.36L2.59-23.39Q2.59-23.42 2.62-23.42L2.62-23.42L2.66-23.42L2.66-23.46L2.69-23.46Q2.69-23.49 2.72-23.49L2.72-23.49L2.75-23.49L2.75-23.52L2.78-23.52L2.82-23.52Q2.82-23.55 2.85-23.55L2.85-23.55Q2.88-23.55 2.88-23.57Q2.88-23.58 2.91-23.58L2.91-23.58L2.94-23.58Q2.94-23.58 2.98-23.62L2.98-23.62L3.01-23.62L3.04-23.62L3.07-23.62Q3.07-23.65 3.10-23.65L3.10-23.65L3.14-23.65L3.20-23.65L3.26-23.65L3.30-23.65L3.33-23.65L3.36-23.65L3.39-23.65L3.42-23.65L3.46-23.65L3.49-23.65L3.52-23.65Q3.52-23.65 3.55-23.62L3.55-23.62Q3.68-23.62 3.81-23.55L3.81-23.55Q3.84-23.52 3.87-23.52L3.87-23.52Q3.87-23.49 3.90-23.49L3.90-23.49Q3.90-23.49 3.94-23.46L3.94-23.46Q3.97-23.46 4-23.42L4-23.42Q4.10-23.33 4.16-23.30L4.16-23.30Q4.16-23.26 4.19-23.26L4.19-23.26L4.19-23.23L4.22-23.20L4.22-23.17Q4.26-23.17 4.26-23.14L4.26-23.14L4.29-23.10L4.29-23.07Q4.29-23.07 4.32-23.04L4.32-23.04L9.15-13.57L13.98-23.04L13.98-23.07L14.02-23.10L14.02-23.14L14.05-23.14L14.05-23.17Q14.05-23.17 14.08-23.20L14.08-23.20Q14.08-23.23 14.11-23.23L14.11-23.23L14.11-23.26Q14.24-23.39 14.30-23.42L14.30-23.42Q14.30-23.46 14.34-23.46L14.34-23.46L14.37-23.46Q14.37-23.49 14.40-23.49L14.40-23.49L14.40-23.52L14.43-23.52L14.46-23.52Q14.46-23.55 14.50-23.55L14.50-23.55Q14.53-23.58 14.58-23.58Q14.62-23.58 14.69-23.62L14.69-23.62L14.72-23.62L14.75-23.62Q14.75-23.65 14.78-23.65L14.78-23.65L14.82-23.65L14.85-23.65L14.88-23.65L14.91-23.65L14.98-23.65L15.04-23.65L15.10-23.65L15.14-23.65L15.17-23.65L15.20-23.65L15.20-23.62L15.23-23.62L15.26-23.62L15.30-23.62L15.33-23.62L15.33-23.58L15.39-23.58L15.42-23.55L15.46-23.55Q15.46-23.55 15.49-23.52L15.49-23.52L15.55-23.52L15.55-23.49L15.58-23.49L15.58-23.46L15.62-23.46Q15.62-23.46 15.65-23.42L15.65-23.42Q15.68-23.42 15.68-23.39L15.68-23.39L15.71-23.39Q15.71-23.39 15.74-23.36L15.74-23.36Q15.81-23.33 15.87-23.20L15.87-23.20Q15.90-23.20 15.90-23.17L15.90-23.17L15.94-23.14L15.94-23.10Q15.94-23.10 15.97-23.07L15.97-23.07Q15.97-23.07 16-23.04L16-23.04Q16.06-22.91 16.06-22.82L16.06-22.82L16.06-22.78L16.10-22.78L16.10-22.72L16.10-22.69L16.10-22.66L16.10-22.62L16.10-22.59L16.10-22.53ZM30.34-2.11L30.34-2.11Q30.82-2.11 31.15-1.78Q31.49-1.44 31.49-0.96L31.49-0.96Q31.49-0.51 31.15-0.18Q30.82 0.16 30.34 0.16L30.34 0.16L21.86 0.16Q21.38 0.16 21.04-0.18Q20.70-0.51 20.70-0.96L20.70-0.96L20.70-22.53Q20.70-22.98 21.04-23.31Q21.38-23.65 21.86-23.65L21.86-23.65L30.34-23.65Q30.82-23.65 31.15-23.31Q31.49-22.98 31.49-22.53L31.49-22.53Q31.49-22.05 31.15-21.71Q30.82-21.38 30.34-21.38L30.34-21.38L22.98-21.38L22.98-11.55L28.51-11.55Q28.99-11.55 29.31-11.22Q29.63-10.88 29.63-10.40L29.63-10.40Q29.63-9.95 29.31-9.62Q28.99-9.28 28.51-9.28L28.51-9.28L22.98-9.28L22.98-2.11L30.34-2.11ZM47.23-0.29L47.23-0.29Q47.23-0.29 47.20-0.26L47.20-0.26Q47.17-0.26 47.17-0.22L47.17-0.22L47.14-0.22Q47.14-0.22 47.10-0.19L47.10-0.19Q47.10-0.16 47.07-0.16L47.07-0.16L47.04-0.13L47.01-0.13Q47.01-0.10 46.98-0.10L46.98-0.10L46.94-0.10L46.94-0.06L46.91-0.06L46.88-0.03Q46.75 0.03 46.62 0.03L46.62 0.03Q46.56 0.06 46.40 0.06L46.40 0.06L46.37 0.06L46.34 0.06L46.30 0.06L46.24 0.06Q46.18 0.06 46.14 0.03L46.14 0.03L46.08 0.03Q46.02 0 46 0Q45.98 0 45.92-0.03L45.92-0.03Q45.89-0.06 45.86-0.06Q45.82-0.06 45.79-0.10L45.79-0.10L45.76-0.13Q45.76-0.13 45.73-0.16L45.73-0.16L45.70-0.16Q45.70-0.19 45.66-0.19L45.66-0.19Q45.66-0.19 45.63-0.22L45.63-0.22L45.60-0.26L45.57-0.29L45.54-0.32Q45.50-0.35 45.50-0.38L45.50-0.38Q45.47-0.38 45.47-0.42L45.47-0.42L45.44-0.45Q45.41-0.48 45.41-0.54L45.41-0.54Q45.38-0.58 45.38-0.59Q45.38-0.61 45.34-0.64L45.34-0.64L38.18-17.15L38.18-1.06Q38.18-0.61 37.86-0.27Q37.54 0.06 37.06 0.06L37.06 0.06Q36.61 0.06 36.27-0.27Q35.94-0.61 35.94-1.06L35.94-1.06L35.94-22.59L35.94-22.66L35.94-22.69L35.94-22.72L35.94-22.75L35.94-22.78L35.94-22.82L35.97-22.82L35.97-22.88L35.97-22.91L35.97-22.94Q35.97-22.94 36-22.98L36-22.98L36-23.04Q36.03-23.04 36.03-23.07L36.03-23.07Q36.03-23.10 36.05-23.10Q36.06-23.10 36.06-23.14L36.06-23.14L36.06-23.17L36.10-23.17L36.10-23.20Q36.10-23.23 36.13-23.23L36.13-23.23L36.13-23.26Q36.13-23.26 36.16-23.30L36.16-23.30L36.19-23.33Q36.19-23.36 36.22-23.36L36.22-23.36Q36.22-23.39 36.24-23.39Q36.26-23.39 36.26-23.42L36.26-23.42Q36.29-23.42 36.29-23.46L36.29-23.46L36.32-23.46L36.35-23.49L36.38-23.52Q36.42-23.52 36.42-23.55L36.42-23.55L36.45-23.55L36.48-23.58L36.51-23.58L36.54-23.62L36.58-23.62Q36.64-23.68 36.70-23.68Q36.77-23.68 36.83-23.71L36.83-23.71L36.86-23.71Q36.93-23.74 37.12-23.74L37.12-23.74L37.18-23.74L37.22-23.74Q37.25-23.74 37.25-23.71L37.25-23.71L37.28-23.71L37.31-23.71L37.38-23.71Q37.41-23.68 37.44-23.68L37.44-23.68Q37.44-23.68 37.47-23.65L37.47-23.65L37.54-23.65L37.57-23.62Q37.60-23.62 37.63-23.58L37.63-23.58L37.66-23.58Q37.66-23.55 37.70-23.55L37.70-23.55L37.73-23.52L37.76-23.52L37.76-23.49L37.79-23.49Q37.79-23.46 37.82-23.46L37.82-23.46Q37.82-23.42 37.86-23.42L37.86-23.42Q37.89-23.39 37.89-23.36L37.89-23.36Q37.92-23.36 37.92-23.33L37.92-23.33L37.95-23.33L37.95-23.30L37.98-23.30L37.98-23.26Q37.98-23.23 38.02-23.23L38.02-23.23L38.02-23.20Q38.02-23.20 38.05-23.17L38.05-23.17Q38.05-23.14 38.06-23.14Q38.08-23.14 38.08-23.10L38.08-23.10Q38.08-23.10 38.11-23.04L38.11-23.04L45.28-6.50L45.28-22.62Q45.28-23.07 45.60-23.41Q45.92-23.74 46.40-23.74L46.40-23.74Q46.85-23.74 47.18-23.41Q47.52-23.07 47.52-22.62L47.52-22.62L47.52-1.09L47.52-0.99L47.52-0.96L47.52-0.93L47.52-0.90L47.52-0.86Q47.52-0.86 47.49-0.83L47.49-0.83L47.49-0.80L47.49-0.74L47.46-0.70L47.46-0.64Q47.42-0.64 47.42-0.61L47.42-0.61L47.42-0.58L47.39-0.54L47.39-0.51Q47.36-0.51 47.36-0.48L47.36-0.48L47.36-0.45L47.33-0.45L47.33-0.42L47.30-0.38Q47.30-0.35 47.26-0.35L47.26-0.35Q47.26-0.32 47.25-0.32Q47.23-0.32 47.23-0.29ZM57.25 0.29L57.25 0.29Q55.01 0.29 53.47-0.99L53.47-0.99Q52.86-1.50 52.27-2.54Q51.68-3.58 51.68-5.38L51.68-5.38Q51.68-5.86 52.02-6.18Q52.35-6.50 52.83-6.50L52.83-6.50Q53.28-6.50 53.60-6.18Q53.92-5.86 53.92-5.38L53.92-5.38Q53.92-4.32 54.22-3.65Q54.53-2.98 55.01-2.61Q55.49-2.24 56.08-2.10Q56.67-1.95 57.25-1.95L57.25-1.95Q57.57-1.95 58.16-2.03Q58.75-2.11 59.33-2.46Q59.90-2.82 60.34-3.49Q60.77-4.16 60.77-5.38L60.77-5.38Q60.77-6.56 60.43-7.46Q60.10-8.35 59.50-9.06Q58.91-9.76 58.14-10.35Q57.38-10.94 56.51-11.55L56.51-11.55Q55.74-12.10 54.96-12.70Q54.18-13.31 53.54-14.05L53.54-14.05Q52.03-15.81 52-18.11L52-18.11Q52-18.24 52.02-18.62Q52.03-19.01 52.13-19.52L52.13-19.52Q52.42-21.15 53.41-22.24L53.41-22.24Q54.85-23.74 57.28-23.74L57.28-23.74Q59.74-23.74 61.09-22.24L61.09-22.24Q61.57-21.70 61.86-20.99Q62.14-20.29 62.21-19.46L62.21-19.46Q62.27-18.88 62.26-18.48Q62.24-18.08 62.21-18.02L62.21-18.02Q62.11-17.60 61.98-17.28L61.98-17.28Q61.82-17.02 61.60-16.83Q61.38-16.64 60.93-16.70L60.93-16.70Q60.48-16.77 60.29-17.04Q60.10-17.31 60.03-17.60L60.03-17.60Q59.94-17.95 60-18.34L60-18.34Q60.06-18.78 60-19.20L60-19.20Q59.94-19.55 59.81-19.98Q59.68-20.42 59.39-20.77L59.39-20.77Q58.75-21.54 57.28-21.54L57.28-21.54Q55.81-21.54 55.07-20.70L55.07-20.70Q54.72-20.35 54.54-19.90Q54.37-19.46 54.30-19.10L54.30-19.10Q54.21-18.66 54.24-18.24L54.24-18.24L54.24-18.14Q54.24-17.34 54.50-16.70Q54.75-16.06 55.22-15.52Q55.68-14.98 56.34-14.45Q56.99-13.92 57.82-13.31L57.82-13.31Q58.75-12.70 59.63-12.02Q60.51-11.33 61.28-10.40L61.28-10.40Q63.01-8.29 63.01-5.38L63.01-5.38Q63.01-3.90 62.51-2.83Q62.02-1.76 61.20-1.07Q60.38-0.38 59.34-0.05Q58.30 0.29 57.25 0.29ZM72.48 0.22L72.48 0.22Q70.08 0.22 68.70-1.31L68.70-1.31Q68.16-1.86 67.84-2.62Q67.52-3.39 67.36-4.32L67.36-4.32Q67.26-4.90 67.26-5.31Q67.26-5.73 67.26-5.89L67.26-5.89L67.26-18.21Q67.26-19.68 67.73-20.77Q68.19-21.86 68.93-22.56Q69.66-23.26 70.59-23.60Q71.52-23.94 72.45-23.94L72.45-23.94Q73.02-23.94 74.03-23.71Q75.04-23.49 75.97-22.66L75.97-22.66Q76.61-22.11 77.20-21.06Q77.79-20 77.79-18.21L77.79-18.21Q77.79-17.73 77.46-17.39Q77.12-17.06 76.64-17.06L76.64-17.06Q76.16-17.06 75.82-17.39Q75.49-17.73 75.49-18.21L75.49-18.21Q75.49-19.39 75.12-20.08Q74.75-20.77 74.24-21.10Q73.73-21.44 73.23-21.54Q72.74-21.63 72.45-21.63L72.45-21.63Q71.90-21.63 71.41-21.44Q70.91-21.25 70.56-20.90L70.56-20.90Q69.57-20 69.57-18.21L69.57-18.21L69.57-5.82L69.57-5.73Q69.57-5.70 69.57-5.39Q69.57-5.09 69.63-4.66Q69.70-4.22 69.87-3.73Q70.05-3.23 70.40-2.85L70.40-2.85Q71.10-2.08 72.48-2.08L72.48-2.08Q73.92-2.08 74.62-2.88L74.62-2.88Q74.98-3.26 75.15-3.71Q75.33-4.16 75.41-4.58Q75.49-4.99 75.49-5.28Q75.49-5.57 75.49-5.57L75.49-5.57Q75.46-6.05 75.78-6.40Q76.10-6.75 76.58-6.78L76.58-6.78Q77.02-6.82 77.39-6.50Q77.76-6.18 77.79-5.73L77.79-5.73Q77.79-5.66 77.79-5.25Q77.79-4.83 77.66-4.19L77.66-4.19Q77.38-2.40 76.32-1.31L76.32-1.31Q74.88 0.22 72.48 0.22ZM92.80-23.65L92.80-23.65Q93.25-23.65 93.58-23.31Q93.92-22.98 93.92-22.53L93.92-22.53L93.92-0.96Q93.92-0.51 93.58-0.18Q93.25 0.16 92.80 0.16L92.80 0.16Q92.32 0.16 91.98-0.18Q91.65-0.51 91.65-0.96L91.65-0.96L91.65-9.28L84.93-9.28L84.93-0.96Q84.93-0.51 84.59-0.18Q84.26 0.16 83.78 0.16L83.78 0.16Q83.33 0.16 82.99-0.18Q82.66-0.51 82.66-0.96L82.66-0.96L82.66-22.53Q82.66-22.98 82.99-23.31Q83.33-23.65 83.78-23.65L83.78-23.65Q84.26-23.65 84.59-23.31Q84.93-22.98 84.93-22.53L84.93-22.53L84.93-11.55L91.65-11.55L91.65-22.53Q91.65-22.98 91.98-23.31Q92.32-23.65 92.80-23.65Z"/></svg>