<svg id="mainsvg" xmlns="http://www.w3.org/2000/svg" xmlns:xlink="http://www.w3.org/1999/xlink" version="1.1" x="0px" y="0px" enable-background="new 0 0 200 162.5" xml:space="preserve" viewBox="0 0 112 30"><path fill="#000" transform="translate(-1.92, 22.368000000000002)" d="M1.92 0L1.92-22.37L10.88-22.37Q14.56-22.37 16.78-20.42Q19.01-18.46 19.01-15.07L19.01-15.07Q19.01-11.55 16.80-9.71Q14.59-7.87 10.85-7.87L10.85-7.87L5.98-7.87L5.98 0L1.92 0ZM5.98-11.23L10.37-11.23Q14.94-11.23 14.94-15.07L14.94-15.07Q14.94-19.01 10.37-19.01L10.37-19.01L5.98-19.01L5.98-11.23ZM21.57 0L21.57-15.36L25.47-15.36L25.47-12.90Q26.40-14.14 28.11-14.75Q29.82-15.36 32.03-15.36L32.03-15.36L32.03-12.29Q29.70-12.29 27.98-11.57Q26.27-10.85 25.60-9.31L25.60-9.31L25.60 0L21.57 0ZM42.94 0.48Q40.26 0.48 38.22-0.50Q36.19-1.47 35.07-3.31Q33.95-5.15 33.95-7.68L33.95-7.68Q33.95-10.14 35.06-11.98Q36.16-13.82 38.21-14.83Q40.26-15.84 42.94-15.84L42.94-15.84Q45.63-15.84 47.66-14.83Q49.70-13.82 50.82-11.98Q51.94-10.14 51.94-7.68L51.94-7.68Q51.94-5.15 50.82-3.31Q49.70-1.47 47.66-0.50Q45.63 0.48 42.94 0.48L42.94 0.48ZM42.94-2.69Q45.15-2.69 46.46-4.08Q47.78-5.47 47.78-7.68L47.78-7.68Q47.78-10.02 46.48-11.34Q45.18-12.67 42.94-12.67L42.94-12.67Q40.70-12.67 39.41-11.34Q38.11-10.02 38.11-7.68L38.11-7.68Q38.11-5.47 39.42-4.08Q40.74-2.69 42.94-2.69L42.94-2.69ZM55.14 0L55.14-15.36L58.91-15.36L58.91-13.34Q59.94-14.56 61.31-15.20Q62.69-15.84 64.10-15.84L64.10-15.84Q65.89-15.84 66.98-15.25Q68.06-14.66 68.61-13.47L68.61-13.47Q69.63-14.62 71.09-15.23Q72.54-15.84 73.98-15.84L73.98-15.84Q76.86-15.84 78.11-14.40Q79.36-12.96 79.36-10.18L79.36-10.18L79.36 0L75.49 0L75.49-9.63Q75.49-11.26 74.83-11.97Q74.18-12.67 72.74-12.67L72.74-12.67Q71.71-12.67 70.86-12.27Q70.02-11.87 69.31-10.91L69.31-10.91Q69.38-9.89 69.38-9.25L69.38-9.25L69.38 0L65.47 0L65.47-9.70Q65.47-11.36 64.93-12.02Q64.38-12.67 62.94-12.67L62.94-12.67Q60.77-12.67 59.04-10.21L59.04-10.21L59.04 0L55.14 0ZM83.04 7.01L83.04-15.36L86.94-15.36L86.94-13.50Q88.19-14.69 89.66-15.26Q91.14-15.84 93.02-15.84L93.02-15.84Q95.36-15.84 97.20-14.83Q99.04-13.82 100.08-11.98Q101.12-10.14 101.12-7.71L101.12-7.71Q101.12-5.31 100.08-3.46Q99.04-1.60 97.20-0.56Q95.36 0.48 93.02 0.48L93.02 0.48Q91.26 0.48 89.71-0.02Q88.16-0.51 87.07-1.50L87.07-1.50L87.07 7.01L83.04 7.01ZM92.03-2.69Q94.21-2.69 95.62-4.10Q97.02-5.50 97.02-7.71L97.02-7.71Q97.02-9.92 95.62-11.30Q94.21-12.67 92.03-12.67L92.03-12.67Q90.30-12.67 88.96-11.74Q87.62-10.82 87.07-9.25L87.07-9.25L87.07-6.14Q87.58-4.58 88.94-3.63Q90.30-2.69 92.03-2.69L92.03-2.69ZM110.50 0.48Q107.97 0.48 106.66-0.93Q105.34-2.34 105.34-4.90L105.34-4.90L105.34-12.29L103.04-12.29L103.04-15.36L105.34-15.36L105.34-19.97L109.38-19.97L109.38-15.36L113.06-15.36L113.06-12.29L109.38-12.29L109.38-5.41Q109.38-3.94 109.92-3.31Q110.46-2.69 111.90-2.69L111.90-2.69Q112.90-2.69 113.86-3.14L113.86-3.14L113.86-0.06Q112.48 0.48 110.50 0.48L110.50 0.48Z"/></svg>