<svg id="mainsvg" xmlns="http://www.w3.org/2000/svg" xmlns:xlink="http://www.w3.org/1999/xlink" version="1.1" x="0px" y="0px" enable-background="new 0 0 200 162.5" xml:space="preserve" viewBox="0 0 125 23"><path fill="#000" transform="translate(-0.64, 22.176000000000002)" d="M4.03-5.63L13.66-5.63L15.52 0L18.66 0L11.46-21.86L7.87-21.86L0.64 0L2.18 0ZM8.86-20.16L13.22-6.98L4.48-6.98ZM33.57 0L33.57-1.38L23.87-1.38L23.87-21.86L20.90-21.86L20.90 0ZM40.16-20.26L46.85 0L50.43 0L56.70-18.91L59.71 0L62.72 0L59.20-21.86L56.10-21.86L49.44-1.70L42.78-21.86L39.07-21.86L35.68 0L37.06 0ZM85.15-10.94C85.15-16.96 81.47-22.18 75.10-22.18C68.74-22.18 64.96-16.96 64.96-10.94C64.96-4.90 68.80 0.48 75.04 0.48C81.31 0.48 85.15-4.90 85.15-10.94ZM67.94-10.94C67.94-16.22 70.62-20.80 75.10-20.80C79.58-20.80 82.14-16.22 82.14-10.94C82.14-5.63 79.46-0.86 75.04-0.86C70.66-0.86 67.94-5.63 67.94-10.94ZM89.73-20.29L99.74 0L103.36 0L103.33-0.03L103.36 0L103.36-21.86L101.98-21.86L101.98-1.82L92.10-21.86L88.35-21.86L88.35 0L89.73 0ZM114.05 0C120.06 0 124.99-4.93 124.99-10.94C124.99-16.93 120.06-21.86 114.05-21.86L107.36-21.86L107.36 0ZM110.37-20.51L112.35-20.51C117.44-20.51 121.60-16.35 121.60-11.26L121.60-10.59C121.60-5.50 117.44-1.38 112.35-1.38L110.37-1.38Z"/></svg>