<svg id="mainsvg" xmlns="http://www.w3.org/2000/svg" xmlns:xlink="http://www.w3.org/1999/xlink" version="1.1" x="0px" y="0px" enable-background="new 0 0 200 162.5" xml:space="preserve" viewBox="0 0 60 33"><path fill="#000" transform="translate(-0.64, 25.984)" d="M10.72-19.62C10.72-20.26 10.69-20.90 10.69-21.50L10.69-22.37C10.72-22.46 10.72-22.59 10.72-22.82C10.69-22.91 10.69-23.04 10.69-23.23L10.69-23.71C10.66-23.74 10.66-23.78 10.66-23.81L10.66-24.03C10.62-24.38 10.56-24.64 10.53-24.80L10.50-24.83L10.50-24.90L10.46-24.93C10.46-24.96 10.46-24.99 10.43-25.02L10.43-25.09C10.40-25.09 10.37-25.15 10.37-25.18L10.34-25.22L10.34-25.25C10.30-25.28 10.30-25.28 10.30-25.31L10.27-25.34L10.24-25.34L10.24-25.38C10.21-25.38 10.21-25.38 10.21-25.41L10.18-25.41L10.14-25.44L10.11-25.44C10.08-25.44 10.08-25.44 10.08-25.47L9.86-25.47L9.82-25.44L9.76-25.44C9.73-25.41 9.73-25.41 9.70-25.41L9.66-25.41C9.63-25.38 9.63-25.38 9.60-25.38L9.41-25.18C9.31-25.09 9.28-24.86 9.28-24.83C9.28-24.61 9.28-24.45 9.25-24.35L9.25-23.81C9.22-23.78 9.22-23.71 9.22-23.68L9.22-22.98L9.18-22.98L9.18-21.79C9.15-21.79 9.15-21.79 9.15-21.76L9.15-19.81C9.15-19.74 9.15-19.68 9.18-19.62L9.18-16.90C9.18-16.74 9.18-16.61 9.22-16.51C9.22-16.32 9.22-16.13 9.25-15.94L9.25-15.36L9.25-14.56C9.25-14.30 9.25-14.05 9.22-13.76L9.22-13.66L9.18-13.66L9.18-13.44C9.18-13.34 9.18-13.25 9.15-13.18L9.15-12.90C9.12-12.86 9.12-12.86 9.12-12.83L9.12-12.74L9.02-12.74C9.02-12.74 8.99-12.74 8.96-12.70L8.80-12.70C8.77-12.67 8.77-12.67 8.74-12.67L8.54-12.67C8.51-12.64 8.42-12.64 8.29-12.64L7.97-12.64L7.94-12.67L7.65-12.67C7.62-12.70 7.62-12.70 7.58-12.70L7.33-12.70L7.33-12.74L4.16-12.74C4.16-12.70 4.16-12.70 4.13-12.70L4.06-12.70C4.06-12.74 4.06-12.74 4.03-12.74C4-12.74 4-12.74 4-12.77L3.97-12.80C3.94-12.83 3.94-12.83 3.94-12.86C3.84-12.96 3.84-13.06 3.84-13.12C3.84-13.15 3.84-13.18 3.81-13.22L3.81-14.24C3.81-14.34 3.81-14.43 3.84-14.53L3.84-14.78C3.84-14.82 3.84-14.88 3.87-14.91L3.87-15.04C3.87-15.14 3.87-15.20 3.90-15.30L3.90-15.52C3.94-15.87 3.97-18.18 3.97-18.53L3.97-20.70C3.97-20.77 3.97-20.83 3.94-20.90L3.94-21.82C3.90-21.86 3.90-21.89 3.90-21.92L3.90-22.46C3.87-22.46 3.87-22.50 3.87-22.53L3.87-22.91C3.84-22.94 3.84-23.01 3.84-23.04L3.84-23.30C3.81-23.42 3.78-23.65 3.78-23.81C3.78-23.94 3.74-24.06 3.74-24.19C3.71-24.26 3.71-24.32 3.71-24.35C3.84-24.38 3.90-24.54 3.90-24.77C3.90-24.99 3.81-25.15 3.62-25.25C3.58-25.28 3.55-25.34 3.46-25.38C3.36-25.38 3.30-25.41 3.26-25.44C3.23-25.44 3.23-25.44 3.20-25.47L3.10-25.47C2.85-25.57 2.66-25.60 2.34-25.60L1.57-25.60L1.54-25.57L1.34-25.57L1.31-25.54L1.28-25.54C1.25-25.54 1.22-25.54 1.18-25.50L1.15-25.50C1.12-25.47 1.12-25.47 1.09-25.47L1.06-25.47L1.02-25.44C1.02-25.44 0.99-25.44 0.96-25.41L0.93-25.41L0.93-25.38L0.90-25.38L0.90-25.34L0.86-25.34C0.83-25.31 0.83-25.31 0.83-25.28C0.80-25.28 0.77-25.25 0.77-25.22C0.74-25.12 0.70-25.12 0.67-25.02L0.67-24.96L0.64-24.96L0.64-24.61L0.67-24.58L0.67-24.51C0.67-24.48 0.67-24.48 0.70-24.45L0.70-24.42L0.74-24.38C0.74-24.35 0.74-24.35 0.77-24.35L0.77-24.29C0.80-24.26 0.80-24.26 0.83-24.26L0.90-24.16C0.99-24.13 1.09-24.06 1.22-24.03L1.28-24.03L1.31-24L1.50-24C1.50-23.97 1.50-23.97 1.54-23.97L2.18-23.97L2.18-24L2.43-24L2.43-23.74C2.40-23.58 2.37-23.33 2.37-23.17L2.37-22.91L2.37-22.62C2.34-22.53 2.34-22.43 2.34-22.34L2.34-21.15C2.34-20.99 2.34-20.90 2.37-20.83L2.40-19.94C2.50-18.50 2.46-17.25 2.37-15.55C2.34-15.52 2.34-15.52 2.34-15.49L2.34-15.14C2.30-15.10 2.30-15.10 2.30-15.07L2.30-14.75C2.30-14.69 2.30-14.62 2.27-14.59L2.27-13.73L2.30-13.73L2.30-13.60C2.34-13.50 2.34-13.38 2.37-13.28C2.37-13.18 2.37-13.06 2.40-12.96C2.46-12.61 2.59-12.26 2.75-11.90C2.85-11.74 2.94-11.58 3.07-11.46L3.07-11.42L3.10-11.42L3.17-11.36L3.20-11.36C3.20-11.33 3.20-11.33 3.23-11.33L3.26-11.30C3.30-11.30 3.30-11.30 3.30-11.26L3.39-11.26C3.49-11.23 3.55-11.20 3.58-11.20L4.45-11.20C4.54-11.23 4.67-11.23 4.90-11.23L5.09-11.23C5.12-11.26 5.15-11.26 5.18-11.26L5.47-11.26C5.57-11.26 5.63-11.26 5.66-11.30L5.98-11.30C6.05-11.33 6.11-11.33 6.21-11.33L6.56-11.33L6.59-11.36L7.07-11.36C7.10-11.39 7.14-11.39 7.17-11.39L7.68-11.39C7.71-11.39 7.71-11.39 7.74-11.42L9.06-11.42L9.06-11.20C9.02-11.10 9.02-11.04 9.02-10.94L9.02-10.53C8.99-10.37 8.99-10.24 8.99-10.08L8.99-9.47C8.96-9.25 8.96-9.06 8.96-8.83L8.96-8.16C8.93-7.94 8.93-7.71 8.93-7.49C8.93-7.04 8.80-5.38 8.80-5.22L8.80-4.93L8.77-4.90L8.77-4.38L8.74-4.35L8.74-3.81C8.70-3.78 8.70-3.74 8.70-3.71L8.70-2.30C8.74-2.27 8.74-2.27 8.74-2.24L8.74-1.98C8.74-1.82 8.74-1.70 8.77-1.63L8.77-1.34C8.77-1.22 8.77-1.12 8.80-1.02L8.80-0.64C8.83-0.54 8.83-0.42 8.83-0.26C8.83-0.13 8.83 0 8.86 0.10L8.86 1.06C8.86 1.54 8.83 1.92 8.80 2.34L8.70 3.01C8.67 3.04 8.67 3.07 8.67 3.14C8.67 3.17 8.67 3.20 8.64 3.20L8.64 3.36L8.61 3.36L8.61 3.49C8.58 3.49 8.58 3.52 8.58 3.55C8.58 3.58 8.58 3.62 8.54 3.62L8.54 3.68L8.48 3.74C8.48 3.78 8.45 3.81 8.42 3.90L8.06 4.19C8.06 4.22 8.06 4.22 8.03 4.22L8 4.26L7.97 4.26C7.97 4.29 7.97 4.29 7.94 4.29L7.90 4.29L7.84 4.35C7.81 4.35 7.81 4.35 7.78 4.38L7.74 4.38C7.74 4.42 7.65 4.45 7.62 4.45C7.52 4.51 7.46 4.54 7.36 4.58L7.07 4.67C6.62 4.86 5.82 5.02 5.44 5.02L5.31 5.02C5.28 4.99 5.25 4.99 5.18 4.99C5.18 4.96 5.18 4.96 5.15 4.96C5.12 4.96 5.12 4.96 5.09 4.93L5.06 4.93L5.02 4.90C4.99 4.90 4.99 4.90 4.99 4.86L4.96 4.86C4.93 4.83 4.90 4.83 4.90 4.80L4.80 4.70C4.77 4.67 4.77 4.67 4.77 4.64L4.74 4.61C4.70 4.58 4.70 4.58 4.70 4.54L4.64 4.48C4.51 4.26 4.38 4.03 4.29 3.68L4.29 3.62C4.26 3.58 4.26 3.55 4.26 3.52L4.19 3.26C4.16 3.14 4.10 2.94 4.10 2.78C4.10 2.72 4.10 2.66 4.06 2.59C4 2.18 3.97 1.79 3.94 1.41C3.90 1.02 3.90 0.67 3.87 0.35L3.87-1.66C3.87-1.70 3.87-1.70 3.90-1.70L3.90-2.62C3.94-2.72 3.94-2.82 3.94-2.91L3.94-3.46C3.94-3.52 3.94-3.58 3.97-3.62L3.97-4.13C3.97-4.22 4-5.73 4.03-5.76L4.10-6.78C4.13-7.10 4.13-7.23 4.13-7.26L4.13-7.42C4.10-7.46 4.10-7.46 4.10-7.49L4.10-7.55L4-7.94L4-7.97C3.97-7.97 3.97-7.97 3.97-8L3.97-8.03L3.94-8.06L3.94-8.10C3.90-8.10 3.90-8.10 3.90-8.13L3.90-8.16L3.84-8.22L3.84-8.29L3.81-8.29L3.81-8.32C3.78-8.32 3.78-8.32 3.78-8.35L3.71-8.42L3.68-8.42L3.68-8.45L3.65-8.45C3.65-8.48 3.65-8.48 3.62-8.48L3.58-8.51C3.55-8.51 3.55-8.51 3.55-8.54C3.52-8.54 3.52-8.54 3.52-8.58L3.46-8.58L3.42-8.61C3.39-8.61 3.36-8.61 3.33-8.64L3.01-8.64C2.98-8.67 2.94-8.67 2.91-8.67L2.05-8.67C2.02-8.64 2.02-8.64 1.98-8.64C1.89-8.64 1.79-8.64 1.76-8.61L1.60-8.61C1.57-8.58 1.54-8.58 1.50-8.58L1.28-8.51L1.25-8.51C1.22-8.48 1.22-8.48 1.18-8.48C1.15-8.48 1.12-8.45 1.09-8.42C0.99-8.38 0.93-8.32 0.90-8.29C0.74-8.19 0.70-8.10 0.70-7.87L0.70-7.74C0.74-7.74 0.74-7.74 0.74-7.71L0.74-7.65L0.77-7.62C0.77-7.58 0.77-7.58 0.80-7.55L0.93-7.42C0.96-7.39 0.96-7.39 0.99-7.39L1.06-7.33L1.09-7.33L1.09-7.30L1.15-7.30C1.15-7.26 1.15-7.26 1.18-7.26L1.22-7.26L1.22-7.23L1.28-7.23C1.31-7.20 1.41-7.17 1.54-7.17C1.60-7.14 1.66-7.14 1.70-7.10L1.82-7.10C1.86-7.07 1.89-7.07 1.92-7.07L2.11-7.07C2.14-7.04 2.24-7.04 2.34-7.04L2.53-7.04L2.53-6.75C2.56-6.72 2.56-6.62 2.56-6.53C2.56-6.02 2.40-4.35 2.40-4.26L2.37-4.22L2.37-3.52C2.34-3.46 2.34-3.36 2.34-3.23L2.34-2.85C2.34-2.69 2.34-2.56 2.30-2.43L2.30-1.44C2.27-1.28 2.27-1.12 2.27-0.96L2.27 0.74C2.27 0.77 2.27 0.77 2.30 0.80L2.30 1.34C2.30 1.41 2.30 1.44 2.34 1.47L2.34 1.76C2.34 1.79 2.34 1.82 2.37 1.86L2.37 2.08C2.40 2.43 2.46 2.75 2.50 3.10L2.56 3.36C2.56 3.46 2.59 3.52 2.62 3.62L2.62 3.71C2.66 3.74 2.66 3.78 2.66 3.81L2.66 3.87C2.69 3.87 2.69 3.90 2.69 3.94C2.69 3.97 2.69 3.97 2.72 3.97L2.72 4.03C2.72 4.06 2.72 4.10 2.75 4.13C2.78 4.19 2.78 4.26 2.82 4.29C2.82 4.35 2.82 4.42 2.85 4.48L3.04 4.96C3.04 4.99 3.04 4.99 3.07 4.99L3.10 5.06C3.10 5.09 3.10 5.09 3.14 5.12C3.14 5.15 3.17 5.22 3.20 5.25C3.20 5.28 3.20 5.28 3.23 5.28L3.23 5.34L3.30 5.41C3.30 5.44 3.30 5.44 3.33 5.47C3.33 5.50 3.36 5.57 3.39 5.60C3.46 5.66 3.49 5.73 3.52 5.76C3.78 6.08 4.06 6.30 4.42 6.46C4.48 6.50 4.61 6.56 4.77 6.59C4.80 6.59 4.83 6.59 4.86 6.62L4.99 6.62C5.02 6.66 5.09 6.66 5.18 6.66C5.86 6.66 6.69 6.59 7.17 6.53L7.78 6.43C7.84 6.40 7.90 6.40 8 6.37C8.06 6.37 8.13 6.37 8.19 6.34L8.22 6.30L8.29 6.30C8.38 6.27 8.42 6.24 8.42 6.24C8.45 6.24 8.51 6.21 8.61 6.18L8.67 6.18C8.70 6.14 8.70 6.14 8.74 6.14C8.74 6.14 8.77 6.11 8.86 6.08C9.02 5.98 9.09 5.95 9.22 5.82L9.28 5.76C9.38 5.66 9.44 5.57 9.54 5.44C9.54 5.41 9.54 5.41 9.57 5.41L9.57 5.38L9.63 5.31C9.66 5.22 9.70 5.18 9.70 5.18L9.70 5.15C9.79 5.02 9.82 4.93 9.86 4.86C9.86 4.83 9.86 4.83 9.89 4.80L9.89 4.77L9.92 4.77L9.92 4.67L10.05 4.35L10.14 4.03C10.14 4 10.14 4 10.18 4L10.18 3.90C10.21 3.87 10.21 3.84 10.21 3.81L10.21 3.78C10.24 3.74 10.24 3.68 10.24 3.65C10.24 3.62 10.24 3.55 10.27 3.52C10.27 3.49 10.27 3.49 10.30 3.46L10.30 3.42L10.40 2.88C10.40 2.72 10.40 2.53 10.43 2.37L10.43 2.24L10.46 2.21L10.46 1.86C10.46 1.79 10.46 1.73 10.50 1.66L10.50 0.10C10.46 0.06 10.46 0.03 10.46 0L10.46-0.61C10.43-0.64 10.43-0.67 10.43-0.70L10.43-0.99C10.43-1.09 10.43-1.15 10.40-1.22L10.40-1.44C10.40-1.60 10.40-1.70 10.37-1.76L10.37-2.14C10.37-2.30 10.37-2.40 10.34-2.50L10.34-4.80C10.37-4.83 10.37-4.90 10.37-4.96C10.37-5.54 10.46-7.23 10.50-7.39L10.50-8.45C10.53-8.54 10.53-8.70 10.53-8.93L10.53-9.25C10.53-9.38 10.53-9.47 10.56-9.54L10.56-10.11C10.56-10.18 10.56-10.21 10.59-10.24L10.59-10.75C10.59-10.78 10.59-10.85 10.62-10.88L10.62-11.36C10.62-11.46 10.62-11.55 10.66-11.65C10.69-12.26 10.69-12.83 10.72-13.41C10.75-13.98 10.75-14.59 10.75-15.20ZM10.50-7.39L10.50-7.23ZM24.03 5.86C24.03 6.30 23.62 6.46 23.26 6.46C22.59 6.46 22.43 6.05 22.30 5.57C21.89 4.42 21.86 3.10 21.73 1.92C21.63 0.80 21.44-0.29 21.31-1.41C21.18-2.46 21.02-3.52 20.93-4.58C20.70-6.53 20.61-8.51 20.22-10.43L20.10-10.94C20.06-11.04 19.94-11.04 19.78-11.04L19.46-11.04C19.30-11.04 17.57-11.20 17.54-11.17C17.50-10.82 17.44-10.50 17.41-10.18C17.22-8.83 17.02-7.49 16.80-6.11C16.54-4.16 16.26-2.21 15.97-0.26C15.84 0.51 15.74 1.28 15.65 2.05C15.58 2.56 15.49 3.07 15.42 3.58C15.36 4.22 15.23 4.86 15.07 5.50C14.94 5.98 14.98 6.50 14.40 6.66C13.89 6.82 13.54 6.40 13.41 5.95C13.34 5.76 13.31 5.57 13.31 5.38C13.31 5.25 13.34 5.15 13.34 5.02C13.38 4.70 13.50 4.38 13.50 4.03C13.70 3.49 13.73 2.85 13.79 2.27C14.11 0.26 14.43-1.76 14.78-3.78C15.23-6.24 15.65-8.70 16.10-11.17C15.87-11.14 15.58-11.10 15.30-11.10C14.75-11.10 14.21-11.23 14.21-11.84C14.21-12.06 14.27-12.22 14.37-12.35C14.56-12.61 14.91-12.67 15.33-12.67C15.62-12.67 15.94-12.61 16.16-12.61C16.45-12.58 16.38-12.77 16.42-13.06C16.54-13.66 16.61-14.24 16.70-14.82C16.80-15.84 16.86-16.48 16.93-17.50C17.06-18.72 17.22-19.94 17.38-21.12C17.47-22.08 17.70-22.98 17.86-23.90C17.34-24.03 16.22-23.81 16.22-24.70C16.22-25.38 17.22-25.50 17.92-25.50C18.14-25.50 18.37-25.47 18.50-25.47C18.94-25.47 19.46-25.38 19.52-24.86C19.55-24.64 19.68-24.42 19.71-24.19L19.81-23.74C20.03-22.69 20.13-21.54 20.16-20.42C20.19-19.55 20.45-18.59 20.61-17.76C20.74-17.09 20.83-16.80 20.90-16.13C20.96-15.49 21.06-14.88 21.18-14.27C21.38-13.44 21.60-12.64 21.60-11.81C21.60-10.40 21.89-9.06 22.08-7.68C22.24-6.30 22.50-4.90 22.75-3.49C22.91-2.53 23.04-1.54 23.20-0.54C23.42 0.51 23.55 1.57 23.71 2.62C23.94 3.71 24.03 4.77 24.03 5.86ZM19.68-12.70C19.58-14.02 19.39-16.96 19.17-18.24C19.04-18.98 19.01-19.68 18.91-20.38C18.88-20.74 18.78-21.12 18.78-21.47C18.40-19.04 18.14-14.98 17.73-12.58C18.40-12.58 19.68-12.70 19.68-12.70ZM35.97-4.35C35.97-2.82 35.94-1.22 35.90 0.35C35.90 0.96 36 1.60 35.97 2.21C35.90 2.85 35.87 3.49 35.81 4.13C35.81 4.42 35.81 4.70 35.74 4.99C35.71 5.31 35.94 5.41 35.94 5.73C35.94 6.24 35.33 6.53 34.88 6.62C34.66 6.82 34.14 6.46 34.02 6.30C33.89 6.14 33.82 5.92 33.82 5.70C33.82 5.31 33.95 4.93 33.98 4.61C34.11 3.23 34.34 1.82 34.34 0.45C34.34-0.96 34.27-2.37 34.21-3.78C34.18-4.48 34.11-5.12 34.02-5.79C33.89-6.53 33.70-7.26 33.66-7.97L33.66-8.99C33.66-9.38 33.66-9.73 33.57-10.02C33.41-10.59 32.90-10.69 32.38-10.82C31.94-10.91 31.42-10.98 30.98-11.01C30.66-11.04 30.34-11.04 30.02-11.04C29.86-11.01 29.70-11.01 29.57-10.98C29.31-10.98 29.12-11.04 29.12-10.75C29.25-9.31 29.31-7.65 29.31-6.21C29.31-3.30 29.38-0.38 29.41 2.53L29.41 4.83C29.41 5.25 29.38 5.73 29.15 6.05C29.15 6.24 28.77 6.34 28.51 6.34C28.45 6.34 28.35 6.34 28.32 6.30C27.94 6.11 27.74 5.92 27.68 5.47C27.62 5.22 27.62 4.96 27.62 4.67L27.62 3.87C27.62 3.10 27.58 2.37 27.58 1.60C27.55 0.13 27.55-1.38 27.55-2.85C27.58-5.79 27.68-8.77 27.71-11.71L27.71-13.12C27.71-14.08 27.71-15.01 27.62-15.94C27.49-17.38 27.33-18.82 27.30-20.26C27.23-21.54 27.14-22.53 27.14-23.62C27.14-23.90 26.82-23.87 26.37-23.87C26.18-23.87 25.79-24 25.79-24.61C25.79-24.67 25.82-24.77 25.86-24.86C26.11-25.38 26.72-25.38 27.10-25.38C27.14-25.38 27.20-25.38 27.23-25.41C27.42-25.54 27.55-25.73 27.74-25.86C27.84-25.92 27.97-25.98 28.10-25.98C28.35-25.98 28.58-25.82 28.67-25.57C28.70-25.41 28.77-25.28 28.83-25.12C28.90-25.02 29.38-24.96 29.54-24.86C30.14-24.58 30.69-24.32 31.20-23.87C31.71-23.42 32.26-23.01 32.77-22.56C33.76-21.66 34.69-20.64 35.20-19.39C35.46-18.75 35.55-18.11 35.55-17.47C35.55-16.77 35.46-16.10 35.23-15.46C35.01-14.75 34.66-14.11 34.21-13.57C33.70-12.96 32.70-12.48 32.03-12.06C32.32-12 32.58-12.03 33.15-11.94C33.44-11.87 33.89-11.84 34.14-11.71C34.88-11.39 35.30-10.30 35.39-9.57C35.49-8.64 35.46-7.74 35.62-6.82C35.94-5.02 35.97-4.67 35.97-4.35ZM33.50-16C33.63-16.48 33.73-16.99 33.73-17.50C33.73-17.86 33.66-18.21 33.57-18.56C33.38-19.17 32.99-19.84 32.61-20.35C32.13-20.99 31.55-21.44 30.94-21.95C30.66-22.21 30.30-22.40 29.98-22.62C29.66-22.85 29.34-23.10 28.99-23.26C28.99-21.79 29.09-20.29 29.09-18.75C29.09-18.40 29.06-18.02 29.06-17.63C29.06-16.70 28.96-15.78 28.99-14.82C29.02-14.53 29.02-14.24 29.02-13.92L29.02-13.57C29.02-13.31 28.99-13.09 28.99-12.90C28.99-12.67 29.02-12.48 29.09-12.29C29.57-12.48 30.11-12.48 30.59-12.70C30.85-12.80 31.04-12.83 31.26-13.02C31.46-13.18 31.84-13.54 32.06-13.70C32.77-14.24 33.15-15.01 33.50-16ZM46.50 5.73C46.50 6.14 46.30 6.37 45.92 6.40C45.82 6.43 45.70 6.43 45.60 6.43C45.47 6.43 45.34 6.43 45.25 6.46C45.02 6.50 44.80 6.50 44.58 6.50C44.16 6.50 43.74 6.53 43.39 6.53C43.23 6.56 43.04 6.56 42.88 6.59C42.85 6.62 42.82 6.62 42.82 6.62C42.78 6.62 42.78 6.62 42.78 6.59L41.50 6.59C41.25 6.56 40.99 6.56 40.74 6.53C40.48 6.53 40.22 6.50 39.97 6.46C39.74 6.46 39.55 6.27 39.46 6.14L39.36 5.95L39.36 5.89C39.33 5.89 39.33 5.89 39.33 5.86L39.33 5.60L39.42 5.38C39.52 5.22 39.68 5.12 39.90 5.02C39.94 4.99 39.94 4.99 39.97 4.99L40.03 4.99C40.06 4.99 40.06 4.99 40.10 4.96L40.16 4.96C40.29 4.96 40.38 4.96 40.45 4.93L40.74 4.93C40.77 4.93 40.77 4.93 40.80 4.90L41.31 4.90C41.41 4.90 41.54 4.90 41.63 4.86L41.95 4.86L41.95 2.11L41.92 2.11L41.92-5.79C41.95-5.95 41.95-6.14 41.95-6.34L41.95-6.85C41.95-7.04 41.95-7.23 41.98-7.46C41.98-7.84 42.02-8.32 42.02-8.93L42.02-14.46C42.02-14.56 42.02-14.69 41.98-14.78C41.98-15.26 42.08-15.74 42.02-16.22C41.98-16.38 41.98-16.51 41.98-16.64C41.95-16.77 41.95-16.90 41.92-17.06C41.92-17.28 41.92-17.44 41.89-17.54L41.89-17.92C41.89-18.02 41.89-18.14 41.86-18.27L41.86-19.26C41.86-19.58 41.86-19.90 41.82-20.26L41.79-21.57L41.76-22.82L41.76-23.23C41.73-23.33 41.73-23.46 41.73-23.55L41.73-23.84L40.86-23.84C40.70-23.87 40.58-23.87 40.45-23.87C40.32-23.87 40.19-23.87 40.06-23.90L40-23.90C39.90-23.94 39.81-23.94 39.74-23.94C39.65-23.94 39.55-23.94 39.46-23.97L39.42-23.97C39.23-24.03 39.10-24.13 39.04-24.22C38.91-24.32 38.85-24.48 38.85-24.70L38.85-24.74C38.88-24.96 38.94-25.09 39.01-25.18L39.07-25.25C39.07-25.28 39.10-25.28 39.14-25.31C39.26-25.41 39.36-25.44 39.46-25.44L39.62-25.44L39.65-25.47L39.90-25.47C39.94-25.50 40-25.50 40.10-25.50L40.32-25.50C40.42-25.54 40.54-25.54 40.64-25.54L40.96-25.54C41.12-25.57 41.28-25.57 41.44-25.57L41.89-25.57L42.43-25.57C42.62-25.57 42.82-25.57 43.04-25.54C43.39-25.50 44.10-25.50 44.48-25.47C45.25-25.44 46.30-25.57 46.30-24.70C46.30-24.42 46.18-24.22 45.95-24.13L45.70-24.06C45.63-24.06 45.57-24.06 45.54-24.03L45.38-24.03C45.31-24.03 45.25-24.03 45.22-24L44.99-24C44.77-23.97 44.51-23.94 44.29-23.94L43.68-23.94C43.62-23.90 43.55-23.90 43.46-23.90L43.46-23.78C43.46-23.74 43.46-23.74 43.49-23.74L43.49-23.30C43.46-23.26 43.46-23.20 43.46-23.17L43.46-21.98L43.49-21.95L43.49-21.31L43.52-21.28L43.52-19.97C43.52-19.74 43.52-19.52 43.55-19.30C43.58-18.85 43.58-18.40 43.58-17.98C43.58-17.54 43.55-17.09 43.52-16.64C43.52-16.51 43.52-16.42 43.49-16.32L43.36-14.53C43.39-14.46 43.39-14.37 43.39-14.24L43.39-12.16C43.42-12.06 43.42-12 43.42-11.90L43.42-11.65C43.42-11.49 43.42-11.33 43.46-11.17C43.46-10.88 43.49-10.43 43.52-9.89L43.52-8.06L43.55-7.52L43.55-5.70L43.58-3.90L43.58 0.06C43.58 0.38 43.58 0.70 43.62 0.99C43.62 1.31 43.62 1.63 43.65 1.95L43.65 4.90L43.78 4.90C44 4.93 44.26 4.93 44.48 4.93L45.22 5.02C45.44 5.02 45.66 5.06 45.92 5.09C46.05 5.09 46.14 5.12 46.21 5.18L46.34 5.28C46.43 5.44 46.50 5.57 46.50 5.73ZM60.61 3.10L60.61 4.64C60.61 4.80 60.58 4.96 60.58 5.12C60.58 5.22 60.58 5.31 60.61 5.38C60.64 5.47 60.64 5.57 60.64 5.66C60.64 6.18 60.22 6.66 59.68 6.66C59.39 6.66 59.14 6.50 58.88 6.30C58.46 5.92 58.50 5.15 58.34 4.64C57.92 3.33 57.63 1.95 57.25 0.64C56.86-0.77 56.48-2.14 56.16-3.55C55.81-4.96 55.46-6.05 55.20-7.46C55.07-8.10 55.01-8.77 54.85-9.38C54.69-9.89 54.46-10.53 54.14-10.98C53.89-11.33 53.95-11.87 53.89-12.29C53.79-12.93 53.76-13.57 53.57-14.21C53.41-14.82 53.12-15.42 52.96-16.03C52.67-17.06 52.58-17.76 52.45-18.43C52.32-18.94 52.13-19.42 51.94-19.94C51.84-20.29 51.84-20.77 51.55-21.02C51.55-19.07 51.52-17.12 51.52-15.17C51.52-14.18 51.62-12.86 51.65-11.87C51.74-8.96 51.84-6.34 51.87-3.42C51.87-1.47 51.90 0.42 51.90 2.37C51.90 3.33 51.90 4.32 51.87 5.34C51.87 5.86 51.81 6.56 51.07 6.56C50.69 6.56 50.40 6.21 50.27 5.86C50.18 5.54 50.14 5.15 50.14 4.77C50.14 4.19 50.21 3.58 50.21 3.07C50.21 1.60 50.18 0.13 50.18-1.34C50.18-2.82 50.21-4.32 50.24-5.79C50.27-7.30 50.30-9.12 50.30-10.94C50.30-12.10 50.30-13.22 50.27-14.34C50.24-15.81 50.08-17.25 50.02-18.69C49.95-20.13 49.95-21.57 49.92-23.01C49.92-23.55 49.70-23.55 49.25-23.65C48.93-23.74 48.74-24.03 48.74-24.35C48.74-24.48 48.77-24.61 48.86-24.74C49.06-24.99 49.41-25.09 49.70-25.09C49.86-25.09 50.02-25.12 50.11-25.25C50.24-25.47 50.50-25.57 50.75-25.57C50.94-25.57 51.14-25.50 51.26-25.38C51.52-25.09 51.84-25.09 52-24.70C52.19-24.19 52.32-23.68 52.45-23.17C52.58-22.66 52.67-22.14 52.86-21.66C53.06-21.09 53.31-20.58 53.44-19.97C53.54-19.62 53.50-19.10 53.73-18.78C54.02-18.37 54.11-17.73 54.24-17.22C54.53-16.10 54.91-14.98 55.23-13.82C55.81-11.62 56.19-9.38 56.83-7.17C57.18-6.02 57.60-3.94 57.82-2.43C57.92-1.89 58.56 0.42 58.72 0.96C58.88 1.47 58.98 2.02 59.23 2.53C59.23 0.06 59.20-3.74 58.98-7.90C58.94-8.38 58.98-8.90 58.98-9.38C58.94-10.50 58.78-11.62 58.78-12.74C58.78-12.99 58.78-13.28 58.82-13.54C58.85-14.08 58.88-14.59 58.88-15.14C58.88-16.03 58.85-16.90 58.88-17.79C58.91-19.26 58.85-20.67 58.75-22.11C58.72-22.88 58.59-23.68 58.59-24.42C58.59-24.77 58.69-25.12 58.98-25.41C59.10-25.54 59.23-25.57 59.39-25.57C59.68-25.57 60-25.41 60.16-25.22C60.35-25.02 60.38-24.74 60.38-24.45C60.38-24.13 60.35-23.78 60.32-23.52C60.29-22.24 60.16-20.96 60.16-19.68C60.16-18.56 60.22-17.47 60.22-16.38C60.26-15.39 60.26-14.40 60.38-13.41C60.42-13.15 60.45-12.90 60.45-12.61C60.45-11.68 60.22-10.78 60.22-9.73C60.22-8.99 60.29-8.26 60.32-7.49C60.42-6.43 60.45-5.70 60.45-4.64C60.45-4.32 60.38-3.97 60.38-3.65C60.38-3.49 60.42-3.36 60.42-3.20C60.42-3.04 60.38-2.94 60.38-2.78C60.38-2.56 60.48-2.37 60.48-2.14L60.48-2.05C60.45-1.66 60.45-1.22 60.45-0.77C60.45 1.06 60.61 3.23 60.61 3.10Z"/></svg>