<svg id="mainsvg" xmlns="http://www.w3.org/2000/svg" xmlns:xlink="http://www.w3.org/1999/xlink" version="1.1" x="0px" y="0px" enable-background="new 0 0 200 162.5" xml:space="preserve" viewBox="0 0 103 24"><path fill="#000" transform="translate(-0.640625, 23.015625)" d="M0.64-23.02L14.53-23.02L14.53-17.22Q13.34-17.22 12.88-16.85Q12.42-16.48 12.42-15.64L12.42-15.64L12.42-8.42Q12.42-7.84 12.55-7.31Q12.67-6.78 12.98-6.37Q13.28-5.95 13.79-5.71Q14.30-5.47 15.08-5.47L15.08-5.47Q16.58-5.47 17.27-6.26Q17.95-7.05 17.95-8.39L17.95-8.39L17.95-15.58Q17.95-16.55 17.38-16.88Q16.80-17.22 15.78-17.22L15.78-17.22L15.78-23.02L26.08-23.02L26.08-17.22Q25.03-17.22 24.47-16.91Q23.91-16.61 23.91-15.64L23.91-15.64L23.91-8.19Q23.91-6.75 23.54-5.20Q23.17-3.64 22.10-2.35Q21.03-1.06 19.05-0.21Q17.06 0.64 13.80 0.64L13.80 0.64Q11.42 0.64 9.71 0.21Q8-0.22 6.81-0.92Q5.63-1.63 4.92-2.52Q4.22-3.42 3.84-4.38Q3.45-5.34 3.33-6.26Q3.20-7.17 3.20-7.94L3.20-7.94L3.20-15.45Q3.20-16.48 2.61-16.85Q2.02-17.22 0.64-17.22L0.64-17.22L0.64-23.02ZM28-23.02L38.91-23.02L38.91-7.48Q38.91-6.44 39.42-6.12Q39.94-5.80 40.73-5.80L40.73-5.80L41.16-5.80L41.16 0L28 0L28-5.80L28.61-5.80Q29.44-5.80 29.84-6.32Q30.23-6.84 30.23-7.45L30.23-7.45L30.23-15.45Q30.23-16.36 29.66-16.79Q29.09-17.22 28.34-17.22L28.34-17.22L28-17.22L28-23.02ZM47.33-23.02L53.05-23.02L53.05-17.22L57.72-17.22L57.72-11.42L53.05-11.42L53.05-6.63Q53.05-5.59 53.34-4.94Q53.63-4.28 54.53-4.28L54.53-4.28Q55.03-4.28 55.34-4.48Q55.64-4.67 55.82-4.99Q56-5.31 56.05-5.73Q56.09-6.14 56.09-6.63L56.09-6.63L56.09-8.95L57.89-8.95L57.89-6.44Q57.89-4.92 57.57-3.61Q57.25-2.30 56.48-1.34Q55.70-0.39 54.38 0.17Q53.05 0.73 51.03 0.73L51.03 0.73Q48.80 0.73 47.47 0.19Q46.14-0.36 45.45-1.31Q44.77-2.27 44.55-3.58Q44.34-4.89 44.34-6.44L44.34-6.44L44.34-11.42L41.89-11.42L41.89-16.58Q43.06-16.58 44.07-17.09Q45.08-17.59 45.80-18.49Q46.53-19.39 46.93-20.55Q47.33-21.70 47.33-23.02L47.33-23.02ZM59.48-17.22L68.77-17.22L68.50-12.92L68.77-12.92Q69.31-15.39 70.59-16.66Q71.86-17.92 73.89-17.92L73.89-17.92Q75.09-17.92 75.96-17.54Q76.83-17.16 77.36-16.52Q77.89-15.88 78.13-15.04Q78.36-14.20 78.36-13.31L78.36-13.31Q78.36-12.58 78.14-11.86Q77.92-11.14 77.44-10.56Q76.95-9.98 76.19-9.63Q75.42-9.28 74.30-9.28L74.30-9.28Q72.73-9.28 71.84-10.08Q70.94-10.88 70.94-12L70.94-12Q70.94-12.55 71.06-12.93Q71.19-13.31 71.32-13.55Q71.45-13.80 71.50-13.91Q71.55-14.02 71.39-14.02L71.39-14.02Q71.06-14.02 70.68-13.27Q70.30-12.52 70.30-10.91L70.30-10.91L70.30-7.33Q70.30-6.50 70.59-6.15Q70.88-5.80 71.70-5.80L71.70-5.80L72.64-5.80L72.64 0L59.48 0L59.48-5.80L60.41-5.80Q61.05-5.80 61.38-6.21Q61.72-6.63 61.72-7.20L61.72-7.20L61.72-10.17Q61.72-10.91 61.29-11.16Q60.86-11.42 60.31-11.42L60.31-11.42L59.48-11.42L59.48-17.22ZM87.67-15.05L87.67-15.05Q86.88-15.05 86.30-14.93Q85.73-14.81 85.33-14.66Q84.92-14.50 84.66-14.30Q84.39-14.11 84.19-13.95L84.19-13.95L84.34-13.80Q84.64-13.95 84.99-14.11Q85.34-14.27 85.89-14.27L85.89-14.27Q86.81-14.27 87.48-13.66Q88.16-13.06 88.16-11.75L88.16-11.75Q88.16-10.50 87.13-9.74Q86.11-8.98 84.39-8.98L84.39-8.98Q82.75-8.98 81.77-9.93Q80.80-10.88 80.80-12.61L80.80-12.61Q80.80-13.56 81.33-14.51Q81.86-15.45 82.98-16.20Q84.09-16.95 85.82-17.44Q87.55-17.92 89.98-17.92L89.98-17.92Q92.89-17.92 94.73-17.38Q96.58-16.83 97.60-15.97Q98.63-15.11 99.01-14.02Q99.39-12.92 99.39-11.81L99.39-11.81L99.39-5.70Q99.39-4.28 99.48-3.77Q99.58-3.27 100.19-3.27L100.19-3.27Q100.67-3.27 100.87-3.73Q101.06-4.19 101.06-5.31L101.06-5.31L101.06-7.27L102.84-7.27L102.84-5.28Q102.84-3.88 102.61-2.79Q102.38-1.70 101.72-0.93Q101.06-0.16 99.94 0.24Q98.81 0.64 97.06 0.64L97.06 0.64Q95.48 0.64 94.45 0.30Q93.41-0.03 92.80-0.53Q92.19-1.03 91.93-1.57Q91.67-2.11 91.67-2.53L91.67-2.53L91.42-2.53Q91.33-1.89 90.88-1.31Q90.44-0.73 89.65-0.29Q88.86 0.16 87.76 0.43Q86.66 0.70 85.25 0.70L85.25 0.70Q83.91 0.70 82.80 0.45Q81.70 0.19 80.93-0.37Q80.16-0.92 79.73-1.80Q79.30-2.69 79.30-3.91L79.30-3.91Q79.30-5.41 80.14-6.27Q80.98-7.14 82.27-7.65Q83.55-8.16 85.05-8.48Q86.56-8.80 87.84-9.25Q89.13-9.70 89.97-10.42Q90.81-11.14 90.81-12.45L90.81-12.45Q90.81-13.63 90.08-14.34Q89.34-15.05 87.67-15.05ZM90.81-5.95L90.81-8.28Q90.47-7.78 89.95-7.48Q89.44-7.17 88.96-6.88Q88.48-6.59 88.13-6.20Q87.78-5.80 87.78-5.13L87.78-5.13Q87.78-4.61 88.06-4.20Q88.34-3.78 89.16-3.78L89.16-3.78Q89.89-3.78 90.35-4.35Q90.81-4.92 90.81-5.95L90.81-5.95Z"/></svg>