<svg id="mainsvg" xmlns="http://www.w3.org/2000/svg" xmlns:xlink="http://www.w3.org/1999/xlink" version="1.1" x="0px" y="0px" enable-background="new 0 0 200 162.5" xml:space="preserve" viewBox="0 0 151 29"><path fill="#000" transform="translate(-1.703125, 25.59375)" d="M-1.70-3.52L-1.70-3.52L-1.70-5.73Q-1.70-7.16-1.66-8.63Q-1.61-10.09-1.47-11.57Q-1.33-13.05-1.08-14.52Q-0.83-16-0.42-17.42L-0.42-17.42L0-17.58Q0.56-17.58 1.27-17.38Q1.98-17.17 2.64-16.85Q3.30-16.53 3.81-16.14Q4.33-15.75 4.48-15.36L4.48-15.36L4.48-13.63Q4.48-12.14 4.26-10.80Q4.03-9.47 3.66-8.17Q3.28-6.88 2.77-5.55Q2.27-4.23 1.70-2.81L1.70-2.81Q1.55-2.44 1.25-2.29Q0.95-2.14 0.64-2.14L0.64-2.14Q0.25-2.14-0.17-2.21Q-0.59-2.28-0.93-2.45Q-1.27-2.61-1.48-2.87Q-1.70-3.13-1.70-3.52ZM3.50-17.95Q-0.48-17.83 0.17-21.08L0.17-21.08Q0.22-21.59 0.36-22.13Q0.50-22.66 1.18-23.50Q1.86-24.34 3.34-24.02Q4.81-23.70 5.25-22.83Q5.69-21.95 5.78-21.20Q5.88-20.45 5.50-19.58Q5.13-18.70 4.56-18.19L4.56-18.19Q4.41-18.06 4.11-18.01Q3.81-17.95 3.50-17.95L3.50-17.95ZM7.64 1.70L7.64 1.70L7.64-0.42Q7.64-2.91 7.84-5.39Q8.03-7.88 8.23-10.35Q8.42-12.83 8.53-15.30Q8.64-17.78 8.48-20.27L8.48-20.27Q8.66-20.58 8.84-20.74Q9.03-20.91 9.34-20.91L9.34-20.91Q10.84-20.91 11.68-20.58Q12.52-20.25 13.38-19.34Q14.25-18.42 14.88-17.24Q15.52-16.06 15.65-13.60Q15.78-11.14 16.55-9.14Q17.33-7.14 17.95-8.94L17.95-8.94Q19.23-13.88 19.37-14.83Q19.50-15.78 19.63-16.64Q19.75-17.50 19.86-18.13Q19.97-18.77 20.02-18.98L20.02-18.98Q20.02-19.06 20.09-19.48Q20.16-19.91 20.26-20.43Q20.36-20.95 20.47-21.45Q20.58-21.95 20.66-22.19L20.66-22.19Q20.73-22.52 20.83-22.98Q20.92-23.45 21.08-23.89Q21.23-24.33 21.49-24.64Q21.75-24.95 22.14-24.95L22.14-24.95Q22.86-24.95 23.38-24.63Q23.91-24.30 24.25-23.78Q24.59-23.27 24.76-22.62Q24.92-21.97 24.92-21.33L24.92-21.33Q24.92-20.81 24.88-19.73Q24.83-18.66 24.73-17.26Q24.63-15.86 24.46-14.24Q24.30-12.63 24.04-11.02Q23.78-9.41 23.45-7.91Q23.11-6.42 22.66-5.28Q22.22-4.14 21.67-3.45Q21.13-2.77 20.44-2.77L20.44-2.77Q19.38-2.77 18.47-3.23Q17.56-3.69 16.84-4.38Q16.11-5.06 15.53-5.86L15.53-5.86Q14.55-7.22 13.83-8.95L13.83-8.95L13.61-8.95Q13.53-8.67 13.48-8.03Q13.44-7.39 13.38-6.53Q13.33-5.67 13.26-4.66Q13.19-3.66 13.05-2.64Q12.92-1.63 12.72-0.69Q12.52 0.25 12.20 0.97Q11.89 1.69 11.45 2.13Q11 2.56 10.41 2.56L10.41 2.56Q10.02 2.56 9.62 2.55Q9.22 2.53 8.86 2.45Q8.50 2.38 8.19 2.20Q7.88 2.03 7.64 1.70ZM25.92-6.19L25.92-6.19L25.92-6.61Q26.64-7.33 27.69-8.16Q28.73-8.98 29.82-9.84Q30.91-10.70 31.87-11.57Q32.83-12.44 33.39-13.23L33.39-13.23Q33.39-13.45 32.84-13.62Q32.28-13.78 31.45-13.97Q30.63-14.16 29.66-14.38Q28.69-14.59 27.86-14.91Q27.03-15.22 26.48-15.63Q25.92-16.05 25.92-16.64L25.92-16.64L25.92-17.06Q27.53-17.14 29.13-17.32Q30.73-17.50 32.34-17.68Q33.94-17.86 35.54-18Q37.14-18.14 38.73-18.14L38.73-18.14Q39.16-18.14 39.73-18.05Q40.31-17.95 40.93-17.77Q41.55-17.59 42.15-17.31Q42.75-17.03 43.23-16.65Q43.70-16.27 43.99-15.78Q44.28-15.30 44.28-14.72L44.28-14.72Q44.28-14.56 44.27-14.44Q44.27-14.31 44.20-14.21Q44.14-14.11 44.01-14.02Q43.88-13.94 43.64-13.86L43.64-13.86Q43.48-13.75 43.10-13.51Q42.72-13.27 42.23-12.95Q41.73-12.63 41.19-12.27Q40.64-11.91 40.15-11.59Q39.66-11.27 39.27-11.02Q38.89-10.78 38.73-10.67L38.73-10.67Q38.66-10.59 38.41-10.41Q38.16-10.22 37.88-10.02Q37.59-9.83 37.34-9.65Q37.09-9.47 37.02-9.39L37.02-9.39Q36.94-9.31 36.77-9.13Q36.59-8.95 36.41-8.77L36.41-8.77Q36.20-8.56 35.95-8.31L35.95-8.31L35.95-7.89Q37.39-7.89 38.73-8Q40.06-8.11 41.50-8.11L41.50-8.11L43.20-8.11Q43.44-8.03 43.74-7.88Q44.05-7.72 44.30-7.49Q44.56-7.27 44.74-6.99Q44.92-6.72 44.92-6.41L44.92-6.41Q44.92-6.25 44.40-6Q43.88-5.75 43-5.45Q42.13-5.14 40.99-4.81Q39.86-4.48 38.65-4.16Q37.44-3.84 36.23-3.55Q35.03-3.27 34.02-3.05Q33.02-2.83 32.28-2.70Q31.55-2.56 31.27-2.56L31.27-2.56Q30.95-2.56 30.43-2.73Q29.91-2.89 29.31-3.17Q28.72-3.45 28.12-3.81Q27.52-4.17 27.02-4.58Q26.53-4.98 26.23-5.40Q25.92-5.81 25.92-6.19ZM44.81-7.69L44.81-7.69Q44.81-8.16 44.88-8.60Q44.94-9.05 45.02-9.47Q45.11-9.89 45.17-10.30Q45.23-10.70 45.23-11.09L45.23-11.09Q45.23-11.52 45.05-11.85Q44.86-12.19 44.57-12.47Q44.28-12.75 43.95-13.02Q43.63-13.28 43.34-13.56Q43.05-13.84 42.86-14.18Q42.67-14.52 42.67-14.94L42.67-14.94Q42.67-15.73 43.06-16.54Q43.45-17.34 44.11-18.08Q44.77-18.81 45.61-19.45Q46.45-20.08 47.35-20.55Q48.25-21.02 49.14-21.28Q50.03-21.55 50.78-21.55L50.78-21.55Q52.02-21.55 53.16-21.24Q54.30-20.94 55.29-20.38Q56.28-19.81 57.10-19.02Q57.92-18.22 58.52-17.25Q59.11-16.28 59.43-15.16Q59.75-14.03 59.75-12.80L59.75-12.80Q59.75-11.84 59.54-10.68Q59.33-9.52 58.91-8.33Q58.48-7.14 57.86-6.02Q57.23-4.91 56.40-4.05Q55.56-3.19 54.53-2.66Q53.50-2.14 52.28-2.14L52.28-2.14Q51-2.14 49.67-2.47Q48.34-2.80 47.27-3.48Q46.19-4.16 45.50-5.20Q44.81-6.25 44.81-7.69ZM49.08-6.19L49.08-6.19Q49.08-6.11 49.09-5.90Q49.09-5.69 49.13-5.47Q49.17-5.25 49.26-5.08Q49.34-4.91 49.50-4.91L49.50-4.91Q50.36-4.91 51.12-5.50Q51.88-6.09 52.52-7.05Q53.16-8 53.66-9.17Q54.17-10.34 54.53-11.51Q54.89-12.67 55.08-13.70Q55.27-14.72 55.27-15.36L55.27-15.36Q55.27-15.63 55.26-16.02Q55.25-16.41 55.20-16.83Q55.16-17.25 55.05-17.68Q54.95-18.11 54.77-18.45Q54.58-18.78 54.28-18.99Q53.98-19.20 53.56-19.20L53.56-19.20Q53.23-19.20 52.85-19.16Q52.47-19.11 52.09-19.01Q51.70-18.91 51.36-18.74Q51.02-18.58 50.78-18.34L50.78-18.34L48.44-16Q48.27-15.83 48.24-15.68Q48.22-15.53 48.22-15.36L48.22-15.36Q48.22-15.14 48.41-14.93Q48.61-14.72 48.91-14.51Q49.20-14.30 49.58-14.08Q49.95-13.86 50.30-13.65Q50.66-13.44 50.96-13.23Q51.27-13.02 51.42-12.80L51.42-12.80L51.42-12.59Q51.42-11.95 51.05-11.23Q50.69-10.50 50.25-9.70Q49.81-8.91 49.45-8.03Q49.08-7.16 49.08-6.19ZM79.73-8.95L79.73-8.95L79.52-9.17Q79.20-9.17 78.91-8.77Q78.63-8.38 78.35-7.76Q78.08-7.14 77.81-6.40Q77.55-5.66 77.27-4.97Q77-4.28 76.72-3.74Q76.44-3.20 76.11-2.98L76.11-2.98L75.25-2.98Q74.53-2.98 73.79-3.17Q73.05-3.36 72.37-3.70Q71.69-4.05 71.12-4.52Q70.55-4.98 70.14-5.55L70.14-5.55Q70.06-5.63 69.98-5.91Q69.89-6.19 69.79-6.48Q69.69-6.78 69.56-7.02Q69.44-7.25 69.28-7.25L69.28-7.25Q69.02-7.25 68.82-6.91Q68.63-6.58 68.44-6.09Q68.25-5.59 68.03-5.01Q67.81-4.42 67.50-3.93Q67.19-3.44 66.74-3.10Q66.30-2.77 65.66-2.77L65.66-2.77Q65.33-2.77 64.95-2.81Q64.56-2.86 64.18-2.98Q63.80-3.11 63.45-3.31Q63.11-3.52 62.88-3.84L62.88-3.84L62.88-5.13Q62.88-5.44 62.95-6.17Q63.02-6.91 63.13-7.88Q63.25-8.86 63.41-9.99Q63.56-11.13 63.76-12.27Q63.95-13.41 64.16-14.47Q64.38-15.53 64.59-16.34Q64.81-17.16 65.02-17.65Q65.23-18.14 65.44-18.14L65.44-18.14Q65.97-18.14 66.69-17.98Q67.41-17.81 68.20-17.52Q69-17.23 69.64-16.79Q70.28-16.34 70.88-13.52Q71.47-10.70 72.52-8.30L72.52-8.30Q75.63-13.39 76.23-14.52Q76.84-15.64 77.34-16.72Q77.83-17.80 78.24-18.84Q78.66-19.89 79.08-20.95Q79.50-22.02 79.97-23.12Q80.44-24.22 80.85-24.86Q81.27-25.50 81.88-25.59L81.88-25.59Q82.44-25.59 83.15-25.41Q83.86-25.22 84.56-24.91L84.56-24.91Q86.25-23.59 85.77-18.36L85.77-18.36Q85.70-14.39 85.69-14.06Q85.67-13.73 85.65-13.28Q85.63-12.83 85.60-12.30Q85.58-11.77 85.55-11.25Q85.53-10.73 85.52-10.30Q85.50-9.86 85.50-9.59L85.50-9.59L85.50-4.05Q85.50-3.89 85.47-3.40Q85.44-2.91 85.39-2.34Q85.34-1.78 85.31-1.29Q85.28-0.80 85.28-0.64L85.28-0.64Q85.28-0.41 85.20-0.07Q85.13 0.27 84.96 0.56Q84.80 0.86 84.56 1.07Q84.33 1.28 84 1.28L84 1.28Q82.78 1.28 81.98 0.72Q81.19 0.16 80.71-0.76Q80.23-1.67 80.02-2.80Q79.81-3.94 79.75-5.07Q79.69-6.20 79.71-7.23Q79.73-8.27 79.73-8.95ZM89.11 1.70L89.11 1.70L89.11-0.42Q89.11-2.91 89.30-5.39Q89.50-7.88 89.70-10.35Q89.89-12.83 90-15.30Q90.11-17.78 89.95-20.27L89.95-20.27Q90.13-20.58 90.31-20.74Q90.50-20.91 90.81-20.91L90.81-20.91Q92.31-20.91 93.15-20.58Q93.98-20.25 94.85-19.34Q95.72-18.42 96.35-17.24Q96.98-16.06 97.12-13.60Q97.25-11.14 98.02-9.14Q98.80-7.14 99.42-8.94L99.42-8.94Q100.70-13.88 100.84-14.83Q100.97-15.78 101.09-16.64Q101.22-17.50 101.33-18.13Q101.44-18.77 101.48-18.98L101.48-18.98Q101.48-19.06 101.55-19.48Q101.63-19.91 101.73-20.43Q101.83-20.95 101.94-21.45Q102.05-21.95 102.13-22.19L102.13-22.19Q102.20-22.52 102.30-22.98Q102.39-23.45 102.55-23.89Q102.70-24.33 102.96-24.64Q103.22-24.95 103.61-24.95L103.61-24.95Q104.33-24.95 104.85-24.63Q105.38-24.30 105.72-23.78Q106.06-23.27 106.23-22.62Q106.39-21.97 106.39-21.33L106.39-21.33Q106.39-20.81 106.34-19.73Q106.30-18.66 106.20-17.26Q106.09-15.86 105.93-14.24Q105.77-12.63 105.51-11.02Q105.25-9.41 104.91-7.91Q104.58-6.42 104.13-5.28Q103.69-4.14 103.14-3.45Q102.59-2.77 101.91-2.77L101.91-2.77Q100.84-2.77 99.94-3.23Q99.03-3.69 98.30-4.38Q97.58-5.06 97-5.86L97-5.86Q96.02-7.22 95.30-8.95L95.30-8.95L95.08-8.95Q95-8.67 94.95-8.03Q94.91-7.39 94.85-6.53Q94.80-5.67 94.73-4.66Q94.66-3.66 94.52-2.64Q94.39-1.63 94.19-0.69Q93.98 0.25 93.67 0.97Q93.36 1.69 92.91 2.13Q92.47 2.56 91.88 2.56L91.88 2.56Q91.48 2.56 91.09 2.55Q90.69 2.53 90.33 2.45Q89.97 2.38 89.66 2.20Q89.34 2.03 89.11 1.70ZM107.83-3.52L107.83-3.52L107.83-5.73Q107.83-7.16 107.88-8.63Q107.92-10.09 108.06-11.57Q108.20-13.05 108.45-14.52Q108.70-16 109.11-17.42L109.11-17.42L109.53-17.58Q110.09-17.58 110.80-17.38Q111.52-17.17 112.17-16.85Q112.83-16.53 113.34-16.14Q113.86-15.75 114.02-15.36L114.02-15.36L114.02-13.63Q114.02-12.14 113.79-10.80Q113.56-9.47 113.19-8.17Q112.81-6.88 112.30-5.55Q111.80-4.23 111.23-2.81L111.23-2.81Q111.08-2.44 110.78-2.29Q110.48-2.14 110.17-2.14L110.17-2.14Q109.78-2.14 109.36-2.21Q108.94-2.28 108.60-2.45Q108.27-2.61 108.05-2.87Q107.83-3.13 107.83-3.52ZM113.03-17.95Q109.05-17.83 109.70-21.08L109.70-21.08Q109.75-21.59 109.89-22.13Q110.03-22.66 110.71-23.50Q111.39-24.34 112.87-24.02Q114.34-23.70 114.78-22.83Q115.22-21.95 115.31-21.20Q115.41-20.45 115.03-19.58Q114.66-18.70 114.09-18.19L114.09-18.19Q113.94-18.06 113.64-18.01Q113.34-17.95 113.03-17.95L113.03-17.95ZM127.19-5.33L127.19-5.33Q126.95-5.56 126.44-5.73Q125.92-5.89 125.34-5.99Q124.77-6.09 124.22-6.14Q123.67-6.19 123.36-6.19L123.36-6.19Q122.77-6.19 122.38-5.85Q122-5.52 121.72-5.02Q121.44-4.53 121.20-3.95Q120.95-3.36 120.65-2.87Q120.34-2.38 119.93-2.04Q119.52-1.70 118.88-1.70L118.88-1.70Q118.55-1.70 118.24-1.76Q117.94-1.81 117.70-1.95Q117.47-2.09 117.32-2.34Q117.17-2.59 117.17-2.98L117.17-2.98Q117.17-3.30 117.42-4.23Q117.67-5.17 118.08-6.48Q118.48-7.78 119.02-9.34Q119.56-10.89 120.13-12.47Q120.70-14.05 121.27-15.53Q121.83-17.02 122.30-18.16Q122.77-19.31 123.10-20Q123.44-20.69 123.56-20.69L123.56-20.69Q123.89-20.69 124.18-20.63Q124.47-20.56 124.75-20.48Q125.03-20.39 125.31-20.33Q125.59-20.27 125.92-20.27L125.92-20.27Q126.09-20.27 126.23-20.30L126.23-20.30Q126.36-20.33 126.45-20.37Q126.55-20.41 126.55-20.48L126.55-20.48L126.55-24.31Q126.55-24.64 126.82-24.80Q127.09-24.95 127.41-24.95L127.41-24.95Q129-24.95 129.91-24.57Q130.83-24.19 131.33-23.49Q131.83-22.80 132.06-21.81Q132.30-20.83 132.53-19.63L132.53-19.63Q132.69-18.91 132.84-18.35Q133-17.80 133.12-17.28Q133.23-16.77 133.30-16.21Q133.38-15.66 133.38-14.94L133.38-14.94Q133.38-13.02 133.27-11.09Q133.17-9.17 133.05-7.25Q132.94-5.33 132.84-3.41Q132.73-1.50 132.73 0.42L132.73 0.42Q132.73 0.83 132.59 1.21Q132.44 1.59 132.18 1.90Q131.92 2.20 131.58 2.38Q131.23 2.56 130.83 2.56L130.83 2.56Q129.77 2.56 129.08 2.16Q128.39 1.75 127.98 1.09Q127.58 0.42 127.41-0.42Q127.23-1.27 127.18-2.14Q127.13-3.02 127.16-3.85Q127.19-4.69 127.19-5.33ZM124-8.53L124-8.53Q124-8.14 124.31-7.92Q124.63-7.70 125.04-7.60Q125.45-7.50 125.88-7.48Q126.31-7.47 126.55-7.47L126.55-7.47Q126.88-7.47 126.93-7.73Q126.98-8 126.98-8.31L126.98-8.31Q126.98-9.61 126.85-11.02Q126.72-12.42 126.55-13.86L126.55-13.86L126.34-14.08Q126.13-13.92 125.87-13.51Q125.61-13.09 125.35-12.55Q125.09-12 124.85-11.38Q124.61-10.77 124.42-10.20Q124.23-9.64 124.12-9.20Q124-8.75 124-8.53ZM136.16-5.39L136.16-5.39L135.84-7.06Q135.66-8.06 135.63-9.42Q135.59-10.78 135.77-12.26Q135.94-13.73 136.31-15.21Q136.69-16.69 137.34-17.91Q137.98-19.13 138.91-19.98Q139.84-20.83 141.11-21.05L141.11-21.05Q141.69-21.16 142.43-21.16Q143.17-21.17 143.97-21.06Q144.77-20.95 145.54-20.71Q146.31-20.47 146.95-20.08Q147.59-19.69 148.05-19.15Q148.50-18.61 148.63-17.86L148.63-17.86Q148.66-17.72 148.70-17.30Q148.73-16.89 148.73-16.36Q148.73-15.83 148.67-15.25Q148.61-14.67 148.46-14.16Q148.31-13.66 148.05-13.30Q147.78-12.95 147.36-12.88L147.36-12.88Q146.89-12.78 146.22-12.79Q145.55-12.80 144.91-12.94Q144.28-13.08 143.79-13.40Q143.30-13.72 143.20-14.27L143.20-14.27Q143.16-14.50 143.18-14.76Q143.20-15.02 143.23-15.28Q143.27-15.55 143.29-15.84Q143.31-16.13 143.25-16.45L143.25-16.45Q142.72-16.36 142.35-15.73Q141.98-15.11 141.73-14.21Q141.48-13.31 141.35-12.23Q141.22-11.16 141.17-10.16Q141.13-9.16 141.15-8.36Q141.17-7.56 141.23-7.19L141.23-7.19L141.39-6.34Q141.42-6.19 141.55-6.20Q141.69-6.20 141.86-6.23L141.86-6.23Q142.28-6.30 142.61-6.60Q142.94-6.91 143.23-7.32Q143.52-7.73 143.80-8.20Q144.08-8.67 144.38-9.09Q144.69-9.50 145.05-9.81Q145.42-10.13 145.91-10.20L145.91-10.20Q146.38-10.30 146.82-10.19Q147.27-10.08 147.64-9.82Q148.02-9.56 148.27-9.18Q148.53-8.80 148.63-8.31L148.63-8.31Q148.80-7.38 148.46-6.45Q148.13-5.52 147.47-4.75Q146.81-3.98 145.95-3.45Q145.09-2.91 144.22-2.75L144.22-2.75Q143.66-2.64 142.89-2.62Q142.13-2.59 141.31-2.66Q140.50-2.73 139.67-2.92Q138.84-3.11 138.14-3.44Q137.44-3.77 136.91-4.25Q136.39-4.73 136.16-5.39Z"/></svg>