<svg id="mainsvg" xmlns="http://www.w3.org/2000/svg" xmlns:xlink="http://www.w3.org/1999/xlink" version="1.1" x="0px" y="0px" enable-background="new 0 0 200 162.5" xml:space="preserve" viewBox="0 0 139 23"><path fill="#000" transform="translate(-1.3760000000000001, 22.56)" d="M20.42-22.56L1.95-22.56L1.95-18.59L13.86-18.59L1.38-1.98L1.38 0L20.48 0L20.48-3.97L7.97-3.97L20.42-20.48ZM32.45-17.70C27.20-17.70 22.94-13.70 22.94-8.70C22.94-3.74 27.20 0.26 32.45 0.26C37.70 0.26 41.95-3.74 41.95-8.70C41.95-13.70 37.70-17.70 32.45-17.70ZM32.45-3.74C29.63-3.74 27.33-5.98 27.33-8.70C27.33-11.46 29.63-13.70 32.45-13.70C35.30-13.70 37.57-11.46 37.57-8.70C37.57-5.98 35.30-3.74 32.45-3.74ZM54.24-17.70C52.48-17.70 50.88-17.18 49.60-16.29L49.60-17.38L45.15-17.38L45.15 0L49.60 0L49.60-12.32C50.59-13.18 51.87-13.70 53.44-13.70C55.90-13.70 57.22-12.38 57.22-9.70L57.22 0L61.66 0L61.66-9.70C61.66-15.33 59.33-17.70 54.24-17.70ZM78.50-17.38L78.50-16.29C77.02-17.15 75.23-17.73 73.41-17.73C67.97-17.73 64.77-13.38 64.77-8.74C64.77-4.13 67.97 0.26 73.41 0.26C75.33 0.26 77.06-0.32 78.50-1.28L78.50 0L82.94 0L82.94-17.38ZM78.50-5.22C77.41-4.29 75.90-3.74 74.21-3.74C71.07-3.74 69.06-6.11 69.06-8.74C69.06-11.33 71.04-13.70 74.21-13.70C75.87-13.70 77.41-13.12 78.50-12.19ZM87.26-22.56L87.26 0L91.84 0L91.84-5.79L95.65-5.79C101.38-5.79 105.38-8.26 105.38-14.43C105.38-18.66 103.14-22.56 96.54-22.56ZM91.84-9.60L91.84-18.59L95.81-18.59C99.36-18.59 100.58-16.42 100.58-14.08C100.58-11.42 98.85-9.60 95.20-9.60ZM112.77-17.38L108.29-17.38L108.29 0L112.77 0L112.77-8.38C112.77-10.66 113.98-12.93 117.18-12.93C118.11-12.93 119.33-12.67 119.33-12.67L119.33-17.50C118.98-17.63 118.56-17.70 118.24-17.70C115.78-17.66 113.95-16.58 112.77-14.94ZM130.85-17.70C125.60-17.70 121.34-13.70 121.34-8.70C121.34-3.74 125.60 0.26 130.85 0.26C136.10 0.26 140.35-3.74 140.35-8.70C140.35-13.70 136.10-17.70 130.85-17.70ZM130.85-3.74C128.03-3.74 125.73-5.98 125.73-8.70C125.73-11.46 128.03-13.70 130.85-13.70C133.70-13.70 135.97-11.46 135.97-8.70C135.97-5.98 133.70-3.74 130.85-3.74Z"/></svg>