<svg id="mainsvg" xmlns="http://www.w3.org/2000/svg" xmlns:xlink="http://www.w3.org/1999/xlink" version="1.1" x="0px" y="0px" enable-background="new 0 0 200 162.5" xml:space="preserve" viewBox="0 0 183 23"><path fill="#000" transform="translate(0, 22.624)" d="M17.70-17.92L17.70-4.48L19.94-4.48L19.94 0L10.98 0L10.98-4.48L13.22-4.48L13.22-8.96L6.72-8.96L6.72-4.48L8.96-4.48L8.96 0L0 0L0-4.48L2.24-4.48L2.24-17.92L0-17.92L0-22.40L8.96-22.40L8.96-17.92L6.72-17.92L6.72-13.44L13.22-13.44L13.22-17.92L10.98-17.92L10.98-22.40L19.94-22.40L19.94-17.92L17.70-17.92ZM28.64-22.40L33.12-22.40Q34.50-22.40 35.73-21.87Q36.96-21.34 37.87-20.43Q38.78-19.52 39.31-18.29Q39.84-17.06 39.84-15.68L39.84-15.68L39.84-6.72Q39.84-5.31 39.31-4.10Q38.78-2.88 37.87-1.97Q36.96-1.06 35.73-0.53Q34.50 0 33.12 0L33.12 0L28.64 0Q27.23 0 26.02-0.53Q24.80-1.06 23.89-1.97Q22.98-2.88 22.45-4.10Q21.92-5.31 21.92-6.72L21.92-6.72L21.92-15.68Q21.92-17.06 22.45-18.29Q22.98-19.52 23.89-20.43Q24.80-21.34 26.02-21.87Q27.23-22.40 28.64-22.40L28.64-22.40ZM35.36-6.72L35.36-15.68Q35.36-16.61 34.70-17.26Q34.05-17.92 33.12-17.92L33.12-17.92L28.64-17.92Q27.71-17.92 27.06-17.26Q26.40-16.61 26.40-15.68L26.40-15.68L26.40-6.72Q26.40-5.79 27.06-5.14Q27.71-4.48 28.64-4.48L28.64-4.48L33.12-4.48Q34.05-4.48 34.70-5.14Q35.36-5.79 35.36-6.72L35.36-6.72ZM57.44-22.40L64.22-22.40L64.22-17.92L61.98-17.92L61.98-4.48L64.22-4.48L64.22 0L55.26 0L55.26-4.48L57.50-4.48L57.50-14.08L53.02-7.01L48.54-14.08L48.54-4.48L50.78-4.48L50.78 0L41.82 0L41.82-4.48L44.06-4.48L44.06-17.92L41.82-17.92L41.82-22.40L48.61-22.40L53.02-15.39L57.44-22.40ZM66.21-22.40L81.89-22.40L81.89-15.68L77.41-15.68L77.41-17.92L72.93-17.92L72.93-13.44L77.41-13.44L77.41-8.96L72.93-8.96L72.93-4.48L77.41-4.48L77.41-6.72L81.89-6.72L81.89 0L66.21 0L66.21-4.48L68.45-4.48L68.45-17.92L66.21-17.92L66.21-22.40ZM92.64-13.38L92.64-13.38Q95.42-12.96 97.07-12.02Q98.72-11.07 99.58-9.97Q100.45-8.86 100.69-7.79Q100.93-6.72 100.93-6.05L100.93-6.05Q100.93-4.70 100.37-3.55Q99.81-2.40 98.83-1.57Q97.86-0.74 96.53-0.26Q95.20 0.22 93.63 0.22L93.63 0.22Q92 0.22 90.70-0.11Q89.41-0.45 88.38-0.99L88.38-0.99L88.38 0L83.90 0L83.90-6.72L88.38-6.72Q88.96-6.08 89.52-5.62Q90.08-5.15 90.67-4.85Q91.26-4.54 91.98-4.40Q92.70-4.26 93.63-4.26L93.63-4.26Q94.85-4.26 95.65-4.75Q96.45-5.25 96.45-6.05L96.45-6.05Q96.45-6.72 96.03-7.22Q95.62-7.71 94.96-8.06Q94.30-8.42 93.52-8.62Q92.74-8.83 91.97-8.96L91.97-8.96Q89.25-9.38 87.62-10.24Q85.98-11.10 85.10-12.13Q84.22-13.15 83.95-14.22Q83.68-15.30 83.68-16.13L83.68-16.13Q83.68-17.50 84.24-18.69Q84.80-19.87 85.79-20.75Q86.78-21.63 88.10-22.13Q89.41-22.62 90.94-22.62L90.94-22.62Q92.58-22.62 93.79-22.30Q95.01-21.98 96-21.44L96-21.44L96-22.40L100.48-22.40L100.48-15.68L95.97-15.68Q95.42-16.29 94.91-16.75Q94.40-17.22 93.82-17.52Q93.25-17.82 92.56-17.98Q91.87-18.14 90.94-18.14L90.94-18.14Q89.60-18.14 88.88-17.50Q88.16-16.86 88.16-16.13L88.16-16.13Q88.16-14.05 92.64-13.38ZM102.75-22.40L120.67-22.40L120.67-15.68L116.19-15.68L116.19-17.92L113.95-17.92L113.95-4.48L116.19-4.48L116.19 0L107.23 0L107.23-4.48L109.47-4.48L109.47-17.92L107.23-17.92L107.23-15.68L102.75-15.68L102.75-22.40ZM122.66-22.40L138.34-22.40L138.34-15.68L133.86-15.68L133.86-17.92L129.38-17.92L129.38-13.44L133.86-13.44L133.86-8.96L129.38-8.96L129.38-4.48L133.86-4.48L133.86-6.72L138.34-6.72L138.34 0L122.66 0L122.66-4.48L124.90-4.48L124.90-17.92L122.66-17.92L122.66-22.40ZM160.13-4.48L162.30-4.48L162.30 0L153.34 0L153.34-4.48L155.46-4.48L154.78-6.72L147.87-6.72L147.20-4.48L149.31-4.48L149.31 0L140.35 0L140.35-4.48L142.53-4.48L147.90-22.40L154.75-22.40L160.13-4.48ZM149.22-11.20L153.44-11.20L151.42-17.92L151.23-17.92L149.22-11.20ZM164.29-22.40L173.25-22.40Q175.10-22.40 176.74-21.70Q178.37-20.99 179.58-19.78Q180.80-18.56 181.50-16.93Q182.21-15.30 182.21-13.44L182.21-13.44L182.21-8.96Q182.21-7.10 181.50-5.47Q180.80-3.84 179.58-2.62Q178.37-1.41 176.74-0.70Q175.10 0 173.25 0L173.25 0L164.29 0L164.29-4.48L166.53-4.48L166.53-17.92L164.29-17.92L164.29-22.40ZM171.01-4.48L173.25-4.48Q174.18-4.48 174.99-4.83Q175.81-5.18 176.42-5.79Q177.02-6.40 177.38-7.22Q177.73-8.03 177.73-8.96L177.73-8.96L177.73-13.44Q177.73-14.37 177.38-15.18Q177.02-16 176.42-16.61Q175.81-17.22 174.99-17.57Q174.18-17.92 173.25-17.92L173.25-17.92L171.01-17.92L171.01-4.48Z"/></svg>