<svg id="mainsvg" xmlns="http://www.w3.org/2000/svg" xmlns:xlink="http://www.w3.org/1999/xlink" version="1.1" x="0px" y="0px" enable-background="new 0 0 200 162.5" xml:space="preserve" viewBox="0 0 266 27"><path fill="#000" transform="translate(-0.64, 25.824)" d="M12.64-24.19C7.07-24.19 0.64-20.06 0.64-12.64C0.64-4.19 6.24 0 12.64 0C19.04 0 24.77-5.22 24.77-13.15C24.77-21.06 16.67-24.19 12.64-24.19ZM12.45-6.27C9.18-6.27 6.56-8.96 6.56-12.38C6.56-16.19 10.14-18.08 12.58-18.08C14.98-18.08 18.56-16.03 18.56-12.38C18.56-8.77 15.74-6.27 12.45-6.27ZM26.27-0.03L26.05-16.67L31.65-17.06L31.65-15.84C31.65-15.84 33.98-17.95 37.60-17.38C45.57-16.06 42.34-0.64 42.34-0.64L36.61-1.44C36.61-1.44 38.34-14.34 33.98-13.09C29.63-11.84 31.71-0.64 31.71-0.64ZM60.48-9.31C60.48-9.31 58.75-19.07 50.11-16.51C43.17-14.46 43.97-7.68 44.80-5.50C46.91 0.03 54.69 3.17 59.90-3.58L55.97-6.21C55.97-6.21 52.32-2.66 49.86-6.78ZM51.62-13.12C53.89-13.92 54.85-11.74 54.85-11.74L49.92-10.50C49.92-10.50 49.34-12.35 51.62-13.12ZM67.65-25.12L62.08-24.29L62.08-0.38L68.38-0.03L68.26-13.31L78.11 0L84.19-1.60L82.98-25.82L76.45-25.12L77.76-11.46ZM88.83-25.22C91.07-25.22 92.67-23.78 92.70-21.89C92.77-20.03 91.42-17.89 88.38-18.18C86.24-18.40 85.41-20.74 85.47-21.89C85.57-23.07 86.24-25.22 88.83-25.22ZM86.30-0.29L85.79-16.90L92.35-16.51L92.06-0.19ZM94.21-0.03L93.98-16.67L99.58-17.06L99.58-15.84C99.58-15.84 101.92-17.95 105.54-17.38C113.50-16.06 110.27-0.64 110.27-0.64L104.54-1.44C104.54-1.44 106.27-14.34 101.92-13.09C97.57-11.84 99.65-0.64 99.65-0.64ZM128.42-9.31C128.42-9.31 126.69-19.07 118.05-16.51C111.10-14.46 111.90-7.68 112.74-5.50C114.85 0.03 122.62 3.17 127.84-3.58L123.90-6.21C123.90-6.21 120.26-2.66 117.79-6.78ZM119.55-13.12C121.82-13.92 122.78-11.74 122.78-11.74L117.86-10.50C117.86-10.50 117.28-12.35 119.55-13.12ZM135.58-25.12L130.02-24.29L130.02-0.38L136.32-0.03L136.19-13.31L146.05 0L152.13-1.60L150.91-25.82L144.38-25.12L145.70-11.46ZM156.77-25.22C159.01-25.22 160.61-23.78 160.64-21.89C160.70-20.03 159.36-17.89 156.32-18.18C154.18-18.40 153.34-20.74 153.41-21.89C153.50-23.07 154.18-25.22 156.77-25.22ZM154.24-0.29L153.73-16.90L160.29-16.51L160-0.19ZM162.14-0.03L161.92-16.67L167.52-17.06L167.52-15.84C167.52-15.84 169.86-17.95 173.47-17.38C181.44-16.06 178.21-0.64 178.21-0.64L172.48-1.44C172.48-1.44 174.21-14.34 169.86-13.09C165.50-11.84 167.58-0.64 167.58-0.64ZM196.35-9.31C196.35-9.31 194.62-19.07 185.98-16.51C179.04-14.46 179.84-7.68 180.67-5.50C182.78 0.03 190.56 3.17 195.78-3.58L191.84-6.21C191.84-6.21 188.19-2.66 185.73-6.78ZM187.49-13.12C189.76-13.92 190.72-11.74 190.72-11.74L185.79-10.50C185.79-10.50 185.22-12.35 187.49-13.12ZM213.66-23.84L197.95-23.55L197.95 0L204.19-0.58L203.94-9.12L211.65-8.96L211.65-15.14L203.78-14.56L203.81-17.66L213.44-17.31ZM223.71-17.31C217.60-16.86 215.07-12.58 214.94-9.06C214.82-5.09 218.11-0.13 223.78-0.19C229.44-0.26 232.64-4.74 232.61-8.77C232.61-12.80 229.86-17.76 223.71-17.31ZM223.78-5.50C221.50-5.66 220.54-6.82 220.58-8.77C220.58-9.82 220.93-11.94 223.78-12.03C225.82-12.06 227.14-10.37 227.04-8.67C226.94-6.98 226.05-5.34 223.78-5.50ZM240.26-16.38C240.26-16.38 238.85-9.73 239.94-7.07C241.02-4.42 243.97-5.57 244.45-7.46C245.12-10.30 244.86-16.38 244.86-16.38L250.02-16.93L250.50 0.26L245.22-0.16L245.31-2.56C245.31-2.56 241.63 1.50 237.06-0.54C232.22-2.75 234.34-16.86 234.34-16.86ZM257.98-17.18L251.78-16.58L252.16 0.51L257.98-0.16L257.98-9.06C259.90-13.06 262.72-11.39 262.72-11.39L265.79-15.58C262.08-18.59 259.26-17.28 257.98-16.32Z"/></svg>