<svg id="mainsvg" xmlns="http://www.w3.org/2000/svg" xmlns:xlink="http://www.w3.org/1999/xlink" version="1.1" x="0px" y="0px" enable-background="new 0 0 200 162.5" xml:space="preserve" viewBox="0 0 95 40"><path fill="#000" transform="translate(-0.15288888888888888, 27.904)" d="M24.93-20.77L24.93-20.77Q24.58-20.10 24.21-19.38Q23.84-18.66 23.60-17.95Q23.36-17.25 23.31-16.59Q23.26-15.94 23.62-15.36L23.62-15.36Q23.14-15.42 22.69-15.50Q22.24-15.58 21.60-15.81L21.60-15.81Q20.13-16.26 19.49-16.98Q18.85-17.70 18.82-18.61Q18.78-19.52 19.23-20.58Q19.68-21.63 20.38-22.75L20.38-22.75L20.48-22.91Q20.03-24 19.15-24.74Q18.27-25.47 16.86-25.31L16.86-25.31Q15.97-25.22 15.39-24.85Q14.82-24.48 14.48-23.98Q14.14-23.49 13.98-22.91Q13.82-22.34 13.79-21.79L13.79-21.79Q13.73-20.70 14.46-19.84Q15.20-18.98 16.30-18.14Q17.41-17.31 18.69-16.40Q19.97-15.49 21.01-14.34Q22.05-13.18 22.67-11.68Q23.30-10.18 23.07-8.13L23.07-8.13Q23.01-7.49 22.72-6.59Q22.43-5.70 21.81-4.74Q21.18-3.78 20.14-2.85Q19.10-1.92 17.58-1.17Q16.06-0.42 13.95 0.05Q11.84 0.51 9.09 0.51L9.09 0.51Q8.64 0.51 7.78 0.42Q6.91 0.32 5.90 0.06Q4.90-0.19 3.86-0.66Q2.82-1.12 1.97-1.84Q1.12-2.56 0.61-3.58Q0.10-4.61 0.16-5.98L0.16-5.98Q0.19-6.88 0.51-7.81Q0.83-8.74 1.50-9.52Q2.18-10.30 3.28-10.82Q4.38-11.33 6.02-11.39L6.02-11.39Q6.88-11.42 7.73-11.18Q8.58-10.94 9.23-10.54Q9.89-10.14 10.30-9.58Q10.72-9.02 10.72-8.45L10.72-8.45Q10.50-8.61 9.79-8.45Q9.09-8.29 8.30-7.82Q7.52-7.36 6.88-6.56Q6.24-5.76 6.14-4.64L6.14-4.64Q6.11-4.16 6.27-3.54Q6.43-2.91 6.83-2.37Q7.23-1.82 7.87-1.44Q8.51-1.06 9.44-1.02L9.44-1.02Q10.21-1.02 10.88-1.33Q11.55-1.63 12.08-2.16Q12.61-2.69 12.96-3.44Q13.31-4.19 13.44-5.06L13.44-5.06Q13.60-6.53 13.04-7.71Q12.48-8.90 11.57-9.97Q10.66-11.04 9.55-12.05Q8.45-13.06 7.54-14.18Q6.62-15.30 6.06-16.61Q5.50-17.92 5.66-19.58L5.66-19.58Q5.86-21.54 6.88-23.02Q7.90-24.51 9.39-25.50Q10.88-26.50 12.67-26.98Q14.46-27.46 16.19-27.42L16.19-27.42Q16.90-27.39 17.65-27.30Q18.40-27.20 19.12-26.99Q19.84-26.78 20.46-26.48Q21.09-26.18 21.57-25.73L21.57-25.73Q21.86-26.91 21.73-27.90L21.73-27.90Q21.89-27.81 22.35-27.63Q22.82-27.46 23.36-27.23L23.36-27.23Q24.67-26.62 25.26-25.84Q25.86-25.06 25.95-24.19Q26.05-23.33 25.73-22.45Q25.41-21.57 24.93-20.77ZM34.59-7.10L36.83-14.46Q37.15-15.52 37.04-16.16Q36.93-16.80 36.58-16.96Q36.22-17.12 35.71-16.80Q35.20-16.48 34.72-15.62L34.72-15.62Q34.56-15.33 34.40-14.91Q34.24-14.50 34.11-14.10Q33.98-13.70 33.89-13.39Q33.79-13.09 33.76-12.99L33.76-12.99L33.73-12.99L31.04-4.19Q30.98-4 30.83-3.42Q30.69-2.85 30.66-2.18Q30.62-1.50 30.78-0.90Q30.94-0.29 31.49 0L31.49 0L29.89 0Q27.68 0 26.51-0.72Q25.34-1.44 24.90-2.50Q24.45-3.55 24.53-4.74Q24.61-5.92 24.90-6.88L24.90-6.88L29.82-23.01Q29.89-23.20 30.03-23.78Q30.18-24.35 30.21-25.02Q30.24-25.70 30.08-26.30Q29.92-26.91 29.38-27.20L29.38-27.20L30.98-27.20Q33.18-27.20 34.35-26.48Q35.52-25.76 35.97-24.70Q36.42-23.65 36.34-22.46Q36.26-21.28 35.97-20.32L35.97-20.32L34.88-16.83Q35.71-18.02 36.94-18.78Q38.18-19.55 39.81-19.55L39.81-19.55Q41.44-19.55 42.26-18.64Q43.07-17.73 43.28-16.35Q43.49-14.98 43.25-13.38Q43.01-11.78 42.59-10.46L42.59-10.46L40.86-4.48Q40.48-3.17 40.50-2.69Q40.51-2.21 40.86-2.14L40.86-2.14Q41.06-2.11 41.54-2.19Q42.02-2.27 42.67-2.59Q43.33-2.91 44.08-3.50Q44.83-4.10 45.50-5.12L45.50-5.12Q45.12-3.49 44.22-2.48Q43.33-1.47 42.27-0.93Q41.22-0.38 40.18-0.21Q39.14-0.03 38.43-0.03L38.43-0.03Q37.02-0.03 36.08-0.54Q35.14-1.06 34.64-1.98Q34.14-2.91 34.13-4.22Q34.11-5.54 34.59-7.10L34.59-7.10ZM49.38-0.03L49.38-0.03Q47.97-0.03 47.02-0.54Q46.08-1.06 45.58-1.98Q45.09-2.91 45.07-4.22Q45.06-5.54 45.54-7.10L45.54-7.10L48.03-15.01Q48.10-15.20 48.24-15.78Q48.38-16.35 48.42-17.02Q48.45-17.70 48.29-18.30Q48.13-18.91 47.58-19.20L47.58-19.20L49.18-19.20Q51.39-19.20 52.56-18.48Q53.73-17.76 54.18-16.70Q54.62-15.65 54.54-14.46Q54.46-13.28 54.18-12.32L54.18-12.32L51.81-4.48Q51.46-3.30 51.46-2.75Q51.46-2.21 51.81-2.14L51.81-2.14Q52-2.11 52.50-2.19Q52.99-2.27 53.66-2.59Q54.34-2.91 55.09-3.50Q55.84-4.10 56.51-5.12L56.51-5.12Q56.03-3.49 55.10-2.50Q54.18-1.50 53.14-0.96Q52.10-0.42 51.09-0.22Q50.08-0.03 49.38-0.03ZM50.05-23.36L50.05-23.36Q50.05-24.16 50.30-24.90Q50.56-25.63 50.99-26.22Q51.42-26.82 52.03-27.23Q52.64-27.65 53.34-27.78L53.34-27.78Q54.02-27.97 54.61-27.82Q55.20-27.68 55.66-27.28Q56.13-26.88 56.40-26.26Q56.67-25.63 56.67-24.83L56.67-24.83Q56.67-24.03 56.43-23.28Q56.19-22.53 55.74-21.90Q55.30-21.28 54.70-20.85Q54.11-20.42 53.41-20.22L53.41-20.22Q52-19.90 51.06-20.77Q50.11-21.63 50.05-23.36ZM75.87-10.85L75.87-10.85Q76.51-12.80 77.58-14.45Q78.66-16.10 80.11-17.26Q81.57-18.43 83.39-19.01Q85.22-19.58 87.39-19.46L87.39-19.46Q90.53-19.26 91.98-17.92Q93.44-16.58 92.86-14.37L92.86-14.37Q92.74-13.89 92.54-13.26Q92.35-12.64 92.13-11.98Q91.90-11.33 91.66-10.69Q91.42-10.05 91.20-9.54L91.20-9.54Q89.28-8.74 87.87-8.38Q86.46-8.03 85.50-8.05Q84.54-8.06 84-8.38Q83.46-8.70 83.26-9.28L83.26-9.28Q82.53-7.42 82.22-5.92Q81.92-4.42 82.66-3.17L82.66-3.17Q83.10-2.37 83.84-2.08Q84.58-1.79 85.54-1.73L85.54-1.73Q86.78-1.63 88.10-2.14Q89.41-2.66 90.61-3.50Q91.81-4.35 92.78-5.42Q93.76-6.50 94.30-7.55L94.30-7.55Q93.44-5.41 92.29-3.87Q91.14-2.34 89.79-1.38Q88.45-0.42 86.93 0.02Q85.41 0.45 83.78 0.42L83.78 0.42Q81.18 0.35 79.30-0.43Q77.41-1.22 76.37-2.66Q75.33-4.10 75.17-6.16Q75.01-8.22 75.87-10.85ZM85.38-14.27L84.35-11.84Q84.29-11.78 84.27-11.68Q84.26-11.58 84.22-11.52L84.22-11.52Q83.87-10.59 83.84-9.89Q83.81-9.18 84.45-9.02L84.45-9.02Q84.96-8.86 85.46-9.30Q85.95-9.73 86.50-10.88L86.50-10.88L88.19-14.69Q88.42-15.17 88.62-15.76Q88.83-16.35 88.91-16.86Q88.99-17.38 88.88-17.78Q88.77-18.18 88.38-18.27L88.38-18.27Q87.97-18.37 87.54-17.97Q87.10-17.57 86.69-16.93Q86.27-16.29 85.94-15.55Q85.60-14.82 85.38-14.27L85.38-14.27ZM73.92-10.46L73.92-10.46Q73.44-8.80 72.88-7.06Q72.32-5.31 71.79-3.60Q71.26-1.89 70.83-0.27Q70.40 1.34 70.18 2.78L70.18 2.78L73.15 2.37Q76.61 1.82 77.89 2.90Q79.17 3.97 78.50 6.50L78.50 6.50Q78.24 7.52 77.58 8.40Q76.93 9.28 76.03 9.95Q75.14 10.62 74.06 11.04Q72.99 11.46 71.94 11.52L71.94 11.52Q70.30 11.62 69.02 11.34Q67.74 11.07 66.82 10.53Q65.89 9.98 65.26 9.22Q64.64 8.45 64.26 7.52L64.26 7.52Q61.70 8.22 58.93 8.96Q56.16 9.70 53.49 10.30Q50.82 10.91 48.40 11.31Q45.98 11.71 44.13 11.78L44.13 11.78Q41.57 11.84 39.82 11.36Q38.08 10.88 36.94 10.03Q35.81 9.18 35.23 8.10Q34.66 7.01 34.42 5.84Q34.18 4.67 34.22 3.57Q34.27 2.46 34.40 1.60L34.40 1.60Q35.07 2.37 35.76 3.02Q36.45 3.68 37.47 4.16Q38.50 4.64 40.02 4.90Q41.54 5.15 43.90 5.12L43.90 5.12Q45.76 5.09 48.16 4.94Q50.56 4.80 53.17 4.59Q55.78 4.38 58.48 4.11Q61.18 3.84 63.65 3.55L63.65 3.55Q63.71 2.02 64.08 0.19Q64.45-1.63 64.93-3.50Q65.41-5.38 65.95-7.15Q66.50-8.93 66.94-10.43L66.94-10.43L68.16-14.46Q68.48-15.52 68.34-16.03Q68.19-16.54 67.79-16.58Q67.39-16.61 66.85-16.16Q66.30-15.71 65.82-14.85L65.82-14.85Q65.57-14.40 65.38-13.82Q65.18-13.25 64.93-12.29L64.93-12.29L62.43-4.19Q62.37-4 62.22-3.42Q62.08-2.85 62.05-2.18Q62.02-1.50 62.18-0.90Q62.34-0.29 62.88 0L62.88 0L61.28 0Q59.07 0 57.90-0.72Q56.74-1.44 56.29-2.50Q55.84-3.55 55.92-4.74Q56-5.92 56.29-6.88L56.29-6.88L58.78-14.98Q58.85-15.17 58.99-15.74Q59.14-16.32 59.17-16.99Q59.20-17.66 59.04-18.27Q58.88-18.88 58.34-19.17L58.34-19.17L59.94-19.17Q61.41-19.17 62.40-18.83Q63.39-18.50 64.02-17.94Q64.64-17.38 64.93-16.66Q65.22-15.94 65.28-15.17L65.28-15.17Q65.66-16.03 66.22-16.83Q66.78-17.63 67.52-18.22Q68.26-18.82 69.17-19.18Q70.08-19.55 71.14-19.55L71.14-19.55Q72.77-19.55 73.58-18.64Q74.40-17.73 74.61-16.35Q74.82-14.98 74.58-13.38Q74.34-11.78 73.92-10.46ZM73.15 5.18L73.15 5.18Q72.51 5.31 71.71 5.50Q70.91 5.70 69.98 5.95L69.98 5.95Q70.14 7.33 70.85 8.11Q71.55 8.90 73.09 8.83L73.09 8.83Q73.89 8.80 74.51 8.56Q75.14 8.32 75.60 7.98Q76.06 7.65 76.34 7.30Q76.61 6.94 76.67 6.66L76.67 6.66Q76.86 5.98 76.62 5.60Q76.38 5.22 75.86 5.07Q75.33 4.93 74.61 4.98Q73.89 5.02 73.15 5.18Z"/></svg>