<svg id="mainsvg" xmlns="http://www.w3.org/2000/svg" xmlns:xlink="http://www.w3.org/1999/xlink" version="1.1" x="0px" y="0px" enable-background="new 0 0 200 162.5" xml:space="preserve" viewBox="0 0 94 24"><path fill="#000" transform="translate(-1.5, 20.02171610169492)" d="M21.94-7.13L21.94-7.13Q21.97-7.31 22.08-7.45Q22.19-7.59 22.28-7.63Q22.38-7.67 22.42-7.56Q22.47-7.45 22.42-7.13L22.42-7.13Q22.19-5.17 21.40-2.62Q20.61-0.06 19.84 1.53L19.84 1.53Q19.50 2.28 19 2.94L19 2.94Q18.36 3.66 17.39 3.54Q16.42 3.42 15.59 2.52L15.59 2.52Q14.73 1.50 14.47 0.41L14.47 0.41Q14.25-0.67 14.22-1.72Q14.19-2.77 14.28-3.78L14.28-3.78Q14.31-4 14.31-4.20L14.31-4.20Q14.41-5.67 14.50-7.14L14.50-7.14Q14.63-9.06 14.72-11Q14.81-12.94 14.83-14.88L14.83-14.88Q14.83-15.89 14.53-16.92L14.53-16.92Q14.22-17.80 13.80-17.82Q13.38-17.84 12.88-17.27Q12.39-16.70 11.93-15.84Q11.47-14.97 11.09-14.06Q10.72-13.16 10.47-12.50Q10.22-11.84 10.20-11.72L10.20-11.72Q9.64-9.83 9.28-7.88Q8.92-5.94 8.70-3.95L8.70-3.95Q8.69-3.86 8.69-3.75L8.69-3.75Q8.66-3.48 8.56-3.23L8.56-3.23Q8.47-3.02 8.11-2.95Q7.75-2.88 7.31-2.97L7.31-2.97Q6.97-3.08 6.87-3.25Q6.77-3.42 6.77-3.63L6.77-3.63Q6.72-3.97 6.67-4.33L6.67-4.33Q6.53-5.59 6.45-6.84L6.45-6.84Q6.39-8.61 6.16-10.39Q5.92-12.17 5.44-13.98L5.44-13.98Q5.41-14.11 5.38-14.27L5.38-14.27Q5.28-14.72 5.12-15.14Q4.95-15.56 4.67-15.65Q4.39-15.73 3.92-15.19L3.92-15.19Q3.30-14.42 2.90-13.58Q2.50-12.73 2.16-11.86L2.16-11.86Q2.06-11.48 2.16-11.08L2.16-11.08Q2.16-11.06 2.16-11.03L2.16-11.03Q2.50-9.13 2.55-7.26Q2.61-5.39 2.56-3.55L2.56-3.55Q2.56-3.02 2.37-2.55Q2.17-2.08 1.72-1.70L1.72-1.70Q1.50-1.50 1.19-1.38Q0.88-1.25 0.45-1.25L0.45-1.25Q-0.09-1.25-0.38-1.41Q-0.66-1.56-0.77-1.97L-0.77-1.97Q-0.91-2.63-0.91-3.28L-0.91-3.28Q-0.91-3.30-0.92-3.31L-0.92-3.31Q-0.97-4.59-0.75-5.80Q-0.53-7-0.11-8.14L-0.11-8.14Q0.19-8.95 0.14-9.80Q0.09-10.64-0.09-11.53L-0.09-11.53Q-0.36-12.78-0.75-14.05L-0.75-14.05Q-1.14-15.36-1.39-16.69L-1.39-16.69Q-1.48-17.03-1.50-17.36L-1.50-17.36Q-1.50-17.80-0.88-17.80L-0.88-17.80Q-0.30-17.81 0.03-17.41L0.03-17.41Q0.38-17 0.53-16.56L0.53-16.56Q0.66-16.28 0.77-15.89L0.77-15.89Q0.97-15.31 1.23-14.66Q1.48-14 1.72-13.45L1.72-13.45Q1.77-13.47 1.95-13.75Q2.13-14.03 2.38-14.42L2.38-14.42Q2.69-14.91 2.95-15.32Q3.22-15.73 3.34-15.86L3.34-15.86Q3.64-16.20 4.09-16.35Q4.53-16.50 5.22-16.38L5.22-16.38Q5.94-16.22 6.34-15.87Q6.73-15.52 6.95-15.06L6.95-15.06Q7.34-14.23 7.61-13.42Q7.88-12.61 8-11.80L8-11.80Q8.13-11.19 8.23-10.55L8.23-10.55Q8.28-10.27 8.34-9.95L8.34-9.95Q8.98-12.14 9.78-13.84Q10.58-15.55 11.03-16.31L11.03-16.31Q11.34-16.80 11.70-17.27Q12.06-17.73 12.50-18.14L12.50-18.14Q13.06-18.61 13.80-18.64Q14.55-18.67 15.26-18.33Q15.97-17.98 16.44-17.30L16.44-17.30Q16.89-16.61 17.04-15.92Q17.19-15.23 17.22-14.56L17.22-14.56Q17.33-12.53 17.23-10.52Q17.14-8.52 16.98-6.53L16.98-6.53Q16.95-5.91 16.91-5.28L16.91-5.28Q16.88-4.73 16.80-4.17L16.80-4.17Q16.72-3.06 16.67-1.93Q16.63-0.80 16.75 0.36L16.75 0.36Q16.80 0.81 17.01 1.30Q17.22 1.80 17.53 2.13Q17.84 2.45 18.21 2.37Q18.58 2.28 18.97 1.56L18.97 1.56Q19.72 0.17 20.19-1.24Q20.66-2.66 21.03-4.11L21.03-4.11Q21.45-5.61 21.94-7.13ZM0.47-3.89L0.47-3.89Q0.48-4.58 0.47-5.34Q0.45-6.09 0.38-6.44L0.38-6.44Q0.08-5.75-0.05-4.83Q-0.19-3.91-0.08-3.31L-0.08-3.31Q0.03-2.80 0.15-2.77Q0.27-2.73 0.36-3.05Q0.45-3.38 0.47-3.89ZM32.08-7.48L32.08-7.48Q32.30-7.48 32.30-7.39Q32.31-7.30 32.24-7.16Q32.17-7.02 32.08-6.89L32.08-6.89Q32.06-6.86 32.02-6.84L32.02-6.84Q31.67-6.28 31.13-5.70Q30.58-5.13 29.86-4.64Q29.14-4.16 28.22-3.91L28.22-3.91Q27.36-3.67 26.37-3.73Q25.38-3.80 24.41-4.27Q23.44-4.73 22.64-5.70L22.64-5.70Q21.86-6.69 21.98-7.76Q22.11-8.83 23.13-9.50L23.13-9.50Q23.67-9.86 24.34-10.07Q25-10.28 25.86-10.23L25.86-10.23Q26.25-10.23 26.63-10.13Q27-10.03 27.25-9.77L27.25-9.77Q27.52-9.45 27.43-9.21Q27.34-8.97 27.06-8.78L27.06-8.78Q26.67-8.47 26.16-8.26Q25.64-8.05 24.98-8L24.98-8Q24.63-7.98 24.49-7.87Q24.36-7.75 24.36-7.53L24.36-7.53Q24.34-6.88 24.66-6.26Q24.98-5.64 25.75-5.08L25.75-5.08Q26.48-4.55 27.25-4.41Q28.02-4.28 28.75-4.59L28.75-4.59Q29.52-4.94 30.11-5.44Q30.70-5.94 31.19-6.47L31.19-6.47Q31.28-6.56 31.38-6.66L31.38-6.66Q31.41-6.69 31.50-6.79Q31.59-6.89 31.67-7.02L31.67-7.02Q31.77-7.14 31.86-7.24Q31.95-7.34 32.01-7.41Q32.06-7.48 32.08-7.48ZM25.55-9.52L25.55-9.52Q25.14-9.30 24.89-9.01Q24.64-8.72 24.53-8.30L24.53-8.30Q25.83-8.45 26.16-9.17L26.16-9.17Q26.23-9.25 26.22-9.34Q26.20-9.44 26.05-9.53L26.05-9.53Q25.89-9.63 25.77-9.60Q25.64-9.58 25.55-9.52ZM35.72-3.73L35.72-3.73Q34.94-3.55 34.09-3.66Q33.25-3.77 32.63-4.19Q32.02-4.61 31.83-5.36L31.83-5.36Q31.41-7.14 31.86-8.77L31.86-8.77Q31.97-9.27 32.72-9.31L32.72-9.31Q33.44-9.36 33.77-9.17Q34.09-8.98 34.17-8.48L34.17-8.48Q34.19-7.83 34.17-6.91L34.17-6.91Q34.17-6.22 34.17-5.57Q34.17-4.92 34.30-4.50L34.30-4.50Q34.44-4.16 34.77-4.15Q35.11-4.14 35.53-4.31Q35.95-4.48 36.30-4.68Q36.64-4.88 36.75-4.98L36.75-4.98Q37.25-5.31 37.64-5.70Q38.03-6.09 38.38-6.52L38.38-6.52Q38.56-6.72 38.77-6.92L38.77-6.92Q38.84-7.02 38.91-7.13L38.91-7.13Q38.98-7.27 39.09-7.36L39.09-7.36Q39.14-7.42 39.20-7.44Q39.27-7.45 39.38-7.41L39.38-7.41Q39.59-7.25 39.25-6.73Q38.91-6.20 38.27-5.56Q37.64-4.92 36.94-4.41Q36.23-3.89 35.72-3.73ZM31.92-10.67L31.92-10.67Q31.69-10.78 31.68-10.91Q31.67-11.05 31.73-11.17L31.73-11.17Q31.94-11.63 32.46-11.80Q32.98-11.98 33.72-11.86L33.72-11.86Q34.19-11.75 34.28-11.52Q34.38-11.28 34.15-11.02Q33.92-10.77 33.47-10.61L33.47-10.61Q33.09-10.50 32.72-10.49Q32.34-10.48 31.92-10.67ZM54.22-18.94L54.22-18.94Q55.06-19.06 55.78-18.80Q56.50-18.53 56.95-18.02Q57.41-17.50 57.47-16.88L57.47-16.88Q57.59-15.69 57.10-14.30Q56.61-12.92 55.74-11.56Q54.88-10.20 53.77-9.10Q52.66-8 51.53-7.38L51.53-7.38Q51.09-7.14 51.09-6.73L51.09-6.73Q51.08-4.88 51.64-2.98L51.64-2.98Q51.69-2.86 51.75-2.75L51.75-2.75Q52.09-2.06 52.70-2.08Q53.30-2.09 54-2.58Q54.70-3.06 55.43-3.79Q56.16-4.52 56.78-5.26Q57.41-6 57.80-6.53Q58.19-7.06 58.27-7.16L58.27-7.16Q58.47-7.44 58.64-7.42Q58.81-7.41 58.64-7.05L58.64-7.05Q58.20-6.19 57.30-5.04Q56.39-3.89 55.32-2.94Q54.25-1.98 53.41-1.72L53.41-1.72Q52.25-1.44 51.25-1.83Q50.25-2.22 49.84-3.11L49.84-3.11Q49.38-4.25 49.20-5.63L49.20-5.63Q48.64-4.59 47.69-3.37Q46.73-2.14 45.70-1.16Q44.66-0.19 43.78 0.08L43.78 0.08Q42.52 0.42 41.40-0.03Q40.28-0.48 39.83-1.55L39.83-1.55Q39.14-3.28 38.96-5.45Q38.78-7.61 39.01-9.87Q39.23-12.13 39.76-14.13Q40.28-16.13 41.03-17.53L41.03-17.53Q41.44-18.39 42.23-19.06Q43.02-19.73 44.31-19.97L44.31-19.97Q45.25-20.13 46.06-19.82Q46.88-19.52 47.38-18.91Q47.89-18.31 47.95-17.58L47.95-17.58Q48.13-16.20 47.62-14.59Q47.11-12.97 46.16-11.38Q45.22-9.80 44.02-8.52Q42.83-7.23 41.59-6.50L41.59-6.50Q41.11-6.23 41.16-5.75L41.16-5.75Q41.14-3.59 41.81-1.39L41.81-1.39Q41.86-1.25 41.94-1.13L41.94-1.13Q42.27-0.44 42.80-0.36Q43.34-0.28 44-0.65Q44.66-1.02 45.34-1.66Q46.02-2.30 46.65-3.05Q47.28-3.81 47.81-4.51Q48.34-5.20 48.66-5.69Q48.97-6.17 49.03-6.25L49.03-6.25Q49.08-6.33 49.13-6.39L49.13-6.39Q48.92-9.23 49.52-12.10Q50.11-14.97 51.17-16.83L51.17-16.83Q51.61-17.58 52.32-18.15Q53.03-18.72 54.22-18.94ZM43.19-17.38L43.19-17.38Q42.64-16.11 42.16-14.23Q41.67-12.36 41.41-10.42Q41.16-8.48 41.25-7L41.25-7Q42.33-7.59 43.49-8.93Q44.66-10.27 45.57-11.95Q46.48-13.63 46.93-15.24Q47.38-16.86 47.05-18.02L47.05-18.02Q46.94-18.36 46.77-18.68Q46.59-19 46.31-19.22L46.31-19.22Q45.92-19.45 45.46-19.46Q45-19.47 44.56-19.19L44.56-19.19Q44.02-18.83 43.70-18.36Q43.39-17.89 43.19-17.38ZM56.67-17.25L56.67-17.25Q56.58-17.55 56.41-17.82Q56.25-18.09 56.02-18.28L56.02-18.28Q55.67-18.48 55.24-18.49Q54.81-18.50 54.42-18.25L54.42-18.25Q53.91-17.94 53.63-17.54Q53.34-17.14 53.13-16.70L53.13-16.70Q52.36-15 51.76-12.38Q51.16-9.77 51.22-7.80L51.22-7.80Q52.20-8.31 53.27-9.45Q54.34-10.59 55.23-12.03Q56.11-13.47 56.52-14.86Q56.94-16.25 56.67-17.25ZM62.17-3.73L62.17-3.73Q61.39-3.55 60.55-3.66Q59.70-3.77 59.09-4.19Q58.47-4.61 58.28-5.36L58.28-5.36Q57.86-7.14 58.31-8.77L58.31-8.77Q58.42-9.27 59.17-9.31L59.17-9.31Q59.89-9.36 60.22-9.17Q60.55-8.98 60.63-8.48L60.63-8.48Q60.64-7.83 60.63-6.91L60.63-6.91Q60.63-6.22 60.63-5.57Q60.63-4.92 60.75-4.50L60.75-4.50Q60.89-4.16 61.23-4.15Q61.56-4.14 61.98-4.31Q62.41-4.48 62.75-4.68Q63.09-4.88 63.20-4.98L63.20-4.98Q63.70-5.31 64.09-5.70Q64.48-6.09 64.83-6.52L64.83-6.52Q65.02-6.72 65.22-6.92L65.22-6.92Q65.30-7.02 65.36-7.13L65.36-7.13Q65.44-7.27 65.55-7.36L65.55-7.36Q65.59-7.42 65.66-7.44Q65.72-7.45 65.83-7.41L65.83-7.41Q66.05-7.25 65.70-6.73Q65.36-6.20 64.73-5.56Q64.09-4.92 63.39-4.41Q62.69-3.89 62.17-3.73ZM58.38-10.67L58.38-10.67Q58.14-10.78 58.13-10.91Q58.13-11.05 58.19-11.17L58.19-11.17Q58.39-11.63 58.91-11.80Q59.44-11.98 60.17-11.86L60.17-11.86Q60.64-11.75 60.73-11.52Q60.83-11.28 60.60-11.02Q60.38-10.77 59.92-10.61L59.92-10.61Q59.55-10.50 59.17-10.49Q58.80-10.48 58.38-10.67ZM78.95-7.45L78.95-7.45Q79.02-7.42 79.02-7.34Q79.02-7.25 78.98-7.16Q78.95-7.06 78.92-7.03L78.92-7.03Q78.91-6.98 78.89-6.92L78.89-6.92Q78.58-6.38 78.13-5.58Q77.69-4.78 77.13-3.96Q76.56-3.14 75.95-2.55Q75.33-1.97 74.72-1.84L74.72-1.84Q73.59-1.67 72.84-2.05Q72.09-2.44 71.70-3.09Q71.31-3.75 71.22-4.41L71.22-4.41Q71.05-5.44 71.06-6.46Q71.08-7.48 71.11-8.50L71.11-8.50Q71.14-9.22 71.14-9.95L71.14-9.95Q71.14-9.97 71.14-9.98L71.14-9.98Q71.14-10.44 71.13-10.80Q71.13-11.16 71.02-11.32Q70.92-11.48 70.67-11.34Q70.42-11.19 70-10.59L70-10.59Q69.58-10.06 69.33-9.48Q69.08-8.91 68.86-8.31L68.86-8.31Q68.80-8.09 68.72-7.88L68.72-7.88Q68.55-7.48 68.42-7.09L68.42-7.09Q68.16-6.44 67.89-5.80L67.89-5.80Q67.78-5.47 67.52-5.20L67.52-5.20Q67.31-5.05 67.02-5.02Q66.73-5 66.38-5.08L66.38-5.08Q66.06-5.14 65.94-5.30Q65.81-5.45 65.77-5.63L65.77-5.63Q65.73-5.64 65.73-5.66L65.73-5.66Q65.58-6.13 65.48-6.59Q65.39-7.05 65.34-7.50L65.34-7.50Q65.31-7.92 65.25-8.34L65.25-8.34Q65.17-8.72 65.16-9.08L65.16-9.08Q65.13-9.45 65.29-9.60Q65.45-9.75 65.88-9.75L65.88-9.75Q66.73-9.80 67.11-9.05L67.11-9.05Q67.27-8.88 67.34-8.62Q67.41-8.36 67.48-7.91L67.48-7.91Q67.77-8.28 67.88-8.67L67.88-8.67Q67.95-8.80 67.98-8.89L67.98-8.89Q68.30-9.52 68.66-10.12Q69.02-10.72 69.55-11.27L69.55-11.27Q69.73-11.48 69.97-11.67Q70.20-11.86 70.52-12L70.52-12Q71.16-12.28 71.80-12.09Q72.44-11.89 72.77-11.30L72.77-11.30Q73.03-10.78 73.15-10.27Q73.27-9.75 73.27-9.23L73.27-9.23Q73.33-8.03 73.41-6.83L73.41-6.83Q73.47-5.56 73.52-4.28L73.52-4.28Q73.61-3.03 73.95-2.67Q74.30-2.31 74.80-2.57Q75.30-2.83 75.85-3.47Q76.41-4.11 76.95-4.88Q77.50-5.66 77.91-6.31L77.91-6.31Q78.44-7.08 78.64-7.34L78.64-7.34Q78.80-7.48 78.95-7.45ZM91.28-7.42L91.28-7.42Q91.53-7.34 91.51-6.78Q91.48-6.22 91.24-5.38Q91-4.55 90.55-3.65Q90.11-2.75 89.48-1.98Q88.84-1.20 88.07-0.77Q87.30-0.34 86.38-0.45L86.38-0.45Q84.78-0.69 84.17-1.98L84.17-1.98Q83.89-2.58 83.78-3.16Q83.67-3.75 83.64-4.33L83.64-4.33Q83.64-4.42 83.64-4.56L83.64-4.56Q83.61-4.81 83.58-5.02L83.58-5.02Q83.45-4.84 83.23-4.68Q83-4.52 82.83-4.42L82.83-4.42Q82.06-3.98 80.95-4.06L80.95-4.06Q80.03-4.14 79.38-4.51Q78.73-4.88 78.52-5.48L78.52-5.48Q78.50-5.55 78.50-5.59L78.50-5.59Q77.89-8.08 80.03-9.72L80.03-9.72Q80.48-10.06 81.30-10.27Q82.11-10.48 83.03-10.46Q83.95-10.44 84.64-10.08L84.64-10.08Q84.64-10.08 84.64-10.08L84.64-10.08Q84.64-10.13 84.67-10.19Q84.70-10.25 84.81-10.30L84.81-10.30Q85-10.38 85.23-10.37Q85.47-10.36 85.70-10.23Q85.94-10.09 86.09-9.78L86.09-9.78Q86.20-9.50 86.16-8.65Q86.13-7.80 86.03-6.69L86.03-6.69Q85.94-5.56 85.88-4.51Q85.83-3.45 85.92-2.83L85.92-2.83Q86.02-2.14 86.28-1.44L86.28-1.44Q86.38-1.28 86.48-1.13Q86.59-0.98 86.84-0.91L86.84-0.91Q87.36-0.80 87.92-1.23Q88.48-1.67 89.03-2.45Q89.58-3.23 90.01-4.14Q90.44-5.05 90.71-5.84Q90.98-6.64 91-7.13L91-7.13Q91.05-7.19 91.05-7.23L91.05-7.23Q91.08-7.33 91.12-7.39Q91.16-7.45 91.28-7.42ZM82.11-4.86L82.11-4.86Q82.44-5.05 82.84-5.54Q83.23-6.03 83.61-6.66Q83.98-7.30 84.17-7.93Q84.36-8.56 84.24-9.05Q84.13-9.55 83.52-9.77L83.52-9.77Q83.09-9.91 82.67-9.77L82.67-9.77Q81.83-9.41 81.38-8.69Q80.92-7.97 80.80-7.13Q80.69-6.30 80.84-5.56L80.84-5.56Q80.86-5.48 80.86-5.44L80.86-5.44Q80.92-5.33 80.94-5.23L80.94-5.23Q81.14-4.84 81.44-4.74Q81.73-4.64 82.11-4.86Z"/></svg>