<svg id="mainsvg" xmlns="http://www.w3.org/2000/svg" xmlns:xlink="http://www.w3.org/1999/xlink" version="1.1" x="0px" y="0px" enable-background="new 0 0 200 162.5" xml:space="preserve" viewBox="0 0 162 31"><path fill="#000" transform="translate(-2.765625, 24.46875)" d="M16.16-1.42L16.16-1.42Q16.98-1.42 16.98-0.72L16.98-0.72Q16.98-0.44 16.65-0.22Q16.31 0 15.45 0L15.45 0L2.77 0L2.77-22.11L10.73-22.11L10.73-1.03L13.66-1.03Q14.64-1.03 15.35-1.23Q16.06-1.42 16.16-1.42ZM23.19-19.42Q21.58-19.42 20.67-20.14Q19.77-20.86 19.77-22.03L19.77-22.03Q19.77-23.02 20.77-23.72L20.77-23.72Q21.83-24.47 23.02-24.47Q24.20-24.47 24.85-24.23Q25.50-24 25.95-23.63L25.95-23.63Q26.86-22.86 26.86-21.84L26.86-21.84Q26.86-20.83 25.83-20.13L25.83-20.13Q24.80-19.42 23.19-19.42ZM19.91 0L19.91-16.69L26.63-16.69L26.63 0L19.91 0ZM49.83-12.38L49.83-12.38Q49.86-12 49.86-11.63L49.86-11.63L49.86 0L43.16 0L43.16-15.16Q42.98-15.23 42.75-15.23L42.75-15.23L42.25-15.23Q41.03-15.23 39.41-13.56L39.41-13.56Q38.91-13.05 38.45-12.42L38.45-12.42L38.45 0L31.73 0L31.73-16.69L38.45-16.69L38.45-14.17Q41.09-16.97 44.36-16.97L44.36-16.97Q48.58-16.97 49.56-13.84L49.56-13.84Q50.91-15.39 52.52-16.18Q54.14-16.97 55.78-16.97L55.78-16.97Q58.58-16.97 59.92-15.64Q61.27-14.31 61.27-11.63L61.27-11.63L61.27 0L54.56 0L54.56-15.17Q54.42-15.23 53.86-15.23Q53.30-15.23 52.82-15.02Q52.34-14.81 51.84-14.44L51.84-14.44Q50.75-13.64 49.83-12.38ZM80.88-3.80L80.88-3.80Q81.48-3.80 81.48-3.23L81.48-3.23Q81.48-2.81 80.94-2.23L80.94-2.23Q78.47 0.30 74.17 0.30L74.17 0.30Q70.31 0.30 67.67-2.03L67.67-2.03Q64.94-4.45 64.94-8.16L64.94-8.16Q64.94-11.94 67.41-14.38L67.41-14.38Q70.02-16.97 74.34-16.97L74.34-16.97Q77.81-16.97 80.17-14.86L80.17-14.86Q82.72-12.59 82.72-8.91L82.72-8.91Q82.72-8.38 82.69-7.78L82.69-7.78L72.38-7.78L72.38-1.08Q73.44-0.86 74.77-0.86L74.77-0.86Q77.58-0.86 79.56-2.72L79.56-2.72Q79.97-3.13 80.14-3.36L80.14-3.36Q80.50-3.80 80.88-3.80ZM76.70-8.92L76.70-15.53Q75.69-15.83 74.41-15.83Q73.13-15.83 72.38-15.66L72.38-15.66L72.38-8.92L76.70-8.92ZM86.69 0L86.69-22.11L93.41-22.11L93.41 0L86.69 0ZM101.80-19.42Q100.19-19.42 99.28-20.14Q98.38-20.86 98.38-22.03L98.38-22.03Q98.38-23.02 99.38-23.72L99.38-23.72Q100.44-24.47 101.63-24.47Q102.81-24.47 103.46-24.23Q104.11-24 104.56-23.63L104.56-23.63Q105.47-22.86 105.47-21.84L105.47-21.84Q105.47-20.83 104.44-20.13L104.44-20.13Q103.41-19.42 101.80-19.42ZM98.52 0L98.52-16.69L105.23-16.69L105.23 0L98.52 0ZM113.75-5.09L113.75-5.09Q112.36-4.67 112.36-4.17L112.36-4.17Q112.36-3.69 113.17-3.50L113.17-3.50Q114.75-3.13 117.52-3.05Q120.28-2.98 121.68-2.63Q123.08-2.28 123.91-1.75L123.91-1.75Q125.41-0.77 125.41 0.86L125.41 0.86Q125.41 2.89 123.39 4.16L123.39 4.16Q121.16 5.55 117.09 5.55L117.09 5.55Q112.89 5.55 110.16 4.30L110.16 4.30Q109.17 3.81 109.17 3.20L109.17 3.20Q109.17 2.94 109.37 2.78Q109.56 2.63 109.78 2.63L109.78 2.63Q110.05 2.63 110.39 2.83L110.39 2.83Q111.19 3.28 111.87 3.59Q112.55 3.89 114 4.17Q115.45 4.45 116.80 4.45Q118.16 4.45 119.01 4.34Q119.86 4.22 120.42 4.06L120.42 4.06Q121.53 3.73 121.53 3.33L121.53 3.33Q121.53 2.95 121.31 2.78Q121.09 2.61 120.74 2.48Q120.39 2.34 119.77 2.23L119.77 2.23Q118.48 2.02 116.28 1.91Q114.08 1.80 112.80 1.48Q111.52 1.16 110.70 0.66L110.70 0.66Q109.13-0.30 109.13-1.92L109.13-1.92Q109.13-4.27 112.30-5.72L112.30-5.72Q110.84-6.52 109.98-7.82Q109.13-9.13 109.13-10.65Q109.13-12.17 109.70-13.29Q110.27-14.41 111.30-15.22L111.30-15.22Q113.47-16.97 116.91-16.97L116.91-16.97Q118.44-16.97 119.98-16.50L119.98-16.50Q122.20-18.64 124.09-18.64L124.09-18.64Q124.89-18.64 125.27-18.38Q125.66-18.11 125.66-17.70L125.66-17.70Q125.66-17.30 125.39-17.12Q125.13-16.94 124.89-16.94L124.89-16.94Q124.47-16.94 124.17-17.03L124.17-17.03Q123.73-17.19 123.28-17.19L123.28-17.19Q122.44-17.19 121.16-16.02L121.16-16.02Q123.70-14.77 124.48-12.42L124.48-12.42Q124.73-11.64 124.73-10.51Q124.73-9.38 124.08-8.25Q123.42-7.13 122.33-6.31L122.33-6.31Q120.05-4.63 116.97-4.63L116.97-4.63Q115.34-4.59 113.75-5.09ZM117.03-15.86L117.03-5.77Q119.56-5.80 121.39-7L121.39-7Q123.50-8.38 123.50-10.72Q123.50-13.06 121.42-14.50L121.42-14.50Q119.52-15.81 117.03-15.86L117.03-15.86ZM141.77-16.97L141.77-16.97Q147.27-16.97 147.27-11.63L147.27-11.63L147.27 0L140.55 0L140.55-15.20Q140.27-15.39 139.80-15.39Q139.34-15.39 138.84-15.17Q138.34-14.95 137.80-14.56L137.80-14.56Q136.63-13.70 135.72-12.41L135.72-12.41L135.72 0L129 0L129-22.11L135.72-22.11L135.72-14.05Q138.39-16.97 141.77-16.97ZM158.80 0.30L158.80 0.30Q152.67 0.30 152.67-5.30L152.67-5.30L152.66-15.55L150.86-15.47Q150.02-15.47 150.02-16.11Q150.02-16.75 150.92-16.75L150.92-16.75L152.42-16.69L152.66-16.69L152.66-19.11L159.36-22.11L159.36-16.69L161.45-16.69L162.94-16.75Q163.86-16.75 163.86-16.09L163.86-16.09Q163.86-15.80 163.60-15.63Q163.34-15.47 163.02-15.47L163.02-15.47L161.08-15.55L159.36-15.55L159.36-0.86Q161.19-0.89 162.41-1.91L162.41-1.91Q162.98-2.34 163.23-3.03Q163.47-3.72 163.66-3.91Q163.86-4.11 164.13-4.11L164.13-4.11Q164.39-4.11 164.58-3.90Q164.77-3.69 164.77-3.40Q164.77-3.11 164.61-2.76Q164.45-2.41 164.14-2.02L164.14-2.02Q163.44-1.14 162.52-0.63L162.52-0.63Q160.84 0.30 158.80 0.30Z"/></svg>