<svg id="mainsvg" xmlns="http://www.w3.org/2000/svg" xmlns:xlink="http://www.w3.org/1999/xlink" version="1.1" x="0px" y="0px" enable-background="new 0 0 200 162.5" xml:space="preserve" viewBox="0 0 217 24"><path fill="#000" transform="translate(-1.6, 23.2)" d="M11.81-22.72L2.98-22.72C1.95-22.72 1.60-22.37 1.60-21.38L1.60-1.34C1.60-0.35 1.95 0 2.98 0L6.59 0C7.62 0 7.94-0.35 7.94-1.34L7.94-6.82L11.87-6.82C16.83-6.82 20.06-9.66 20.06-14.72C20.06-19.81 16.80-22.72 11.81-22.72ZM11.10-12.42L7.94-12.42L7.94-17.12L11.10-17.12C12.61-17.12 13.50-16.16 13.50-14.75C13.50-13.34 12.61-12.42 11.10-12.42ZM42.59-1.31L35.20-21.66C34.88-22.50 34.46-22.72 33.54-22.72L29.89-22.72C28.96-22.72 28.54-22.53 28.22-21.60L20.86-1.31C20.54-0.45 20.74 0 21.73 0L25.09 0C26.69 0 27.10-0.35 27.42-1.34L28.16-3.65L35.07-3.65L35.81-1.34C36.06-0.35 36.54 0 38.21 0L41.66 0C42.62 0 42.91-0.45 42.59-1.31ZM32.45-12.42L33.63-8.67L29.63-8.67L30.82-12.45C31.46-14.59 31.42-16.90 31.42-16.90L31.74-16.90C31.74-16.90 31.81-14.59 32.45-12.42ZM62.18-22.72L58.91-22.72C57.89-22.72 57.57-22.37 57.57-21.38L57.57-16.13C57.57-12.86 57.98-11.33 59.01-8.03L58.75-8.03C57.73-10.46 57.47-11.68 56.06-13.89L50.82-22.08C50.53-22.53 50.21-22.72 49.47-22.72L45.70-22.72C44.67-22.72 44.32-22.37 44.32-21.38L44.32-1.34C44.32-0.35 44.67 0 45.70 0L48.93 0C49.95 0 50.30-0.35 50.30-1.34L50.30-6.56C50.30-10.11 49.92-11.74 49.25-14.82L49.50-14.82C50.37-11.94 50.91-10.43 52.32-8.22L57.25-0.64C57.54-0.19 57.89 0 58.56 0L62.18 0C63.17 0 63.52-0.35 63.52-1.34L63.52-21.38C63.52-22.37 63.17-22.72 62.18-22.72ZM82.69-22.72L66.85-22.72C65.82-22.72 65.50-22.37 65.50-21.38L65.50-18.50C65.50-17.47 65.82-17.12 66.85-17.12L71.62-17.12L71.62-1.34C71.62-0.35 71.94 0 72.96 0L76.58 0C77.60 0 77.95-0.35 77.95-1.34L77.95-17.12L82.69-17.12C83.71-17.12 84.06-17.47 84.06-18.50L84.06-21.38C84.06-22.37 83.71-22.72 82.69-22.72ZM85.47-14.24L85.47-8.48C85.47-2.94 88.99 0.48 95.33 0.48C101.63 0.48 105.15-2.94 105.15-8.48L105.15-14.24C105.15-19.78 101.63-23.20 95.33-23.20C88.99-23.20 85.47-19.78 85.47-14.24ZM98.82-14.53L98.82-8.19C98.82-6.18 97.54-5.12 95.33-5.12C93.09-5.12 91.81-6.18 91.81-8.19L91.81-14.53C91.81-16.54 93.09-17.60 95.33-17.60C97.54-17.60 98.82-16.54 98.82-14.53ZM125.70-22.72L122.43-22.72C121.41-22.72 121.09-22.37 121.09-21.38L121.09-16.13C121.09-12.86 121.50-11.33 122.53-8.03L122.27-8.03C121.25-10.46 120.99-11.68 119.58-13.89L114.34-22.08C114.05-22.53 113.73-22.72 112.99-22.72L109.22-22.72C108.19-22.72 107.84-22.37 107.84-21.38L107.84-1.34C107.84-0.35 108.19 0 109.22 0L112.45 0C113.47 0 113.82-0.35 113.82-1.34L113.82-6.56C113.82-10.11 113.44-11.74 112.77-14.82L113.02-14.82C113.89-11.94 114.43-10.43 115.84-8.22L120.77-0.64C121.06-0.19 121.41 0 122.08 0L125.70 0C126.69 0 127.04-0.35 127.04-1.34L127.04-21.38C127.04-22.37 126.69-22.72 125.70-22.72ZM135.46-14.24L135.46-8.48C135.46-2.94 139.01 0.48 145.31 0.48C150.24 0.48 153.31-1.54 154.66-5.12C154.98-6.05 154.75-6.53 153.79-6.85L150.37-8.06C149.41-8.42 149.02-8.19 148.64-7.20C148.13-5.82 147.10-5.12 145.31-5.12C142.78-5.12 141.79-6.21 141.79-8.45L141.79-14.27C141.79-16.51 142.78-17.60 145.31-17.60C147.10-17.60 148.06-16.96 148.64-15.52C148.99-14.53 149.38-14.37 150.37-14.66L153.79-15.87C154.75-16.19 154.98-16.67 154.66-17.60C153.31-21.18 150.24-23.20 145.31-23.20C139.01-23.20 135.46-19.78 135.46-14.24ZM177.12-1.31L169.73-21.66C169.41-22.50 168.99-22.72 168.06-22.72L164.42-22.72C163.49-22.72 163.07-22.53 162.75-21.60L155.39-1.31C155.07-0.45 155.26 0 156.26 0L159.62 0C161.22 0 161.63-0.35 161.95-1.34L162.69-3.65L169.60-3.65L170.34-1.34C170.59-0.35 171.07 0 172.74 0L176.19 0C177.15 0 177.44-0.45 177.12-1.31ZM166.98-12.42L168.16-8.67L164.16-8.67L165.34-12.45C165.98-14.59 165.95-16.90 165.95-16.90L166.27-16.90C166.27-16.90 166.34-14.59 166.98-12.42ZM189.06-22.72L180.22-22.72C179.20-22.72 178.85-22.37 178.85-21.38L178.85-1.34C178.85-0.35 179.20 0 180.22 0L183.84 0C184.86 0 185.18-0.35 185.18-1.34L185.18-6.82L189.12-6.82C194.08-6.82 197.31-9.66 197.31-14.72C197.31-19.81 194.05-22.72 189.06-22.72ZM188.35-12.42L185.18-12.42L185.18-17.12L188.35-17.12C189.86-17.12 190.75-16.16 190.75-14.75C190.75-13.34 189.86-12.42 188.35-12.42ZM198.85-16.03C198.85-9.82 204.10-9.15 207.84-8.64C209.95-8.35 211.58-8 211.58-6.75C211.58-5.38 210.30-4.93 208.16-4.93C206.37-4.93 205.12-5.50 204.54-6.62C204.06-7.55 203.62-7.65 202.66-7.33L199.65-6.24C198.72-5.89 198.43-5.44 198.78-4.48C200.00-1.15 203.33 0.48 208.10 0.48C213.76 0.48 218.02-2.11 218.02-6.82C218.02-12.86 213.22-13.76 209.50-14.27C207.20-14.56 205.31-14.85 205.31-16.22C205.31-17.34 206.18-17.89 208.35-17.89C209.82-17.89 210.98-17.44 211.58-16.22C212.10-15.30 212.45-15.17 213.31-15.55L216.51-16.93C217.47-17.31 217.73-17.79 217.28-18.72C215.78-21.79 213.09-23.20 208.35-23.20C202.24-23.20 198.85-20.26 198.85-16.03Z"/></svg>