<svg id="mainsvg" xmlns="http://www.w3.org/2000/svg" xmlns:xlink="http://www.w3.org/1999/xlink" version="1.1" x="0px" y="0px" enable-background="new 0 0 200 162.5" xml:space="preserve" viewBox="0 0 149 36"><path fill="#000" transform="translate(-0.17762411374272638, 27.544858577559157)" d="M4.06-5.12C4.67-4 4.32-1.82 5.98-1.63C7.62-1.41 9.76-4.13 10.59-5.38C11.65-6.98 12.77-8.93 13.86-11.30C15.14-14.11 19.07-21.98 12.64-21.79C13.09-20.06 11.42-17.34 9.02-17.57C7.55-17.70 6.72-19.20 6.85-20.70C7.10-24.16 12.16-26.05 16.03-26.14C19.49-26.24 20.99-24.06 20.48-19.87C20.26-17.73 19.46-15.74 18.62-13.79C17.76-11.81 16.77-9.89 15.68-8.06C15.04-7.01 14.37-6.02 13.63-5.02C12.74-3.78 11.78-2.62 10.75-1.50C8.77 0.64 5.89 3.23 2.72 2.72C-1.18 2.08-0.48-5.41 4.06-5.12ZM22.18-5.38C22.37-4.93 22.75-4.70 23.46-4.80C25.22-5.09 25.98-7.30 27.17-8.38C27.84-9.02 30.30-12.03 31.52-11.04C32.54-10.21 30.62-7.62 30.21-6.88C29.95-6.37 28.83-4.16 30.34-4.16C33.92-4.16 32.96-7.71 34.59-7.30C36.16-6.91 34.53-4.26 34.37-3.97C33.50-2.37 31.94-0.86 30.18-0.19C29.06 0.26 27.23 0.70 26.24-0.22C25.66-0.74 25.28-1.82 25.22-2.59C25.22-2.62 22.21-0.90 21.92-0.80C20.74-0.32 19.33-0.42 18.50-1.50C15.26-5.86 19.68-11.78 23.10-14.43C24.51-15.49 26.02-16.42 27.65-16.96C29.15-17.47 33.54-17.12 33.82-16.13C34.21-14.82 31.87-12.51 30.56-12.38C28.51-12.16 26.40-13.44 24.48-12.13C22.56-10.82 21.02-7.65 22.18-5.38ZM49.22-9.22C51.74-9.15 46.02-3.17 43.97-1.73C42.66-0.77 39.87 0.45 38.14 0.16C33.09-0.77 31.62-7.55 37.31-13.38C38.27-14.37 39.39-15.36 40.54-16.16C42.30-17.41 44.54-18.18 46.46-16.77C49.09-14.85 46.24-10.27 44.51-8.64C44.10-8.32 41.34-6.69 40.70-8.06C39.81-10.02 43.26-11.14 43.33-12C43.39-12.58 42.40-13.15 41.95-13.25C40.16-13.50 39.01-11.81 38.53-10.40C38.08-8.99 38.08-7.33 38.85-6.02C39.84-4.32 42.98-3.84 45.47-5.92C47.33-7.46 47.71-9.25 49.22-9.22ZM50.46-8.80C50.30-8.70 50.50-8.64 50.46-8.80C50.43-9.09 52.13-9.92 52.38-10.05C53.79-10.85 54.98-11.78 55.84-13.15C56.03-13.47 56.19-13.73 56.26-14.08C56.42-14.85 56.26-15.17 56.83-15.84C57.38-16.48 59.07-17.98 59.94-17.34C61.34-16.32 59.52-13.34 58.82-12.45C58.21-11.68 57.15-11.01 55.87-10.24C56.67-10.69 58.75-10.46 57.12-7.84C56.74-7.20 56.51-6.62 56.26-6.02C56.10-5.63 55.62-4.26 55.94-3.94C56.42-3.42 57.86-4.80 58.11-5.15C58.66-5.89 59.36-6.72 59.81-7.14C60.51-7.78 61.76-8.32 61.34-6.66C60.99-5.34 60.10-4.22 59.30-3.23C58.11-1.76 56.58-0.19 55.42 0.29C50.88 2.11 51.52-3.42 52.77-5.76C50.88-5.38 49.34-5.12 48.42-3.84C47.39-2.40 47.20 0.90 45.15-0.10C44.54-0.38 44.80-1.18 44.80-1.38C45.28-4.96 47.26-9.57 48.70-13.02C49.09-13.98 49.50-14.91 49.92-15.84C50.43-16.93 50.94-18.02 51.46-19.10C51.90-20.06 52.38-21.02 52.93-21.92C53.66-23.20 54.43-24.48 55.33-25.66C55.84-26.40 57.25-27.74 58.24-27.52C60.19-27.07 57.76-24.54 57.34-23.87C54.69-19.55 52.67-13.50 50.46-8.90C50.46-8.86 50.46-8.83 50.46-8.80ZM70.50-17.22C70.50-16 67.46-15.30 68.86-12.48C69.98-10.21 71.01-10.21 70.46-7.42C70.30-6.66 69.92-5.92 69.70-5.22C70.66-5.09 71.62-6.30 72.13-7.01C72.58-7.58 72.90-8.80 73.63-8.13C74.69-7.17 73.76-4.99 72.74-4C70.91-2.24 68.77-0.74 66.27-0.16C65.12 0.10 63.84 0.22 62.66-0.06C61.79-0.29 60.45-1.02 60.06-1.89C59.68-2.78 60.19-3.78 60.03-4.70C59.97-5.12 59.55-5.09 59.55-5.70C59.55-6.98 60.38-8.13 61.02-9.18C61.57-10.08 62.05-11.04 62.53-11.97C63.30-13.50 64.19-15.14 65.54-16.22C66.08-16.67 69.89-18.02 70.50-17.22ZM64.03-7.97C66.27-8.19 63.71-5.38 63.30-4.58C64.26-3.78 64.86-4.67 65.28-4.96C67.17-6.82 66.30-9.44 65.41-10.46C65.18-9.95 64.19-8.58 64.03-7.97ZM89.41-20.13C89.57-22.40 87.23-22.24 86.14-22.08C85.70-22.02 84.83-21.63 84.35-21.34C82.59-20.35 81.41-18.62 80.32-16.99C79.14-15.17 78.14-13.22 77.57-11.14C76.93-8.86 76.80-6.08 78.69-4.38C79.42-3.71 81.06-3.62 81.89-4.10C83.52-5.02 83.90-7.20 84.70-8.74C85.12-9.50 85.60-10.53 86.24-11.14C87.23-12.13 89.50-12.22 88.86-10.24C88.42-8.80 87.46-7.68 86.82-6.34C85.86-4.38 85.57-1.95 86.14 0.16C86.59 1.86 87.90 3.55 87.10 5.34C86.40 6.98 84.06 8.64 82.53 7.01C81.44 5.86 81.70 3.42 81.73 1.95C81.76 1.57 81.66-0.67 81.92-0.80C80.45 0.06 78.40 1.09 76 0.38C73.79-0.26 73.34-3.17 73.38-5.06C73.44-7.81 74.02-10.59 75.04-13.15C75.90-15.33 76.99-17.41 78.37-19.33C79.62-21.09 81.12-22.72 82.85-24.06C85.02-25.76 87.65-27.01 90.50-26.50C91.42-26.34 93.22-25.50 93.60-24.51C94.40-22.40 93.25-20.13 91.87-18.56C91.17-17.73 90.30-17.06 89.44-16.42C88.74-15.87 87.20-15.10 86.27-15.62C84.67-16.58 86.46-19.14 87.58-19.65C87.68-19.68 89.44-20.32 89.41-20.13ZM103.74-14.78C104.74-13.31 103.20-11.55 102.53-10.30C101.66-8.77 100.70-7.33 100.48-5.54C100.29-4.03 101.47-3.26 102.59-4.48C103.30-5.28 103.87-6.46 104.51-7.36C104.77-7.78 105.09-8.22 105.60-8.35C107.46-8.70 105.70-5.18 105.44-4.64C104.35-2.34 102.46 0.51 99.58 0.77C97.92 0.90 96.48-0.03 96.61-1.86C96.54-0.80 95.04-0.19 94.18 0.06C89.89 1.28 87.94-3.46 89.06-6.91C89.47-8.22 90.11-9.57 90.78-10.75C91.58-12.13 92.51-13.63 93.73-14.66C94.02-14.94 95.78-16.13 96.38-15.39C97.25-14.34 95.39-12.61 94.69-11.52C93.66-9.92 92.48-7.71 92.99-5.50C93.57-2.94 96.48-4.86 97.22-6.34C98.43-8.74 98.91-10.05 100.13-12.51C101.09-14.46 102.91-16.06 103.74-14.78ZM113.02-22.14C114.34-21.79 113.66-21.06 113.73-20.38C113.89-18.94 111.74-17.12 110.69-17.22C110.21-17.28 109.47-17.98 109.38-18.37C108.80-20.38 111.26-22.53 113.02-22.14ZM108.29-4.96C109.15-5.34 110.08-5.79 110.78-6.72C111.20-7.30 111.94-9.12 112.99-8.54C113.70-8.16 112.90-6.14 112.35-5.28C111.10-3.23 108.80-0.29 106.08 0C105.47 0.06 104.29-0.26 103.94-0.83C103.14-2.14 103.58-4.19 103.90-5.54C104.35-7.36 105.02-9.06 105.66-10.78C106.02-11.71 106.40-12.58 106.88-13.41C107.39-14.27 108.26-15.14 109.09-15.65C109.95-16.19 110.66-15.58 110.78-14.72C110.91-13.66 110.46-12.64 110.02-11.71C109.18-10.02 108.38-8.32 107.87-6.50C107.78-6.24 107.33-4.99 107.62-4.80C107.74-4.70 108.10-4.86 108.29-4.96ZM124.03-24.42C124.10-24.38 120.38-19.46 120.61-19.52C122.37-19.78 122.62-19.94 123.68-20.06C124.16-20.13 125.86-20.26 126.18-19.90C126.62-19.39 125.44-17.98 125.15-17.60C124.42-16.58 123.17-15.78 121.89-15.68C120.38-15.55 119.55-16.19 118.14-15.23C117.25-14.59 112.51-3.65 117.02-4.13C119.17-4.35 119.26-5.63 119.90-6.59C120.99-8.22 122.43-7.97 121.70-5.92C121.22-4.54 120.64-3.49 119.74-2.40C118.30-0.67 115.39 0.64 113.06 0.13C111.55-0.19 109.60-1.57 110.72-5.54C112.38-11.46 114.46-14.34 114.59-14.50C115.68-15.68 115.10-16 114.30-15.84C113.06-15.65 113.25-17.44 113.89-18.18C115.30-19.71 116.26-19.30 116.80-19.36C117.57-19.42 117.70-20.19 118.11-20.83C120.45-24.61 119.94-23.49 122.08-24.32C122.56-24.51 123.55-24.74 124.03-24.42ZM124.35-5.38C124.54-4.93 124.93-4.70 125.63-4.80C127.39-5.09 128.16-7.30 129.34-8.38C130.02-9.02 132.48-12.03 133.70-11.04C134.72-10.21 132.80-7.62 132.38-6.88C132.13-6.37 131.01-4.16 132.51-4.16C136.10-4.16 135.14-7.71 136.77-7.30C138.34-6.91 136.70-4.26 136.54-3.97C135.68-2.37 134.11-0.86 132.35-0.19C131.23 0.26 129.41 0.70 128.42-0.22C127.84-0.74 127.46-1.82 127.39-2.59C127.39-2.62 124.38-0.90 124.10-0.80C122.91-0.32 121.50-0.42 120.67-1.50C117.44-5.86 121.86-11.78 125.28-14.43C126.69-15.49 128.19-16.42 129.82-16.96C131.33-17.47 135.71-17.12 136-16.13C136.38-14.82 134.05-12.51 132.74-12.38C130.69-12.16 128.58-13.44 126.66-12.13C124.74-10.82 123.20-7.65 124.35-5.38ZM142.18-17.95C142.50-17.70 142.43-17.25 142.46-16.90C142.50-16.51 142.62-16.16 142.85-15.81C143.33-14.94 144.13-14.24 145.06-13.86C145.89-13.54 147.14-13.82 147.33-12.64C147.62-11.14 146.62-9.98 145.60-8.99C144.77-8.13 144-7.26 143.49-6.18C143.10-5.38 142.88-4.26 144.16-4.35C146.53-4.58 146.46-7.36 148.19-8.42C149.12-8.96 148.93-7.52 148.86-7.04C148.54-4.54 146.94-1.89 144.70-0.64C144.06-0.29 143.26-0.03 142.53 0.03C141.31 0.16 139.30-0.48 138.91-1.76C138.56-2.94 139.10-4.32 139.58-5.38C139.94-6.11 140.26-6.88 140.70-7.58C140.99-8.06 141.47-8.45 141.73-8.96C142.14-9.70 141.31-9.73 140.96-10.24C139.52-12.29 138.37-9.15 137.92-7.90C137.34-6.30 136.61-5.54 136.03-5.73C134.94-6.02 135.49-9.15 135.71-9.73C136.32-11.36 137.02-12.99 137.73-14.62C138.27-15.94 139.07-17.34 140.48-17.89C140.90-18.08 141.63-18.30 142.08-18.05C142.11-18.02 142.14-17.98 142.18-17.95Z"/></svg>