<svg id="mainsvg" xmlns="http://www.w3.org/2000/svg" xmlns:xlink="http://www.w3.org/1999/xlink" version="1.1" x="0px" y="0px" enable-background="new 0 0 200 162.5" xml:space="preserve" viewBox="0 0 196 25"><path fill="#000" transform="translate(-0.608, 23.648)" d="M11.87-6.62L10.53-6.62C10.69-2.66 9.47-1.79 5.31-1.76L5.31-20.06C5.31-20.99 5.50-21.86 6.50-21.86L6.50-22.37L0.61-22.37L0.61-21.86C1.38-21.86 1.66-21.31 1.76-20.64L2.43-2.53C2.43-1.63 2.21-0.83 1.28-0.83L1.28-0.32L11.87-0.32ZM24.93-15.36L24.93-20.38L13.60-20.38L13.60-19.87C14.59-19.87 14.78-19.01 14.78-18.08L14.82-18.08L15.84-3.01C15.74-2.34 15.46-1.79 14.69-1.79L14.69-1.28L24.42-1.28L24-6.30L22.62-6.30C22.62-3.65 22.08-2.85 18.69-2.75L18.53-11.14C19.81-11.04 21.54-10.24 21.54-8.32L22.30-8.32L21.89-14.91L20.70-14.91C20.70-12.77 19.71-12.16 18.50-12.13L18.34-18.94C22.53-18.91 23.58-17.31 23.58-15.36ZM31.33-20.26C32-20.77 32.90-20.96 33.95-20.54C35.39-19.94 36.03-18.37 36.03-16.16L37.28-16.16L37.86-21.60L36-21.60L36.03-20C35.52-20.61 34.91-21.06 34.27-21.31C32.90-21.86 31.30-21.54 30.30-20.83C26.62-18.21 27.04-14.50 29.79-11.10C31.84-8.58 35.07-6.53 35.01-4.42C34.98-3.58 34.82-2.88 33.92-2.21C32.93-1.50 31.46-1.82 30.75-2.24C28.99-3.23 28.13-5.86 28.32-8.19L27.07-8.26L26.53-1.66L28.38-1.66L28.22-3.20C29.09-1.92 30.50-0.96 32.67-0.96C35.26-0.96 36.45-3.20 36.77-4.74C37.38-7.52 36.32-9.57 34.02-12.10C31.01-15.39 28.38-17.82 31.33-20.26ZM42.21-22.30L40.83-22.30L39.68-22.34L39.65-21.79C40.64-21.79 40.83-20.93 40.83-20L40.64-2.56L40.61-2.56C40.61-1.63 40.42-0.80 39.42-0.80L39.42-0.29L43.42-0.22L44.67-0.22L44.67-0.74C43.74-0.74 43.52-1.54 43.52-2.43L43.78-7.81C47.78-7.87 51.20-9.15 51.87-16.96C52.13-19.90 50.05-22.21 45.92-22.27ZM48.32-15.68C47.74-10.50 45.82-8.99 43.84-9.06L44.42-20.80C44.70-21.15 45.12-21.22 45.63-21.22C48.03-21.18 48.70-19.10 48.32-15.68ZM60.93-22.05L58.69-22.05L54.82-3.33C54.59-2.27 54.02-1.54 53.02-1.54L53.02-1.02L57.57-1.02L57.57-1.54C56.58-1.54 56.22-2.37 56.38-3.33L56.83-5.47L60.70-5.47L61.63-1.02L61.60-1.02C61.76-0.06 61.44 0.77 60.45 0.77L60.45 1.28L67.07 1.28L67.07 0.77C66.08 0.77 65.54 0.03 65.28-1.02ZM60.42-6.85L57.12-6.85L58.75-14.82ZM80.74-17.12L76.64-17.12L76.64-16.61C77.50-16.61 77.73-15.87 77.73-14.82L77.95-4.99C77.95-2.66 77.09-1.50 75.71-1.50C74.72-1.50 73.47-2.21 73.47-4.54L73.47-16.74C73.47-17.66 73.57-18.53 74.56-18.53L74.56-19.04L68.67-19.04L68.67-18.53C69.50-18.53 69.86-17.92 69.95-17.18L70.69-5.41C70.69-2.59 72.54-0.32 75.36-0.32C77.18-0.32 79.17-1.82 79.17-4.29L79.39-14.94C79.42-15.84 79.81-16.61 80.74-16.61ZM93.31-7.26L91.94-7.26C92.13-3.30 90.91-2.43 86.78-2.40L87.14-17.98C87.17-18.82 87.46-19.55 88.35-19.55L88.35-20.06L82.46-20.06L82.46-19.55C83.33-19.55 83.55-18.88 83.58-18.08L83.90-3.26C83.90-2.34 83.68-1.47 82.72-1.47L82.72-0.96L93.31-0.96ZM107.74-13.22L96.10-13.92L96.03-10.66L107.71-11.87ZM114.24-18.72L121.34 1.28L123.49 1.15L121.92-21.38L121.95-21.38C121.86-22.30 122.02-23.14 123.01-23.14L123.01-23.65L121.76-23.65L119.01-23.65L119.01-23.14C119.81-23.14 120.19-22.59 120.29-21.89L120.93-7.65L116.58-21.50L116.54-21.50L110.91-21.50L110.91-20.99C111.65-20.99 111.97-20.51 112.06-19.90L112.13-19.23L112.54-2.46C112.58-1.54 112.45-0.67 111.49-0.67L111.49-0.16L112.74-0.16L115.46-0.16L115.46-0.67C114.62-0.67 114.24-1.31 114.18-2.11ZM137.57-11.36C137.73-17.54 134.75-21.47 131.49-21.57C128.16-21.63 124.99-18.05 124.83-11.65L124.86-11.74C124.67-5.60 127.68-1.63 130.94-1.54C134.27-1.50 137.41-5.60 137.60-11.46ZM133.54-7.94C133.44-3.81 131.87-3.14 130.98-3.17C130.11-3.17 128.61-4.16 128.70-8.03L128.86-13.98C129.02-19.39 130.56-20.16 131.42-20.13C132.29-20.06 133.86-19.42 133.70-13.82ZM152.42-5.54C152.13-3.65 151.78-3.17 151.33-3.17C150.78-3.17 150.72-5.79 150.34-7.39C149.66-10.02 148.83-11.62 147.07-12.26C149.25-12.93 150.82-14.21 150.88-16.51C151.01-21.18 148.80-21.66 144.70-21.54L142.85-21.47L138.43-21.31L138.46-20.77C139.42-20.83 139.65-19.97 139.68-19.04L139.71-19.04L140.32-4.13L140.29-4.13C140.32-3.20 140.16-2.34 139.20-2.30L139.20-1.79L141.63-1.89L143.20-1.92L144.45-1.98L144.45-2.50C143.49-2.46 143.23-3.23 143.20-4.13L143.23-11.36C143.62-11.58 144-11.71 144.35-11.71C146.50-11.71 146.53-7.94 146.98-5.50C147.39-3.33 148.26-1.28 150.21-1.28C152.64-1.28 152.93-4.19 153.12-5.41ZM144.45-20.45C146.85-20.54 147.58-19.78 147.36-16.32C147.17-13.70 145.18-12.90 143.23-12.86L143.23-20C143.52-20.35 143.90-20.45 144.45-20.45ZM166.91-18.30C166.91-19.23 167.14-20.10 168.13-20.10L168.13-20.61L163.33-20.61L161.25-14.24L159.04-19.90L159.01-19.90L153.38-19.90L153.38-19.39C154.18-19.39 154.46-18.85 154.59-18.11L154.62-17.60L155.94-4.22C156-3.26 155.87-2.43 154.91-2.43L154.91-1.92L156.16-1.92L158.88-1.92L158.88-2.43C158.05-2.43 157.66-3.04 157.57-3.81L157.54-4.22L156.74-17.18L159.81-9.89L161.47-9.89L163.42-16.06L163.68-4.45C163.65-3.58 163.39-2.85 162.46-2.85L162.46-2.34L163.74-2.34L167.74-2.34L167.74-2.85C166.82-2.85 166.59-3.58 166.59-4.45ZM178.24-22.05L176.00-22.05L172.13-3.33C171.90-2.27 171.33-1.54 170.34-1.54L170.34-1.02L174.88-1.02L174.88-1.54C173.89-1.54 173.54-2.37 173.70-3.33L174.14-5.47L178.02-5.47L178.94-1.02L178.91-1.02C179.07-0.06 178.75 0.77 177.76 0.77L177.76 1.28L184.38 1.28L184.38 0.77C183.39 0.77 182.85 0.03 182.59-1.02ZM177.73-6.85L174.43-6.85L176.06-14.82ZM196.51-7.26L195.14-7.26C195.33-3.30 194.11-2.43 189.98-2.40L190.34-17.98C190.37-18.82 190.66-19.55 191.55-19.55L191.55-20.06L185.66-20.06L185.66-19.55C186.53-19.55 186.75-18.88 186.78-18.08L187.10-3.26C187.10-2.34 186.88-1.47 185.92-1.47L185.92-0.96L196.51-0.96Z"/></svg>