<svg id="mainsvg" xmlns="http://www.w3.org/2000/svg" xmlns:xlink="http://www.w3.org/1999/xlink" version="1.1" x="0px" y="0px" enable-background="new 0 0 200 162.5" xml:space="preserve" viewBox="0 0 329 32"><path fill="#000" transform="translate(-0.768, 23.52)" d="M10.75 0.16Q9.44 0.16 8.77-1.31L8.77-1.31L0.86-20.48Q0.77-20.74 0.77-21.02L0.77-21.02Q0.77-21.70 1.15-22.10Q1.54-22.50 2.21-22.50L2.21-22.50Q2.66-22.50 3.02-22.22Q3.39-21.95 3.58-21.50L3.58-21.50L11.10-2.75L18.62-21.50Q18.82-21.95 19.18-22.22Q19.55-22.50 20-22.50L20-22.50Q20.67-22.50 21.06-22.10Q21.44-21.70 21.44-21.02L21.44-21.02Q21.44-20.74 21.34-20.48L21.34-20.48L13.44-1.31Q12.77 0.16 11.46 0.16L11.46 0.16L10.75 0.16ZM28.90 0.32Q27.49 0.32 26.29-0.26Q25.09-0.83 24.38-1.94Q23.68-3.04 23.68-4.48L23.68-4.48Q23.68-6.85 25.55-8.26Q27.42-9.66 31.04-9.66L31.04-9.66L34.91-9.66L34.91-9.92Q34.91-12.03 33.87-12.96Q32.83-13.89 30.62-13.89L30.62-13.89Q29.41-13.89 28.46-13.70Q27.52-13.50 26.37-13.12L26.37-13.12Q26.11-13.06 25.95-13.06L25.95-13.06Q25.47-13.06 25.12-13.41Q24.77-13.76 24.77-14.27L24.77-14.27Q24.77-15.14 25.60-15.49L25.60-15.49Q28.32-16.64 31.14-16.64L31.14-16.64Q33.34-16.64 34.86-15.74Q36.38-14.85 37.10-13.42Q37.82-12 37.82-10.34L37.82-10.34L37.82-1.28Q37.82-0.67 37.39-0.26Q36.96 0.16 36.35 0.16L36.35 0.16Q35.74 0.16 35.33-0.26Q34.91-0.67 34.91-1.28L34.91-1.28L34.91-2.11Q32.54 0.32 28.90 0.32L28.90 0.32ZM29.98-2.24Q31.39-2.24 32.70-2.93Q34.02-3.62 34.91-4.64L34.91-4.64L34.91-7.33L31.42-7.33Q26.59-7.33 26.59-4.80L26.59-4.80Q26.59-3.65 27.38-2.94Q28.16-2.24 29.98-2.24L29.98-2.24ZM44.16 0.16Q43.55 0.16 43.14-0.26Q42.72-0.67 42.72-1.28L42.72-1.28L42.72-15.01Q42.72-15.62 43.14-16.05Q43.55-16.48 44.16-16.48L44.16-16.48Q44.77-16.48 45.20-16.05Q45.63-15.62 45.63-15.01L45.63-15.01L45.63-13.63Q47.87-16.64 50.66-16.64L50.66-16.64L50.82-16.64Q51.42-16.64 51.82-16.22Q52.22-15.81 52.22-15.20L52.22-15.20Q52.22-14.59 51.81-14.21Q51.39-13.82 50.75-13.82L50.75-13.82L50.59-13.82Q49.06-13.82 47.78-13.07Q46.50-12.32 45.63-11.01L45.63-11.01L45.63-1.28Q45.63-0.67 45.20-0.26Q44.77 0.16 44.16 0.16L44.16 0.16ZM62.27 0.32Q58.37 0.32 56.18-1.90Q53.98-4.13 53.98-8.16L53.98-8.16Q53.98-10.43 54.82-12.35Q55.65-14.27 57.38-15.46Q59.10-16.64 61.63-16.64L61.63-16.64Q64-16.64 65.73-15.54Q67.46-14.43 68.35-12.59Q69.25-10.75 69.25-8.58L69.25-8.58Q69.25-7.97 68.85-7.55Q68.45-7.14 67.78-7.14L67.78-7.14L56.93-7.14Q57.18-4.90 58.59-3.65Q60.00-2.40 62.53-2.40L62.53-2.40Q63.87-2.40 64.88-2.66Q65.89-2.91 66.85-3.39L66.85-3.39Q67.10-3.52 67.42-3.52L67.42-3.52Q67.94-3.52 68.32-3.17Q68.70-2.82 68.70-2.27L68.70-2.27Q68.70-1.57 67.87-1.09L67.87-1.09Q66.62-0.38 65.41-0.03Q64.19 0.32 62.27 0.32L62.27 0.32ZM56.93-9.50L66.37-9.50Q66.27-11.07 65.55-12.13Q64.83-13.18 63.78-13.68Q62.72-14.18 61.63-14.18L61.63-14.18Q60.54-14.18 59.49-13.68Q58.43-13.18 57.73-12.13Q57.02-11.07 56.93-9.50L56.93-9.50ZM74.53 0.16Q73.92 0.16 73.50-0.26Q73.09-0.67 73.09-1.28L73.09-1.28L73.09-22.05Q73.09-22.66 73.50-23.09Q73.92-23.52 74.53-23.52L74.53-23.52Q75.17-23.52 75.58-23.10Q76-22.69 76-22.05L76-22.05L76-1.28Q76-0.67 75.57-0.26Q75.14 0.16 74.53 0.16L74.53 0.16ZM85.22 0.32Q83.81 0.32 82.61-0.26Q81.41-0.83 80.70-1.94Q80-3.04 80-4.48L80-4.48Q80-6.85 81.87-8.26Q83.74-9.66 87.36-9.66L87.36-9.66L91.23-9.66L91.23-9.92Q91.23-12.03 90.19-12.96Q89.15-13.89 86.94-13.89L86.94-13.89Q85.73-13.89 84.78-13.70Q83.84-13.50 82.69-13.12L82.69-13.12Q82.43-13.06 82.27-13.06L82.27-13.06Q81.79-13.06 81.44-13.41Q81.09-13.76 81.09-14.27L81.09-14.27Q81.09-15.14 81.92-15.49L81.92-15.49Q84.64-16.64 87.46-16.64L87.46-16.64Q89.66-16.64 91.18-15.74Q92.70-14.85 93.42-13.42Q94.14-12 94.14-10.34L94.14-10.34L94.14-1.28Q94.14-0.67 93.71-0.26Q93.28 0.16 92.67 0.16L92.67 0.16Q92.06 0.16 91.65-0.26Q91.23-0.67 91.23-1.28L91.23-1.28L91.23-2.11Q88.86 0.32 85.22 0.32L85.22 0.32ZM86.30-2.24Q87.71-2.24 89.02-2.93Q90.34-3.62 91.23-4.64L91.23-4.64L91.23-7.33L87.74-7.33Q82.91-7.33 82.91-4.80L82.91-4.80Q82.91-3.65 83.70-2.94Q84.48-2.24 86.30-2.24L86.30-2.24ZM101.06 0.16Q100.45 0.16 100.03-0.26Q99.62-0.67 99.62-1.28L99.62-1.28L99.62-20.86Q99.62-21.47 100.03-21.90Q100.45-22.34 101.06-22.34L101.06-22.34L108.51-22.34Q112.86-22.34 115.04-20.54Q117.22-18.75 117.22-15.84L117.22-15.84Q117.22-13.92 116.14-12.34Q115.07-10.75 113.02-10.05L113.02-10.05Q115.33-9.44 116.18-7.18Q117.02-4.93 117.02-2.75L117.02-2.75L117.02-1.28Q117.02-0.67 116.61-0.26Q116.19 0.16 115.58 0.16L115.58 0.16Q114.91 0.16 114.51-0.24Q114.11-0.64 114.11-1.28L114.11-1.28L114.11-2.24Q114.11-3.84 113.82-5.20Q113.54-6.56 112.45-7.63Q111.36-8.70 109.15-8.70L109.15-8.70L102.53-8.70L102.53-1.28Q102.53-0.67 102.10-0.26Q101.66 0.16 101.06 0.16L101.06 0.16ZM102.53-11.46L108.32-11.46Q111.07-11.46 112.69-12.54Q114.30-13.63 114.30-15.62L114.30-15.62Q114.30-17.54 112.91-18.56Q111.52-19.58 108.16-19.58L108.16-19.58L102.53-19.58L102.53-11.46ZM129.02 0.32Q126.56 0.32 124.70-0.74Q122.85-1.79 121.84-3.73Q120.83-5.66 120.83-8.16L120.83-8.16Q120.83-10.66 121.84-12.59Q122.85-14.53 124.70-15.58Q126.56-16.64 129.02-16.64L129.02-16.64Q131.46-16.64 133.31-15.58Q135.17-14.53 136.19-12.59Q137.22-10.66 137.22-8.16L137.22-8.16Q137.22-5.66 136.19-3.73Q135.17-1.79 133.31-0.74Q131.46 0.32 129.02 0.32L129.02 0.32ZM129.02-2.34Q130.34-2.34 131.54-2.94Q132.74-3.55 133.52-4.86Q134.30-6.18 134.30-8.19L134.30-8.19Q134.30-10.18 133.52-11.49Q132.74-12.80 131.54-13.39Q130.34-13.98 129.02-13.98L129.02-13.98Q127.68-13.98 126.48-13.39Q125.28-12.80 124.51-11.49Q123.74-10.18 123.74-8.19L123.74-8.19Q123.74-6.18 124.51-4.86Q125.28-3.55 126.48-2.94Q127.68-2.34 129.02-2.34L129.02-2.34ZM146.85 0.32Q145.09 0.32 143.79-0.51Q142.50-1.34 141.81-2.78Q141.12-4.22 141.12-5.95L141.12-5.95L141.12-15.04Q141.12-15.65 141.55-16.06Q141.98-16.48 142.59-16.48L142.59-16.48Q143.20-16.48 143.62-16.06Q144.03-15.65 144.03-15.04L144.03-15.04L144.03-6.27Q144.03-2.37 147.55-2.37L147.55-2.37Q149.15-2.37 150.42-3.20Q151.68-4.03 152.80-5.44L152.80-5.44L152.80-15.04Q152.80-15.65 153.23-16.06Q153.66-16.48 154.27-16.48L154.27-16.48Q154.88-16.48 155.30-16.06Q155.71-15.65 155.71-15.04L155.71-15.04L155.71-1.31Q155.71-0.70 155.30-0.27Q154.88 0.16 154.27 0.16L154.27 0.16Q153.66 0.16 153.23-0.27Q152.80-0.70 152.80-1.31L152.80-1.31L152.80-2.62Q151.58-1.28 150.18-0.48Q148.77 0.32 146.85 0.32L146.85 0.32ZM162.21 0.16Q161.60 0.16 161.18-0.26Q160.77-0.67 160.77-1.28L160.77-1.28L160.77-15.01Q160.77-15.62 161.18-16.05Q161.60-16.48 162.21-16.48L162.21-16.48Q162.82-16.48 163.25-16.05Q163.68-15.62 163.68-15.01L163.68-15.01L163.68-13.70Q164.90-15.04 166.30-15.84Q167.71-16.64 169.63-16.64L169.63-16.64Q171.39-16.64 172.69-15.81Q173.98-14.98 174.67-13.54Q175.36-12.10 175.36-10.37L175.36-10.37L175.36-1.28Q175.36-0.67 174.93-0.26Q174.50 0.16 173.89 0.16L173.89 0.16Q173.28 0.16 172.86-0.26Q172.45-0.67 172.45-1.28L172.45-1.28L172.45-10.05Q172.45-13.95 168.93-13.95L168.93-13.95Q167.33-13.95 166.06-13.12Q164.80-12.29 163.68-10.88L163.68-10.88L163.68-1.28Q163.68-0.67 163.25-0.26Q162.82 0.16 162.21 0.16L162.21 0.16ZM187.01 0.32Q185.02 0.32 183.25-0.69Q181.47-1.70 180.37-3.63Q179.26-5.57 179.26-8.16L179.26-8.16Q179.26-10.75 180.37-12.69Q181.47-14.62 183.25-15.63Q185.02-16.64 187.01-16.64L187.01-16.64Q190.14-16.64 192.48-14.21L192.48-14.21L192.48-22.05Q192.48-22.69 192.91-23.10Q193.34-23.52 193.95-23.52L193.95-23.52Q194.56-23.52 194.98-23.09Q195.39-22.66 195.39-22.05L195.39-22.05L195.39-1.28Q195.39-0.67 194.98-0.26Q194.56 0.16 193.95 0.16L193.95 0.16Q193.34 0.16 192.91-0.26Q192.48-0.67 192.48-1.28L192.48-1.28L192.48-2.11Q190.14 0.32 187.01 0.32L187.01 0.32ZM187.42-2.40Q188.90-2.40 190.19-3.06Q191.49-3.71 192.48-4.80L192.48-4.80L192.48-11.52Q191.49-12.61 190.19-13.26Q188.90-13.92 187.42-13.92L187.42-13.92Q185.06-13.92 183.62-12.42Q182.18-10.91 182.18-8.16L182.18-8.16Q182.18-5.41 183.62-3.90Q185.06-2.40 187.42-2.40L187.42-2.40ZM201.41-7.68Q200.86-7.68 200.50-8.05Q200.13-8.42 200.13-8.96L200.13-8.96Q200.13-9.50 200.50-9.89Q200.86-10.27 201.41-10.27L201.41-10.27L207.46-10.27Q208-10.27 208.38-9.89Q208.77-9.50 208.77-8.96L208.77-8.96Q208.77-8.42 208.38-8.05Q208-7.68 207.46-7.68L207.46-7.68L201.41-7.68ZM215.52 0.16Q214.91 0.16 214.50-0.26Q214.08-0.67 214.08-1.28L214.08-1.28L214.08-20.86Q214.08-21.47 214.50-21.90Q214.91-22.34 215.52-22.34L215.52-22.34L222.98-22.34Q227.33-22.34 229.50-20.54Q231.68-18.75 231.68-15.84L231.68-15.84Q231.68-13.92 230.61-12.34Q229.54-10.75 227.49-10.05L227.49-10.05Q229.79-9.44 230.64-7.18Q231.49-4.93 231.49-2.75L231.49-2.75L231.49-1.28Q231.49-0.67 231.07-0.26Q230.66 0.16 230.05 0.16L230.05 0.16Q229.38 0.16 228.98-0.24Q228.58-0.64 228.58-1.28L228.58-1.28L228.58-2.24Q228.58-3.84 228.29-5.20Q228-6.56 226.91-7.63Q225.82-8.70 223.62-8.70L223.62-8.70L216.99-8.70L216.99-1.28Q216.99-0.67 216.56-0.26Q216.13 0.16 215.52 0.16L215.52 0.16ZM216.99-11.46L222.78-11.46Q225.54-11.46 227.15-12.54Q228.77-13.63 228.77-15.62L228.77-15.62Q228.77-17.54 227.38-18.56Q225.98-19.58 222.62-19.58L222.62-19.58L216.99-19.58L216.99-11.46ZM243.58 0.32Q239.68 0.32 237.49-1.90Q235.30-4.13 235.30-8.16L235.30-8.16Q235.30-10.43 236.13-12.35Q236.96-14.27 238.69-15.46Q240.42-16.64 242.94-16.64L242.94-16.64Q245.31-16.64 247.04-15.54Q248.77-14.43 249.66-12.59Q250.56-10.75 250.56-8.58L250.56-8.58Q250.56-7.97 250.16-7.55Q249.76-7.14 249.09-7.14L249.09-7.14L238.24-7.14Q238.50-4.90 239.90-3.65Q241.31-2.40 243.84-2.40L243.84-2.40Q245.18-2.40 246.19-2.66Q247.20-2.91 248.16-3.39L248.16-3.39Q248.42-3.52 248.74-3.52L248.74-3.52Q249.25-3.52 249.63-3.17Q250.02-2.82 250.02-2.27L250.02-2.27Q250.02-1.57 249.18-1.09L249.18-1.09Q247.94-0.38 246.72-0.03Q245.50 0.32 243.58 0.32L243.58 0.32ZM238.24-9.50L247.68-9.50Q247.58-11.07 246.86-12.13Q246.14-13.18 245.09-13.68Q244.03-14.18 242.94-14.18L242.94-14.18Q241.86-14.18 240.80-13.68Q239.74-13.18 239.04-12.13Q238.34-11.07 238.24-9.50L238.24-9.50ZM262.02 7.68Q260.16 7.68 258.27 7.20Q256.38 6.72 255.17 6.02L255.17 6.02Q254.59 5.66 254.59 4.90L254.59 4.90Q254.59 4.38 254.96 3.98Q255.33 3.58 255.87 3.58L255.87 3.58Q256.13 3.58 256.45 3.71L256.45 3.71Q258.88 4.93 261.73 4.93L261.73 4.93Q266.62 4.93 266.62-0.29L266.62-0.29L266.62-2.43Q264.35 0 261.15 0L261.15 0Q259.26 0 257.49-0.94Q255.71-1.89 254.56-3.76Q253.41-5.63 253.41-8.32L253.41-8.32Q253.41-11.01 254.56-12.88Q255.71-14.75 257.49-15.70Q259.26-16.64 261.15-16.64L261.15-16.64Q264.35-16.64 266.62-14.21L266.62-14.21L266.62-15.01Q266.62-15.62 267.04-16.05Q267.46-16.48 268.06-16.48L268.06-16.48Q268.67-16.48 269.10-16.05Q269.54-15.62 269.54-15.01L269.54-15.01L269.54-0.70Q269.54 3.33 267.58 5.50Q265.63 7.68 262.02 7.68L262.02 7.68ZM261.76-2.66Q263.26-2.66 264.42-3.30Q265.57-3.94 266.62-5.02L266.62-5.02L266.62-11.62Q265.57-12.70 264.42-13.34Q263.26-13.98 261.76-13.98L261.76-13.98Q259.36-13.98 257.84-12.53Q256.32-11.07 256.32-8.32L256.32-8.32Q256.32-5.57 257.84-4.11Q259.36-2.66 261.76-2.66L261.76-2.66ZM280.16 0.32Q278.40 0.32 277.10-0.51Q275.81-1.34 275.12-2.78Q274.43-4.22 274.43-5.95L274.43-5.95L274.43-15.04Q274.43-15.65 274.86-16.06Q275.30-16.48 275.90-16.48L275.90-16.48Q276.51-16.48 276.93-16.06Q277.34-15.65 277.34-15.04L277.34-15.04L277.34-6.27Q277.34-2.37 280.86-2.37L280.86-2.37Q282.46-2.37 283.73-3.20Q284.99-4.03 286.11-5.44L286.11-5.44L286.11-15.04Q286.11-15.65 286.54-16.06Q286.98-16.48 287.58-16.48L287.58-16.48Q288.19-16.48 288.61-16.06Q289.02-15.65 289.02-15.04L289.02-15.04L289.02-1.31Q289.02-0.70 288.61-0.27Q288.19 0.16 287.58 0.16L287.58 0.16Q286.98 0.16 286.54-0.27Q286.11-0.70 286.11-1.31L286.11-1.31L286.11-2.62Q284.90-1.28 283.49-0.48Q282.08 0.32 280.16 0.32L280.16 0.32ZM295.52 0.16Q294.91 0.16 294.50-0.26Q294.08-0.67 294.08-1.28L294.08-1.28L294.08-22.05Q294.08-22.66 294.50-23.09Q294.91-23.52 295.52-23.52L295.52-23.52Q296.16-23.52 296.58-23.10Q296.99-22.69 296.99-22.05L296.99-22.05L296.99-1.28Q296.99-0.67 296.56-0.26Q296.13 0.16 295.52 0.16L295.52 0.16ZM306.21 0.32Q304.80 0.32 303.60-0.26Q302.40-0.83 301.70-1.94Q300.99-3.04 300.99-4.48L300.99-4.48Q300.99-6.85 302.86-8.26Q304.74-9.66 308.35-9.66L308.35-9.66L312.22-9.66L312.22-9.92Q312.22-12.03 311.18-12.96Q310.14-13.89 307.94-13.89L307.94-13.89Q306.72-13.89 305.78-13.70Q304.83-13.50 303.68-13.12L303.68-13.12Q303.42-13.06 303.26-13.06L303.26-13.06Q302.78-13.06 302.43-13.41Q302.08-13.76 302.08-14.27L302.08-14.27Q302.08-15.14 302.91-15.49L302.91-15.49Q305.63-16.64 308.45-16.64L308.45-16.64Q310.66-16.64 312.18-15.74Q313.70-14.85 314.42-13.42Q315.14-12 315.14-10.34L315.14-10.34L315.14-1.28Q315.14-0.67 314.70-0.26Q314.27 0.16 313.66 0.16L313.66 0.16Q313.06 0.16 312.64-0.26Q312.22-0.67 312.22-1.28L312.22-1.28L312.22-2.11Q309.86 0.32 306.21 0.32L306.21 0.32ZM307.30-2.24Q308.70-2.24 310.02-2.93Q311.33-3.62 312.22-4.64L312.22-4.64L312.22-7.33L308.74-7.33Q303.90-7.33 303.90-4.80L303.90-4.80Q303.90-3.65 304.69-2.94Q305.47-2.24 307.30-2.24L307.30-2.24ZM321.47 0.16Q320.86 0.16 320.45-0.26Q320.03-0.67 320.03-1.28L320.03-1.28L320.03-15.01Q320.03-15.62 320.45-16.05Q320.86-16.48 321.47-16.48L321.47-16.48Q322.08-16.48 322.51-16.05Q322.94-15.62 322.94-15.01L322.94-15.01L322.94-13.63Q325.18-16.64 327.97-16.64L327.97-16.64L328.13-16.64Q328.74-16.64 329.14-16.22Q329.54-15.81 329.54-15.20L329.54-15.20Q329.54-14.59 329.12-14.21Q328.70-13.82 328.06-13.82L328.06-13.82L327.90-13.82Q326.37-13.82 325.09-13.07Q323.81-12.32 322.94-11.01L322.94-11.01L322.94-1.28Q322.94-0.67 322.51-0.26Q322.08 0.16 321.47 0.16L321.47 0.16Z"/></svg>