<svg id="mainsvg" xmlns="http://www.w3.org/2000/svg" xmlns:xlink="http://www.w3.org/1999/xlink" version="1.1" x="0px" y="0px" enable-background="new 0 0 200 162.5" xml:space="preserve" viewBox="0 0 83 27"><path fill="#000" transform="translate(0, 22.56)" d="M3.74-0.03C3.74-1.28 2.91-1.89 2.05-1.89C1.06-1.89 0-1.15 0 0.19C0 2.62 1.82 3.78 4.38 3.78C9.09 3.78 11.74 0.80 11.74-3.71L11.74-7.01L13.47-9.47C14.21-10.46 14.78-10.91 15.46-10.94L15.49-10.94C16.61-10.94 16.77-9.54 16.77-8.48L16.77-2.24C16.77 0.45 18.43 2.30 20.90 2.30C23.42 2.30 24.77 1.12 24.77-0.77C24.64-0.29 24.10 0.29 23.46 0.29C22.02 0.29 22.02-1.22 22.02-2.24L22.02-8.48C22.02-11.20 20.35-13.02 17.89-13.02C17.02-13.02 16.22-12.83 15.55-12.51L22.53-22.56L18.69-22.56L11.74-12.54L11.74-22.56L6.50-22.56L6.50-2.37C6.50-0.29 5.44 2.02 3.33 2.02C2.98 2.02 2.56 1.95 2.14 1.79C3.04 1.73 3.74 0.96 3.74-0.03ZM32.13 0.19C33.95 0.19 36.67-0.67 36.67-3.71C36.19-2.11 34.78-1.66 33.86-1.63L33.73-1.63C31.17-1.63 30.43-4.61 30.43-7.52L30.43-7.78C30.50-10.66 31.49-12.90 32.67-12.90C33.50-12.90 33.82-11.65 33.82-10.40C33.82-8.29 32.51-7.58 31.39-7.58C31.04-7.58 30.69-7.65 30.43-7.78C30.69-7.10 31.74-6.69 32.93-6.69C34.72-6.69 37.18-7.42 37.18-10.02C37.18-12.16 35.33-14.24 31.90-14.24C27.49-14.24 25.25-11.33 25.25-7.26C25.25-2.18 27.87 0.19 32.13 0.19ZM42.18-14.91C43.62-14.91 44.77-15.97 44.77-17.25C44.77-18.53 43.62-19.58 42.18-19.58C40.74-19.58 39.55-18.53 39.55-17.25C39.55-15.97 40.74-14.91 42.18-14.91ZM39.74-4.32C39.74-1.60 41.41 0.22 43.87 0.22C46.40 0.22 47.78-0.93 47.78-2.85C47.62-2.34 47.10-1.79 46.43-1.79C44.99-1.79 44.99-3.26 44.99-4.32L44.99-12.06C44.96-13.79 43.30-14.24 41.63-14.24C40.38-14.24 39.07-14.05 38.62-13.54C38.72-13.57 38.78-13.57 38.88-13.57C39.33-13.57 39.74-13.25 39.74-12.38ZM48.90-4.13C48.90-1.44 50.56 0.42 53.02 0.42C55.55 0.42 56.93-0.77 56.93-2.66C56.77-2.18 56.26-1.63 55.58-1.63C54.14-1.63 54.14-3.10 54.14-4.13L54.14-19.62C54.11-21.34 52.45-21.82 50.78-21.82C49.54-21.82 48.22-21.60 47.78-21.09C47.87-21.12 47.97-21.12 48.06-21.12C48.51-21.12 48.90-20.80 48.90-19.94ZM58.05-4.13C58.05-1.44 59.71 0.42 62.18 0.42C64.70 0.42 66.08-0.77 66.08-2.66C65.92-2.18 65.41-1.63 64.74-1.63C63.30-1.63 63.30-3.10 63.30-4.13L63.30-19.62C63.26-21.34 61.60-21.82 59.94-21.82C58.69-21.82 57.38-21.60 56.93-21.09C57.02-21.12 57.12-21.12 57.22-21.12C57.66-21.12 58.05-20.80 58.05-19.94ZM71.20 0C72.77 0 74.11-0.74 75.10-1.86C75.74-0.45 77.06 0.42 78.75 0.42C81.28 0.42 82.62-0.77 82.62-2.66C82.50-2.18 81.95-1.63 81.31-1.63C79.87-1.63 79.87-3.10 79.87-4.13L79.87-10.05C79.87-12.83 77.41-14.27 73.73-14.27C71.07-14.27 68.67-13.31 68.67-11.49C68.67-9.54 70.88-9.44 72.99-9.44C72.51-9.86 72.26-10.46 72.26-11.23C72.26-12.22 72.58-12.99 73.50-12.99C74.24-12.99 74.62-12.32 74.62-11.42L74.62-7.78C74.11-8.38 73.12-8.83 71.39-8.83C68.48-8.83 66.72-6.69 66.72-4.22C66.72-2.08 68.03 0 71.20 0ZM73.09-7.07C73.70-7.07 74.62-6.91 74.62-5.66L74.62-4.13C74.62-3.90 74.62-3.65 74.66-3.42C74.18-2.82 73.44-2.43 72.80-2.43C71.62-2.43 71.23-3.30 71.23-4.42C71.23-5.73 72.00-7.07 73.09-7.07Z"/></svg>