<svg id="mainsvg" xmlns="http://www.w3.org/2000/svg" xmlns:xlink="http://www.w3.org/1999/xlink" version="1.1" x="0px" y="0px" enable-background="new 0 0 200 162.5" xml:space="preserve" viewBox="0 0 117 24"><path fill="#000" transform="translate(-2.375, 23.5)" d="M5.50-13.50L17.50-13.50L17.50-22.88L20.63-22.88L20.63 0L17.50 0L17.50-10.63L5.50-10.63L5.50 0L2.38 0L2.38-22.88L5.50-22.88L5.50-13.50ZM36.50-5.25L36.50-5.25L39.25-5.25Q38.75-2.38 36.25-0.63L36.25-0.63Q34.88 0.25 31.75 0.25L31.75 0.25Q24.63 0 24.25-7.88L24.25-7.88Q24.50-17 32.25-17.25L32.25-17.25Q39.38-17.13 39.50-7.38L39.50-7.38L27.25-7.38Q27.25-1.88 32.13-1.88L32.13-1.88Q35.63-2.13 36.50-5.25ZM27.25-9.63L27.25-9.63L36.63-9.63Q36.25-14.63 31.88-14.63L31.88-14.63Q27.75-14.25 27.25-9.63ZM42.88-16.75L45.75-16.75L45.75 0L42.88 0L42.88-16.75ZM45.75-22.88L45.75-19.75L42.88-19.75L42.88-22.88L45.75-22.88ZM66.88-16.25L66.88-16.25L64-16.25Q63.75-20.63 58.25-20.88L58.25-20.88Q53.13-20.75 53.13-16.88L53.13-16.88Q53.13-14.38 55.88-14L55.88-14L62.38-12.50Q67.50-11.25 67.50-6.25L67.50-6.25Q67.38 0.13 58.50 0.38L58.50 0.38Q53.63 0.38 51.63-1.63L51.63-1.63Q49.13-3.50 49.25-7.38L49.25-7.38L52.25-7.38Q52.38-2.13 58.50-2L58.50-2Q64.50-2.13 64.63-5.88L64.63-5.88Q65.13-9 59.63-10L59.63-10L54.88-11Q50-12.38 50-16.50L50-16.50Q50.38-23.25 58-23.50L58-23.50Q66.63-23.50 66.88-16.25ZM73.63-11.63L73.63-11.63L71-11.63Q71.13-17.25 77.88-17.25L77.88-17.25Q83.88-17 84-12.50L84-12.50L84-2.88Q84-1.88 85-1.88L85-1.88Q85.13-1.88 85.38-1.88L85.38-1.88Q85.75-2 86-2L86-2L86 0Q85.75 0 85.38 0L85.38 0Q84.75 0.13 84.38 0.13L84.38 0.13Q81.38 0.13 81.50-2.25L81.50-2.25Q79 0.25 75.38 0.25L75.38 0.25Q70.38 0 70.13-4.38L70.13-4.38Q70.25-8.88 75.25-9.63L75.25-9.63L79.88-10.13Q81.38-10.38 81.38-12.13L81.38-12.13Q81.38-14.88 77.38-14.88L77.38-14.88Q73.88-14.88 73.63-11.63ZM81.25-5.75L81.25-5.75L81.25-8.50Q80.25-7.88 76.63-7.38L76.63-7.38Q73.13-7.13 73.13-4.75L73.13-4.75Q73.13-1.88 76-1.88L76-1.88Q80.88-2.25 81.25-5.75ZM102.38-11.38L102.38-11.38L102.38 0L99.63 0L99.63-10.25Q99.88-14.88 96-14.63L96-14.63Q91.75-14.38 91.63-9.13L91.63-9.13L91.63 0L88.75 0L88.75-16.75L91.50-16.75L91.50-14.38Q93.50-17.25 96.63-17.25L96.63-17.25Q102.25-17.13 102.38-11.38ZM118.75-11.88L118.75-11.88L116-11.88Q116-14.75 112-14.75L112-14.75Q108.88-14.63 108.75-12.38L108.75-12.38Q108.50-10.75 111.75-10.13L111.75-10.13L114.63-9.50Q119.38-8.38 119.25-5L119.25-5Q119 0 112.75 0.25L112.75 0.25Q105.63 0.25 105.50-5.38L105.50-5.38L108.13-5.38Q108.38-1.88 112.75-1.88L112.75-1.88Q116.38-2 116.50-4.63L116.50-4.63Q116.75-6.13 113.25-7L113.25-7L109.88-7.75Q106-8.75 106-11.75L106-11.75Q106.25-16.88 112.38-17.25L112.38-17.25Q118.38-17.13 118.75-11.88Z"/></svg>