<svg id="mainsvg" xmlns="http://www.w3.org/2000/svg" xmlns:xlink="http://www.w3.org/1999/xlink" version="1.1" x="0px" y="0px" enable-background="new 0 0 200 162.5" xml:space="preserve" viewBox="0 0 139 37"><path fill="#000" transform="translate(-4.832, 29.504)" d="M14.94-1.38C15.17-1.38 15.30-1.47 15.30-1.63C15.30-1.73 15.26-1.79 15.20-1.89C15.10-2.11 14.78-2.37 14.43-2.37C10.50-2.56 7.26-3.71 4.74-5.15C0.90-7.36-1.34-10.27-2.21-11.81L-2.27-11.90C-3.17-13.63-3.58-15.23-3.58-16.70C-3.58-24.38 7.58-28.51 18.34-28.51C26.37-28.51 34.14-26.21 36.86-21.31L36.99-21.09C37.34-20.35 37.54-19.62 37.54-18.85C37.54-17.18 36.61-15.46 34.53-13.82C32.26-12 28.54-10.30 23.20-8.99C23.26-10.78 23.30-12.64 23.33-14.43C23.36-19.14 23.42-23.26 24.26-23.84C24.35-23.90 24.38-23.97 24.38-24.06C24.38-24.13 24.35-24.19 24.32-24.29C24.26-24.35 24.22-24.45 24.13-24.51C23.87-24.70 23.71-24.80 23.52-24.80C22.02-24.80 22.08-18.40 22.05-14.88C22.02-12.83 21.98-10.69 21.89-8.67C21.12-8.48 20.19-8.45 20.19-8.06C20.19-8 20.22-7.94 20.26-7.87L20.32-7.74C20.58-7.42 20.90-7.36 21.22-7.36C21.41-7.36 21.60-7.39 21.79-7.39C21.60-4.51 21.22-2.05 20.38-0.77C20.35-0.74 20.32-0.67 20.32-0.61C20.32-0.54 20.35-0.48 20.38-0.42C20.54-0.13 20.96 0.10 21.25 0.10C21.38 0.10 21.47 0.06 21.54-0.03C22.50-1.47 22.91-4.26 23.10-7.42C23.84-7.46 24.61-7.46 25.31-7.46C28.16-7.46 37.76-7.20 39.42-4.03C39.62-3.71 39.68-3.36 39.68-3.01C39.68-2.37 39.39-1.70 39.01-1.12C36.83 1.86 30.18 4.96 20.70 6.18C20.48 6.21 20.42 6.30 20.42 6.40C20.42 6.50 20.42 6.56 20.48 6.66C20.61 6.91 20.90 7.14 21.25 7.14L21.34 7.14C33.63 5.60 40.93 1.12 40.93-2.69C40.93-3.17 40.80-3.65 40.54-4.13C39.23-6.50 34.50-8.32 25.66-8.45C30.24-9.73 33.50-11.30 35.62-12.96C37.82-14.69 38.82-16.58 38.82-18.40C38.82-19.30 38.59-20.16 38.14-21.02L37.98-21.31C34.91-26.88 26.34-29.50 17.70-29.50C6.50-29.50-4.83-25.12-4.83-17.12C-4.83-15.55-4.38-13.79-3.39-11.94L-3.26-11.71C-2.34-10.02 0.16-6.85 4.35-4.42C7.14-2.85 10.62-1.60 14.91-1.38ZM46.56-5.06C46.62-4.83 46.72-4.54 46.85-4.29C47.39-3.33 48.38-2.66 49.50-2.66C51.26-2.66 52.61-4.45 53.12-5.15C53.15-5.18 53.15-5.22 53.15-5.28C53.15-5.34 53.12-5.44 53.09-5.50C53.02-5.63 52.93-5.76 52.77-5.86C52.58-5.95 52.45-6.02 52.32-6.02C51.78-6.02 51.55-5.09 50.34-4.19C50.05-3.97 49.47-3.65 48.96-3.65C48.58-3.65 48.22-3.81 48-4.22C47.81-4.64 47.74-4.86 47.74-5.02C47.74-5.25 47.87-5.31 47.87-5.41C47.87-5.44 47.87-5.47 47.84-5.54C47.81-5.60 47.78-5.66 47.71-5.73C47.42-6.08 47.26-6.14 47.04-6.14C46.82-6.14 46.50-6.08 45.98-6.08C45.79-6.08 45.57-6.08 45.28-6.11C45.02-6.14 44.90-6.21 44.83-6.30C44.80-6.37 44.77-6.43 44.77-6.53C44.77-6.59 44.80-6.69 44.80-6.75L44.80-6.82C44.80-6.91 44.77-6.98 44.74-7.04C44.61-7.30 44.19-7.52 43.90-7.52C43.74-7.52 43.62-7.46 43.58-7.30C43.55-7.17 43.55-7.01 43.55-6.91C43.55-6.75 43.55-6.59 43.62-6.46L43.74-6.27C44.29-5.25 45.60-5.09 46.56-5.06ZM52.70-7.46C52.83-7.39 52.93-7.39 53.02-7.39C53.50-7.39 53.44-8.10 53.47-8.67L53.47-8.74C53.47-8.80 53.44-8.86 53.41-8.93C53.25-9.18 52.86-9.41 52.58-9.41C52.38-9.41 52.26-9.34 52.22-9.15C52.22-8.83 52.16-8.51 52.16-8.26C52.16-8.10 52.19-7.94 52.26-7.81C52.32-7.68 52.48-7.55 52.70-7.46ZM58.50-5.15C58.53-5.22 58.56-5.25 58.56-5.31C58.56-5.38 58.53-5.44 58.50-5.50C58.43-5.63 58.30-5.76 58.14-5.86C57.95-5.95 57.82-6.02 57.70-6.02C57.18-6.02 56.96-5.09 55.74-4.19C55.20-3.81 54.75-3.65 54.40-3.65C53.92-3.65 53.60-3.90 53.38-4.26C53.25-4.51 53.18-4.77 53.18-5.02C53.18-5.18 53.22-5.34 53.25-5.47C53.28-5.50 53.28-5.54 53.28-5.60C53.28-5.66 53.25-5.73 53.22-5.79C53.09-6.05 52.67-6.27 52.38-6.27C52.22-6.27 52.13-6.21 52.06-6.08C52-5.89 51.94-5.66 51.94-5.44C51.94-5.06 52.06-4.61 52.29-4.22C52.77-3.36 53.73-2.66 54.88-2.66C56-2.66 57.28-3.33 58.50-5.15ZM68.54-4.06C69.66-2.75 71.23-1.98 72.90-1.92L73.15-1.92C75.78-1.92 77.38-3.71 78.50-5.12C78.53-5.18 78.53-5.22 78.53-5.28C78.53-5.34 78.50-5.44 78.46-5.50C78.34-5.76 77.92-6.02 77.60-6.02C77.47-6.02 77.41-5.98 77.31-5.89C76.45-4.74 74.91-3.04 72.99-2.91L72.64-2.91C71.26-2.91 70.05-3.46 69.12-4.80C71.01-7.17 73.12-11.30 73.12-14.37C73.12-15.17 72.96-15.87 72.64-16.48C72.06-17.57 70.85-18.30 69.54-18.30C66.88-18.27 65.79-15.68 65.79-12.64C65.79-10.18 66.50-7.42 67.58-5.44L67.71-5.22C66.14-3.26 64.35-1.89 62.78-1.86C61.06-1.86 59.94-3.52 59.23-4.83L59.01-5.22C61.73-7.39 63.42-12.13 63.49-15.74L63.49-16.06C63.49-16.99 63.36-17.86 63.10-18.56C63.07-18.78 62.94-19.01 62.82-19.23C62.24-20.29 61.22-20.96 60.16-20.96C58.56-20.96 56.83-19.42 56.29-15.42C56.16-14.59 56.13-13.73 56.13-12.86C56.13-10.27 56.61-7.55 57.70-5.50L57.89-5.15C59.62-2.02 61.44-0.86 63.17-0.86C65.12-0.86 67.01-2.30 68.54-4.06ZM67.14-13.60C67.52-16.29 68.90-17.31 70.08-17.31C70.69-17.31 71.23-17.02 71.52-16.51L71.52-16.48C71.78-16 71.90-15.42 71.90-14.78C71.90-12.16 70.05-8.42 68.38-6.08C67.49-8.03 67.04-10.21 67.04-12.13C67.04-12.64 67.07-13.12 67.14-13.60ZM57.54-14.88C57.92-17.66 58.94-19.87 60.61-19.94L60.74-19.94C60.93-19.94 61.06-19.90 61.15-19.84C61.38-19.74 61.54-19.55 61.70-19.30C62.11-18.53 62.21-17.25 62.21-16.51L62.21-16.19C62.18-12.93 60.77-8.70 58.40-6.50C57.73-8.22 57.34-10.37 57.34-12.45C57.34-13.28 57.41-14.11 57.54-14.88ZM78.08-7.46C78.21-7.39 78.30-7.39 78.40-7.39C78.88-7.39 78.82-8.10 78.85-8.67L78.85-8.74C78.85-8.80 78.82-8.86 78.78-8.93C78.62-9.18 78.24-9.41 77.95-9.41C77.76-9.41 77.63-9.34 77.60-9.15C77.60-8.83 77.54-8.51 77.54-8.26C77.54-8.10 77.57-7.94 77.63-7.81C77.70-7.68 77.86-7.55 78.08-7.46ZM83.87-5.15C83.90-5.22 83.94-5.25 83.94-5.31C83.94-5.38 83.90-5.44 83.87-5.50C83.81-5.63 83.68-5.76 83.52-5.86C83.33-5.95 83.20-6.02 83.07-6.02C82.56-6.02 82.34-5.09 81.12-4.19C80.58-3.81 80.13-3.65 79.78-3.65C79.30-3.65 78.98-3.90 78.75-4.26C78.62-4.51 78.56-4.77 78.56-5.02C78.56-5.18 78.59-5.34 78.62-5.47C78.66-5.50 78.66-5.54 78.66-5.60C78.66-5.66 78.62-5.73 78.59-5.79C78.46-6.05 78.05-6.27 77.76-6.27C77.60-6.27 77.50-6.21 77.44-6.08C77.38-5.89 77.31-5.66 77.31-5.44C77.31-5.06 77.44-4.61 77.66-4.22C78.14-3.36 79.10-2.66 80.26-2.66C81.38-2.66 82.66-3.33 83.87-5.15ZM84.10-2.11C85.92-2.11 90.14-5.82 90.14-5.82C90.21-5.79 90.24-5.73 90.30-5.63C90.46-5.34 90.59-4.90 90.85-4.45C91.33-3.58 92.13-2.69 93.73-2.66L93.76-2.66C95.20-2.66 96.29-4.22 96.80-5.02C96.90-5.12 96.93-5.25 96.93-5.34C96.93-5.41 96.90-5.50 96.86-5.57C96.70-5.82 96.32-6.02 96.03-6.02C95.90-6.02 95.78-5.98 95.71-5.89C95.26-5.15 94.27-3.65 93.25-3.65L93.22-3.65C92.54-3.68 92.22-4.13 91.94-4.64L91.49-5.44C91.07-6.21 90.56-6.75 89.86-6.75C89.50-6.75 89.15-6.62 88.70-6.30C88.19-7.26 87.17-7.87 86.08-7.87C84.70-7.87 83.42-6.88 82.91-6.18C82.53-5.60 82.34-4.90 82.34-4.26C82.34-3.81 82.43-3.36 82.62-3.01C82.88-2.53 83.33-2.18 84-2.11ZM86.62-6.88C87.10-6.88 87.39-6.66 87.58-6.34C87.68-6.14 87.74-5.89 87.81-5.66C86.50-4.64 84.64-3.23 83.68-3.14C83.58-3.39 83.55-3.62 83.55-3.87C83.55-5.41 85.18-6.88 86.62-6.88ZM102.53-5.57C103.39-4.86 104.38-2.72 106.82-2.66L106.85-2.66C108.29-2.66 109.38-4.22 109.89-5.02C109.95-5.12 109.98-5.22 109.98-5.31C109.98-5.41 109.95-5.50 109.92-5.57C109.76-5.82 109.38-6.02 109.09-6.02C108.96-6.02 108.86-5.98 108.80-5.89C108.35-5.15 107.36-3.65 106.34-3.65L106.30-3.65C104.90-3.68 104.22-5.25 103.17-6.11C102.66-6.53 102.18-6.72 101.70-6.72C99.71-6.72 98.24-3.39 96.77-3.14C96.67-3.42 96.61-3.74 96.61-4.03C96.61-4.51 96.74-4.96 96.96-5.31C96.99-5.34 97.02-5.41 97.02-5.47C97.02-5.54 96.99-5.60 96.96-5.66C96.83-5.92 96.42-6.18 96.10-6.18C96-6.18 95.90-6.14 95.84-6.05C95.55-5.66 95.36-5.02 95.36-4.35C95.36-3.87 95.46-3.39 95.68-3.01C95.94-2.50 96.58-2.11 97.15-2.11C99.07-2.11 100.96-5.70 102.18-5.70C102.30-5.70 102.40-5.66 102.53-5.57ZM103.90-11.65C104.03-11.58 104.13-11.58 104.19-11.58C104.38-11.58 104.48-11.65 104.48-11.78C104.48-11.84 104.45-11.90 104.42-11.97C104.38-12.03 104.32-12.13 104.22-12.19L111.81-12.29C111.01-10.05 110.02-7.68 108.77-5.89C108.74-5.86 108.74-5.79 108.74-5.73C108.74-5.66 108.74-5.60 108.77-5.54C108.93-5.25 109.34-5.02 109.63-5.02C109.76-5.02 109.89-5.06 109.95-5.15C111.33-7.17 112.42-9.82 113.22-12.32L113.41-12.32L112.99-6.46C112.99-6.08 112.96-5.66 112.96-5.25C112.96-3.90 113.09-2.50 113.60-1.54C113.70-1.41 113.73-1.31 113.82-1.22C114.34-0.54 114.91-0.29 115.52-0.29C117.92-0.29 120.83-4.26 121.34-5.06C121.38-5.12 121.41-5.18 121.41-5.28C121.41-5.38 121.38-5.47 121.31-5.54C121.15-5.82 120.77-6.02 120.48-6.02C120.35-6.02 120.26-5.98 120.19-5.89C119.36-4.58 116.77-1.31 115.01-1.31C114.88-1.31 114.82-1.41 114.72-1.54C114.62-1.76 114.53-2.08 114.46-2.30C114.30-2.91 114.24-3.78 114.24-4.77C114.24-6.94 114.53-9.82 114.72-12.35L133.25-12.58C133.44-12.58 133.50-12.67 133.50-12.77C133.50-12.83 133.47-12.93 133.44-12.99C133.31-13.18 133.09-13.38 132.80-13.38L132.77-13.38L114.75-13.15L115.04-17.06C115.10-17.79 115.17-18.46 115.17-18.98C115.17-19.20 115.17-19.39 115.14-19.55C115.17-19.58 115.20-19.68 115.20-19.81C115.20-19.87 115.20-19.94 115.17-20C115.07-20.13 114.98-20.22 114.75-20.35C114.66-20.38 114.56-20.42 114.46-20.42C114.08-20.42 113.79-19.87 113.54-18.69C113.22-17.22 112.70-15.20 112.03-13.12C108.93-13.06 105.79-13.02 102.69-12.96C102.43-12.96 102.30-12.90 102.30-12.77C102.30-12.74 102.34-12.67 102.37-12.58L102.40-12.51C102.56-12.19 103.23-11.94 103.90-11.65ZM130.27-4.48C130.46-4.70 130.82-5.02 130.82-5.34C130.82-5.41 130.78-5.50 130.75-5.57C130.59-5.79 130.24-6.02 129.95-6.02C129.63-6.02 129.47-5.73 129.38-5.57C128.54-4.48 125.73-2.91 123.49-2.91L123.36-2.91C122.40-2.94 121.82-3.39 121.57-3.90C121.44-4.16 121.34-4.42 121.34-4.67L121.34-4.77C122.24-4.35 123.14-4.16 124-4.16C125.57-4.16 126.27-4.80 126.27-5.54C126.27-5.73 126.21-5.95 126.08-6.18C125.70-6.91 124.67-7.55 123.23-7.55L123.14-7.55C121.06-7.52 120.10-6.40 120.10-5.18C120.10-4.74 120.22-4.29 120.45-3.87C121.18-2.56 122.66-1.92 124.10-1.92C126.75-1.92 129.60-3.74 130.27-4.48ZM124.86-6.24C124.93-6.11 124.96-6.02 124.96-5.92C124.96-5.47 124.38-5.12 123.49-5.12C122.94-5.12 122.27-5.25 121.60-5.57C122.08-6.24 123.14-6.56 123.94-6.56C124.38-6.56 124.74-6.46 124.86-6.24Z"/></svg>