<svg id="mainsvg" xmlns="http://www.w3.org/2000/svg" xmlns:xlink="http://www.w3.org/1999/xlink" version="1.1" x="0px" y="0px" enable-background="new 0 0 200 162.5" xml:space="preserve" viewBox="0 0 74 24"><path fill="#000" transform="translate(-0.0003640280578528325, 22.88)" d="M0.16 0L8.06 0C8.32-0.26 8.35-1.02 7.74-1.02L7.58-1.02C5.70-1.02 5.12-2.05 5.63-3.55L6.62-6.56L13.57-6.56L14.98-2.94C15.65-1.06 14.53-1.02 13.34-1.02C12.74-1.02 12.80-0.22 13.02 0L22.21 0C22.43-0.22 22.50-1.02 21.89-1.02C20.64-1.02 19.97-1.44 19.20-3.23L12.13-21.70C12.03-21.73 11.90-21.73 11.68-21.73C11.14-21.73 10.59-21.57 10.37-21.06L3.65-3.55C2.85-1.73 1.60-1.02 0.48-1.02C-0.13-1.02-0.06-0.22 0.16 0ZM9.86-16.16L13.06-7.87L7.07-7.87ZM22.94-13.15L22.94-12.42C23.33-12.51 23.81-12.64 24.22-12.64C24.83-12.64 25.28-12.38 25.28-11.26L25.28-3.10C25.28-1.82 25.06-0.90 23.62-0.90C23.07-0.93 23.04-0.22 23.30 0L30.69 0C30.94-0.26 30.98-0.90 30.37-0.90L30.24-0.90C29.38-0.90 29.02-1.25 29.02-3.07L29.02-10.56C29.92-11.58 31.01-12.38 32.06-12.42C33.89-12.42 34.34-10.94 34.34-9.38L34.34-3.10C34.34-1.28 33.98-0.90 33.12-0.90L32.99-0.90C32.96-0.90 32.96-0.90 32.93-0.90C32.45-0.86 32.42-0.22 32.67 0L40.06 0C40.32-0.22 40.29-0.93 39.74-0.90C38.30-0.90 38.08-1.82 38.08-3.10L38.08-9.76C38.08-13.25 36.13-14.62 33.60-14.62C31.71-14.62 30.27-13.54 29.02-12.29L29.02-13.66C29.06-14.21 28.80-14.50 28.32-14.50C28.16-14.50 28-14.46 27.78-14.43C26.50-14.18 24.35-13.73 23.23-13.47C23.04-13.41 22.94-13.31 22.94-13.15ZM40.86-21.54L40.86-20.90C41.28-20.99 41.73-21.06 42.14-21.06C42.75-21.06 43.17-20.86 43.17-19.74L43.17-3.10C43.17-1.82 42.98-0.90 41.54-0.90C40.99-0.93 40.96-0.22 41.22 0L48.86 0C49.12-0.26 49.15-0.90 48.54-0.90C47.10-0.90 46.91-1.79 46.91-3.07L46.91-6.21L47.07-6.21C47.97-6.21 48.54-5.73 49.15-4.83L52.29 0L57.95 0C57.95-0.26 58.14-0.96 57.57-0.96C56.58-0.99 56.19-1.25 55.39-2.18L50.66-9.06L53.60-12.29C54.27-13.18 54.91-13.28 55.52-13.28C56.67-13.28 56.77-13.82 56.54-14.30L50.05-14.30C49.82-13.95 50.11-13.28 50.78-13.28C52.03-13.28 52.48-13.15 51.68-12.22L48.48-8.54C48.06-8 47.55-7.90 46.91-7.87L46.91-22.05C46.94-22.59 46.72-22.88 46.24-22.88C46.18-22.88 46.11-22.88 46.05-22.88C45.92-22.88 45.79-22.88 45.66-22.82C44.45-22.56 42.27-22.11 41.15-21.86C40.96-21.82 40.86-21.73 40.86-21.54ZM66.24 0.32C70.40 0.32 73.54-2.88 73.54-7.36C73.54-11.84 70.40-14.62 66.24-14.62C62.08-14.62 58.91-11.39 58.91-6.94C58.91-2.46 62.08 0.32 66.24 0.32ZM66.50-0.86C64.58-0.86 63.42-3.65 63.17-7.07C63.01-10.66 63.74-13.18 65.70-13.44C68.42-13.44 69.18-9.31 69.28-7.23C69.44-3.65 68.70-1.12 66.75-0.86Z"/></svg>