<svg id="mainsvg" xmlns="http://www.w3.org/2000/svg" xmlns:xlink="http://www.w3.org/1999/xlink" version="1.1" x="0px" y="0px" enable-background="new 0 0 200 162.5" xml:space="preserve" viewBox="0 0 193 34"><path fill="#000" transform="translate(-0.32, 24.704)" d="M12.51-19.49C12.51-20.48 12.93-21.38 13.86-21.38C15.58-21.38 17.70-19.87 20.22-16.96L19.26-23.33C19.26-23.33 18.05-22.40 17.22-22.40L3.33-22.40C2.50-22.40 1.28-23.33 1.28-23.33L0.32-16.96C2.78-19.78 4.93-21.38 6.69-21.38C7.62-21.38 8.03-20.48 8.03-19.49L8.03-5.47C8.03-1.54 8.03-1.02 5.82-0.35L5.82 0L14.72 0L14.72-0.35C12.51-1.02 12.51-1.54 12.51-5.47ZM21.25 0L29.06 0L29.06-0.35C27.36-0.86 27.14-1.41 27.14-3.14C27.14-3.74 27.17-4.51 27.17-5.50L27.17-9.66C27.36-12.32 29.02-13.54 30.34-13.54C32.10-13.54 32.32-11.10 32.32-8.16C32.32-7.26 32.29-6.30 32.29-5.38C32.29-2.82 32.13-0.70 31.78 0L38.40 0L38.40-0.35C36.06-1.06 36.83-2.69 36.26-11.84C36.13-13.92 35.07-16.06 31.68-16.06C29.18-16.06 27.17-14.02 27.17-13.12L27.17-24.70C25.12-23.30 22.94-22.46 20.86-22.14L20.86-21.79C22.94-21.12 23.01-20.61 23.14-16.64C23.23-14.18 23.26-11.78 23.26-9.60C23.26-6.85 23.20-4.48 23.17-2.78C23.10-1.22 22.82-0.83 21.25-0.35ZM44.35-8L44.35-7.17C44.93-6.94 46.62-6.82 48.48-6.82C50.24-6.82 52.19-6.94 53.34-7.30C53.38-7.71 53.38-8.10 53.38-8.45C53.38-13.22 50.94-16.35 46.78-16.35C42.30-16.35 39.04-12.29 39.04-7.39C39.04-2.78 41.95 0.58 46.50 0.58C49.38 0.58 51.33-1.09 52.10-3.23L51.36-4C50.34-2.08 48.99-1.44 47.81-1.44C44.96-1.44 43.55-4.96 43.55-8.61C43.55-11.90 44.74-14.56 46.62-14.56C48.16-14.56 48.93-12.42 48.93-10.11C48.93-9.60 48.90-9.12 48.83-8.64C48.51-8.13 47.04-7.97 45.54-7.97C45.09-7.97 44.67-7.97 44.35-8ZM66.21-19.49C66.21-20.48 66.62-21.38 67.55-21.38C69.28-21.38 71.39-19.87 73.92-16.96L72.96-23.33C72.96-23.33 71.74-22.40 70.91-22.40L57.02-22.40C56.19-22.40 54.98-23.33 54.98-23.33L54.02-16.96C56.48-19.78 58.62-21.38 60.38-21.38C61.31-21.38 61.73-20.48 61.73-19.49L61.73-5.47C61.73-1.54 61.73-1.02 59.52-0.35L59.52 0L68.42 0L68.42-0.35C66.21-1.02 66.21-1.54 66.21-5.47ZM79.87-8L79.87-7.17C80.45-6.94 82.14-6.82 84-6.82C85.76-6.82 87.71-6.94 88.86-7.30C88.90-7.71 88.90-8.10 88.90-8.45C88.90-13.22 86.46-16.35 82.30-16.35C77.82-16.35 74.56-12.29 74.56-7.39C74.56-2.78 77.47 0.58 82.02 0.58C84.90 0.58 86.85-1.09 87.62-3.23L86.88-4C85.86-2.08 84.51-1.44 83.33-1.44C80.48-1.44 79.07-4.96 79.07-8.61C79.07-11.90 80.26-14.56 82.14-14.56C83.68-14.56 84.45-12.42 84.45-10.11C84.45-9.60 84.42-9.12 84.35-8.64C84.03-8.13 82.56-7.97 81.06-7.97C80.61-7.97 80.19-7.97 79.87-8ZM95.87-2.27L95.84-24.70C93.79-23.30 91.62-22.46 89.54-22.14L89.54-21.79C91.62-21.12 91.68-20.61 91.81-16.64C91.90-13.79 91.94-10.98 91.94-8.38C91.94-6.18 91.90-4.16 91.87-2.53C91.84-1.15 91.42-0.80 89.95-0.35L89.95 0L97.76 0L97.76-0.35C96.38-0.77 96-1.12 95.87-2.27ZM103.68-8L103.68-7.17C104.26-6.94 105.95-6.82 107.81-6.82C109.57-6.82 111.52-6.94 112.67-7.30C112.70-7.71 112.70-8.10 112.70-8.45C112.70-13.22 110.27-16.35 106.11-16.35C101.63-16.35 98.37-12.29 98.37-7.39C98.37-2.78 101.28 0.58 105.82 0.58C108.70 0.58 110.66-1.09 111.42-3.23L110.69-4C109.66-2.08 108.32-1.44 107.14-1.44C104.29-1.44 102.88-4.96 102.88-8.61C102.88-11.90 104.06-14.56 105.95-14.56C107.49-14.56 108.26-12.42 108.26-10.11C108.26-9.60 108.22-9.12 108.16-8.64C107.84-8.13 106.37-7.97 104.86-7.97C104.42-7.97 104-7.97 103.68-8ZM119.74-1.98C119.74-2.43 120.38-2.75 121.25-2.88C126.08-3.55 129.12-6.43 129.12-10.11C129.12-13.89 126.34-15.52 123.49-15.94C123.97-17.57 124.99-18.21 126.56-18.21C127.52-18.21 128.26-17.82 128.51-17.34L127.46-21.70C124.90-21.09 122.50-18.66 121.98-16.06C117.47-16.06 113.63-13.60 113.63-9.22C113.63-5.73 115.94-3.58 118.98-3.01C117.18-2.34 113.95-1.06 113.95 0.45C113.95 2.75 124.86 2.72 124.86 4.35C124.86 5.73 122.82 6.59 120.74 6.59C118.62 6.59 116.51 5.70 116.51 3.55C116.51 3.33 116.54 3.10 116.58 2.85C115.90 3.36 113.47 6.37 113.34 6.66C114.37 8.13 117.82 8.54 119.33 8.54C125.34 8.54 128.80 3.97 128.80 1.66C128.80-1.06 119.74-0.06 119.74-1.98ZM120.80-14.88C123.33-14.88 124.29-11.78 124.29-8.83C124.29-6.62 123.49-4.19 121.63-4.19C119.42-4.19 117.79-7.65 117.79-10.53C117.79-13.41 119.17-14.88 120.80-14.88ZM136.06-12.83L136.06-16.70C134.02-15.30 131.84-14.46 129.76-14.14L129.76-13.79C131.84-13.12 131.90-12.64 132.03-9.60C132.06-8.42 132.10-6.94 132.10-5.54C132.10-4.54 132.06-3.55 132.06-2.69C132-1.22 131.65-0.80 130.14-0.35L130.14 0L137.95 0L137.95-0.35C136.26-0.86 136.03-1.31 136.03-3.30C136.03-3.90 136.06-4.61 136.06-5.50L136.06-10.59C136.45-12.13 136.99-13.18 138.21-13.18C139.14-13.18 139.84-12.16 139.87-10.94L142.66-15.94C141.86-16.22 141.12-16.35 140.48-16.35C137.70-16.35 136.35-13.98 136.06-12.83ZM156.06-9.86C156.06-13.98 154.43-16.19 150.21-16.19C147.90-16.19 145.15-15.39 144.29-13.82L146.78-11.01C146.78-13.12 148.03-14.66 149.66-14.66C152.03-14.66 151.90-12.51 151.90-9.86L151.90-9.25C151.07-9.76 150.02-9.86 149.25-9.86C146.27-9.86 143.30-7.97 143.30-4.48C143.30-1.98 145.50 0.26 148.32 0.26C149.73 0.26 151.20-0.38 152.19-1.79C152.54-0.29 153.57 0.22 155.17 0.22C155.84 0.22 156.61 0.13 157.47 0L157.47-0.32C156.19-0.70 156.06-1.50 156.06-5.63ZM152-3.20C151.49-2.24 150.72-1.66 149.70-1.66C148.35-1.66 147.58-2.69 147.58-5.50C147.58-8.26 148.74-8.51 149.79-8.51C150.43-8.51 151.30-8.35 151.90-7.62C151.90-5.86 151.90-4.35 152-3.20ZM168.70-16.29C167.20-16.29 165.66-15.68 164.42-14.56L164.42-17.02C162.37-15.62 160.19-14.78 158.11-14.46L158.11-14.11C160.19-13.44 160.26-12.93 160.38-8.96C160.45-6.75 160.51-4.03 160.51-1.28C160.51 0.83 160.48 2.98 160.42 4.90C160.35 6.46 160.06 6.85 158.50 7.33L158.50 7.68L166.30 7.68L166.30 7.33C164.61 6.82 164.38 6.37 164.38 4.38C164.38 3.78 164.42 3.07 164.42 2.18L164.42-0.99C165.38-0.19 166.50 0.22 167.68 0.22C171.78 0.22 174.53-3.84 174.53-8.42C174.53-12.80 172.06-16.26 168.70-16.29ZM167.49-1.15C165.76-1.15 164.64-3.97 164.42-7.55L164.42-9.50C164.61-12.19 165.54-14.27 167.04-14.27C168.90-14.27 170.37-11.01 170.37-7.01C170.37-3.74 169.18-1.15 167.49-1.15ZM175.55 0L183.36 0L183.36-0.35C181.66-0.86 181.44-1.41 181.44-3.14C181.44-3.74 181.47-4.51 181.47-5.50L181.47-9.66C181.66-12.32 183.33-13.54 184.64-13.54C186.40-13.54 186.62-11.10 186.62-8.16C186.62-7.26 186.59-6.30 186.59-5.38C186.59-2.82 186.43-0.70 186.08 0L192.70 0L192.70-0.35C190.37-1.06 191.14-2.69 190.56-11.84C190.43-13.92 189.38-16.06 185.98-16.06C183.49-16.06 181.47-14.02 181.47-13.12L181.47-24.70C179.42-23.30 177.25-22.46 175.17-22.14L175.17-21.79C177.25-21.12 177.31-20.61 177.44-16.64C177.54-14.18 177.57-11.78 177.57-9.60C177.57-6.85 177.50-4.48 177.47-2.78C177.41-1.22 177.12-0.83 175.55-0.35Z"/></svg>