<svg id="mainsvg" xmlns="http://www.w3.org/2000/svg" xmlns:xlink="http://www.w3.org/1999/xlink" version="1.1" x="0px" y="0px" enable-background="new 0 0 200 162.5" xml:space="preserve" viewBox="0 0 170 31"><path fill="#000" transform="translate(-0.352, 21.888)" d="M18.56-14.50C18.56-16.10 17.63-17.63 16.29-18.46C14.75-21.06 10.98-21.34 8.29-21.34C5.60-21.34 2.94-20.93 0.26-20.80L-0.06-20.80L-0.35-15.68L0.93-15.94L1.60 1.02L1.86 1.09C2.30 1.15 2.72 1.25 3.17 1.28L3.20 2.62L3.46 2.69C5.02 2.98 6.66 3.10 8.26 3.10C13.18 3.10 20.42 1.73 20.42-4.90C20.42-7.14 19.46-8.93 17.79-10.08C17.57-10.43 17.31-10.72 17.02-11.01C17.89-11.94 18.56-13.15 18.56-14.50ZM14.56-12.19C17.12-11.17 18.40-9.12 18.50-6.91L18.50-6.50C18.50-0.48 12.16 1.18 6.66 1.18C4.93 1.18 3.26 1.02 1.92 0.77L1.22-16.32L0-16.06L0.26-20.48C2.27-20.58 5.34-21.02 8.29-21.02C12.38-21.02 16.19-20.19 16.61-16.48L16.64-16.10C16.64-14.91 16.06-13.57 14.56-12.19ZM12.35-7.01C12.35-9.15 10.91-9.89 9.12-9.89C8.64-9.89 8.10-9.82 7.58-9.73L7.58-3.65C9.73-3.84 12.13-4.32 12.32-6.59ZM11.20-15.39C11.20-15.58 11.20-15.81 11.14-16C10.88-16.93 10.14-17.28 9.25-17.28C8.74-17.28 8.19-17.18 7.65-17.02L7.68-13.02C7.94-12.96 8.19-12.93 8.45-12.93C9.86-12.93 11.20-13.98 11.20-15.39ZM10.72-7.97C11.17-7.97 11.58-7.94 11.94-7.81C12-7.58 12.03-7.30 12.03-7.01C12.03-5.34 10.94-4.61 9.50-4.26L9.50-7.87C9.92-7.94 10.30-7.97 10.72-7.97ZM9.57-15.17C9.98-15.30 10.43-15.36 10.85-15.36L10.88-15.36C10.88-14.56 10.30-13.86 9.60-13.50ZM28.83-12.10C28.83-10.62 28.32-7.78 27.65-6.40C27.55-7.33 27.55-8.19 27.55-8.48C27.55-9.89 27.65-12.22 28.03-13.47L28.13-13.89L26.18-13.92C26.24-14.37 26.34-14.75 26.43-15.07L26.53-15.49L20.48-15.65L20.42-15.39C20-13.44 19.78-11.39 19.78-9.38C19.78-6.56 20.22-2.08 23.07-0.29C23.90 0.99 25.47 2.08 27.04 2.08C28.70 2.08 29.89 1.25 30.75 0.10L30.82 0.10L30.85 1.47L36.77 2.34L37.12-14.02L35.49-14.08L35.52-15.62L28.74-15.94L28.74-15.58C28.77-14.43 28.83-13.25 28.83-12.10ZM29.06-15.58L35.20-15.30L34.85 0.35L29.57-0.42L29.47-2.66C28.64-1.06 27.36 0.16 25.50 0.16L25.44 0.16C21.22-0.19 20.10-4.96 20.10-9.38C20.10-11.68 20.42-13.89 20.74-15.33L26.11-15.17C25.82-14.24 25.63-12.13 25.63-10.08C25.63-7.58 25.92-5.18 26.75-5.18C28.22-5.18 29.15-10.11 29.15-12.10ZM58.30-11.33L58.37-15.07L56.74-15.20L56.77-16.67L56.42-16.70L56.51-20.29L54.88-20.19L54.91-21.89L46.98-21.50L47.30-16.96L46.88-16.99L46.94-19.36L45.31-19.26L45.34-20.96L37.41-20.58L37.73-17.31L34.75-17.47L34.78-12.38L36.38-12.38L36.38-10.78L38.18-10.78L39.04 0.54L40.48 0.22L40.64 2.14L46.37 0.90L46.69-10.94L47.74-10.94L48.61 0.58L50.05 0.26L50.21 2.18L55.94 0.93L56.29-11.23ZM56.38-13.22L54.37-13.12L54.02-0.93L48.90 0.19L47.90-12.90L44.77-12.86L44.45-0.96L39.33 0.16L38.37-12.70L35.10-12.70L35.07-17.12L38.08-16.96L37.76-20.26L45.02-20.61L44.90-16.70L47.65-16.64L47.33-21.18L54.59-21.54L54.46-16.51L56.45-16.38ZM65.70 1.95C68.77 1.95 71.55 0.38 72.61-2.66L72.67-2.94L70.82-3.74C70.88-3.90 70.94-4.10 71.01-4.26L71.07-4.54L68.86-5.50L73.22-5.57L73.25-5.86C73.28-6.27 73.31-6.69 73.31-7.10C73.31-9.95 72.26-12.10 70.43-13.38C69.12-15.26 66.91-16.29 64.03-16.29C59.49-16.29 56.96-12.45 56.96-8.29C56.96-5.54 58.18-2.46 60.45-0.83C61.63 0.83 63.42 1.95 65.70 1.95ZM65.02-4.06C66.18-4.13 66.69-4.80 66.69-5.57C66.69-5.76 66.66-5.95 66.59-6.14L70.69-4.35C69.79-1.70 67.42-0.10 64.38 0.03L64.10 0.03C60.48 0.03 57.57-3.30 57.31-7.58L57.28-8.29C57.28-12.38 59.78-15.71 63.39-15.94L64.03-15.97C69.09-15.97 71.39-12.80 71.39-8.70C71.39-8.29 71.36-7.90 71.33-7.49L63.07-7.36L63.07-7.07C63.07-5.34 63.68-4.06 64.93-4.06ZM66.85-9.38C66.62-10.82 65.95-11.52 65.25-11.52L64.90-11.49C63.97-11.33 63.36-10.18 63.17-8.90ZM66.37-5.47C66.30-4.83 65.79-4.42 65.09-4.38C65.02-4.74 64.99-5.09 64.99-5.44ZM85.15-14.78C84.22-15.17 83.20-15.42 82.18-15.42C81.18-15.42 80.26-15.17 79.46-14.62L79.52-15.71L72.70-15.52L73.02 0.48L74.59 0.26L74.62 2.08L80.45 1.25L80.45 0.99C80.51-0.13 80.54-1.22 80.61-2.34C80.67-3.81 81.02-8.13 83.14-8.13C83.74-8.13 84.42-7.81 85.02-7.42L85.38-7.23L87.01-13.09L86.75-13.18C86.24-13.41 85.70-13.57 85.12-13.70L85.41-14.69ZM83.58-9.31C82.78-9.79 82.11-10.05 81.54-10.05C79.81-10.05 78.98-7.94 78.69-3.94L78.53-0.64L73.34 0.10L73.02-15.20L79.17-15.39L79.10-13.92C79.94-14.72 80.96-15.10 82.18-15.10C83.04-15.10 84-14.91 85.02-14.50ZM95.07 3.26L106.59 2.40L107.46-4.96L105.60-4.58L105.86-6.56L101.92-5.76L102.91-20.13L101.18-20.16L101.31-21.73L92.99-21.82L93.47 1.66L95.04 1.54ZM104.70 0.51L93.79 1.31L93.31-21.50L100.96-21.41L99.84-4.99L105.47-6.14ZM117.34 1.98L123.07 0.83L123.26-13.86L121.66-14.05L121.66-15.46L114.82-16.22L114.88-15.20C114.24-15.46 113.50-15.62 112.80-15.62C108.58-15.62 106.75-11.17 106.75-7.74C106.75-5.22 107.74-2.18 109.92-0.70C110.91 0.74 112.38 1.73 114.40 1.73C115.42 1.73 116.42 1.44 117.28 0.93ZM115.17-15.87L121.34-15.17L121.15-1.02L116.03 0L115.97-1.25C115.04-0.58 113.95-0.19 112.80-0.19C109.41-0.19 107.07-3.55 107.07-7.74C107.07-11.90 109.41-15.30 112.80-15.30C113.66-15.30 114.50-15.07 115.23-14.66ZM115.62-7.52C115.62-7.71 115.62-7.87 115.58-8.06C115.58-9.79 115.01-11.04 113.82-11.04C112.70-11.04 112.10-9.18 112.10-7.39C112.10-5.70 112.64-4.03 113.73-4.03C115.10-4.03 115.62-5.60 115.62-7.52ZM115.17-9.09C115.30-8.54 115.30-7.97 115.30-7.52C115.30-6.62 115.17-4.80 114.14-4.42C114.05-4.93 114.02-5.47 114.02-5.79C114.02-6.62 114.27-8.74 115.17-9.09ZM132.35 8.96C136.03 8.96 138.40 6.66 138.62 3.10L139.71-14.53L138.02-14.46L138.11-16.13L132.45-15.94L132.42-15.65C132.29-13.95 132.16-12.26 132.03-10.56C131.94-9.38 131.49-7.68 130.94-6.59C130.88-7.46 130.88-8.29 130.88-8.54C130.88-9.92 130.98-12.19 131.36-13.44L131.46-13.86L129.50-13.89C129.57-14.34 129.66-14.72 129.76-15.04L129.86-15.46L123.81-15.62L123.74-15.36C123.33-13.44 123.10-11.46 123.10-9.47C123.10-6.69 123.55-2.34 126.37-0.58C127.33 0.86 128.83 1.79 130.56 1.79C130.18 2.02 129.70 2.14 129.31 2.14C128.64 2.14 128.03 1.86 127.58 1.34L127.30 0.99L124.74 5.02L124.96 5.22C125.47 5.60 125.98 5.95 126.56 6.27L126.34 6.62L126.56 6.82C128.19 8.10 130.24 8.96 132.35 8.96ZM131.65-1.28C130.94-0.58 130.02-0.13 128.90-0.13L128.77-0.13C124.54-0.45 123.42-5.12 123.42-9.47C123.42-11.71 123.74-13.89 124.06-15.30L129.44-15.14C129.15-14.21 128.96-12.16 128.96-10.14C128.96-7.71 129.25-5.38 130.08-5.38C131.23-5.38 132.06-8.32 132.35-10.53L132.74-15.62L137.76-15.81L136.70 1.47C136.64 4.96 133.95 7.04 130.75 7.04C128.93 7.04 126.94 6.37 125.15 4.96L127.33 1.54C127.90 2.21 128.64 2.46 129.31 2.46C130.37 2.46 131.36 1.82 131.49 1.09ZM147.78 1.95C150.85 1.95 153.63 0.38 154.69-2.66L154.75-2.94L152.90-3.74C152.96-3.90 153.02-4.10 153.09-4.26L153.15-4.54L150.94-5.50L155.30-5.57L155.33-5.86C155.36-6.27 155.39-6.69 155.39-7.10C155.39-9.95 154.34-12.10 152.51-13.38C151.20-15.26 148.99-16.29 146.11-16.29C141.57-16.29 139.04-12.45 139.04-8.29C139.04-5.54 140.26-2.46 142.53-0.83C143.71 0.83 145.50 1.95 147.78 1.95ZM147.10-4.06C148.26-4.13 148.77-4.80 148.77-5.57C148.77-5.76 148.74-5.95 148.67-6.14L152.77-4.35C151.87-1.70 149.50-0.10 146.46 0.03L146.18 0.03C142.56 0.03 139.65-3.30 139.39-7.58L139.36-8.29C139.36-12.38 141.86-15.71 145.47-15.94L146.11-15.97C151.17-15.97 153.47-12.80 153.47-8.70C153.47-8.29 153.44-7.90 153.41-7.49L145.15-7.36L145.15-7.07C145.15-5.34 145.76-4.06 147.01-4.06ZM148.93-9.38C148.70-10.82 148.03-11.52 147.33-11.52L146.98-11.49C146.05-11.33 145.44-10.18 145.25-8.90ZM148.45-5.47C148.38-4.83 147.87-4.42 147.17-4.38C147.10-4.74 147.07-5.09 147.07-5.44ZM167.23-14.78C166.30-15.17 165.28-15.42 164.26-15.42C163.26-15.42 162.34-15.17 161.54-14.62L161.60-15.71L154.78-15.52L155.10 0.48L156.67 0.26L156.70 2.08L162.53 1.25L162.53 0.99C162.59-0.13 162.62-1.22 162.69-2.34C162.75-3.81 163.10-8.13 165.22-8.13C165.82-8.13 166.50-7.81 167.10-7.42L167.46-7.23L169.09-13.09L168.83-13.18C168.32-13.41 167.78-13.57 167.20-13.70L167.49-14.69ZM165.66-9.31C164.86-9.79 164.19-10.05 163.62-10.05C161.89-10.05 161.06-7.94 160.77-3.94L160.61-0.64L155.42 0.10L155.10-15.20L161.25-15.39L161.18-13.92C162.02-14.72 163.04-15.10 164.26-15.10C165.12-15.10 166.08-14.91 167.10-14.50Z"/></svg>