<svg id="mainsvg" xmlns="http://www.w3.org/2000/svg" xmlns:xlink="http://www.w3.org/1999/xlink" version="1.1" x="0px" y="0px" enable-background="new 0 0 200 162.5" xml:space="preserve" viewBox="0 0 83 35"><path fill="#000" transform="translate(-0.6316515579901673, 24.328125)" d="M6.98-4.23C6.45-4.70 6-5.25 5.63-5.89C5.23-6.53 4.94-7.22 4.70-7.95C4.47-8.69 4.30-9.45 4.22-10.25C4.14-11.05 4.13-11.86 4.20-12.66C4.34-14.14 4.73-15.47 5.39-16.66C6.05-17.83 6.89-18.84 7.92-19.67C8.94-20.50 10.11-21.16 11.42-21.64C12.72-22.11 14.09-22.38 15.53-22.45C16.72-22.52 17.88-22.44 19-22.20C20.11-21.97 21.13-21.58 22.02-21.06C22.91-20.55 23.66-19.88 24.23-19.08C24.81-18.27 25.17-17.31 25.30-16.23C25.39-15.38 25.31-14.56 25.08-13.80C24.84-13.03 24.47-12.36 23.97-11.77C23.47-11.16 22.86-10.67 22.14-10.28C21.42-9.89 20.64-9.63 19.78-9.52C19.14-9.44 18.72-9.28 18.50-9.08C18.27-8.86 18.17-8.64 18.22-8.42C18.27-8.19 18.41-8 18.64-7.83C18.88-7.66 19.13-7.58 19.42-7.59C20.09-7.63 20.73-7.56 21.33-7.41C21.91-7.23 22.47-6.98 23.02-6.66C23.52-6.34 23.97-5.97 24.38-5.53C24.78-5.09 25.13-4.63 25.42-4.13C25.70-3.61 25.92-3.08 26.09-2.53C26.27-1.97 26.36-1.41 26.38-0.86C26.41-0.14 26.30 0.55 26.06 1.22C25.83 1.89 25.44 2.48 24.89 3C24.34 3.52 23.63 3.94 22.77 4.23C21.89 4.55 20.83 4.69 19.58 4.67C18.92 4.66 18.25 4.61 17.58 4.53C16.89 4.45 16.22 4.34 15.58 4.20C14.92 4.06 14.30 3.91 13.70 3.73C13.09 3.56 12.55 3.39 12.05 3.22C12 3.20 11.88 3.14 11.67 3.06C11.47 2.98 11.25 2.89 11.05 2.77C10.83 2.64 10.64 2.50 10.48 2.33C10.33 2.17 10.27 2 10.30 1.83C10.31 1.78 10.33 1.69 10.38 1.56C10.41 1.44 10.45 1.31 10.50 1.20C10.52 1.14 10.55 1.08 10.56 1.03C10.58 0.98 10.61 0.91 10.64 0.81C10.67 0.72 10.72 0.59 10.78 0.44C10.83 0.28 10.91 0.08 11-0.17C11.39-1.22 11.80-2.36 12.23-3.59C12.67-4.83 13.14-6.09 13.63-7.39C14.11-8.69 14.63-9.95 15.17-11.22C15.72-12.48 16.28-13.66 16.86-14.75C17.31-15.61 17.72-16.27 18.06-16.75C18.39-17.22 18.69-17.55 18.92-17.73C19.22-17.97 19.36-18.22 19.38-18.48C19.39-18.75 19.31-18.97 19.17-19.16C19.02-19.34 18.81-19.47 18.58-19.55C18.34-19.61 18.11-19.56 17.89-19.41C17.50-19.13 17.11-18.72 16.72-18.20C16.33-17.67 15.89-16.97 15.41-16.11C14.86-15.13 14.36-14.11 13.91-13.05C13.45-11.98 13.02-10.92 12.61-9.86C12.19-8.80 11.80-7.75 11.42-6.72C11.05-5.67 10.67-4.69 10.31-3.75C9.92-2.72 9.61-1.88 9.38-1.20C9.14-0.53 8.92 0.03 8.75 0.47C8.67 0.66 8.59 0.80 8.53 0.91C8.47 1.02 8.39 1.08 8.31 1.11C8.22 1.16 8.11 1.16 8 1.13C7.88 1.11 7.72 1.06 7.52 0.98C7.22 0.88 6.91 0.75 6.55 0.61C6.19 0.47 5.78 0.34 5.36 0.23C4.92 0.13 4.45 0.02 3.94-0.06C3.42-0.14 2.88-0.19 2.28-0.19C2.02-0.19 1.70-0.14 1.36-0.06C1 0.02 0.67 0.16 0.38 0.36C0.08 0.56-0.17 0.81-0.38 1.14C-0.58 1.47-0.66 1.89-0.63 2.39C-0.59 2.97-0.42 3.50-0.11 3.95C0.20 4.41 0.59 4.80 1.05 5.11C1.50 5.44 2.02 5.67 2.58 5.84C3.13 6.02 3.67 6.09 4.19 6.11C4.55 6.13 4.92 6.09 5.30 6.05C5.66 6 6.02 5.92 6.34 5.81C6.67 5.70 6.97 5.58 7.25 5.42C7.53 5.28 7.77 5.11 7.97 4.91C8.27 4.63 8.58 4.45 8.91 4.38C9.23 4.31 9.56 4.31 9.92 4.36C10.28 4.42 10.64 4.52 11.02 4.66C11.39 4.80 11.77 4.94 12.14 5.08C12.69 5.28 13.28 5.47 13.92 5.64C14.56 5.83 15.22 5.98 15.92 6.11C16.61 6.25 17.31 6.34 18.05 6.42C18.77 6.50 19.48 6.55 20.19 6.53C21.50 6.52 22.64 6.33 23.63 5.97C24.59 5.61 25.41 5.14 26.08 4.55C26.73 3.97 27.23 3.28 27.59 2.50C27.95 1.73 28.16 0.91 28.20 0.05C28.25-0.69 28.19-1.42 28.02-2.19C27.84-2.94 27.58-3.67 27.22-4.39C26.86-5.09 26.39-5.78 25.83-6.42C25.25-7.06 24.59-7.64 23.83-8.16C23.61-8.30 23.45-8.41 23.38-8.48C23.30-8.56 23.27-8.63 23.30-8.69C23.31-8.75 23.39-8.81 23.52-8.89C23.63-8.97 23.78-9.06 23.97-9.19C24.56-9.58 25.08-10.03 25.50-10.56C25.92-11.08 26.27-11.66 26.53-12.27C26.80-12.88 26.97-13.52 27.06-14.19C27.16-14.86 27.17-15.53 27.09-16.22C26.94-17.55 26.53-18.70 25.86-19.72C25.19-20.73 24.34-21.58 23.33-22.27C22.31-22.94 21.16-23.45 19.89-23.81C18.63-24.16 17.31-24.33 15.95-24.33C14.78-24.33 13.64-24.20 12.53-23.97C11.42-23.73 10.38-23.38 9.39-22.92C8.41-22.45 7.50-21.88 6.67-21.20C5.84-20.53 5.11-19.75 4.50-18.89C3.89-18.03 3.39-17.08 3.03-16.03C2.66-14.98 2.44-13.84 2.38-12.64C2.31-11.72 2.34-10.80 2.47-9.88C2.59-8.95 2.81-8.06 3.11-7.23C3.41-6.41 3.78-5.63 4.23-4.91C4.69-4.19 5.22-3.56 5.83-3.03C6.09-2.80 6.34-2.61 6.56-2.48C6.78-2.36 6.98-2.30 7.19-2.30C7.39-2.30 7.55-2.36 7.66-2.47C7.77-2.58 7.83-2.72 7.83-2.89C7.83-3.08 7.77-3.28 7.66-3.48C7.53-3.69 7.31-3.94 6.98-4.23ZM5.94 2.16C6.36 2.33 6.66 2.50 6.84 2.67C7.02 2.84 7.06 3.05 6.98 3.27C6.91 3.48 6.75 3.66 6.52 3.78C6.28 3.92 6.02 4.02 5.72 4.08C5.42 4.16 5.13 4.20 4.83 4.22C4.53 4.25 4.27 4.27 4.05 4.27C3.61 4.27 3.22 4.20 2.88 4.09C2.52 3.98 2.22 3.83 1.98 3.64C1.73 3.47 1.55 3.27 1.42 3.05C1.30 2.83 1.23 2.61 1.23 2.41C1.23 2.11 1.33 1.88 1.53 1.72C1.73 1.58 1.98 1.48 2.30 1.45C2.59 1.42 2.94 1.42 3.31 1.47C3.69 1.52 4.05 1.59 4.41 1.67C4.75 1.75 5.06 1.84 5.34 1.94C5.61 2.03 5.81 2.11 5.94 2.16ZM34.22 0.13C35.13 0.16 35.95 0 36.69-0.33C37.42-0.66 38.09-1.09 38.70-1.66C39.31-2.20 39.84-2.84 40.31-3.56C40.78-4.28 41.20-5.02 41.56-5.78C41.64-5.95 41.67-6.14 41.63-6.33C41.58-6.50 41.47-6.64 41.31-6.75C41.16-6.84 40.98-6.89 40.81-6.88C40.63-6.86 40.48-6.75 40.41-6.55C40.09-5.89 39.75-5.25 39.38-4.64C38.98-4.03 38.55-3.48 38.06-3C37.56-2.52 37-2.14 36.36-1.84C35.72-1.55 35-1.41 34.17-1.41C33.78-1.39 33.44-1.47 33.14-1.61C32.84-1.75 32.58-1.94 32.38-2.17C32.17-2.39 32-2.64 31.89-2.92C31.77-3.20 31.69-3.48 31.66-3.75C31.61-4.02 31.63-4.28 31.67-4.52C31.72-4.75 31.80-4.94 31.94-5.08C32.13-5.27 32.36-5.34 32.64-5.33C33.05-5.31 33.48-5.33 33.97-5.41C34.44-5.48 34.91-5.59 35.39-5.75C35.86-5.91 36.31-6.11 36.75-6.36C37.19-6.59 37.58-6.88 37.91-7.20C38.23-7.53 38.52-7.89 38.72-8.30C38.92-8.69 39.03-9.13 39.03-9.61C39.03-10.13 38.94-10.59 38.73-11.02C38.53-11.44 38.27-11.78 37.94-12.06C37.61-12.34 37.22-12.55 36.77-12.67C36.31-12.78 35.83-12.81 35.31-12.73C34.77-12.64 34.27-12.44 33.80-12.14C33.33-11.83 32.89-11.45 32.50-11.02C32.11-10.56 31.75-10.06 31.44-9.52C31.13-8.97 30.86-8.41 30.64-7.83C30.42-7.25 30.25-6.69 30.14-6.13C30.02-5.55 29.95-5.03 29.94-4.55C29.89-3.09 30.23-1.95 30.94-1.16C31.64-0.36 32.73 0.08 34.22 0.13ZM37.30-9.66C37.28-9.27 37.14-8.91 36.84-8.59C36.55-8.27 36.20-8 35.78-7.77C35.36-7.53 34.92-7.34 34.47-7.22C34.02-7.09 33.61-7.03 33.28-7.03C32.89-7.05 32.64-7.19 32.56-7.45C32.48-7.72 32.56-8.05 32.80-8.47C32.92-8.70 33.09-8.97 33.33-9.28C33.56-9.58 33.81-9.88 34.09-10.14C34.38-10.41 34.67-10.64 34.98-10.84C35.30-11.03 35.61-11.13 35.92-11.13C36.11-11.14 36.30-11.09 36.47-11.02C36.64-10.94 36.78-10.83 36.92-10.69C37.06-10.55 37.16-10.38 37.23-10.20C37.31-10.03 37.33-9.84 37.30-9.66ZM48.98-11.97C48.89-11.84 48.80-11.77 48.69-11.75C48.58-11.73 48.45-11.73 48.34-11.78C48.23-11.81 48.13-11.86 48.03-11.92C47.94-11.98 47.86-12.05 47.80-12.09C47.47-12.36 47.13-12.56 46.80-12.67C46.47-12.78 46.13-12.84 45.80-12.83C45.19-12.81 44.61-12.67 44.08-12.39C43.53-12.11 43.05-11.73 42.61-11.28C42.16-10.81 41.77-10.28 41.42-9.69C41.08-9.08 40.78-8.47 40.55-7.84C40.31-7.20 40.13-6.58 40-5.97C39.88-5.34 39.81-4.78 39.81-4.27C39.81-3.80 39.86-3.31 39.97-2.81C40.08-2.30 40.25-1.84 40.50-1.42C40.73-1 41.06-0.67 41.45-0.41C41.84-0.14 42.31 0 42.89 0C43.33 0 43.75-0.09 44.17-0.27C44.58-0.44 44.98-0.70 45.39-1.03C45.59-1.20 45.83-1.28 46.08-1.27C46.31-1.23 46.53-1.13 46.70-0.94C47.11-0.52 47.59-0.25 48.17-0.16C48.81-0.05 49.41-0.14 49.92-0.41C50.44-0.67 50.89-1.03 51.31-1.50C51.73-1.97 52.11-2.50 52.44-3.09C52.77-3.67 53.08-4.25 53.36-4.80C53.56-5.19 53.73-5.52 53.88-5.78C53.97-5.95 53.98-6.14 53.94-6.33C53.89-6.52 53.78-6.66 53.61-6.75C53.44-6.86 53.25-6.88 53.08-6.83C52.89-6.78 52.75-6.66 52.64-6.48C52.55-6.31 52.45-6.14 52.36-5.97C52.27-5.80 52.17-5.63 52.09-5.45C51.86-5 51.61-4.55 51.34-4.06C51.08-3.58 50.78-3.14 50.48-2.75C50.17-2.36 49.84-2.05 49.50-1.81C49.14-1.58 48.78-1.50 48.39-1.56C48.20-1.61 48.05-1.67 47.94-1.75C47.81-1.83 47.70-1.95 47.59-2.13C47.45-2.39 47.41-2.73 47.47-3.14C47.50-3.34 48.59-6.17 50.75-11.61C50.83-11.83 50.83-12.05 50.73-12.27C50.64-12.47 50.48-12.63 50.27-12.72C50.16-12.77 50.06-12.80 49.97-12.80C49.86-12.78 49.77-12.77 49.67-12.73C49.56-12.69 49.47-12.61 49.36-12.48C49.25-12.34 49.13-12.17 48.98-11.97ZM46.81-6.63C46.36-5.14 45.72-3.92 44.92-2.97C44.59-2.58 44.25-2.27 43.91-2.05C43.55-1.81 43.22-1.70 42.89-1.70C42.61-1.70 42.38-1.80 42.20-1.98C42.02-2.17 41.88-2.41 41.78-2.67C41.67-2.94 41.61-3.22 41.58-3.52C41.53-3.81 41.52-4.06 41.52-4.27C41.52-4.58 41.56-4.98 41.67-5.47C41.78-5.95 41.92-6.47 42.13-7C42.31-7.53 42.55-8.06 42.83-8.59C43.11-9.11 43.42-9.58 43.77-9.97C44.11-10.36 44.48-10.66 44.89-10.86C45.28-11.06 45.70-11.11 46.16-11C46.47-10.92 46.69-10.81 46.83-10.66C47.03-10.42 47.16-10.13 47.20-9.77C47.25-9.41 47.27-9.03 47.23-8.64C47.19-8.25 47.13-7.88 47.05-7.52C46.95-7.16 46.88-6.86 46.81-6.63ZM54.92-12.23L52.30-5.59C52.22-5.36 52.13-5.14 52.05-4.92C51.95-4.70 51.86-4.48 51.78-4.27C51.70-4.03 51.63-3.81 51.58-3.58C51.52-3.34 51.48-3.09 51.48-2.84C51.48-2.50 51.53-2.17 51.64-1.86C51.75-1.53 51.91-1.25 52.11-1C52.31-0.73 52.56-0.53 52.86-0.36C53.16-0.19 53.48-0.06 53.86-0.02C54.48 0.08 55.06 0 55.58-0.25C56.09-0.48 56.55-0.81 56.92-1.20C57.06-1.36 57.17-1.45 57.25-1.50C57.33-1.55 57.41-1.56 57.48-1.55C57.56-1.53 57.64-1.52 57.70-1.47C57.77-1.42 57.84-1.34 57.92-1.22C58.08-0.95 58.31-0.72 58.61-0.53C58.91-0.34 59.27-0.22 59.67-0.16C60.30-0.06 60.86-0.14 61.38-0.41C61.88-0.67 62.33-1.02 62.73-1.47C63.14-1.92 63.50-2.42 63.81-2.98C64.13-3.53 64.41-4.06 64.66-4.55C64.83-4.88 64.95-5.11 65.03-5.28C65.11-5.44 65.16-5.53 65.17-5.55C65.28-5.75 65.33-5.92 65.33-6.09C65.33-6.27 65.30-6.41 65.23-6.52C65.17-6.63 65.09-6.72 64.98-6.78C64.88-6.83 64.75-6.86 64.63-6.86C64.52-6.84 64.41-6.81 64.30-6.73C64.19-6.66 64.05-6.47 63.91-6.20C63.89-6.17 63.83-6.06 63.73-5.89C63.64-5.72 63.50-5.45 63.33-5.13C63.14-4.77 62.92-4.36 62.69-3.92C62.44-3.47 62.17-3.06 61.88-2.70C61.58-2.33 61.25-2.03 60.91-1.81C60.55-1.58 60.17-1.50 59.77-1.58C59.44-1.64 59.20-1.80 59.06-2.03C58.95-2.25 58.91-2.52 58.95-2.84C58.98-3.17 59.05-3.50 59.16-3.83C59.25-4.16 59.36-4.48 59.48-4.78C59.59-5.08 59.69-5.30 59.75-5.47L62.17-11.61C62.25-11.83 62.25-12.05 62.16-12.25C62.06-12.45 61.91-12.61 61.69-12.70C61.45-12.78 61.23-12.78 61.03-12.70C60.83-12.61 60.67-12.45 60.58-12.23L58.78-7.70C58.67-7.42 58.52-7.08 58.33-6.66C58.14-6.23 57.92-5.78 57.69-5.33C57.44-4.86 57.17-4.39 56.88-3.94C56.58-3.48 56.27-3.08 55.94-2.73C55.61-2.38 55.28-2.11 54.95-1.92C54.61-1.72 54.27-1.66 53.94-1.72C53.81-1.73 53.70-1.78 53.61-1.84C53.52-1.91 53.44-2.02 53.36-2.16C53.27-2.33 53.22-2.52 53.22-2.70C53.20-2.88 53.22-3.06 53.27-3.25C53.31-3.42 53.36-3.61 53.44-3.78C53.50-3.95 53.56-4.11 53.61-4.27L56.52-11.61C56.59-11.83 56.59-12.05 56.50-12.25C56.41-12.45 56.25-12.61 56.03-12.70C55.80-12.78 55.58-12.78 55.38-12.70C55.17-12.61 55.02-12.45 54.92-12.23ZM65.38-13.42L66.06-13.42C66.23-13.42 66.36-13.34 66.45-13.20C66.55-13.06 66.56-12.91 66.50-12.77L63.19-4.41C62.98-3.86 62.89-3.34 62.91-2.83C62.92-2.31 63.06-1.84 63.30-1.45C63.53-1.06 63.86-0.73 64.28-0.50C64.70-0.25 65.23-0.13 65.84-0.13C66.41-0.14 66.92-0.30 67.38-0.59C67.83-0.89 68.25-1.27 68.63-1.72C69-2.17 69.34-2.66 69.66-3.20C69.95-3.75 70.23-4.28 70.50-4.80C70.70-5.19 70.88-5.52 71.02-5.78C71.11-5.95 71.13-6.14 71.08-6.33C71.03-6.50 70.92-6.64 70.75-6.75C70.58-6.84 70.39-6.88 70.22-6.83C70.03-6.78 69.89-6.66 69.78-6.48C69.69-6.31 69.59-6.14 69.50-5.97C69.41-5.80 69.31-5.63 69.23-5.45C69-5 68.75-4.55 68.48-4.06C68.22-3.58 67.92-3.14 67.63-2.75C67.31-2.36 66.98-2.05 66.64-1.81C66.28-1.58 65.92-1.50 65.53-1.56C65.20-1.63 64.98-1.75 64.84-1.95C64.70-2.14 64.63-2.36 64.61-2.61C64.59-2.86 64.61-3.13 64.69-3.39C64.75-3.66 64.83-3.91 64.92-4.13L68.48-13.11C68.58-13.31 68.72-13.42 68.92-13.42L70.91-13.42C71.20-13.42 71.44-13.52 71.59-13.72C71.73-13.91 71.81-14.11 71.80-14.33C71.80-14.53 71.73-14.72 71.61-14.89C71.47-15.05 71.27-15.13 71-15.13L69.97-15.13C69.81-15.13 69.69-15.19 69.58-15.33C69.48-15.47 69.47-15.63 69.53-15.78L70.77-18.89C70.84-19.11 70.84-19.33 70.75-19.53C70.66-19.73 70.50-19.89 70.28-20C70.05-20.08 69.83-20.06 69.63-19.98C69.42-19.89 69.27-19.73 69.17-19.52L67.55-15.42C67.45-15.22 67.31-15.13 67.11-15.13L65.47-15.13C65.23-15.13 65.03-15.05 64.86-14.89C64.69-14.72 64.58-14.52 64.56-14.27C64.55-14.03 64.63-13.83 64.78-13.67C64.94-13.50 65.14-13.42 65.38-13.42ZM77.63-12.11C77.38-11.48 77.13-10.86 76.89-10.22C76.66-9.58 76.41-8.95 76.16-8.33C75.89-7.70 75.63-7.09 75.34-6.48C75.05-5.88 74.75-5.27 74.42-4.69C74.19-4.27 73.92-3.88 73.66-3.50C73.39-3.11 73.11-2.78 72.83-2.50C72.55-2.22 72.27-2 71.98-1.86C71.69-1.70 71.41-1.66 71.13-1.70C70.83-1.77 70.61-1.88 70.50-2.05C70.39-2.20 70.33-2.39 70.31-2.59C70.30-2.80 70.33-3.02 70.41-3.25C70.47-3.48 70.53-3.69 70.61-3.88L71.38-5.98L73.61-11.61C73.69-11.83 73.69-12.05 73.61-12.25C73.52-12.45 73.36-12.61 73.13-12.70C72.89-12.78 72.67-12.78 72.47-12.70C72.27-12.61 72.11-12.45 72.02-12.23L69.69-6.47C69.64-6.34 69.56-6.16 69.45-5.91C69.34-5.64 69.25-5.38 69.14-5.08C69.03-4.78 68.92-4.50 68.83-4.20C68.73-3.91 68.67-3.64 68.64-3.42C68.53-2.63 68.63-1.95 68.92-1.41C69.13-1.03 69.39-0.72 69.72-0.48C70.05-0.23 70.42-0.08 70.86-0.02C70.95 0 71.05 0.02 71.14 0.02C71.22 0.02 71.31 0.02 71.39 0.02C71.53 0.02 71.69 0 71.84-0.03C72-0.06 72.14-0.09 72.28-0.11C72.41-0.13 72.52-0.11 72.59-0.09C72.67-0.06 72.72 0 72.72 0.11C72.73 0.33 72.69 0.69 72.55 1.17C72.41 1.66 72.20 2.20 71.95 2.81C71.70 3.42 71.42 4.05 71.09 4.69C70.77 5.33 70.42 5.92 70.08 6.44C69.72 6.97 69.38 7.41 69.03 7.73C68.69 8.06 68.38 8.22 68.09 8.20C67.91 8.19 67.75 8.13 67.64 8.02C67.53 7.91 67.44 7.78 67.38 7.63C67.31 7.48 67.27 7.33 67.25 7.16C67.23 6.98 67.22 6.83 67.23 6.67C67.27 6.14 67.41 5.67 67.64 5.28C67.88 4.89 68.16 4.56 68.52 4.27C68.88 3.97 69.27 3.72 69.70 3.50C70.14 3.28 70.58 3.06 71.03 2.86C71.31 2.73 71.50 2.56 71.58 2.33C71.66 2.09 71.70 1.88 71.70 1.66C71.70 1.55 71.69 1.44 71.64 1.34C71.59 1.25 71.52 1.17 71.41 1.13C71.30 1.08 71.17 1.06 71.02 1.08C70.86 1.09 70.67 1.16 70.44 1.25C69.88 1.52 69.31 1.78 68.75 2.08C68.17 2.38 67.66 2.72 67.20 3.11C66.75 3.50 66.36 3.98 66.06 4.53C65.75 5.09 65.58 5.77 65.53 6.56C65.52 6.95 65.55 7.34 65.64 7.73C65.72 8.13 65.88 8.47 66.08 8.77C66.28 9.08 66.53 9.33 66.84 9.53C67.16 9.73 67.53 9.86 67.97 9.91C68.36 9.94 68.73 9.88 69.09 9.73C69.44 9.59 69.77 9.39 70.06 9.14C70.36 8.89 70.64 8.59 70.91 8.27C71.16 7.94 71.39 7.61 71.59 7.27C71.80 6.94 71.98 6.61 72.14 6.30C72.30 5.98 72.42 5.72 72.52 5.48L73.81 2.20C73.92 1.95 74.11 1.77 74.38 1.66C76.03 1.06 77.47 0.20 78.67-0.94C79.88-2.08 80.89-3.42 81.69-4.97C81.78-5.14 81.89-5.34 82-5.56C82.11-5.77 82.19-5.95 82.22-6.09C82.23-6.20 82.23-6.30 82.19-6.39C82.14-6.48 82.09-6.56 82.02-6.64C81.94-6.72 81.84-6.77 81.73-6.81C81.63-6.84 81.53-6.86 81.42-6.84C81.19-6.83 81-6.70 80.88-6.48C80.80-6.34 80.72-6.20 80.64-6.06C80.56-5.92 80.50-5.78 80.42-5.64C79.91-4.63 79.25-3.67 78.48-2.80C77.72-1.92 76.83-1.19 75.83-0.59C75.73-0.53 75.63-0.48 75.48-0.45C75.34-0.42 75.23-0.44 75.14-0.50C75.06-0.58 75.05-0.67 75.06-0.81C75.08-0.95 75.09-1.06 75.14-1.17L79.27-11.59C79.33-11.77 79.34-11.92 79.31-12.06C79.28-12.20 79.22-12.33 79.14-12.44C79.05-12.55 78.94-12.63 78.81-12.69C78.67-12.73 78.55-12.77 78.41-12.75C78.25-12.73 78.11-12.69 77.97-12.59C77.83-12.48 77.70-12.33 77.63-12.11Z"/></svg>