<svg id="mainsvg" xmlns="http://www.w3.org/2000/svg" xmlns:xlink="http://www.w3.org/1999/xlink" version="1.1" x="0px" y="0px" enable-background="new 0 0 200 162.5" xml:space="preserve" viewBox="0 0 131 21"><path fill="#000" transform="translate(-0.11621315192743763, 20.453125)" d="M0.13-0.02L5.16-0.02C5.28-0.36 4.03-0.48 4.03-1.89L4.03-10.23L13.97-10.23L13.97-1.89C13.97-0.48 12.69-0.36 12.84-0.02L17.88-0.02C18-0.36 16.75-0.48 16.75-1.89L16.75-18.58C16.75-19.98 18-20.11 17.88-20.45L12.84-20.45C12.69-20.11 13.97-19.98 13.97-18.58L13.97-11.52L4.03-11.52L4.03-18.58C4.03-19.98 5.28-20.11 5.16-20.45L0.13-20.45C0-20.11 1.25-19.98 1.25-18.58L1.25-1.89C1.25-0.48 0-0.36 0.13-0.02ZM29.78-0.02C35.59-0.02 39.22-4.61 39.22-10.23C39.22-15.86 35.72-20.45 29.78-20.45C23.81-20.45 20.34-15.86 20.34-10.23C20.34-4.61 23.94-0.02 29.78-0.02ZM29.78-19.17C33.97-19.17 36.41-15.17 36.41-10.23C36.41-5.30 33.88-1.30 29.78-1.30C25.66-1.30 23.13-5.30 23.13-10.23C23.13-15.17 25.59-19.17 29.78-19.17ZM42.81-18.56L42.81-6.59C42.81-1.78 45.78 0 49.41 0C53.03 0 56-1.88 56-6.59L56-18.56C56-19.97 57.25-20.09 57.13-20.44L52.09-20.44C51.94-20.09 53.19-19.97 53.19-18.56L53.19-5.06C53.19-0.09 45.59-0.09 45.59-5.06L45.59-18.56C45.59-19.97 46.88-20.09 46.72-20.44L41.69-20.44C41.56-20.09 42.81-19.97 42.81-18.56ZM70.84-4.25C70.72-0.38 61.91 0.44 61.25-5.78L60.72-5.94L60.72 0C61.31 0.09 61.38-1.88 63.03-0.91C64.22-0.38 65.28 0 67.09 0C69.53 0 73.72-0.94 73.47-5.50C73.16-11.59 64-11.25 63.16-15.31C62.19-19.94 70.84-20.91 72.13-16.06L72.66-15.97L71.88-20.44C71.47-20.59 71.97-18.97 70.47-19.63C69.25-20.16 68.28-20.44 66.38-20.44C63.97-20.44 60.31-19.53 60.03-15.31C59.59-8.88 71-8.94 70.84-4.25ZM84.94-1.88L84.94-19.16L88.56-19.16C89.72-19.06 90.13-18.41 90.22-18.28C90.47-17.91 90.75-16.38 91-16.56L90.66-20.44L76.41-20.44L76.06-16.56C76.31-16.38 76.59-17.91 76.84-18.28C76.94-18.41 77.34-19.06 78.47-19.16L82.13-19.16L82.13-1.88C82.13-0.47 80.88-0.34 81 0L86.03 0C86.19-0.34 84.94-0.47 84.94-1.88ZM102.78-0.02C108.59-0.02 112.22-4.61 112.22-10.23C112.22-15.86 108.72-20.45 102.78-20.45C96.81-20.45 93.34-15.86 93.34-10.23C93.34-4.61 96.94-0.02 102.78-0.02ZM102.78-19.17C106.97-19.17 109.41-15.17 109.41-10.23C109.41-5.30 106.88-1.30 102.78-1.30C98.66-1.30 96.13-5.30 96.13-10.23C96.13-15.17 98.59-19.17 102.78-19.17ZM117.09-1.89L117.06-18.98L125.53-1.92C126.22-0.30 128.31-0.02 129.81-0.02L129.81-18.58C129.81-19.98 131.06-20.11 130.94-20.45L127.44-20.45C127.28-20.11 128.56-19.98 128.56-18.58L128.56-1.73L119.28-20.45L114.69-20.45C114.56-20.11 115.81-19.98 115.81-18.58L115.81-1.89C115.81-0.48 114.56-0.36 114.69-0.02L118.22-0.02C118.34-0.36 117.09-0.48 117.09-1.89Z"/></svg>