<svg id="mainsvg" xmlns="http://www.w3.org/2000/svg" xmlns:xlink="http://www.w3.org/1999/xlink" version="1.1" x="0px" y="0px" enable-background="new 0 0 200 162.5" xml:space="preserve" viewBox="0 0 298 25"><path fill="#000" transform="translate(-1.84375, 24)" d="M12.14 0L8.72-8.31L6.44-8.31L6.44 0L1.84 0L1.84-22.75L9.17-22.75Q12.63-22.75 14.51-20.96Q16.39-19.17 16.39-15.88L16.39-15.88Q16.39-11.34 13.09-9.53L13.09-9.53L17.08-0.22L17.08 0L12.14 0ZM6.44-18.92L6.44-12.14L9.05-12.14Q10.42-12.14 11.11-13.05Q11.80-13.97 11.80-15.50L11.80-15.50Q11.80-18.92 9.13-18.92L9.13-18.92L6.44-18.92ZM18.81-7.92L18.81-9Q18.81-12.84 20.63-15.03Q22.44-17.22 25.64-17.22L25.64-17.22Q28.88-17.22 30.69-15.03Q32.50-12.84 32.50-8.97L32.50-8.97L32.50-7.89Q32.50-4.03 30.70-1.86Q28.91 0.31 25.67 0.31L25.67 0.31Q22.42 0.31 20.62-1.87Q18.81-4.05 18.81-7.92L18.81-7.92ZM23.25-9L23.25-7.89Q23.25-3.36 25.67-3.36L25.67-3.36Q27.91-3.36 28.08-7.14L28.08-7.14L28.09-9Q28.09-11.31 27.45-12.43Q26.81-13.55 25.64-13.55L25.64-13.55Q24.52-13.55 23.88-12.43Q23.25-11.31 23.25-9L23.25-9ZM48.44-9.20L48.44-7.91Q48.44-3.80 47.13-1.74Q45.81 0.31 43 0.31L43 0.31Q40.80 0.31 39.47-1.67L39.47-1.67L39.33 0L35.25 0L35.25-24L39.67-24L39.67-15.53Q40.92-17.22 42.97-17.22L42.97-17.22Q45.78-17.22 47.09-15.18Q48.41-13.14 48.44-9.20L48.44-9.20ZM44.02-7.41L44.02-9.02Q44.02-11.69 43.50-12.60Q42.98-13.52 41.70-13.52L41.70-13.52Q40.31-13.52 39.67-12.25L39.67-12.25L39.67-4.55Q40.27-3.36 41.73-3.36L41.73-3.36Q43-3.36 43.49-4.19Q43.98-5.02 44.02-7.41L44.02-7.41ZM50.58-7.92L50.58-9Q50.58-12.84 52.39-15.03Q54.20-17.22 57.41-17.22L57.41-17.22Q60.64-17.22 62.45-15.03Q64.27-12.84 64.27-8.97L64.27-8.97L64.27-7.89Q64.27-4.03 62.47-1.86Q60.67 0.31 57.44 0.31L57.44 0.31Q54.19 0.31 52.38-1.87Q50.58-4.05 50.58-7.92L50.58-7.92ZM55.02-9L55.02-7.89Q55.02-3.36 57.44-3.36L57.44-3.36Q59.67-3.36 59.84-7.14L59.84-7.14L59.86-9Q59.86-11.31 59.22-12.43Q58.58-13.55 57.41-13.55L57.41-13.55Q56.28-13.55 55.65-12.43Q55.02-11.31 55.02-9L55.02-9ZM67.73-21.06L72.16-21.06L72.16-16.91L74.42-16.91L74.42-13.58L72.16-13.58L72.16-5.19Q72.16-4.19 72.43-3.81Q72.70-3.44 73.48-3.44L73.48-3.44Q74.13-3.44 74.53-3.55L74.53-3.55L74.50-0.11Q73.38 0.31 72.06 0.31L72.06 0.31Q67.78 0.31 67.73-4.59L67.73-4.59L67.73-13.58L65.78-13.58L65.78-16.91L67.73-16.91L67.73-21.06ZM76.33-7.92L76.33-9Q76.33-12.84 78.14-15.03Q79.95-17.22 83.16-17.22L83.16-17.22Q86.39-17.22 88.20-15.03Q90.02-12.84 90.02-8.97L90.02-8.97L90.02-7.89Q90.02-4.03 88.22-1.86Q86.42 0.31 83.19 0.31L83.19 0.31Q79.94 0.31 78.13-1.87Q76.33-4.05 76.33-7.92L76.33-7.92ZM80.77-9L80.77-7.89Q80.77-3.36 83.19-3.36L83.19-3.36Q85.42-3.36 85.59-7.14L85.59-7.14L85.61-9Q85.61-11.31 84.97-12.43Q84.33-13.55 83.16-13.55L83.16-13.55Q82.03-13.55 81.40-12.43Q80.77-11.31 80.77-9L80.77-9ZM103.81-7.58L108.41-7.58Q108.23-3.69 106.22-1.69Q104.20 0.31 100.53 0.31L100.53 0.31Q96.67 0.31 94.62-2.23Q92.56-4.77 92.56-9.47L92.56-9.47L92.56-13.30Q92.56-17.98 94.69-20.52Q96.81-23.06 100.59-23.06L100.59-23.06Q104.31-23.06 106.24-20.98Q108.17-18.91 108.44-15.02L108.44-15.02L103.83-15.02Q103.77-17.42 103.09-18.34Q102.41-19.25 100.59-19.25L100.59-19.25Q98.75-19.25 97.98-17.96Q97.22-16.67 97.17-13.72L97.17-13.72L97.17-9.42Q97.17-6.03 97.93-4.77Q98.69-3.50 100.53-3.50L100.53-3.50Q102.34-3.50 103.03-4.38Q103.72-5.27 103.81-7.58L103.81-7.58ZM110.50-7.92L110.50-9Q110.50-12.84 112.31-15.03Q114.13-17.22 117.33-17.22L117.33-17.22Q120.56-17.22 122.38-15.03Q124.19-12.84 124.19-8.97L124.19-8.97L124.19-7.89Q124.19-4.03 122.39-1.86Q120.59 0.31 117.36 0.31L117.36 0.31Q114.11 0.31 112.30-1.87Q110.50-4.05 110.50-7.92L110.50-7.92ZM114.94-9L114.94-7.89Q114.94-3.36 117.36-3.36L117.36-3.36Q119.59-3.36 119.77-7.14L119.77-7.14L119.78-9Q119.78-11.31 119.14-12.43Q118.50-13.55 117.33-13.55L117.33-13.55Q116.20-13.55 115.57-12.43Q114.94-11.31 114.94-9L114.94-9ZM126.83-16.91L130.98-16.91L131.11-15.23Q132.61-17.22 135.03-17.22L135.03-17.22Q139.39-17.22 139.52-11.11L139.52-11.11L139.52 0L135.08 0L135.08-10.78Q135.08-12.22 134.65-12.87Q134.22-13.52 133.14-13.52L133.14-13.52Q131.94-13.52 131.27-12.28L131.27-12.28L131.27 0L126.83 0L126.83-16.91ZM142.09-7.69L142.09-8.97Q142.09-13.13 143.50-15.17Q144.91-17.22 147.59-17.22L147.59-17.22Q149.55-17.22 150.84-15.53L150.84-15.53L150.84-24L155.30-24L155.30 0L151.28 0L151.08-1.72Q149.72 0.31 147.58 0.31L147.58 0.31Q144.92 0.31 143.52-1.72Q142.13-3.75 142.09-7.69L142.09-7.69ZM146.53-9.03L146.53-7.86Q146.53-5.36 147.06-4.37Q147.59-3.38 148.86-3.38L148.86-3.38Q150.17-3.38 150.84-4.55L150.84-4.55L150.84-12.27Q150.19-13.52 148.88-13.52L148.88-13.52Q147.66-13.52 147.09-12.53Q146.53-11.55 146.53-9.03L146.53-9.03ZM165.38 0.31L165.38 0.31Q161.97 0.31 160.06-1.72Q158.16-3.75 158.16-7.53L158.16-7.53L158.16-8.88Q158.16-12.88 159.91-15.05Q161.66-17.22 164.92-17.22L164.92-17.22Q168.11-17.22 169.72-15.18Q171.33-13.14 171.36-9.14L171.36-9.14L171.36-6.97L162.56-6.97Q162.66-5.09 163.39-4.23Q164.13-3.36 165.66-3.36L165.66-3.36Q167.88-3.36 169.36-4.88L169.36-4.88L171.09-2.20Q170.28-1.08 168.73-0.38Q167.19 0.31 165.38 0.31ZM162.59-10.06L162.59-10.06L167.02-10.06L167.02-10.47Q166.98-11.98 166.52-12.77Q166.05-13.55 164.89-13.55Q163.73-13.55 163.21-12.72Q162.69-11.89 162.59-10.06ZM173.75-16.91L177.91-16.91L178.03-15.23Q179.53-17.22 181.95-17.22L181.95-17.22Q186.31-17.22 186.44-11.11L186.44-11.11L186.44 0L182 0L182-10.78Q182-12.22 181.57-12.87Q181.14-13.52 180.06-13.52L180.06-13.52Q178.86-13.52 178.19-12.28L178.19-12.28L178.19 0L173.75 0L173.75-16.91ZM197.09-4.53L197.09-4.53Q197.09-5.09 196.55-5.57Q196.02-6.05 194.16-6.86L194.16-6.86Q191.42-7.97 190.40-9.16Q189.38-10.34 189.38-12.11L189.38-12.11Q189.38-14.33 190.98-15.77Q192.58-17.22 195.22-17.22L195.22-17.22Q198-17.22 199.67-15.78Q201.34-14.34 201.34-11.92L201.34-11.92L196.92-11.92Q196.92-13.98 195.20-13.98L195.20-13.98Q194.50-13.98 194.05-13.55Q193.59-13.11 193.59-12.33L193.59-12.33Q193.59-11.77 194.09-11.34Q194.59-10.91 196.45-10.11L196.45-10.11Q199.16-9.11 200.27-7.88Q201.39-6.66 201.39-4.70L201.39-4.70Q201.39-2.44 199.69-1.06Q197.98 0.31 195.22 0.31L195.22 0.31Q193.36 0.31 191.94-0.41Q190.52-1.14 189.71-2.44Q188.91-3.73 188.91-5.23L188.91-5.23L193.11-5.23Q193.14-4.08 193.65-3.50Q194.16-2.92 195.31-2.92L195.31-2.92Q197.09-2.92 197.09-4.53ZM210.97 0.31L210.97 0.31Q207.56 0.31 205.66-1.72Q203.75-3.75 203.75-7.53L203.75-7.53L203.75-8.88Q203.75-12.88 205.50-15.05Q207.25-17.22 210.52-17.22L210.52-17.22Q213.70-17.22 215.31-15.18Q216.92-13.14 216.95-9.14L216.95-9.14L216.95-6.97L208.16-6.97Q208.25-5.09 208.98-4.23Q209.72-3.36 211.25-3.36L211.25-3.36Q213.47-3.36 214.95-4.88L214.95-4.88L216.69-2.20Q215.88-1.08 214.33-0.38Q212.78 0.31 210.97 0.31ZM208.19-10.06L208.19-10.06L212.61-10.06L212.61-10.47Q212.58-11.98 212.11-12.77Q211.64-13.55 210.48-13.55Q209.33-13.55 208.80-12.72Q208.28-11.89 208.19-10.06ZM218.86-7.69L218.86-8.97Q218.86-13.13 220.27-15.17Q221.67-17.22 224.36-17.22L224.36-17.22Q226.31-17.22 227.61-15.53L227.61-15.53L227.61-24L232.06-24L232.06 0L228.05 0L227.84-1.72Q226.48 0.31 224.34 0.31L224.34 0.31Q221.69 0.31 220.29-1.72Q218.89-3.75 218.86-7.69L218.86-7.69ZM223.30-9.03L223.30-7.86Q223.30-5.36 223.83-4.37Q224.36-3.38 225.63-3.38L225.63-3.38Q226.94-3.38 227.61-4.55L227.61-4.55L227.61-12.27Q226.95-13.52 225.64-13.52L225.64-13.52Q224.42-13.52 223.86-12.53Q223.30-11.55 223.30-9.03L223.30-9.03ZM243.27-11.59L243.27-7.91L235.63-7.91L235.63-11.59L243.27-11.59ZM260.13-9.20L260.13-7.91Q260.13-3.80 258.81-1.74Q257.50 0.31 254.69 0.31L254.69 0.31Q252.48 0.31 251.16-1.67L251.16-1.67L251.02 0L246.94 0L246.94-24L251.36-24L251.36-15.53Q252.61-17.22 254.66-17.22L254.66-17.22Q257.47-17.22 258.78-15.18Q260.09-13.14 260.13-9.20L260.13-9.20ZM255.70-7.41L255.70-9.02Q255.70-11.69 255.19-12.60Q254.67-13.52 253.39-13.52L253.39-13.52Q252-13.52 251.36-12.25L251.36-12.25L251.36-4.55Q251.95-3.36 253.42-3.36L253.42-3.36Q254.69-3.36 255.18-4.19Q255.67-5.02 255.70-7.41L255.70-7.41ZM262.27-7.92L262.27-9Q262.27-12.84 264.08-15.03Q265.89-17.22 269.09-17.22L269.09-17.22Q272.33-17.22 274.14-15.03Q275.95-12.84 275.95-8.97L275.95-8.97L275.95-7.89Q275.95-4.03 274.16-1.86Q272.36 0.31 269.13 0.31L269.13 0.31Q265.88 0.31 264.07-1.87Q262.27-4.05 262.27-7.92L262.27-7.92ZM266.70-9L266.70-7.89Q266.70-3.36 269.13-3.36L269.13-3.36Q271.36-3.36 271.53-7.14L271.53-7.14L271.55-9Q271.55-11.31 270.91-12.43Q270.27-13.55 269.09-13.55L269.09-13.55Q267.97-13.55 267.34-12.43Q266.70-11.31 266.70-9L266.70-9ZM283.34-24L283.34 0L278.91 0L278.91-24L283.34-24ZM286.17-7.69L286.17-8.97Q286.17-13.13 287.58-15.17Q288.98-17.22 291.67-17.22L291.67-17.22Q293.63-17.22 294.92-15.53L294.92-15.53L294.92-24L299.38-24L299.38 0L295.36 0L295.16-1.72Q293.80 0.31 291.66 0.31L291.66 0.31Q289 0.31 287.60-1.72Q286.20-3.75 286.17-7.69L286.17-7.69ZM290.61-9.03L290.61-7.86Q290.61-5.36 291.14-4.37Q291.67-3.38 292.94-3.38L292.94-3.38Q294.25-3.38 294.92-4.55L294.92-4.55L294.92-12.27Q294.27-13.52 292.95-13.52L292.95-13.52Q291.73-13.52 291.17-12.53Q290.61-11.55 290.61-9.03L290.61-9.03Z"/></svg>