<svg id="mainsvg" xmlns="http://www.w3.org/2000/svg" xmlns:xlink="http://www.w3.org/1999/xlink" version="1.1" x="0px" y="0px" enable-background="new 0 0 200 162.5" xml:space="preserve" viewBox="0 0 92 31"><path fill="#000" transform="translate(-0.16, 30.031909769852156)" d="M2.40-27.42C3.23-27.42 4.19-27.42 4.64-26.40C5.09-25.18 4.93-23.84 5.02-22.27C5.09-21.06 5.02-18.88 4.86-17.76C4.80-16.22 4.42-15.58 3.90-14.66C3.68-14.08 3.58-13.89 3.23-13.44C2.56-12.74 2.69-13.34 2.69-14.27C2.62-16.03 2.40-19.42 2.46-20.86C2.56-21.60 2.46-22.37 2.46-23.10C2.46-23.65 2.34-27.33 2.40-27.42L2.40-27.42ZM0.90-27.33C0.77-26.30 0.67-23.46 0.77-22.18C0.67-21.15 0.61-20.35 0.67-19.42C0.67-18.98 0.77-18.50 0.77-18.14C0.67-16.48 0.83-16.58 0.67-14.27C0.61-13.54 0.61-12.54 0.67-11.52C0.77-8.77 0.32-3.71 0.90-1.06C0.90-0.61 0.90-0.32 1.12-0.16C1.12-0.06 1.79 0.22 1.79 0.22C2.34 0.22 2.34-0.70 2.40-1.34C2.40-1.63 2.46-1.95 2.56-2.43C2.62-2.78 2.56-3.71 2.69-5.02C2.69-5.54 2.62-5.82 2.69-6.27C2.69-7.30 2.78-8.13 2.69-9.15C2.69-9.60 2.62-11.62 2.69-12C3.07-11.71 3.14-11.42 3.68-11.52C3.97-11.62 3.81-11.52 4.03-11.81C4.19-12 4.35-12 4.48-12.19C4.58-12.35 4.80-12.45 4.93-12.64C5.02-12.74 5.15-12.74 5.15-12.74C5.31-12.90 5.09-12.74 5.31-12.99C5.47-13.25 5.47-13.15 5.60-13.54C5.82-13.89 5.76-13.54 5.98-13.98C6.72-15.94 7.49-17.02 7.49-20.16C7.39-22.91 7.10-24.93 6.14-26.50C5.60-27.33 5.31-27.58 4.48-27.94C3.68-28.48 3.14-28.22 2.34-28.48C2.11-29.06 2.24-29.15 1.89-29.50C1.73-29.60 1.28-29.79 0.99-29.79L0.90-28.32L0.16-28.03L0.90-27.33ZM21.18-14.59C20.99-14.27 18.34-6.82 17.79-5.60C17.79-5.54 15.94-0.86 15.78-0.86C15.52-1.09 15.52-2.02 15.52-2.53C15.62-2.91 15.71-3.01 15.71-3.49L15.71-4.90C15.71-5.18 15.71-5.18 15.71-5.25C15.78-5.60 15.71-6.43 15.78-6.85C15.94-7.65 15.78-7.46 16.03-8C16.22-8.51 16.22-9.31 16.29-9.79L16.29-10.82C16.45-11.01 16.29-11.49 16.22-11.84C16.03-12.58 16.03-12.93 15.26-13.15C15.17-13.15 14.59-13.28 14.59-13.28C14.34-13.15 14.34-13.06 14.43-12.83C13.98-12.58 13.89-12.32 13.86-11.90C13.57-11.58 13.41-11.23 13.31-10.88C13.25-10.05 12.99-9.25 12.70-8.51C12.48-7.78 12.22-7.10 11.90-6.30C11.62-5.73 11.20-4.83 10.82-4.42C10.30-4.70 10.66-4.83 10.56-5.18C10.56-5.54 10.56-5.06 10.37-5.54L10.05-8.26C10.05-9.31 10.21-11.17 10.37-12.06L11.14-14.72C11.20-14.94 11.14-15.33 11.20-15.55C11.39-15.71 11.46-16.03 11.62-16.29C11.71-16.51 11.46-16.42 11.71-16.64C11.81-16.77 11.81-16.83 11.90-16.99C12.22-17.34 12.38-17.82 13.25-17.66C13.31-17.12 13.31-17.47 13.47-16.83C13.89-15.90 13.86-14.53 13.47-13.86L13.86-13.63C13.98-13.86 14.59-14.72 14.66-15.07C14.85-15.71 14.94-16.64 14.59-17.34C14.08-18.18 12.22-19.14 11.46-18.69C11.30-18.43 11.14-18.53 10.82-18.34C9.89-17.47 9.12-15.90 8.61-14.88C8.51-14.53 8.51-14.21 8.29-13.86C8.19-13.63 8.10-13.41 8.10-13.06C7.94-11.71 7.42-10.66 7.52-8.96C7.62-7.55 7.52-6.08 8.51-4.83C9.28-3.84 10.82-3.23 11.62-4.19C11.90-4.54 12.29-5.25 12.38-5.73C12.58-5.95 12.70-6.08 12.80-6.43C12.90-6.72 12.99-7.10 13.25-7.30C13.25-6.85 13.09-6.08 13.09-5.73L13.09-4.19C12.99-3.36 13.41-1.92 13.86-1.34C14.18-0.61 15.26 0.22 16.22-0.26C16.70-0.48 17.12-1.70 17.31-2.18C17.79-3.36 18.27-4.90 18.88-6.30C18.88-6.30 21.92-14.18 21.92-14.18C21.73-14.40 21.34-14.59 21.18-14.59ZM31.58-14.78C31.07-14.05 27.58-7.04 27.20-6.02C26.37-3.97 26.37-3.84 25.50-1.95C24.45-0.29 24.19-1.82 23.81-2.34C23.52-2.85 23.62-3.20 23.39-3.71C23.14-4.22 23.14-4.35 23.04-5.12C22.94-5.76 22.75-5.89 22.75-6.78L22.75-12.22C22.85-13.28 23.23-16.03 23.39-17.09C23.71-18.37 23.81-18.24 24.45-19.39C25.12-20.51 25.22-20.03 25.89-20.03C26.46-20.16 28.93-20.83 29.54-20.93C29.89-21.09 30.27-21.57 29.98-22.08C29.31-22.08 29.18-21.82 29.02-21.70C28.83-21.57 25.98-21.28 25.70-21.15C25.79-21.54 25.98-21.92 26.18-22.40L27.01-24.10C27.20-24.48 27.20-24.32 27.30-24.74L27.78-26.02C27.97-26.53 28.45-28.42 28.06-29.06C27.87-29.54 27.68-29.82 27.42-29.95C26.72-29.95 26.27-30.46 25.60-28.90C25.22-28.26 24.74-27.62 24.29-26.78C23.62-25.25 22.56-23.68 22.02-22.05C21.92-21.66 21.73-21.06 21.54-20.67C20.96-20.80 20.19-21.06 19.26-20.80C18.94-20.64 19.26-20.16 19.17-19.90C19.17-19.90 20.19-20.03 20.48-20.03C21.82-19.78 21.06-19.65 20.58-17.09C20.48-16.67 20.48-16.32 20.38-15.81C20.13-14.78 20.19-14.14 20.03-13.02C19.74-12 19.84-11.10 19.84-9.95C19.84-8.96 19.74-8.06 20.03-6.91C20.38-4.61 20.38-3.97 21.22-2.21C21.92-0.80 22.37 0.22 24.10 0.10C24.64-0.03 25.31-0.42 25.79-0.80C25.89-0.93 26.18-1.44 26.27-1.70C26.46-2.08 26.37-2.34 26.62-2.72C28.35-6.27 30.24-11.10 32.22-14.56L31.58-14.78ZM24.19-22.05C24.38-22.56 24.38-22.69 24.45-23.20C24.64-24.22 25.60-25.89 25.98-26.78C26.27-27.42 26.37-28.03 26.91-28.26C26.91-26.88 26.46-25.25 25.98-24.22C25.79-23.68 25.50-23.20 25.22-22.56C25.12-22.30 25.02-22.05 24.83-21.66C24.74-21.41 24.64-21.15 24.54-20.93L24.00-20.93C24.00-21.41 24.10-21.66 24.19-22.05ZM43.46-14.59C43.26-14.27 40.61-6.82 40.06-5.60C40.06-5.54 38.21-0.86 38.05-0.86C37.79-1.09 37.79-2.02 37.79-2.53C37.89-2.91 37.98-3.01 37.98-3.49L37.98-4.90C37.98-5.18 37.98-5.18 37.98-5.25C38.05-5.60 37.98-6.43 38.05-6.85C38.21-7.65 38.05-7.46 38.30-8C38.50-8.51 38.50-9.31 38.56-9.79L38.56-10.82C38.72-11.01 38.56-11.49 38.50-11.84C38.30-12.58 38.30-12.93 37.54-13.15C37.44-13.15 36.86-13.28 36.86-13.28C36.61-13.15 36.61-13.06 36.70-12.83C36.26-12.58 36.16-12.32 36.13-11.90C35.84-11.58 35.68-11.23 35.58-10.88C35.52-10.05 35.26-9.25 34.98-8.51C34.75-7.78 34.50-7.10 34.18-6.30C33.89-5.73 33.47-4.83 33.09-4.42C32.58-4.70 32.93-4.83 32.83-5.18C32.83-5.54 32.83-5.06 32.64-5.54L32.32-8.26C32.32-9.31 32.48-11.17 32.64-12.06L33.41-14.72C33.47-14.94 33.41-15.33 33.47-15.55C33.66-15.71 33.73-16.03 33.89-16.29C33.98-16.51 33.73-16.42 33.98-16.64C34.08-16.77 34.08-16.83 34.18-16.99C34.50-17.34 34.66-17.82 35.52-17.66C35.58-17.12 35.58-17.47 35.74-16.83C36.16-15.90 36.13-14.53 35.74-13.86L36.13-13.63C36.26-13.86 36.86-14.72 36.93-15.07C37.12-15.71 37.22-16.64 36.86-17.34C36.35-18.18 34.50-19.14 33.73-18.69C33.57-18.43 33.41-18.53 33.09-18.34C32.16-17.47 31.39-15.90 30.88-14.88C30.78-14.53 30.78-14.21 30.56-13.86C30.46-13.63 30.37-13.41 30.37-13.06C30.21-11.71 29.70-10.66 29.79-8.96C29.89-7.55 29.79-6.08 30.78-4.83C31.55-3.84 33.09-3.23 33.89-4.19C34.18-4.54 34.56-5.25 34.66-5.73C34.85-5.95 34.98-6.08 35.07-6.43C35.17-6.72 35.26-7.10 35.52-7.30C35.52-6.85 35.36-6.08 35.36-5.73L35.36-4.19C35.26-3.36 35.68-1.92 36.13-1.34C36.45-0.61 37.54 0.22 38.50-0.26C38.98-0.48 39.39-1.70 39.58-2.18C40.06-3.36 40.54-4.90 41.15-6.30C41.15-6.30 44.19-14.18 44.19-14.18C44-14.40 43.62-14.59 43.46-14.59ZM55.65-15.55C55.52-15.55 50.43-0.48 47.87-1.02C47.62-1.28 47.36-2.34 47.23-2.85C47.23-4.13 47.49-7.71 47.74-8.74C48.16-10.05 48.29-11.20 48.58-12.54C48.80-13.28 48.96-13.57 48-13.98C46.94-14.50 47.36-14.08 46.14-14.50C46.14-15.30 47.07-16.45 46.82-17.50C46.69-17.92 45.09-19.58 44.54-18.72C45.34-17.76 44.67-18.11 43.23-14.14C43.10-13.79 43.84-13.92 44-13.98C44.42-14.78 44.54-14.21 44.80-14.08C45.09-13.98 45.09-14.08 45.50-13.98C45.73-13.66 46.14-13.57 46.69-13.57C46.56-12.77 45.63-11.90 45.50-10.82C45.22-9.79 44.67-8.64 44.54-7.71C44.13-5.12 43.87-2.69 45.86-1.02C46.69-0.38 48.29 0.16 48.96-0.48C51.94-3.36 54.50-11.52 56.45-15.30C56.03-15.42 55.78-15.55 55.65-15.55ZM67.33-14.59C67.14-14.27 64.48-6.82 63.94-5.60C63.94-5.54 62.08-0.86 61.92-0.86C61.66-1.09 61.66-2.02 61.66-2.53C61.76-2.91 61.86-3.01 61.86-3.49L61.86-4.90C61.86-5.18 61.86-5.18 61.86-5.25C61.92-5.60 61.86-6.43 61.92-6.85C62.08-7.65 61.92-7.46 62.18-8C62.37-8.51 62.37-9.31 62.43-9.79L62.43-10.82C62.59-11.01 62.43-11.49 62.37-11.84C62.18-12.58 62.18-12.93 61.41-13.15C61.31-13.15 60.74-13.28 60.74-13.28C60.48-13.15 60.48-13.06 60.58-12.83C60.13-12.58 60.03-12.32 60-11.90C59.71-11.58 59.55-11.23 59.46-10.88C59.39-10.05 59.14-9.25 58.85-8.51C58.62-7.78 58.37-7.10 58.05-6.30C57.76-5.73 57.34-4.83 56.96-4.42C56.45-4.70 56.80-4.83 56.70-5.18C56.70-5.54 56.70-5.06 56.51-5.54L56.19-8.26C56.19-9.31 56.35-11.17 56.51-12.06L57.28-14.72C57.34-14.94 57.28-15.33 57.34-15.55C57.54-15.71 57.60-16.03 57.76-16.29C57.86-16.51 57.60-16.42 57.86-16.64C57.95-16.77 57.95-16.83 58.05-16.99C58.37-17.34 58.53-17.82 59.39-17.66C59.46-17.12 59.46-17.47 59.62-16.83C60.03-15.90 60-14.53 59.62-13.86L60-13.63C60.13-13.86 60.74-14.72 60.80-15.07C60.99-15.71 61.09-16.64 60.74-17.34C60.22-18.18 58.37-19.14 57.60-18.69C57.44-18.43 57.28-18.53 56.96-18.34C56.03-17.47 55.26-15.90 54.75-14.88C54.66-14.53 54.66-14.21 54.43-13.86C54.34-13.63 54.24-13.41 54.24-13.06C54.08-11.71 53.57-10.66 53.66-8.96C53.76-7.55 53.66-6.08 54.66-4.83C55.42-3.84 56.96-3.23 57.76-4.19C58.05-4.54 58.43-5.25 58.53-5.73C58.72-5.95 58.85-6.08 58.94-6.43C59.04-6.72 59.14-7.10 59.39-7.30C59.39-6.85 59.23-6.08 59.23-5.73L59.23-4.19C59.14-3.36 59.55-1.92 60-1.34C60.32-0.61 61.41 0.22 62.37-0.26C62.85-0.48 63.26-1.70 63.46-2.18C63.94-3.36 64.42-4.90 65.02-6.30C65.02-6.30 68.06-14.18 68.06-14.18C67.87-14.40 67.49-14.59 67.33-14.59ZM78.82-14.75C78.21-14.56 75.39-0.90 74.46-2.75C74.37-4.22 73.95-10.27 74.05-11.62C74.05-12.58 74.24-14.72 74.14-15.68C73.95-16.61 73.44-18.14 73.15-18.53C72.51-19.17 71.62-18.53 71.26-17.76C70.18-15.87 70.08-12.67 69.57-11.68C69.57-13.92 69.57-14.72 68.86-16.38C68.32-18.14 68.16-18.14 66.78-18.40C66.98-17.60 66.88-9.79 66.88-8.26C66.88-4.61 66.66 0.54 69.02-0.26C69.15-0.54 69.66-4.96 69.86-5.57C69.98-6.59 69.98-7.94 70.37-10.11C70.56-11.46 71.71-17.86 72.32-17.50C72.51-16.74 71.90-12.58 71.81-11.46C71.52-7.87 71.17-3.10 72.90-0.22C76.10 2.11 78.40-12.70 79.49-14.56C79.30-14.56 79.20-14.75 78.82-14.75ZM90.85-14.59C90.66-14.27 88-6.82 87.46-5.60C87.46-5.54 85.60-0.86 85.44-0.86C85.18-1.09 85.18-2.02 85.18-2.53C85.28-2.91 85.38-3.01 85.38-3.49L85.38-4.90C85.38-5.18 85.38-5.18 85.38-5.25C85.44-5.60 85.38-6.43 85.44-6.85C85.60-7.65 85.44-7.46 85.70-8C85.89-8.51 85.89-9.31 85.95-9.79L85.95-10.82C86.11-11.01 85.95-11.49 85.89-11.84C85.70-12.58 85.70-12.93 84.93-13.15C84.83-13.15 84.26-13.28 84.26-13.28C84-13.15 84-13.06 84.10-12.83C83.65-12.58 83.55-12.32 83.52-11.90C83.23-11.58 83.07-11.23 82.98-10.88C82.91-10.05 82.66-9.25 82.37-8.51C82.14-7.78 81.89-7.10 81.57-6.30C81.28-5.73 80.86-4.83 80.48-4.42C79.97-4.70 80.32-4.83 80.22-5.18C80.22-5.54 80.22-5.06 80.03-5.54L79.71-8.26C79.71-9.31 79.87-11.17 80.03-12.06L80.80-14.72C80.86-14.94 80.80-15.33 80.86-15.55C81.06-15.71 81.12-16.03 81.28-16.29C81.38-16.51 81.12-16.42 81.38-16.64C81.47-16.77 81.47-16.83 81.57-16.99C81.89-17.34 82.05-17.82 82.91-17.66C82.98-17.12 82.98-17.47 83.14-16.83C83.55-15.90 83.52-14.53 83.14-13.86L83.52-13.63C83.65-13.86 84.26-14.72 84.32-15.07C84.51-15.71 84.61-16.64 84.26-17.34C83.74-18.18 81.89-19.14 81.12-18.69C80.96-18.43 80.80-18.53 80.48-18.34C79.55-17.47 78.78-15.90 78.27-14.88C78.18-14.53 78.18-14.21 77.95-13.86C77.86-13.63 77.76-13.41 77.76-13.06C77.60-11.71 77.09-10.66 77.18-8.96C77.28-7.55 77.18-6.08 78.18-4.83C78.94-3.84 80.48-3.23 81.28-4.19C81.57-4.54 81.95-5.25 82.05-5.73C82.24-5.95 82.37-6.08 82.46-6.43C82.56-6.72 82.66-7.10 82.91-7.30C82.91-6.85 82.75-6.08 82.75-5.73L82.75-4.19C82.66-3.36 83.07-1.92 83.52-1.34C83.84-0.61 84.93 0.22 85.89-0.26C86.37-0.48 86.78-1.70 86.98-2.18C87.46-3.36 87.94-4.90 88.54-6.30C88.54-6.30 91.58-14.18 91.58-14.18C91.39-14.40 91.01-14.59 90.85-14.59Z"/></svg>