<svg id="mainsvg" xmlns="http://www.w3.org/2000/svg" xmlns:xlink="http://www.w3.org/1999/xlink" version="1.1" x="0px" y="0px" enable-background="new 0 0 200 162.5" xml:space="preserve" viewBox="0 0 137 22"><path fill="#000" transform="translate(-0.608, 19.584)" d="M2.53 1.92C2.91 1.92 3.33 1.79 3.62 1.47C5.02 1.98 5.82 1.98 7.36 1.98C10.56 1.98 12.74-0.45 12.74-3.55C12.74-5.98 11.81-7.65 10.11-8.90C9.89-9.18 9.66-9.47 9.38-9.76C10.08-10.53 10.66-11.49 10.66-12.67C10.66-14.62 9.73-16.03 8.38-16.86C7.36-18.59 5.28-19.42 3.14-19.42C2.21-19.42-0.13-18.91-0.29-17.82C-0.32-17.57-0.32-17.28-0.32-16.99C-0.32-16.74-0.29-16.45-0.29-16.22C-0.32-15.04-0.35-13.82-0.35-12.64C-0.45-9.06-0.61-5.47-0.61-1.89C-0.61-0.77-0.32 0.32 1.02 0.32C1.12 1.15 1.57 1.92 2.53 1.92ZM3.14-19.04C6.43-19.04 8.67-17.12 8.67-14.27C8.67-13.18 8.19-12.29 6.91-10.98C9.57-9.66 10.75-7.90 10.75-5.15C10.75-2.30 8.77 0 5.76 0C4.10 0 3.46 0 1.86-0.61C1.70-0.26 1.34-0.06 0.93-0.06C0.16-0.06-0.22-0.67-0.22-1.89C-0.22-7.20 0.10-12.45 0.10-17.76C0.22-18.59 2.46-19.04 3.14-19.04ZM6.08-1.66C7.87-1.66 8.64-3.90 8.64-5.31C8.64-7.97 7.07-9.60 4.58-9.60C3.68-9.60 2.82-9.41 1.92-9.41C1.89-7.20 1.82-4.77 1.82-2.56C3.71-1.70 3.78-1.66 5.66-1.66ZM3.58-17.38C3.52-17.38 3.42-17.41 3.26-17.41C2.85-17.41 2.18-17.34 2.21-16.96C2.24-16.45 2.24-15.90 2.24-15.30C2.24-13.86 2.21-12.45 2.18-11.04C3.65-11.07 5.22-11.46 5.41-11.78C6.59-12.26 7.71-17.38 3.58-17.38ZM3.90-7.42C4.67-7.49 5.41-7.62 6.18-7.62C6.82-7.62 7.39-7.49 7.87-7.30C8.13-6.72 8.26-6.05 8.26-5.31C8.26-3.84 7.46-2.05 6.08-2.05C5.89-2.05 5.73-2.05 5.57-2.05C4.99-2.05 4.42-2.05 3.81-2.18C3.84-3.94 3.87-5.70 3.90-7.42ZM6.11-14.50C6.11-13.63 5.86-12.45 5.09-11.97C5.02-11.90 4.80-11.84 4.74-11.81C4.58-11.78 4.38-11.71 4.19-11.68C4.22-12.35 4.22-13.02 4.22-13.70C4.22-14.24 4.16-14.78 4.19-15.33C4.32-15.42 4.70-15.42 4.86-15.42C5.31-15.42 5.70-15.39 6.02-15.30C6.08-15.04 6.11-14.78 6.11-14.50ZM26.50-8.99C26.50-10.85 26.50-12.83 25.92-14.59C25.54-15.74 24.86-16.70 23.81-17.28C23.10-18.56 21.89-19.42 19.90-19.42C16.06-19.42 15.52-16.80 15.23-13.57C15.07-11.84 15.10-10.02 15.10-8.99C15.10-8.29 15.07-7.36 15.10-6.37C15.23-4.19 15.58-1.06 17.76 0.03C18.40 1.15 19.42 1.98 21.06 1.98C26.30 1.98 26.50-5.25 26.50-8.99ZM19.46 0C16.86 0 15.49-2.43 15.49-7.01C15.49-9.22 15.30-16.26 16.70-17.76C17.25-18.66 18.82-19.04 19.90-19.04C23.74-19.04 24.51-15.26 24.51-12.26C24.51-8.67 24.93 0 19.46 0ZM17.63-9.44C17.63-8 17.18-1.73 19.33-1.73C19.84-1.73 20.61-2.14 21.09-2.75C22.18-4 22.34-10.98 22.34-12.99C22.34-15.78 21.60-17.15 19.65-17.22C17.38-16.83 17.63-14.11 17.63-9.44ZM19.62-10.21C19.62-10.94 19.55-12.06 19.71-13.09C19.87-14.02 20.13-14.88 21.09-15.20C21.15-15.20 21.22-15.23 21.25-15.23C21.41-15.23 21.57-15.23 21.70-15.20C21.89-14.56 21.95-13.79 21.95-12.99C21.95-11.17 21.79-4.16 20.80-3.01C20.54-2.69 20.19-2.40 19.84-2.24C19.58-3.33 19.58-4.48 19.58-5.60C19.58-6.34 19.62-7.10 19.62-7.84ZM28.99-13.86C28.99-12.19 29.70-11.20 31.01-10.37C31.42-9.63 32.06-9.12 32.77-8.67C33.15-8.45 33.54-8.26 33.92-8.03C34.24-7.87 34.53-7.71 34.78-7.55C35.10-7.01 35.26-6.30 35.26-5.38C35.26-3.97 34.62-2.05 33.31-2.05C33.31-3.14 32.93-3.97 31.71-3.97C31.65-4.64 31.33-5.57 30.27-5.57C29.44-5.57 28.74-4.99 28.74-4.10C28.74-2.59 29.70-1.02 31.04-0.22C31.84 1.02 33.18 1.98 34.62 1.98C38.08 1.98 39.78-0.77 39.78-3.84C39.78-6.11 38.56-7.97 36.86-9.25C36.03-10.40 34.82-11.30 33.54-11.90C33.54-12.10 33.50-12.29 33.50-12.48C33.50-13.31 33.95-14.40 34.56-14.88C34.88-14.50 35.26-14.40 35.74-14.40C35.78-13.63 36.22-12.80 37.22-12.80C37.86-12.80 38.75-13.22 38.75-14.14C38.75-15.26 37.86-16.38 36.80-16.99C36.19-18.18 34.78-19.07 33.60-19.07C30.66-19.07 28.99-16.48 28.99-13.86ZM31.52-14.08C31.52-13.25 31.84-12.32 32.22-12.16C32.42-12 32.67-11.84 33.02-11.71C35.84-10.62 37.79-8.06 37.79-5.44C37.79-2.14 35.90 0 33.02 0C31.07 0 29.12-2.05 29.12-4.10C29.12-4.74 29.60-5.18 30.27-5.18C30.94-5.18 31.33-4.64 31.33-3.65C31.33-2.75 32.10-1.66 33.31-1.66C34.62-1.66 35.65-3.30 35.65-5.38C35.65-11.01 29.38-9.18 29.38-13.86C29.38-16.35 30.94-18.69 33.60-18.69C35.07-18.69 36.77-17.12 36.77-15.74C36.77-15.20 36.26-14.78 35.62-14.78C35.01-14.78 34.62-15.20 34.53-15.94C34.59-16.22 34.34-17.06 33.54-17.06C32.26-17.06 31.52-15.14 31.52-14.08ZM44.77-18.66C43.87-18.66 42.37-18.43 42.37-17.25C42.37-16.29 43.20-15.97 44.00-15.94C43.97-15.84 43.97-15.74 43.97-15.65C43.97-14.56 44.99-14.34 45.86-14.34C45.82-10.43 45.57-6.56 45.57-2.66C45.57-1.70 45.60 0.38 46.98 0.38C47.07 0.38 47.17 0.38 47.26 0.35C47.36 1.09 47.71 1.98 48.58 1.98C49.47 1.98 49.95 1.18 49.95 0.48C49.95-0.70 49.76-1.89 49.76-3.07C49.76-6.82 50.11-10.56 50.14-14.30C50.27-14.30 50.43-14.30 50.56-14.30C51.58-14.30 53.76-14.34 53.76-15.71C53.76-16.67 52.96-17.06 52.13-17.06C52.16-17.12 52.16-17.22 52.16-17.31C52.16-18.11 51.49-18.66 50.75-18.66C50.30-18.66 49.82-18.53 49.38-18.53C47.84-18.53 46.30-18.66 44.77-18.66ZM46.14-16.35C45.54-16.35 44.93-16.32 44.35-16.32C44.06-16.32 43.81-16.32 43.55-16.35C43.04-16.51 42.75-16.83 42.75-17.25C42.75-17.89 43.52-18.27 44.77-18.27C46.30-18.27 47.87-18.14 49.38-18.14C49.82-18.14 50.30-18.27 50.75-18.27C51.33-18.27 51.78-17.86 51.78-17.31C51.78-16.38 50.11-16.29 49.09-16.29L48.16-16.29C48.16-12.61 47.78-8.42 47.78-4.67C47.78-3.49 47.97-2.30 47.97-1.12C47.97-0.48 47.52 0 46.98 0C45.82 0 45.95-2.46 45.95-3.20C45.95-7.10 46.24-10.98 46.24-14.88C46.24-15.10 46.27-16.16 46.14-16.35ZM67.78-8.99C67.78-10.85 67.78-12.83 67.20-14.59C66.82-15.74 66.14-16.70 65.09-17.28C64.38-18.56 63.17-19.42 61.18-19.42C57.34-19.42 56.80-16.80 56.51-13.57C56.35-11.84 56.38-10.02 56.38-8.99C56.38-8.29 56.35-7.36 56.38-6.37C56.51-4.19 56.86-1.06 59.04 0.03C59.68 1.15 60.70 1.98 62.34 1.98C67.58 1.98 67.78-5.25 67.78-8.99ZM60.74 0C58.14 0 56.77-2.43 56.77-7.01C56.77-9.22 56.58-16.26 57.98-17.76C58.53-18.66 60.10-19.04 61.18-19.04C65.02-19.04 65.79-15.26 65.79-12.26C65.79-8.67 66.21 0 60.74 0ZM58.91-9.44C58.91-8 58.46-1.73 60.61-1.73C61.12-1.73 61.89-2.14 62.37-2.75C63.46-4 63.62-10.98 63.62-12.99C63.62-15.78 62.88-17.15 60.93-17.22C58.66-16.83 58.91-14.11 58.91-9.44ZM60.90-10.21C60.90-10.94 60.83-12.06 60.99-13.09C61.15-14.02 61.41-14.88 62.37-15.20C62.43-15.20 62.50-15.23 62.53-15.23C62.69-15.23 62.85-15.23 62.98-15.20C63.17-14.56 63.23-13.79 63.23-12.99C63.23-11.17 63.07-4.16 62.08-3.01C61.82-2.69 61.47-2.40 61.12-2.24C60.86-3.33 60.86-4.48 60.86-5.60C60.86-6.34 60.90-7.10 60.90-7.84ZM73.09 1.98C74.46 1.98 74.62 0.67 74.62-0.38C74.66-2.62 74.75-4.86 74.85-7.10C75.01-6.72 75.14-6.34 75.26-5.95C75.71-4.38 76.80-0.61 78.50-0.10C78.98 0.77 79.58 1.47 80.35 1.57L80.45 1.57L80.67 1.47C81.63 0.99 81.82-0.13 81.89-1.09C81.89-5.41 81.92-9.76 82.02-14.08C82.05-14.85 82.27-15.62 82.27-16.42C82.27-17.54 81.54-17.95 80.67-17.98L80.67-18.02C80.67-19.20 79.84-19.58 78.91-19.58L78.53-19.58L78.53-19.36C78.50-19.33 78.46-19.30 78.43-19.26C77.41-18.21 77.31-12.38 77.28-10.75C76.70-12.10 76.29-13.44 75.90-14.85C75.62-15.90 75.04-16.96 73.98-17.34C73.63-18.18 72.70-19.07 71.78-19.07C71.46-19.07 70.43-18.69 70.43-18.02C70.43-17.06 70.53-16.13 70.53-15.17C70.53-10.78 70.40-6.34 70.11-1.95C70.08-1.63 70.05-1.34 70.05-1.02C70.05 0.06 70.66 0.38 71.65 0.38C71.65 1.41 72 1.98 73.09 1.98ZM78.91-19.20C79.71-19.20 80.29-18.91 80.29-18.02C80.29-17.25 80.03-16.48 80.03-15.68L79.94-12.06C79.90-9.25 79.90-6.50 79.90-3.68C79.90-2.82 79.94-0.83 78.91-0.48L78.78-0.42C77.22-0.58 76-4.77 75.62-6.08C74.91-8.19 73.86-10.24 72.99-12.29C72.90-8.86 72.70-5.41 72.64-1.98C72.64-1.15 72.58 0 71.49 0C70.14 0 70.43-1.06 70.50-1.92C70.75-7.30 70.91-11.55 70.91-15.17C70.91-16.13 70.82-17.06 70.82-18.02C71.01-18.43 71.39-18.69 71.78-18.69C72.38-18.69 73.15-18.11 73.54-17.38C73.86-16.74 74.02-15.94 74.21-15.26C75.04-12.64 76.26-10.18 77.28-7.65L77.70-6.66C77.47-10.43 77.86-19.10 78.91-19.10ZM93.89-6.98C93.89-9.18 94.02-12.90 95.65-14.62C95.97-14.98 96.29-15.17 96.51-15.17C96.80-15.17 97.31-15.07 97.54-14.91L97.66-14.72C97.92-14.24 98.43-13.76 99.14-13.76C99.81-13.76 100.58-14.27 100.58-15.10C100.58-16 99.81-16.64 98.94-17.06C98.59-18.53 96.06-19.23 95.14-19.23C90.14-19.23 89.38-11.90 89.38-8.77C89.38-6.14 89.86-1.86 92.54-0.26C93.38 1.06 94.62 1.98 96.54 1.98L97.34 1.98C99.58 1.98 100.96 0.48 100.96-1.70C100.96-2.75 100.48-3.49 99.36-3.49C99.30-4.22 98.91-5.09 97.86-5.09C96.74-5.09 96.54-4.19 96.48-3.55C96.45-3.23 96.45-2.91 96.42-2.62C96.38-2.30 96.29-2.18 96.26-2.14C96.10-2.08 95.84-2.08 95.68-2.08C95.26-2.08 94.88-2.14 94.56-2.27C93.92-3.65 93.89-5.47 93.89-6.98ZM96.38-16.51C96.38-16.86 95.49-17.15 94.91-17.15C94.30-17.15 93.47-16.38 92.96-15.33C92.29-13.92 91.90-11.52 91.90-8.58C91.90-5.82 92.06-1.70 95.68-1.70C95.81-1.70 95.97-1.70 96.13-1.73C97.47-1.73 96.10-4.70 97.86-4.70C98.56-4.70 98.98-4.19 98.98-3.30C98.98-1.28 97.73 0 95.74 0L94.94 0C90.50 0 89.76-5.47 89.76-8.77C89.76-14.91 91.84-18.85 95.14-18.85C96.74-18.85 98.59-17.70 98.59-16.70C98.59-16.19 98.11-15.74 97.54-15.74C97.09-15.74 96.67-16.03 96.38-16.51ZM103.36-3.58C103.36-2.98 103.30-2.40 103.30-1.79C103.30-0.77 103.65 0.38 104.90 0.38L104.93 0.38C105.06 1.25 105.54 1.98 106.50 1.98C106.98 1.98 107.90 1.50 107.90 0.93L107.90-11.71C107.90-12.83 107.78-13.92 107.78-15.04C107.78-16.26 107.55-17.22 106.14-17.22C106.08-17.98 105.73-18.82 104.80-18.82C103.62-18.82 103.23-17.98 103.23-17.06C103.23-15.94 103.36-14.78 103.36-13.66ZM105.92-0.67C105.66-0.22 105.34 0 104.90 0C104.10 0 103.68-0.64 103.68-1.79C103.68-2.40 103.74-2.98 103.74-3.58L103.74-13.66C103.74-14.82 103.62-15.94 103.62-17.06C103.62-17.98 104-18.43 104.80-18.43C105.47-18.43 105.79-17.82 105.79-16.64C105.79-15.55 105.92-14.43 105.92-13.31ZM112.90-18.66C112.00-18.66 110.50-18.43 110.50-17.25C110.50-16.29 111.33-15.97 112.13-15.94C112.10-15.84 112.10-15.74 112.10-15.65C112.10-14.56 113.12-14.34 113.98-14.34C113.95-10.43 113.70-6.56 113.70-2.66C113.70-1.70 113.73 0.38 115.10 0.38C115.20 0.38 115.30 0.38 115.39 0.35C115.49 1.09 115.84 1.98 116.70 1.98C117.60 1.98 118.08 1.18 118.08 0.48C118.08-0.70 117.89-1.89 117.89-3.07C117.89-6.82 118.24-10.56 118.27-14.30C118.40-14.30 118.56-14.30 118.69-14.30C119.71-14.30 121.89-14.34 121.89-15.71C121.89-16.67 121.09-17.06 120.26-17.06C120.29-17.12 120.29-17.22 120.29-17.31C120.29-18.11 119.62-18.66 118.88-18.66C118.43-18.66 117.95-18.53 117.50-18.53C115.97-18.53 114.43-18.66 112.90-18.66ZM114.27-16.35C113.66-16.35 113.06-16.32 112.48-16.32C112.19-16.32 111.94-16.32 111.68-16.35C111.17-16.51 110.88-16.83 110.88-17.25C110.88-17.89 111.65-18.27 112.90-18.27C114.43-18.27 116.00-18.14 117.50-18.14C117.95-18.14 118.43-18.27 118.88-18.27C119.46-18.27 119.90-17.86 119.90-17.31C119.90-16.38 118.24-16.29 117.22-16.29L116.29-16.29C116.29-12.61 115.90-8.42 115.90-4.67C115.90-3.49 116.10-2.30 116.10-1.12C116.10-0.48 115.65 0 115.10 0C113.95 0 114.08-2.46 114.08-3.20C114.08-7.10 114.37-10.98 114.37-14.88C114.37-15.10 114.40-16.16 114.27-16.35ZM127.90-16.54C127.42-17.38 126.72-18.24 125.70-18.24C125.18-18.24 124.51-17.82 124.51-17.15C124.51-16.06 127.58-11.52 128.54-10.43C128.48-9.76 128.29-9.12 128.10-8.45C127.68-7.20 125.92-1.76 125.92-0.83C125.92-0.06 126.75 0.38 127.30 0.38C127.39 0.38 127.49 0.38 127.58 0.35C127.55 0.54 127.52 0.67 127.52 0.77C127.52 1.54 128.35 1.98 128.90 1.98C130.30 1.98 130.78 0.06 131.04-0.99C132-5.50 133.34-9.54 135.04-13.82L135.74-15.62L135.74-15.68C135.74-16.51 134.85-16.86 134.34-16.86C134.24-16.86 134.11-16.83 133.98-16.80L134.14-17.22L134.14-17.28C134.14-18.11 133.25-18.46 132.74-18.46C132.42-18.46 131.49-18.14 131.30-17.70L129.86-14.27C129.70-14.56 129.54-14.88 129.34-15.17C129.09-15.65 128.58-16.29 127.90-16.54ZM125.70-17.86C126.27-17.86 127.01-17.38 127.42-16.58C128.13-15.23 128.86-14.02 129.70-12.86L131.65-17.54C132-17.89 132.38-18.08 132.74-18.08C133.28-18.08 133.76-17.70 133.76-17.28C131.97-12.86 130.34-8.58 129.31-3.94C129.12-3.10 129.02-2.24 128.70-1.44C128.38-0.51 127.87 0 127.30 0C126.82 0 126.34-0.38 126.30-0.83C126.27-1.22 128.03-7.04 128.45-8.32C128.67-9.06 128.90-9.79 128.93-10.56C128.06-11.42 124.90-16.22 124.90-17.15C124.99-17.63 125.31-17.86 125.70-17.86Z"/></svg>