<svg id="mainsvg" xmlns="http://www.w3.org/2000/svg" xmlns:xlink="http://www.w3.org/1999/xlink" version="1.1" x="0px" y="0px" enable-background="new 0 0 200 162.5" xml:space="preserve" viewBox="0 0 106 27"><path fill="#000" transform="translate(-0.32, 25.28)" d="M5.44-22.43L5.44-22.43Q8.96-24.58 9.47-24.58Q9.98-24.58 11.09-23.26Q12.19-21.95 12.19-20.90L12.19-20.90L12.19-10.94Q12.19-10.72 9.65-9.70Q7.10-8.67 5.44-8.16L5.44-8.16L5.44-4.93Q5.44-3.74 5.70-3.23Q5.95-2.72 6.75-2.72L6.75-2.72L6.75-1.73L0.19 1.02L-0.32 0Q0.38 0 1.02-0.83L1.02-0.83Q1.60-1.63 1.60-3.26L1.60-3.26L1.60-19.84Q1.60-21.79 0.29-22.05L0.29-22.05L0.29-22.75L3.52-24.58Q4.16-24.32 4.80-23.65Q5.44-22.98 5.44-22.43ZM6.69-21.50L6.69-21.50Q6.11-21.50 5.44-21.02L5.44-21.02L5.44-9.66Q6.27-9.66 7.30-10.19Q8.32-10.72 8.32-11.30L8.32-11.30L8.32-19.14Q8.32-21.50 6.69-21.50ZM18.91-16.06L18.91-16.06L18.91-4.74Q18.91-2.78 20.22-2.53L20.22-2.53L20.22-1.82L16.99 0Q16.29-0.29 15.68-0.94Q15.07-1.60 15.07-2.18L15.07-2.18L15.07-13.50Q15.07-15.46 13.76-15.71L13.76-15.71L13.76-16.42L16.99-18.24Q17.70-17.95 18.30-17.30Q18.91-16.64 18.91-16.06ZM14.59-22.24L14.59-22.24L14.59-24.19Q14.59-24.29 15.92-24.78Q17.25-25.28 17.46-25.28Q17.66-25.28 18.06-24.74Q18.46-24.19 18.46-23.62L18.46-23.62L18.46-21.28Q18.46-21.18 17.18-20.69Q15.90-20.19 15.62-20.19Q15.33-20.19 14.96-20.75Q14.59-21.31 14.59-22.24ZM20.54-15.62L20.54-16.32L24.06-18.24Q24.29-18.18 24.59-18.06Q24.90-17.95 25.42-17.44Q25.95-16.93 25.95-16.29L25.95-16.29Q26.11-16.35 27.47-17.30Q28.83-18.24 29.22-18.24L29.22-18.24Q30.24-18.24 31.14-16.90Q32.03-15.55 32.03-14.43L32.03-14.43L32.03-12.86L28.74-11.01L28.19-11.46Q28.19-14.14 27.68-14.53L27.68-14.53Q27.10-14.94 25.95-14.94L25.95-14.94L25.95-4.74Q25.95-2.78 27.26-2.53L27.26-2.53L27.26-1.82L24.03 0Q23.33-0.29 22.72-0.94Q22.11-1.60 22.11-2.18L22.11-2.18L22.11-12.80Q22.11-14.21 21.62-14.91Q21.12-15.62 20.54-15.62L20.54-15.62ZM44.19-14.02L44.19-14.02L44.19-4.96Q44.19-3.78 44.58-3.31Q44.96-2.85 45.76-2.66L45.76-2.66L45.76-1.95L42.27 0Q41.57-0.29 40.96-0.94Q40.35-1.60 40.35-2.14L40.35-2.14L36.35 0Q36.26-0.06 36.06-0.18Q35.87-0.29 35.41-0.66Q34.94-1.02 34.59-1.44L34.59-1.44Q33.63-2.50 33.63-3.84L33.63-3.84L33.63-9.09Q33.63-9.60 35.30-10.40Q36.96-11.20 38.62-11.71L38.62-11.71L40.32-12.26Q40.32-14.08 39.36-14.80Q38.40-15.52 35.65-15.52L35.65-15.52L35.65-16.48Q40.61-18.24 41.22-18.24L41.22-18.24Q42.27-18.24 43.23-16.86Q44.19-15.49 44.19-14.02ZM37.47-4.99Q37.47-4.16 37.97-3.63Q38.46-3.10 39.07-3.10Q39.68-3.10 40.35-3.58L40.35-3.58L40.35-10.82Q39.55-10.53 39.15-10.34Q38.75-10.14 38.30-9.73L38.30-9.73Q37.47-8.96 37.47-7.07L37.47-7.07L37.47-4.99ZM50.34-21.57L51.23-21.57L51.23-17.76L52.86-17.76L52.54-16.19L51.23-16.19L51.23-4.74Q51.23-2.78 52.54-2.53L52.54-2.53L52.54-1.82L49.31 0Q48.61-0.29 48-0.94Q47.39-1.60 47.39-2.18L47.39-2.18L47.39-16.16L46.08-16.16L46.40-17.50Q47.36-17.50 48.72-18.80Q50.08-20.10 50.34-21.57L50.34-21.57ZM64.35-14.02L64.35-14.02L64.35-4.96Q64.35-3.78 64.74-3.31Q65.12-2.85 65.92-2.66L65.92-2.66L65.92-1.95L62.43 0Q61.73-0.29 61.12-0.94Q60.51-1.60 60.51-2.14L60.51-2.14L56.51 0Q56.42-0.06 56.22-0.18Q56.03-0.29 55.57-0.66Q55.10-1.02 54.75-1.44L54.75-1.44Q53.79-2.50 53.79-3.84L53.79-3.84L53.79-9.09Q53.79-9.60 55.46-10.40Q57.12-11.20 58.78-11.71L58.78-11.71L60.48-12.26Q60.48-14.08 59.52-14.80Q58.56-15.52 55.81-15.52L55.81-15.52L55.81-16.48Q60.77-18.24 61.38-18.24L61.38-18.24Q62.43-18.24 63.39-16.86Q64.35-15.49 64.35-14.02ZM57.63-4.99Q57.63-4.16 58.13-3.63Q58.62-3.10 59.23-3.10Q59.84-3.10 60.51-3.58L60.51-3.58L60.51-10.82Q59.71-10.53 59.31-10.34Q58.91-10.14 58.46-9.73L58.46-9.73Q57.63-8.96 57.63-7.07L57.63-7.07L57.63-4.99ZM67.55-4.67L67.55-4.67L67.55-21.70Q67.55-21.92 71.20-23.28Q74.85-24.64 75.39-24.64Q75.94-24.64 77.04-23.33Q78.14-22.02 78.14-20.96L78.14-20.96L78.14-2.98Q78.14-2.72 74.64-1.36Q71.14 0 70.35 0Q69.57 0 68.56-1.38Q67.55-2.75 67.55-4.67ZM73.02-2.94L73.02-2.94Q73.63-2.94 74.27-3.46L74.27-3.46L74.27-19.30Q74.27-21.66 72.64-21.66L72.64-21.66Q72-21.66 71.39-21.18L71.39-21.18L71.39-5.31Q71.39-2.94 73.02-2.94ZM81.34-2.18L81.34-2.18L81.34-13.02Q81.34-14.08 80.90-14.85Q80.45-15.62 79.78-15.62L79.78-15.62L79.78-16.32Q80-16.35 83.26-18.27L83.26-18.27Q83.49-18.21 83.81-18.10Q84.13-17.98 84.66-17.47Q85.18-16.96 85.18-16.29L85.18-16.29Q85.38-16.38 86.27-16.90L86.27-16.90Q88.64-18.24 89.09-18.24L89.09-18.24Q90.11-18.24 91.01-16.90Q91.90-15.55 91.90-14.43L91.90-14.43L91.90-4.74Q91.90-2.98 93.47-2.66L93.47-2.66L93.47-1.95L89.98 0Q89.28-0.29 88.67-0.94Q88.06-1.60 88.06-2.18L88.06-2.18L88.06-11.46Q88.06-13.25 87.66-14.19Q87.26-15.14 86.24-15.14L86.24-15.14L85.18-14.94L85.18-4.74Q85.18-2.78 86.50-2.53L86.50-2.53L86.50-1.82L83.26 0Q82.56-0.29 81.95-0.94Q81.34-1.60 81.34-2.18ZM102.94-18.24L102.94-18.24Q103.10-18.24 103.74-17.74Q104.38-17.25 105.02-16.37Q105.66-15.49 105.66-14.66L105.66-14.66L105.66-9.28Q105.66-8.70 103.97-7.87Q102.27-7.04 100.69-6.51Q99.10-5.98 98.98-5.98L98.98-5.98Q98.98-3.52 101.12-2.94L101.12-2.94Q102.18-2.69 103.65-2.69L103.65-2.69L103.65-1.76Q98.40 0 98.05 0L98.05 0Q97.09 0 96.10-1.36Q95.10-2.72 95.10-4.54L95.10-4.54L95.10-15.30Q95.10-15.52 98.75-16.88Q102.40-18.24 102.94-18.24ZM101.82-13.15Q101.82-14.05 101.41-14.67Q100.99-15.30 100.35-15.30Q99.71-15.30 98.94-14.82L98.94-14.82L98.94-7.42Q101.82-8.22 101.82-10.88L101.82-10.88L101.82-13.15Z"/></svg>