<svg id="mainsvg" xmlns="http://www.w3.org/2000/svg" xmlns:xlink="http://www.w3.org/1999/xlink" version="1.1" x="0px" y="0px" enable-background="new 0 0 200 162.5" xml:space="preserve" viewBox="0 0 138 31"><path fill="#000" transform="translate(-0.48, 23.328)" d="M16.16-5.02L16.67-4.80Q15.78-2.40 13.79-1.04Q11.81 0.32 9.12 0.32L9.12 0.32Q5.34 0.32 2.91-1.78Q0.48-3.87 0.48-7.58L0.48-7.58Q0.48-11.04 2.99-13.26Q5.50-15.49 9.02-15.49L9.02-15.49Q12.70-15.49 14.66-13.41Q16.61-11.33 16.61-8.32L16.61-8.32L6.78-8.32Q6.78-7.17 6.96-5.97Q7.14-4.77 7.63-3.65Q8.13-2.53 9.04-1.84Q9.95-1.15 11.33-1.15L11.33-1.15Q13.28-1.15 14.42-2.26Q15.55-3.36 16.16-5.02L16.16-5.02ZM6.78-8.96L11.04-8.96Q11.01-9.31 10.99-9.79Q10.98-10.27 10.98-11.01L10.98-11.01Q10.98-12.96 10.50-13.97Q10.02-14.98 8.83-14.98L8.83-14.98Q7.81-14.98 7.41-14Q7.01-13.02 6.85-11.01L6.85-11.01L6.78-8.96ZM27.58-0.51L27.58 0L17.22 0L17.22-0.51L17.98-0.54Q18.91-0.64 19.10-0.99Q19.30-1.34 19.30-2.53L19.30-2.53L19.33-4L19.33-19.81L19.30-21.12Q19.23-21.89 19.10-22.27Q18.98-22.66 17.95-22.75L17.95-22.75L16.86-22.82L16.86-23.33L25.47-23.33L25.47-4L25.50-2.53Q25.50-1.38 25.70-1.01Q25.89-0.64 26.82-0.54L26.82-0.54L27.58-0.51ZM43.90-5.02L44.42-4.80Q43.52-2.40 41.54-1.04Q39.55 0.32 36.86 0.32L36.86 0.32Q33.09 0.32 30.66-1.78Q28.22-3.87 28.22-7.58L28.22-7.58Q28.22-11.04 30.74-13.26Q33.25-15.49 36.77-15.49L36.77-15.49Q40.45-15.49 42.40-13.41Q44.35-11.33 44.35-8.32L44.35-8.32L34.53-8.32Q34.53-7.17 34.70-5.97Q34.88-4.77 35.38-3.65Q35.87-2.53 36.78-1.84Q37.70-1.15 39.07-1.15L39.07-1.15Q41.02-1.15 42.16-2.26Q43.30-3.36 43.90-5.02L43.90-5.02ZM34.53-8.96L38.78-8.96Q38.75-9.31 38.74-9.79Q38.72-10.27 38.72-11.01L38.72-11.01Q38.72-12.96 38.24-13.97Q37.76-14.98 36.58-14.98L36.58-14.98Q35.55-14.98 35.15-14Q34.75-13.02 34.59-11.01L34.59-11.01L34.53-8.96ZM53.18-2.21L53.18-2.21Q53.31-1.41 53.90-0.99Q54.50-0.58 55.23-0.58L55.23-0.58Q56.22-0.58 56.72-1.54Q57.22-2.50 57.34-3.65Q57.47-4.80 57.52-5.70Q57.57-6.59 57.57-7.65L57.57-7.65L57.57-9.73Q57.47-10.66 57.36-11.66Q57.25-12.67 56.74-13.62Q56.22-14.56 55.17-14.56L55.17-14.56Q54.53-14.56 53.94-14Q53.34-13.44 53.22-12.64L53.22-12.64Q53.15-11.87 53.12-10.64Q53.09-9.41 53.09-8.19L53.09-8.19L53.09-4.67Q53.09-3.20 53.18-2.21ZM56.45 7.39L44.35 7.39L44.35 6.88L45.47 6.82Q46.40 6.72 46.66 6.42Q46.91 6.11 46.91 5.18L46.91 5.18L46.94 3.87L46.94-11.65L46.91-12.96Q46.91-13.86 46.64-14.18Q46.37-14.50 45.44-14.59L45.44-14.59L44.42-14.66L44.42-15.17L53.02-15.17L53.02-13.28Q53.38-14.02 54.16-14.75Q54.94-15.49 57.12-15.49L57.12-15.49Q60.19-15.49 62.11-13.34Q64.03-11.20 64.03-7.52L64.03-7.52Q64.03-3.97 62.11-1.82Q60.19 0.32 57.12 0.32L57.12 0.32Q54.88 0.32 54.14-0.29Q53.41-0.90 53.06-1.57L53.06-1.57L53.09 0.32L53.09 3.36L53.15 4.83Q53.25 5.92 53.58 6.29Q53.92 6.66 54.91 6.78L54.91 6.78L56.45 6.88L56.45 7.39ZM72.80-12.80L72.80-12.80Q73.41-14.08 74.50-14.78Q75.58-15.49 77.60-15.49L77.60-15.49Q79.81-15.49 81.50-14.29Q83.20-13.09 83.20-11.20L83.20-11.20L83.20-4L83.23-2.53Q83.23-1.38 83.42-1.01Q83.62-0.64 84.54-0.54L84.54-0.54L85.25-0.51L85.25 0L75.36 0L75.36-0.51L75.78-0.54Q76.64-0.54 76.83-0.93Q77.02-1.31 77.02-2.53L77.02-2.53L77.06-4L77.06-10.53L77.02-11.84Q77.02-13.18 76.58-13.76Q76.13-14.34 75.23-14.34L75.23-14.34Q74.14-14.34 73.68-13.63Q73.22-12.93 72.93-12.19L72.93-12.19L72.93-4L72.96-2.53Q72.96-1.28 73.14-0.91Q73.31-0.54 74.21-0.54L74.21-0.54L74.62-0.51L74.62 0L64.70 0L64.70-0.51L65.44-0.54Q66.37-0.64 66.56-0.99Q66.75-1.34 66.75-2.53L66.75-2.53L66.78-4L66.78-19.81L66.75-21.12Q66.75-21.98 66.48-22.32Q66.21-22.66 65.31-22.75L65.31-22.75L64.10-22.82L64.10-23.33L72.93-23.33L72.93-15.74Q72.93-14.69 72.90-13.97Q72.86-13.25 72.80-12.80ZM102.24-1.60L102.24-1.60Q103.01-1.60 103.31-2.54Q103.62-3.49 103.62-4.80L103.62-4.80L104.06-4.80Q104.06-1.98 103.06-1.09Q102.05-0.19 101.25 0.05Q100.45 0.29 99.20 0.29L99.20 0.29Q97.82 0.29 96.75-0.42Q95.68-1.12 95.46-2.30L95.46-2.30Q94.94-0.99 93.74-0.34Q92.54 0.32 90.62 0.32L90.62 0.32Q88.58 0.32 87.30-0.80Q86.02-1.92 86.02-3.90L86.02-3.90Q86.02-5.50 86.82-6.48Q87.62-7.46 88.45-7.68Q89.28-7.90 91.01-8.06Q92.74-8.22 93.55-8.43Q94.37-8.64 94.72-8.88Q95.07-9.12 95.07-9.70L95.07-9.70L95.04-12.61Q95.04-13.86 94.72-14.40Q94.40-14.94 93.38-14.94L93.38-14.94Q92.74-14.94 92.30-14.66Q91.87-14.37 91.87-13.92L91.87-13.92Q91.87-13.57 92.56-13.04Q93.25-12.51 93.25-11.46L93.25-11.46Q93.25-10.46 92.37-9.70Q91.49-8.93 89.50-8.93L89.50-8.93Q88.42-8.93 87.60-9.52Q86.78-10.11 86.78-11.10L86.78-11.10Q86.78-13.09 89.01-14.27Q91.23-15.46 94.30-15.46L94.30-15.46Q96.90-15.46 99.07-14.38Q101.25-13.31 101.25-11.07L101.25-11.07L101.25-3.74Q101.25-2.72 101.44-2.18L101.44-2.18Q101.60-1.60 102.24-1.60ZM95.07-2.53L95.07-2.53L95.07-8.64L94.98-8.67Q94.69-8.29 93.90-7.95Q93.12-7.62 92.82-7.30Q92.51-6.98 92.34-6.06Q92.16-5.15 92.16-4.19L92.16-4.19Q92.16-2.75 92.38-1.89Q92.61-1.02 93.41-1.02L93.41-1.02Q94.02-1.02 94.48-1.50Q94.94-1.98 95.07-2.53ZM116.35-4L116.35-10.53L116.32-11.84Q116.32-14.34 114.56-14.34L114.56-14.34Q113.44-14.34 112.98-13.63Q112.51-12.93 112.22-12.19L112.22-12.19L112.22-4L112.26-2.53Q112.26-1.22 112.50-0.86Q112.74-0.51 113.92-0.51L113.92-0.51L113.92 0L103.97 0L103.97-0.51L104.74-0.54Q105.66-0.64 105.86-0.99Q106.05-1.34 106.05-2.53L106.05-2.53L106.08-4L106.08-11.65L106.05-12.96Q105.98-13.73 105.86-14.11Q105.73-14.50 104.70-14.59L104.70-14.59L103.97-14.66L103.97-15.17L112.10-15.17L112.10-12.77Q112.45-13.66 113.36-14.58Q114.27-15.49 116.90-15.49L116.90-15.49Q119.17-15.49 120.83-14.21Q122.50-12.93 122.50-11.20L122.50-11.20L122.50-4L122.53-2.53Q122.53-1.38 122.72-1.01Q122.91-0.64 123.84-0.54L123.84-0.54L124.54-0.51L124.54 0L114.66 0L114.66-0.51Q115.81-0.51 116.06-0.88Q116.32-1.25 116.32-2.53L116.32-2.53L116.35-4ZM126.69-4.06L126.69-13.95L124.51-13.95L124.51-14.82Q125.60-15.10 126.78-15.89Q127.97-16.67 129.04-17.71Q130.11-18.75 130.83-19.74Q131.55-20.74 131.94-21.54L131.94-21.54L132.83-21.54L132.83-15.17L137.02-15.17L136.58-13.95L132.83-13.95L132.83-5.25L132.90-3.62Q132.90-2.24 133.50-1.54Q134.11-0.83 135.04-0.83L135.04-0.83Q136.29-0.83 136.86-1.87Q137.44-2.91 137.44-4.19L137.44-4.19L137.89-4.19Q137.89-2.40 136.83-1.04Q135.78 0.32 132.29 0.32L132.29 0.32Q130.08 0.32 128.38-0.83Q126.69-1.98 126.69-4.06L126.69-4.06Z"/></svg>