<svg id="mainsvg" xmlns="http://www.w3.org/2000/svg" xmlns:xlink="http://www.w3.org/1999/xlink" version="1.1" x="0px" y="0px" enable-background="new 0 0 200 162.5" xml:space="preserve" viewBox="0 0 177 26"><path fill="#000" transform="translate(-2.546875, 24.65625)" d="M23.67 0L28.23-23.50L24-23.50L15.22-10.73L11.30-23.50L7.11-23.50L2.55 0L6.67 0L9.77-15.92L9.88-15.94C9.98-14.72 10.83-11.36 10.89-11.02C10.98-10.61 12.61-4.45 12.61-4.45L15.38-4.45C15.38-4.45 19.28-10.47 19.56-10.88C19.78-11.20 22.08-14.81 22.55-15.91L22.64-15.91L19.56 0ZM37.89-5.38C36.91-4.09 35.17-2.94 33.69-2.94C32.17-2.94 31.56-3.73 31.84-5.19C32.41-8.13 36.34-8.14 38.44-8.14ZM40.72 0L42.44-8.81C43.31-13.34 43.56-17.34 37.38-17.34C35.23-17.34 33.02-16.75 30.89-15.05L32.30-12.34C34.09-13.42 35.38-13.88 36.84-13.88C39.08-13.88 39.36-13.02 38.92-10.77C34.97-10.73 29-10.61 27.94-5.16C27.31-1.97 28.75 0.44 32.14 0.44C34.16 0.44 36.31-0.97 37.73-2.23C37.66-1.86 37.45 0 37.45 0ZM59.36 0L64.14-24.66L59.94-23.19L58.38-15.14C57.31-16.53 56.08-17.39 54.23-17.39C48.58-17.39 45.86-12.08 45.08-8.05C44.34-4.25 45.30 0.41 50.39 0.41C52.56 0.41 54.33-0.59 56.17-2.31L55.88 0ZM56.64-6.20C55.53-4.50 53.81-3.28 51.91-3.28C49.34-3.28 48.81-5.91 49.28-8.33C49.80-10.94 51.22-13.66 54.09-13.66C55.84-13.66 57.11-12.59 57.58-11.06ZM76.19-16.64C75.52-17.16 74.50-17.44 73.78-17.38C71.84-17.19 70.69-16.08 69.47-14.80L69.63-17.08L66.33-17.08L63 0L66.88 0L68.98-10.83C70.13-12.59 71.25-13.63 72.81-13.63C73.17-13.63 73.69-13.47 74.45-13.17ZM84.34-5.38C83.36-4.09 81.63-2.94 80.14-2.94C78.63-2.94 78.02-3.73 78.30-5.19C78.86-8.13 82.80-8.14 84.89-8.14ZM87.17 0L88.89-8.81C89.77-13.34 90.02-17.34 83.83-17.34C81.69-17.34 79.47-16.75 77.34-15.05L78.75-12.34C80.55-13.42 81.83-13.88 83.30-13.88C85.53-13.88 85.81-13.02 85.38-10.77C81.42-10.73 75.45-10.61 74.39-5.16C73.77-1.97 75.20 0.44 78.59 0.44C80.61 0.44 82.77-0.97 84.19-2.23C84.11-1.86 83.91 0 83.91 0ZM90.34-3.52C91.52-0.73 93.88 0.42 96.69 0.42C100.02 0.42 103.17-1.30 103.84-4.77C104.92-10.34 95.98-9.80 96.53-12.42C96.77-13.56 98.02-13.97 99.08-13.97C100.36-13.97 101.55-13.16 102.38-12.05L105.16-13.73C104.27-15.98 101.72-17.36 99.44-17.36C96.13-17.36 93.52-15.89 92.86-12.52C91.80-7.08 100.59-7.61 100.03-4.92C99.75-3.55 98.03-3.05 96.84-3.05C95.11-3.05 93.95-4.09 93.33-5.36L90.34-3.52ZM122.84-3.88L111.52-3.88L112.72-10.08L122.17-10.08L123.14-13.78L113.45-13.78L114.59-19.70L125.53-19.70L126.50-23.50L111.17-23.50L106.63 0L121.86 0ZM139.83 0L135.28-8.89L142.56-17.08L137.86-17.08L133.75-11.84L131.67-17.08L126.77-17.08L131.09-9.03L123.19 0L127.98 0L132.55-5.88L134.98 0ZM153.05-13.91L153.66-17.09L150.08-17.09L151.05-22.23L146.84-20.80L146.13-17.09L143.48-17.09L142.86-13.91L145.50-13.91L143.64-4.36C143.19-2.02 143.55 0.22 147.58 0.22C148.33 0.22 149.03 0.05 150.25-0.33L150.33-3.22C149.41-3.08 149.13-2.98 148.75-2.98C147.63-2.98 147.42-3.59 147.59-4.48L149.44-13.91ZM165.53-16.64C164.86-17.16 163.84-17.44 163.13-17.38C161.19-17.19 160.03-16.08 158.81-14.80L158.97-17.08L155.67-17.08L152.34 0L156.22 0L158.33-10.83C159.47-12.59 160.59-13.63 162.16-13.63C162.52-13.63 163.03-13.47 163.80-13.17ZM173.69-5.38C172.70-4.09 170.97-2.94 169.48-2.94C167.97-2.94 167.36-3.73 167.64-5.19C168.20-8.13 172.14-8.14 174.23-8.14ZM176.52 0L178.23-8.81C179.11-13.34 179.36-17.34 173.17-17.34C171.03-17.34 168.81-16.75 166.69-15.05L168.09-12.34C169.89-13.42 171.17-13.88 172.64-13.88C174.88-13.88 175.16-13.02 174.72-10.77C170.77-10.73 164.80-10.61 163.73-5.16C163.11-1.97 164.55 0.44 167.94 0.44C169.95 0.44 172.11-0.97 173.53-2.23C173.45-1.86 173.25 0 173.25 0Z"/></svg>