<svg id="mainsvg" xmlns="http://www.w3.org/2000/svg" xmlns:xlink="http://www.w3.org/1999/xlink" version="1.1" x="0px" y="0px" enable-background="new 0 0 200 162.5" xml:space="preserve" viewBox="0 0 267 40"><path fill="#000" transform="translate(-4.694196428571429, 29.173828125)" d="M5.70-14.75L5.70-14.75Q5.16-14.78 4.88-15.03L4.88-15.03Q4.59-15.30 4.75-15.63L4.75-15.63Q4.88-15.94 5.39-16.16L5.39-16.16Q12.73-19.27 22.82-21.63Q32.91-23.98 44.03-25.53L44.03-25.53Q55.16-27.06 65.56-27.73L65.56-27.73Q75.97-28.41 83.97-28.16L83.97-28.16Q91.95-27.89 95.75-26.66L95.75-26.66Q97.83-25.92 98.27-25.09Q98.72-24.27 98.33-23.58L98.33-23.58Q98.33-23.55 98.30-23.52L98.30-23.52Q96.95-21.44 90.84-19.41Q84.72-17.38 75.03-15.28L75.03-15.28Q65.33-13.17 53.20-10.89L53.20-10.89Q56.67-10.75 59.56-10.28L59.56-10.28Q62.44-9.80 63.69-8.92L63.69-8.92Q64.98-7.91 63.89-6.64L63.89-6.64Q62.47-5.17 58.52-3.94L58.52-3.94Q54.56-2.70 49.47-1.80L49.47-1.80Q44.34-0.88 32.44-0.31L32.44-0.31Q27.06-0.05 23.47 0.09L23.47 0.09Q21.72 1.80 20.45 3.22L20.45 3.22Q18.81 5.08 18.91 5.70L18.91 5.70Q19.34 5.86 19.44 6.14L19.44 6.14Q19.55 6.41 19.28 6.70L19.28 6.70Q18.77 7.20 17.83 7.22L17.83 7.22Q17.61 7.22 17.39 7.17L17.39 7.17Q16.47 6.94 16.25 6.34L16.25 6.34Q15.83 5.06 18.69 1.95L18.69 1.95Q19.42 1.14 20.33 0.22L20.33 0.22Q18.36 0.28 17.33 0.28L17.33 0.28Q16.16 0.28 15.34 0.20L15.34 0.20Q14.81 0.14 14.57-0.13Q14.33-0.39 14.50-0.72L14.50-0.72Q14.70-1.06 15.19-1.25L15.19-1.25Q15.69-1.42 16.27-1.39L16.27-1.39Q17.66-1.27 21.94-1.36L21.94-1.36Q24.09-3.45 26.95-6.02L26.95-6.02Q40.67-18.27 43.95-21.69L43.95-21.69Q44.27-22 44.80-22.14L44.80-22.14Q45.31-22.27 45.81-22.16L45.81-22.16Q46.36-22.03 46.47-21.75L46.47-21.75Q46.63-21.45 46.33-21.14L46.33-21.14Q42.94-17.63 29.20-5.34L29.20-5.34Q27.23-3.52 25.06-1.45L25.06-1.45Q27.47-1.53 30.45-1.66L30.45-1.66Q42.17-2.14 47.31-3L47.31-3Q52.45-3.86 56.41-4.95L56.41-4.95Q60.34-6.05 61.50-7.17L61.50-7.17Q61.63-7.33 61.66-7.48L61.66-7.48Q61.66-7.63 61.41-7.81L61.41-7.81Q60.20-8.59 56.78-8.98L56.78-8.98Q53.30-9.36 49.48-9.36L49.48-9.36Q45.64-9.36 43.38-8.97L43.38-8.97Q42.78-8.88 42.36-9.02L42.36-9.02Q41.91-9.16 41.83-9.47L41.83-9.47Q41.75-9.80 42.06-10.08L42.06-10.08Q42.38-10.36 42.94-10.48L42.94-10.48Q47.34-11.38 52.77-12.41L52.77-12.41Q58.98-13.58 66.01-14.98Q73.03-16.39 79.48-17.91L79.48-17.91Q85.91-19.42 90.31-20.92L90.31-20.92Q94.72-22.41 95.69-23.75L95.69-23.75Q95.78-23.88 95.73-24.11L95.73-24.11Q95.69-24.33 95.34-24.63Q94.98-24.92 94.09-25.23L94.09-25.23Q89.78-26.59 79.22-26.61L79.22-26.61Q68.64-26.63 55.19-25.30L55.19-25.30Q39.88-23.73 27.33-21.06L27.33-21.06Q14.78-18.38 6.77-14.94L6.77-14.94Q6.23-14.72 5.70-14.75ZM72.28-11.48L72.28-11.48Q71.09-11.63 70.97-12.34L70.97-12.34Q70.95-12.72 71.28-13.13Q71.61-13.55 72.11-13.88L72.11-13.88Q72.31-14.06 72.66-14.19L72.66-14.19Q74.08-14.67 75.06-14.13L75.06-14.13Q75.53-13.84 75.51-13.34Q75.48-12.84 74.75-12.25L74.75-12.25Q73.67-11.47 72.56-11.47L72.56-11.47Q72.42-11.47 72.28-11.48ZM68.11-8.47L68.11-8.47Q69.94-10.50 70.92-10.70Q71.91-10.91 72.31-10.52Q72.72-10.13 71.84-9.23L71.84-9.23Q69.25-6.73 67.46-4.66Q65.67-2.58 65.20-1.52L65.20-1.52Q65.20-1.50 65.20-1.47L65.20-1.47Q66.42-1.78 69-2.87Q71.58-3.95 74.14-5.58L74.14-5.58Q74.59-5.88 75.16-5.91Q75.73-5.95 75.46-5.34Q75.19-4.72 74.38-4.13Q73.58-3.55 71.90-2.56Q70.22-1.58 67.98-0.71Q65.75 0.16 64.25 0.20L64.25 0.20Q64.25 0.20 64.23 0.20L64.23 0.20Q64.23 0.20 64.23 0.20L64.23 0.20Q63.28 0.19 62.77-0.20L62.77-0.20Q62.16-0.69 62.53-1.63L62.53-1.63Q63.08-2.84 64.65-4.72Q66.22-6.59 68.11-8.47ZM81.44-2.30L81.44-2.30Q79.73-1.19 78.21-0.55Q76.69 0.09 75.33 0.05L75.33 0.05Q74.69 0.05 74.03-0.23Q73.38-0.52 73.03-1.27L73.03-1.27Q72.42-2.73 73.31-4.94L73.31-4.94Q73.25-5.23 73.58-5.53L73.58-5.53Q74.86-8.25 77.27-11.16Q79.69-14.08 82.33-16.37Q84.97-18.66 86.91-19.47L86.91-19.47Q87.83-19.84 88.49-19.90Q89.16-19.95 89.59-19.86Q90.03-19.77 90.20-19.64L90.20-19.64Q91.48-18.92 91.03-17.70Q90.58-16.47 89.41-15.22Q88.23-13.97 87.34-13.16L87.34-13.16L87.25-13.06Q85.39-11.36 82.19-8.98Q78.98-6.59 75.97-4.88L75.97-4.88Q75.23-3.03 75.64-1.92L75.64-1.92Q75.75-1.72 75.85-1.63Q75.95-1.55 75.97-1.55L75.97-1.55Q76.28-1.50 77.06-1.84Q77.84-2.17 79.34-3.13Q80.84-4.09 83.33-5.94L83.33-5.94Q85.16-8.75 87.70-11.69Q90.23-14.63 92.48-16.89Q94.72-19.16 95.73-19.98L95.73-19.98Q97.17-21.19 98.62-21.97Q100.06-22.75 101.38-22.53L101.38-22.53Q103.27-22.14 101.83-19.48L101.83-19.48Q100.81-17.73 98.41-15.46Q96.02-13.19 92.99-10.81Q89.97-8.44 87.02-6.36L87.02-6.36Q86.59-6.03 85.94-5.53L85.94-5.53Q85.86-5.48 85.80-5.44L85.80-5.44Q85.72-5.38 85.66-5.33L85.66-5.33Q83.70-2.39 83.95-0.89L83.95-0.89Q84.08-0.47 84.41-0.36L84.41-0.36Q85.33-0.33 88.66-1.76Q92-3.19 96.55-5.70L96.55-5.70Q97.02-5.95 97.45-5.97Q97.88-5.98 97.69-5.59Q97.50-5.19 96.71-4.41Q95.92-3.63 94.16-2.58Q92.39-1.53 90.41-0.68Q88.44 0.17 86.73 0.70Q85.02 1.22 83.81 1.22L83.81 1.22Q83.25 1.22 82.81 1.08L82.81 1.08Q81.52 0.69 81.25-0.39L81.25-0.39Q81.06-1.19 81.44-2.30ZM97.89-19.20L97.89-19.20Q96.63-18.19 94.35-15.86Q92.08-13.53 89.69-10.69L89.69-10.69Q92.80-13.05 95.48-15.48Q98.16-17.91 99.20-19.72L99.20-19.72Q99.44-20.14 99.55-20.45L99.55-20.45Q98.92-20.05 97.89-19.20ZM83.77-15.02L83.77-15.02Q80.17-11.73 77.70-8.08L77.70-8.08Q79.88-9.56 81.84-11.09Q83.80-12.63 84.98-13.75L84.98-13.75L85.11-13.84Q86.78-15.39 87.51-16.31Q88.23-17.23 88.36-17.68Q88.48-18.13 88.34-18.27L88.34-18.27Q87.88-18.14 86.73-17.39Q85.58-16.64 83.77-15.02ZM102.39-11.48L102.39-11.48Q101.20-11.63 101.08-12.34L101.08-12.34Q101.06-12.72 101.39-13.13Q101.72-13.55 102.22-13.88L102.22-13.88Q102.42-14.06 102.77-14.19L102.77-14.19Q104.19-14.67 105.17-14.13L105.17-14.13Q105.64-13.84 105.62-13.34Q105.59-12.84 104.86-12.25L104.86-12.25Q103.78-11.47 102.67-11.47L102.67-11.47Q102.53-11.47 102.39-11.48ZM98.22-8.47L98.22-8.47Q100.05-10.50 101.03-10.70Q102.02-10.91 102.42-10.52Q102.83-10.13 101.95-9.23L101.95-9.23Q99.36-6.73 97.57-4.66Q95.78-2.58 95.31-1.52L95.31-1.52Q95.31-1.50 95.31-1.47L95.31-1.47Q96.53-1.78 99.11-2.87Q101.69-3.95 104.25-5.58L104.25-5.58Q104.70-5.88 105.27-5.91Q105.84-5.95 105.57-5.34Q105.30-4.72 104.49-4.13Q103.69-3.55 102.01-2.56Q100.33-1.58 98.09-0.71Q95.86 0.16 94.36 0.20L94.36 0.20Q94.36 0.20 94.34 0.20L94.34 0.20Q94.34 0.20 94.34 0.20L94.34 0.20Q93.39 0.19 92.88-0.20L92.88-0.20Q92.27-0.69 92.64-1.63L92.64-1.63Q93.19-2.84 94.76-4.72Q96.33-6.59 98.22-8.47ZM116.34-7.30L116.34-7.30Q117.23-7.39 117.64-6.98L117.64-6.98Q117.88-6.69 117.70-6.38Q117.52-6.06 116.98-5.86L116.98-5.86Q116.22-5.58 115.47-5.36L115.47-5.36Q114.52-3.91 112.83-2.55Q111.14-1.19 109.11-0.29Q107.08 0.61 105.06 0.69L105.06 0.69Q104.97 0.69 104.84 0.69L104.84 0.69Q102.75 0.69 101.94-0.33L101.94-0.33Q101.31-1.30 101.86-2.66Q102.41-4.02 103.40-5.24Q104.39-6.47 105.05-7L105.05-7Q105.20-7.13 105.39-7.20L105.39-7.20Q105.88-8.69 108.30-9.89L108.30-9.89Q111.16-11.22 113.66-10.66L113.66-10.66Q116.83-9.83 116.34-7.30ZM105.41-0.91L105.41-0.91Q106.97-0.98 108.83-2.05Q110.69-3.11 112.11-4.64L112.11-4.64Q110.66-4.47 109.34-4.58L109.34-4.58Q107.14-4.78 106.30-5.34L106.30-5.34Q105.39-4.30 104.75-3.06Q104.11-1.83 104.47-1.17L104.47-1.17Q104.53-1.06 104.73-0.98Q104.92-0.91 105.41-0.91ZM113.36-6.44L113.36-6.44Q113.73-7.20 113.63-8Q113.53-8.80 112.25-9.17L112.25-9.17Q111.97-9.23 111.70-9.23L111.70-9.23Q111.13-9.23 110.60-9.05Q110.08-8.88 109.80-8.73L109.80-8.73Q108.97-8.33 108.50-7.83Q108.03-7.33 108.11-6.92L108.11-6.92Q108.25-6.55 108.88-6.38Q109.50-6.20 110.16-6.16L110.16-6.16Q111.61-6.05 113.36-6.44ZM133.42-2.94L133.42-2.94Q130.58-1.22 128.66-0.48Q126.73 0.27 125.45 0.31L125.45 0.31Q125.44 0.31 125.39 0.31L125.39 0.31Q124.31 0.31 123.73 0.08Q123.16-0.16 122.94-0.42L122.94-0.42Q122.05-1.41 122.96-3.17Q123.88-4.94 125.72-7.27L125.72-7.27Q126.02-7.64 126.33-8.05L126.33-8.05Q123.55-6.67 120.59-4.44Q117.64-2.20 116.67-0.95L116.67-0.95Q116.67-0.94 116.66-0.92L116.66-0.92Q116.64-0.91 116.64-0.89L116.64-0.89Q116.38-0.56 115.87-0.40Q115.36-0.23 114.81-0.30L114.81-0.30Q114.30-0.39 114.09-0.66Q113.89-0.94 114.09-1.27L114.09-1.27Q114.14-1.28 114.14-1.31L114.14-1.31Q115.39-3.11 117-5.16Q118.61-7.22 120.66-9.41L120.66-9.41Q120.98-9.72 121.52-9.85Q122.05-9.98 122.55-9.88L122.55-9.88Q123.03-9.75 123.16-9.45Q123.30-9.16 123.03-8.84L123.03-8.84Q122.41-8.19 121.84-7.55L121.84-7.55Q124.42-9.17 126.58-9.91L126.58-9.91Q127.56-10.22 128.41-10.27L128.41-10.27Q129.23-10.31 129.66-9.95L129.66-9.95Q130.08-9.59 129.70-8.91Q129.31-8.22 128.22-6.83L128.22-6.83Q127.56-6.03 126.77-4.91Q125.98-3.80 125.52-2.80Q125.05-1.81 125.38-1.41L125.38-1.41Q125.38-1.41 125.39-1.39L125.39-1.39Q125.38-1.38 125.44-1.35Q125.50-1.33 125.60-1.30Q125.70-1.28 125.92-1.30L125.92-1.30Q126.58-1.36 128.21-2.06Q129.84-2.77 131.79-3.76Q133.73-4.75 135.28-5.69L135.28-5.69Q135.73-5.95 136.38-5.93Q137.02-5.91 136.66-5.27Q136.30-4.64 133.42-2.94ZM176.28-9.23L176.28-9.23Q174.30-9.88 172.26-10.68Q170.22-11.48 168.69-12.51Q167.16-13.53 166.74-14.85Q166.33-16.17 167.58-17.86L167.58-17.86Q169.89-20.67 173.85-22.69Q177.81-24.70 182.30-26.04Q186.78-27.38 190.64-28.12Q194.50-28.86 196.55-29.13L196.55-29.13Q196.94-29.20 197.50-29.16L197.50-29.16Q198.52-28.98 198.70-28.36L198.70-28.36Q198.84-27.63 197.58-26.94L197.58-26.94Q197.11-26.70 196.57-26.69Q196.03-26.67 195.66-26.91L195.66-26.91Q195.39-27.11 195.39-27.38L195.39-27.38Q193.28-27.05 189.81-26.32Q186.34-25.59 182.50-24.40Q178.66-23.20 175.32-21.47Q171.98-19.73 170.06-17.41L170.06-17.41Q168.92-15.92 169.71-14.78Q170.50-13.64 172.68-12.66Q174.86-11.67 177.95-10.66L177.95-10.66Q180.23-9.91 182-9.16L182-9.16Q182.27-9.05 182.53-8.92L182.53-8.92Q187.70-10.27 189.94-10.70Q192.17-11.13 193.17-11.14L193.17-11.14Q193.72-11.16 193.86-10.91Q194-10.66 193.75-10.43Q193.50-10.20 192.05-9.81Q190.61-9.42 184.34-7.78L184.34-7.78Q185.91-6.47 185.84-4.94L185.84-4.94Q185.59-2.38 182.84-0.05Q180.08 2.28 175.76 4.23Q171.44 6.17 166.55 7.55Q161.66 8.94 157.16 9.59L157.16 9.59Q153.58 10.13 150.94 10.13L150.94 10.13Q148.20 10.13 146.57 9.57Q144.94 9.02 144.53 7.94L144.53 7.94Q144 6.38 146.80 4.33L146.80 4.33Q149.52 2.38 154.75 0.17Q159.98-2.03 166.48-4.19Q172.97-6.34 179.44-8.11L179.44-8.11Q178.02-8.66 176.28-9.23ZM181.53-7.05L181.53-7.05Q175.16-5.34 168.62-3.21Q162.08-1.08 156.79 1.11Q151.50 3.30 148.81 5.19L148.81 5.19Q146.94 6.56 147.23 7.38L147.23 7.38Q147.59 8.28 150.20 8.47Q152.80 8.66 156.94 8.05L156.94 8.05Q160.94 7.45 165.40 6.22Q169.86 4.98 173.83 3.27Q177.80 1.55 180.34-0.49Q182.89-2.53 183.06-4.70L183.06-4.70Q183.14-5.97 181.53-7.05ZM208.31-5.53L208.31-5.53Q208.16-5.08 205.04-3.13Q201.92-1.19 199.98-0.45Q198.05 0.28 196.81 0.33L196.81 0.33Q196.78 0.33 196.78 0.33L196.78 0.33Q195.20 0.33 194.61-0.44L194.61-0.44Q194.13-1.16 194.81-2.41L194.81-2.41Q193.33-1.66 191.87-1.25Q190.41-0.84 189.02-0.92L189.02-0.92Q187.94-1.02 187.41-1.31Q186.89-1.61 186.73-1.92L186.73-1.92Q186.34-2.77 187.08-3.98Q187.81-5.19 189.17-6.52Q190.53-7.86 192.06-9.06L192.06-9.06Q192.44-9.36 192.98-9.45Q193.52-9.53 193.98-9.38L193.98-9.38Q194.44-9.20 194.48-8.90Q194.53-8.59 194.19-8.30L194.19-8.30Q191.39-6 190.25-4.55Q189.11-3.09 189.38-2.66L189.38-2.66Q189.39-2.63 189.42-2.60Q189.45-2.58 189.54-2.55Q189.63-2.53 189.78-2.52L189.78-2.52Q189.88-2.50 189.97-2.50L189.97-2.50Q191.19-2.53 192.73-3.27Q194.27-4.02 195.84-5.10Q197.42-6.19 198.80-7.27Q200.19-8.36 201-9.06L201-9.06Q201.83-9.77 202.33-10.17L202.33-10.17Q202.72-10.45 203.26-10.53Q203.80-10.61 204.25-10.45L204.25-10.45Q204.69-10.28 204.75-9.98Q204.81-9.69 204.47-9.39L204.47-9.39Q200.61-6.14 198.73-3.96Q196.84-1.78 197.17-1.28L197.17-1.28Q197.17-1.28 197.19-1.28L197.19-1.28Q197.23-1.28 197.28-1.28L197.28-1.28Q197.28-1.28 197.28-1.28L197.28-1.28Q197.28-1.28 197.28-1.28L197.28-1.28Q198-1.38 199.86-2.17Q201.72-2.97 203.68-3.97Q205.64-4.97 206.80-5.67L206.80-5.67Q207.27-5.94 207.84-5.95Q208.41-5.97 208.31-5.53ZM206.58-6.17L206.58-6.17Q207.66-7.17 209.16-8.12Q210.66-9.06 212.48-9.71Q214.31-10.36 216.33-10.48L216.33-10.48Q217.30-10.52 217.87-10.36Q218.44-10.20 218.67-9.98Q218.91-9.75 218.97-9.59L218.97-9.59Q219.19-8.92 218.50-8.08Q217.81-7.23 216.73-6.48Q215.64-5.72 214.72-5.31L214.72-5.31Q213.69-4.88 213.02-4.88Q212.36-4.88 212.08-5.02L212.08-5.02Q211.38-5.31 211.48-5.92L211.48-5.92Q211.69-6.53 212.67-7.30Q213.66-8.06 214.83-8.72L214.83-8.72Q211.59-7.98 208.83-5.52L208.83-5.52Q207.55-4.27 207.10-3.19Q206.66-2.11 207.19-1.48L207.19-1.48Q207.89-0.75 210.39-0.94L210.39-0.94Q211-0.95 212.33-1.34Q213.66-1.72 215.95-2.73Q218.23-3.75 221.44-5.58L221.44-5.58Q221.95-5.92 222.52-5.91Q223.09-5.91 222.09-4.83Q221.08-3.75 217.94-1.99Q214.80-0.23 210.25 0.66L210.25 0.66Q209.58 0.70 209.02 0.70L209.02 0.70Q207.75 0.70 206.90 0.52Q206.05 0.33 205.53 0.05Q205.02-0.23 204.72-0.53L204.72-0.53Q203.83-1.52 204.32-3.01Q204.81-4.50 206.58-6.17ZM221.53-6.17L221.53-6.17Q222.61-7.17 224.11-8.12Q225.61-9.06 227.44-9.71Q229.27-10.36 231.28-10.48L231.28-10.48Q232.25-10.52 232.82-10.36Q233.39-10.20 233.63-9.98Q233.86-9.75 233.92-9.59L233.92-9.59Q234.14-8.92 233.45-8.08Q232.77-7.23 231.68-6.48Q230.59-5.72 229.67-5.31L229.67-5.31Q228.64-4.88 227.98-4.88Q227.31-4.88 227.03-5.02L227.03-5.02Q226.33-5.31 226.44-5.92L226.44-5.92Q226.64-6.53 227.63-7.30Q228.61-8.06 229.78-8.72L229.78-8.72Q226.55-7.98 223.78-5.52L223.78-5.52Q222.50-4.27 222.05-3.19Q221.61-2.11 222.14-1.48L222.14-1.48Q222.84-0.75 225.34-0.94L225.34-0.94Q225.95-0.95 227.28-1.34Q228.61-1.72 230.90-2.73Q233.19-3.75 236.39-5.58L236.39-5.58Q236.91-5.92 237.48-5.91Q238.05-5.91 237.04-4.83Q236.03-3.75 232.89-1.99Q229.75-0.23 225.20 0.66L225.20 0.66Q224.53 0.70 223.97 0.70L223.97 0.70Q222.70 0.70 221.85 0.52Q221 0.33 220.48 0.05Q219.97-0.23 219.67-0.53L219.67-0.53Q218.78-1.52 219.27-3.01Q219.77-4.50 221.53-6.17ZM236.98-2.67L236.98-2.67Q236.81-2.59 236.64-2.56L236.64-2.56Q236.41-1.91 236.48-1.44L236.48-1.44Q236.55-1.33 236.62-1.21Q236.69-1.09 236.83-1.05L236.83-1.05Q237.63-0.84 238.66-1Q239.70-1.16 240.64-1.44L240.64-1.44Q242.34-1.98 245.30-3.38Q248.27-4.78 249.75-5.73L249.75-5.73Q250.22-6 250.60-5.88Q250.98-5.77 250.44-5.04Q249.89-4.31 248.15-3.18Q246.41-2.05 243.24-0.72Q240.08 0.61 237.30 0.67L237.30 0.67Q236.16 0.67 235.28 0.41L235.28 0.41Q234.81 0.30 234.38-0.02Q233.94-0.34 233.78-0.95L233.78-0.95Q233.55-2.23 234.62-3.91Q235.69-5.58 237.27-6.81L237.27-6.81Q239.56-8.58 242.27-9.66Q244.97-10.75 247-10.72L247-10.72Q247.27-10.72 247.81-10.63Q248.36-10.53 248.70-10.19L248.70-10.19Q249.11-9.69 248.48-8.95L248.48-8.95Q247.67-8.08 245.66-6.91Q243.66-5.73 241.27-4.59Q238.89-3.45 236.98-2.67ZM239.39-6.02L239.39-6.02Q238.86-5.61 238.38-5.11L238.38-5.11Q243.45-7.47 245.63-9.05L245.63-9.05Q244.47-8.84 242.76-8.08Q241.05-7.31 239.39-6.02ZM271.63-5.59L271.63-5.59Q271.63-5.19 270.69-4.39Q269.75-3.59 268.32-2.91Q266.89-2.23 265.80-1.94L265.80-1.94Q264.72-0.72 262.73 0.13Q260.75 0.97 259.19 1.20L259.19 1.20Q258.64 1.28 258.25 1.28L258.25 1.28Q257.61 1.28 257.27 1.15Q256.94 1.02 256.78 0.86Q256.63 0.70 256.61 0.61L256.61 0.61Q256.41 0.11 256.85-0.33Q257.30-0.77 257.94-1.09Q258.58-1.41 258.94-1.55L258.94-1.55Q260.45-2.16 261.55-2.48Q262.64-2.80 263.52-3L263.52-3Q263.38-3.25 262.88-3.52Q262.38-3.78 261.77-4.03L261.77-4.03Q261.64-4.11 261.48-4.17L261.48-4.17Q261.41-4.20 261.30-4.25L261.30-4.25Q259.81-3.58 258.72-3.16Q257.63-2.73 256.59-2.39L256.59-2.39Q255.98-1.09 254.20-0.20Q252.41 0.69 250.72 0.95L250.72 0.95Q249.48 1.11 248.84 0.90Q248.20 0.69 248.03 0.33L248.03 0.33Q247.88-0.19 248.32-0.63Q248.77-1.06 249.40-1.38Q250.03-1.69 250.41-1.83L250.41-1.83Q252.41-2.64 253.77-3.11L253.77-3.11Q253.20-3.50 252.22-3.91L252.22-3.91Q251-4.41 250.02-5.13Q249.05-5.84 249.38-7.02L249.38-7.02Q249.83-8.03 251.54-8.93Q253.25-9.83 255-10.11L255-10.11Q257.17-10.38 257.91-9.39L257.91-9.39Q258.38-8.64 257.74-8.03Q257.11-7.42 256.01-6.95Q254.91-6.48 253.92-6.16L253.92-6.16Q253.91-6.16 253.91-6.16L253.91-6.16Q253.36-5.97 252.94-5.81L252.94-5.81Q253.44-5.55 254.13-5.23L254.13-5.23Q254.16-5.23 254.16-5.23L254.16-5.23Q255.44-4.72 256.28-4L256.28-4Q257.64-4.45 259.53-5.28L259.53-5.28Q258.63-6 258.94-7.14L258.94-7.14Q259.45-8.27 261.56-9.40Q263.67-10.53 265.55-10.84L265.55-10.84Q267.52-11.09 268.19-10.20L268.19-10.20Q268.61-9.48 267.94-8.63Q267.27-7.77 266.05-6.91Q264.83-6.06 263.61-5.39L263.61-5.39Q263.64-5.38 263.67-5.38L263.67-5.38Q264.42-5.05 265.11-4.66Q265.80-4.27 266.11-3.75L266.11-3.75Q267.53-4.25 270.03-5.69L270.03-5.69Q270.48-5.94 271.02-5.96Q271.56-5.98 271.63-5.59ZM252.84-7.50L252.84-7.50Q253.22-7.63 253.76-7.82Q254.30-8.02 254.75-8.22Q255.20-8.42 255.34-8.56L255.34-8.56Q254.98-8.58 253.83-8.14L253.83-8.14Q252.89-7.72 252.44-7.36L252.44-7.36Q252.64-7.44 252.84-7.50ZM261.83-6.41L261.83-6.41Q263.45-7.34 264.48-8.13Q265.50-8.91 265.61-9.28L265.61-9.28Q265-9.16 264.10-8.75Q263.20-8.34 262.48-7.88Q261.75-7.41 261.61-7.09L261.61-7.09Q261.50-6.73 261.83-6.41Z"/></svg>