<svg id="mainsvg" xmlns="http://www.w3.org/2000/svg" xmlns:xlink="http://www.w3.org/1999/xlink" version="1.1" x="0px" y="0px" enable-background="new 0 0 200 162.5" xml:space="preserve" viewBox="0 0 125 33"><path fill="#000" transform="translate(-3.68, 24.736)" d="M2.43 7.49C12.77 7.49 28.80 0.32 28.83-11.81C28.83-19.87 22.27-23.36 15.74-23.36C12.61-23.36 9.50-22.34 6.88-20.64C6.66-21.92 6.27-24.74 4.54-24.74C1.92-24.74 1.63-19.87 1.63-18.02C1.63-17.28 1.73-16.54 1.73-15.84C1.73-15.71 1.73-15.33 1.70-15.23C1.31-14.30 0.64-13.47 0.22-12.51C-0.86-10.02-1.54-7.36-1.54-4.61C-1.54-1.98-0.58 4.29 2.94 4.29C6.62 4.29 7.87-4 7.87-11.01C7.87-14.24 7.62-17.18 7.20-18.94C7.81-19.58 10.08-21.02 10.78-21.31C12.61-22.08 14.69-22.53 16.67-22.53C22.05-22.53 25.18-17.89 25.18-12.48C25.18-1.76 14.43 4.80 5.47 6.46C4.26 6.69 3.04 6.78 1.82 6.78C0.42 6.78-0.99 6.59-2.37 6.37C-2.69 6.30-2.98 6.21-3.30 6.21C-3.42 6.21-3.52 6.24-3.65 6.27L-3.68 6.43C-3.20 7.23 1.41 7.49 2.43 7.49ZM3.01-17.15C2.94-17.41 2.94-17.70 2.94-17.98C2.94-19.42 3.58-22.66 4.64-23.68C5.12-22.53 5.41-20.86 5.41-19.74C5.41-19.49 3.39-17.60 3.07-17.22ZM5.31-8.90C4.70-9.86 3.26-13.54 3.26-14.59C3.26-15.07 5.06-17.12 5.47-17.50C5.57-16.74 5.57-15.94 5.57-15.17C5.57-13.09 5.57-10.94 5.31-8.90ZM2.43 3.55C2.18 3.42 1.86 2.94 1.73 2.69C0.51 0.61 0.19-1.86 0.19-4.26C0.19-7.39 0.93-10.24 2.34-13.02L2.34-12.96C3.36-10.59 3.55-9.82 5.15-7.65C5.25-7.46 5.25-7.42 5.25-7.23C5.09-4.38 4.38 1.47 2.43 3.55ZM34.30-0.90C38.24-1.12 40.70-3.87 40.70-5.44C40.54-5.57 40.26-5.66 40-5.66C39.78-5.63 39.62-5.57 39.52-5.31C38.85-3.17 37.02-1.76 34.43-1.63L34.27-1.63C32.96-1.63 32.51-2.75 32.51-3.74C32.51-4.10 32.54-4.42 32.64-4.67C32.83-4.51 33.06-4.29 33.76-4.29L34.05-4.29C35.84-4.38 36.77-5.44 36.77-6.69C36.77-7.62 35.81-8.10 34.72-8.10L34.50-8.10C34.37-8.06 34.21-8.03 34.08-8.03C32.29-7.78 30.53-5.47 30.53-3.78C30.53-1.89 32.38-0.90 34.08-0.90ZM33.06-5.06L32.80-5.09C32.83-5.60 34.11-6.82 34.62-6.85C34.75-6.85 34.82-6.78 34.82-6.62C34.82-5.82 34.34-5.12 33.28-5.09ZM41.92-6.18C41.92-8.16 43.23-18.62 44.35-18.62C44.83-18.62 45.02-17.89 45.02-16.86C45.02-13.86 43.42-7.52 41.92-6.18ZM52.19-6.21C52.19-8.35 53.50-19.58 54.62-19.58C55.10-19.58 55.30-18.78 55.30-17.66C55.30-14.27 53.63-7.55 52.19-6.21ZM54.18 2.50C57.25 2.50 60.29-0.90 61.79-4.42C61.86-4.61 61.89-4.77 61.89-4.93C61.89-5.34 61.63-5.54 61.38-5.54C61.12-5.54 60.93-5.41 60.77-5.12C60.03-3.20 57.70 1.76 54.34 1.76C52.45 1.76 52.19-2.66 52.19-4.26C54.78-8.51 56.10-13.25 56.10-18.46C56.10-19.84 55.52-21.18 54.30-21.18C52.06-21.18 50.62-17.34 50.21-15.55C49.73-13.34 49.47-10.94 49.47-8.32C49.47-6.72 49.60-5.22 49.82-3.71C48.77-1.70 46.75 1.28 44.06 1.28C42.18 1.28 41.92-2.82 41.92-4.35C44.51-8.32 45.82-12.74 45.82-17.60C45.82-18.82 45.28-20.13 44.03-20.13C41.82-20.13 40.35-16.54 39.94-14.88C39.46-12.83 39.20-10.59 39.20-8.13C39.20-6.43 39.36-4.83 39.65-3.30C40.22-0.35 41.47 1.95 43.90 1.95C46.27 1.95 48.51 0.13 50.14-2.11C50.85 0.67 52.06 2.50 54.18 2.50ZM67.74 0.67C70.94 0.67 73.63-2.72 75.52-4.93C75.65-5.06 75.71-5.25 75.71-5.41C75.71-5.57 75.65-5.66 75.55-5.66C75.49-5.66 75.42-5.63 75.36-5.57C74.37-4.45 71.39-0.61 68.99-0.61C68.35-0.61 67.81-0.77 67.81-1.50C67.81-2.88 69.50-5.18 69.50-5.89C69.50-6.82 68.54-7.39 67.68-7.39C67.04-7.39 66.46-7.07 66.05-6.59C65.47-7.42 64.83-8.16 63.74-8.16C61.44-8.16 59.39-5.22 59.39-3.07C59.39-1.82 60.03-1.15 61.28-1.15C63.10-1.28 64.26-3.39 66.18-4.80C66.18-4.64 65.82-3.42 65.82-2.08C65.86-0.51 66.11 0.67 67.74 0.67ZM62.59-2.85C62.37-2.85 62.21-3.10 62.21-3.68C62.21-5.25 63.10-7.04 63.90-7.36C64.45-7.36 65.09-6.75 65.09-6.05C65.09-5.89 65.06-5.76 64.99-5.60C64.77-5.12 63.30-2.85 62.59-2.85ZM79.17 1.12C81.31 1.12 83.65-0.61 85.25-1.92C85.70-2.30 88.93-4.90 88.93-5.22C88.93-5.54 88.38-5.63 88.16-5.63C87.97-5.63 87.71-5.63 87.58-5.47C86.34-3.74 82.11 0.35 79.71 0.35C79.55 0.35 79.39 0.32 79.23 0.29C77.57-0.16 77.15-3.46 77.15-6.18C77.15-8.03 77.34-9.63 77.47-9.92C77.54-9.98 85.38-10.30 89.57-10.30C90.59-10.30 91.42-10.30 91.84-10.24C92.67-10.11 92.54-9.70 93.15-9.70C93.47-9.70 93.66-9.79 93.66-10.02C93.66-10.11 93.60-10.27 93.44-10.43C93.09-10.78 90.53-10.91 87.55-10.91C83.42-10.91 78.53-10.69 77.63-10.66C77.73-11.49 78.75-15.42 80.00-16.80C80.13-16.93 80.19-17.09 80.19-17.22C80.19-17.95 78.75-18.62 77.57-18.62C77.02-18.62 76.48-18.46 76.19-18.08C75.55-17.25 75.10-11.90 74.82-10.59C73.12-10.53 70.72-10.30 69.12-10.30C68.38-10.30 67.97-10.37 67.65-10.43C67.62-10.43 67.58-10.37 67.58-10.24C67.58-10.02 67.78-9.60 68.51-9.60C70.53-9.60 72.74-9.82 74.75-9.82L74.72-7.10C74.72-3.46 75.17 1.12 79.17 1.12ZM89.22-7.17C89.73-7.17 90.34-7.46 90.62-7.87C90.69-7.97 90.72-8.13 90.72-8.29C90.72-8.80 90.43-9.47 89.47-9.47C88.86-9.47 88.26-8.80 88.22-8.48L88.19-8.19C88.19-7.49 88.67-7.17 89.22-7.17ZM89.79-1.02C92.77-1.02 96.67-3.49 97.41-5.28L97.44-5.31C97.41-5.66 96.99-5.70 96.74-5.70C96.35-5.63 96.10-5.18 95.94-4.93C94.66-3.04 92.29-1.66 89.98-1.66C89.25-1.70 88.99-2.08 88.99-2.62C88.99-3.52 89.70-4.80 89.95-5.18C89.98-5.22 89.98-5.28 89.98-5.31C89.98-5.63 89.31-6.11 88.26-6.11C86.94-6.11 86.82-5.02 86.82-3.84C86.82-1.76 87.94-1.02 89.79-1.02ZM106.02 1.92C108.96 1.92 110.94-0.61 112.54-5.25L112.54-5.31C112.54-5.44 112.45-5.50 112.32-5.50C112.03-5.50 111.62-5.28 111.52-4.99C110.08-0.32 108.10 0.99 106.88 0.99C106.02 0.99 105.82 0.51 105.82-0.61C105.82-1.79 106.11-3.42 106.11-4.86C106.11-6.94 105.60-8.22 103.42-8.22C100.64-8.10 98.34-1.09 97.76-1.09C97.57-1.09 97.50-1.31 97.50-1.66C97.50-2.62 98.11-4.67 98.69-5.82L98.69-5.95C98.69-6.34 98.37-6.59 97.79-6.59C97.41-6.59 96.90-6.46 96.32-6.14C95.78-5.82 95.42-3.55 95.42-2.94C95.42-1.95 96.06-0.22 97.15-0.22C97.31-0.22 97.50-0.26 97.70-0.35C98.72-0.86 100.77-6.66 102.94-6.66C103.17-6.66 103.26-6.50 103.26-6.21C103.26-5.34 102.34-3.46 102.18-2.91C102.05-2.40 101.98-1.95 101.98-1.54C101.98 0.86 103.94 1.60 104.83 1.79C105.25 1.89 105.63 1.92 106.02 1.92ZM114.50-0.90C118.43-1.12 120.90-3.87 120.90-5.44C120.74-5.57 120.45-5.66 120.19-5.66C119.97-5.63 119.81-5.57 119.71-5.31C119.04-3.17 117.22-1.76 114.62-1.63L114.46-1.63C113.15-1.63 112.70-2.75 112.70-3.74C112.70-4.10 112.74-4.42 112.83-4.67C113.02-4.51 113.25-4.29 113.95-4.29L114.24-4.29C116.03-4.38 116.96-5.44 116.96-6.69C116.96-7.62 116-8.10 114.91-8.10L114.69-8.10C114.56-8.06 114.40-8.03 114.27-8.03C112.48-7.78 110.72-5.47 110.72-3.78C110.72-1.89 112.58-0.90 114.27-0.90ZM113.25-5.06L112.99-5.09C113.02-5.60 114.30-6.82 114.82-6.85C114.94-6.85 115.01-6.78 115.01-6.62C115.01-5.82 114.53-5.12 113.47-5.09Z"/></svg>