<svg id="mainsvg" xmlns="http://www.w3.org/2000/svg" xmlns:xlink="http://www.w3.org/1999/xlink" version="1.1" x="0px" y="0px" enable-background="new 0 0 200 162.5" xml:space="preserve" viewBox="0 0 85 26"><path fill="#000" transform="translate(-0.384, 25.28)" d="M3.58-19.55L7.78-19.55L7.78-2.88L5.22-2.88C5.22-2.88 5.12-2.66 5.12-1.44C5.12-0.26 5.22 0 5.22 0L14.62 0C14.62 0 14.72-0.32 14.72-1.44C14.72-2.53 14.62-2.88 14.62-2.88L12.06-2.88L12.06-19.55L16.38-19.55L16.38-17.18C16.38-17.18 17.47-17.09 17.98-17.09C18.46-17.09 19.58-17.18 19.58-17.18L19.58-22.59L0.38-22.59L0.38-17.18C0.38-17.18 1.54-17.09 2.05-17.09C2.53-17.09 3.58-17.18 3.58-17.18ZM23.49-13.73L23.49-7.81C23.49-3.68 23.52 0.67 28.48 0.67C30.69 0.67 33.34-0.99 34.50-2.72L34.59 0L40.74 0C40.74 0 40.90-0.45 40.90-1.41C40.90-2.30 40.74-2.88 40.74-2.88L38.30-2.88C38.30-2.88 38.14-4.70 38.14-7.90L38.14-16.61L31.97-16.61C31.97-16.61 31.87-16.10 31.87-15.20C31.87-14.24 31.97-13.73 31.97-13.73L34.30-13.73L34.30-7.42C33.31-5.31 31.07-3.23 29.31-3.23C27.81-3.23 27.33-4.74 27.33-6.66L27.33-16.61L21.15-16.61C21.15-16.61 21.06-16.10 21.06-15.20C21.06-14.24 21.15-13.73 21.15-13.73ZM46.53-22.08L46.53-2.88L43.33-2.88C43.33-2.88 43.23-2.40 43.23-1.44C43.23-0.54 43.33 0 43.33 0L53.25 0C53.25 0 53.34-0.54 53.34-1.44C53.34-2.40 53.25-2.88 53.25-2.88L50.37-2.88L50.37-25.28L43.97-25.28C43.97-25.28 43.81-24.61 43.81-23.65C43.81-22.75 43.97-22.08 43.97-22.08ZM58.98-13.73L58.98-2.88L55.78-2.88C55.78-2.88 55.68-2.40 55.68-1.44C55.68-0.54 55.78 0 55.78 0L65.70 0C65.70 0 65.79-0.54 65.79-1.44C65.79-2.40 65.70-2.88 65.70-2.88L62.82-2.88L62.82-16.61L56.42-16.61C56.42-16.61 56.32-16.13 56.32-15.17C56.32-14.27 56.42-13.73 56.42-13.73ZM58.18-21.66C58.18-20.22 59.39-19.01 60.83-19.01C62.30-19.01 63.46-20.22 63.46-21.66C63.46-23.14 62.30-24.29 60.83-24.29C59.39-24.29 58.18-23.14 58.18-21.66ZM83.30-2.88C83.30-2.88 83.23-3.97 83.23-4.74L83.23-11.26C83.23-14.69 82.91-17.28 76.06-17.28C72.45-17.28 69.31-15.30 69.31-15.30L69.31-11.62C69.31-11.62 69.76-11.46 70.91-11.46C71.90-11.46 72.51-11.62 72.51-11.62L72.51-13.41C72.51-13.41 74.27-14.24 76.06-14.24C79.36-14.24 79.39-12.99 79.39-10.05L76.77-10.05C73.76-10.05 72.22-9.86 70.59-8.99C68.67-7.97 68.06-6.24 68.06-4.64C68.06-2.34 69.82 0.48 74.21 0.48C76.48 0.48 77.92-0.38 79.49-1.76L79.58 0L85.22 0C85.22 0 85.31-0.16 85.31-1.44C85.31-2.53 85.22-2.88 85.22-2.88ZM71.90-4.77C71.90-7.01 74.91-7.01 76.77-7.01L79.39-7.01L79.39-4.86C78.27-3.81 76.48-2.56 74.21-2.56C72.64-2.56 71.90-3.81 71.90-4.77Z"/></svg>