<svg id="mainsvg" xmlns="http://www.w3.org/2000/svg" xmlns:xlink="http://www.w3.org/1999/xlink" version="1.1" x="0px" y="0px" enable-background="new 0 0 200 162.5" xml:space="preserve" viewBox="0 0 255 29"><path fill="#000" transform="translate(-0.512, 22.528)" d="M18.59-10.24C18.59-11.36 17.66-12.29 16.54-12.29L12.80-12.29C11.68-12.29 10.75-11.36 10.75-10.24C10.75-9.12 11.68-8.19 12.80-8.19L14.50-8.19L14.50-5.34C13.38-4.48 12.06-4.10 10.75-4.10C7.36-4.10 4.61-6.85 4.61-10.24C4.61-13.63 7.36-16.38 10.75-16.38C12.32-16.38 13.92-15.81 15.10-14.59C15.49-14.18 16-13.98 16.54-13.98C17.63-13.98 18.59-14.91 18.59-16.03C18.59-16.54 18.37-17.09 17.98-17.47C15.97-19.46 13.38-20.48 10.75-20.48C5.09-20.48 0.51-15.90 0.51-10.24C0.51-4.58 5.09 0 10.75 0C12.06 0 13.38-0.26 14.62-0.77C15.04-0.13 15.74 0.26 16.54 0.26C17.82 0.26 18.85-0.77 18.85-2.05C18.85-2.59 18.66-3.07 18.34-3.49C18.50-3.78 18.59-4.10 18.59-4.45ZM30.72 0C31.84 0 32.77-0.93 32.77-2.05C32.77-3.17 31.84-4.10 30.72-4.10L28.67-4.10C27.14-4.10 25.82-4.90 25.12-6.14L34.82-6.14C35.94-6.14 36.86-7.07 36.86-8.19C36.86-12.70 33.18-16.38 28.67-16.38C24.16-16.38 20.48-12.70 20.48-8.19C20.48-3.68 24.16 0 28.67 0ZM28.67-12.29C30.18-12.29 31.52-11.46 32.22-10.24L25.12-10.24C25.82-11.46 27.14-12.29 28.67-12.29ZM37.89-8.19C37.89-3.68 41.57 0 46.08 0C50.59 0 54.27-3.68 54.27-8.19C54.27-12.70 50.59-16.38 46.08-16.38C41.57-16.38 37.89-12.70 37.89-8.19ZM41.98-8.19C41.98-10.46 43.81-12.29 46.08-12.29C48.35-12.29 50.18-10.46 50.18-8.19C50.18-5.92 48.35-4.10 46.08-4.10C43.81-4.10 41.98-5.92 41.98-8.19ZM66.30-2.05C66.30-0.93 67.23 0 68.35 0C69.47 0 70.40-0.93 70.40-2.05L70.40-9.22C70.40-10.91 71.78-12.29 73.47-12.29C75.17-12.29 76.54-10.91 76.54-9.22L76.54-2.05C76.54-0.93 77.47 0 78.59 0C79.71 0 80.64-0.93 80.64-2.05L80.64-9.22C80.64-13.18 77.44-16.38 73.47-16.38C71.46-16.38 69.63-15.55 68.35-14.24C67.04-15.55 65.25-16.38 63.23-16.38C62.08-16.38 60.99-16.10 60.03-15.62C59.62-16.22 58.91-16.64 58.11-16.64C56.83-16.64 55.81-15.62 55.81-14.34C55.81-13.54 56.19-12.83 56.80-12.42C56.32-11.46 56.06-10.37 56.06-9.22L56.06-2.05C56.06-0.93 56.99 0 58.11 0C59.23 0 60.16-0.93 60.16-2.05L60.16-9.22C60.16-10.91 61.54-12.29 63.23-12.29C64.93-12.29 66.30-10.91 66.30-9.22ZM92.16 0C93.28 0 94.21-0.93 94.21-2.05C94.21-3.17 93.28-4.10 92.16-4.10L90.11-4.10C88.58-4.10 87.26-4.90 86.56-6.14L96.26-6.14C97.38-6.14 98.30-7.07 98.30-8.19C98.30-12.70 94.62-16.38 90.11-16.38C85.60-16.38 81.92-12.70 81.92-8.19C81.92-3.68 85.60 0 90.11 0ZM90.11-12.29C91.62-12.29 92.96-11.46 93.66-10.24L86.56-10.24C87.26-11.46 88.58-12.29 90.11-12.29ZM101.12-16.38C100.00-16.38 99.07-15.46 99.07-14.34C99.07-13.22 100.00-12.29 101.12-12.29L102.66-12.29L102.66-6.14C102.66-2.75 105.41 0 108.80 0L109.82 0C110.94 0 111.87-0.93 111.87-2.05C111.87-3.17 110.94-4.10 109.82-4.10L108.80-4.10C107.68-4.10 106.75-5.02 106.75-6.14L106.75-12.29L109.82-12.29C110.94-12.29 111.87-13.22 111.87-14.34C111.87-15.46 110.94-16.38 109.82-16.38L106.75-16.38L106.75-18.43C106.75-19.55 105.82-20.48 104.70-20.48C103.58-20.48 102.66-19.55 102.66-18.43L102.66-16.38ZM113.15-14.34C113.15-13.41 113.70-12.61 114.50-12.22C113.79-11.04 113.41-9.66 113.41-8.19L113.41-2.05C113.41-0.93 114.34 0 115.46 0C116.58 0 117.50-0.93 117.50-2.05L117.50-8.19C117.50-10.46 119.33-12.29 121.60-12.29C122.72-12.29 123.65-13.22 123.65-14.34C123.65-15.46 122.72-16.38 121.60-16.38C120.13-16.38 118.75-15.97 117.54-15.30C117.18-16.10 116.38-16.64 115.46-16.64C114.18-16.64 113.15-15.62 113.15-14.34ZM132.86 2.05C131.81 2.05 130.78 1.66 129.95 0.86C129.57 0.48 129.06 0.26 128.51 0.26C127.42 0.26 126.46 1.22 126.46 2.30C126.46 2.85 126.69 3.36 127.07 3.74C128.67 5.34 130.78 6.14 132.86 6.14C137.38 6.14 141.06 2.46 141.06-2.05L141.06-14.34C141.06-15.46 140.13-16.38 139.01-16.38C137.89-16.38 136.96-15.46 136.96-14.34L136.96-8.19C136.96-5.92 135.14-4.10 132.86-4.10C130.59-4.10 128.77-5.92 128.77-8.19L128.77-14.34C128.77-15.46 127.84-16.38 126.72-16.38C125.60-16.38 124.67-15.46 124.67-14.34L124.67-8.19C124.67-3.68 128.35 0 132.86 0C134.30 0 135.65-0.38 136.83-1.02C136.38 0.74 134.78 2.05 132.86 2.05ZM145.15-4.10C144.03-4.10 143.10-3.17 143.10-2.05C143.10-0.93 144.03 0 145.15 0L155.39 0C158.78 0 161.54-2.75 161.54-6.14C161.54-9.54 158.78-12.29 155.39-12.29L149.25-12.29C148.13-12.29 147.20-13.22 147.20-14.34C147.20-15.46 148.13-16.38 149.25-16.38L158.46-16.38C159.58-16.38 160.51-17.31 160.51-18.43C160.51-19.55 159.58-20.48 158.46-20.48L149.25-20.48C145.86-20.48 143.10-17.73 143.10-14.34C143.10-10.94 145.86-8.19 149.25-8.19L155.39-8.19C156.51-8.19 157.44-7.26 157.44-6.14C157.44-5.02 156.51-4.10 155.39-4.10ZM162.30-8.19C162.30-3.68 165.98 0 170.50 0C175.01 0 178.69-3.68 178.69-8.19C178.69-12.70 175.01-16.38 170.50-16.38C165.98-16.38 162.30-12.70 162.30-8.19ZM166.40-8.19C166.40-10.46 168.22-12.29 170.50-12.29C172.77-12.29 174.59-10.46 174.59-8.19C174.59-5.92 172.77-4.10 170.50-4.10C168.22-4.10 166.40-5.92 166.40-8.19ZM190.21-12.29C191.33-12.29 192.26-13.22 192.26-14.34C192.26-15.46 191.33-16.38 190.21-16.38L187.14-16.38C187.14-17.50 188.06-18.43 189.18-18.43L190.21-18.43C191.33-18.43 192.26-19.36 192.26-20.48C192.26-21.60 191.33-22.53 190.21-22.53L189.18-22.53C185.79-22.53 183.04-19.78 183.04-16.38L181.50-16.38C180.38-16.38 179.46-15.46 179.46-14.34C179.46-13.22 180.38-12.29 181.50-12.29L183.04-12.29L183.04-2.05C183.04-0.93 183.97 0 185.09 0C186.21 0 187.14-0.93 187.14-2.05L187.14-12.29ZM194.82-16.38C193.70-16.38 192.77-15.46 192.77-14.34C192.77-13.22 193.70-12.29 194.82-12.29L196.35-12.29L196.35-6.14C196.35-2.75 199.10 0 202.50 0L203.52 0C204.64 0 205.57-0.93 205.57-2.05C205.57-3.17 204.64-4.10 203.52-4.10L202.50-4.10C201.38-4.10 200.45-5.02 200.45-6.14L200.45-12.29L203.52-12.29C204.64-12.29 205.57-13.22 205.57-14.34C205.57-15.46 204.64-16.38 203.52-16.38L200.45-16.38L200.45-18.43C200.45-19.55 199.52-20.48 198.40-20.48C197.28-20.48 196.35-19.55 196.35-18.43L196.35-16.38ZM218.37-6.14C222.34-6.14 225.54-9.34 225.54-13.31C225.54-17.28 222.34-20.48 218.37-20.48L209.15-20.48C208.03-20.48 207.10-19.55 207.10-18.43L207.10-2.05C207.10-0.93 208.03 0 209.15 0C210.27 0 211.20-0.93 211.20-2.05L211.20-6.14ZM218.37-16.38C220.06-16.38 221.44-15.01 221.44-13.31C221.44-11.62 220.06-10.24 218.37-10.24L211.20-10.24L211.20-16.38ZM227.07-14.34C227.07-13.41 227.62-12.61 228.42-12.22C227.71-11.04 227.33-9.66 227.33-8.19L227.33-2.05C227.33-0.93 228.26 0 229.38 0C230.50 0 231.42-0.93 231.42-2.05L231.42-8.19C231.42-10.46 233.25-12.29 235.52-12.29C236.64-12.29 237.57-13.22 237.57-14.34C237.57-15.46 236.64-16.38 235.52-16.38C234.05-16.38 232.67-15.97 231.46-15.30C231.10-16.10 230.30-16.64 229.38-16.64C228.10-16.64 227.07-15.62 227.07-14.34ZM238.34-8.19C238.34-3.68 242.02 0 246.53 0C251.04 0 254.72-3.68 254.72-8.19C254.72-12.70 251.04-16.38 246.53-16.38C242.02-16.38 238.34-12.70 238.34-8.19ZM242.43-8.19C242.43-10.46 244.26-12.29 246.53-12.29C248.80-12.29 250.62-10.46 250.62-8.19C250.62-5.92 248.80-4.10 246.53-4.10C244.26-4.10 242.43-5.92 242.43-8.19Z"/></svg>