<svg id="mainsvg" xmlns="http://www.w3.org/2000/svg" xmlns:xlink="http://www.w3.org/1999/xlink" version="1.1" x="0px" y="0px" enable-background="new 0 0 200 162.5" xml:space="preserve" viewBox="0 0 118 20"><path fill="#000" transform="translate(-0.64, 19.136)" d="M2.98-6.14L2.98-10.62Q2.05-10.62 1.34-11.33Q0.64-12.03 0.64-12.96L0.64-12.96Q0.64-13.89 1.34-14.51Q2.05-15.14 2.98-15.14L2.98-15.14L2.98-16.96Q2.98-17.89 3.68-18.51Q4.38-19.14 5.31-19.14L5.31-19.14Q6.21-19.14 6.82-18.51Q7.42-17.89 7.42-16.96L7.42-16.96L7.42-16.19L8.51-16.19Q9.44-16.19 10.14-15.58Q10.85-14.98 10.85-14.05L10.85-14.05Q10.85-13.12 10.14-12.42Q9.44-11.71 8.51-11.71L8.51-11.71L7.42-11.71L7.42-6.14Q7.55-5.44 7.89-4.94Q8.22-4.45 8.67-4L8.67-4Q9.38-3.42 9.57-2.51Q9.76-1.60 9.15-0.90L9.15-0.90Q8.54-0.19 7.71-0.08Q6.88 0.03 6.05-0.42L6.05-0.42Q4.77-1.47 4-2.94Q3.23-4.42 2.98-6.14L2.98-6.14ZM22.88-7.52L22.88-14.21Q22.88-15.10 23.49-15.73Q24.10-16.35 25.02-16.35L25.02-16.35Q25.98-16.35 26.67-15.73Q27.36-15.10 27.36-14.21L27.36-14.21L27.36-2.46Q27.36-1.54 26.67-0.83Q25.98-0.13 25.02-0.13L25.02-0.13Q24.48-0.13 24-0.45Q23.52-0.77 23.17-1.22L23.17-1.22Q22.37-0.77 21.38-0.45Q20.38-0.13 19.33-0.13L19.33-0.13Q17.70-0.13 16.29-0.70Q14.88-1.28 13.81-2.27Q12.74-3.26 12.08-4.61Q11.42-5.95 11.33-7.52L11.33-7.52L11.33-13.12Q11.33-14.05 11.94-14.67Q12.54-15.30 13.47-15.30L13.47-15.30Q14.40-15.30 15.09-14.67Q15.78-14.05 15.78-13.12L15.78-13.12L15.78-7.52Q16.03-6.27 16.98-5.44Q17.92-4.61 19.33-4.61L19.33-4.61Q20.61-4.61 21.62-5.38Q22.62-6.14 22.88-7.52L22.88-7.52ZM30.69-6.14L30.69-10.62Q29.76-10.62 29.06-11.33Q28.35-12.03 28.35-12.96L28.35-12.96Q28.35-13.89 29.06-14.51Q29.76-15.14 30.69-15.14L30.69-15.14L30.69-16.96Q30.69-17.89 31.39-18.51Q32.10-19.14 33.02-19.14L33.02-19.14Q33.92-19.14 34.53-18.51Q35.14-17.89 35.14-16.96L35.14-16.96L35.14-16.19L36.22-16.19Q37.15-16.19 37.86-15.58Q38.56-14.98 38.56-14.05L38.56-14.05Q38.56-13.12 37.86-12.42Q37.15-11.71 36.22-11.71L36.22-11.71L35.14-11.71L35.14-6.14Q35.26-5.44 35.60-4.94Q35.94-4.45 36.38-4L36.38-4Q37.09-3.42 37.28-2.51Q37.47-1.60 36.86-0.90L36.86-0.90Q36.26-0.19 35.42-0.08Q34.59 0.03 33.76-0.42L33.76-0.42Q32.48-1.47 31.71-2.94Q30.94-4.42 30.69-6.14L30.69-6.14ZM46.78-4.45L46.78-4.45Q48.32-4.45 49.30-5.46Q50.27-6.46 50.27-8L50.27-8Q50.27-8.77 50.02-9.44Q49.76-10.11 49.30-10.61Q48.83-11.10 48.19-11.41Q47.55-11.71 46.78-11.71L46.78-11.71Q46.02-11.71 45.36-11.41Q44.70-11.10 44.22-10.61Q43.74-10.11 43.47-9.44Q43.20-8.77 43.20-8L43.20-8Q43.20-7.23 43.47-6.59Q43.74-5.95 44.22-5.47Q44.70-4.99 45.36-4.72Q46.02-4.45 46.78-4.45ZM54.78-8.32L54.78-2.30Q54.78-1.38 54.18-0.69Q53.57 0 52.64 0L52.64 0Q51.90 0 51.44-0.32Q50.98-0.64 50.59-1.09L50.59-1.09Q49.79-0.64 48.80-0.32Q47.81 0 46.78 0L46.78 0Q45.09 0 43.62-0.64Q42.14-1.28 41.07-2.38Q40-3.49 39.38-4.94Q38.75-6.40 38.75-8L38.75-8Q38.75-9.66 39.38-11.14Q40-12.61 41.07-13.70Q42.14-14.78 43.62-15.41Q45.09-16.03 46.78-16.03L46.78-16.03Q48.42-16.03 49.84-15.44Q51.26-14.85 52.34-13.81Q53.41-12.77 54.06-11.36Q54.72-9.95 54.78-8.32L54.78-8.32ZM64.35-16.10L64.35-16.10Q65.95-16.10 67.39-15.52Q68.83-14.94 69.92-13.94Q71.01-12.93 71.65-11.54Q72.29-10.14 72.29-8.48L72.29-8.48L72.29-2.40Q72.29-1.44 71.62-0.77Q70.94-0.10 70.02-0.10L70.02-0.10Q69.09-0.10 68.48-0.77Q67.87-1.44 67.87-2.40L67.87-2.40L67.87-8.48Q67.74-9.41 67.36-10.14L67.36-10.14Q67.01-10.78 66.30-11.31Q65.60-11.84 64.35-11.84L64.35-11.84Q63.07-11.84 62.38-11.31Q61.70-10.78 61.34-10.14L61.34-10.14Q60.96-9.41 60.86-8.48L60.86-8.48L60.86-3.46Q60.86-2.53 60.19-1.82Q59.52-1.12 58.59-1.12L58.59-1.12Q57.63-1.12 57.04-1.82Q56.45-2.53 56.45-3.46L56.45-3.46L56.45-13.95Q56.45-14.91 57.04-15.50Q57.63-16.10 58.59-16.10L58.59-16.10Q59.14-16.10 59.66-15.87Q60.19-15.65 60.45-15.23L60.45-15.23Q61.34-15.65 62.34-15.87Q63.33-16.10 64.35-16.10ZM78.27-9.57L78.27-9.57Q77.92-8.86 77.92-8.14Q77.92-7.42 78.18-6.78Q78.43-6.14 78.93-5.62Q79.42-5.09 80.13-4.80L80.13-4.80Q81.57-4.22 82.90-4.74Q84.22-5.25 84.93-6.66L84.93-6.66Q85.22-7.36 85.18-8.08Q85.15-8.80 84.90-9.44Q84.64-10.08 84.16-10.61Q83.68-11.14 83.04-11.42L83.04-11.42Q82.37-11.71 81.63-11.73Q80.90-11.74 80.26-11.49Q79.62-11.23 79.09-10.75Q78.56-10.27 78.27-9.57ZM88.90-4.99L88.90-4.99Q88.22-3.39 87.06-2.29Q85.89-1.18 84.46-0.61Q83.04-0.03 81.44-0.05Q79.84-0.06 78.27-0.77L78.27-0.77Q76.77-1.41 75.71-2.56Q74.66-3.71 74.08-5.15Q73.50-6.59 73.49-8.18Q73.47-9.76 74.11-11.26L74.11-11.26Q74.82-12.83 76.02-13.95Q77.22-15.07 78.66-15.63Q80.10-16.19 81.66-16.18Q83.23-16.16 84.74-15.46L84.74-15.46Q86.24-14.82 87.33-13.65Q88.42-12.48 88.98-11.06Q89.54-9.63 89.54-8.05Q89.54-6.46 88.90-4.99ZM91.90 0.03L91.90 0.03Q91.42 0.03 91.01-0.35Q90.59-0.74 90.59-1.28L90.59-1.28Q90.59-1.79 91.01-2.19Q91.42-2.59 91.90-2.59L91.90-2.59Q92.45-2.59 92.83-2.21Q93.22-1.82 93.22-1.28L93.22-1.28Q93.22-0.74 92.83-0.35Q92.45 0.03 91.90 0.03ZM101.76-16.03L101.76-16.03Q102.05-16.10 102.34-16.08Q102.62-16.06 102.85-16.06L102.85-16.06Q103.10-16.03 103.33-16.03L103.33-16.03Q104.26-16.03 104.86-15.41Q105.47-14.78 105.47-13.86L105.47-13.86Q105.47-12.93 104.86-12.24Q104.26-11.55 103.33-11.55L103.33-11.55Q103.07-11.58 102.78-11.62L102.78-11.62Q102.30-11.65 101.76-11.55L101.76-11.55Q100.48-11.33 99.66-10.37Q98.85-9.41 98.85-8L98.85-8Q98.85-7.36 99.07-6.78Q99.30-6.21 99.68-5.73Q100.06-5.25 100.59-4.91Q101.12-4.58 101.76-4.45L101.76-4.45L103.33-4.45Q104.26-4.45 104.86-3.84Q105.47-3.23 105.47-2.30L105.47-2.30Q105.47-1.38 104.86-0.69Q104.26 0 103.33 0L103.33 0L101.76 0Q100.19-0.19 98.85-0.88Q97.50-1.57 96.50-2.64Q95.49-3.71 94.91-5.09Q94.34-6.46 94.34-8L94.34-8Q94.34-9.63 94.91-11.04Q95.49-12.45 96.50-13.52Q97.50-14.59 98.85-15.25Q100.19-15.90 101.76-16.03ZM114.14-16.03L114.14-16.03Q114.43-16.10 114.72-16.08Q115.01-16.06 115.23-16.06L115.23-16.06Q115.49-16.03 115.71-16.03L115.71-16.03Q116.64-16.03 117.25-15.41Q117.86-14.78 117.86-13.86L117.86-13.86Q117.86-12.93 117.25-12.24Q116.64-11.55 115.71-11.55L115.71-11.55Q115.46-11.58 115.17-11.62L115.17-11.62Q114.69-11.65 114.14-11.55L114.14-11.55Q112.86-11.33 112.05-10.37Q111.23-9.41 111.23-8L111.23-8Q111.23-7.36 111.46-6.78Q111.68-6.21 112.06-5.73Q112.45-5.25 112.98-4.91Q113.50-4.58 114.14-4.45L114.14-4.45L115.71-4.45Q116.64-4.45 117.25-3.84Q117.86-3.23 117.86-2.30L117.86-2.30Q117.86-1.38 117.25-0.69Q116.64 0 115.71 0L115.71 0L114.14 0Q112.58-0.19 111.23-0.88Q109.89-1.57 108.88-2.64Q107.87-3.71 107.30-5.09Q106.72-6.46 106.72-8L106.72-8Q106.72-9.63 107.30-11.04Q107.87-12.45 108.88-13.52Q109.89-14.59 111.23-15.25Q112.58-15.90 114.14-16.03Z"/></svg>