<svg id="mainsvg" xmlns="http://www.w3.org/2000/svg" xmlns:xlink="http://www.w3.org/1999/xlink" version="1.1" x="0px" y="0px" enable-background="new 0 0 200 162.5" xml:space="preserve" viewBox="0 0 161 26"><path fill="#000" transform="translate(-2.08, 24.928)" d="M17.92 0L8.74-12.32L17.25-24.67L13.66-24.67L6.30-13.79L5.12-13.79L5.12-24.67L2.08-24.67L2.08 0L5.12 0L5.12-10.62L6.30-10.62L14.18 0ZM30.56-5.44C30.56-3.52 29.34-2.62 26.66-2.62C23.97-2.62 22.75-3.39 22.75-6.72L22.75-8.13L33.57-8.13L33.57-12.13C33.57-16.99 30.85-18.82 26.66-18.82C22.40-18.82 19.74-17.02 19.74-12.13L19.74-6.66C19.74-1.63 21.66 0.19 26.66 0.19C31.52 0.19 33.50-1.82 33.50-5.44ZM22.75-12.13C22.75-15.46 24.26-16.13 26.66-16.13C29.06-16.13 30.66-15.42 30.66-12.13L30.66-10.78L22.75-10.78ZM37.50-4.86C37.50-0.93 38.75 0 42.40 0L42.40-3.01C41.06-3.01 40.48-3.39 40.48-4.90L40.48-24.70L37.50-24.70ZM57.47-13.44C57.57-16.90 55.55-18.94 51.23-18.94C46.85-18.94 44.74-16.51 44.74-13.22C44.74-8.99 48.19-8.32 50.46-8.16C52.77-8 54.94-7.81 54.94-5.60C54.94-3.81 53.66-2.62 51.36-2.62C49.41-2.62 47.81-3.42 47.65-5.79L44.58-5.79C44.74-1.82 47.07 0.16 51.36 0.16C55.23 0.16 57.98-1.73 57.98-5.63C57.98-10.18 54.59-10.59 51.74-10.85C49.47-11.04 47.78-11.01 47.78-13.22C47.78-15.23 49.02-16.19 51.14-16.19C53.50-16.19 54.56-15.20 54.56-13.44ZM67.58-2.34C64.86-2.34 63.62-3.42 63.62-6.82L63.62-12.16C63.62-15.55 65.06-16.22 67.58-16.22C70.11-16.22 71.55-15.55 71.55-12.16L71.55-6.82C71.55-3.42 70.40-2.34 67.58-2.34ZM67.58 0.32C72.54 0.32 74.59-1.73 74.59-6.82L74.59-12.16C74.59-17.12 71.90-18.94 67.58-18.94C63.26-18.94 60.58-17.12 60.58-12.16L60.58-6.82C60.58-1.73 62.53 0.32 67.58 0.32ZM78.72 0L81.79 0L81.79-12.19C81.79-14.85 83.62-16.16 85.92-16.16C88.13-16.16 89.57-14.82 89.57-12.16L89.57 0L92.64 0L92.64-12.19C92.64-17.18 90.56-18.94 86.43-18.94C84.61-18.94 82.75-18.56 81.63-16.74L81.44-18.72L78.72-18.72ZM110.88-18.59C110.66-22.66 108.67-24.93 103.78-24.93C98.59-24.93 96.51-22.56 96.51-17.98C96.51-13.28 99.81-11.87 102.69-11.65C105.76-11.39 108.42-11.33 108.42-7.30C108.42-4.42 107.74-2.85 104.42-2.85L103.81-2.85C100.64-2.85 99.71-4.45 99.55-6.53L96.26-6.53C96.48-2.34 98.78 0.13 103.84 0.13L104.45 0.13C109.54 0.13 111.55-2.14 111.55-7.46C111.55-12.61 108.61-14.02 105.76-14.30C102.66-14.62 99.68-14.59 99.68-18.02C99.68-20.48 100.35-22.05 103.78-22.05C106.85-22.05 107.55-20.61 107.71-18.59ZM127.74-12.64C127.74-17.18 125.31-18.91 121.22-18.91C117.25-18.91 115.07-17.15 115.20-12.99L118.18-12.99C118.14-15.52 119.36-16.13 121.12-16.13C123.94-16.13 124.67-14.75 124.67-12.64L124.67-10.82C123.20-10.78 121.63-10.75 120.16-10.53C116.32-9.98 114.08-7.62 114.40-4.32C114.62-2.11 115.68 0.16 119.97 0.16C122.24 0.16 124.06-1.15 124.74-2.53L124.99 0L127.74 0ZM124.74-8.29C124.64-5.22 123.65-2.75 120.29-2.75C118.91-2.75 117.60-3.23 117.47-4.70C117.25-6.53 118.34-7.52 120.42-7.97C122.02-8.32 123.87-8.29 124.74-8.29ZM132.29 0L135.36 0L135.36-12.19C135.36-14.85 137.18-16.16 139.49-16.16C141.70-16.16 143.14-14.82 143.14-12.16L143.14 0L146.21 0L146.21-12.19C146.21-17.18 144.13-18.94 140.00-18.94C138.18-18.94 136.32-18.56 135.20-16.74L135.01-18.72L132.29-18.72ZM162.53-13.44C162.62-16.90 160.61-18.94 156.29-18.94C151.90-18.94 149.79-16.51 149.79-13.22C149.79-8.99 153.25-8.32 155.52-8.16C157.82-8 160.00-7.81 160.00-5.60C160.00-3.81 158.72-2.62 156.42-2.62C154.46-2.62 152.86-3.42 152.70-5.79L149.63-5.79C149.79-1.82 152.13 0.16 156.42 0.16C160.29 0.16 163.04-1.73 163.04-5.63C163.04-10.18 159.65-10.59 156.80-10.85C154.53-11.04 152.83-11.01 152.83-13.22C152.83-15.23 154.08-16.19 156.19-16.19C158.56-16.19 159.62-15.20 159.62-13.44Z"/></svg>