<svg id="mainsvg" xmlns="http://www.w3.org/2000/svg" xmlns:xlink="http://www.w3.org/1999/xlink" version="1.1" x="0px" y="0px" enable-background="new 0 0 200 162.5" xml:space="preserve" viewBox="0 0 159 24"><path fill="#000" transform="translate(-2.176, 22.72)" d="M2.18 0L18.46 0L18.46-4.22L6.53-4.22L6.53-22.40L2.18-22.40ZM31.74-22.72L31.74-18.62C35.97-18.62 39.17-16.19 39.17-11.20C39.17-6.21 35.97-3.74 31.74-3.74C27.65-3.74 24.48-6.21 24.48-11.20C24.48-11.20 20.13-11.20 20.13-11.20C20.13-3.81 25.28 0.32 31.74 0.32C38.37 0.32 43.49-3.49 43.49-11.20C43.49-18.56 38.37-22.72 31.74-22.72ZM50.14-11.20C50.14-15.55 53.15-18.91 57.63-18.91C61.06-18.91 63.26-17.31 64.10-14.75L68.67-14.75C67.58-20.35 63.71-22.72 57.60-22.72C50.46-22.72 45.95-18.24 45.95-11.20ZM57.28 0L64.70-5.34L64.70 0L68.74 0C68.74-0.16 68.74-11.78 68.74-11.94L56.83-11.94L56.83-8.80L63.30-8.80L51.07 0ZM76.90-18.94L76.90-22.40L72.54-22.40L72.54-18.94ZM72.54 0L76.86 0L76.86-16L72.54-16ZM81.25 0L85.57 0L85.57-7.90L90.59-7.90L94.78 0L99.65 0L94.43-8.64C97.15-9.98 98.37-12.93 98.37-15.33C98.37-19.84 95.55-22.40 90.50-22.40L81.25-22.40L81.25-18.62L90.02-18.62C92.90-18.62 94.30-17.44 94.30-15.23C94.30-12.86 92.64-11.49 90.05-11.49L81.25-11.49ZM136.51 0L140.74 0L140.74-22.40L136.61-22.40L136.61-6.98L136.45-6.98L125.63-22.40L101.73-22.40L101.73-18.21L124.06-18.21ZM122.40 0L126.59 0L126.59-9.63L122.40-15.62ZM118.30-9.22L118.30-13.18L101.73-13.18L101.73-9.22ZM101.73 0L118.30 0L118.30-4.22L101.73-4.22ZM143.10-22.40L143.10-18.21L160.90-18.21L160.90-22.40ZM149.86-15.36L149.86 0L154.18 0L154.18-15.36Z"/></svg>