<svg id="mainsvg" xmlns="http://www.w3.org/2000/svg" xmlns:xlink="http://www.w3.org/1999/xlink" version="1.1" x="0px" y="0px" enable-background="new 0 0 200 162.5" xml:space="preserve" viewBox="0 0 123 25"><path fill="#000" transform="translate(-0.78472900390625, 23.732142857142858)" d="M10.81-22.06L10.81-22.06Q11.72-22 12.44-21.13L12.44-21.13Q12.56-20.94 12.69-20.77Q12.81-20.59 12.88-20.38L12.88-20.38Q13.06-19.91 13-19.03Q12.94-18.16 13.09-17.61Q13.25-17.06 13.41-16.56L13.41-16.56Q13.69-15.69 13.06-14.22L13.06-14.22Q12.59-12.88 11.91-12.63L11.91-12.63L11.34-12.44Q10.53-12.16 9.95-12.23Q9.38-12.31 9.16-12.56L9.16-12.56Q8.53-13.38 8.84-14.44L8.84-14.44Q8.91-14.66 8.84-15.13Q8.78-15.59 8.31-15.72L8.31-15.72Q8.06-15.78 7.98-15.94Q7.91-16.09 7.86-16.20Q7.81-16.31 7.77-16.36Q7.72-16.41 7.47-16.22Q7.22-16.03 7.19-16.02Q7.16-16 6.98-16.06Q6.81-16.13 6.66-16.03Q6.50-15.94 6.34-15.69L6.34-15.69Q5.78-14.72 6.13-12.53L6.13-12.53Q6.25-11.88 6.38-11.31L6.38-11.31Q6.63-9.91 6.61-9.44Q6.59-8.97 6.42-8.45Q6.25-7.94 6.13-7.44L6.13-7.44Q5.75-6.16 6.22-5.25L6.22-5.25Q6.78-4.13 6.94-3.94L6.94-3.94Q7.22-3.66 7.63-3.70Q8.03-3.75 8.25-4.11Q8.47-4.47 8.66-4.89Q8.84-5.31 9.06-5.69Q9.28-6.06 9.58-6.13Q9.88-6.19 10.34-6.14Q10.81-6.09 10.98-6.09Q11.16-6.09 11.41-5.89Q11.66-5.69 11.67-4.98Q11.69-4.28 11.72-3.86Q11.75-3.44 11.50-3.11Q11.25-2.78 11.17-2.52Q11.09-2.25 11.06-2L11.06-2Q11.03-1.34 10.83-1.03Q10.63-0.72 10.45-0.52Q10.28-0.31 9.55-0.31Q8.81-0.31 8.22 0.38Q7.63 1.06 7.09 0.98Q6.56 0.91 6.34 0.34L6.34 0.34Q6.13-0.16 5.38-0.19L5.38-0.19Q5.16-0.22 4.97-0.30Q4.78-0.38 4.53-0.42Q4.28-0.47 4.03-0.63L4.03-0.63Q3.41-0.97 3-1.72L3-1.72Q2.75-2.19 2.52-2.50Q2.28-2.81 2.13-3.09L2.13-3.09Q1.72-3.72 1.81-4.28L1.81-4.28Q2-5.78 1.41-6.25L1.41-6.25Q1.06-6.47 1.06-6.59Q1.06-6.72 0.94-7.13L0.94-7.13Q0.75-7.69 0.95-8.44Q1.16-9.19 1.09-9.67Q1.03-10.16 0.94-10.69L0.94-10.69Q0.75-12.06 0.91-12.50Q1.06-12.94 0.98-13.75Q0.91-14.56 0.91-15.08Q0.91-15.59 0.83-16.44Q0.75-17.28 0.81-18.25L0.81-18.25Q1.03-20.69 2.47-21.59L2.47-21.59Q4.63-22.88 5.22-22.81L5.22-22.81Q5.41-22.81 5.67-22.77Q5.94-22.72 6.19-22.78Q6.44-22.84 6.63-22.97Q6.81-23.09 7-23.25L7-23.25Q7.75-23.94 8.34-23.41L8.34-23.41Q8.91-22.75 9.22-22.53L9.22-22.53Q9.75-22.13 10.81-22.06ZM22.91-22.47L22.91-22.47L23.91-22.53Q24.97-22.53 25.42-22.19Q25.88-21.84 26.11-21.56Q26.34-21.28 26.53-20.98Q26.72-20.69 27.05-20.38Q27.38-20.06 27.38-19.64Q27.38-19.22 27.61-18.97Q27.84-18.72 27.84-18.16Q27.84-17.59 27.83-17.08Q27.81-16.56 27.72-16.23Q27.63-15.91 27.63-15.58Q27.63-15.25 27.77-14.98Q27.91-14.72 27.80-13.70Q27.69-12.69 27.45-11.66Q27.22-10.63 26.84-9.88L26.84-9.88Q26.09-8.47 24.41-7.66L24.41-7.66Q24.56-7.28 24.77-6.83Q24.97-6.38 25.16-5.91L25.16-5.91Q25.56-4.75 25.56-4.23Q25.56-3.72 25.61-3.48Q25.66-3.25 25.72-3.13Q25.78-3 25.89-2.94Q26-2.88 26.22-2.70Q26.44-2.53 26.56-2.13Q26.69-1.72 26.69-1.28L26.69-1.28Q26.69-0.28 26.45-0.05Q26.22 0.19 25.95 0.27Q25.69 0.34 25.41 0.38L25.41 0.38Q24.69 0.47 24.50 0.19L24.50 0.19Q24.25-0.06 24.23-0.33Q24.22-0.59 24.13-0.80Q24.03-1 23.84-1.05Q23.66-1.09 23.58-1.44Q23.50-1.78 23.36-1.89Q23.22-2 22.78-1.94L22.78-1.94Q22-1.78 21.63-2.88L21.63-2.88Q21.53-3.13 21.44-3.53Q21.34-3.94 21.22-4.31L21.22-4.31Q20.97-5.22 20.64-5.30Q20.31-5.38 20.16-5.22Q20-5.06 19.92-4.80Q19.84-4.53 19.84-4.20Q19.84-3.88 19.92-3.50Q20-3.13 19.94-2.88Q19.88-2.63 19.77-2.47Q19.66-2.31 19.53-2.19L19.53-2.19Q19.28-2.03 19.23-1.56Q19.19-1.09 19.09-0.75L19.09-0.75Q18.91 0.09 18.59 0.31Q18.28 0.53 17.97 0.58Q17.66 0.63 17.34 0.56L17.34 0.56Q16.56 0.41 16.38 0.02Q16.19-0.38 16.16-0.58Q16.13-0.78 16.14-0.97Q16.16-1.16 16.19-1.38Q16.22-1.59 16.20-1.89Q16.19-2.19 16.06-2.69Q15.94-3.19 15.91-3.88L15.91-3.88L15.88-4.69Q15.88-4.81 16.09-5.11Q16.31-5.41 16.23-5.80Q16.16-6.19 15.88-6.30Q15.59-6.41 15.59-6.56Q15.59-6.72 15.66-7.34Q15.72-7.97 15.61-8.91Q15.50-9.84 15.47-10.56L15.47-10.56Q15.34-12.13 14.92-12.33Q14.50-12.53 14.44-12.83Q14.38-13.13 14.44-13.50Q14.50-13.88 14.58-14.44Q14.66-15 14.75-15.58Q14.84-16.16 14.92-16.66Q15-17.16 15.03-17.34Q15.06-17.53 15.05-17.70Q15.03-17.88 15.03-18.03L15.03-18.03Q14.97-18.53 15.03-18.91L15.03-18.91Q15.16-19.63 15.09-19.92Q15.03-20.22 15.20-20.83Q15.38-21.44 15.50-21.69Q15.63-21.94 15.97-22.06Q16.31-22.19 16.64-22.42Q16.97-22.66 17.25-22.89Q17.53-23.13 17.75-23.33Q17.97-23.53 18.28-23.63L18.28-23.63Q19.19-23.81 19.61-23.67Q20.03-23.53 20.22-23.38Q20.41-23.22 20.67-23.06Q20.94-22.91 21.23-22.83Q21.53-22.75 21.78-22.75L21.78-22.75Q22.44-22.69 22.58-22.58Q22.72-22.47 22.91-22.47ZM20.31-13.75L20.31-13.75L20.50-10.91Q20.50-10.63 20.47-10.36Q20.44-10.09 20.41-9.88L20.41-9.88Q20.38-9.41 20.75-9.31L20.75-9.31Q21.06-9.25 21.25-9.48Q21.44-9.72 21.59-10.13L21.59-10.13Q21.97-10.91 21.84-11.13L21.84-11.13Q21.59-11.44 21.70-11.67Q21.81-11.91 22.17-12.59Q22.53-13.28 22.70-13.78Q22.88-14.28 22.78-14.86Q22.69-15.44 22.69-15.66L22.69-15.66L22.69-16Q22.69-16.25 22.45-16.45Q22.22-16.66 22.13-16.67Q22.03-16.69 21.97-16.69L21.97-16.69Q21.69-16.63 21.44-16.73Q21.19-16.84 20.97-16.83Q20.75-16.81 20.47-16.53Q20.19-16.25 20.16-15.95Q20.13-15.66 20.16-15.28L20.16-15.28Q20.31-14.16 20.31-13.75ZM30.03-5.88L30.03-5.88L30-7.47Q30-7.91 30.03-8.28L30.03-8.28Q30.06-8.69 29.97-9.28L29.97-9.28Q29.81-10.31 29.83-10.80Q29.84-11.28 29.83-11.58Q29.81-11.88 29.75-12.13L29.75-12.13Q29.66-12.50 29.30-13.31Q28.94-14.13 28.94-15.06Q28.94-16 29.34-16.56L29.34-16.56Q29.72-17.13 29.63-17.72Q29.53-18.31 29.48-18.98Q29.44-19.66 29.47-20.36Q29.50-21.06 29.78-21.72L29.78-21.72Q30.47-23.31 32.53-23.25L32.53-23.25Q33.81-23.22 34.75-23Q35.69-22.78 36.13-22.81Q36.56-22.84 37.47-23.13L37.47-23.13Q38.78-23.63 39.56-23.06L39.56-23.06Q39.78-22.91 39.98-22.83Q40.19-22.75 40.34-22.59L40.34-22.59Q40.88-22 40.66-20L40.66-20Q40.59-19.41 40.53-18.81L40.53-18.81Q40.38-17.41 40.53-16.72Q40.69-16.03 40.70-15.52Q40.72-15 40.66-14.59L40.66-14.59Q40.47-13.69 39.94-13.69L39.94-13.69Q39.47-13.72 39.27-13.98Q39.06-14.25 38.94-14.58Q38.81-14.91 38.67-15.17Q38.53-15.44 38.06-15.44L38.06-15.44Q36.69-15.44 36.23-15.73Q35.78-16.03 35.44-16.08Q35.09-16.13 34.78-16L34.78-16Q34.13-15.72 34.02-14.97Q33.91-14.22 33.88-13.66Q33.84-13.09 33.88-12.63L33.88-12.63Q33.94-11.53 34.30-11.39Q34.66-11.25 34.91-11.36Q35.16-11.47 35.41-11.63L35.41-11.63Q36.16-12.13 36.95-12.11Q37.75-12.09 38.14-11.47Q38.53-10.84 38.47-10.27Q38.41-9.69 38.36-9.13Q38.31-8.56 38.22-8.06L38.22-8.06Q37.78-6.13 36.41-7.31L36.41-7.31Q34.63-7.44 34.19-6.88L34.19-6.88Q34.09-6.72 34-6.22Q33.91-5.72 33.97-5.16L33.97-5.16Q34.13-3.69 35.38-3.59L35.38-3.59Q36.19-3.53 36.86-3.81Q37.53-4.09 37.75-4.44L37.75-4.44Q37.94-4.81 38.22-4.86Q38.50-4.91 38.72-4.95Q38.94-5 39.16-5Q39.38-5 39.59-4.94L39.59-4.94Q40.16-4.75 40.27-4.06Q40.38-3.38 40.13-2.81Q39.88-2.25 39.80-1.80Q39.72-1.34 39.66-1.13Q39.59-0.91 39.30-0.58Q39-0.25 38.83-0.03Q38.66 0.19 38.28-0.13L38.28-0.13Q37.59-0.66 36.63 0.50L36.63 0.50Q36.38 0.84 36.09 1Q35.81 1.16 35.22 1.13L35.22 1.13Q34.63 1.09 34.28 0.81Q33.94 0.53 33.66 0.25L33.66 0.25Q33.19-0.34 32.03-0.19L32.03-0.19Q31.34-0.09 30.91-0.78L30.91-0.78Q30.81-0.88 30.77-1.13Q30.72-1.38 30.66-1.69L30.66-1.69Q30.44-2.50 30.27-2.73Q30.09-2.97 30.08-3.34Q30.06-3.72 30-4.14Q29.94-4.56 29.91-4.77Q29.88-4.97 29.95-5.25Q30.03-5.53 30.03-5.88ZM42.94-5.88L42.94-5.88L42.91-7.47Q42.91-7.91 42.94-8.28L42.94-8.28Q42.97-8.69 42.88-9.28L42.88-9.28Q42.72-10.31 42.73-10.80Q42.75-11.28 42.73-11.58Q42.72-11.88 42.66-12.13L42.66-12.13Q42.56-12.50 42.20-13.31Q41.84-14.13 41.84-15.06Q41.84-16 42.25-16.56L42.25-16.56Q42.63-17.13 42.53-17.72Q42.44-18.31 42.39-18.98Q42.34-19.66 42.38-20.36Q42.41-21.06 42.69-21.72L42.69-21.72Q43.38-23.31 45.44-23.25L45.44-23.25Q46.72-23.22 47.66-23Q48.59-22.78 49.03-22.81Q49.47-22.84 50.38-23.13L50.38-23.13Q51.69-23.63 52.47-23.06L52.47-23.06Q52.69-22.91 52.89-22.83Q53.09-22.75 53.25-22.59L53.25-22.59Q53.78-22 53.56-20L53.56-20Q53.50-19.41 53.44-18.81L53.44-18.81Q53.28-17.41 53.44-16.72Q53.59-16.03 53.61-15.52Q53.63-15 53.56-14.59L53.56-14.59Q53.38-13.69 52.84-13.69L52.84-13.69Q52.38-13.72 52.17-13.98Q51.97-14.25 51.84-14.58Q51.72-14.91 51.58-15.17Q51.44-15.44 50.97-15.44L50.97-15.44Q49.59-15.44 49.14-15.73Q48.69-16.03 48.34-16.08Q48-16.13 47.69-16L47.69-16Q47.03-15.72 46.92-14.97Q46.81-14.22 46.78-13.66Q46.75-13.09 46.78-12.63L46.78-12.63Q46.84-11.53 47.20-11.39Q47.56-11.25 47.81-11.36Q48.06-11.47 48.31-11.63L48.31-11.63Q49.06-12.13 49.86-12.11Q50.66-12.09 51.05-11.47Q51.44-10.84 51.38-10.27Q51.31-9.69 51.27-9.13Q51.22-8.56 51.13-8.06L51.13-8.06Q50.69-6.13 49.31-7.31L49.31-7.31Q47.53-7.44 47.09-6.88L47.09-6.88Q47-6.72 46.91-6.22Q46.81-5.72 46.88-5.16L46.88-5.16Q47.03-3.69 48.28-3.59L48.28-3.59Q49.09-3.53 49.77-3.81Q50.44-4.09 50.66-4.44L50.66-4.44Q50.84-4.81 51.13-4.86Q51.41-4.91 51.63-4.95Q51.84-5 52.06-5Q52.28-5 52.50-4.94L52.50-4.94Q53.06-4.75 53.17-4.06Q53.28-3.38 53.03-2.81Q52.78-2.25 52.70-1.80Q52.63-1.34 52.56-1.13Q52.50-0.91 52.20-0.58Q51.91-0.25 51.73-0.03Q51.56 0.19 51.19-0.13L51.19-0.13Q50.50-0.66 49.53 0.50L49.53 0.50Q49.28 0.84 49 1Q48.72 1.16 48.13 1.13L48.13 1.13Q47.53 1.09 47.19 0.81Q46.84 0.53 46.56 0.25L46.56 0.25Q46.09-0.34 44.94-0.19L44.94-0.19Q44.25-0.09 43.81-0.78L43.81-0.78Q43.72-0.88 43.67-1.13Q43.63-1.38 43.56-1.69L43.56-1.69Q43.34-2.50 43.17-2.73Q43-2.97 42.98-3.34Q42.97-3.72 42.91-4.14Q42.84-4.56 42.81-4.77Q42.78-4.97 42.86-5.25Q42.94-5.53 42.94-5.88ZM58.47 0.47L58.47 0.47Q58.03 0.44 57.58-0.47Q57.13-1.38 56.95-2.78Q56.78-4.19 56.72-4.69Q56.66-5.19 56.59-5.44L56.59-5.44Q56.50-5.91 56.23-6.27Q55.97-6.63 55.91-6.81L55.91-6.81Q55.84-7.09 55.88-8.22L55.88-8.22Q55.94-10.63 55.66-11.41L55.66-11.41Q55.53-11.75 55.56-11.97Q55.59-12.19 55.58-12.44Q55.56-12.69 55.41-12.97Q55.25-13.25 55.09-13.63L55.09-13.63Q54.59-14.63 54.59-15L54.59-15Q54.59-15.47 54.91-16.06L54.91-16.06Q55.59-17.22 55.70-17.67Q55.81-18.13 55.80-18.83Q55.78-19.53 55.78-20.25L55.78-20.25Q55.72-22.09 56.09-22.56L56.09-22.56Q56.34-22.81 56.69-22.91Q57.03-23 57.56-23.19L57.56-23.19Q58.63-23.56 59.17-23.56Q59.72-23.56 60.05-23.27Q60.38-22.97 60.81-22.92Q61.25-22.88 61.42-22.92Q61.59-22.97 61.72-23L61.72-23Q62.09-23.16 62.34-23.16L62.34-23.16Q62.75-23.16 62.94-22.84Q63.13-22.53 63.28-22.33Q63.44-22.13 63.80-22.22Q64.16-22.31 64.34-22.31Q64.53-22.31 64.66-22.31L64.66-22.31Q65.13-22.25 65.47-22.34L65.47-22.34Q66.16-22.56 66.53-22.13L66.53-22.13Q66.63-21.91 66.97-21.81Q67.31-21.72 67.56-21.56L67.56-21.56Q68.16-21.25 68.38-20.47L68.38-20.47Q68.81-19.03 68.50-17.50L68.50-17.50Q68.38-16.97 68.30-16.66Q68.22-16.34 68.17-16.11Q68.13-15.88 68.11-15.66Q68.09-15.44 68.08-15.13Q68.06-14.81 68.06-14.44L68.06-14.44L68.06-13.59Q68.06-12.63 68.13-12.06L68.13-12.06Q68.31-10.50 66.72-9.81L66.72-9.81Q66.19-9.59 65.97-9.41L65.97-9.41Q65.75-9.22 65.59-8.84Q65.44-8.47 65.02-7.91Q64.59-7.34 63.73-7.02Q62.88-6.69 62.25-6.47Q61.63-6.25 61.47-5.94L61.47-5.94Q61.25-5.53 61.36-4.02Q61.47-2.50 61.44-2.09Q61.41-1.69 61.34-1.42Q61.28-1.16 61.03-1L61.03-1Q60.78-0.84 60.59-0.84Q60.41-0.84 60.20-0.66Q60-0.47 59.84-0.28Q59.69-0.09 59.50 0.06L59.50 0.06Q59.06 0.47 58.47 0.47ZM60.59-17.03L60.59-17.03Q60.41-16.84 60.22-15.94Q60.03-15.03 60.03-14.50Q60.03-13.97 60.25-13.55Q60.47-13.13 60.45-12.86Q60.44-12.59 60.39-12.30Q60.34-12 60.34-11.69L60.34-11.69Q60.28-10.94 60.47-10.75Q60.66-10.56 60.89-10.61Q61.13-10.66 61.38-10.78Q61.63-10.91 61.83-11.05Q62.03-11.19 62.23-11.25Q62.44-11.31 62.53-11.53Q62.63-11.75 62.81-11.91L62.81-11.91Q63.03-12.06 63.11-12.33Q63.19-12.59 63.27-12.89Q63.34-13.19 63.25-13.45Q63.16-13.72 62.91-14.25L62.91-14.25Q62.72-14.78 62.78-15.09L62.78-15.09Q63.03-16.41 62.47-16.91L62.47-16.91Q61.75-17.34 61.27-17.28Q60.78-17.22 60.59-17.03ZM81.45-18.22Q81.53-18.03 81.50-17.81Q81.47-17.59 81.06-17.06Q80.66-16.53 80.58-15.92Q80.50-15.31 80.53-14.92Q80.56-14.53 80.53-14.25L80.53-14.25Q80.50-13.56 79.78-13.31L79.78-13.31Q79.16-13.06 78.81-13.34Q78.47-13.63 78.25-14.08Q78.03-14.53 77.92-14.86Q77.81-15.19 77.56-15.22L77.56-15.22Q77.13-15.31 76.89-15.13Q76.66-14.94 76.53-14.81L76.53-14.81Q76.28-14.56 76.02-14.47Q75.75-14.38 75.59-14.28L75.59-14.28Q75.28-14.06 75.34-13.56L75.34-13.56Q75.47-12.59 77.50-10.63L77.50-10.63Q77.88-10.25 78.39-9.81Q78.91-9.38 79.41-8.81L79.41-8.81Q80.53-7.47 80.66-5.78L80.66-5.78Q80.78-4.06 80.16-2.78L80.16-2.78Q79.66-1.75 78.97-1.44L78.97-1.44Q78.44-1.16 78.25-0.70Q78.06-0.25 77.97-0.05Q77.88 0.16 77.58 0.30Q77.28 0.44 76.91 0.41Q76.53 0.38 76.20 0.27Q75.88 0.16 75.61 0.02Q75.34-0.13 75.17-0.16Q75-0.19 74.84-0.05Q74.69 0.09 74.53 0.25L74.53 0.25Q74.06 0.72 73.69 0.61Q73.31 0.50 72.81 0.25Q72.31 0 71.84-0.38L71.84-0.38Q70.16-1.69 70.69-3.06L70.69-3.06Q71.03-3.97 71.45-4.34Q71.88-4.72 72.13-4.72L72.13-4.72Q72.53-4.72 72.67-4.42Q72.81-4.13 72.91-3.92Q73-3.72 73.13-3.59Q73.25-3.47 73.52-3.34Q73.78-3.22 74.09-3.19L74.09-3.19Q74.88-3.13 75.28-3.81L75.28-3.81Q75.69-4.50 75.59-5.31L75.59-5.31Q75.38-6.78 74.97-6.56L74.97-6.56Q74.63-6.34 74.13-6.55Q73.63-6.75 73.59-7.08Q73.56-7.41 73.47-7.72Q73.38-8.03 73.25-8.31L73.25-8.31Q72.97-9.03 72.75-9.09L72.75-9.09Q72.50-9.16 72.08-9.16Q71.66-9.16 71.16-9.70Q70.66-10.25 70.44-11.08Q70.22-11.91 70.06-12.52Q69.91-13.13 69.78-13.47Q69.66-13.81 69.56-14.19L69.56-14.19Q69.25-15.38 69.53-17.25L69.53-17.25Q69.72-18.34 70.22-19.17Q70.72-20 71.34-20.81L71.34-20.81Q72.53-22.41 73.53-23.03Q74.53-23.66 75.06-23.16L75.06-23.16Q75.53-22.75 76.08-22.83Q76.63-22.91 76.94-23L76.94-23L77.50-23.13Q78.03-23.25 78.58-23.09Q79.13-22.94 79.56-22.03L79.56-22.03Q79.78-21.56 80.02-21.22Q80.25-20.88 80.47-20.56L80.47-20.56Q80.94-19.81 81.02-19.33Q81.09-18.84 81.23-18.63Q81.38-18.41 81.45-18.22ZM83.52-22.94Q84.22-22.88 84.77-22.89Q85.31-22.91 86.41-22.88L86.41-22.88Q88.22-22.78 88.97-23.13L88.97-23.13Q90.50-23.91 91.44-23.31L91.44-23.31Q91.88-23.06 92.28-23Q92.69-22.94 93.44-23.38L93.44-23.38Q94.25-23.72 94.78-23.53Q95.31-23.34 95.56-23.06Q95.81-22.78 95.89-22.08Q95.97-21.38 95.92-20.69Q95.88-20 95.78-19.41L95.78-19.41Q95.59-17.81 95.64-17.31Q95.69-16.81 95.77-16.28Q95.84-15.75 95.81-15.25L95.81-15.25Q95.75-14.03 94.81-13.88L94.81-13.88Q94.13-13.78 93.81-14.20Q93.50-14.63 93.30-15.14Q93.09-15.66 92.89-16.06Q92.69-16.47 92.31-16.36Q91.94-16.25 91.84-15.55Q91.75-14.84 91.78-13.89Q91.81-12.94 91.91-11.92Q92-10.91 92.03-10.20Q92.06-9.50 92.11-8.78Q92.16-8.06 92.16-7.44L92.16-7.44Q92.16-6.09 91.78-5.59L91.78-5.59Q91.59-5.34 91.59-5Q91.59-4.66 91.67-4.28Q91.75-3.91 91.84-3.53Q91.94-3.16 91.94-2.63L91.94-2.63Q91.94-1.38 90.81-0.88L90.81-0.88Q90.41-0.69 90.06-0.25Q89.72 0.19 89.55 0.33Q89.38 0.47 89.14 0.42Q88.91 0.38 88.80 0.20Q88.69 0.03 88.59-0.16L88.59-0.16Q88.41-0.66 88.06-0.81L88.06-0.81Q87.66-0.91 87.58-1.50Q87.50-2.09 87.48-2.55Q87.47-3 87.41-3.66Q87.34-4.31 87-4.72Q86.66-5.13 86.44-5.23Q86.22-5.34 86.16-5.77Q86.09-6.19 86.17-6.63Q86.25-7.06 86.38-7.59L86.38-7.59Q86.75-9.13 86.78-10.47L86.78-10.47Q86.88-12.97 86.78-13.78L86.78-13.78Q86.66-15.41 85.91-15.41L85.91-15.41Q85.53-15.38 85.38-15.08Q85.22-14.78 85.03-14.38L85.03-14.38Q84.59-13.34 83.44-13.81L83.44-13.81Q83.03-14 82.92-14.41Q82.81-14.81 82.80-15.36Q82.78-15.91 82.77-16.52Q82.75-17.13 82.55-17.67Q82.34-18.22 82.16-18.72Q81.97-19.22 82-19.72Q82.03-20.22 82.23-20.69Q82.44-21.16 82.36-21.63Q82.28-22.09 82.55-22.55Q82.81-23 83.52-22.94ZM97.81-5.88L97.81-5.88L97.78-7.47Q97.78-7.91 97.81-8.28L97.81-8.28Q97.84-8.69 97.75-9.28L97.75-9.28Q97.59-10.31 97.61-10.80Q97.63-11.28 97.61-11.58Q97.59-11.88 97.53-12.13L97.53-12.13Q97.44-12.50 97.08-13.31Q96.72-14.13 96.72-15.06Q96.72-16 97.13-16.56L97.13-16.56Q97.50-17.13 97.41-17.72Q97.31-18.31 97.27-18.98Q97.22-19.66 97.25-20.36Q97.28-21.06 97.56-21.72L97.56-21.72Q98.25-23.31 100.31-23.25L100.31-23.25Q101.59-23.22 102.53-23Q103.47-22.78 103.91-22.81Q104.34-22.84 105.25-23.13L105.25-23.13Q106.56-23.63 107.34-23.06L107.34-23.06Q107.56-22.91 107.77-22.83Q107.97-22.75 108.13-22.59L108.13-22.59Q108.66-22 108.44-20L108.44-20Q108.38-19.41 108.31-18.81L108.31-18.81Q108.16-17.41 108.31-16.72Q108.47-16.03 108.48-15.52Q108.50-15 108.44-14.59L108.44-14.59Q108.25-13.69 107.72-13.69L107.72-13.69Q107.25-13.72 107.05-13.98Q106.84-14.25 106.72-14.58Q106.59-14.91 106.45-15.17Q106.31-15.44 105.84-15.44L105.84-15.44Q104.47-15.44 104.02-15.73Q103.56-16.03 103.22-16.08Q102.88-16.13 102.56-16L102.56-16Q101.91-15.72 101.80-14.97Q101.69-14.22 101.66-13.66Q101.63-13.09 101.66-12.63L101.66-12.63Q101.72-11.53 102.08-11.39Q102.44-11.25 102.69-11.36Q102.94-11.47 103.19-11.63L103.19-11.63Q103.94-12.13 104.73-12.11Q105.53-12.09 105.92-11.47Q106.31-10.84 106.25-10.27Q106.19-9.69 106.14-9.13Q106.09-8.56 106-8.06L106-8.06Q105.56-6.13 104.19-7.31L104.19-7.31Q102.41-7.44 101.97-6.88L101.97-6.88Q101.88-6.72 101.78-6.22Q101.69-5.72 101.75-5.16L101.75-5.16Q101.91-3.69 103.16-3.59L103.16-3.59Q103.97-3.53 104.64-3.81Q105.31-4.09 105.53-4.44L105.53-4.44Q105.72-4.81 106-4.86Q106.28-4.91 106.50-4.95Q106.72-5 106.94-5Q107.16-5 107.38-4.94L107.38-4.94Q107.94-4.75 108.05-4.06Q108.16-3.38 107.91-2.81Q107.66-2.25 107.58-1.80Q107.50-1.34 107.44-1.13Q107.38-0.91 107.08-0.58Q106.78-0.25 106.61-0.03Q106.44 0.19 106.06-0.13L106.06-0.13Q105.38-0.66 104.41 0.50L104.41 0.50Q104.16 0.84 103.88 1Q103.59 1.16 103 1.13L103 1.13Q102.41 1.09 102.06 0.81Q101.72 0.53 101.44 0.25L101.44 0.25Q100.97-0.34 99.81-0.19L99.81-0.19Q99.13-0.09 98.69-0.78L98.69-0.78Q98.59-0.88 98.55-1.13Q98.50-1.38 98.44-1.69L98.44-1.69Q98.22-2.50 98.05-2.73Q97.88-2.97 97.86-3.34Q97.84-3.72 97.78-4.14Q97.72-4.56 97.69-4.77Q97.66-4.97 97.73-5.25Q97.81-5.53 97.81-5.88ZM118.28-22.47L118.28-22.47L119.28-22.53Q120.34-22.53 120.80-22.19Q121.25-21.84 121.48-21.56Q121.72-21.28 121.91-20.98Q122.09-20.69 122.42-20.38Q122.75-20.06 122.75-19.64Q122.75-19.22 122.98-18.97Q123.22-18.72 123.22-18.16Q123.22-17.59 123.20-17.08Q123.19-16.56 123.09-16.23Q123-15.91 123-15.58Q123-15.25 123.14-14.98Q123.28-14.72 123.17-13.70Q123.06-12.69 122.83-11.66Q122.59-10.63 122.22-9.88L122.22-9.88Q121.47-8.47 119.78-7.66L119.78-7.66Q119.94-7.28 120.14-6.83Q120.34-6.38 120.53-5.91L120.53-5.91Q120.94-4.75 120.94-4.23Q120.94-3.72 120.98-3.48Q121.03-3.25 121.09-3.13Q121.16-3 121.27-2.94Q121.38-2.88 121.59-2.70Q121.81-2.53 121.94-2.13Q122.06-1.72 122.06-1.28L122.06-1.28Q122.06-0.28 121.83-0.05Q121.59 0.19 121.33 0.27Q121.06 0.34 120.78 0.38L120.78 0.38Q120.06 0.47 119.88 0.19L119.88 0.19Q119.63-0.06 119.61-0.33Q119.59-0.59 119.50-0.80Q119.41-1 119.22-1.05Q119.03-1.09 118.95-1.44Q118.88-1.78 118.73-1.89Q118.59-2 118.16-1.94L118.16-1.94Q117.38-1.78 117-2.88L117-2.88Q116.91-3.13 116.81-3.53Q116.72-3.94 116.59-4.31L116.59-4.31Q116.34-5.22 116.02-5.30Q115.69-5.38 115.53-5.22Q115.38-5.06 115.30-4.80Q115.22-4.53 115.22-4.20Q115.22-3.88 115.30-3.50Q115.38-3.13 115.31-2.88Q115.25-2.63 115.14-2.47Q115.03-2.31 114.91-2.19L114.91-2.19Q114.66-2.03 114.61-1.56Q114.56-1.09 114.47-0.75L114.47-0.75Q114.28 0.09 113.97 0.31Q113.66 0.53 113.34 0.58Q113.03 0.63 112.72 0.56L112.72 0.56Q111.94 0.41 111.75 0.02Q111.56-0.38 111.53-0.58Q111.50-0.78 111.52-0.97Q111.53-1.16 111.56-1.38Q111.59-1.59 111.58-1.89Q111.56-2.19 111.44-2.69Q111.31-3.19 111.28-3.88L111.28-3.88L111.25-4.69Q111.25-4.81 111.47-5.11Q111.69-5.41 111.61-5.80Q111.53-6.19 111.25-6.30Q110.97-6.41 110.97-6.56Q110.97-6.72 111.03-7.34Q111.09-7.97 110.98-8.91Q110.88-9.84 110.84-10.56L110.84-10.56Q110.72-12.13 110.30-12.33Q109.88-12.53 109.81-12.83Q109.75-13.13 109.81-13.50Q109.88-13.88 109.95-14.44Q110.03-15 110.13-15.58Q110.22-16.16 110.30-16.66Q110.38-17.16 110.41-17.34Q110.44-17.53 110.42-17.70Q110.41-17.88 110.41-18.03L110.41-18.03Q110.34-18.53 110.41-18.91L110.41-18.91Q110.53-19.63 110.47-19.92Q110.41-20.22 110.58-20.83Q110.75-21.44 110.88-21.69Q111-21.94 111.34-22.06Q111.69-22.19 112.02-22.42Q112.34-22.66 112.63-22.89Q112.91-23.13 113.13-23.33Q113.34-23.53 113.66-23.63L113.66-23.63Q114.56-23.81 114.98-23.67Q115.41-23.53 115.59-23.38Q115.78-23.22 116.05-23.06Q116.31-22.91 116.61-22.83Q116.91-22.75 117.16-22.75L117.16-22.75Q117.81-22.69 117.95-22.58Q118.09-22.47 118.28-22.47ZM115.69-13.75L115.69-13.75L115.88-10.91Q115.88-10.63 115.84-10.36Q115.81-10.09 115.78-9.88L115.78-9.88Q115.75-9.41 116.13-9.31L116.13-9.31Q116.44-9.25 116.63-9.48Q116.81-9.72 116.97-10.13L116.97-10.13Q117.34-10.91 117.22-11.13L117.22-11.13Q116.97-11.44 117.08-11.67Q117.19-11.91 117.55-12.59Q117.91-13.28 118.08-13.78Q118.25-14.28 118.16-14.86Q118.06-15.44 118.06-15.66L118.06-15.66L118.06-16Q118.06-16.25 117.83-16.45Q117.59-16.66 117.50-16.67Q117.41-16.69 117.34-16.69L117.34-16.69Q117.06-16.63 116.81-16.73Q116.56-16.84 116.34-16.83Q116.13-16.81 115.84-16.53Q115.56-16.25 115.53-15.95Q115.50-15.66 115.53-15.28L115.53-15.28Q115.69-14.16 115.69-13.75Z"/></svg>