<svg id="mainsvg" xmlns="http://www.w3.org/2000/svg" xmlns:xlink="http://www.w3.org/1999/xlink" version="1.1" x="0px" y="0px" enable-background="new 0 0 200 162.5" xml:space="preserve" viewBox="0 0 169 25"><path fill="#000" transform="translate(-1.75, 23.875)" d="M20.25-19.91L20.25-19.91Q20.25-19.44 19.98-19.30Q19.72-19.16 19.31-19.16L19.31-19.16Q19.25-19.38 19.13-19.44Q19-19.50 19-19.75L19-19.75Q19-20.03 19.20-20.23Q19.41-20.44 19.69-20.44L19.69-20.44Q19.91-20.44 20.08-20.28Q20.25-20.13 20.25-19.91ZM18.47-21.34L18.47-21.34L18.44-20.91Q18.25-20.78 18.14-20.72Q18.03-20.66 17.91-20.50L17.91-20.50Q17.59-20.59 17.41-20.75L17.41-20.75Q17.34-20.88 17.27-20.98Q17.19-21.09 17.19-21.25L17.19-21.25Q17.19-21.31 17.25-21.44L17.25-21.44Q17.41-21.59 17.59-21.69Q17.78-21.78 18.03-21.78L18.03-21.78L18.28-21.78Q18.28-21.53 18.34-21.53Q18.41-21.53 18.47-21.34ZM16.47-22.78L16.47-22.78Q16.38-22.53 16.34-22.34Q16.31-22.16 16.06-22L16.06-22L15.50-22Q15.41-22.13 15.36-22.25Q15.31-22.38 15.22-22.47L15.22-22.47Q15.28-22.78 15.34-22.91L15.34-22.91L15.44-23.19Q15.59-23.22 15.66-23.22Q15.72-23.22 15.88-23.22L15.88-23.22Q16.09-23.22 16.20-23.08Q16.31-22.94 16.47-22.78ZM13.84-23.25L13.84-23.25Q13.84-22.97 13.67-22.78Q13.50-22.59 13.22-22.59L13.22-22.59Q12.97-22.59 12.80-22.73Q12.63-22.88 12.63-23.13L12.63-23.13Q12.63-23.41 12.91-23.58Q13.19-23.75 13.44-23.75L13.44-23.75L13.66-23.75Q13.72-23.63 13.78-23.52Q13.84-23.41 13.84-23.25ZM11.06-23.16L11.06-23.16Q10.97-23.03 10.98-23.02Q11-23 11-22.84L11-22.84Q11-22.66 10.89-22.55Q10.78-22.44 10.72-22.28L10.72-22.28Q10.56-22.34 10.38-22.31Q10.19-22.28 10.03-22.38L10.03-22.38Q9.94-22.56 9.84-22.63Q9.75-22.69 9.75-22.94L9.75-22.94Q9.75-23.34 10.13-23.47Q10.50-23.59 10.81-23.63L10.81-23.63Q10.81-23.38 10.86-23.34Q10.91-23.31 11.06-23.16ZM8.06-21.75L8.06-21.75Q8-21.59 7.81-21.38Q7.63-21.16 7.44-21.16L7.44-21.16Q7.38-21.16 7.17-21.22Q6.97-21.28 6.91-21.31L6.91-21.31Q6.84-21.44 6.77-21.55Q6.69-21.66 6.69-21.81L6.69-21.81Q6.72-21.88 6.78-22.05Q6.84-22.22 6.91-22.28L6.91-22.28Q7.03-22.38 7.09-22.38Q7.16-22.38 7.16-22.56L7.16-22.56Q7.34-22.53 7.53-22.44Q7.72-22.34 7.91-22.34L7.91-22.34Q7.94-22.19 7.95-22.02Q7.97-21.84 8.06-21.75ZM5.78-19.75L5.78-19.75Q5.66-19.50 5.52-19.31Q5.38-19.13 5.13-19.03L5.13-19.03Q4.97-19.09 4.83-19.13Q4.69-19.16 4.56-19.28L4.56-19.28Q4.44-19.59 4.44-19.75L4.44-19.75Q4.44-20 4.61-20.09Q4.78-20.19 4.91-20.38L4.91-20.38Q5.44-20.19 5.78-19.75ZM20.41-3.19L20.41-3.19Q20.41-3 20.31-2.81L20.31-2.81Q20.16-2.72 20.03-2.61Q19.91-2.50 19.72-2.50L19.72-2.50Q19.47-2.50 19.28-2.72Q19.09-2.94 19.09-3.19L19.09-3.19Q19.09-3.50 19.23-3.59Q19.38-3.69 19.59-3.84L19.59-3.84Q19.81-3.81 19.95-3.83Q20.09-3.84 20.34-3.75L20.34-3.75Q20.34-3.59 20.38-3.47Q20.41-3.34 20.41-3.19ZM4.38-17.19L4.38-17.19Q4.38-16.91 4.17-16.73Q3.97-16.56 3.69-16.56L3.69-16.56Q3.13-16.56 3.13-17.13L3.13-17.13Q3.13-17.28 3.17-17.47Q3.22-17.66 3.28-17.81L3.28-17.81L3.59-17.81Q3.91-17.81 4.14-17.67Q4.38-17.53 4.38-17.19ZM18.38-1.28L18.38-1.28Q18.38-1.13 18.30-1Q18.22-0.88 18.16-0.72L18.16-0.72Q18-0.72 17.89-0.69Q17.78-0.66 17.63-0.66L17.63-0.66Q17.38-0.66 17.23-0.81Q17.09-0.97 17.09-1.22L17.09-1.22Q17.09-1.47 17.23-1.66Q17.38-1.84 17.63-1.84L17.63-1.84Q17.88-1.84 18.13-1.69Q18.38-1.53 18.38-1.28ZM2.78-15.09L3.09-14.59Q3.09-14.28 2.84-13.97L2.84-13.97Q2.69-13.91 2.50-13.88Q2.31-13.84 2.13-13.75L2.13-13.75Q2.03-14 1.91-14.17Q1.78-14.34 1.78-14.59L1.78-14.59Q1.88-14.69 2.11-14.91Q2.34-15.13 2.50-15.13L2.50-15.13Q2.56-15.13 2.64-15.11Q2.72-15.09 2.78-15.09L2.78-15.09ZM15.88-0.06L15.88-0.06L15.88 0.22Q15.75 0.31 15.61 0.41Q15.47 0.50 15.31 0.50L15.31 0.50Q15.06 0.50 14.91 0.34Q14.75 0.19 14.63-0.03L14.63-0.03Q14.63-0.28 14.70-0.30Q14.78-0.31 14.72-0.56L14.72-0.56Q14.91-0.63 14.95-0.67Q15-0.72 15.16-0.88L15.16-0.88Q15.31-0.81 15.47-0.72Q15.63-0.63 15.81-0.63L15.81-0.63Q15.84-0.47 15.86-0.34Q15.88-0.22 15.88-0.06ZM3.03-11.34L3.03-11.34Q3.03-11.19 2.97-10.88L2.97-10.88Q2.78-10.72 2.66-10.66Q2.53-10.59 2.28-10.59L2.28-10.59Q1.75-10.59 1.75-11.13L1.75-11.13Q1.75-11.41 1.91-11.64Q2.06-11.88 2.38-11.88L2.38-11.88Q2.63-11.88 2.83-11.73Q3.03-11.59 3.03-11.34ZM12.69 0.47L12.69 0.47L12.53 0.69L12.34 0.69Q12.25 0.69 12.17 0.70Q12.09 0.72 12 0.72L12 0.72Q11.88 0.59 11.78 0.47Q11.69 0.34 11.56 0.19L11.56 0.19Q11.63-0.03 11.73-0.22Q11.84-0.41 12-0.56L12-0.56Q12.16-0.56 12.27-0.55Q12.38-0.53 12.53-0.53L12.53-0.53Q12.69-0.28 12.88-0.13L12.88-0.13Q12.81 0.06 12.81 0.13L12.81 0.13Q12.81 0.38 12.75 0.44L12.75 0.44Q12.72 0.47 12.69 0.47ZM3.59-8.38L3.59-8.38Q3.59-8.13 3.52-8Q3.44-7.88 3.34-7.66L3.34-7.66Q3.22-7.59 3.13-7.56Q3.03-7.53 2.91-7.53L2.91-7.53Q2.69-7.53 2.52-7.69Q2.34-7.84 2.22-8L2.22-8Q2.28-8.16 2.28-8.34L2.28-8.34Q2.28-8.47 2.34-8.59L2.34-8.59Q2.50-8.66 2.69-8.73Q2.88-8.81 3-8.81L3-8.81Q3.06-8.81 3.30-8.63Q3.53-8.44 3.59-8.38ZM9.84-0.38L9.84-0.38Q9.78-0.22 9.73-0.14Q9.69-0.06 9.72 0.09L9.72 0.09Q9.56 0.19 9.38 0.28Q9.19 0.38 9 0.38L9 0.38Q8.78 0.38 8.59 0.22Q8.41 0.06 8.41-0.16L8.41-0.16Q8.41-0.34 8.59-0.59Q8.78-0.84 8.97-0.91L8.97-0.91Q9.03-0.84 9.09-0.86Q9.16-0.88 9.25-0.88L9.25-0.88L9.44-0.88Q9.53-0.69 9.61-0.61Q9.69-0.53 9.84-0.38ZM4.63-4.91L4.63-4.91Q4.56-4.59 4.41-4.38Q4.25-4.16 3.91-4.16L3.91-4.16L3.66-4.16Q3.59-4.28 3.50-4.39Q3.41-4.50 3.38-4.63L3.38-4.63Q3.31-4.81 3.31-4.84L3.31-4.84Q3.31-4.94 3.34-5.02Q3.38-5.09 3.41-5.16L3.41-5.16Q3.72-5.38 4.03-5.38L4.03-5.38Q4.13-5.38 4.31-5.31L4.31-5.31Q4.38-5.19 4.44-5.09Q4.50-5 4.63-4.91ZM7.22-1.88L7.22-1.88Q7.13-1.66 7.02-1.52Q6.91-1.38 6.66-1.28L6.66-1.28Q6.47-1.34 6.20-1.45Q5.94-1.56 5.94-1.81L5.94-1.81Q5.94-2 6.06-2.19L6.06-2.19Q6.22-2.28 6.36-2.36Q6.50-2.44 6.66-2.44L6.66-2.44Q6.91-2.44 7.02-2.25Q7.13-2.06 7.22-1.88ZM44.03-18.81L44.03-18.81Q43.88-18.56 43.77-18.42Q43.66-18.28 43.44-18.06L43.44-18.06L43.25-18.06Q43.13-18.06 43.03-18.08Q42.94-18.09 42.84-18.06L42.84-18.06Q42.78-18.25 42.63-18.36Q42.47-18.47 42.47-18.69L42.47-18.69Q42.47-19.03 42.64-19.09Q42.81-19.16 43.06-19.22L43.06-19.22Q43.25-19.28 43.38-19.28L43.38-19.28Q43.44-19.28 43.67-19.08Q43.91-18.88 44.03-18.81ZM41.59-20.91L41.59-20.91Q41.59-20.72 41.45-20.55Q41.31-20.38 41.25-20.19L41.25-20.19Q40.94-20.25 40.59-20.33Q40.25-20.41 40.25-20.84L40.25-20.84Q40.25-20.97 40.30-21.08Q40.34-21.19 40.34-21.31L40.34-21.31Q40.66-21.53 40.97-21.53L40.97-21.53Q41.13-21.53 41.27-21.45Q41.41-21.38 41.56-21.28L41.56-21.28Q41.56-21.19 41.58-21.09Q41.59-21 41.59-20.91ZM38.56-22.94L38.91-22.88Q38.88-22.72 38.83-22.56Q38.78-22.41 38.59-22.34L38.59-22.34Q38.59-21.91 38.16-21.91L38.16-21.91Q37.97-21.91 37.75-22L37.75-22Q37.69-22.16 37.59-22.30Q37.50-22.44 37.50-22.59L37.50-22.59Q37.50-22.72 37.56-22.84L37.56-22.84L37.91-23.13L38.09-23.13Q38.31-23.13 38.56-22.94L38.56-22.94ZM45.50-15.22L45.50-15.22Q45.31-14.88 44.91-14.88L44.91-14.88Q44.66-14.88 44.52-14.95Q44.38-15.03 44.19-15.19L44.19-15.19L44.19-15.59Q44.19-15.75 44.22-15.84L44.22-15.84Q44.38-15.94 44.52-16.05Q44.66-16.16 44.84-16.16L44.84-16.16Q44.91-16.16 45.09-16.09L45.09-16.09Q45.34-15.78 45.34-15.66Q45.34-15.53 45.50-15.22ZM35.31-22.97L35.31-22.97Q35.31-22.69 35.02-22.58Q34.72-22.47 34.50-22.44L34.50-22.44Q34.31-22.59 34.20-22.69Q34.09-22.78 33.84-22.84L33.84-22.84Q33.91-22.94 33.95-23.05Q34-23.16 34-23.25L34-23.25Q34-23.41 34.30-23.56Q34.59-23.72 34.69-23.88L34.69-23.88Q34.84-23.72 34.97-23.61Q35.09-23.50 35.25-23.41L35.25-23.41Q35.25-23.28 35.28-23.19Q35.31-23.09 35.31-22.97ZM46-12.47L46.09-11.84Q45.84-11.38 45.31-11.38L45.31-11.38Q45.25-11.38 45.16-11.39Q45.06-11.41 45-11.41L45-11.41Q44.91-11.56 44.81-11.72Q44.72-11.88 44.72-12.03L44.72-12.03Q44.72-12.22 44.84-12.47L44.84-12.47Q45-12.59 45.19-12.59Q45.38-12.59 45.53-12.69L45.53-12.69Q45.69-12.53 46-12.47L46-12.47ZM45.78-8.06L45.78-8.06Q45.78-7.97 45.72-7.78L45.72-7.78Q45.47-7.53 45.13-7.53L45.13-7.53Q45-7.53 44.89-7.56Q44.78-7.59 44.66-7.63L44.66-7.63Q44.59-7.75 44.55-7.86Q44.50-7.97 44.50-8.13L44.50-8.13Q44.50-8.22 44.52-8.30Q44.53-8.38 44.53-8.47L44.53-8.47Q44.63-8.53 44.73-8.56Q44.84-8.59 44.88-8.75L44.88-8.75Q45-8.81 45.13-8.81L45.13-8.81Q45.28-8.81 45.38-8.72Q45.47-8.63 45.63-8.59L45.63-8.59Q45.69-8.47 45.73-8.34Q45.78-8.22 45.78-8.06ZM31.59-21.66L31.59-21.66Q31.38-21.53 31.23-21.41Q31.09-21.28 30.84-21.28L30.84-21.28L30.66-21.28Q30.56-21.38 30.47-21.47Q30.38-21.56 30.31-21.69L30.31-21.69Q30.28-21.81 30.27-21.89Q30.25-21.97 30.25-22.03L30.25-22.03Q30.25-22.16 30.31-22.23Q30.38-22.31 30.38-22.44L30.38-22.44Q30.63-22.56 30.78-22.56L30.78-22.56Q31-22.56 31.17-22.47Q31.34-22.38 31.50-22.28L31.50-22.28L31.50-22.09Q31.50-21.97 31.53-21.86Q31.56-21.75 31.59-21.66ZM44.09-4.50L44.09-4.50Q44-3.81 43.38-3.81L43.38-3.81Q43.06-3.81 42.97-3.98Q42.88-4.16 42.75-4.38L42.75-4.38Q42.81-4.63 42.98-4.84Q43.16-5.06 43.44-5.06L43.44-5.06Q43.59-5.06 43.84-4.94L43.84-4.94Q43.84-4.75 43.92-4.70Q44-4.66 44.09-4.50ZM28.44-19.94L28.44-19.94Q28.44-19.59 28.19-19.41Q27.94-19.22 27.63-19.22L27.63-19.22Q27.44-19.22 27.25-19.44Q27.06-19.66 27.06-19.81L27.06-19.81Q27.06-20.03 27.17-20.19Q27.28-20.34 27.44-20.47L27.44-20.47L27.69-20.50Q27.94-20.44 28.19-20.33Q28.44-20.22 28.44-19.94ZM41.34-1.44L41.34-1.44L41.34-1.13Q41.19-1.06 41.02-1.03Q40.84-1 40.66-1L40.66-1Q40.44-1 40.27-1.13Q40.09-1.25 39.94-1.38L39.94-1.38Q40.06-1.66 40.23-1.91Q40.41-2.16 40.75-2.16L40.75-2.16Q41-2.16 41.17-1.91Q41.34-1.66 41.34-1.44ZM26.22-16.59L26.22-16.59Q26.22-16.50 26.20-16.41Q26.19-16.31 26.19-16.22L26.19-16.22Q26.03-16.13 25.84-16.05Q25.66-15.97 25.47-15.97L25.47-15.97Q25.31-15.97 25.13-16.03L25.13-16.03Q25.06-16.19 25-16.25Q24.94-16.31 24.84-16.47L24.84-16.47Q24.91-16.84 25.06-17.09L25.06-17.09Q25.22-17.16 25.38-17.19Q25.53-17.22 25.69-17.22L25.69-17.22L25.97-17.22Q26.06-17.06 26.14-16.92Q26.22-16.78 26.22-16.59ZM25.28-13.03L25.28-13.03Q25.28-12.56 25.11-12.25Q24.94-11.94 24.41-11.94L24.41-11.94Q24.28-12.06 24.11-12.17Q23.94-12.28 23.94-12.47L23.94-12.47Q23.94-12.59 23.97-12.69Q24-12.78 24-12.88L24-12.88Q24.16-12.97 24.31-13.13Q24.47-13.28 24.63-13.28L24.63-13.28Q24.78-13.28 24.88-13.16Q24.97-13.03 25.28-13.03ZM37.50 0.16L37.50 0.16Q37.50 0.38 37.44 0.47L37.44 0.47Q37.31 0.63 37.14 0.67Q36.97 0.72 36.81 0.78L36.81 0.78Q36.66 0.66 36.55 0.61Q36.44 0.56 36.28 0.50L36.28 0.50Q36.28 0.41 36.27 0.33Q36.25 0.25 36.25 0.16L36.25 0.16Q36.25 0.06 36.31-0.13L36.31-0.13Q36.38-0.22 36.53-0.36Q36.69-0.50 36.81-0.50L36.81-0.50Q37.06-0.50 37.11-0.44Q37.16-0.38 37.34-0.34L37.34-0.34Q37.50-0.09 37.50 0.16ZM25.41-8.53L25.41-8.53L25.41-8.41Q25.25-8.19 25.17-8.03Q25.09-7.88 24.78-7.88L24.78-7.88Q24.41-7.88 24.13-8.16L24.13-8.16Q24.06-8.41 24.06-8.59L24.06-8.59Q24.06-8.78 24.17-8.91Q24.28-9.03 24.38-9.19L24.38-9.19Q24.50-9.13 24.61-9.16Q24.72-9.19 24.88-9.16L24.88-9.16Q25.03-8.97 25.22-8.95Q25.41-8.94 25.41-8.53ZM33.69 0.31L33.69 0.31Q33.69 0.56 33.50 0.73Q33.31 0.91 33.06 0.91L33.06 0.91Q32.78 0.91 32.66 0.80Q32.53 0.69 32.47 0.53Q32.41 0.38 32.38 0.19Q32.34 0 32.22-0.16L32.22-0.16Q32.41-0.19 32.50-0.22Q32.59-0.25 32.66-0.28Q32.72-0.31 32.77-0.36Q32.81-0.41 32.97-0.47L32.97-0.47Q33.25-0.41 33.47-0.20Q33.69 0 33.69 0.31ZM26.81-4.53L26.81-4.53Q26.81-4.38 26.75-4.28Q26.69-4.19 26.63-4.06L26.63-4.06Q26.56-4.03 26.39-3.97Q26.22-3.91 26.16-3.91L26.16-3.91Q26.06-3.91 25.98-3.95Q25.91-4 25.81-4L25.81-4Q25.75-4 25.72-3.98Q25.69-3.97 25.63-3.97L25.63-3.97Q25.53-4.19 25.52-4.27Q25.50-4.34 25.50-4.59L25.50-4.59L25.44-4.72L25.78-5.22Q25.81-5.19 25.94-5.13L25.94-5.13Q26-5.13 26.06-5.14Q26.13-5.16 26.19-5.16L26.19-5.16Q26.28-5.16 26.48-5.03Q26.69-4.91 26.75-4.84L26.75-4.84Q26.81-4.59 26.81-4.53ZM29.81-1.59L29.81-1.59Q29.81-1.41 29.69-1.31Q29.56-1.22 29.50-1.06L29.50-1.06Q29.38-1 29.28-0.97Q29.19-0.94 29.06-0.94L29.06-0.94Q28.88-0.94 28.70-1.13Q28.53-1.31 28.34-1.38L28.34-1.38Q28.41-1.63 28.48-1.84Q28.56-2.06 28.75-2.25L28.75-2.25Q29.03-2.25 29.42-2.09Q29.81-1.94 29.81-1.59ZM67.31-20.97L67.31-20.97Q67.22-20.81 67.22-20.72Q67.22-20.63 67.22-20.44L67.22-20.44Q67.06-20.34 66.89-20.22Q66.72-20.09 66.56-20.03L66.56-20.03Q66.31-20.03 66.03-20.25L66.03-20.25Q65.97-20.50 65.97-20.63L65.97-20.63Q65.97-20.94 66.11-21.14Q66.25-21.34 66.59-21.34L66.59-21.34Q66.81-21.34 66.97-21.20Q67.13-21.06 67.31-20.97ZM69.41-18.31L69.41-18.31Q69.28-18.19 69.22-18.09L69.22-18.09Q69.25-18.06 69.25-17.97L69.25-17.97Q69.25-17.91 69.22-17.84L69.22-17.84Q69.13-17.81 69.03-17.78Q68.94-17.75 68.81-17.75L68.81-17.75Q68.34-17.75 68.09-18.22L68.09-18.22Q68.25-18.50 68.38-18.78Q68.50-19.06 68.88-19.06L68.88-19.06Q69.09-18.94 69.25-18.75Q69.41-18.56 69.41-18.31ZM64.38-21.94L64.38-21.94Q64.38-21.88 64.31-21.63L64.31-21.63Q64.03-21.34 63.75-21.34L63.75-21.34Q63.47-21.34 63.28-21.53L63.28-21.53Q63.16-21.78 63.16-22L63.16-22Q63.16-22.13 63.22-22.31L63.22-22.31Q63.38-22.38 63.41-22.48Q63.44-22.59 63.69-22.59L63.69-22.59Q63.94-22.59 64.16-22.39Q64.38-22.19 64.38-21.94ZM70.22-16L70.22-16L70.16-15.16Q70.03-15.13 69.92-15.09Q69.81-15.06 69.69-15.06L69.69-15.06Q69.53-15.06 69.33-15.14Q69.13-15.22 69.06-15.31L69.06-15.31Q69-15.44 69-15.72L69-15.72Q69-15.84 69.03-15.94Q69.06-16.03 69.09-16.16L69.09-16.16Q69.31-16.28 69.42-16.34Q69.53-16.41 69.78-16.41L69.78-16.41Q69.84-16.25 69.97-16.17Q70.09-16.09 70.22-16ZM61.47-22.47L61.47-22.47Q61.47-22.41 61.41-22.22L61.41-22.22Q61.31-22.13 61.20-22Q61.09-21.88 60.97-21.81L60.97-21.81Q60.63-21.81 60.41-22Q60.19-22.19 60.19-22.53L60.19-22.53L60.19-22.69Q60.28-22.78 60.39-22.86Q60.50-22.94 60.56-23L60.56-23Q60.75-23.06 60.84-23.06L60.84-23.06Q61-23.06 61.11-23Q61.22-22.94 61.38-22.91L61.38-22.91Q61.38-22.78 61.42-22.69Q61.47-22.59 61.47-22.47ZM70.88-12.81L70.88-12.81Q70.88-12.66 70.83-12.53Q70.78-12.41 70.78-12.25L70.78-12.25Q70.69-12.16 70.55-12.08Q70.41-12 70.25-12L70.25-12Q70-12 69.86-12.19Q69.72-12.38 69.72-12.63L69.72-12.63Q69.72-12.94 69.97-13.19L69.97-13.19Q70.22-13.25 70.28-13.25L70.28-13.25Q70.56-13.25 70.81-13.09L70.81-13.09Q70.88-12.91 70.88-12.81ZM58.47-22.72L58.47-22.72Q58.31-22.47 58.23-22.25Q58.16-22.03 57.78-22L57.78-22Q57.53-22.13 57.36-22.27Q57.19-22.41 57.19-22.72L57.19-22.72Q57.19-22.81 57.25-23L57.25-23Q57.41-23.06 57.58-23.13Q57.75-23.19 57.94-23.19L57.94-23.19Q58.19-23.19 58.28-23.05Q58.38-22.91 58.47-22.72ZM70.72-9.91L70.84-9.53Q70.81-9.28 70.53-9L70.53-9Q70.41-8.97 70.31-8.95Q70.22-8.94 70.09-8.94L70.09-8.94Q69.94-8.94 69.91-9.03L69.91-9.03Q69.81-9.13 69.70-9.20Q69.59-9.28 69.53-9.41L69.53-9.41Q69.53-9.84 69.66-9.97L69.66-9.97L70.34-10.25Q70.41-10.13 70.48-10.05Q70.56-9.97 70.72-9.91L70.72-9.91ZM55.63-22.59L55.63-22.59Q55.63-22.50 55.61-22.42Q55.59-22.34 55.59-22.28L55.59-22.28Q55.44-22.19 55.39-22.08Q55.34-21.97 55.13-21.88L55.13-21.88Q55.03-21.88 54.94-21.84Q54.84-21.81 54.75-21.81L54.75-21.81Q54.53-21.81 54.38-22.08Q54.22-22.34 54.22-22.53L54.22-22.53Q54.22-22.78 54.45-22.92Q54.69-23.06 54.91-23.06L54.91-23.06Q55.09-23.06 55.36-22.94Q55.63-22.81 55.63-22.59ZM70.38-6.91L70.38-6.91Q70.38-6.63 70.19-6.39Q70-6.16 69.69-6.16L69.69-6.16Q69.53-6.16 69.34-6.28L69.34-6.28Q69.31-6.41 69.20-6.47Q69.09-6.53 69-6.59L69-6.59Q69.06-6.75 69.08-6.83Q69.09-6.91 69.06-7.06L69.06-7.06Q69.28-7.28 69.52-7.34Q69.75-7.41 70.03-7.53L70.03-7.53L69.94-7.41Q70.19-7.28 70.31-7.25L70.31-7.25Q70.38-7.06 70.38-6.91ZM52.28-22.34L52.28-22.34Q52.28-22.13 52.14-21.98Q52-21.84 51.88-21.72L51.88-21.72Q51.69-21.75 51.52-21.80Q51.34-21.84 51.22-22L51.22-22Q50.94-22.13 50.94-22.34L50.94-22.34Q50.94-22.59 51.19-22.77Q51.44-22.94 51.69-22.94L51.69-22.94Q51.94-22.94 52.11-22.77Q52.28-22.59 52.28-22.34ZM68.75-4.50L69.25-3.94Q69.16-3.69 68.97-3.42Q68.78-3.16 68.50-3.16L68.50-3.16Q68.25-3.16 68.11-3.34Q67.97-3.53 67.84-3.72L67.84-3.72Q67.84-3.88 67.91-4.06L67.91-4.06Q67.94-4.16 67.94-4.22L67.94-4.22Q67.97-4.28 68.03-4.31L68.03-4.31Q68.16-4.38 68.22-4.38L68.22-4.38Q68.47-4.50 68.63-4.50L68.63-4.50L68.75-4.50ZM52.34-19.53L52.34-19.38Q52.34-19.25 52.33-19.16Q52.31-19.06 52.34-18.94L52.34-18.94Q52.16-18.88 52-18.75Q51.84-18.63 51.66-18.63L51.66-18.63Q51.41-18.63 51.25-18.83Q51.09-19.03 51.09-19.28L51.09-19.28Q51.09-19.56 51.31-19.70Q51.53-19.84 51.81-19.84L51.81-19.84Q51.97-19.84 52.11-19.75Q52.25-19.66 52.34-19.53L52.34-19.53ZM66.63-1.84L66.63-1.84Q66.56-1.63 66.52-1.42Q66.47-1.22 66.38-1L66.38-1Q66.34-1.03 66.25-1.03L66.25-1.03Q66.13-1 66.05-0.97Q65.97-0.94 65.84-0.94L65.84-0.94Q65.75-1 65.63-1.05Q65.50-1.09 65.41-1.16L65.41-1.16Q65.31-1.38 65.31-1.66L65.31-1.66Q65.50-1.81 65.55-2.05Q65.59-2.28 65.94-2.28L65.94-2.28Q66.03-2.28 66.22-2.22L66.22-2.22Q66.34-2.16 66.44-2.05Q66.53-1.94 66.63-1.84ZM52.22-16.28L52.22-16.28Q52.16-16.16 52.17-16.05Q52.19-15.94 52.13-15.81L52.13-15.81Q51.97-15.72 51.81-15.63Q51.66-15.53 51.50-15.44L51.50-15.44Q51.25-15.44 51.06-15.63Q50.88-15.81 50.75-16.06L50.75-16.06Q50.84-16.19 50.88-16.31Q50.91-16.44 51-16.56L51-16.56Q51.19-16.59 51.30-16.66Q51.41-16.72 51.63-16.72L51.63-16.72Q51.78-16.59 51.92-16.52Q52.06-16.44 52.22-16.28ZM52.44-13.50L52.44-13.25Q52.44-13.03 52.38-12.94Q52.31-12.84 52.28-12.66L52.28-12.66Q52.13-12.63 51.94-12.56Q51.75-12.50 51.66-12.50L51.66-12.50Q51.44-12.50 51.31-12.75Q51.19-13 51.19-13.16L51.19-13.16Q51.19-13.41 51.34-13.63Q51.50-13.84 51.78-13.84L51.78-13.84Q51.94-13.84 52.13-13.70Q52.31-13.56 52.44-13.50L52.44-13.50ZM63.28-0.63L63.28-0.63L63 0.03Q62.75 0.13 62.50 0.13L62.50 0.13Q62.41 0.13 62.30 0.11Q62.19 0.09 62.09 0.09L62.09 0.09L61.88-0.78Q62.16-1.13 62.56-1.13L62.56-1.13Q62.84-1.13 63.06-0.91L63.06-0.91Q63.09-0.75 63.09-0.72Q63.09-0.69 63.28-0.63ZM51.97-10.47L51.97-10.47L52.06-10.19Q52.13-10 52.13-9.94L52.13-9.94Q52.13-9.78 52-9.63Q51.88-9.47 51.78-9.34L51.78-9.34Q51.59-9.28 51.47-9.28L51.47-9.28Q51.31-9.28 51-9.41L51-9.41Q50.84-9.59 50.84-9.91L50.84-9.91Q50.84-10.19 50.94-10.38L50.94-10.38Q51.25-10.59 51.53-10.63L51.53-10.63Q51.69-10.59 51.73-10.56Q51.78-10.53 51.97-10.47ZM59.09-0.41L59.09-0.41Q59.06-0.19 58.98-0.16Q58.91-0.13 58.97 0.13L58.97 0.13Q58.81 0.16 58.61 0.25Q58.41 0.34 58.31 0.34L58.31 0.34Q58.13 0.34 57.97 0.08Q57.81-0.19 57.81-0.38L57.81-0.38Q57.81-0.59 58.05-0.78Q58.28-0.97 58.47-0.97L58.47-0.97L58.72-0.97Q58.91-0.84 58.95-0.70Q59-0.56 59.09-0.41ZM52.44-6.50L52.44-6.50Q52.38-6.25 52.19-6.06Q52-5.88 51.75-5.75L51.75-5.75Q51.59-5.91 51.39-6.02Q51.19-6.13 51.19-6.38L51.19-6.38Q51.19-6.50 51.20-6.59Q51.22-6.69 51.22-6.81L51.22-6.81Q51.34-6.91 51.50-7.02Q51.66-7.13 51.81-7.13L51.81-7.13Q52.06-7.13 52.22-6.92Q52.38-6.72 52.44-6.50ZM56-0.50L56-0.50Q56-0.28 55.91-0.11Q55.81 0.06 55.78 0.25L55.78 0.25Q55.59 0.25 55.52 0.31Q55.44 0.38 55.31 0.38L55.31 0.38Q55 0.38 54.83 0.16Q54.66-0.06 54.66-0.34L54.66-0.34Q54.66-0.59 54.81-0.72Q54.97-0.84 55.09-1.03L55.09-1.03Q55.44-0.97 55.61-0.88Q55.78-0.78 56-0.50ZM52.38-3.47L52.38-3.47Q52.38-3.22 52.13-3.16L52.13-3.16Q52.03-3.03 51.89-2.94Q51.75-2.84 51.59-2.84L51.59-2.84Q51.47-2.84 51.28-2.97L51.28-2.97L50.97-3.59L51.34-4.03Q51.56-4.13 51.81-4.13L51.81-4.13Q52.16-4.13 52.34-3.81L52.34-3.81Q52.34-3.75 52.36-3.66Q52.38-3.56 52.38-3.47ZM52.34-0.38L52.34-0.38Q52.34-0.22 52.23-0.08Q52.13 0.06 52.09 0.22L52.09 0.22L51.94 0.22Q51.88 0.25 51.78 0.28Q51.69 0.31 51.63 0.31L51.63 0.31Q51.56 0.31 51.38 0.25L51.38 0.25Q51.31 0.09 51.25 0.06Q51.19 0.03 51.09-0.06L51.09-0.06Q51.03-0.22 51.03-0.30Q51.03-0.38 50.94-0.53L50.94-0.53Q51-0.66 51.11-0.77Q51.22-0.88 51.38-0.94L51.38-0.94Q51.47-1.03 51.69-1.03L51.69-1.03L51.84-1.03Q52-0.88 52.17-0.75Q52.34-0.63 52.34-0.38ZM89.91-23.13L90.09-22.78Q90-22.63 89.94-22.47Q89.88-22.31 89.72-22.19L89.72-22.19Q89.63-22.19 89.55-22.17Q89.47-22.16 89.41-22.16L89.41-22.16Q89.16-22.16 89.05-22.25Q88.94-22.34 88.75-22.41L88.75-22.41Q88.75-22.53 88.72-22.64Q88.69-22.75 88.69-22.88L88.69-22.88Q88.69-23.06 88.95-23.23Q89.22-23.41 89.41-23.41L89.41-23.41Q89.69-23.41 89.72-23.30Q89.75-23.19 89.91-23.13L89.91-23.13ZM88.34-19.91L88.34-19.91Q88.25-19.66 88.09-19.53Q87.94-19.41 87.75-19.25L87.75-19.25Q87.53-19.38 87.22-19.44L87.22-19.44Q87.13-19.59 87.02-19.73Q86.91-19.88 86.91-20.03L86.91-20.03Q86.91-20.19 87.02-20.36Q87.13-20.53 87.25-20.63L87.25-20.63L87.50-20.63Q87.63-20.63 87.73-20.59Q87.84-20.56 88-20.59L88-20.59Q88.25-20.22 88.34-19.91ZM86.38-17.03L86.38-17.03Q86.22-16.94 86.17-16.84Q86.13-16.75 86.03-16.63L86.03-16.63Q85.84-16.56 85.72-16.56L85.72-16.56Q85.19-16.56 84.88-17.03L84.88-17.03Q84.88-17.16 84.89-17.28Q84.91-17.41 84.91-17.53L84.91-17.53Q85.13-17.75 85.41-17.83Q85.69-17.91 85.97-17.94L85.97-17.94Q86.06-17.84 86.13-17.72Q86.19-17.59 86.31-17.50L86.31-17.50Q86.28-17.44 86.28-17.41Q86.28-17.38 86.25-17.31L86.25-17.31Q86.31-17.22 86.38-17.03ZM84.31-14.47L84.31-14.34Q84.31-14.19 84.25-14.05Q84.19-13.91 84.19-13.75L84.19-13.75Q84.09-13.78 83.94-13.78L83.94-13.78Q83.88-13.75 83.80-13.72Q83.72-13.69 83.66-13.69L83.66-13.69Q83.44-13.69 83.28-13.84Q83.13-14 82.94-14.09L82.94-14.09L82.94-14.28Q82.94-14.75 83.25-14.80Q83.56-14.84 83.91-14.97L83.91-14.97Q84-14.72 84.08-14.69Q84.16-14.66 84.31-14.47L84.31-14.47ZM74.31-22.41L74.31-22.41L74.31-22.09Q74-22.03 73.81-22.03L73.81-22.03Q73.63-22.03 73.44-22.06Q73.25-22.09 73.06-22.16L73.06-22.16Q72.97-22.31 72.92-22.53Q72.88-22.75 72.75-22.91L72.75-22.91Q72.91-23.06 73.11-23.16Q73.31-23.25 73.47-23.41L73.47-23.41Q73.69-23.34 73.88-23.20Q74.06-23.06 74.28-22.97L74.28-22.97Q74.28-22.81 74.30-22.69Q74.31-22.56 74.31-22.41ZM76.34-20L76.34-20Q76.34-19.91 76.31-19.81Q76.28-19.72 76.28-19.63L76.28-19.63Q75.91-19.41 75.56-19.41L75.56-19.41Q75.31-19.41 75.09-19.50L75.09-19.50Q75.03-19.66 74.98-19.81Q74.94-19.97 74.94-20.13L74.94-20.13Q74.94-20.56 75.20-20.61Q75.47-20.66 75.78-20.69L75.78-20.69Q75.97-20.56 76.16-20.41Q76.34-20.25 76.34-20ZM78.09-17.84L78.09-17.84Q77.97-17.53 77.97-17.34L77.97-17.34Q77.81-17.06 77.69-16.89Q77.56-16.72 77.22-16.72L77.22-16.72Q77.06-16.72 76.94-16.81Q76.81-16.91 76.66-16.97L76.66-16.97L76.66-17.22Q76.66-17.63 76.86-17.88Q77.06-18.13 77.50-18.13L77.50-18.13Q77.72-17.91 78.09-17.84ZM80.13-14.28L80.13-14.28Q80-14.13 79.91-13.88L79.91-13.88Q79.78-13.81 79.67-13.75Q79.56-13.69 79.41-13.69L79.41-13.69Q79.19-13.69 79.02-13.83Q78.84-13.97 78.69-14.09L78.69-14.09Q78.72-14.13 78.78-14.25L78.78-14.25Q78.75-14.31 78.75-14.47L78.75-14.47Q78.75-14.81 79.11-14.91Q79.47-15 79.72-15L79.72-15Q79.88-14.84 80-14.67Q80.13-14.50 80.13-14.28ZM82.31-11.50L82.31-11.50Q82.25-11.31 82.20-11.13Q82.16-10.94 82.09-10.75L82.09-10.75L81.94-10.78Q81.88-10.78 81.81-10.73Q81.75-10.69 81.69-10.66L81.69-10.66Q81.47-10.69 81.34-10.77Q81.22-10.84 81.03-10.94L81.03-10.94Q81.03-11.09 80.97-11.19Q80.91-11.28 80.91-11.44L80.91-11.44Q81.03-11.63 81.19-11.81Q81.34-12 81.59-12L81.59-12Q81.69-12 81.77-11.98Q81.84-11.97 81.94-11.97L81.94-11.97Q82.06-11.88 82.13-11.75Q82.19-11.63 82.31-11.50ZM82.38-8.44L82.38-8.44Q82.31-8.19 82.25-7.98Q82.19-7.78 82.19-7.53L82.19-7.53Q82.03-7.50 81.89-7.42Q81.75-7.34 81.59-7.34L81.59-7.34Q81.28-7.34 80.97-7.56L80.97-7.56Q80.97-7.69 80.95-7.78Q80.94-7.88 80.81-7.94L80.81-7.94Q80.94-8.72 81.81-8.72L81.81-8.72Q82.03-8.47 82.38-8.44ZM82.41-3.91L82.41-3.91Q82.25-3.75 82.09-3.55Q81.94-3.34 81.69-3.34L81.69-3.34Q81.34-3.34 81.20-3.44Q81.06-3.53 81-3.67Q80.94-3.81 80.91-4.02Q80.88-4.22 80.72-4.41L80.72-4.41Q81.09-4.50 81.22-4.59Q81.34-4.69 81.63-4.88L81.63-4.88Q81.78-4.78 81.95-4.66Q82.13-4.53 82.19-4.38L82.19-4.38Q82.28-4.22 82.27-4.14Q82.25-4.06 82.41-3.91ZM82.16-0.72L82.41-0.59Q82.34-0.53 82.28-0.41L82.28-0.41Q82.28-0.34 82.30-0.27Q82.31-0.19 82.31-0.09L82.31-0.09L82.03 0.31Q81.91 0.31 81.81 0.38Q81.72 0.44 81.59 0.44L81.59 0.44Q81.44 0.44 81.28 0.36Q81.13 0.28 81 0.19L81 0.19Q80.94 0.06 80.91-0.05Q80.88-0.16 80.88-0.31L80.88-0.31Q80.88-0.47 80.97-0.72L80.97-0.72Q81.13-0.78 81.27-0.89Q81.41-1 81.59-1L81.59-1Q82-1 82.16-0.72L82.16-0.72ZM104.75-20.94L104.75-20.94Q104.75-20.78 104.69-20.66Q104.63-20.53 104.59-20.38L104.59-20.38Q104.28-20.25 104.06-20.25L104.06-20.25Q103.38-20.25 103.38-20.94L103.38-20.94Q103.38-21.13 103.48-21.25Q103.59-21.38 103.66-21.53L103.66-21.53L104.13-21.56L104.69-21.22Q104.75-21.03 104.75-20.94ZM106.63-19.09L106.63-19Q106.63-18.84 106.56-18.83Q106.50-18.81 106.56-18.66L106.56-18.66Q106.41-18.50 106.34-18.48Q106.28-18.47 106.09-18.44L106.09-18.44Q106-18.38 105.78-18.38L105.78-18.38Q105.72-18.34 105.70-18.33Q105.69-18.31 105.63-18.28L105.63-18.28Q105.53-18.41 105.44-18.50Q105.34-18.59 105.19-18.59L105.19-18.59L105.19-19.38Q105.44-19.38 105.53-19.50Q105.63-19.63 105.91-19.63L105.91-19.63Q106.16-19.63 106.33-19.47Q106.50-19.31 106.63-19.09L106.63-19.09ZM102.53-22.81L102.53-22.56Q102.53-22.38 102.44-22.20Q102.34-22.03 102.22-21.91L102.22-21.91Q101.97-21.84 101.91-21.84L101.91-21.84Q101.72-21.84 101.55-21.92Q101.38-22 101.22-22.06L101.22-22.06Q101.22-22.19 101.19-22.28Q101.16-22.38 101.16-22.50L101.16-22.50Q101.16-22.72 101.42-22.92Q101.69-23.13 101.88-23.13L101.88-23.13Q102.06-23.13 102.22-23Q102.38-22.88 102.53-22.81L102.53-22.81ZM99.72-22.88L99.72-22.88Q99.56-22.75 99.39-22.64Q99.22-22.53 99.06-22.38L99.06-22.38L98.31-22.50L98.13-23.28Q98.31-23.44 98.50-23.55Q98.69-23.66 98.94-23.66L98.94-23.66Q99.03-23.66 99.22-23.59L99.22-23.59Q99.38-23.44 99.45-23.23Q99.53-23.03 99.72-22.88ZM96.50-22.38L96.50-22.38Q96.50-22.28 96.44-22.16L96.44-22.16Q96.22-22 96.14-21.97Q96.06-21.94 95.81-21.91L95.81-21.91Q95.75-21.91 95.67-21.86Q95.59-21.81 95.50-21.81L95.50-21.81L95.31-21.81Q95.31-22.06 95.27-22.14Q95.22-22.22 95.09-22.41L95.09-22.41Q95.25-22.66 95.44-22.86Q95.63-23.06 95.94-23.06L95.94-23.06Q96.09-23.06 96.16-23.03L96.16-23.03Q96.28-22.91 96.39-22.75Q96.50-22.59 96.50-22.38ZM104.97-10.19L104.97-9.97Q104.97-9.72 104.77-9.59Q104.56-9.47 104.41-9.31L104.41-9.31Q104.16-9.41 103.92-9.47Q103.69-9.53 103.53-9.78L103.53-9.78L103.53-10.06Q103.53-10.22 103.59-10.41L103.59-10.41L104-10.72L104.41-10.78L104.78-10.50Q104.84-10.25 104.97-10.19L104.97-10.19ZM93.94-20.25L93.94-20.25Q93.63-20.13 93.47-20.11Q93.31-20.09 93-20.03L93-20.03Q92.81-20.16 92.66-20.30Q92.50-20.44 92.50-20.66L92.50-20.66Q92.50-20.91 92.69-21.09Q92.88-21.28 93.09-21.38L93.09-21.38L93.34-21.13Q93.41-21.16 93.53-21.16L93.53-21.16Q93.81-21.16 93.83-20.94Q93.84-20.72 93.84-20.56L93.84-20.56Q93.84-20.38 93.94-20.25ZM106.84-6.91L106.84-6.91Q106.84-6.75 106.81-6.69L106.81-6.69Q106.75-6.63 106.67-6.53Q106.59-6.44 106.50-6.38L106.50-6.38Q106.44-6.38 106.36-6.36Q106.28-6.34 106.22-6.34L106.22-6.34Q106.09-6.34 105.97-6.41L105.97-6.41Q105.91-6.44 105.72-6.52Q105.53-6.59 105.53-6.72L105.53-6.72Q105.44-6.91 105.44-6.97L105.44-6.97Q105.44-7.16 105.55-7.27Q105.66-7.38 105.66-7.53L105.66-7.53Q105.81-7.59 105.95-7.61Q106.09-7.63 106.25-7.72L106.25-7.72Q106.47-7.56 106.66-7.38Q106.84-7.19 106.84-6.91ZM101.56-11.63L101.56-11.63Q101.56-11.50 101.53-11.38Q101.50-11.25 101.50-11.13L101.50-11.13Q101.34-11.06 101.19-10.95Q101.03-10.84 100.88-10.84L100.88-10.84Q100.72-10.84 100.56-10.92Q100.41-11 100.25-11.06L100.25-11.06L100.34-11.22Q100.28-11.28 100.23-11.36Q100.19-11.44 100.19-11.53L100.19-11.53Q100.19-11.66 100.22-11.77Q100.25-11.88 100.28-12L100.28-12Q100.59-12.22 100.91-12.22L100.91-12.22Q101.09-12.22 101.28-12.09L101.28-12.09Q101.34-11.94 101.45-11.89Q101.56-11.84 101.56-11.63ZM98.16-12.44L98.16-12.44Q98.09-12.09 97.91-11.84L97.91-11.84Q97.66-11.75 97.44-11.75L97.44-11.75Q97.25-11.75 96.94-11.88L96.94-11.88Q96.81-12.09 96.81-12.34L96.81-12.34Q96.81-12.72 96.97-12.91L96.97-12.91Q97.06-12.94 97.16-12.97Q97.25-13 97.34-13L97.34-13L97.50-13Q97.78-12.81 97.88-12.80Q97.97-12.78 98.16-12.44ZM93.19-17.41L93.19-17.41Q93.16-17.28 93.16-17.06L93.16-17.06Q93.16-16.81 92.95-16.67Q92.75-16.53 92.53-16.53L92.53-16.53Q92.25-16.53 92.05-16.73Q91.84-16.94 91.84-17.22L91.84-17.22Q91.84-17.50 91.98-17.56Q92.13-17.63 92.28-17.81L92.28-17.81Q92.56-17.78 92.75-17.67Q92.94-17.56 93.19-17.41ZM106.22-3.31L106.22-3.31Q106.19-3.16 106.14-2.98Q106.09-2.81 106.09-2.66L106.09-2.66Q105.94-2.66 105.81-2.61Q105.69-2.56 105.53-2.56L105.53-2.56Q105.47-2.56 105.28-2.69L105.28-2.69Q105.19-2.69 105.06-2.63L105.06-2.63Q104.94-3.06 104.69-3.22L104.69-3.22L105.03-3.88Q105.16-3.81 105.22-3.81L105.22-3.81Q105.28-3.81 105.34-3.88Q105.41-3.94 105.47-4L105.47-4Q105.59-3.88 105.69-3.81L105.69-3.81Q105.75-3.84 105.88-3.84L105.88-3.84Q106-3.69 106.08-3.58Q106.16-3.47 106.22-3.31ZM94.72-14.22L94.72-13.84Q94.72-13.56 94.55-13.41Q94.38-13.25 94.13-13.16L94.13-13.16Q93.72-13.31 93.56-13.47L93.56-13.47Q93.44-13.72 93.44-13.88L93.44-13.88Q93.44-14.03 93.52-14.19Q93.59-14.34 93.59-14.50L93.59-14.50Q93.66-14.50 93.73-14.48Q93.81-14.47 93.88-14.47L93.88-14.47Q93.97-14.47 94.06-14.48Q94.16-14.50 94.22-14.50L94.22-14.50Q94.38-14.41 94.44-14.34Q94.50-14.28 94.72-14.22L94.72-14.22ZM103.59-0.88L103.59-0.88Q103.59-0.53 103.39-0.38Q103.19-0.22 102.94-0.13L102.94-0.13Q102.78-0.16 102.67-0.22Q102.56-0.28 102.41-0.31L102.41-0.31Q102.31-0.47 102.23-0.58Q102.16-0.69 102.09-0.84L102.09-0.84Q102.16-1 102.23-1.13Q102.31-1.25 102.38-1.41L102.38-1.41Q102.53-1.47 102.66-1.52Q102.78-1.56 102.94-1.56L102.94-1.56Q103.03-1.56 103.22-1.50L103.22-1.50Q103.34-1.34 103.47-1.22Q103.59-1.09 103.59-0.88ZM99.81 0L99.81 0Q99.81 0.25 99.63 0.45Q99.44 0.66 99.19 0.66L99.19 0.66Q99.03 0.66 98.88 0.61Q98.72 0.56 98.56 0.56L98.56 0.56Q98.50 0.41 98.45 0.25Q98.41 0.09 98.41-0.06L98.41-0.06L98.41-0.34Q98.63-0.47 98.83-0.50Q99.03-0.53 99.22-0.66L99.22-0.66L99.75-0.25Q99.81-0.06 99.81 0ZM95.94-1.13L96.28-0.59Q96.03 0.09 95.44 0.09L95.44 0.09L95.28 0.09Q95.09-0.03 95.03-0.17Q94.97-0.31 94.81-0.47L94.81-0.47Q94.91-0.75 94.91-0.97L94.91-0.97Q95.13-1.19 95.34-1.19L95.34-1.19Q95.50-1.19 95.64-1.16Q95.78-1.13 95.94-1.13L95.94-1.13ZM93.13-1.81L93.13-1.81Q92.97-1.69 92.80-1.56Q92.63-1.44 92.41-1.44L92.41-1.44Q92.31-1.44 92.22-1.47Q92.13-1.50 92.06-1.50L92.06-1.50Q91.78-1.75 91.78-1.86Q91.78-1.97 91.63-2.13L91.63-2.13Q91.81-2.34 91.95-2.56Q92.09-2.78 92.44-2.78L92.44-2.78Q92.63-2.78 92.78-2.67Q92.94-2.56 93.09-2.50L93.09-2.50Q93.13-2.34 93.13-2.17Q93.13-2 93.13-1.81ZM128.78-22.66L128.78-22.66Q128.78-22.56 128.72-22.38L128.72-22.38L128.38-22.06L128.19-22.06Q128.06-22.06 127.95-22.08Q127.84-22.09 127.69-22.09L127.69-22.09Q127.59-22.25 127.52-22.41Q127.44-22.56 127.44-22.75L127.44-22.75Q127.75-23.25 128.13-23.25L128.13-23.25Q128.22-23.25 128.31-23.23Q128.41-23.22 128.47-23.22L128.47-23.22Q128.59-23.09 128.69-22.95Q128.78-22.81 128.78-22.66ZM125.75-22.81L125.75-22.66Q125.75-22.47 125.66-22.33Q125.56-22.19 125.47-22.03L125.47-22.03Q125.31-22.03 125.20-22.02Q125.09-22 124.97-22L124.97-22Q124.84-22 124.66-22.06L124.66-22.06L124.28-22.47Q124.41-22.59 124.39-22.63Q124.38-22.66 124.38-22.81L124.38-22.81Q124.38-22.91 124.41-22.97L124.41-22.97L124.72-23.28Q124.91-23.28 125.08-23.28Q125.25-23.28 125.44-23.25L125.44-23.25Q125.50-23.13 125.58-23.02Q125.66-22.91 125.75-22.81L125.75-22.81ZM122.75-22.69L122.75-22.69Q122.72-22.34 122.50-22.17Q122.28-22 121.94-22L121.94-22Q121.88-22 121.63-22.06L121.63-22.06Q121.59-22.09 121.42-22.30Q121.25-22.50 121.31-22.56L121.31-22.56Q121.34-22.59 121.34-22.69L121.34-22.69Q121.34-22.91 121.55-23.11Q121.75-23.31 121.97-23.31L121.97-23.31Q122.13-23.31 122.22-23.25Q122.31-23.19 122.47-23.16L122.47-23.16Q122.56-23.03 122.61-22.91Q122.66-22.78 122.75-22.69ZM119.53-22.44L119.53-22.44Q119.41-22.31 119.31-22.28L119.31-22.28L119.31-22.13Q119.19-22.06 119.05-22.03Q118.91-22 118.75-21.91L118.75-21.91Q118.59-22 118.44-22.11Q118.28-22.22 118.09-22.31L118.09-22.31Q118.09-22.47 118.08-22.63Q118.06-22.78 118.06-22.94L118.06-22.94Q118.25-23.03 118.42-23.16Q118.59-23.28 118.78-23.41L118.78-23.41L119.28-23.19Q119.34-22.97 119.44-22.81Q119.53-22.66 119.53-22.44ZM116.47-22.59L116.47-22.59Q116.47-22.41 116.38-22.38L116.38-22.38Q116.31-22.22 116.25-22.17Q116.19-22.13 116.13-21.97L116.13-21.97L115.81-21.97Q115.28-21.97 115.17-22.16Q115.06-22.34 115-22.78L115-22.78Q115.03-22.94 115.11-23Q115.19-23.06 115.22-23.22L115.22-23.22Q115.38-23.28 115.48-23.31Q115.59-23.34 115.75-23.34L115.75-23.34Q115.91-23.34 116.02-23.30Q116.13-23.25 116.25-23.22L116.25-23.22Q116.25-23 116.36-22.89Q116.47-22.78 116.47-22.59ZM119.63-19.06L119.63-19.06Q119.47-18.81 119.34-18.61Q119.22-18.41 118.91-18.28L118.91-18.28Q118.75-18.34 118.70-18.33Q118.66-18.31 118.50-18.31L118.50-18.31L118.38-18.38Q118.25-18.53 118.19-18.66Q118.13-18.78 118-18.94L118-18.94Q118.19-19.13 118.19-19.38L118.19-19.38Q118.50-19.59 118.81-19.59L118.81-19.59Q118.91-19.59 118.98-19.58Q119.06-19.56 119.16-19.53L119.16-19.53Q119.25-19.44 119.27-19.36Q119.28-19.28 119.31-19.22Q119.34-19.16 119.41-19.13Q119.47-19.09 119.63-19.06ZM113.28-22.38L113.28-22.38Q113.03-22.13 112.84-22.08Q112.66-22.03 112.31-22.03L112.31-22.03Q112-22.03 111.91-22.33Q111.81-22.63 111.81-22.88L111.81-22.88Q112-23.03 112.17-23.19Q112.34-23.34 112.59-23.31L112.59-23.31L112.75-23.41Q112.88-23.22 112.97-23.13Q113.06-23.03 113.13-22.94Q113.19-22.84 113.22-22.72Q113.25-22.59 113.28-22.38ZM119.63-15.19L119.63-15.19Q119.56-15.13 119.50-14.97Q119.44-14.81 119.41-14.75L119.41-14.75Q119.31-14.69 119.20-14.63Q119.09-14.56 119-14.47L119-14.47Q118.84-14.56 118.75-14.56Q118.66-14.56 118.50-14.59L118.50-14.59Q118.38-14.75 118.33-14.78Q118.28-14.81 118.09-14.84L118.09-14.84Q118.16-15.16 118.25-15.55Q118.34-15.94 118.78-15.94L118.78-15.94Q119.16-15.94 119.30-15.69Q119.44-15.44 119.63-15.19ZM110-22.59L110-22.59Q110-22.38 109.81-22.13L109.81-22.13Q109.69-22.06 109.58-22.03Q109.47-22 109.31-22L109.31-22Q109.03-22 108.91-22.17Q108.78-22.34 108.63-22.56L108.63-22.56Q108.69-22.88 108.69-23.03L108.69-23.03Q108.84-23.13 109.03-23.20Q109.22-23.28 109.41-23.28L109.41-23.28Q109.50-23.28 109.61-23.25Q109.72-23.22 109.81-23.22L109.81-23.22Q109.88-23.06 109.94-22.91Q110-22.75 110-22.59ZM119.56-11.50L119.56-11.50Q119.44-11.25 119.33-11.03Q119.22-10.81 118.88-10.81L118.88-10.81Q118.72-10.81 118.63-10.86Q118.53-10.91 118.41-10.91L118.41-10.91Q118.28-11.03 118.25-11.16Q118.22-11.28 118.06-11.34L118.06-11.34Q118.06-11.59 118.13-11.72Q118.19-11.84 118.34-12.03L118.34-12.03L118.91-12.22Q119.06-12.06 119.11-12.03Q119.16-12 119.41-11.94L119.41-11.94Q119.41-11.72 119.42-11.69Q119.44-11.66 119.56-11.50ZM119.53-7.91L119.53-7.81Q119.53-7.59 119.45-7.59Q119.38-7.59 119.44-7.38L119.44-7.38Q119.28-7.28 119.14-7.19Q119-7.09 118.81-7.09L118.81-7.09Q118.72-7.09 118.63-7.13Q118.53-7.16 118.41-7.19L118.41-7.19Q118.38-7.25 118.22-7.45Q118.06-7.66 118.06-7.72L118.06-7.72Q118.06-7.97 118.33-8.19Q118.59-8.41 118.84-8.41L118.84-8.41Q118.97-8.41 119.17-8.20Q119.38-8 119.53-7.91L119.53-7.91ZM119.31-4.41L119.41-3.88Q119.34-3.72 119.25-3.63Q119.16-3.53 119.09-3.38L119.09-3.38L118.34-3.44Q118.25-3.66 118.11-3.73Q117.97-3.81 117.94-4.06L117.94-4.06Q118.09-4.31 118.22-4.52Q118.34-4.72 118.69-4.72L118.69-4.72Q119.06-4.72 119.31-4.41L119.31-4.41ZM119.53-0.28L119.53-0.28Q119.53-0.22 119.47-0.03L119.47-0.03Q119.38 0.06 119.20 0.20Q119.03 0.34 118.88 0.34L118.88 0.34Q118.72 0.34 118.67 0.28Q118.63 0.22 118.44 0.25L118.44 0.25Q118.31 0.09 118.20-0.05Q118.09-0.19 118.09-0.41L118.09-0.41Q118.09-0.63 118.25-0.73Q118.41-0.84 118.50-1L118.50-1L118.75-1Q118.91-1 119.22-0.94L119.22-0.94Q119.28-0.78 119.41-0.64Q119.53-0.50 119.53-0.28ZM141.31-22.88L141.31-22.88Q141.31-22.63 141.22-22.47Q141.13-22.31 141.06-22.06L141.06-22.06L140.56-22.06Q140.38-22.19 140.22-22.22Q140.06-22.25 140.06-22.53L140.06-22.53Q140.06-22.66 140.09-22.77Q140.13-22.88 140.13-22.97L140.13-22.97Q140.31-23.25 140.66-23.25L140.66-23.25Q140.78-23.25 141.03-23.19L141.03-23.19Q141.09-23.06 141.13-23Q141.16-22.94 141.31-22.88ZM143.06-19.84L143.06-19.84Q143-19.72 142.84-19.55Q142.69-19.38 142.66-19.28L142.66-19.28L142.50-19.22Q142.25-19.22 142.09-19.31Q141.94-19.41 141.72-19.56L141.72-19.56Q141.78-19.81 141.86-20.11Q141.94-20.41 142.28-20.41L142.28-20.41Q142.59-20.41 142.80-20.30Q143-20.19 143.06-19.84ZM144.50-15.81L144.50-15.81L144.13-15.38Q143.94-15.31 143.88-15.31L143.88-15.31Q143.72-15.31 143.58-15.38Q143.44-15.44 143.28-15.50L143.28-15.50Q143.25-15.59 143.22-15.69Q143.19-15.78 143.19-15.91L143.19-15.91Q143.19-15.94 143.25-16.13L143.25-16.13Q143.56-16.44 144.06-16.44L144.06-16.44Q144.31-16.19 144.50-15.81ZM139.81-19.25L139.81-19.25Q139.81-19 139.59-18.83Q139.38-18.66 139.13-18.66L139.13-18.66Q139-18.66 138.88-18.72L138.88-18.72Q138.81-18.69 138.75-18.67Q138.69-18.66 138.63-18.63L138.63-18.63Q138.59-18.81 138.55-19.02Q138.50-19.22 138.50-19.41L138.50-19.41Q138.50-19.59 138.61-19.67Q138.72-19.75 138.84-19.91L138.84-19.91Q139-19.91 139.19-19.89Q139.38-19.88 139.53-19.88L139.53-19.88Q139.59-19.72 139.70-19.58Q139.81-19.44 139.81-19.25ZM145.97-12.47L145.97-12.47Q145.97-12.34 145.92-12.22Q145.88-12.09 145.88-11.97L145.88-11.97Q145.72-11.94 145.59-11.86Q145.47-11.78 145.31-11.78L145.31-11.78Q145.16-11.78 145-11.89Q144.84-12 144.69-12.03L144.69-12.03Q144.69-12.09 144.72-12.14Q144.75-12.19 144.75-12.25L144.75-12.25Q144.75-12.31 144.72-12.39Q144.69-12.47 144.66-12.53L144.66-12.53Q144.81-12.72 145-12.89Q145.19-13.06 145.44-13.06L145.44-13.06Q145.66-13.06 145.81-12.88Q145.97-12.69 145.97-12.47ZM146.94-8.97L146.94-8.97Q146.94-8.56 146.70-8.52Q146.47-8.47 146.19-8.31L146.19-8.31Q146.06-8.44 145.94-8.50Q145.81-8.56 145.72-8.72L145.72-8.72Q145.69-8.88 145.66-9.05Q145.63-9.22 145.56-9.38L145.56-9.38Q145.75-9.47 145.95-9.55Q146.16-9.63 146.41-9.63L146.41-9.63Q146.72-9.63 146.83-9.44Q146.94-9.25 146.94-8.97ZM148.28-6.47L148.28-6.47Q148.28-6.22 148.19-5.94L148.19-5.94Q148.03-5.88 147.88-5.83Q147.72-5.78 147.56-5.78L147.56-5.78Q147.03-5.78 147.03-6.31L147.03-6.31Q147.03-6.41 147.05-6.48Q147.06-6.56 147.06-6.63L147.06-6.63L147.38-7Q147.53-6.94 147.67-6.94Q147.81-6.94 147.97-6.91L147.97-6.91Q148.19-6.69 148.28-6.47ZM138.16-15.78L138.16-15.78Q137.97-15.59 137.73-15.44Q137.50-15.28 137.22-15.28L137.22-15.28Q137.06-15.28 136.88-15.47L136.88-15.47Q136.78-15.69 136.78-15.94L136.78-15.94Q136.78-16.03 136.81-16.13Q136.84-16.22 136.84-16.31L136.84-16.31Q136.97-16.38 137.08-16.45Q137.19-16.53 137.34-16.53L137.34-16.53Q137.47-16.53 137.56-16.44L137.56-16.44Q137.69-16.44 137.78-16.41Q137.88-16.38 137.97-16.38L137.97-16.38Q138.03-16.19 138.05-16.06Q138.06-15.94 138.16-15.78ZM143.88-8.34L143.88-8.34Q143.88-8.03 143.59-7.84L143.59-7.84Q143.34-7.81 143-7.66L143-7.66L142.50-8Q142.56-8.13 142.55-8.23Q142.53-8.34 142.53-8.50L142.53-8.50Q142.69-8.78 142.78-8.88Q142.88-8.97 142.95-8.98Q143.03-9 143.11-9.02Q143.19-9.03 143.28-9.13L143.28-9.13L143.75-8.88L143.75-8.72Q143.75-8.63 143.81-8.55Q143.88-8.47 143.88-8.34ZM149.09-3.25L149.22-3.09Q149.13-2.75 148.92-2.58Q148.72-2.41 148.38-2.31L148.38-2.31Q148.22-2.47 148.08-2.58Q147.94-2.69 147.81-2.84L147.81-2.84Q147.84-2.97 147.88-3.08Q147.91-3.19 147.91-3.34L147.91-3.34Q148.06-3.41 148.13-3.50Q148.19-3.59 148.31-3.69L148.31-3.69Q148.50-3.63 148.69-3.59Q148.88-3.56 149.06-3.47L149.06-3.47Q149.06-3.31 149.09-3.25L149.09-3.25ZM150.31 0.06L150.31 0.06Q150.25 0.19 150.14 0.28Q150.03 0.38 149.94 0.44L149.94 0.44Q149.69 0.38 149.50 0.38Q149.31 0.38 149.16 0.34L149.16 0.34Q149.13 0.19 149.08 0.03Q149.03-0.13 149.03-0.28L149.03-0.28Q149.03-0.47 149.25-0.59Q149.47-0.72 149.66-0.72L149.66-0.72Q149.91-0.72 150.19-0.63L150.19-0.63Q150.25-0.47 150.27-0.30Q150.28-0.13 150.31 0.06ZM141.16-8.53L141.16-8.53Q141.16-8.38 141.14-8.25Q141.13-8.13 141.13-7.97L141.13-7.97L140.97-7.88Q140.63-7.75 140.22-7.75L140.22-7.75Q139.97-8 139.97-8.17Q139.97-8.34 139.91-8.66L139.91-8.66Q140.25-9 140.66-9L140.66-9L140.88-9Q140.94-8.88 141-8.75Q141.06-8.63 141.16-8.53ZM136.50-11.88L136.50-11.88Q136.34-11.78 136.17-11.67Q136-11.56 135.81-11.56L135.81-11.56Q135.56-11.72 135.41-11.84Q135.25-11.97 135.25-12.25L135.25-12.25L135.19-12.44Q135.53-12.66 135.67-12.66Q135.81-12.66 136.16-12.69L136.16-12.69L136.28-12.63Q136.44-12.47 136.44-12.27Q136.44-12.06 136.50-11.88ZM138.44-8.25L138.44-8.25L138.09-7.81Q137.97-7.75 137.84-7.75L137.84-7.75Q137.72-7.75 137.61-7.78Q137.50-7.81 137.38-7.84L137.38-7.84Q137.31-7.97 137.28-8.08Q137.25-8.19 137.09-8.25L137.09-8.25Q137.16-8.53 137.28-8.67Q137.41-8.81 137.63-9L137.63-9Q137.78-8.94 137.94-8.94Q138.09-8.94 138.25-8.91L138.25-8.91Q138.31-8.75 138.33-8.58Q138.34-8.41 138.44-8.25ZM135.16-8.78L135.16-8.78Q135.03-8.59 134.91-8.41Q134.78-8.22 134.53-8.22L134.53-8.22Q134.31-8.22 134.08-8.41Q133.84-8.59 133.84-8.81L133.84-8.81Q133.84-9 134-9.23Q134.16-9.47 134.38-9.47L134.38-9.47Q134.53-9.47 134.64-9.41Q134.75-9.34 134.91-9.31L134.91-9.31Q135.03-9.19 135.05-9.06Q135.06-8.94 135.16-8.78ZM133.75-5.78L133.78-5.78Q133.78-5.50 133.53-5.33Q133.28-5.16 133.03-5.09L133.03-5.09Q132.81-5.28 132.50-5.38L132.50-5.38Q132.50-5.50 132.47-5.58Q132.44-5.66 132.44-5.78L132.44-5.78Q132.44-5.94 132.56-6.09Q132.69-6.25 132.78-6.34L132.78-6.34Q133.22-6.34 133.56-6.22L133.56-6.22Q133.63-6.09 133.66-6Q133.69-5.91 133.75-5.78L133.75-5.78ZM132.47-2.59L132.47-2.59Q132.47-2.41 132.28-2.23Q132.09-2.06 131.91-2.06L131.91-2.06Q131.78-2.06 131.66-2.19L131.66-2.19Q131.50-2.25 131.38-2.38Q131.25-2.50 131.25-2.66L131.25-2.66L131.25-2.88Q131.34-2.97 131.42-3.02Q131.50-3.06 131.53-3.22L131.53-3.22L131.81-3.22Q131.97-3.22 132.09-3.17Q132.22-3.13 132.34-3.06L132.34-3.06Q132.47-2.75 132.47-2.59ZM131.56-0.16L131.56-0.16Q131.56-0.06 131.50 0.13L131.50 0.13Q131.41 0.22 131.31 0.22Q131.22 0.22 131.22 0.38L131.22 0.38L130.88 0.38Q130.63 0.38 130.42 0.22Q130.22 0.06 130.22-0.19L130.22-0.19Q130.22-0.56 130.59-0.88L130.59-0.88Q130.66-0.84 130.75-0.81Q130.84-0.78 130.91-0.78L130.91-0.78Q130.97-0.78 131-0.80Q131.03-0.81 131.09-0.81L131.09-0.81Q131.25-0.81 131.34-0.73Q131.44-0.66 131.53-0.59L131.53-0.59Q131.53-0.47 131.55-0.36Q131.56-0.25 131.56-0.16ZM168.34-21.16L168.97-20.50Q168.88-20.31 168.88-20.25Q168.88-20.19 168.84-20L168.84-20Q168.63-19.94 168.58-19.83Q168.53-19.72 168.25-19.72L168.25-19.72Q168.09-19.72 167.97-19.80Q167.84-19.88 167.69-19.91L167.69-19.91Q167.63-20.06 167.58-20.20Q167.53-20.34 167.53-20.50L167.53-20.50Q167.53-20.59 167.55-20.67Q167.56-20.75 167.59-20.84L167.59-20.84Q167.78-20.91 167.98-20.95Q168.19-21 168.34-21.16L168.34-21.16ZM166.03-22.66L166.03-22.66Q166.03-22.53 166.02-22.42Q166-22.31 166-22.19L166-22.19Q165.84-22.09 165.66-21.98Q165.47-21.88 165.28-21.88L165.28-21.88Q165.03-21.88 164.94-22Q164.84-22.13 164.72-22.28L164.72-22.28Q164.56-22.53 164.64-22.58Q164.72-22.63 164.66-22.91L164.66-22.91Q164.78-23 164.91-23.08Q165.03-23.16 165.19-23.16L165.19-23.16Q165.44-23.16 165.67-23.02Q165.91-22.88 166.03-22.66ZM169.69-17.25L169.69-16.94Q169.69-16.81 169.58-16.72Q169.47-16.63 169.44-16.47L169.44-16.47L168.78-16.31Q168.63-16.47 168.55-16.64Q168.47-16.81 168.31-16.97L168.31-16.97Q168.38-17.19 168.48-17.38Q168.59-17.56 168.72-17.75L168.72-17.75Q168.88-17.75 168.98-17.72Q169.09-17.69 169.25-17.69L169.25-17.69Q169.38-17.56 169.48-17.48Q169.59-17.41 169.69-17.25L169.69-17.25ZM162.75-23L162.75-23Q162.75-22.78 162.67-22.66Q162.59-22.53 162.44-22.38L162.44-22.38Q162.34-22.38 162.23-22.36Q162.13-22.34 162-22.34L162-22.34Q161.69-22.34 161.58-22.59Q161.47-22.84 161.31-23.03L161.31-23.03Q161.56-23.28 161.59-23.56L161.59-23.56Q161.72-23.56 161.83-23.58Q161.94-23.59 162.06-23.59L162.06-23.59Q162.25-23.59 162.38-23.50Q162.50-23.41 162.69-23.38L162.69-23.38Q162.75-23.13 162.75-23ZM168.59-14.09L168.59-13.81Q168.59-13.66 168.58-13.52Q168.56-13.38 168.56-13.22L168.56-13.22L168.09-13.13Q167.88-13.13 167.70-13.13Q167.53-13.13 167.28-13.28L167.28-13.28Q167.22-13.50 167.27-13.55Q167.31-13.59 167.25-13.88L167.25-13.88Q167.50-14.28 167.66-14.33Q167.81-14.38 168.25-14.53L168.25-14.53L168.59-14.09ZM159.22-22.97L159.22-22.97Q159.22-22.78 159.06-22.69L159.06-22.69Q159.06-22.59 159.13-22.47L159.13-22.47Q158.97-22.44 158.83-22.36Q158.69-22.28 158.53-22.28L158.53-22.28Q158.38-22.28 158.27-22.31Q158.16-22.34 158-22.38L158-22.38Q157.84-22.50 157.81-22.64Q157.78-22.78 157.66-22.91L157.66-22.91Q157.88-23.13 157.91-23.38L157.91-23.38Q158.09-23.53 158.50-23.53L158.50-23.53L158.69-23.53Q158.75-23.47 158.83-23.38Q158.91-23.28 158.97-23.28L158.97-23.28Q159.09-23.22 159.13-23.14Q159.16-23.06 159.22-22.97ZM155.59-22.88L155.59-22.88Q155.50-22.59 155.50-22.34L155.50-22.34Q155.34-22.28 155.16-22.23Q154.97-22.19 154.78-22.19L154.78-22.19Q154.50-22.19 154.28-22.41L154.28-22.41Q154.28-22.53 154.23-22.63Q154.19-22.72 154.19-22.88L154.19-22.88Q154.28-23.03 154.33-23.19Q154.38-23.34 154.50-23.50L154.50-23.50L154.59-23.38Q154.78-23.44 154.84-23.44L154.84-23.44Q154.97-23.44 155.11-23.36Q155.25-23.28 155.38-23.22L155.38-23.22Q155.38-23.06 155.42-23.02Q155.47-22.97 155.59-22.88ZM165.78-11.56L165.78-11.56Q165.78-10.78 165.03-10.78L165.03-10.78Q164.69-10.78 164.44-11.03L164.44-11.03Q164.47-11.34 164.48-11.52Q164.50-11.69 164.66-11.97L164.66-11.97Q164.75-12 164.84-12.03Q164.94-12.06 165.06-12.06L165.06-12.06Q165.28-12.06 165.45-11.89Q165.63-11.72 165.78-11.56ZM155.53-19.75L155.59-19.19Q155.41-19 155.17-18.88Q154.94-18.75 154.66-18.75L154.66-18.75Q154.44-18.97 154.25-19.25L154.25-19.25Q154.16-19.53 154.16-19.61Q154.16-19.69 154.17-19.72Q154.19-19.75 154.23-19.77Q154.28-19.78 154.28-19.88L154.28-19.88Q154.44-19.94 154.58-20.02Q154.72-20.09 154.88-20.09L154.88-20.09Q155.03-20.09 155.22-19.98Q155.41-19.88 155.53-19.75L155.53-19.75ZM164.69-8.78L164.69-8.78Q164.69-8.56 164.59-8.41Q164.50-8.25 164.47-8.06L164.47-8.06Q164.34-8.06 164.22-8.08Q164.09-8.09 163.94-8.09L163.94-8.09Q163.88-8.09 163.77-8.05Q163.66-8 163.59-7.97L163.59-7.97Q163.56-8.16 163.47-8.34Q163.38-8.53 163.38-8.75L163.38-8.75L163.38-9.13L164.06-9.41Q164.22-9.34 164.36-9.27Q164.50-9.19 164.66-9.13L164.66-9.13Q164.66-9.03 164.67-8.94Q164.69-8.84 164.69-8.78ZM162-11.13L162-11.13Q162.03-10.91 162.05-10.86Q162.06-10.81 162.06-10.56L162.06-10.56Q162.06-10.28 161.83-10.16Q161.59-10.03 161.34-10.03L161.34-10.03Q161.16-10.03 160.97-10.13L160.97-10.13Q160.91-10.28 160.83-10.39Q160.75-10.50 160.69-10.66L160.69-10.66Q160.69-10.84 160.78-10.98Q160.88-11.13 160.94-11.28L160.94-11.28Q161.09-11.28 161.20-11.31Q161.31-11.34 161.47-11.34L161.47-11.34Q161.72-11.34 161.75-11.30Q161.78-11.25 162-11.13ZM165.88-5.06L165.88-5.06Q165.66-5.06 165.52-5.19Q165.38-5.31 165.22-5.47L165.22-5.47Q165.25-5.69 165.28-5.91Q165.31-6.13 165.47-6.31L165.47-6.31Q165.63-6.41 165.80-6.41Q165.97-6.41 166.16-6.44L166.16-6.44Q166.22-6.38 166.31-6.30Q166.41-6.22 166.47-6.13L166.47-6.13Q166.69-5.88 166.50-5.47Q166.31-5.06 165.88-5.06ZM168.59-2.91L168.59-2.91Q168.59-2.66 168.41-2.53L168.41-2.53L168.22-2.31Q167.97-2.34 167.75-2.36Q167.53-2.38 167.34-2.53L167.34-2.53Q167.28-2.69 167.23-2.83Q167.19-2.97 167.19-3.13L167.19-3.13Q167.19-3.28 167.42-3.45Q167.66-3.63 167.81-3.63L167.81-3.63Q167.97-3.63 168.13-3.52Q168.28-3.41 168.44-3.34L168.44-3.34Q168.59-3.13 168.59-2.91ZM155.59-15.75L155.59-15.75Q155.59-15.53 155.47-15.36Q155.34-15.19 155.22-15L155.22-15Q155.13-15 155.03-14.98Q154.94-14.97 154.84-14.97L154.84-14.97Q154.31-14.97 154.16-15.53L154.16-15.53Q154.22-15.72 154.19-15.94L154.19-15.94Q154.34-16 154.39-16.09Q154.44-16.19 154.53-16.28L154.53-16.28Q154.78-16.28 155.03-16.20Q155.28-16.13 155.53-16.06L155.53-16.06Q155.59-15.88 155.59-15.75ZM170.44-0.47L170.44-0.47Q170.44-0.28 170.30 0.13Q170.16 0.53 169.91 0.53L169.91 0.53Q169.75 0.53 169.63 0.48Q169.50 0.44 169.34 0.44L169.34 0.44Q169.25 0.31 169.14 0.25Q169.03 0.19 168.94 0.09L168.94 0.09Q168.97-0.22 169.02-0.39Q169.06-0.56 169.17-0.66Q169.28-0.75 169.45-0.80Q169.63-0.84 169.91-0.91L169.91-0.91Q170.19-0.72 170.44-0.47ZM158.38-11.25L158.69-10.81Q158.63-10.56 158.59-10.44Q158.56-10.31 158.41-10.13L158.41-10.13Q158.22-10.03 158-10.03L158-10.03Q157.75-10.03 157.56-10.27Q157.38-10.50 157.38-10.75L157.38-10.75Q157.38-10.88 157.42-10.98Q157.47-11.09 157.53-11.19L157.53-11.19Q157.75-11.28 157.94-11.28L157.94-11.28Q158.06-11.28 158.16-11.27Q158.25-11.25 158.38-11.25L158.38-11.25ZM155.63-12.03L155.63-12.03Q155.56-11.81 155.44-11.56Q155.31-11.31 154.94-11.31L154.94-11.31Q154.75-11.31 154.61-11.34Q154.47-11.38 154.31-11.44L154.31-11.44Q154.25-11.59 154.25-11.70Q154.25-11.81 154.09-11.97L154.09-11.97Q154.28-12.16 154.45-12.33Q154.63-12.50 154.94-12.50L154.94-12.50L155.19-12.50Q155.34-12.41 155.41-12.27Q155.47-12.13 155.63-12.03ZM155.59-7.91L155.59-7.91Q155.53-7.78 155.23-7.55Q154.94-7.31 154.78-7.31L154.78-7.31Q154.72-7.41 154.47-7.53Q154.22-7.66 154.13-7.69L154.13-7.69Q154.22-7.88 154.22-7.91Q154.22-7.94 154.22-8.16L154.22-8.16L154.22-8.38Q154.47-8.44 154.59-8.52Q154.72-8.59 154.97-8.59L154.97-8.59Q155.06-8.59 155.16-8.58Q155.25-8.56 155.34-8.56L155.34-8.56Q155.56-8.19 155.59-7.91ZM155.59-4.16L155.59-4.16Q155.59-4 155.50-3.86Q155.41-3.72 155.28-3.63L155.28-3.63Q155.03-3.53 154.78-3.53L154.78-3.53Q154.44-3.53 154.41-3.66Q154.38-3.78 154.19-3.97L154.19-3.97L154.19-4.09Q154.19-4.19 154.20-4.28Q154.22-4.38 154.22-4.47L154.22-4.47Q154.38-4.56 154.53-4.67Q154.69-4.78 154.88-4.78L154.88-4.78Q155-4.78 155.11-4.75Q155.22-4.72 155.34-4.72L155.34-4.72Q155.41-4.59 155.50-4.44Q155.59-4.28 155.59-4.16ZM155.59-0.16L155.59-0.16Q155.59-0.03 155.53 0.16L155.53 0.16Q155.38 0.22 155.31 0.33Q155.25 0.44 155.09 0.50L155.09 0.50Q154.91 0.44 154.70 0.41Q154.50 0.38 154.31 0.31L154.31 0.31Q154.25 0.16 154.20 0.03Q154.16-0.09 154.16-0.25L154.16-0.25Q154.16-0.50 154.34-0.59L154.34-0.59Q154.41-0.69 154.50-0.78Q154.59-0.88 154.72-0.88L154.72-0.88Q155.06-0.88 155.33-0.70Q155.59-0.53 155.59-0.16Z"/></svg>