<svg id="mainsvg" xmlns="http://www.w3.org/2000/svg" xmlns:xlink="http://www.w3.org/1999/xlink" version="1.1" x="0px" y="0px" enable-background="new 0 0 200 162.5" xml:space="preserve" viewBox="0 0 177 23"><path fill="#000" transform="translate(-1.40625, 22)" d="M8.69-22L8.69-22Q10.41-22 11.65-21.61Q12.89-21.22 13.74-20.59Q14.59-19.97 15.11-19.18Q15.63-18.39 15.90-17.58Q16.17-16.77 16.26-16.02Q16.34-15.27 16.34-14.72L16.34-14.72Q16.34-14.48 16.30-14.15Q16.27-13.81 16.03-13.50Q15.80-13.19 15.29-12.97Q14.78-12.75 13.84-12.75L13.84-12.75Q13.53-12.75 13.06-12.79Q12.59-12.83 12.16-12.99Q11.72-13.16 11.41-13.46Q11.09-13.77 11.09-14.31L11.09-14.31Q11.09-15.16 10.99-15.83Q10.89-16.50 10.63-16.97Q10.36-17.44 9.89-17.69Q9.42-17.94 8.69-17.94L8.69-17.94Q7.92-17.94 7.51-17.62Q7.09-17.30 6.91-16.92L6.91-16.92Q6.69-16.47 6.66-15.91L6.66-15.91L6.66-6Q6.69-5.31 6.91-4.80L6.91-4.80Q7.09-4.34 7.51-3.97Q7.92-3.59 8.69-3.59L8.69-3.59Q9.42-3.59 9.89-3.90Q10.36-4.20 10.63-4.72Q10.89-5.23 10.99-5.91Q11.09-6.58 11.09-7.31L11.09-7.31Q11.09-7.55 11.17-7.80Q11.25-8.05 11.53-8.26Q11.81-8.47 12.36-8.61Q12.91-8.75 13.84-8.75L13.84-8.75Q14.78-8.75 15.29-8.54Q15.80-8.33 16.03-8.05Q16.27-7.78 16.30-7.52Q16.34-7.27 16.34-7.19L16.34-7.19Q16.34-5.47 15.77-4.12Q15.19-2.77 14.13-1.83Q13.08-0.89 11.62-0.40Q10.16 0.09 8.41 0.09L8.41 0.09Q8.13 0.09 7.49 0.05Q6.86 0 6.08-0.20Q5.30-0.41 4.47-0.81Q3.64-1.22 2.96-1.95Q2.28-2.67 1.84-3.76Q1.41-4.84 1.41-6.41L1.41-6.41L1.41-15.13Q1.41-16.41 1.72-17.39Q2.03-18.38 2.54-19.10Q3.05-19.83 3.70-20.32Q4.36-20.81 5.05-21.14L5.05-21.14Q6.64-21.89 8.69-22ZM18.56-5.88L18.56-9.75Q18.56-11.19 18.95-12.19Q19.34-13.19 19.96-13.86Q20.58-14.53 21.34-14.91Q22.09-15.28 22.83-15.47Q23.56-15.66 24.20-15.70Q24.83-15.75 25.19-15.75L25.19-15.75Q25.55-15.75 26.17-15.70Q26.80-15.66 27.51-15.47Q28.22-15.28 28.95-14.91Q29.67-14.53 30.26-13.86Q30.84-13.19 31.22-12.19Q31.59-11.19 31.59-9.75L31.59-9.75L31.59-5.88Q31.59-4.44 31.22-3.44Q30.84-2.44 30.26-1.77Q29.67-1.09 28.95-0.72Q28.22-0.34 27.51-0.16Q26.80 0.03 26.17 0.08Q25.55 0.13 25.19 0.13L25.19 0.13Q24.83 0.13 24.20 0.08Q23.56 0.03 22.83-0.16Q22.09-0.34 21.34-0.72Q20.58-1.09 19.96-1.77Q19.34-2.44 18.95-3.44Q18.56-4.44 18.56-5.88L18.56-5.88ZM23.38-10.44L23.38-4.78Q23.39-4.33 23.59-3.98L23.59-3.98Q23.77-3.67 24.13-3.43Q24.50-3.19 25.19-3.19L25.19-3.19Q25.84-3.19 26.20-3.43Q26.55-3.67 26.72-3.98L26.72-3.98Q26.91-4.33 26.94-4.78L26.94-4.78L26.94-10.44Q26.91-10.91 26.72-11.30L26.72-11.30Q26.55-11.61 26.20-11.88Q25.84-12.16 25.19-12.16L25.19-12.16Q24.50-12.16 24.13-11.88Q23.77-11.61 23.59-11.30L23.59-11.30Q23.39-10.91 23.38-10.44L23.38-10.44ZM47.91-10.06L47.91-3.56Q47.91-2.89 47.83-2.25Q47.75-1.61 47.49-1.11Q47.23-0.61 46.76-0.30Q46.28 0 45.47 0L45.47 0Q44.67 0 44.20-0.30Q43.73-0.61 43.48-1.11Q43.23-1.61 43.16-2.25Q43.09-2.89 43.09-3.56L43.09-3.56L43.09-9.66Q43.09-10.09 43.05-10.52Q43.02-10.94 42.88-11.26Q42.73-11.58 42.46-11.77Q42.19-11.97 41.72-11.97L41.72-11.97Q41.08-11.97 40.69-11.55Q40.30-11.13 40.07-10.39Q39.84-9.66 39.77-8.66Q39.69-7.67 39.69-6.53L39.69-6.53L39.69-3.56Q39.69-2.89 39.61-2.25Q39.53-1.61 39.27-1.11Q39.02-0.61 38.54-0.30Q38.06 0 37.25 0L37.25 0Q36.45 0 35.98-0.30Q35.52-0.61 35.27-1.11Q35.02-1.61 34.95-2.25Q34.88-2.89 34.88-3.56L34.88-3.56L34.88-12.09Q34.88-12.77 34.92-13.40Q34.97-14.03 35.20-14.52Q35.44-15.02 35.91-15.32Q36.39-15.63 37.25-15.63L37.25-15.63Q38.11-15.63 38.59-15.34Q39.08-15.05 39.32-14.64Q39.56-14.23 39.63-13.78Q39.69-13.33 39.69-13L39.69-13Q39.81-13.45 40.08-13.92Q40.34-14.39 40.76-14.77Q41.17-15.14 41.75-15.38Q42.33-15.63 43.09-15.63L43.09-15.63Q43.95-15.63 44.81-15.34Q45.67-15.06 46.36-14.41Q47.05-13.75 47.48-12.69Q47.91-11.63 47.91-10.06L47.91-10.06ZM55.78-10.25L55.78-5.41Q55.78-5.16 55.83-4.77Q55.88-4.39 56.05-4.02Q56.22-3.66 56.55-3.39Q56.89-3.13 57.47-3.13L57.47-3.13Q58.16-3.13 58.55-3.28Q58.94-3.44 59.13-3.71Q59.31-3.98 59.36-4.35Q59.41-4.72 59.41-5.13L59.41-5.13Q59.41-5.33 59.48-5.59Q59.55-5.84 59.81-6.07Q60.08-6.30 60.60-6.45Q61.13-6.59 62.03-6.59L62.03-6.59Q62.86-6.59 63.31-6.41Q63.77-6.22 63.98-5.96Q64.19-5.70 64.22-5.43Q64.25-5.16 64.25-5L64.25-5Q64.25-4 63.95-3.24Q63.64-2.48 63.13-1.93Q62.61-1.38 61.94-1Q61.27-0.63 60.51-0.41Q59.75-0.19 58.97-0.09Q58.19 0 57.47 0L57.47 0Q56.23 0 55.08-0.33Q53.92-0.66 53.02-1.36Q52.13-2.06 51.58-3.16Q51.03-4.27 51.03-5.81L51.03-5.81L51.03-9.47Q51.03-10.95 51.38-11.98Q51.73-13.02 52.30-13.70Q52.86-14.39 53.56-14.77Q54.27-15.16 54.98-15.34Q55.70-15.53 56.35-15.58Q57-15.63 57.47-15.63L57.47-15.63Q58.86-15.63 59.90-15.39Q60.94-15.16 61.69-14.77Q62.44-14.38 62.93-13.87Q63.42-13.36 63.70-12.80Q63.98-12.23 64.10-11.67Q64.22-11.11 64.22-10.63L64.22-10.63Q64.22-10.38 64.19-10.04Q64.16-9.70 63.95-9.40Q63.73-9.09 63.28-8.88Q62.83-8.66 62-8.66L62-8.66Q61.70-8.66 61.26-8.68Q60.81-8.70 60.39-8.84Q59.97-8.98 59.67-9.28Q59.38-9.58 59.38-10.13L59.38-10.13Q59.38-10.50 59.34-10.85Q59.30-11.20 59.11-11.47Q58.92-11.73 58.54-11.90Q58.16-12.06 57.47-12.06L57.47-12.06Q56.89-12.06 56.55-11.88Q56.22-11.69 56.05-11.41Q55.88-11.13 55.83-10.81Q55.78-10.50 55.78-10.25L55.78-10.25ZM79.97-9.88L79.97-8.91Q79.97-8.66 79.94-8.32Q79.91-7.98 79.70-7.68Q79.48-7.38 79.03-7.16Q78.58-6.94 77.75-6.94L77.75-6.94L71.53-6.94L71.53-5.44Q71.53-5.06 71.63-4.66Q71.72-4.25 71.95-3.91Q72.17-3.56 72.55-3.34Q72.92-3.13 73.47-3.13L73.47-3.13Q74.09-3.13 74.43-3.27Q74.77-3.42 74.96-3.64Q75.16-3.86 75.31-4.11Q75.47-4.36 75.73-4.58Q75.98-4.80 76.45-4.95Q76.91-5.09 77.72-5.09L77.72-5.09Q78.11-5.09 78.48-5.03Q78.84-4.97 79.13-4.80Q79.41-4.63 79.58-4.32Q79.75-4.02 79.75-3.53L79.75-3.53Q79.75-2.52 79.11-1.84Q78.47-1.16 77.50-0.75Q76.53-0.34 75.40-0.17Q74.27 0 73.28 0L73.28 0Q71.98-0.02 70.81-0.33Q69.64-0.64 68.74-1.33Q67.84-2.02 67.31-3.13Q66.78-4.23 66.78-5.84L66.78-5.84L66.78-9.50Q66.78-10.98 67.13-12.02Q67.48-13.05 68.05-13.73Q68.61-14.42 69.31-14.80Q70.02-15.19 70.73-15.38Q71.45-15.56 72.10-15.61Q72.75-15.66 73.22-15.66L73.22-15.66Q74.80-15.66 75.91-15.38Q77.03-15.09 77.78-14.64Q78.53-14.19 78.97-13.59Q79.41-13 79.63-12.37Q79.84-11.73 79.91-11.09Q79.97-10.44 79.97-9.88L79.97-9.88ZM71.53-10.38L71.53-9.28L75.44-9.28Q75.44-10.02 75.40-10.59Q75.36-11.16 75.16-11.55Q74.97-11.94 74.55-12.14Q74.14-12.34 73.38-12.34L73.38-12.34Q72.73-12.34 72.37-12.14Q72-11.94 71.81-11.63Q71.63-11.33 71.58-10.98Q71.53-10.64 71.53-10.38L71.53-10.38ZM93.31-13.28L93.31-13.28Q93.31-12.06 92.71-11.50Q92.11-10.94 91-10.94L91-10.94Q90.84-10.94 90.55-10.91Q90.27-10.89 89.94-10.79Q89.61-10.69 89.27-10.49Q88.94-10.30 88.66-9.96Q88.38-9.63 88.20-9.11Q88.03-8.59 88.03-7.88L88.03-7.88L88.03-3.41Q88.03-2.77 87.96-2.16Q87.89-1.55 87.64-1.07Q87.39-0.59 86.92-0.30Q86.45 0 85.66 0L85.66 0Q84.88 0 84.42-0.30Q83.97-0.59 83.73-1.07Q83.48-1.55 83.41-2.16Q83.34-2.77 83.34-3.41L83.34-3.41L83.34-12.16Q83.34-12.81 83.41-13.43Q83.48-14.05 83.73-14.53Q83.97-15.02 84.42-15.30Q84.88-15.59 85.66-15.59L85.66-15.59Q86.45-15.59 86.88-15.24Q87.31-14.89 87.52-14.34Q87.72-13.78 87.75-13.10Q87.78-12.42 87.78-11.78L87.78-11.78L88.03-11.78Q88.25-12.66 88.61-13.37Q88.97-14.08 89.41-14.57Q89.84-15.06 90.34-15.33Q90.84-15.59 91.34-15.59L91.34-15.59Q91.95-15.59 92.34-15.46Q92.72-15.33 92.94-15.05Q93.16-14.77 93.23-14.33Q93.31-13.89 93.31-13.28ZM96.81-15.63L97.69-15.63L97.69-18.38Q97.69-19.03 97.76-19.66Q97.83-20.28 98.08-20.77Q98.33-21.27 98.80-21.57Q99.27-21.88 100.06-21.88L100.06-21.88Q100.84-21.88 101.31-21.57Q101.78-21.27 102.02-20.77Q102.27-20.28 102.34-19.66Q102.41-19.03 102.41-18.38L102.41-18.38L102.41-15.63L103.69-15.63Q104.09-15.63 104.50-15.59Q104.91-15.55 105.23-15.36Q105.55-15.17 105.74-14.80Q105.94-14.42 105.94-13.75L105.94-13.75Q105.94-13.11 105.74-12.73Q105.55-12.36 105.23-12.17Q104.91-11.98 104.50-11.93Q104.09-11.88 103.69-11.88L103.69-11.88L102.41-11.88L102.41-6.41Q102.41-6.09 102.43-5.74Q102.45-5.39 102.59-5.09Q102.73-4.80 103.02-4.60Q103.30-4.41 103.81-4.41L103.81-4.41Q104.38-4.41 104.77-4.32Q105.17-4.23 105.43-4.02Q105.69-3.80 105.81-3.41Q105.94-3.02 105.94-2.41L105.94-2.41Q105.94-1.78 105.65-1.33Q105.36-0.88 104.88-0.58Q104.39-0.28 103.75-0.14Q103.11 0 102.41 0L102.41 0Q101.30 0 100.51-0.23Q99.72-0.47 99.20-0.90Q98.67-1.33 98.37-1.93Q98.06-2.53 97.91-3.28Q97.77-4.03 97.73-4.90Q97.69-5.77 97.69-6.72L97.69-6.72L97.69-11.88L96.81-11.88Q96.41-11.88 96.01-11.93Q95.61-11.98 95.30-12.17Q94.98-12.36 94.79-12.73Q94.59-13.11 94.59-13.75L94.59-13.75Q94.59-14.42 94.79-14.80Q94.98-15.17 95.30-15.36Q95.61-15.55 96.01-15.59Q96.41-15.63 96.81-15.63L96.81-15.63ZM112.66-0.03L111.78-0.03Q111.34-0.03 110.94-0.09Q110.53-0.14 110.22-0.34Q109.91-0.53 109.72-0.90Q109.53-1.27 109.53-1.91L109.53-1.91Q109.53-2.59 109.72-2.98Q109.91-3.38 110.22-3.56Q110.53-3.75 110.94-3.80Q111.34-3.84 111.78-3.84L111.78-3.84L124.59-3.84Q124.98-3.84 125.39-3.80Q125.80-3.75 126.12-3.56Q126.44-3.38 126.64-2.98Q126.84-2.59 126.84-1.91L126.84-1.91Q126.84-1.27 126.64-0.90Q126.44-0.53 126.12-0.34Q125.80-0.14 125.39-0.09Q124.98-0.03 124.59-0.03L124.59-0.03L112.66-0.03ZM130.88-6.34L130.88-15.69Q130.88-17.19 131.31-18.24Q131.75-19.30 132.43-20Q133.11-20.70 133.93-21.10Q134.75-21.50 135.52-21.70Q136.30-21.91 136.92-21.95Q137.55-22 137.84-22L137.84-22L138.38-22Q138.67-22 139.30-21.95Q139.92-21.91 140.69-21.70Q141.45-21.50 142.27-21.10Q143.09-20.70 143.76-20Q144.42-19.30 144.85-18.24Q145.28-17.19 145.28-15.69L145.28-15.69L145.28-6.34Q145.28-4.80 144.85-3.72Q144.42-2.64 143.76-1.92Q143.09-1.20 142.27-0.79Q141.45-0.38 140.69-0.17Q139.92 0.03 139.30 0.08Q138.67 0.13 138.38 0.13L138.38 0.13L137.84 0.13Q137.55 0.13 136.92 0.08Q136.30 0.03 135.52-0.17Q134.75-0.38 133.93-0.79Q133.11-1.20 132.43-1.92Q131.75-2.64 131.31-3.72Q130.88-4.80 130.88-6.34L130.88-6.34ZM136.06-15.94L136.06-5.75Q136.09-5.17 136.33-4.73L136.33-4.73Q136.53-4.34 136.95-4.03Q137.36-3.72 138.13-3.72L138.13-3.72Q138.88-3.72 139.28-4.03Q139.69-4.34 139.89-4.73L139.89-4.73Q140.11-5.17 140.16-5.75L140.16-5.75L140.16-15.94Q140.11-16.50 139.89-16.95L139.89-16.95Q139.69-17.33 139.28-17.65Q138.88-17.97 138.13-17.97L138.13-17.97Q137.36-17.97 136.95-17.65Q136.53-17.33 136.33-16.95L136.33-16.95Q136.09-16.50 136.06-15.94L136.06-15.94ZM161.97-10.06L161.97-3.56Q161.97-2.89 161.89-2.25Q161.81-1.61 161.55-1.11Q161.30-0.61 160.82-0.30Q160.34 0 159.53 0L159.53 0Q158.73 0 158.27-0.30Q157.80-0.61 157.55-1.11Q157.30-1.61 157.23-2.25Q157.16-2.89 157.16-3.56L157.16-3.56L157.16-9.66Q157.16-10.09 157.12-10.52Q157.08-10.94 156.94-11.26Q156.80-11.58 156.52-11.77Q156.25-11.97 155.78-11.97L155.78-11.97Q155.14-11.97 154.75-11.55Q154.36-11.13 154.13-10.39Q153.91-9.66 153.83-8.66Q153.75-7.67 153.75-6.53L153.75-6.53L153.75-3.56Q153.75-2.89 153.67-2.25Q153.59-1.61 153.34-1.11Q153.08-0.61 152.60-0.30Q152.13 0 151.31 0L151.31 0Q150.52 0 150.05-0.30Q149.58-0.61 149.33-1.11Q149.08-1.61 149.01-2.25Q148.94-2.89 148.94-3.56L148.94-3.56L148.94-12.09Q148.94-12.77 148.98-13.40Q149.03-14.03 149.27-14.52Q149.50-15.02 149.98-15.32Q150.45-15.63 151.31-15.63L151.31-15.63Q152.17-15.63 152.66-15.34Q153.14-15.05 153.38-14.64Q153.63-14.23 153.69-13.78Q153.75-13.33 153.75-13L153.75-13Q153.88-13.45 154.14-13.92Q154.41-14.39 154.82-14.77Q155.23-15.14 155.81-15.38Q156.39-15.63 157.16-15.63L157.16-15.63Q158.02-15.63 158.88-15.34Q159.73-15.06 160.42-14.41Q161.11-13.75 161.54-12.69Q161.97-11.63 161.97-10.06L161.97-10.06ZM178.41-9.88L178.41-8.91Q178.41-8.66 178.38-8.32Q178.34-7.98 178.13-7.68Q177.92-7.38 177.47-7.16Q177.02-6.94 176.19-6.94L176.19-6.94L169.97-6.94L169.97-5.44Q169.97-5.06 170.06-4.66Q170.16-4.25 170.38-3.91Q170.61-3.56 170.98-3.34Q171.36-3.13 171.91-3.13L171.91-3.13Q172.53-3.13 172.87-3.27Q173.20-3.42 173.40-3.64Q173.59-3.86 173.75-4.11Q173.91-4.36 174.16-4.58Q174.42-4.80 174.88-4.95Q175.34-5.09 176.16-5.09L176.16-5.09Q176.55-5.09 176.91-5.03Q177.28-4.97 177.56-4.80Q177.84-4.63 178.02-4.32Q178.19-4.02 178.19-3.53L178.19-3.53Q178.19-2.52 177.55-1.84Q176.91-1.16 175.94-0.75Q174.97-0.34 173.84-0.17Q172.70 0 171.72 0L171.72 0Q170.42-0.02 169.25-0.33Q168.08-0.64 167.18-1.33Q166.28-2.02 165.75-3.13Q165.22-4.23 165.22-5.84L165.22-5.84L165.22-9.50Q165.22-10.98 165.57-12.02Q165.92-13.05 166.48-13.73Q167.05-14.42 167.75-14.80Q168.45-15.19 169.17-15.38Q169.89-15.56 170.54-15.61Q171.19-15.66 171.66-15.66L171.66-15.66Q173.23-15.66 174.35-15.38Q175.47-15.09 176.22-14.64Q176.97-14.19 177.41-13.59Q177.84-13 178.06-12.37Q178.28-11.73 178.34-11.09Q178.41-10.44 178.41-9.88L178.41-9.88ZM169.97-10.38L169.97-9.28L173.88-9.28Q173.88-10.02 173.84-10.59Q173.80-11.16 173.60-11.55Q173.41-11.94 172.99-12.14Q172.58-12.34 171.81-12.34L171.81-12.34Q171.17-12.34 170.80-12.14Q170.44-11.94 170.25-11.63Q170.06-11.33 170.02-10.98Q169.97-10.64 169.97-10.38L169.97-10.38Z"/></svg>