<svg id="mainsvg" xmlns="http://www.w3.org/2000/svg" xmlns:xlink="http://www.w3.org/1999/xlink" version="1.1" x="0px" y="0px" enable-background="new 0 0 200 162.5" xml:space="preserve" viewBox="0 0 198 24"><path fill="#000" transform="translate(-0.71875, 23.125)" d="M14.53-8.91L14.53-8.91L13.88-1.97L0.72-0.94Q0.81-6.39 0.93-11.78Q1.05-17.17 1.22-22.63L1.22-22.63L9.34-22.63Q8.98-19.20 8.66-15.79Q8.33-12.38 8.19-8.91L8.19-8.91Q8.92-8.88 9.64-8.88Q10.36-8.88 11.09-8.88L11.09-8.88Q11.97-8.88 12.81-8.89Q13.66-8.91 14.53-8.91ZM33.89-22L33.89-22Q33.19-16.50 32.69-11.05Q32.19-5.61 31.73-0.09L31.73-0.09L25.33 0.38L25.61-2.03Q25.30-1.67 24.88-1.41Q24.47-1.14 24-0.98Q23.53-0.81 23.03-0.74Q22.53-0.67 22.08-0.69L22.08-0.69Q21.02-0.70 20.08-1.10Q19.14-1.50 18.36-2.16Q17.58-2.83 16.95-3.71Q16.33-4.59 15.90-5.57Q15.47-6.55 15.24-7.56Q15.02-8.58 15.02-9.53L15.02-9.53Q15.02-10.94 15.07-12.45Q15.13-13.95 15.27-15.47Q15.41-16.98 15.63-18.47Q15.86-19.95 16.20-21.31L16.20-21.31Q18.11-21.22 20.03-21.14Q21.95-21.06 23.86-21.09L23.86-21.09Q23.50-19.73 23.15-18.37Q22.80-17 22.52-15.62Q22.23-14.23 22.06-12.84Q21.89-11.45 21.89-10.03L21.89-10.03Q21.89-9.70 21.92-9.09Q21.95-8.48 22.09-7.89Q22.22-7.30 22.49-6.85Q22.77-6.41 23.27-6.41L23.27-6.41Q23.86-6.41 24.33-6.91Q24.80-7.42 25.16-8.28Q25.52-9.14 25.77-10.27Q26.03-11.39 26.21-12.62Q26.39-13.84 26.50-15.09Q26.61-16.34 26.66-17.45Q26.72-18.55 26.74-19.42Q26.77-20.30 26.77-20.78L26.77-20.78Q26.77-21.09 26.75-21.39Q26.73-21.69 26.70-22L26.70-22Q27.72-21.97 28.72-21.95Q29.72-21.94 30.73-21.94L30.73-21.94Q31.52-21.94 32.30-21.95Q33.09-21.95 33.89-22ZM49.73-21.34L49.73-21.34L49.17-14.75Q48.72-14.88 48.28-14.92Q47.84-14.97 47.39-14.97L47.39-14.97Q46.28-14.97 45.27-14.69Q44.27-14.41 43.49-13.83Q42.72-13.25 42.26-12.37Q41.80-11.48 41.80-10.28L41.80-10.28Q41.80-9.41 42.05-8.76Q42.31-8.11 42.79-7.68Q43.27-7.25 43.95-7.03Q44.63-6.81 45.45-6.81L45.45-6.81Q46.03-6.81 46.64-6.93Q47.25-7.05 47.86-7.25Q48.47-7.45 49.03-7.72Q49.59-7.98 50.08-8.28L50.08-8.28L49.83-0.94Q49.22-0.63 48.52-0.38Q47.81-0.14 47.07 0.04Q46.33 0.22 45.59 0.31Q44.84 0.41 44.17 0.41L44.17 0.41Q41.95 0.41 40.13-0.42Q38.31-1.25 37.01-2.68Q35.70-4.11 34.98-6Q34.27-7.89 34.27-10.03L34.27-10.03Q34.27-12.59 34.99-14.81Q35.72-17.03 37.13-18.66Q38.55-20.30 40.63-21.23Q42.72-22.16 45.42-22.16L45.42-22.16Q46.50-22.16 47.61-21.98Q48.72-21.81 49.73-21.34ZM62.88-22.06L70.44-20.19L63.53-11.97L69.88-1.22L62.63 0.06L57.88-6.38L57.63-0.25L51.13 0L51.63-22.38L58.91-21.97L58.34-15.53L62.88-22.06ZM70.36-21.56L78.67-22L77.58-0.72L70.98-0.38L70.36-21.56ZM97.38-12.63L97.38-12.63Q97.38-11.27 97.19-9.91L97.19-9.91Q94.52-9.73 91.88-9.35Q89.23-8.97 86.59-8.59L86.59-8.59Q87-7.47 87.87-6.80Q88.73-6.13 89.94-6.13L89.94-6.13Q90.56-6.13 91.30-6.36Q92.05-6.59 92.78-6.95Q93.52-7.30 94.19-7.70Q94.86-8.11 95.34-8.44L95.34-8.44L94.59-1.34Q93.98-0.88 93.27-0.55Q92.56-0.22 91.80-0.02Q91.03 0.19 90.25 0.28Q89.47 0.38 88.72 0.38L88.72 0.38Q87.17 0.38 85.89-0.05Q84.61-0.47 83.57-1.23Q82.53-1.98 81.75-3.02Q80.97-4.05 80.45-5.27Q79.94-6.48 79.67-7.84Q79.41-9.20 79.41-10.59L79.41-10.59Q79.41-12.05 79.67-13.50Q79.94-14.95 80.48-16.30Q81.02-17.64 81.84-18.79Q82.66-19.94 83.75-20.80Q84.84-21.66 86.23-22.14Q87.61-22.63 89.28-22.63L89.28-22.63Q90.67-22.63 91.82-22.24Q92.97-21.86 93.87-21.18Q94.77-20.50 95.43-19.56Q96.09-18.63 96.52-17.51Q96.95-16.39 97.16-15.15Q97.38-13.91 97.38-12.63ZM91.13-13.09L91.13-13.44Q91.13-13.88 91.03-14.34Q90.94-14.80 90.73-15.17Q90.52-15.55 90.17-15.79Q89.83-16.03 89.31-16.03L89.31-16.03Q88.69-16.03 88.21-15.70Q87.73-15.36 87.39-14.85Q87.05-14.34 86.83-13.75Q86.61-13.16 86.50-12.66L86.50-12.66L91.13-13.09ZM114.41-8L114.41-8Q114.41-5.86 113.66-4.30Q112.92-2.75 111.63-1.74Q110.34-0.73 108.62-0.26Q106.89 0.22 104.91 0.22L104.91 0.22Q104.14 0.22 103.23 0.02Q102.31-0.19 101.38-0.49Q100.44-0.80 99.57-1.15Q98.70-1.50 98.03-1.81L98.03-1.81L98.72-7.94Q100.05-7.14 101.66-6.73Q103.28-6.31 104.84-6.31L104.84-6.31Q105.14-6.31 105.56-6.34Q105.98-6.36 106.37-6.48Q106.75-6.59 107.02-6.83Q107.28-7.06 107.28-7.50L107.28-7.50Q107.28-7.80 107.09-8.01Q106.91-8.22 106.61-8.35Q106.31-8.48 105.94-8.55Q105.56-8.63 105.20-8.66Q104.84-8.69 104.53-8.69Q104.22-8.69 104.03-8.69L104.03-8.69Q102.69-8.69 101.59-9.11Q100.48-9.53 99.70-10.30Q98.91-11.08 98.47-12.18Q98.03-13.28 98.03-14.63L98.03-14.63Q98.03-16.47 98.77-17.93Q99.52-19.39 100.76-20.41Q102-21.44 103.61-21.98Q105.22-22.53 106.94-22.53L106.94-22.53Q107.70-22.53 108.52-22.48Q109.33-22.42 110.13-22.28Q110.94-22.14 111.70-21.92Q112.47-21.70 113.16-21.38L113.16-21.38L112.56-15.03Q111.50-15.39 110.34-15.63Q109.17-15.88 108.06-15.88L108.06-15.88Q107.86-15.88 107.54-15.87Q107.22-15.86 106.87-15.82Q106.52-15.78 106.16-15.70Q105.80-15.63 105.52-15.49Q105.23-15.36 105.06-15.14Q104.89-14.92 104.91-14.63L104.91-14.63Q104.92-14.28 105.16-14.09Q105.41-13.91 105.79-13.82Q106.17-13.73 106.63-13.73Q107.09-13.73 107.55-13.76Q108-13.78 108.39-13.80Q108.78-13.83 109.03-13.81L109.03-13.81Q110.28-13.73 111.28-13.28Q112.28-12.83 112.98-12.08Q113.67-11.33 114.04-10.29Q114.41-9.25 114.41-8ZM114.92-22L131.95-22.03L131.80-15.41L127.14-15.22L126.58-0.72L119.98-0.38L119.39-14.88L114.73-14.63L114.92-22ZM157.77-13.69L157.95-3.19Q157.22-2.27 156.14-1.58Q155.06-0.89 153.83-0.44Q152.59 0.02 151.30 0.24Q150 0.47 148.83 0.47L148.83 0.47Q146.56 0.47 144.66-0.34Q142.75-1.16 141.37-2.59Q139.98-4.02 139.20-5.95Q138.42-7.89 138.42-10.13L138.42-10.13Q138.42-11.83 138.81-13.46Q139.20-15.09 139.93-16.54Q140.66-17.98 141.70-19.20Q142.75-20.41 144.08-21.28Q145.41-22.16 146.98-22.64Q148.56-23.13 150.36-23.13L150.36-23.13Q151.03-23.13 151.80-23.07Q152.56-23.02 153.32-22.88Q154.08-22.75 154.80-22.52Q155.52-22.28 156.11-21.94L156.11-21.94L155.67-15.97Q154.80-16.30 153.87-16.41Q152.94-16.53 152.05-16.53L152.05-16.53Q150.80-16.53 149.71-16.15Q148.63-15.77 147.82-15.05Q147.02-14.33 146.55-13.30Q146.08-12.27 146.08-10.97L146.08-10.97Q146.08-10.16 146.30-9.40Q146.52-8.64 146.96-8.05Q147.41-7.47 148.07-7.11Q148.73-6.75 149.61-6.75L149.61-6.75Q150.20-6.75 150.84-6.91Q151.47-7.06 151.92-7.44L151.92-7.44L151.98-8.66L148.23-8.72L148.42-13.41Q150.75-13.48 153.08-13.54Q155.41-13.59 157.77-13.69L157.77-13.69ZM177.77-22L177.77-22Q177.06-16.50 176.56-11.05Q176.06-5.61 175.61-0.09L175.61-0.09L169.20 0.38L169.48-2.03Q169.17-1.67 168.76-1.41Q168.34-1.14 167.88-0.98Q167.41-0.81 166.91-0.74Q166.41-0.67 165.95-0.69L165.95-0.69Q164.89-0.70 163.95-1.10Q163.02-1.50 162.23-2.16Q161.45-2.83 160.83-3.71Q160.20-4.59 159.77-5.57Q159.34-6.55 159.12-7.56Q158.89-8.58 158.89-9.53L158.89-9.53Q158.89-10.94 158.95-12.45Q159-13.95 159.14-15.47Q159.28-16.98 159.51-18.47Q159.73-19.95 160.08-21.31L160.08-21.31Q161.98-21.22 163.91-21.14Q165.83-21.06 167.73-21.09L167.73-21.09Q167.38-19.73 167.02-18.37Q166.67-17 166.39-15.62Q166.11-14.23 165.94-12.84Q165.77-11.45 165.77-10.03L165.77-10.03Q165.77-9.70 165.80-9.09Q165.83-8.48 165.96-7.89Q166.09-7.30 166.37-6.85Q166.64-6.41 167.14-6.41L167.14-6.41Q167.73-6.41 168.20-6.91Q168.67-7.42 169.03-8.28Q169.39-9.14 169.65-10.27Q169.91-11.39 170.09-12.62Q170.27-13.84 170.38-15.09Q170.48-16.34 170.54-17.45Q170.59-18.55 170.62-19.42Q170.64-20.30 170.64-20.78L170.64-20.78Q170.64-21.09 170.63-21.39Q170.61-21.69 170.58-22L170.58-22Q171.59-21.97 172.59-21.95Q173.59-21.94 174.61-21.94L174.61-21.94Q175.39-21.94 176.18-21.95Q176.97-21.95 177.77-22ZM190.47-21.69L197.97-21.16L190.63-9.16L190.84-0.31L182.81-0.31L183-9.09L177.28-20.69L185.25-21.69L187.75-14.94L190.47-21.69Z"/></svg>