<svg id="mainsvg" xmlns="http://www.w3.org/2000/svg" xmlns:xlink="http://www.w3.org/1999/xlink" version="1.1" x="0px" y="0px" enable-background="new 0 0 200 162.5" xml:space="preserve" viewBox="0 0 65 31"><path fill="#000" transform="translate(-2.56, 25.888)" d="M15.71-5.38L15.71-11.55Q15.71-13.12 17.63-13.12L17.63-13.12Q19.52-13.12 19.52-11.62L19.52-11.62L19.52-5.12Q19.52-2.53 17.79-1.25L17.79-1.25Q16.96-0.64 16.08-0.30Q15.20 0.03 14.37 0.03L14.37 0.03L7.71 0.03Q6.88 0.03 6-0.30Q5.12-0.64 4.29-1.25L4.29-1.25Q3.46-1.89 3.01-2.83Q2.56-3.78 2.56-5.12L2.56-5.12L2.56-20.32Q2.56-21.63 3.02-22.59Q3.49-23.55 4.29-24.16L4.29-24.16L4.26-24.16Q5.09-24.70 5.98-25.06Q6.88-25.41 7.71-25.41L7.71-25.41L14.05-25.41Q14.88-25.41 15.78-25.06Q16.67-24.70 17.50-24.16L17.50-24.16L17.47-24.16Q19.17-22.91 19.17-20.32L19.17-20.32L19.17-18.11Q19.17-16.58 17.28-16.58L17.28-16.58Q15.39-16.58 15.39-18.11L15.39-18.11L15.39-20.03Q15.39-20.83 14.91-21.50Q14.43-22.18 13.25-22.18L13.25-22.18L8.54-22.18Q7.33-22.18 6.85-21.50Q6.37-20.83 6.37-20.03L6.37-20.03L6.37-5.38Q6.37-4.96 6.48-4.58Q6.59-4.19 6.85-3.89Q7.10-3.58 7.52-3.39Q7.94-3.20 8.54-3.20L8.54-3.20L13.57-3.20Q14.75-3.20 15.23-3.87Q15.71-4.54 15.71-5.38L15.71-5.38ZM14.21-11.90L14.21-11.90Q14.21-11.36 14-10.86Q13.79-10.37 13.42-10.02Q13.06-9.66 12.58-9.46Q12.10-9.25 11.52-9.25L11.52-9.25Q10.43-9.25 9.66-10.02Q8.90-10.78 8.90-11.90L8.90-11.90Q8.90-12.99 9.66-13.76Q10.43-14.53 11.52-14.53L11.52-14.53Q12.10-14.53 12.58-14.32Q13.06-14.11 13.42-13.76Q13.79-13.41 14-12.93Q14.21-12.45 14.21-11.90ZM39.55-17.92L39.55-5.09Q39.55-3.81 39.10-2.82Q38.66-1.82 37.82-1.22L37.82-1.22L37.86-1.22Q37.06-0.67 36.16-0.34Q35.26 0 34.43 0L34.43 0L29.28 0Q28.48 0 27.57-0.34Q26.66-0.67 25.86-1.22L25.86-1.22L25.89-1.22Q25.06-1.82 24.61-2.82Q24.16-3.81 24.16-5.09L24.16-5.09L24.16-17.92Q24.16-19.46 25.92-19.46L25.92-19.46Q27.68-19.46 27.68-17.92L27.68-17.92L27.68-5.34Q27.68-4.45 28.13-3.78L28.13-3.78Q28.54-3.01 29.86-3.01L29.86-3.01L33.86-3.01Q35.14-3.01 35.55-3.78L35.55-3.78L35.52-3.74Q36.03-4.51 36.03-5.34L36.03-5.34L36.03-17.92Q36.03-19.46 37.79-19.46L37.79-19.46Q39.55-19.46 39.55-17.92L39.55-17.92ZM52.58-2.24L48.70-2.24Q47.87-2.24 46.99-2.53Q46.11-2.82 45.28-3.36L45.28-3.36Q43.55-4.48 43.55-7.14L43.55-7.14L43.55-14.37Q43.55-15.71 44.02-16.67Q44.48-17.63 45.28-18.18L45.28-18.18Q46.11-18.69 46.98-18.98Q47.84-19.26 48.67-19.26L48.67-19.26L54.05-19.26Q54.85-19.26 55.71-18.91Q56.58-18.56 57.31-18.02L57.31-18.02Q58.05-17.41 58.50-16.42Q58.94-15.42 58.94-14.18L58.94-14.18L58.94-0.61Q58.94 0.74 58.51 1.68Q58.08 2.62 57.31 3.26L57.31 3.26Q56.58 3.87 55.73 4.21Q54.88 4.54 54.05 4.54L54.05 4.54L48.67 4.54Q46.98 4.54 45.25 3.55L45.25 3.55Q44.35 3.04 43.95 2.24Q43.55 1.44 43.55 0.38L43.55 0.38L43.55 0Q43.55-0.64 43.97-1.02Q44.38-1.41 45.28-1.41L45.28-1.41Q47.07-1.22 47.07 0L47.07 0L47.07 0.35Q47.07 0.70 47.57 1.12Q48.06 1.54 49.25 1.54L49.25 1.54L53.25 1.54Q54.43 1.54 54.93 0.86Q55.42 0.19 55.42-0.64L55.42-0.64L55.42-14.14Q55.42-14.94 54.93-15.60Q54.43-16.26 53.25-16.26L53.25-16.26L49.25-16.26Q48.06-16.26 47.57-15.60Q47.07-14.94 47.07-14.14L47.07-14.14L47.07-7.39Q47.07-6.59 47.57-5.90Q48.06-5.22 49.25-5.22L49.25-5.22L52.58-5.22Q53.73-5.22 53.73-3.74L53.73-3.74Q53.73-3.07 53.46-2.66Q53.18-2.24 52.58-2.24L52.58-2.24ZM66.85-17.86L66.85-1.34Q66.85 0.19 65.09 0.19L65.09 0.19Q63.30 0.19 63.30-1.34L63.30-1.34L63.30-17.86Q63.30-19.39 65.09-19.39L65.09-19.39Q66.85-19.39 66.85-17.86L66.85-17.86ZM67.52-23.42L67.52-23.42Q67.52-22.40 66.82-21.70Q66.11-20.99 65.09-20.99L65.09-20.99Q64.06-20.99 63.34-21.70Q62.62-22.40 62.62-23.42L62.62-23.42Q62.62-24.48 63.34-25.18Q64.06-25.89 65.09-25.89L65.09-25.89Q66.11-25.89 66.82-25.18Q67.52-24.48 67.52-23.42Z"/></svg>