<svg id="mainsvg" xmlns="http://www.w3.org/2000/svg" xmlns:xlink="http://www.w3.org/1999/xlink" version="1.1" x="0px" y="0px" enable-background="new 0 0 200 162.5" xml:space="preserve" viewBox="0 0 103 24"><path fill="#000" transform="translate(-0.992, 22.784)" d="M6.53-2.66L6.53-19.71L3.42-19.71L3.42-20.03L9.92-20.03L9.92-19.71L6.85-19.71L6.85-2.66L10.18-2.66L10.18-2.34L3.14-2.34L3.14-2.66ZM9.50-5.02L9.50-17.41L12.13-17.41L12.13-22.40L1.22-22.40L1.22-17.41L3.84-17.41L3.84-5.02L0.99-5.02L0.99 0L12.35 0L12.35-5.02ZM33.31 0.03L35.36 0.03L35.36-22.40C33.41-22.40 31.46-22.40 29.50-22.40L29.50-11.42L18.18-22.50L16.10-22.50L16.10 0C18.05 0 20.03 0 22.02 0L22.02-11.01ZM18.82-17.89L19.17-17.89C21.31-15.81 23.46-13.70 25.54-11.58C27.81-9.47 30.02-7.26 32.26-5.06L32.26-20.22L32.61-20.22L32.61-4.51L32.35-4.51C30.14-6.66 28-8.74 25.86-10.85C23.68-12.99 21.44-15.20 19.20-17.34L19.20-2.21L18.82-2.21ZM44.35-17.28L44.35 0C46.24 0 48.13 0 50.02 0L50.02-17.28L55.49-17.28C55.49-19.01 55.49-20.70 55.49-22.40L38.85-22.40C38.85-20.70 38.85-19.01 38.85-17.28ZM47.04-2.14L47.04-19.71L40.99-19.71L40.99-20L53.31-20L53.31-19.71L47.30-19.71C47.33-13.86 47.36-8.03 47.36-2.14ZM68.86-19.68L61.98-19.68L61.98-9.34L68.86-9.34C75.62-9.34 75.52-19.68 68.86-19.68ZM61.98-8.99L61.98-2.14L61.66-2.14L61.66-19.97L68.86-19.97C75.71-19.97 75.90-10.08 69.86-9.09L70.82-7.39L74.05-2.11L73.66-2.11L69.50-9.02C69.31-9.02 69.09-8.99 68.86-8.99ZM73.57-7.94C79.23-11.78 77.63-22.37 68.83-22.40C65.57-22.40 62.24-22.40 59.01-22.40C59.01-14.91 59.01-7.46 59.01 0C60.86 0 62.82 0 64.74 0L64.74-6.59L67.71-6.59L71.55 0L77.95 0L77.95-0.83ZM68.83-11.74L64.74-11.74C64.74-13.54 64.74-15.46 64.74-17.28C66.08-17.28 67.49-17.31 68.83-17.28C72.10-17.25 71.94-11.74 68.83-11.74ZM82.85-11.17C82.85-23.17 100.22-23.20 100.22-11.17C100.22 0.86 82.85 0.86 82.85-11.17ZM103.01-11.17C103.01-26.66 80.03-26.66 80.03-11.17C80.03 4.35 103.01 4.35 103.01-11.17ZM85.92-11.17C85.92-3.04 97.15-3.04 97.15-11.17C97.15-19.23 85.92-19.23 85.92-11.17ZM99.90-11.17C99.90 0.32 83.17 0.54 83.17-11.17C83.17-22.85 99.90-22.62 99.90-11.17Z"/></svg>