<svg id="mainsvg" xmlns="http://www.w3.org/2000/svg" xmlns:xlink="http://www.w3.org/1999/xlink" version="1.1" x="0px" y="0px" enable-background="new 0 0 200 162.5" xml:space="preserve" viewBox="0 0 85 26"><path fill="#000" transform="translate(-0.928, 25.856)" d="M3.81-0.42L3.81-0.42L3.74-0.42Q3.04-0.42 1.98-1.71Q0.93-3.01 0.93-3.98Q0.93-4.96 2.80-12.74Q4.67-20.51 4.67-22.56L4.67-22.56Q4.67-23.84 5.60-23.84L5.60-23.84Q6.37-23.84 7.46-22.32Q8.54-20.80 8.54-19.42L8.54-19.42Q8.54-18.59 7.71-15.17L7.71-15.17Q10.34-18.66 12.64-21.01Q14.94-23.36 15.79-23.36Q16.64-23.36 17.50-22.64Q18.37-21.92 18.37-21.39Q18.37-20.86 16.74-19.33Q15.10-17.79 12.70-15.42Q10.30-13.06 8.99-11.01L8.99-11.01Q8.99-8.54 11.84-6.05L11.84-6.05Q12.70-5.31 14.14-4.53Q15.58-3.74 16.40-3.18Q17.22-2.62 17.22-2.05L17.22-2.05Q17.22-0.42 14.91-0.42Q12.61-0.42 9.95-2.29Q7.30-4.16 5.98-7.26L5.98-7.26Q5.15-4.90 4.96-3.82Q4.77-2.75 4.69-2.40Q4.61-2.05 4.54-1.84Q4.48-1.63 4.42-1.38Q4.35-1.12 4.29-0.98Q4.22-0.83 4.16-0.70L4.16-0.70Q3.97-0.42 3.81-0.42ZM33.66-9.47L33.66-9.47Q34.24-8.96 34.24-8.54Q34.24-8.13 33.86-6.82Q33.47-5.50 33.34-4.78Q33.22-4.06 33.14-3.65Q33.06-3.23 33.02-2.99Q32.99-2.75 32.91-2.40Q32.83-2.05 32.78-1.84Q32.74-1.63 32.66-1.36Q32.58-1.09 32.48-0.94Q32.38-0.80 32.26-0.64L32.26-0.64Q32.06-0.38 31.62-0.38Q31.17-0.38 30.51-1.28Q29.86-2.18 29.54-3.46L29.54-3.46Q26.53-0.38 24.48-0.38L24.48-0.38Q23.10-0.38 21.50-1.90Q19.90-3.42 19.90-4.94Q19.90-6.46 21.28-9.28Q22.66-12.10 25.04-14.50Q27.42-16.90 29.76-16.90L29.76-16.90Q31.10-16.90 32.86-15.33Q34.62-13.76 34.62-12.46Q34.62-11.17 33.66-9.47ZM24.35-4.42L24.35-4.42Q25.63-4.42 27.76-6.16Q29.89-7.90 30.40-10.56L30.40-10.56Q30.43-10.94 30.94-11.01L30.94-11.01Q30.85-12.83 30.34-12.83L30.34-12.83Q29.06-12.83 27.47-11.17Q25.89-9.50 24.88-7.62Q23.87-5.73 23.87-4.83L23.87-4.83Q23.87-4.58 23.95-4.50Q24.03-4.42 24.35-4.42ZM40.90-25.86Q41.66-25.86 42.88-24.45Q44.10-23.04 44.10-21.76Q44.10-20.48 43.71-17.20Q43.33-13.92 42.91-11.97L42.91-11.97Q40.26-0.38 39.20-0.38L39.20-0.38Q38.50-0.38 37.46-1.52Q36.42-2.66 36.42-3.39L36.42-3.39Q36.42-3.46 37.28-6.72Q38.14-9.98 39.02-15.12Q39.90-20.26 39.90-24.93L39.90-24.93Q39.90-25.86 40.90-25.86L40.90-25.86ZM58.50-9.47L58.50-9.47Q59.07-8.96 59.07-8.54Q59.07-8.13 58.69-6.82Q58.30-5.50 58.18-4.78Q58.05-4.06 57.97-3.65Q57.89-3.23 57.86-2.99Q57.82-2.75 57.74-2.40Q57.66-2.05 57.62-1.84Q57.57-1.63 57.49-1.36Q57.41-1.09 57.31-0.94Q57.22-0.80 57.09-0.64L57.09-0.64Q56.90-0.38 56.45-0.38Q56-0.38 55.34-1.28Q54.69-2.18 54.37-3.46L54.37-3.46Q51.36-0.38 49.31-0.38L49.31-0.38Q47.94-0.38 46.34-1.90Q44.74-3.42 44.74-4.94Q44.74-6.46 46.11-9.28Q47.49-12.10 49.87-14.50Q52.26-16.90 54.59-16.90L54.59-16.90Q55.94-16.90 57.70-15.33Q59.46-13.76 59.46-12.46Q59.46-11.17 58.50-9.47ZM49.18-4.42L49.18-4.42Q50.46-4.42 52.59-6.16Q54.72-7.90 55.23-10.56L55.23-10.56Q55.26-10.94 55.78-11.01L55.78-11.01Q55.68-12.83 55.17-12.83L55.17-12.83Q53.89-12.83 52.30-11.17Q50.72-9.50 49.71-7.62Q48.70-5.73 48.70-4.83L48.70-4.83Q48.70-4.58 48.78-4.50Q48.86-4.42 49.18-4.42ZM82.75-16.90L82.75-16.90Q84-16.90 84.83-15.23Q85.66-13.57 85.66-12.19Q85.66-10.82 85.14-8.11Q84.61-5.41 83.47-2.90Q82.34-0.38 81.02-0.38L81.02-0.38Q79.97-0.38 79.97-1.82Q79.97-3.26 80.80-6.53Q81.63-9.79 81.63-10.82Q81.63-11.84 81.31-11.84L81.31-11.84Q80.64-11.84 79.71-10.37Q78.78-8.90 77.49-6.43Q76.19-3.97 75.87-3.26Q75.55-2.56 75.34-2.14Q75.14-1.73 74.88-1.28L74.88-1.28Q73.86 0.42 72.16-1.28L72.16-1.28Q71.30-2.14 71.30-2.85L71.30-2.85Q71.30-2.98 71.82-5.30Q72.35-7.62 72.35-10.59L72.35-10.59Q72.35-11.84 72.06-11.84L72.06-11.84Q71.68-11.84 71.17-11.07Q70.66-10.30 69.60-8.29Q68.54-6.27 67.78-4.96L67.78-4.96Q65.09-0.38 63.68-0.38L63.68-0.38Q62.98-0.38 61.94-1.57Q60.90-2.75 60.90-3.38Q60.90-4 61.62-6.38Q62.34-8.77 62.54-11.46Q62.75-14.14 62.93-15.65Q63.10-17.15 63.68-17.15L63.68-17.15Q64.90-17.15 66.03-16.14Q67.17-15.14 67.17-14.30L67.17-14.30Q67.17-12.42 65.79-7.71L65.79-7.71Q68.03-13.06 69.57-14.94L69.57-14.94Q71.20-16.90 72.70-16.90L72.70-16.90Q73.54-16.90 74.77-15.36Q76-13.82 76-12.50Q76-11.17 75.97-10.18L75.97-10.18Q76.96-12.67 78.98-14.78Q80.99-16.90 82.75-16.90Z"/></svg>