<svg id="mainsvg" xmlns="http://www.w3.org/2000/svg" xmlns:xlink="http://www.w3.org/1999/xlink" version="1.1" x="0px" y="0px" enable-background="new 0 0 200 162.5" xml:space="preserve" viewBox="0 0 159 23"><path fill="#000" transform="translate(0, 22.171875)" d="M0-21.89C2.81-20.19 3.72-18.02 3.78-14.75L3.78-7.14C3.78-4.73 3.33-1.34 0.28 0L13.44 0C10.30-1.38 9.95-4.92 9.95-7.91L19.64-7.91C19.64-4.92 19.30-1.38 16.16 0L29.34 0C26.20-1.41 25.86-4.22 25.86-7.14L25.86-14.75C25.86-18.08 26.81-20.19 29.63-21.89L15.88-21.89C18.69-20.19 19.42-18.20 19.64-14.75L19.64-10.81L9.95-10.81L9.95-14.75C10.17-18.20 10.91-20.19 13.73-21.89ZM37.20 0C36.67-0.45 36.44-1.03 36.44-1.80C36.44-2.34 36.80-3.52 37.91-6.05L46.33-3.97C46.97-3.11 47.13-2.66 47.16-2.27L47.17-2.03C47.17-1.13 46.66-0.41 45.63 0L55.97 0C54.94-0.61 54.14-2.11 53.56-3.48L45.98-21.89L35.80-21.89C37.50-21.44 38.14-20.09 38.14-18.81C38.14-18.34 38.05-17.89 37.88-17.47L32.09-3.45C31.52-2.11 30.88-0.61 29.63 0ZM39.16-9.22L41.94-16.09L45.31-7.88ZM69.70 0C66.20-2.08 65.92-4.89 65.92-8.64L70.05-4.80C72.28-2.94 72.92-0.64 72.03 0L85.28 0C83.27-0.45 81.13-1.50 78.78-3.64L70.69-12.16L79.08-19.48C81.31-20.95 82.47-21.44 84.70-21.89L72.48-21.89C73.13-21.53 74.17-20.48 71.88-18.63L65.92-14.08C65.92-17.53 66.56-20 69.67-21.89L55.97-21.89C58.66-20.25 59.45-18.38 59.72-15.20L59.72-6.50C59.55-4.13 59.05-1.22 56.25 0ZM95.55 0.42C101.77 0.42 106.08-2.53 106.08-6.23C106.08-11.02 100.45-12.13 96.86-13.38C95.42-13.92 93.59-14.63 93.59-16.45C93.59-18.02 94.75-19.27 96.92-19.27C97.13-19.27 97.38-19.27 97.59-19.23C100.61-18.88 100.28-15.91 98.88-14.41L105.13-16.67L104.98-17.25C104.39-20.39 100.89-22.17 95.91-22.17C91.75-22.17 86.66-20.45 86.66-15.52C86.66-11.78 90.59-10.23 93.89-9.09C95.64-8.55 99.78-7.55 99.78-5.19C99.78-3.58 98.08-2.59 95.48-2.59C92.52-2.59 90.17-5.06 91.64-8.80L85.34-5.83C85.83-0.95 91.05 0.42 95.55 0.42ZM107.23-21.89C109.92-20.25 110.98-17.95 110.98-15.20L110.98-6.50C110.98-4.13 110.31-1.22 107.52 0L129.73 0L129.73-6.75C127.52-4.16 124.89-2.94 121.95-2.94L117.19-2.94L117.19-10.14L122.05-10.14C125.31-10.02 125.86-8.92 126.66-7.52L126.66-15.69C125.86-14.27 125.31-13.19 122.05-13.06L117.19-13.06L117.19-18.97L121.95-18.97C125.58-18.97 127.39-17.98 129.09-15.17L129.09-21.89ZM130.63-21.89C133.44-20.19 134.17-18.20 134.41-14.75L134.41-7.14C134.31-4.70 133.95-1.34 130.91 0L142.23 0C139.20-1.34 138.78-4.39 138.75-7.14L138.75-15.02L147.97 0L157.98 0C154.94-1.34 154.59-4.70 154.50-7.14L154.50-14.75C154.72-18.20 155.45-20.19 158.27-21.89L146.38-21.89C149.19-20.19 149.92-18.20 150.14-14.75L150.14-7.11L141.06-21.89Z"/></svg>