<svg id="mainsvg" xmlns="http://www.w3.org/2000/svg" xmlns:xlink="http://www.w3.org/1999/xlink" version="1.1" x="0px" y="0px" enable-background="new 0 0 200 162.5" xml:space="preserve" viewBox="0 0 141 30"><path fill="#000" transform="translate(-0.5760000000000001, 23.968)" d="M11.42-23.62C11.01-23.65 10.56-23.68 10.08-23.68C5.22-23.68 0.58-20.19 0.58-16.13C0.58-13.34 2.18-12.26 4.74-12.26C3.97-12.93 3.26-13.76 3.26-16.03C3.26-18.94 5.06-20.99 7.90-21.79L7.90 0.74C8.16 0.70 8.38 0.70 8.64 0.70C12.77 0.70 15.71 5.73 19.07 5.73C21.25 5.73 22.59 4.19 22.59 2.43C22.59 2.14 22.56 1.86 22.50 1.57C21.63 1.98 20.83 2.21 20.03 2.21C16.42 2.21 14.14-0.03 11.39-0.64L11.39-23.52ZM21.82-16.16C17.02-16.16 15.58-11.01 15.58-7.26C15.58-1.76 18.72 0.19 21.57 0.19C25.02 0.19 27.04-2.98 27.04-8.22C27.04-8.67 27.01-9.12 27.01-9.54C28.96-9.86 31.07-10.78 31.90-12.16L31.42-13.02C30.37-11.94 28.80-11.10 27.04-11.10L26.85-11.10C26.43-13.95 25.18-16.16 21.82-16.16ZM22.14-2.24C20.70-2.24 19.04-3.23 19.04-7.39C19.04-10.53 20-14.40 22.66-14.40C23.62-14.40 24.45-13.89 24.96-12.42C24.13-12.38 23.68-12.03 23.68-11.04C23.68-9.95 24.19-9.50 25.41-9.44C25.44-9.18 25.44-8.93 25.44-8.67C25.44-4.61 24.38-2.24 22.14-2.24ZM53.73-5.73C53.15-5.25 52.45-4.70 51.74-4.22C51.78-4.42 51.78-4.61 51.78-4.83C51.78-7.10 50.91-9.86 49.12-16.99L45.89-16.35C44.64-13.50 42.91-11.36 40.83-11.10C40.19-15.01 37.60-16.06 35.65-16.06C34.27-16.06 33.31-15.55 32.61-14.82L32.61-22.40L29.41-21.95L29.41-5.73C29.41-1.28 31.33 0.19 33.98 0.19C38.66 0.19 40.99-4.29 40.99-9.15L40.99-9.73C43.10-10.37 45.22-12.13 46.27-14.69C47.78-8.22 48.38-6.62 48.38-4.83C48.38-2.88 47.68-2.21 46.14-2.21C44.42-2.21 43.94-3.07 43.62-4.58C43.87-4.26 44.10-4.13 44.38-4.13C44.93-4.13 45.44-4.54 45.44-5.38C45.44-6.40 44.70-6.91 43.97-6.91C43.14-6.91 42.05-6.30 42.05-4.42C42.05-2.56 43.07 0.19 46.78 0.19C48.13 0.19 50.14-0.19 51.17-2.05C52.38-2.91 53.82-4 55.07-5.73ZM38.14-8.42C38.14-5.09 36.93-2.02 34.50-2.02C33.18-2.02 32.61-2.94 32.61-4.90L32.61-13.31C33.18-13.95 33.92-14.40 34.78-14.40C36-14.40 36.93-13.50 37.47-12.16C37.22-11.94 37.09-11.58 37.09-11.04C37.09-10.21 37.38-9.73 38.08-9.54C38.11-9.18 38.14-8.80 38.14-8.42ZM53.70-20.42L53.70-16L52.61-16L52.61-14.88L53.70-14.88L53.70-4.45C53.70-2.34 54.40 0.19 57.47 0.19C58.94 0.19 61.06-0.38 62.46-5.73L61.28-5.73C60.67-3.39 59.55-2.24 58.40-2.24C56.96-2.24 56.90-4.13 56.90-5.12L56.90-14.88L59.36-14.88L59.36-16L56.90-16L56.90-20.86ZM71.23-12C71.23-15.39 69.09-16.16 66.98-16.16C62.37-16.16 60.86-10.78 60.86-7.20C60.86-1.73 63.71 0.19 66.66 0.19C69.92 0.19 72.96-2.59 74.05-5.73L73.02-5.73C71.90-3.23 69.98-2.24 67.97-2.24C66.14-2.24 64.61-3.01 64.29-6.40C68.61-6.88 71.23-9.02 71.23-12ZM64.26-7.65C64.26-10.78 65.34-14.59 67.58-14.59C68.61-14.59 69.18-13.92 69.18-12.32C69.18-9.92 67.26-8.13 64.26-7.65ZM72.99-16L72.99 0L76.19 0L76.19-11.78C76.93-12.54 77.86-13.38 78.82-13.38C79.74-13.38 79.87-12.58 80.61-12.58C81.12-12.58 82.08-12.96 82.08-14.24C82.08-15.30 81.41-16.16 79.97-16.16C78.14-16.16 77.18-14.82 76.19-13.31L76.19-16ZM100.90-20.16C103.17-20.16 104.29-20.99 104.29-22.82C104.29-23.14 104.26-23.52 104.19-23.90C103.39-23.55 102.18-23.23 100.42-23.23C97.76-23.23 95.87-23.97 92.45-23.97C85.47-23.97 82.91-20.67 82.91-17.18C82.91-13.73 84.58-12.54 86.69-12.54C86.08-13.25 85.38-14.43 85.38-16.99C85.38-20.42 87.33-21.50 90.91-21.50C91.33-21.50 91.74-21.50 92.19-21.44L92.19 0L95.65 0L95.65-20.93C97.54-20.51 99.36-20.16 100.90-20.16ZM105.22-16L105.22-4.77C105.22-1.12 107.23 0.19 109.73 0.19C111.04 0.19 112.35-0.58 113.18-2.30C113.92-0.67 115.55 0.19 117.22 0.19C121.63 0.19 123.14-5.95 123.14-10.78C123.14-15.10 121.92-16.67 120.45-16.67C119.39-16.67 118.82-15.87 118.82-15.04C118.82-14.24 119.33-13.34 120.35-13.34C120.54-13.34 120.99-13.38 121.18-13.60C121.38-12.67 121.47-11.42 121.47-10.24C121.47-6.46 120.51-2.24 117.89-2.24C116.32-2.24 116.03-3.71 116.03-5.12L116.03-16L112.83-16L112.83-5.73C112.83-3.52 111.55-2.24 110.34-2.24C109.22-2.24 108.42-3.04 108.42-5.12L108.42-16ZM131.01-16.16C126.21-16.16 124.77-11.01 124.77-7.26C124.77-1.76 127.90 0.19 130.75 0.19C134.21 0.19 136.22-2.98 136.22-8.22C136.22-8.67 136.19-9.12 136.19-9.54C138.14-9.86 140.26-10.78 141.09-12.16L140.61-13.02C139.55-11.94 137.98-11.10 136.22-11.10L136.03-11.10C135.62-13.95 134.37-16.16 131.01-16.16ZM131.33-2.24C129.89-2.24 128.22-3.23 128.22-7.39C128.22-10.53 129.18-14.40 131.84-14.40C132.80-14.40 133.63-13.89 134.14-12.42C133.31-12.38 132.86-12.03 132.86-11.04C132.86-9.95 133.38-9.50 134.59-9.44C134.62-9.18 134.62-8.93 134.62-8.67C134.62-4.61 133.57-2.24 131.33-2.24Z"/></svg>