<svg id="mainsvg" xmlns="http://www.w3.org/2000/svg" xmlns:xlink="http://www.w3.org/1999/xlink" version="1.1" x="0px" y="0px" enable-background="new 0 0 200 162.5" xml:space="preserve" viewBox="0 0 158 26"><path fill="#000" transform="translate(-1.792, 21.408)" d="M13.66-2.88L13.66-2.88L13.66-8.10Q13.66-8.70 13.49-8.90Q13.31-9.09 12.67-9.09L12.67-9.09L4.32-9.09Q1.79-9.09 1.79-11.62L1.79-11.62L1.79-17.38Q1.79-19.90 4.32-19.90L4.32-19.90L17.22-19.90Q19.74-19.90 19.74-17.38L19.74-17.38L19.74-13.66L13.57-13.66L13.57-17.02Q13.57-17.66 13.38-17.84Q13.18-18.02 12.58-18.02L12.58-18.02L8.96-18.02Q8.32-18.02 8.14-17.84Q7.97-17.66 7.97-17.02L7.97-17.02L7.97-11.97Q7.97-11.33 8.14-11.15Q8.32-10.98 8.96-10.98L8.96-10.98L17.31-10.98Q19.84-10.98 19.84-8.45L19.84-8.45L19.84-2.53Q19.84 0 17.31 0L17.31 0L4.42 0Q1.89 0 1.89-2.53L1.89-2.53L1.89-6.24L8.06-6.24L8.06-2.88Q8.06-2.24 8.26-2.06Q8.45-1.89 9.06-1.89L9.06-1.89L12.67-1.89Q13.31-1.89 13.49-2.06Q13.66-2.24 13.66-2.88ZM30.53-1.89L30.53-1.89L33.66-1.89Q34.82-1.89 34.82-2.88L34.82-2.88L34.82-12.64Q34.82-13.63 33.66-13.63L33.66-13.63L30.53-13.63Q29.89-13.63 29.71-13.44Q29.54-13.25 29.54-12.64L29.54-12.64L29.54-2.88Q29.54-2.24 29.71-2.06Q29.89-1.89 30.53-1.89ZM34.82-14.59L34.82-15.52L40.70-15.52L40.70 0L34.82 0L34.82-0.93Q34.37 0 32.99 0L32.99 0L26.18 0Q23.65 0 23.65-2.53L23.65-2.53L23.65-12.99Q23.65-15.52 26.18-15.52L26.18-15.52L32.99-15.52Q34.37-15.52 34.82-14.59L34.82-14.59ZM54.43-15.58L54.43-15.58L56.48-15.58L56.48-13.38L53.28-13.38Q50.94-13.38 50.94-10.94L50.94-10.94L50.94 0L45.06 0L45.06-15.52L50.94-15.52L50.94-13.66Q51.68-15.58 54.43-15.58ZM70.18-2.88L70.18-2.88L70.18-12.61Q70.18-13.25 70-13.42Q69.82-13.60 69.18-13.60L69.18-13.60L65.92-13.60Q64.77-13.60 64.77-12.61L64.77-12.61L64.77-2.88Q64.77-1.89 65.92-1.89L65.92-1.89L69.18-1.89Q69.82-1.89 70-2.06Q70.18-2.24 70.18-2.88ZM66.56-15.49L66.56-15.49L73.54-15.49Q76.06-15.49 76.06-12.96L76.06-12.96L76.06-2.53Q76.06 0 73.54 0L73.54 0L66.56 0Q65.15 0 64.77-0.90L64.77-0.90L64.77 4.51L58.88 4.51L58.88-15.49L64.64-15.49L64.64-14.24Q64.96-15.49 66.56-15.49ZM86.85-1.89L86.85-1.89L89.98-1.89Q91.14-1.89 91.14-2.88L91.14-2.88L91.14-12.64Q91.14-13.63 89.98-13.63L89.98-13.63L86.85-13.63Q86.21-13.63 86.03-13.44Q85.86-13.25 85.86-12.64L85.86-12.64L85.86-2.88Q85.86-2.24 86.03-2.06Q86.21-1.89 86.85-1.89ZM91.14-14.59L91.14-15.52L97.02-15.52L97.02 0L91.14 0L91.14-0.93Q90.69 0 89.31 0L89.31 0L82.50 0Q79.97 0 79.97-2.53L79.97-2.53L79.97-12.99Q79.97-15.52 82.50-15.52L82.50-15.52L89.31-15.52Q90.69-15.52 91.14-14.59L91.14-14.59ZM109.09-15.52L109.09-15.52L115.90-15.52Q118.43-15.52 118.43-12.99L118.43-12.99L118.43 0L112.54 0L112.54-12.64Q112.54-13.25 112.37-13.44Q112.19-13.63 111.55-13.63L111.55-13.63L108.42-13.63Q107.26-13.63 107.26-12.64L107.26-12.64L107.26 0L101.38 0L101.38-15.52L107.26-15.52L107.26-14.59Q107.71-15.52 109.09-15.52ZM139.04-12.99L139.04-9.98L133.31-9.98L133.31-12.64Q133.31-13.25 133.12-13.44Q132.93-13.63 132.32-13.63L132.32-13.63L129.22-13.63Q128.58-13.63 128.40-13.44Q128.22-13.25 128.22-12.64L128.22-12.64L128.22-2.88Q128.22-2.24 128.40-2.06Q128.58-1.89 129.22-1.89L129.22-1.89L132.32-1.89Q132.93-1.89 133.12-2.06Q133.31-2.24 133.31-2.88L133.31-2.88L133.31-5.47L139.04-5.47L139.04-2.53Q139.04 0 136.51 0L136.51 0L124.86 0Q122.34 0 122.34-2.53L122.34-2.53L122.34-12.99Q122.34-15.52 124.86-15.52L124.86-15.52L136.51-15.52Q139.04-15.52 139.04-12.99L139.04-12.99ZM150.34-15.52L150.34-15.52L157.15-15.52Q159.68-15.52 159.68-12.99L159.68-12.99L159.68 0L153.82 0L153.82-12.64Q153.82-13.25 153.63-13.44Q153.44-13.63 152.83-13.63L152.83-13.63L149.66-13.63Q148.51-13.63 148.51-12.64L148.51-12.64L148.51 0L142.62 0L142.62-21.41L148.51-21.41L148.51-14.59Q148.96-15.52 150.34-15.52Z"/></svg>