<svg id="mainsvg" xmlns="http://www.w3.org/2000/svg" xmlns:xlink="http://www.w3.org/1999/xlink" version="1.1" x="0px" y="0px" enable-background="new 0 0 200 162.5" xml:space="preserve" viewBox="0 0 134 24"><path fill="#000" transform="translate(-1.088, 23.136)" d="M1.25-21.28L1.25-18.56L3.07-18.46L3.07-3.58C3.07-2.94 2.69-2.75 2.14-2.69L1.09-2.59L1.09 0L10.08 0C15.39 0 18.27-2.21 18.27-6.37C18.27-9.18 16.64-10.85 14.24-11.46C15.97-12.35 17.18-13.82 17.18-15.94C17.18-20.19 13.89-21.28 10.27-21.28ZM6.98-9.70L10.14-9.70C12.67-9.70 14.14-8.54 14.14-6.40C14.14-4.45 13.12-3.01 9.98-3.01L6.98-3.01ZM6.98-18.34L9.57-18.34C11.65-18.34 13.22-17.82 13.22-15.52C13.22-13.82 12.10-12.54 9.34-12.54L6.98-12.54ZM22.30-3.58C22.30-2.78 21.98-2.59 21.38-2.53L20.32-2.43L20.32 0L28.90 0L28.90-2.53L26.11-2.66L26.11-10.08C26.11-11.94 27.30-13.31 29.02-13.31C29.38-13.31 29.60-13.28 29.89-13.15C30.14-13.02 30.21-12.74 30.21-12.35L30.21-10.88L33.18-11.10L33.18-15.87C32.13-16.38 31.17-16.58 30.11-16.58C28-16.58 26.30-15.30 25.57-13.70L25.57-16.10L20.16-16.10L20.16-13.50L21.50-13.41C22.11-13.38 22.30-13.15 22.30-12.45ZM43.14-16.58C37.89-16.58 35.23-12.42 35.23-7.68C35.23-2.91 37.34 0.42 42.78 0.42C45.79 0.42 47.90-0.93 48.42-1.38L47.20-3.97C46.43-3.42 45.06-2.56 43.17-2.56C40.45-2.56 39.36-4.26 39.23-6.34C43.01-6.37 48.35-7.20 48.35-12.13C48.35-14.98 46.27-16.58 43.14-16.58ZM44.83-12.06C44.83-9.60 41.47-9.06 39.10-9.02C39.20-11.39 40.35-13.86 42.91-13.86C44.06-13.86 44.83-13.25 44.83-12.06ZM58.62-16.58C53.38-16.58 50.72-12.42 50.72-7.68C50.72-2.91 52.83 0.42 58.27 0.42C61.28 0.42 63.39-0.93 63.90-1.38L62.69-3.97C61.92-3.42 60.54-2.56 58.66-2.56C55.94-2.56 54.85-4.26 54.72-6.34C58.50-6.37 63.84-7.20 63.84-12.13C63.84-14.98 61.76-16.58 58.62-16.58ZM60.32-12.06C60.32-9.60 56.96-9.06 54.59-9.02C54.69-11.39 55.84-13.86 58.40-13.86C59.55-13.86 60.32-13.25 60.32-12.06ZM72.74-2.88C71.87-2.88 71.04-2.98 70.43-3.17C69.86-3.36 69.76-3.62 69.76-4.22L69.76-6.18L66.50-5.95L66.50-0.90C68.42 0 70.40 0.42 72.96 0.42C77.38 0.42 80.70-1.89 80.70-6.11C80.70-10.24 77.63-11.55 74.72-12.48C72.32-13.22 70.46-13.76 70.46-15.74C70.46-17.73 71.94-18.50 73.82-18.50C74.46-18.50 75.30-18.43 75.90-18.24C76.48-18.05 76.58-17.79 76.58-17.18L76.58-15.33L79.84-15.55L79.84-20.35C77.92-21.25 75.94-21.66 73.82-21.66C69.41-21.66 66.40-19.30 66.40-15.39C66.40-11.30 69.34-10.02 72.51-9.15C74.75-8.54 76.58-7.97 76.58-5.95C76.58-3.55 74.85-2.88 72.74-2.88ZM90.82-16.58C85.57-16.58 82.91-12.42 82.91-7.68C82.91-2.91 85.02 0.42 90.46 0.42C93.47 0.42 95.58-0.93 96.10-1.38L94.88-3.97C94.11-3.42 92.74-2.56 90.85-2.56C88.13-2.56 87.04-4.26 86.91-6.34C90.69-6.37 96.03-7.20 96.03-12.13C96.03-14.98 93.95-16.58 90.82-16.58ZM92.51-12.06C92.51-9.60 89.15-9.06 86.78-9.02C86.88-11.39 88.03-13.86 90.59-13.86C91.74-13.86 92.51-13.25 92.51-12.06ZM100.26-3.58C100.26-2.78 99.94-2.59 99.33-2.53L98.27-2.43L98.27 0L106.85 0L106.85-2.53L104.06-2.66L104.06-10.08C104.06-11.94 105.25-13.31 106.98-13.31C107.33-13.31 107.55-13.28 107.84-13.15C108.10-13.02 108.16-12.74 108.16-12.35L108.16-10.88L111.14-11.10L111.14-15.87C110.08-16.38 109.12-16.58 108.06-16.58C105.95-16.58 104.26-15.30 103.52-13.70L103.52-16.10L98.11-16.10L98.11-13.50L99.46-13.41C100.06-13.38 100.26-13.15 100.26-12.45ZM118.85-16.10L113.12-16.10L113.12-13.44L114.24-13.38C114.85-13.38 115.04-13.15 115.04-12.45L115.04-3.55C115.04-2.78 114.69-2.59 114.11-2.53L113.06-2.43L113.06 0L120.67 0L120.67-2.56L118.85-2.66ZM114.14-20.54C114.14-19.20 115.10-18.21 116.58-18.21C118.02-18.21 119.04-19.20 119.04-20.54C119.04-21.89 118.02-22.94 116.61-22.94C115.10-22.94 114.14-21.89 114.14-20.54ZM124.54-3.58C124.54-2.78 124.22-2.59 123.62-2.53L122.56-2.43L122.56 0L131.04 0L131.04-2.56L128.35-2.69L128.35-13.41L133.09-13.41L133.09-16.10L128.35-16.10L128.35-17.60C128.35-19.36 128.96-20.26 130.56-20.26C131.46-20.26 132.67-19.94 133.60-19.46L134.53-22.02C133.44-22.62 131.49-23.14 130.08-23.14C125.12-23.14 124.54-19.87 124.54-17.31L124.54-16.10L121.79-16.10L121.79-13.41L124.54-13.41Z"/></svg>