<svg id="mainsvg" xmlns="http://www.w3.org/2000/svg" xmlns:xlink="http://www.w3.org/1999/xlink" version="1.1" x="0px" y="0px" enable-background="new 0 0 200 162.5" xml:space="preserve" viewBox="0 0 180 25"><path fill="#000" transform="translate(-1.9375, 24.03125)" d="M24.34-20.36L24.34 0L20.28 0L20.28-5.50L6-5.50L6 0L1.94 0L1.94-11.20Q1.94-13.66 2.78-15.72Q3.63-17.78 5.13-19.27Q6.63-20.75 8.67-21.58Q10.72-22.41 13.14-22.41L13.14-22.41L22.30-22.41Q22.72-22.41 23.09-22.25Q23.47-22.09 23.75-21.81Q24.03-21.53 24.19-21.16Q24.34-20.78 24.34-20.36L24.34-20.36ZM6-11.20L6-9.56L20.28-9.56L20.28-18.34L13.14-18.34Q12.95-18.34 12.35-18.29Q11.75-18.23 10.96-18.02Q10.17-17.80 9.30-17.34Q8.42-16.89 7.69-16.09Q6.95-15.30 6.48-14.10Q6-12.91 6-11.20L6-11.20ZM47.08-16.89L47.08-2.05Q47.08-1.61 46.92-1.23Q46.77-0.86 46.49-0.59Q46.22-0.31 45.85-0.16Q45.48 0 45.06 0L45.06 0L35.88 0Q35.13 0 34.27-0.17Q33.42-0.34 32.59-0.73Q31.77-1.11 30.99-1.70Q30.22-2.28 29.64-3.12Q29.06-3.95 28.71-5.05Q28.36-6.14 28.36-7.52L28.36-7.52L28.36-16.89L32.42-16.89L32.42-7.52Q32.42-6.72 32.70-6.09Q32.97-5.45 33.44-5Q33.91-4.55 34.54-4.30Q35.17-4.06 35.91-4.06L35.91-4.06L43.02-4.06L43.02-16.89L47.08-16.89ZM69.42-24.03L69.42-5.70Q69.42-4.66 69.16-3.82Q68.89-2.98 68.45-2.35Q68.02-1.72 67.44-1.27Q66.86-0.83 66.23-0.55Q65.59-0.27 64.95-0.13Q64.30 0 63.72 0L63.72 0L56.39 0Q55.34 0 54.52-0.27Q53.69-0.53 53.05-0.98Q52.42-1.42 51.98-2Q51.53-2.58 51.25-3.21Q50.97-3.84 50.84-4.49Q50.70-5.14 50.70-5.70L50.70-5.70L50.70-11.20Q50.70-12.77 51.27-13.85Q51.84-14.94 52.70-15.62Q53.55-16.30 54.55-16.59Q55.55-16.89 56.39-16.89L56.39-16.89L63.72-16.89L63.72-12.83L56.42-12.83Q55.61-12.83 55.19-12.41Q54.77-12 54.77-11.20L54.77-11.20L54.77-5.73Q54.77-4.91 55.18-4.48Q55.59-4.06 56.39-4.06L56.39-4.06L63.72-4.06Q64.55-4.06 64.95-4.48Q65.36-4.91 65.36-5.70L65.36-5.70L65.36-24.03L69.42-24.03ZM77.42-24.03L77.42-20.36L73.36-20.36L73.36-24.03L77.42-24.03ZM77.42-16.89L77.42 0L73.36 0L73.36-16.89L77.42-16.89ZM99.69-11.20L99.69-5.70Q99.69-4.66 99.42-3.82Q99.16-2.98 98.72-2.35Q98.28-1.72 97.70-1.27Q97.13-0.83 96.49-0.55Q95.86-0.27 95.21-0.13Q94.56 0 93.98 0L93.98 0L86.66 0Q85.81 0 84.81-0.30Q83.81-0.59 82.96-1.27Q82.11-1.95 81.54-3.04Q80.97-4.13 80.97-5.70L80.97-5.70L80.97-11.20Q80.97-12.77 81.54-13.85Q82.11-14.94 82.96-15.62Q83.81-16.30 84.81-16.59Q85.81-16.89 86.66-16.89L86.66-16.89L93.98-16.89Q95.55-16.89 96.64-16.33Q97.73-15.77 98.41-14.91Q99.08-14.06 99.38-13.06Q99.69-12.06 99.69-11.20L99.69-11.20ZM95.63-5.70L95.63-11.17Q95.63-12.02 95.20-12.42Q94.78-12.83 93.98-12.83L93.98-12.83L86.69-12.83Q85.88-12.83 85.45-12.41Q85.03-12 85.03-11.20L85.03-11.20L85.03-5.70Q85.03-4.91 85.45-4.48Q85.88-4.06 86.69-4.06L86.69-4.06L93.98-4.06Q94.81-4.06 95.22-4.48Q95.63-4.91 95.63-5.70L95.63-5.70ZM126.41-16.89L130.95-16.89Q129.98-14.72 128.86-12.62Q127.73-10.52 126.51-8.64Q125.28-6.77 124-5.18Q122.72-3.59 121.46-2.45Q120.20-1.30 119.01-0.65Q117.81 0 116.75 0L116.75 0Q116.31 0 115.94-0.16Q115.56-0.31 115.28-0.59Q115-0.86 114.84-1.23Q114.69-1.61 114.69-2.05L114.69-2.05L114.69-9.63L106.63-0.61Q106.31-0.30 105.95-0.15Q105.58 0 105.19 0L105.19 0Q104.77 0 104.40-0.16Q104.03-0.31 103.75-0.59Q103.47-0.86 103.30-1.23Q103.14-1.61 103.14-2.05L103.14-2.05L103.14-16.89L107.20-16.89L107.20-7.27L115.30-16.31Q115.73-16.75 116.34-16.87Q116.94-16.98 117.52-16.73L117.52-16.73Q118.09-16.50 118.43-15.99Q118.77-15.48 118.77-14.88L118.77-14.88L118.77-5.22Q120.08-6.48 121.14-7.89Q122.20-9.30 123.12-10.79Q124.03-12.28 124.84-13.82Q125.64-15.36 126.41-16.89L126.41-16.89ZM136.48-24.03L136.48-20.36L132.42-20.36L132.42-24.03L136.48-24.03ZM136.48-16.89L136.48 0L132.42 0L132.42-16.89L136.48-16.89ZM158.91-24.03L158.91-5.70Q158.91-4.66 158.64-3.82Q158.38-2.98 157.94-2.35Q157.50-1.72 156.92-1.27Q156.34-0.83 155.71-0.55Q155.08-0.27 154.43-0.13Q153.78 0 153.20 0L153.20 0L145.88 0Q144.83 0 144-0.27Q143.17-0.53 142.54-0.98Q141.91-1.42 141.46-2Q141.02-2.58 140.73-3.21Q140.45-3.84 140.32-4.49Q140.19-5.14 140.19-5.70L140.19-5.70L140.19-11.20Q140.19-12.77 140.76-13.85Q141.33-14.94 142.18-15.62Q143.03-16.30 144.03-16.59Q145.03-16.89 145.88-16.89L145.88-16.89L153.20-16.89L153.20-12.83L145.91-12.83Q145.09-12.83 144.67-12.41Q144.25-12 144.25-11.20L144.25-11.20L144.25-5.73Q144.25-4.91 144.66-4.48Q145.08-4.06 145.88-4.06L145.88-4.06L153.20-4.06Q154.03-4.06 154.44-4.48Q154.84-4.91 154.84-5.70L154.84-5.70L154.84-24.03L158.91-24.03ZM180.95-11.30L180.95-11.30Q180.95-10.45 180.66-9.48Q180.36-8.50 179.70-7.66Q179.03-6.83 177.96-6.27Q176.89-5.70 175.36-5.70L175.36-5.70L168.03-5.70L168.03-9.56L175.36-9.56Q176.19-9.56 176.64-10.07Q177.09-10.58 177.09-11.33L177.09-11.33Q177.09-12.13 176.59-12.58Q176.08-13.03 175.36-13.03L175.36-13.03L168.03-13.03Q167.20-13.03 166.75-12.52Q166.30-12.02 166.30-11.27L166.30-11.27L166.30-5.59Q166.30-4.78 166.80-4.33Q167.31-3.88 168.06-3.88L168.06-3.88L175.36-3.88L175.36 0L168.03 0Q167.19 0 166.21-0.30Q165.23-0.59 164.40-1.26Q163.56-1.92 163-2.99Q162.44-4.06 162.44-5.59L162.44-5.59L162.44-11.30Q162.44-12.14 162.73-13.12Q163.03-14.09 163.70-14.93Q164.36-15.77 165.43-16.33Q166.50-16.89 168.03-16.89L168.03-16.89L175.36-16.89Q176.20-16.89 177.18-16.59Q178.16-16.30 178.99-15.63Q179.83-14.97 180.39-13.90Q180.95-12.83 180.95-11.30Z"/></svg>