<svg id="mainsvg" xmlns="http://www.w3.org/2000/svg" xmlns:xlink="http://www.w3.org/1999/xlink" version="1.1" x="0px" y="0px" enable-background="new 0 0 200 162.5" xml:space="preserve" viewBox="0 0 246 30"><path fill="#000" transform="translate(0, 23.453125)" d="M4.69 0L0 0L0-20.33Q0-23.45 3.13-23.45L3.13-23.45L15.63-23.45Q18.75-23.45 18.75-20.33L18.75-20.33L18.75 0L14.06 0L14.06-6.27L4.69-6.27L4.69 0ZM14.06-10.95L14.06-18.77L4.69-18.77L4.69-10.95L14.06-10.95ZM26.56-23.44L26.56-10.94L29.16-10.94L31.23-17.19L35.92-17.19L33.83-10.91Q35.17-10.78 36.05-10Q36.94-9.22 37.50-7.81L37.50-7.81L40.63 0L35.94 0L33.27-6.25L26.56-6.25L26.56 0L21.88 0L21.88-23.44L26.56-23.44ZM42.19-3.13L42.19-14.06Q42.19-17.19 45.31-17.19L45.31-17.19L57.81-17.19Q60.94-17.19 60.94-14.06L60.94-14.06L60.94 0L56.25 0L56.23-12.50L46.88-12.50L46.88-4.69L54.69-4.69L53.13 0L45.33 0Q42.19 0 42.19-3.13L42.19-3.13ZM82.81-17.20L81.27-12.52L68.75-12.52L68.75-10.94L79.69-10.94Q82.81-10.94 82.81-7.83L82.81-7.83L82.81-3.14Q82.81-0.02 79.69-0.02L79.69-0.02L64.06-0.02L64.06-4.69L78.13-4.70L78.13-6.27L67.19-6.27Q64.06-6.27 64.06-9.38L64.06-9.38L64.06-14.06Q64.06-17.20 67.19-17.20L67.19-17.20L82.81-17.20ZM90.63 0L85.94 0L85.94-23.44L90.63-23.44L90.63-17.19L101.56-17.19Q104.69-17.19 104.69-14.06L104.69-14.06L104.69 0L100 0L100-12.50L90.63-12.50L90.63 0ZM107.81-23.44L112.50-23.44L110.94-18.75L107.81-18.75L107.81-23.44ZM107.81 0L112.50 0L112.50-17.19L107.81-17.19L107.81 0ZM131.25-9.38L130.66-9.38L134.41 0L129.72 0L125.80-9.38L120.31-9.38L120.31 0L115.63 0L115.63-20.31Q115.63-23.44 118.75-23.44L118.75-23.44L131.25-23.44Q134.38-23.44 134.38-20.31L134.38-20.31L134.38-12.50Q134.38-9.38 131.25-9.38L131.25-9.38ZM120.31-14.06L129.69-14.06L129.69-18.75L120.31-18.75L120.31-14.06ZM153.13-17.19L153.13-17.19Q156.25-17.19 156.25-14.06L156.25-14.06L156.25-9.38Q156.25-6.25 153.13-6.25L153.13-6.25L143.75-6.25L143.75-10.94L151.56-10.94L151.56-12.50L142.19-12.50L142.19-4.69L153.11-4.69L151.58 0L140.63 0Q137.50 0 137.50-3.13L137.50-3.13L137.50-14.06Q137.50-17.19 140.63-17.19L140.63-17.19L153.13-17.19ZM175-17.19L175-17.19Q178.13-17.19 178.13-14.06L178.13-14.06L178.13 3.13Q178.13 6.25 175 6.25L175 6.25L165.63 6.25L167.19 1.56L173.44 1.56L173.44-12.50L164.06-12.50L164.06-4.69L171.88-4.69L170.31 0L162.50 0Q159.38 0 159.38-3.13L159.38-3.13L159.38-14.06Q159.38-17.19 162.50-17.19L162.50-17.19L175-17.19ZM181.25-17.19L185.94-17.19L185.94-4.69L195.31-4.69L195.33-17.19L200.02-17.19L200.02-3.13Q200.02 0 196.89 0L196.89 0L184.38 0Q181.25 0 181.25-3.13L181.25-3.13L181.25-17.19ZM207.81 0L203.13 0L203.13-23.44L207.81-23.44L207.81 0ZM210.94-3.13L210.94-14.06Q210.94-17.19 214.06-17.19L214.06-17.19L226.56-17.19Q229.69-17.19 229.69-14.06L229.69-14.06L229.69 0L225 0L224.98-12.50L215.63-12.50L215.63-4.69L223.44-4.69L221.88 0L214.08 0Q210.94 0 210.94-3.13L210.94-3.13ZM237.50 0L232.81 0L232.81-14.06Q232.81-17.19 235.94-17.19L235.94-17.19L245.30-17.19L243.73-12.50L237.50-12.50L237.50 0Z"/></svg>