<svg id="mainsvg" xmlns="http://www.w3.org/2000/svg" xmlns:xlink="http://www.w3.org/1999/xlink" version="1.1" x="0px" y="0px" enable-background="new 0 0 200 162.5" xml:space="preserve" viewBox="0 0 254 28"><path fill="#000" transform="translate(-0.96, 24.256)" d="M15.81-24L10.78-11.04L5.76-24L0.96-24L10.78 0.77L20.61-24ZM37.38-24L32.35-11.04L27.33-24L22.53-24L32.35 0.77L42.18-24ZM48.90-24L44.74-24L44.74 0L48.90 0C58.46 0 64.06-5.34 64.06-12.13C64.06-18.91 58.46-24 48.90-24ZM50.85-4.38L49.12-4.38L49.12-19.62L50.85-19.62C54.40-19.62 59.36-18.05 59.36-12.13C59.36-6.62 54.40-4.38 50.85-4.38ZM73.92 0.38C78.69 0.38 82.82-2.37 82.82-6.69C82.82-14.37 70.30-14.18 70.30-17.76C70.30-19.26 72.19-20.19 73.92-20.19C75.97-20.19 77.70-18.98 77.70-17.50L82.40-17.50C82.40-22.24 78.05-24.26 73.92-24.26C69.09-24.26 65.63-21.60 65.63-17.89C65.63-10.02 78.14-10.94 78.14-6.69C78.14-5.06 76.67-4 74.24-4C71.42-4 70.08-5.95 70.08-7.74L65.34-7.74C65.34-2.98 69.09 0.38 73.92 0.38ZM100.32 2.98L100.32-1.41L83.94-1.41L83.94 2.98ZM112.93-24.06L102.40-24.06L102.40 0L106.78 0L106.78-8.03L112.26-8.03C117.44-8.03 121.22-11.30 121.22-16.03C121.22-20.77 117.73-24.06 112.93-24.06ZM116.67-16.03C116.67-13.12 113.86-12.42 111.65-12.42L106.78-12.42L106.78-19.68L111.65-19.68C113.86-19.68 116.67-18.94 116.67-16.03ZM142.27-14.27C142.27-20.61 136.54-24.06 131.74-24.06L123.46-24.06L123.46 0L127.84 0L127.84-4.83L131.71-4.83C132-4.83 132.29-4.83 132.58-4.86L135.97 0L140.96 0L136.70-6.05C139.68-7.49 142.27-10.21 142.27-14.27ZM127.84-9.22L127.84-19.68L131.10-19.68C133.31-19.68 137.89-18.78 137.89-14.27C137.89-9.76 133.31-9.22 131.10-9.22ZM162.94-24L158.56-24C149.66-23.78 144.35-16.90 144.35-10.08C144.35-3.74 147.90 0 152.96 0C154.72 0 156.77-0.64 158.56-1.92L158.56 0L162.94 0ZM153.44-4.93C151.01-4.93 149.02-6.78 149.02-10.37C149.02-13.92 152.16-19.07 158.08-19.07L158.56-19.07L158.56-9.25C158.24-6.43 155.68-4.93 153.44-4.93ZM170.37-4.38L170.37-24L165.98-24L165.98 0L179.62 0L179.62-4.38ZM186.24 0L186.24-24L181.86-24L181.86 0ZM199.84-24C197.28-24 194.91-22.62 193.02-20.58L193.02-24L188.64-24L188.64 0L193.02 0L193.02-10.72C193.02-16.86 196.67-19.62 199.84-19.62C202.62-19.62 204.80-17.50 204.80-12L204.80 0L209.18 0L209.18-12.96C209.18-20.22 205.95-24 199.84-24ZM222.30-4.29C219.71-4.29 216.10-6.21 215.65-11.01L233.09-11.01C233.09-18.66 228.83-24 222.11-24.03C216-24.06 211.10-18.66 211.10-11.97C211.10-5.28 216 0.10 222.43 0.10C226.56 0.10 230.34-2.43 232.26-5.70L229.15-8.48C227.30-5.41 225.18-4.29 222.30-4.29ZM222.11-19.65C224.61-19.62 226.91-18.62 227.94-15.30L216.16-15.30C217.31-18.37 220-19.68 222.11-19.65ZM254.30-14.27C254.30-20.61 248.58-24.06 243.78-24.06L235.49-24.06L235.49 0L239.87 0L239.87-4.83L243.74-4.83C244.03-4.83 244.32-4.83 244.61-4.86L248 0L252.99 0L248.74-6.05C251.71-7.49 254.30-10.21 254.30-14.27ZM239.87-9.22L239.87-19.68L243.14-19.68C245.34-19.68 249.92-18.78 249.92-14.27C249.92-9.76 245.34-9.22 243.14-9.22Z"/></svg>