<svg id="mainsvg" xmlns="http://www.w3.org/2000/svg" xmlns:xlink="http://www.w3.org/1999/xlink" version="1.1" x="0px" y="0px" enable-background="new 0 0 200 162.5" xml:space="preserve" viewBox="0 0 95 26"><path fill="#000" transform="translate(-1.1576884940162986, 20.4375)" d="M8.06 1.44C11.94 1.44 15.53-1.03 17.16-4.73C17.42-5.36 17.61-5.94 17.69-6.44C17.73-6.73 17.80-7.38 17.63-7.63C17.61-7.64 17.59-7.66 17.58-7.66C17.55-7.69 17.50-7.72 17.45-7.72C17.42-7.72 17.39-7.70 17.36-7.69C17.34-7.69 17.34-7.67 17.33-7.67C17.25-7.63 17.20-7.50 17.17-7.42C16.39-5.42 14.84-3.94 12.92-2.92C11.91-2.38 11-2.06 9.83-2.06C6.53-2.23 6.03-5.83 6.39-8.36C6.70-10.44 8.11-14.80 10.77-15.17C10.84-15.19 10.92-15.19 10.98-15.19C12.59-15.19 12.36-11.86 9.91-10.44C8.91-9.86 9.81-7.86 10.95-7.58C11.28-7.50 11.59-7.45 11.91-7.45C14.20-7.45 16.03-9.53 16.38-12.03C17.03-16.36 14.44-19.06 10.31-19.06C4.88-19.06 2-13.39 1.31-8.70C0.55-3.69 2.59 1.44 8.06 1.44ZM27.34 0.08L27.55 0.06C29.92-0.06 31.69-1.91 32.77-3.98C33.25-4.89 33.55-5.70 33.66-6.44C33.72-6.83 33.72-7.19 33.67-7.52C33.66-7.63 33.55-7.73 33.42-7.73C33.39-7.73 33.36-7.72 33.33-7.70C33.23-7.64 33.17-7.53 33.16-7.45C32.80-6.52 32.34-5.77 31.80-5.20C31.22-4.61 30.72-4.30 30.28-4.30C29.55-4.36 29.69-5.34 29.78-5.91L29.86-6.33L29.92-6.78C30.28-9.84 30.11-13.47 26.59-13.91C26.52-13.92 26.39-13.92 26.30-13.92C25.17-13.88 24.23-13.45 23.48-12.64L24.56-17.73C25.03-19.94 23.55-20.44 21.86-20.44C21.72-20.44 21.58-20.42 21.44-20.42C19.84-20.36 18.67-19.27 18.48-17.69L16.52-2.63C16.31-1.08 17.06 0.31 18.66 0.38C20.70 0.38 21.34-0.64 21.67-2.52L21.92-3.98C22.14-4.95 23.17-9.22 24.58-9.22C24.80-9.22 24.95-9.06 25.05-8.72C25.22-7.84 25.17-6.86 25.09-5.94L24.92-4.14C24.80-2.58 24.98-1.48 25.52-0.83C25.98-0.23 26.59 0.08 27.34 0.08ZM37.16-14.70C38.34-14.78 39.50-15.31 39.70-16.64L39.72-16.78C39.81-17.38 39.70-17.91 39.39-18.39C39.05-18.91 38.31-19.19 37.17-19.20C35.72-19.17 34.02-18.81 33.75-17.06C33.45-15.11 35.42-14.70 36.97-14.70ZM34.97 0.08C35.16 0.11 35.33 0.13 35.52 0.13C38.36 0.13 40.83-3.48 41.27-6.42C41.31-6.77 41.33-7.09 41.30-7.39C41.30-7.47 41.28-7.56 41.23-7.61C41.22-7.64 41.19-7.66 41.19-7.69C41.14-7.72 41.09-7.73 41.03-7.73C41-7.73 40.97-7.72 40.94-7.70C40.84-7.64 40.80-7.55 40.78-7.45C40.39-6.45 39.89-5.67 39.31-5.09C38.94-4.72 38.47-4.30 37.91-4.30C37.16-4.34 37.28-5.22 37.36-5.77L38.38-10.73C38.67-12.23 37.91-13.34 36.44-13.52L36.16-13.55C36.03-13.56 35.89-13.56 35.77-13.56C34.34-13.56 33.31-12.61 33.17-11.08C32.91-8.16 30.69-0.63 34.97 0.08ZM53.03-6.63L53.05-6.80C53.09-7.08 53.09-7.33 53.06-7.52C53.03-7.64 52.95-7.73 52.83-7.73C52.80-7.73 52.77-7.72 52.73-7.70C52.72-7.70 52.72-7.70 52.70-7.69C52.63-7.64 52.58-7.53 52.56-7.45C51.88-5.83 49.59-3.38 47.69-3.38C45.56-3.38 44.84-5.52 45.03-7.13C45.17-8.39 45.64-10.25 47.09-10.44C47.69-10.44 47.94-9.89 48.05-9.38C48.13-8.91 48.58-8.34 49.06-8.30C49.17-8.28 49.28-8.28 49.39-8.28C50.72-8.28 51.36-9.20 51.28-10.52C51.14-13.31 49.20-14.22 46.86-14.22C46.66-14.22 46.44-14.22 46.22-14.20C42.83-13.98 40.86-10.58 40.42-7.58C39.84-3.66 41.69 0.41 45.95 0.38C50.59 0.33 52.22-2.45 53.03-6.63ZM62.45 0.08C65.34 0.08 67.75-2.81 68.17-6.44C68.22-6.83 68.23-7.19 68.19-7.52C68.17-7.63 68.06-7.73 67.94-7.73C67.91-7.73 67.88-7.72 67.84-7.70C67.75-7.64 67.69-7.53 67.67-7.45C67.28-6.45 66.80-5.67 66.22-5.09C65.67-4.56 65.20-4.30 64.81-4.30C64.08-4.38 64.17-5.11 64.25-5.67L65.38-11.31C65.67-12.80 64.80-14.42 63.36-14.66C63.17-14.69 62.95-14.70 62.73-14.70C61.73-14.70 60.59-14.33 60.33-13.31C59.69-13.69 58.98-13.88 58.20-13.88C54.67-13.88 52.53-10.16 52.08-7.13C51.63-4.08 52.58 0 56.08 0C57.30 0 58.72-0.53 59.61-1.66C60-0.59 61.28 0.08 62.45 0.08ZM57.53-3.80C57.47-3.78 57.41-3.78 57.34-3.78C56.05-3.78 56.38-5.92 56.53-6.84C56.66-7.75 57.69-10 58.97-10.02C60.13-10.03 59.94-7.91 59.70-6.94C59.23-4.98 58.44-3.92 57.53-3.80ZM71.70 5.53C74.75 5.53 77.17 3.67 77.81 0.55L80.25-11.34C80.53-12.69 80.03-14.05 78.70-14.27C78.53-14.30 78.36-14.31 78.19-14.31C77.39-14.31 76.66-13.97 76.16-12.89C75.52-13.78 74.61-14.22 73.44-14.22C69.91-14.22 67.77-10.48 67.31-7.45C66.84-4.39 67.92-0.70 71.42-0.70C72.20-0.70 72.91-0.89 73.53-1.25L73.22 0.22C72.94 1.56 72.17 2.44 71.03 2.44C70.86 2.44 70.69 2.41 70.52 2.38C70.22 2.31 70.72 0.94 69.50 0.56C69.16 0.45 68.84 0.41 68.58 0.41C67.25 0.41 66.75 1.53 66.77 2.33C66.81 4.47 69.94 5.45 71.70 5.53ZM72.78-4.13C71.58-4.28 71.63-6.27 71.77-7.23L71.80-7.38C71.94-8.27 72.55-10.41 73.78-10.41L73.81-10.41C74.80-10.28 74.53-7.92 74.42-7.20C74.31-6.47 73.84-4.17 72.78-4.13ZM85.13 0.39C88.63 0.39 89.88-1.22 91.06-4.28C91.33-4.95 90.02-5.64 89.11-5.64C88.77-5.64 88.48-5.55 88.38-5.31C88-4.63 87.48-3.89 86.64-3.89C84.69-3.89 85.72-9 87.06-9.94C87.23-7.77 88.94-5.56 91.28-5.56C93.27-5.56 94.47-7.14 95.17-8.89C95.27-9.14 95.31-9.38 95.34-9.59C95.39-9.88 95.42-10.56 95.20-10.75C95.17-10.77 95.13-10.78 95.08-10.78C95.05-10.78 95-10.77 94.97-10.75C94.95-10.75 94.95-10.73 94.94-10.73C94.88-10.69 94.83-10.59 94.80-10.50C94.33-9.34 93.45-8.42 92.16-8.38C92.41-10.09 91.89-11.25 91.13-12.34C90.39-13.45 89.19-14.05 87.50-14.13C83.94-14.13 81.69-10.33 81.16-7.27L81.13-7.13C80.67-4.06 80.98 0.28 85.13 0.39Z"/></svg>