<svg id="mainsvg" xmlns="http://www.w3.org/2000/svg" xmlns:xlink="http://www.w3.org/1999/xlink" version="1.1" x="0px" y="0px" enable-background="new 0 0 200 162.5" xml:space="preserve" viewBox="0 0 194 24"><path fill="#000" transform="translate(-0.064, 22.752)" d="M15.20-22.40L8.77-22.40C9.70-20.80 9.44-20.45 7.62-8.77C5.73-20.64 5.50-20.74 6.43-22.40L-0.06-22.40C0.90-20.54 2.46-11.90 4.86 0.32L10.27 0.32C12.67-12 14.27-20.67 15.20-22.40ZM30.34-22.40L23.90-22.40C24.83-20.80 24.58-20.45 22.75-8.77C20.86-20.64 20.64-20.74 21.57-22.40L15.07-22.40C16.03-20.54 17.60-11.90 20 0.32L25.41 0.32C27.81-12 29.41-20.67 30.34-22.40ZM37.70-22.40L31.36-22.40C32.51-19.39 32.61-2.88 31.36 0.32L37.70 0.32C42.59 0.32 44.93-1.89 44.93-5.98L44.93-16.10C44.93-20.19 42.59-22.40 37.70-22.40ZM40.54-6.85C40.54-4.83 39.55-3.94 36.86-3.94L36.86-18.30C38.82-18.30 40.54-17.98 40.54-15.87ZM55.55-14.88L60.35-16.51C60.45-20.38 57.54-22.75 53.70-22.75C47.90-22.75 45.73-17.73 45.73-11.01C45.73-5.79 47.04 0.64 53.54 0.64C57.22 0.64 60.45-1.73 60.35-7.52L60.35-11.62L54.72-11.62C56.03-9.18 56.06-3.78 53.54-3.78C52.03-3.78 51.01-5.79 51.01-11.01C51.01-16.45 52.03-18.34 53.70-18.34C55.33-18.34 55.84-16.32 55.55-14.88ZM67.58-20.70C63.84-20.70 61.47-18.27 61.47-14.40L61.47-5.57C61.47-1.70 63.84 0.74 67.58 0.74C71.33 0.74 73.70-1.70 73.70-5.57L73.70-14.40C73.70-18.27 71.33-20.70 67.58-20.70ZM67.58-16.29C68.58-16.29 69.02-15.68 69.02-14.37L69.02-5.60C69.02-4.29 68.58-3.68 67.58-3.68C66.59-3.68 66.14-4.29 66.14-5.60L66.14-14.37C66.14-15.68 66.59-16.29 67.58-16.29ZM88.38-5.31C86.34-4 85.66-4.16 81.22-4.16C81.22-18.05 80.80-17.95 82.05-20.48L75.74-20.48C76.99-17.89 76.86-13.98 76.54 0.32L87.46 0.32ZM95.58-20.48L89.25-20.48C90.40-17.47 90.50-2.88 89.25 0.32L95.58 0.32C99.84 0.32 102.18-1.89 102.18-5.98L102.18-14.18C102.18-18.27 99.84-20.48 95.58-20.48ZM97.82-6.85C97.82-5.15 96.80-3.94 94.75-3.94L94.75-16.38C96.70-16.38 97.82-15.74 97.82-13.95ZM109.89-16.06C113.70-16.06 114.02-16.19 115.42-15.52L116.03-20.48L104.38-20.48C105.54-17.57 105.66-2.88 104.38 0.32L116.03 0.32L115.52-4.64C114.27-4 113.89-4.10 109.89-4.10L109.89-7.87C111.65-7.87 112.74-7.81 114.21-7.26L114.21-12.86C112.61-12.26 111.65-12.29 109.89-12.29ZM132.03 0.32C130.82-2.82 130.72-17.22 132.10-20.48L125.95-20.48C126.94-18.46 126.75-17.38 126.75-11.87L123.46-20.48L117.76-20.48C119.04-17.18 118.98-2.82 117.76 0.32L123.87 0.32C122.75-1.95 123.07-1.76 123.07-10.40L126.82 0.32ZM148.29 0.32C146.94-2.98 147.01-19.46 148.32-22.40L141.98-22.40C143.07-20.16 142.78-16.51 142.78-13.15L139.39-13.15C139.39-16.67 139.10-20.16 140.22-22.40L133.92-22.40C135.04-19.55 135.17-2.75 133.92 0.32L140.22 0.32C139.20-1.73 139.39-4.16 139.39-8.67L142.78-8.67C142.78-4.06 142.98-1.70 141.98 0.32ZM156.45-20.70C152.70-20.70 150.34-18.27 150.34-14.40L150.34-5.57C150.34-1.70 152.70 0.74 156.45 0.74C160.19 0.74 162.56-1.70 162.56-5.57L162.56-14.40C162.56-18.27 160.19-20.70 156.45-20.70ZM156.45-16.29C157.44-16.29 157.89-15.68 157.89-14.37L157.89-5.60C157.89-4.29 157.44-3.68 156.45-3.68C155.46-3.68 155.01-4.29 155.01-5.60L155.01-14.37C155.01-15.68 155.46-16.29 156.45-16.29ZM178.59 0.32C177.12-1.44 177.70-0.58 174.66-7.36C176.13-8.45 176.93-10.24 176.93-12.58L176.93-14.18C176.93-18.21 174.66-20.48 170.66-20.48L164.29-20.48C165.54-17.25 165.54-2.66 164.29 0.32L170.62 0.32C169.63-1.63 169.79-1.60 169.79-6.27L170.24-6.27C172.10-2.24 172.77-1.09 171.74 0.32ZM172.26-12.80C172.26-10.94 171.78-10.69 169.79-10.69L169.79-16.06C171.71-16.06 172.26-15.87 172.26-13.95ZM193.60 0.32C192.38-2.82 192.29-17.22 193.66-20.48L187.52-20.48C188.51-18.46 188.32-17.38 188.32-11.87L185.02-20.48L179.33-20.48C180.61-17.18 180.54-2.82 179.33 0.32L185.44 0.32C184.32-1.95 184.64-1.76 184.64-10.40L188.38 0.32Z"/></svg>