<svg id="mainsvg" xmlns="http://www.w3.org/2000/svg" xmlns:xlink="http://www.w3.org/1999/xlink" version="1.1" x="0px" y="0px" enable-background="new 0 0 200 162.5" xml:space="preserve" viewBox="0 0 150 22"><path fill="#000" transform="translate(-1.568, 20.8)" d="M1.57-20.80C2.34-20.19 2.30-19.62 2.30-18.69L2.30-2.66C2.30-1.25 2.59 0 4.10 0L7.90 0C7.14-0.61 7.17-1.18 7.17-2.11L7.17-18.14C7.17-18.85 7.10-19.55 6.82-20.03L8.77-20.03C12-20.03 13.47-18.11 13.47-14.88C13.47-11.58 11.81-9.98 8.58-9.98L8.58-8.96C12.38-7.23 11.46 0.42 16.48 0.38C18.11 0.38 19.49-0.06 20.45-0.70C17.60-1.66 16.32-6.91 11.81-8.93C15.20-9.22 18.66-10.62 18.66-14.88C18.66-20.35 14.18-20.80 9.79-20.80ZM21.60-7.33C21.60-3.14 24.35 0.26 29.38 0.26C34.40 0.26 37.22-3.14 37.22-7.33C37.22-11.55 34.43-14.75 29.38-14.75C24.35-14.75 21.60-11.52 21.60-7.33ZM26.50-7.36C26.50-10.85 27.33-14.30 29.34-14.30C31.36-14.30 32.29-10.78 32.29-7.36C32.29-3.87 31.33-0.22 29.34-0.22C27.36-0.22 26.50-3.87 26.50-7.36ZM39.36-10.69C39.36-5.89 47.94-5.98 47.94-2.40C47.94-1.15 47.23-0.22 45.76-0.22C43.78-0.22 42.78-2.78 42.24-5.06C36.64-4.06 38.94 0.26 45.57 0.26C49.12 0.26 52.64-0.99 52.64-3.84C52.64-8.93 44.13-8.26 44.03-12.19C44-13.38 44.61-14.30 45.89-14.30C47.58-14.30 48.16-12.13 48.96-9.89C54.66-10.30 52.77-14.75 45.89-14.75C42.88-14.75 39.36-13.31 39.36-10.69ZM54.94-10.69C54.94-5.89 63.52-5.98 63.52-2.40C63.52-1.15 62.82-0.22 61.34-0.22C59.36-0.22 58.37-2.78 57.82-5.06C52.22-4.06 54.53 0.26 61.15 0.26C64.70 0.26 68.22-0.99 68.22-3.84C68.22-8.93 59.71-8.26 59.62-12.19C59.58-13.38 60.19-14.30 61.47-14.30C63.17-14.30 63.74-12.13 64.54-9.89C70.24-10.30 68.35-14.75 61.47-14.75C58.46-14.75 54.94-13.31 54.94-10.69ZM69.73-3.30C69.73-1.76 71.10 0.26 74.72 0.26C76.86 0.26 78.30-0.83 79.17-2.21L79.17-2.18C79.20-0.83 79.71 0 81.92 0L84.48 0C83.68-0.64 83.74-1.22 83.74-2.14L83.74-10.59C83.74-13.60 80.16-14.75 77.25-14.75C74.37-14.75 71.87-14.14 71.23-12.67C70.46-11.01 71.94-9.41 74.59-9.31C74.56-9.31 75.17-14.37 77.25-14.37C78.88-14.37 79.17-11.90 79.17-10.46L79.17-8.90C76.83-7.20 69.73-6.75 69.73-3.30ZM74.56-3.65C74.56-6.30 77.73-6.94 79.17-8.03L79.17-5.86C79.17-3.90 78.53-1.31 76.35-1.31C75.49-1.31 74.56-2.11 74.56-3.65ZM85.92-14.50C86.72-13.89 86.69-13.28 86.69-12.32L86.69-2.34C86.69-0.90 87.01 0 88.54 0L92.03 0C91.23-0.64 91.30-1.22 91.30-2.18L91.30-8.83C91.49-11.81 92.51-13.70 94.11-13.70C95.49-13.70 96.42-12.96 96.42-9.12L96.42-2.34C96.42-0.90 96.74 0 98.27 0L101.76 0C100.99-0.64 101.02-1.22 101.02-2.14L101.02-9.22C101.02-13.34 97.92-14.75 95.04-14.75C93.31-14.75 92.06-14.02 91.23-12.74L91.23-12.83C91.10-13.86 90.69-14.50 89.41-14.50ZM103.30-7.33C103.30-3.14 106.05 0.26 111.07 0.26C116.10 0.26 118.91-3.14 118.91-7.33C118.91-11.55 116.13-14.75 111.07-14.75C106.05-14.75 103.30-11.52 103.30-7.33ZM108.19-7.36C108.19-10.85 109.02-14.30 111.04-14.30C113.06-14.30 113.98-10.78 113.98-7.36C113.98-3.87 113.02-0.22 111.04-0.22C109.06-0.22 108.19-3.87 108.19-7.36ZM119.87-14.50C120.67-13.89 120.99-12.64 121.31-11.71L125.54 0L131.55 0C131.04-0.83 130.85-1.34 131.33-2.66L135.52-14.50L132.58-14.50L129.70-2.37L125.73-13.28C125.47-14.02 125.02-14.50 124.06-14.50ZM136.29-3.30C136.29-1.76 137.66 0.26 141.28 0.26C143.42 0.26 144.86-0.83 145.73-2.21L145.73-2.18C145.76-0.83 146.27 0 148.48 0L151.04 0C150.24-0.64 150.30-1.22 150.30-2.14L150.30-10.59C150.30-13.60 146.72-14.75 143.81-14.75C140.93-14.75 138.43-14.14 137.79-12.67C137.02-11.01 138.50-9.41 141.15-9.31C141.12-9.31 141.73-14.37 143.81-14.37C145.44-14.37 145.73-11.90 145.73-10.46L145.73-8.90C143.39-7.20 136.29-6.75 136.29-3.30ZM141.12-3.65C141.12-6.30 144.29-6.94 145.73-8.03L145.73-5.86C145.73-3.90 145.09-1.31 142.91-1.31C142.05-1.31 141.12-2.11 141.12-3.65Z"/></svg>