<svg id="mainsvg" xmlns="http://www.w3.org/2000/svg" xmlns:xlink="http://www.w3.org/1999/xlink" version="1.1" x="0px" y="0px" enable-background="new 0 0 200 162.5" xml:space="preserve" viewBox="0 0 198 45"><path fill="#000" transform="translate(0, 32)" d="M28-28L28-24.54Q28-21.70 25.44-18.69L25.44-18.69Q23.62-16.54 20.61-14.43L20.61-14.43Q19.23-13.47 17.86-12.54L17.86-12.54L14.66-4.54Q15.36-4.06 17.87-3.10Q20.38-2.14 21.31-2.14L21.31-2.14Q23.07-2.14 24.58-3.33L24.58-3.33Q25.82-4.32 26.91-6.14L26.91-6.14L27.71-6.14L27.71-5.06Q26.27-2.62 24.38-1.38L24.38-1.38Q22.34 0 19.71 0L19.71 0Q17.70 0 14.78-1.06L14.78-1.06Q13.82-1.41 12.26-2.14L12.26-2.14Q10.88-1.44 10.05-1.09L10.05-1.09Q7.49 0 6.11 0L6.11 0Q3.71 0 2.08-0.70L2.08-0.70Q0-1.60 0-3.46L0-3.46Q0-4.86 1.22-5.76Q2.43-6.66 4-6.66L4-6.66L6.66-6.66Q7.81-6.66 9.36-6.13Q10.91-5.60 11.20-5.60L11.20-5.60Q11.52-5.60 11.74-6.21L11.74-6.21Q12.22-8.16 12.80-9.86L12.80-9.86L12.80-11.74Q10.88-11.74 9.57-11.90L9.57-11.90Q6.40-12.29 4.51-13.47L4.51-13.47Q1.86-15.14 1.86-18.14L1.86-18.14Q1.86-19.78 2.72-21.25L2.72-21.25Q4.22-23.81 8-25.60L8-25.60L9.31-25.60L9.31-24.80Q7.90-23.23 6.50-21.70L6.50-21.70Q5.31-19.90 5.31-18.14L5.31-18.14Q5.31-15.94 6.91-14.43L6.91-14.43Q8.64-12.80 11.46-12.80L11.46-12.80Q12.64-12.80 14.08-17.76L14.08-17.76Q16.06-24.61 17.31-27.01L17.31-27.01Q19.94-32 24-32L24-32Q25.76-32 26.88-30.85Q28-29.70 28-28L28-28ZM26.40-26.66L26.40-26.66Q26.40-28.38 25.79-29.39Q25.18-30.40 24-30.40L24-30.40Q21.92-30.40 20.54-27.30L20.54-27.30Q19.58-25.15 18.94-21.38L18.94-21.38Q18.66-19.62 18.40-17.86L18.40-17.86L18.40-14.94Q22.11-16.93 24.48-21.09L24.48-21.09Q26.40-24.45 26.40-26.66ZM9.31-3.20L9.31-3.20Q8.38-3.84 6.96-4.32Q5.54-4.80 4.26-4.80L4.26-4.80Q3.01-4.80 2.34-4.54L2.34-4.54Q1.31-4.16 1.31-3.20L1.31-3.20Q1.31-2.53 2.78-1.98L2.78-1.98Q3.26-1.82 4.26-1.60L4.26-1.60Q6.02-1.60 7.18-1.97Q8.35-2.34 9.31-3.20ZM47.58-5.89L47.58-5.89Q47.20-4.03 45.57-2.21L45.57-2.21Q43.62 0 41.44 0L41.44 0Q40.19 0 39.23-1.25L39.23-1.25Q38.72-1.92 38.37-2.82L38.37-2.82L37.50-2.82Q36.70-1.63 36-1.09L36-1.09Q34.56 0 32.48 0L32.48 0Q30.27 0 28.93-1.76L28.93-1.76Q27.71-3.36 27.71-5.60L27.71-5.60Q27.71-9.28 30.98-12.26L30.98-12.26Q33.82-14.85 36.10-14.85L36.10-14.85Q37.09-14.85 38.14-14.27Q39.20-13.70 39.74-12.90L39.74-12.90Q40.38-13.47 40.74-13.73L40.74-13.73Q41.86-14.56 42.56-14.56L42.56-14.56Q43.14-14.56 43.26-14.24Q43.39-13.92 43.39-13.15L43.39-13.15Q43.39-13.02 42.54-9.57Q41.70-6.11 41.70-5.06L41.70-5.06L41.70-1.66Q44.22-1.92 45.28-3.79Q46.34-5.66 47.58-5.89ZM38.91-10.66L38.91-10.66Q38.91-11.71 38.38-12.30Q37.86-12.90 36.67-12.90L36.67-12.90Q35.17-12.90 33.86-10.50L33.86-10.50Q32.96-8.83 32.19-6.05L32.19-6.05Q31.90-4.83 31.62-3.65L31.62-3.65Q31.62-3.01 32.45-2.27L32.45-2.27Q32.70-2.05 33.31-1.66L33.31-1.66Q35.49-1.66 37.28-4.90L37.28-4.90Q38.91-7.84 38.91-10.66ZM66.14-4.64L66.14-4.64Q66.14-3.42 64.24-1.55Q62.34 0.32 60.90 0.32L60.90 0.32Q58.56 0.32 58.02-1.73L58.02-1.73Q57.25-4.58 56.83-4.93L56.83-4.93Q55.36-2.46 54.21-1.44L54.21-1.44Q52.61 0 50.40 0L50.40 0Q48.61 0 47.84-1.60L47.84-1.60Q47.23-2.85 47.23-4.93L47.23-4.93Q47.36-6.14 47.49-7.39L47.49-7.39Q47.94-10.24 48.74-12.03L48.74-12.03Q49.86-14.53 51.58-14.53L51.58-14.53Q51.90-14.53 52.16-14.32Q52.42-14.11 53.02-13.38L53.02-13.38Q52.13-12.48 51.62-9.28L51.62-9.28Q50.91-4.96 50.72-4.35L50.72-4.35L50.72-1.44L52.16-1.44Q55.33-3.94 56.93-7.42L56.93-7.42Q57.79-9.82 58.69-12.26L58.69-12.26Q59.49-14.24 61.18-14.24L61.18-14.24Q61.47-14.24 61.71-14.22Q61.95-14.21 62.18-14.21L62.18-14.21Q62.43-14.21 62.66-14.24L62.66-14.24L62.66-11.90Q61.82-10.98 61.54-8.74L61.54-8.74Q61.15-5.73 60.90-4.93L60.90-4.93L60.90-1.73Q62.27-1.73 63.20-2.46L63.20-2.46Q64.29-3.33 65.54-5.79L65.54-5.79Q66.14-5.34 66.14-4.64ZM77.82-7.01L77.82-7.01Q77.34-6.66 76.90-6.30L76.90-6.30Q76.54-6.11 75.81-6.11L75.81-6.11Q74.21-6.11 73.18-7.68L73.18-7.68Q72.45-8.93 71.71-10.18L71.71-10.18Q69.73-6.88 68.83-4.77L68.83-4.77Q67.94-2.37 67.07 0L67.07 0L63.87 0L63.87-2.91Q64.22-4.03 64.66-7.63Q65.09-11.23 65.60-12.58L65.60-12.58Q66.46-14.85 68.22-14.85L68.22-14.85Q68.48-14.85 69.09-14.21Q69.70-13.57 69.70-13.41L69.70-13.41L68.51-9.60L68.51-8.45Q69.92-9.54 71.94-12.74L71.94-12.74Q73.25-14.85 75.49-14.85L75.49-14.85Q76.16-14.85 76.42-14.72L76.42-14.72Q76.96-14.46 76.96-13.70L76.96-13.70Q76.96-13.18 76.10-11.33Q75.23-9.47 75.23-8.74L75.23-8.74Q75.23-7.78 76.32-7.52Q77.41-7.26 77.82-7.01ZM92.86-5.89L92.86-4.48Q91.39-2.98 90.43-2.24L90.43-2.24Q87.55 0 85.31 0L85.31 0L82.50 0Q80.83 0 79.04-1.60L79.04-1.60Q76.90-3.52 76.90-6.18L76.90-6.18Q76.90-7.33 77.92-9.22L77.92-9.22Q79.20-11.55 81.12-12.99L81.12-12.99Q83.62-14.85 86.69-14.85L86.69-14.85Q89.06-14.85 90.05-13.89L90.05-13.89Q90.88-13.09 90.88-11.49L90.88-11.49Q90.88-9.09 88.42-7.33L88.42-7.33Q87.14-6.40 83.84-5.02L83.84-5.02Q81.38-4 81.38-3.36L81.38-3.36Q81.38-2.72 82.27-2.06Q83.17-1.41 84.45-1.41L84.45-1.41Q86.91-1.41 88.51-2.46L88.51-2.46Q90.69-4.16 92.86-5.89L92.86-5.89ZM87.26-11.49L87.26-11.49Q87.26-12.48 86.94-12.83Q86.62-13.18 85.86-13.18L85.86-13.18Q84.32-13.18 83.42-11.62Q82.53-10.05 81.66-8.42L81.66-8.42L81.66-5.89Q83.52-6.59 84.45-7.20L84.45-7.20Q87.26-9.02 87.26-11.49ZM111.90-6.05L112.77-6.05Q112.35-3.17 109.98-1.28L109.98-1.28Q108 0.29 106.40 0.29L106.40 0.29Q105.12 0.29 104.18-0.94Q103.23-2.18 103.23-4.03L103.23-4.03Q103.23-6.34 104.26-9.60L104.26-9.60Q104.58-10.69 105.28-12.42L105.28-12.42Q105.28-12.70 104.90-12.99Q104.51-13.28 104.10-13.28L104.10-13.28Q102.24-13.28 100.29-9.86L100.29-9.86Q98.72-6.66 97.15-3.46L97.15-3.46Q95.39 0 94.02 0L94.02 0Q93.50 0 93.18-0.29Q92.86-0.58 92.86-1.41L92.86-1.41Q92.86-1.86 92.86-2.05L92.86-2.05Q92.86-5.76 93.70-9.50L93.70-9.50Q94.85-14.72 96.90-14.72L96.90-14.72Q97.57-14.72 97.82-14.43Q98.08-14.14 98.08-13.54L98.08-13.54Q98.08-13.18 97.38-10.34L97.38-10.34Q97.02-8.90 97.02-8L97.02-8Q97.02-7.23 97.18-6.66L97.18-6.66Q97.50-7.42 98.34-8.83L98.34-8.83Q99.71-11.20 101.15-12.67L101.15-12.67Q103.17-14.72 104.99-14.72L104.99-14.72Q105.95-14.72 107.06-13.55Q108.16-12.38 108.16-11.55L108.16-11.55L108.16-8.93L106.40-2.91L106.40-1.44L107.58-1.44Q109.25-2.30 110.30-3.71L110.30-3.71Q111.23-5.09 111.90-6.05L111.90-6.05ZM133.50-9.60L133.50-9.60Q133.50-5.44 129.95-2.62L129.95-2.62Q126.66 0 122.30 0L122.30 0Q119.78 0 117.89-1.02L117.89-1.02Q116.96-1.54 116.35-1.54L116.35-1.54Q115.87-1.54 114.67 0.02Q113.47 1.57 112.67 1.57L112.67 1.57L111.90 1.57L111.90 0.54Q112.54 0.19 113.54-0.83L113.54-0.83Q114.75-2.05 114.75-2.59L114.75-2.59Q114.05-3.68 113.73-4.38L113.73-4.38Q112.67-6.53 112.67-8.06L112.67-8.06Q112.67-10.98 114.18-12.99L114.18-12.99Q115.90-15.33 118.91-15.33L118.91-15.33Q120.10-15.33 120.86-15.02Q121.63-14.72 122.05-13.73L122.05-13.73Q119.30-12.48 116.58-11.26L116.58-11.26Q114.24-9.47 114.24-7.01L114.24-7.01Q114.24-6.59 114.62-5.82L114.62-5.82Q115.14-4.83 116.06-3.90L116.06-3.90Q117.34-4.74 119.90-7.90L119.90-7.90Q122.11-10.62 124.16-13.58Q126.21-16.54 126.21-16.86L126.21-16.86Q125.50-18.46 125.18-19.39L125.18-19.39Q124.16-22.21 124.16-23.65L124.16-23.65L124.16-26.02Q124.16-28.29 125.76-30.14Q127.36-32 129.09-32L129.09-32Q130.43-32 131.49-30.98L131.49-30.98Q132.70-29.79 132.70-27.81L132.70-27.81Q132.70-26.30 131.74-24L131.74-24Q130.66-21.47 129.57-18.94L129.57-18.94Q131.10-16.48 132.30-14.34Q133.50-12.19 133.50-9.60ZM130.40-25.73L130.40-25.73L130.40-28.10Q130.40-28.96 129.76-29.57Q129.12-30.18 128.54-30.18L128.54-30.18Q127.71-30.18 127.14-29.28L127.14-29.28Q126.46-28.19 126.21-28.10L126.21-28.10L126.21-24.42Q127.01-24.03 127.26-22.70Q127.52-21.38 128.54-21.02L128.54-21.02Q129.38-22.40 129.89-23.57Q130.40-24.74 130.40-25.73ZM128.54-7.52L128.54-7.52L128.54-9.60Q128.54-10.27 128.19-11.42L128.19-11.42Q128.03-11.90 126.98-14.78L126.98-14.78Q125.86-13.31 124.74-11.87L124.74-11.87Q122.62-9.12 120.51-6.37L120.51-6.37Q118.18-3.39 117.66-2.85L117.66-2.85Q118.91-2.18 119.90-1.86Q120.90-1.54 121.82-1.54L121.82-1.54Q124.29-1.54 126.42-3.33Q128.54-5.12 128.54-7.52ZM148.06-6.27L148.06-5.15Q147.14-3.42 145.38-1.89L145.38-1.89Q143.17 0 141.18 0L141.18 0L138.62 0Q137.12 0 135.52-1.41L135.52-1.41Q133.50-3.20 133.50-6.02L133.50-6.02Q133.50-8.58 135.84-11.55L135.84-11.55Q138.43-14.85 141.47-14.85L141.47-14.85L143.78-14.85Q144.51-14.85 145.63-13.98L145.63-13.98Q146.91-12.99 146.91-12L146.91-12Q146.91-11.20 146.37-10.53L146.37-10.53Q145.70-9.73 144.64-9.73L144.64-9.73Q143.39-9.73 142.99-10.32Q142.59-10.91 142.59-12.03L142.59-12.03Q142.59-12.35 142.59-12.70Q142.59-13.06 142.62-13.44L142.62-13.44L141.18-13.44Q139.33-11.55 138.59-9.76L138.59-9.76Q137.76-7.78 137.76-4.86L137.76-4.86Q137.76-3.10 138.46-2.13Q139.17-1.15 140.64-1.15L140.64-1.15Q142.34-1.15 144.67-3.26L144.67-3.26Q147.84-6.14 148.06-6.27L148.06-6.27ZM160.35-7.01L160.35-7.01Q159.87-6.66 159.42-6.30L159.42-6.30Q159.07-6.11 158.34-6.11L158.34-6.11Q156.74-6.11 155.71-7.68L155.71-7.68Q154.98-8.93 154.24-10.18L154.24-10.18Q152.26-6.88 151.36-4.77L151.36-4.77Q150.46-2.37 149.60 0L149.60 0L146.40 0L146.40-2.91Q146.75-4.03 147.18-7.63Q147.62-11.23 148.13-12.58L148.13-12.58Q148.99-14.85 150.75-14.85L150.75-14.85Q151.01-14.85 151.62-14.21Q152.22-13.57 152.22-13.41L152.22-13.41L151.04-9.60L151.04-8.45Q152.45-9.54 154.46-12.74L154.46-12.74Q155.78-14.85 158.02-14.85L158.02-14.85Q158.69-14.85 158.94-14.72L158.94-14.72Q159.49-14.46 159.49-13.70L159.49-13.70Q159.49-13.18 158.62-11.33Q157.76-9.47 157.76-8.74L157.76-8.74Q157.76-7.78 158.85-7.52Q159.94-7.26 160.35-7.01ZM166.82-21.98L166.82-21.98Q166.82-20.93 165.79-20.22L165.79-20.22Q165.02-19.68 164.54-19.68L164.54-19.68Q163.68-19.68 162.98-20.32Q162.27-20.96 162.27-21.70L162.27-21.70Q162.27-22.50 162.98-23.30L162.98-23.30Q163.81-24.22 164.83-24.22L164.83-24.22Q166.08-24.22 166.53-23.42L166.53-23.42Q166.82-22.91 166.82-21.98ZM169.38-5.44L169.38-5.44Q169.38-4.06 167.58-2.18L167.58-2.18Q165.50 0 163.14 0L163.14 0Q161.41 0 160.29-1.66L160.29-1.66Q159.42-2.94 159.42-4L159.42-4L159.42-6.27Q159.94-9.15 160.35-10.56L160.35-10.56Q161.63-14.85 163.39-14.85L163.39-14.85Q164.29-14.85 164.58-14.56Q164.86-14.27 164.86-13.63L164.86-13.63Q164.83-13.12 164.83-12.83L164.83-12.83Q164.83-12.22 163.98-8.11Q163.14-4 163.14-2.88L163.14-2.88Q163.14-1.73 164.26-1.73L164.26-1.73Q164.93-1.73 166.05-2.94L166.05-2.94Q167.58-4.61 169.12-6.27L169.12-6.27Q169.28-6.14 169.31-6.08L169.31-6.08Q169.38-5.98 169.38-5.44ZM188.06-6.27L188.06-5.15Q186.85-3.07 184.96-1.63L184.96-1.63Q182.82 0 180.64 0L180.64 0L178.08 0Q176.32 0 174.85-1.50L174.85-1.50Q173.50-2.88 173.50-4.26L173.50-4.26Q173.50-4.90 173.86-5.47L173.86-5.47Q174.34-6.27 175.23-6.27L175.23-6.27Q175.78-6.27 176.22-5.86Q176.67-5.44 176.67-4.83L176.67-4.83Q176.67-4.54 176.29-4.16L176.29-4.16Q175.39-3.23 175.23-2.30L175.23-2.30L177.50-2.30Q179.33-4.06 179.68-4.58L179.68-4.58Q180.64-5.89 180.64-7.42L180.64-7.42L180.64-9.98Q180.64-11.14 179.92-11.98Q179.20-12.83 178.08-12.83L178.08-12.83Q176.70-12.83 175.17-10.98L175.17-10.98Q173.34-8.77 172.26-4.90L172.26-4.90Q170.94-0.22 170.94 6.24L170.94 6.24Q170.94 7.36 170.91 8.38Q170.88 9.41 170.85 10.30L170.85 10.30Q170.85 11.62 170.94 12.54L170.94 12.54L167.81 12.54L167.81 0Q168.00-1.12 168.19-2.27L168.19-2.27Q168.74-5.12 169.25-8L169.25-8Q169.95-11.87 170.66-15.39L170.66-15.39Q170.98-17.41 171.33-19.46L171.33-19.46Q172.03-22.43 173.50-23.10L173.50-23.10L174.94-23.10L174.94-21.70Q174.94-20.54 174.50-18.66L174.50-18.66Q173.50-14.46 173.50-13.95L173.50-13.95L173.50-11.10Q175.30-12.83 176.19-13.57L176.19-13.57Q177.76-14.85 179.81-14.85L179.81-14.85Q182.43-14.85 183.65-13.18L183.65-13.18Q184.61-11.87 184.61-9.70L184.61-9.70Q184.61-7.01 182.78-4.61L182.78-4.61Q180.64-2.40 180.10-1.73L180.10-1.73L181.76-1.73Q183.55-1.95 185.47-3.78L185.47-3.78Q186.75-5.02 188.06-6.27L188.06-6.27ZM197.02-16.64L197.02-15.39Q196.38-15.20 195.89-15.14Q195.39-15.07 194.98-15.07L194.98-15.07Q194.37-15.10 194.14-15.10L194.14-15.10Q193.82-15.10 193.70-15.07L193.70-15.07Q193.47-15.01 193.18-14.83Q192.90-14.66 192.10-10.88L192.10-10.88Q191.14-6.40 191.14-3.04L191.14-3.04Q191.14-2.50 191.38-2.14Q191.62-1.79 192.16-1.79L192.16-1.79Q192.64-1.79 193.50-2.59L193.50-2.59Q194.69-3.68 196.00-5.89L196.00-5.89L196.77-5.89L196.77-4.35Q195.58-2.34 194.06-1.17Q192.54 0 191.14 0L191.14 0Q189.92 0 188.99-0.86Q188.06-1.73 188.06-3.04L188.06-3.04L188.06-6.18Q188.06-7.33 188.83-10.91L188.83-10.91Q189.09-12.10 189.63-14.34L189.63-14.34Q189.63-14.62 189.22-14.91L189.22-14.91Q188.51-15.33 188.06-15.62L188.06-15.62Q188.13-15.94 188.13-16.06L188.13-16.06Q188.13-16.19 188.06-16.64L188.06-16.64Q190.46-16.64 191.17-19.84Q191.87-23.04 193.18-23.04L193.18-23.04Q193.76-23.04 194.11-22.56Q194.46-22.08 194.46-21.25L194.46-21.25Q194.46-20.61 194.26-19.86Q194.05-19.10 193.70-18.18L193.70-18.18L193.70-16.64Q194.37-16.64 195.01-16.62Q195.65-16.61 196.26-16.61L196.26-16.61Q196.83-16.61 197.02-16.64L197.02-16.64Z"/></svg>