<svg id="mainsvg" xmlns="http://www.w3.org/2000/svg" xmlns:xlink="http://www.w3.org/1999/xlink" version="1.1" x="0px" y="0px" enable-background="new 0 0 200 162.5" xml:space="preserve" viewBox="0 0 380 30"><path fill="#000" transform="translate(-1.504, 22.72)" d="M20-8.45C19.20-5.15 16.51-3.23 13.15-3.23C8.90-3.23 5.54-6.37 5.54-10.88C5.54-15.39 8.86-18.53 13.12-18.53C16.51-18.53 19.39-16.61 20.22-13.31L23.81-13.31L23.81-21.76L20.22-21.76L20.22-19.52C18.46-21.28 15.90-22.21 12.90-22.21C6.78-22.21 1.50-17.44 1.50-10.88C1.50-4.32 6.88 0.45 13.15 0.45C18.56 0.45 22.98-3.07 23.97-8.45ZM46.75-3.39L44.32-3.39L44.32-8.35C44.32-12.74 41.66-15.62 37.66-15.62C35.84-15.62 34.27-14.98 32.99-13.89L32.99-22.72L26.91-22.72L26.91-19.33L29.31-19.33L29.31-3.39L26.91-3.39L26.91 0L35.46 0L35.46-3.39L32.99-3.39L32.99-10.05C34.14-11.49 35.58-12.26 36.90-12.26C39.23-12.26 40.61-10.78 40.61-8.13L40.61-3.39L38.21-3.39L38.21 0L46.75 0ZM56.80-15.49C52.19-15.49 48.61-12.13 48.61-7.55C48.61-2.94 52.19 0.48 56.80 0.48C61.38 0.48 64.99-2.94 64.99-7.55C64.99-12.13 61.38-15.49 56.80-15.49ZM56.83-2.88C54.21-2.88 52.32-4.96 52.32-7.55C52.32-10.11 54.21-12.13 56.83-12.13C59.39-12.13 61.31-10.11 61.31-7.55C61.31-4.96 59.39-2.88 56.83-2.88ZM78.08-15.49C76.22-15.49 74.66-14.94 73.41-14.05L73.41-15.14L67.33-15.14L67.33-11.74L69.73-11.74L69.73 3.23L67.33 3.23L67.33 6.62L76.93 6.62L76.93 3.23L73.41 3.23L73.41-1.09C74.66-0.19 76.22 0.35 78.08 0.35C82.30 0.35 85.70-3.17 85.70-7.55C85.70-11.97 82.30-15.49 78.08-15.49ZM77.50-2.85C76.10-2.85 74.72-3.33 73.41-4.64L73.41-10.50C74.72-11.81 76.10-12.29 77.50-12.29C80.13-12.29 81.98-10.08 81.98-7.55C81.98-5.06 80.13-2.85 77.50-2.85ZM96.58-3.39L94.11-3.39L94.11-22.72L88.03-22.72L88.03-19.33L90.43-19.33L90.43-3.39L88.03-3.39L88.03 0L96.58 0ZM103.23-17.70C104.61-17.70 105.73-18.75 105.73-20.13C105.73-21.54 104.61-22.59 103.23-22.59C101.82-22.59 100.70-21.54 100.70-20.13C100.70-18.75 101.82-17.70 103.23-17.70ZM107.52-3.39L105.06-3.39L105.06-15.14L98.98-15.14L98.98-11.74L101.38-11.74L101.38-3.39L98.98-3.39L98.98 0L107.52 0ZM129.76-3.39L127.33-3.39L127.33-8.35C127.33-12.74 124.67-15.62 120.67-15.62C118.85-15.62 117.28-14.98 116-13.89L116-15.14L109.92-15.14L109.92-11.74L112.32-11.74L112.32-3.39L109.92-3.39L109.92 0L118.46 0L118.46-3.39L116-3.39L116-10.05C117.15-11.49 118.59-12.26 119.90-12.26C122.24-12.26 123.62-10.78 123.62-8.13L123.62-3.39L121.22-3.39L121.22 0L129.76 0ZM157.12-18.37L159.87-18.37L159.87-21.76L154.66-21.76L145.95-8.29L137.25-21.76L132.10-21.76L132.10-18.37L134.78-18.37L134.78-3.39L132.03-3.39L132.03 0L141.38 0L141.38-3.39L138.62-3.39L138.59-13.38L144.80-3.49L147.14-3.49L153.25-13.25L153.25-3.39L150.53-3.39L150.53 0L159.87 0L159.87-3.39L157.12-3.39ZM177.92-7.81C177.92-12.35 174.78-15.49 170.37-15.49C165.76-15.49 162.46-12.06 162.46-7.55C162.46-3.07 165.70 0.48 170.53 0.48C173.98 0.48 176.80-1.41 177.66-4.19L173.73-4.19C173.15-3.26 172.10-2.78 170.66-2.78C168.06-2.78 166.66-4.22 166.18-6.11L177.79-6.11L177.82-6.11C177.92-6.69 177.92-7.26 177.92-7.81ZM170.46-12.58C172.74-12.58 174.08-11.07 174.40-9.02L166.18-9.02C166.66-10.98 168.10-12.58 170.46-12.58ZM198.46-3.39L196.03-3.39L196.03-22.72L189.92-22.72L189.92-19.33L192.35-19.33L192.35-14.08C191.10-14.98 189.54-15.49 187.71-15.49C183.49-15.49 180.10-11.97 180.10-7.58C180.10-3.17 183.49 0.35 187.71 0.35C189.54 0.35 191.10-0.16 192.35-1.09L192.35 0L198.46 0ZM188.26-2.85C185.66-2.85 183.78-5.06 183.78-7.58C183.78-10.08 185.66-12.29 188.26-12.29C189.70-12.29 191.04-11.81 192.35-10.40L192.35-4.61C191.04-3.33 189.70-2.85 188.26-2.85ZM205.15-17.70C206.53-17.70 207.65-18.75 207.65-20.13C207.65-21.54 206.53-22.59 205.15-22.59C203.74-22.59 202.62-21.54 202.62-20.13C202.62-18.75 203.74-17.70 205.15-17.70ZM209.44-3.39L206.98-3.39L206.98-15.14L200.90-15.14L200.90-11.74L203.30-11.74L203.30-3.39L200.90-3.39L200.90 0L209.44 0ZM231.01-3.39L228.54-3.39L228.54-15.14L222.46-15.14L222.46-11.74L224.86-11.74L224.86-5.09C223.71-3.65 222.27-2.88 220.96-2.88C218.66-2.88 217.25-4.38 217.25-7.01L217.25-15.14L211.14-15.14L211.14-11.74L213.57-11.74L213.57-6.78C213.57-2.40 216.22 0.48 220.19 0.48C222.02 0.48 223.55-0.16 224.86-1.25L224.86 0L231.01 0ZM262.98-3.39L260.51-3.39L260.51-8.35C260.51-12.74 257.63-15.62 253.95-15.62C251.46-15.62 249.86-14.85 248.26-13.31C247.07-14.78 245.31-15.62 243.30-15.62C241.38-15.62 240.26-15.04 239.23-14.05L239.23-15.14L233.15-15.14L233.15-11.74L235.55-11.74L235.55-3.39L233.15-3.39L233.15 0L241.70 0L241.70-3.39L239.23-3.39L239.23-10.21C240.26-11.65 241.44-12.26 242.53-12.26C244.86-12.26 246.18-10.78 246.18-8.13L246.18-3.39L243.78-3.39L243.78 0L252.32 0L252.32-3.39L249.89-3.39L249.89-8.35C249.89-8.99 249.82-9.60 249.70-10.18C250.75-11.71 252.03-12.26 253.18-12.26C255.49-12.26 256.83-10.78 256.83-8.13L256.83-3.39L254.43-3.39L254.43 0L262.98 0ZM277.09-6.56L266.08-6.56L266.08-10.24L277.09-10.24ZM280.93-21.76L280.93-18.37L283.68-18.37L283.68-3.39L280.93-3.39L280.93 0L291.84 0C298.50 0 303.42-4.67 303.42-10.98C303.42-17.18 298.50-21.76 291.84-21.76ZM287.52-3.55L287.52-18.21L291.84-18.21C296.16-18.21 299.52-15.07 299.52-10.98C299.52-6.78 296.16-3.55 291.84-3.55ZM324.96-21.76L306.43-21.76L306.43-18.37L309.18-18.37L309.18-3.39L306.43-3.39L306.43 0L324.96 0L324.96-7.30L321.50-7.30L321.50-3.55L313.02-3.55L313.02-8.96L320.35-8.96L320.35-12.51L313.02-12.51L313.02-18.21L321.50-18.21L321.50-14.46L324.96-14.46ZM352.96-18.37L355.71-18.37L355.71-21.76L350.50-21.76L341.79-8.29L333.09-21.76L327.94-21.76L327.94-18.37L330.62-18.37L330.62-3.39L327.87-3.39L327.87 0L337.22 0L337.22-3.39L334.46-3.39L334.43-13.38L340.64-3.49L342.98-3.49L349.09-13.25L349.09-3.39L346.37-3.39L346.37 0L355.71 0L355.71-3.39L352.96-3.39ZM370.05-22.21C363.78-22.21 358.72-17.15 358.72-10.88C358.72-4.61 363.78 0.45 370.05 0.45C376.32 0.45 381.38-4.61 381.38-10.88C381.38-17.15 376.32-22.21 370.05-22.21ZM370.08-3.14C365.82-3.14 362.62-6.62 362.62-10.88C362.62-15.14 365.82-18.62 370.08-18.62C374.30-18.62 377.50-15.14 377.50-10.88C377.50-6.62 374.30-3.14 370.08-3.14Z"/></svg>