<svg id="mainsvg" xmlns="http://www.w3.org/2000/svg" xmlns:xlink="http://www.w3.org/1999/xlink" version="1.1" x="0px" y="0px" enable-background="new 0 0 200 162.5" xml:space="preserve" viewBox="0 0 168 32"><path fill="#000" transform="translate(-2.24, 23.04)" d="M6.11 2.78Q4.83 2.78 3.89 2.45Q2.94 2.11 2.24 1.18L2.24 1.18Q2.40-0.22 3.50-4.03Q4.61-7.84 5.90-11.84Q7.20-15.84 7.71-17.18L7.71-17.18Q8.10-18.21 8.78-19.25Q9.47-20.29 10.43-20.29L10.43-20.29Q10.98-20.29 11.65-19.84L11.65-19.84Q9.73-15.46 7.79-9.38Q5.86-3.30 4.83 1.41L4.83 1.41Q5.38 1.60 6.43 1.60L6.43 1.60Q9.73 1.60 12.66-0.94Q15.58-3.49 17.34-7.25Q19.10-11.01 19.10-14.40L19.10-14.40Q19.10-18.11 17.25-19.92Q15.39-21.73 12.29-21.73L12.29-21.73Q10.21-21.73 8.54-20.98Q6.88-20.22 5.94-18.91Q4.99-17.60 4.99-15.97L4.99-15.97Q4.99-15.10 5.28-14.43L5.28-14.43Q3.97-14.43 3.34-14.99Q2.72-15.55 2.72-16.48L2.72-16.48Q2.72-17.98 4.16-19.52Q5.60-21.06 8.05-22.05Q10.50-23.04 13.34-23.04L13.34-23.04Q17.76-23.04 19.86-20.58Q21.95-18.11 21.95-14.08L21.95-14.08Q21.95-9.63 19.65-5.74Q17.34-1.86 13.66 0.46Q9.98 2.78 6.11 2.78L6.11 2.78ZM23.78 1.50Q22.66 1.50 21.90 0.77Q21.15 0.03 21.15-1.31L21.15-1.31Q21.15-3.17 22.51-5.47Q23.87-7.78 25.98-9.38Q28.10-10.98 30.21-10.98L30.21-10.98Q31.62-10.98 32.56-10.26Q33.50-9.54 33.50-8.42L33.50-8.42Q33.50-6.94 31.68-6.88L31.68-6.88Q32.83-6.53 32.83-5.92L32.83-5.92Q32.83-5.70 32.61-5.25Q32.38-4.80 32.10-4.32L32.10-4.32Q31.58-3.49 31.30-2.86Q31.01-2.24 31.01-1.70L31.01-1.70Q31.01-1.22 31.25-0.88Q31.49-0.54 31.97-0.54L31.97-0.54Q32.86-0.54 34.26-1.79Q35.65-3.04 36.96-5.54L36.96-5.54L37.57-4.93Q36.38-2.27 34.62-0.66Q32.86 0.96 31.07 0.96L31.07 0.96Q29.79 0.96 29.10 0.11Q28.42-0.74 28.42-1.82L28.42-1.82Q26.98-0.10 25.95 0.70Q24.93 1.50 23.78 1.50L23.78 1.50ZM24.45-0.13Q25.57-0.13 27.06-1.74Q28.54-3.36 30.43-5.95L30.43-5.95L31.07-6.82Q31.17-6.98 31.33-6.98L31.33-6.98L31.46-6.94Q31.62-7.46 31.62-8.13L31.62-8.13Q31.62-9.79 30.27-9.79L30.27-9.79Q28.86-9.79 27.33-8.29Q25.79-6.78 24.75-4.70Q23.71-2.62 23.71-1.15L23.71-1.15Q23.71-0.61 23.89-0.37Q24.06-0.13 24.45-0.13L24.45-0.13ZM46.98 0.64Q45.76 0.64 45.09 0.03Q44.42-0.58 44.42-1.57L44.42-1.57Q44.42-1.98 44.56-2.53Q44.70-3.07 44.86-3.62L44.86-3.62Q45.31-5.09 45.31-5.79L45.31-5.79Q45.31-6.43 44.99-6.74Q44.67-7.04 44.19-7.04L44.19-7.04Q42.50-7.04 40.77-4.91Q39.04-2.78 37.06 0.48L37.06 0.48Q35.68 0.48 34.98-0.45L34.98-0.45L35.26-1.25Q37.15-5.82 37.15-8.03L37.15-8.03Q37.41-8.32 37.89-8.56Q38.37-8.80 38.82-8.80L38.82-8.80Q39.36-8.80 39.65-8.54Q39.94-8.29 39.94-7.84L39.94-7.84Q39.94-6.98 39.39-4.99L39.39-4.99Q40.83-6.91 42.38-8.13Q43.94-9.34 45.44-9.34L45.44-9.34Q46.72-9.34 47.42-8.46Q48.13-7.58 48.13-6.37L48.13-6.37Q48.13-5.66 47.95-5.02Q47.78-4.38 47.42-3.58L47.42-3.58Q46.88-2.24 46.88-1.57L46.88-1.57Q46.88-1.09 47.10-0.86Q47.33-0.64 47.65-0.64L47.65-0.64Q48.70-0.64 49.94-2.10Q51.17-3.55 52.16-5.54L52.16-5.54L52.70-5.09Q51.55-2.43 50.16-0.90Q48.77 0.64 46.98 0.64L46.98 0.64ZM54.94 1.79Q53.22 1.79 52.18 0.72Q51.14-0.35 51.14-2.43L51.14-2.43Q51.14-4.48 52.18-6.43Q53.22-8.38 54.88-9.60Q56.54-10.82 58.24-10.82L58.24-10.82Q59.52-10.82 60.14-10.18Q60.77-9.54 60.77-8.58L60.77-8.58Q60.77-7.62 60.30-6.80Q59.84-5.98 59.17-5.98L59.17-5.98Q58.56-5.98 58.18-6.59L58.18-6.59Q58.56-6.85 58.88-7.49Q59.20-8.13 59.20-8.99L59.20-8.99Q59.20-9.54 58.59-9.54L58.59-9.54Q57.57-9.54 56.38-8.32Q55.20-7.10 54.40-5.38Q53.60-3.65 53.60-2.24L53.60-2.24Q53.60-1.22 54.11-0.53Q54.62 0.16 55.87 0.16L55.87 0.16Q57.09 0.16 58.42-0.54Q59.74-1.25 60.90-2.54Q62.05-3.84 62.72-5.54L62.72-5.54L63.36-4.96Q62.59-3.04 61.23-1.50Q59.87 0.03 58.21 0.91Q56.54 1.79 54.94 1.79L54.94 1.79ZM68.32-13.47Q67.65-13.47 67.18-13.79Q66.72-14.11 66.72-14.72L66.72-14.72Q66.72-15.46 67.54-16.02Q68.35-16.58 69.28-16.58L69.28-16.58Q70.66-16.58 70.66-15.39L70.66-15.39Q70.66-14.72 69.92-14.10Q69.18-13.47 68.32-13.47L68.32-13.47ZM64.54 0.96Q63.20 0.96 62.46 0.16Q61.73-0.64 61.73-1.89L61.73-1.89Q61.73-3.17 62.45-5.36Q63.17-7.55 64.27-9.22Q65.38-10.88 66.50-10.88L66.50-10.88Q66.91-10.88 67.18-10.64Q67.46-10.40 67.46-9.95L67.46-9.95Q67.46-9.66 67.20-9.17Q66.94-8.67 66.37-7.74L66.37-7.74Q65.34-6.05 64.75-4.75Q64.16-3.46 64.16-2.30L64.16-2.30Q64.16-1.31 64.51-0.96Q64.86-0.61 65.60-0.61L65.60-0.61Q68.13-0.61 70.62-5.50L70.62-5.50L71.10-4.99Q69.98-2.18 68.26-0.61Q66.53 0.96 64.54 0.96L64.54 0.96ZM80.58 0.64Q79.36 0.64 78.69 0.03Q78.02-0.58 78.02-1.57L78.02-1.57Q78.02-1.98 78.16-2.53Q78.30-3.07 78.46-3.62L78.46-3.62Q78.91-5.09 78.91-5.79L78.91-5.79Q78.91-6.43 78.59-6.74Q78.27-7.04 77.79-7.04L77.79-7.04Q76.10-7.04 74.37-4.91Q72.64-2.78 70.66 0.48L70.66 0.48Q69.28 0.48 68.58-0.45L68.58-0.45L68.86-1.25Q70.75-5.82 70.75-8.03L70.75-8.03Q71.01-8.32 71.49-8.56Q71.97-8.80 72.42-8.80L72.42-8.80Q72.96-8.80 73.25-8.54Q73.54-8.29 73.54-7.84L73.54-7.84Q73.54-6.98 72.99-4.99L72.99-4.99Q74.43-6.91 75.98-8.13Q77.54-9.34 79.04-9.34L79.04-9.34Q80.32-9.34 81.02-8.46Q81.73-7.58 81.73-6.37L81.73-6.37Q81.73-5.66 81.55-5.02Q81.38-4.38 81.02-3.58L81.02-3.58Q80.48-2.24 80.48-1.57L80.48-1.57Q80.48-1.09 80.70-0.86Q80.93-0.64 81.25-0.64L81.25-0.64Q82.30-0.64 83.54-2.10Q84.77-3.55 85.76-5.54L85.76-5.54L86.30-5.09Q85.15-2.43 83.76-0.90Q82.37 0.64 80.58 0.64L80.58 0.64ZM86.53 8.96Q85.63 8.96 84.99 8.43Q84.35 7.90 84.35 6.91L84.35 6.91Q84.35 5.66 85.30 4.64Q86.24 3.62 87.49 2.90Q88.74 2.18 90.78 1.22L90.78 1.22Q91.58-0.80 92.06-2.78L92.06-2.78Q89.47 0.48 87.20 0.48L87.20 0.48Q85.92 0.48 85.17-0.42Q84.42-1.31 84.42-2.78L84.42-2.78Q84.42-4.93 85.82-6.85Q87.23-8.77 89.31-9.94Q91.39-11.10 93.28-11.10L93.28-11.10Q94.27-11.10 94.80-10.75Q95.33-10.40 95.33-9.89L95.33-9.89Q95.33-9.57 95.14-9.31Q94.94-9.06 94.82-9.02L94.82-9.02Q94.50-9.34 94.18-9.47Q93.86-9.60 93.38-9.60L93.38-9.60Q91.81-9.60 90.34-8.43Q88.86-7.26 87.95-5.62Q87.04-3.97 87.04-2.66L87.04-2.66Q87.04-2.02 87.31-1.68Q87.58-1.34 88.03-1.34L88.03-1.34Q88.90-1.34 90.16-2.46Q91.42-3.58 92.67-5.34L92.67-5.34Q93.02-7.14 93.50-7.92Q93.98-8.70 94.88-8.70L94.88-8.70Q95.30-8.70 95.81-8.58L95.81-8.58Q95.81-7.74 95.10-5.25Q94.40-2.75 93.41-0.06L93.41-0.06Q95.01-0.74 96.50-2.16Q97.98-3.58 98.62-5.44L98.62-5.44L99.20-4.86Q98.50-2.85 96.69-1.22Q94.88 0.42 92.99 1.28L92.99 1.28Q91.52 4.83 89.94 6.90Q88.35 8.96 86.53 8.96L86.53 8.96ZM86.40 7.49Q87.04 7.49 88.06 6.30Q89.09 5.12 90.18 2.72L90.18 2.72Q88.10 3.74 86.94 4.66Q85.79 5.57 85.79 6.59L85.79 6.59Q85.79 7.01 85.97 7.25Q86.14 7.49 86.40 7.49L86.40 7.49ZM105.28 2.78Q103.33 2.78 101.66 2.13Q100 1.47 98.98 0.14Q97.95-1.18 97.95-3.07L97.95-3.07Q97.95-5.44 99.42-6.48Q100.90-7.52 102.88-7.52L102.88-7.52Q101.86-6.46 101.33-5.31Q100.80-4.16 100.80-3.07L100.80-3.07Q100.80-1.34 102.13-0.13Q103.46 1.09 105.82 1.09L105.82 1.09Q107.33 1.09 108.69 0.59Q110.05 0.10 110.90-0.90Q111.74-1.89 111.74-3.23L111.74-3.23Q111.74-4.42 111.07-5.34Q110.40-6.27 109.42-6.94Q108.45-7.62 106.78-8.51L106.78-8.51Q105.02-9.47 103.94-10.21Q102.85-10.94 102.11-12.02Q101.38-13.09 101.38-14.50L101.38-14.50Q101.38-16.32 102.56-18.34Q103.74-20.35 105.89-21.70Q108.03-23.04 110.69-23.04L110.69-23.04Q114.69-23.04 114.69-19.68L114.69-19.68Q114.69-18.05 113.90-16.05Q113.12-14.05 112.13-12.51L112.13-12.51Q110.72-12.80 110.72-14.14L110.72-14.14Q110.72-14.75 110.96-15.54Q111.20-16.32 111.65-17.41L111.65-17.41Q112.10-18.62 112.32-19.33Q112.54-20.03 112.54-20.61L112.54-20.61Q112.54-21.22 112.18-21.52Q111.81-21.82 110.85-21.82L110.85-21.82Q108.93-21.82 107.33-20.74Q105.73-19.65 104.78-18.10Q103.84-16.54 103.84-15.23L103.84-15.23Q103.84-14.27 104.42-13.50Q104.99-12.74 105.87-12.18Q106.75-11.62 108.26-10.82L108.26-10.82Q110.14-9.79 111.28-9.02Q112.42-8.26 113.23-7.04Q114.05-5.82 114.05-4.13L114.05-4.13Q114.05-2.02 112.78-0.45Q111.52 1.12 109.49 1.95Q107.46 2.78 105.28 2.78L105.28 2.78ZM119.58 1.79Q117.86 1.79 116.82 0.72Q115.78-0.35 115.78-2.43L115.78-2.43Q115.78-4.48 116.82-6.43Q117.86-8.38 119.52-9.60Q121.18-10.82 122.88-10.82L122.88-10.82Q124.16-10.82 124.78-10.18Q125.41-9.54 125.41-8.58L125.41-8.58Q125.41-7.62 124.94-6.80Q124.48-5.98 123.81-5.98L123.81-5.98Q123.20-5.98 122.82-6.59L122.82-6.59Q123.20-6.85 123.52-7.49Q123.84-8.13 123.84-8.99L123.84-8.99Q123.84-9.54 123.23-9.54L123.23-9.54Q122.21-9.54 121.02-8.32Q119.84-7.10 119.04-5.38Q118.24-3.65 118.24-2.24L118.24-2.24Q118.24-1.22 118.75-0.53Q119.26 0.16 120.51 0.16L120.51 0.16Q121.73 0.16 123.06-0.54Q124.38-1.25 125.54-2.54Q126.69-3.84 127.36-5.54L127.36-5.54L128-4.96Q127.23-3.04 125.87-1.50Q124.51 0.03 122.85 0.91Q121.18 1.79 119.58 1.79L119.58 1.79ZM132.54 0.83Q131.36 0.83 130.62 0.21Q129.89-0.42 129.89-1.47L129.89-1.47Q129.89-2.08 130.13-2.80Q130.37-3.52 130.85-4.54L130.85-4.54Q131.26-5.44 131.49-6.06Q131.71-6.69 131.71-7.17L131.71-7.17Q131.71-8.38 130.11-9.22L130.11-9.22Q129.47-7.62 128.62-5.98Q127.78-4.35 127.10-3.23L127.10-3.23L126.62-4.16Q128.10-6.78 129.22-9.95L129.22-9.95Q128.90-10.27 128.90-10.82L128.90-10.82Q128.90-11.65 129.41-12.38Q129.92-13.12 130.40-13.12L130.40-13.12Q130.72-13.12 130.93-12.74Q131.14-12.35 131.14-12.10L131.14-12.10Q131.14-11.97 130.99-11.54Q130.85-11.10 130.78-10.91L130.78-10.91Q130.82-10.69 131.04-10.48Q131.26-10.27 131.87-9.89L131.87-9.89Q132.99-9.15 133.62-8.46Q134.24-7.78 134.24-6.62L134.24-6.62Q134.24-5.92 134-5.22Q133.76-4.51 133.28-3.52L133.28-3.52Q132.58-2.11 132.58-1.50L132.58-1.50Q132.58-0.77 133.38-0.77L133.38-0.77Q134.34-0.77 135.47-1.54Q136.61-2.30 137.55-3.41Q138.50-4.51 138.94-5.47L138.94-5.47L139.71-4.90Q139.07-3.46 137.92-2.14Q136.77-0.83 135.34 0Q133.92 0.83 132.54 0.83L132.54 0.83ZM144.58-13.47Q143.90-13.47 143.44-13.79Q142.98-14.11 142.98-14.72L142.98-14.72Q142.98-15.46 143.79-16.02Q144.61-16.58 145.54-16.58L145.54-16.58Q146.91-16.58 146.91-15.39L146.91-15.39Q146.91-14.72 146.18-14.10Q145.44-13.47 144.58-13.47L144.58-13.47ZM140.80 0.96Q139.46 0.96 138.72 0.16Q137.98-0.64 137.98-1.89L137.98-1.89Q137.98-3.17 138.70-5.36Q139.42-7.55 140.53-9.22Q141.63-10.88 142.75-10.88L142.75-10.88Q143.17-10.88 143.44-10.64Q143.71-10.40 143.71-9.95L143.71-9.95Q143.71-9.66 143.46-9.17Q143.20-8.67 142.62-7.74L142.62-7.74Q141.60-6.05 141.01-4.75Q140.42-3.46 140.42-2.30L140.42-2.30Q140.42-1.31 140.77-0.96Q141.12-0.61 141.86-0.61L141.86-0.61Q144.38-0.61 146.88-5.50L146.88-5.50L147.36-4.99Q146.24-2.18 144.51-0.61Q142.78 0.96 140.80 0.96L140.80 0.96ZM144.26 8.96Q143.87 8.96 143.44 8.67Q143.01 8.38 142.98 8.16L142.98 8.16Q144.38 4.06 145.04 1.74Q145.70-0.58 146.13-3.18Q146.56-5.79 147.26-11.20L147.26-11.20Q147.33-11.65 147.44-11.79Q147.55-11.94 148.03-11.94L148.03-11.94Q148.96-11.94 149.44-11.44Q149.92-10.94 149.92-10.24L149.92-10.24Q149.92-9.47 149.47-7.23L149.47-7.23Q150.50-8.80 151.82-9.84Q153.15-10.88 154.69-10.88L154.69-10.88Q156.26-10.88 157.28-9.81Q158.30-8.74 158.30-7.04L158.30-7.04Q158.30-5.34 157.30-3.44Q156.29-1.54 154.50-0.26Q152.70 1.02 150.53 1.02L150.53 1.02Q149.54 1.02 148.91 0.77Q148.29 0.51 148.29 0.19L148.29 0.19Q148.29-0.13 149.06-0.13L149.06-0.13Q150.98-0.16 152.51-1.17Q154.05-2.18 154.91-3.68Q155.78-5.18 155.78-6.66L155.78-6.66Q155.78-7.68 155.33-8.35Q154.88-9.02 153.98-9.02L153.98-9.02Q152.99-9.02 151.94-8.21Q150.88-7.39 150.05-6.24Q149.22-5.09 148.77-4.10L148.77-4.10Q148.22-2.21 147.36 1.34L147.36 1.34Q146.43 5.28 145.78 7.12Q145.12 8.96 144.26 8.96L144.26 8.96ZM162.18 1.47Q160.70 1.47 159.87 0.62Q159.04-0.22 159.04-1.89L159.04-1.89Q159.04-3.14 159.52-5.07Q160-7.01 160.80-9.18L160.80-9.18Q159.97-9.34 159.68-9.47L159.68-9.47L159.68-10.46Q160.45-10.37 161.22-10.30L161.22-10.30Q162.66-13.92 164.30-16.51Q165.95-19.10 166.98-19.10L166.98-19.10Q167.33-19.10 167.60-18.85Q167.87-18.59 167.87-18.18L167.87-18.18Q167.87-17.66 167.42-16.80Q166.98-15.94 165.95-14.18L165.95-14.18Q164.54-11.81 163.74-10.21L163.74-10.21Q167.42-10.21 169.60-10.43L169.60-10.43L169.60-9.38Q165.82-8.99 163.17-8.99L163.17-8.99Q161.50-5.06 161.50-2.56L161.50-2.56Q161.50-1.25 161.92-0.70Q162.34-0.16 163.23-0.16L163.23-0.16Q164.83-0.16 166.51-1.62Q168.19-3.07 169.44-5.57L169.44-5.57L169.89-5.25Q168.58-2.27 166.50-0.40Q164.42 1.47 162.18 1.47L162.18 1.47Z"/></svg>