<svg id="mainsvg" xmlns="http://www.w3.org/2000/svg" xmlns:xlink="http://www.w3.org/1999/xlink" version="1.1" x="0px" y="0px" enable-background="new 0 0 200 162.5" xml:space="preserve" viewBox="0 0 105 23"><path fill="#000" transform="translate(0, 22.578125)" d="M0 0L0-22.58L1.39-22.58Q2.17-22.58 2.64-21.83L2.64-21.83Q2.80-21.53 2.80-21.08L2.80-21.08L2.80-16.61L7.09-21.28Q7.98-22.27 8.05-22.31L8.05-22.31Q8.42-22.58 8.80-22.58L8.80-22.58L12.23-22.58L5.59-15.50L5.48-15.38L5.48-15.38Q8.36-15.38 10.45-13.38L10.45-13.38Q10.98-12.83 11.23-12.48L11.23-12.48Q11.77-11.72 12.05-11.03L12.05-11.03Q12.56-9.72 12.56-8.52L12.56-8.52L12.56 0L11.11 0Q10.53 0 10.06-0.53L10.06-0.53Q9.77-0.89 9.77-1.50L9.77-1.50L9.77-8.42Q9.77-9.64 9.02-10.77L9.02-10.77Q8.41-11.61 7.63-12.03L7.63-12.03Q6.64-12.56 5.64-12.56L5.64-12.56L2.80-12.56L2.80-1.50Q2.80-0.44 1.81-0.05L1.81-0.05Q1.58 0 1.45 0L1.45 0L0 0ZM24.42-20.94L24.42-20.94L24.64-20.94Q26.78-20.94 28.91-19.98L28.91-19.98Q29.69-19.63 30.55-19.05L30.55-19.05Q31.08-18.67 31.70-18.11L31.70-18.11Q32.33-17.48 32.44-17.33L32.44-17.33Q32.92-16.78 33.27-16.25L33.27-16.25Q33.67-15.61 33.98-14.97L33.98-14.97Q34.28-14.36 34.55-13.50L34.55-13.50Q35-12.02 35-10.58L35-10.58L35-10.36Q35-8.22 34.05-6.09L34.05-6.09Q33.69-5.31 33.11-4.45L33.11-4.45Q32.73-3.92 32.17-3.30L32.17-3.30Q31.55-2.67 31.39-2.56L31.39-2.56Q30.83-2.08 30.30-1.72L30.30-1.72Q29.42-1.16 28.48-0.77L28.48-0.77Q26.55 0 24.64 0L24.64 0L24.42 0Q22.28 0 20.16-0.95L20.16-0.95Q19.38-1.31 18.52-1.89L18.52-1.89Q17.98-2.27 17.36-2.83L17.36-2.83Q16.73-3.45 16.63-3.61L16.63-3.61Q16.14-4.17 15.78-4.70L15.78-4.70Q15.22-5.58 14.83-6.52L14.83-6.52Q14.06-8.45 14.06-10.36L14.06-10.36L14.06-10.58Q14.06-12.72 15.02-14.84L15.02-14.84Q15.38-15.63 15.95-16.48L15.95-16.48Q16.33-17.02 16.89-17.64L16.89-17.64Q17.52-18.27 17.67-18.38L17.67-18.38Q18.23-18.86 18.77-19.22L18.77-19.22Q19.64-19.78 20.58-20.17L20.58-20.17Q22.52-20.94 24.42-20.94ZM16.86-10.50L16.86-10.50L16.86-10.44Q16.86-8.06 18.27-6.03L18.27-6.03Q18.52-5.69 18.98-5.16L18.98-5.16Q19.55-4.59 19.91-4.34L19.91-4.34Q20.63-3.81 21.09-3.61L21.09-3.61Q22.72-2.80 24.50-2.80L24.50-2.80L24.56-2.80Q26.94-2.80 28.97-4.20L28.97-4.20Q29.31-4.44 29.91-4.98L29.91-4.98Q30.53-5.64 30.80-6.03L30.80-6.03Q31.13-6.50 31.31-6.88L31.31-6.88Q32.20-8.59 32.20-10.44L32.20-10.44L32.20-10.50Q32.20-12.88 30.80-14.91L30.80-14.91Q30.56-15.25 30.02-15.84L30.02-15.84Q29.42-16.42 29.13-16.61L29.13-16.61Q28.44-17.11 27.98-17.31L27.98-17.31Q26.36-18.14 24.56-18.14L24.56-18.14L24.50-18.14Q22.13-18.14 20.09-16.73L20.09-16.73Q19.75-16.50 19.16-15.95L19.16-15.95Q18.58-15.36 18.39-15.06L18.39-15.06Q17.89-14.38 17.69-13.92L17.69-13.92Q16.86-12.30 16.86-10.50ZM41.25-20.94L41.25-20.94L47.61-20.94L47.63-19.53Q47.63-18.84 47-18.38L47-18.38Q46.64-18.14 46.16-18.14L46.16-18.14L41.31-18.14Q40.45-18.14 39.80-17.45L39.80-17.45Q39.25-16.83 39.25-16.08L39.25-16.08L39.25-16.03Q39.25-15.19 39.92-14.52L39.92-14.52Q40.36-14.14 40.78-14.05L40.78-14.05Q41.05-13.97 41.33-13.97L41.33-13.97L43.33-13.97Q46.41-13.97 48.53-11.75L48.53-11.75Q48.94-11.30 49.17-10.97L49.17-10.97Q49.66-10.23 49.86-9.72L49.86-9.72Q50.41-8.39 50.41-7.06L50.41-7.06L50.41-6.91Q50.41-5.16 49.50-3.52L49.50-3.52Q49.22-3.02 48.73-2.44L48.73-2.44Q48.25-1.89 47.91-1.63L47.91-1.63Q47.47-1.27 47.16-1.06L47.16-1.06Q46.55-0.69 45.77-0.39L45.77-0.39Q44.61 0 43.52 0L43.52 0L36.45 0L36.45-1.44Q36.45-1.97 36.91-2.44L36.91-2.44Q37.23-2.70 37.58-2.77L37.58-2.77Q37.72-2.80 37.92-2.80L37.92-2.80L43.42-2.80Q45.02-2.80 46.25-3.89L46.25-3.89Q46.67-4.30 46.81-4.50L46.81-4.50Q47.61-5.63 47.61-6.95L47.61-6.95L47.61-7Q47.61-8.36 46.77-9.52L46.77-9.52Q46.64-9.69 46.25-10.08L46.25-10.08Q45.55-10.69 44.77-10.95L44.77-10.95Q44.13-11.14 43.80-11.14L43.80-11.14Q43.70-11.17 43.14-11.17L43.14-11.17L41.27-11.17Q39.94-11.17 38.69-11.94L38.69-11.94Q38.41-12.13 38.02-12.47L38.02-12.47Q37.58-12.89 37.42-13.14L37.42-13.14Q37.08-13.59 36.88-14.06L36.88-14.06Q36.45-15.05 36.45-15.95L36.45-15.95L36.45-16.14Q36.45-17.09 36.91-18.09L36.91-18.09Q37.06-18.44 37.33-18.84L37.33-18.84Q37.52-19.13 37.98-19.61L37.98-19.61L38.19-19.78Q39.19-20.61 40.36-20.84L40.36-20.84Q40.86-20.94 41.25-20.94ZM62.38-20.94L62.38-20.94L62.59-20.94Q64.73-20.94 66.86-19.98L66.86-19.98Q67.64-19.63 68.50-19.05L68.50-19.05Q69.03-18.67 69.66-18.11L69.66-18.11Q70.28-17.48 70.39-17.33L70.39-17.33Q70.88-16.78 71.22-16.25L71.22-16.25Q71.63-15.61 71.94-14.97L71.94-14.97Q72.23-14.36 72.50-13.50L72.50-13.50Q72.95-12.02 72.95-10.58L72.95-10.58L72.95-10.36Q72.95-8.22 72-6.09L72-6.09Q71.64-5.31 71.06-4.45L71.06-4.45Q70.69-3.92 70.13-3.30L70.13-3.30Q69.50-2.67 69.34-2.56L69.34-2.56Q68.78-2.08 68.25-1.72L68.25-1.72Q67.38-1.16 66.44-0.77L66.44-0.77Q64.50 0 62.59 0L62.59 0L62.38 0Q60.23 0 58.11-0.95L58.11-0.95Q57.33-1.31 56.47-1.89L56.47-1.89Q55.94-2.27 55.31-2.83L55.31-2.83Q54.69-3.45 54.58-3.61L54.58-3.61Q54.09-4.17 53.73-4.70L53.73-4.70Q53.17-5.58 52.78-6.52L52.78-6.52Q52.02-8.45 52.02-10.36L52.02-10.36L52.02-10.58Q52.02-12.72 52.97-14.84L52.97-14.84Q53.33-15.63 53.91-16.48L53.91-16.48Q54.28-17.02 54.84-17.64L54.84-17.64Q55.47-18.27 55.63-18.38L55.63-18.38Q56.19-18.86 56.72-19.22L56.72-19.22Q57.59-19.78 58.53-20.17L58.53-20.17Q60.47-20.94 62.38-20.94ZM54.81-10.50L54.81-10.50L54.81-10.44Q54.81-8.06 56.22-6.03L56.22-6.03Q56.47-5.69 56.94-5.16L56.94-5.16Q57.50-4.59 57.86-4.34L57.86-4.34Q58.58-3.81 59.05-3.61L59.05-3.61Q60.67-2.80 62.45-2.80L62.45-2.80L62.52-2.80Q64.89-2.80 66.92-4.20L66.92-4.20Q67.27-4.44 67.86-4.98L67.86-4.98Q68.48-5.64 68.75-6.03L68.75-6.03Q69.08-6.50 69.27-6.88L69.27-6.88Q70.16-8.59 70.16-10.44L70.16-10.44L70.16-10.50Q70.16-12.88 68.75-14.91L68.75-14.91Q68.52-15.25 67.97-15.84L67.97-15.84Q67.38-16.42 67.08-16.61L67.08-16.61Q66.39-17.11 65.94-17.31L65.94-17.31Q64.31-18.14 62.52-18.14L62.52-18.14L62.45-18.14Q60.08-18.14 58.05-16.73L58.05-16.73Q57.70-16.50 57.11-15.95L57.11-15.95Q56.53-15.36 56.34-15.06L56.34-15.06Q55.84-14.38 55.64-13.92L55.64-13.92Q54.81-12.30 54.81-10.50ZM74.41-20.94L76.28-20.94Q76.67-20.94 77.09-20.64L77.09-20.64Q77.45-20.34 77.58-19.89L77.58-19.89L81.38-5.61L81.39-5.61Q85.17-19.88 85.25-20.08L85.25-20.08Q85.36-20.33 85.59-20.56L85.59-20.56Q85.94-20.88 86.30-20.92L86.30-20.92Q86.39-20.94 86.48-20.94L86.48-20.94L88.36-20.94L88.36-20.92L82.78 0L79.98 0L74.41-20.94ZM93.20-19.53L93.20-20.94L97.47-20.94Q99.23-20.94 100.92-19.98L100.92-19.98Q101.39-19.70 101.92-19.27L101.92-19.27Q102.47-18.78 102.75-18.42L102.75-18.42Q103.13-17.95 103.34-17.59L103.34-17.59Q104.36-15.88 104.36-14.03L104.36-14.03L104.36-5.58L102.98-5.58Q102.25-5.58 101.80-6.20L101.80-6.20Q101.56-6.53 101.56-7.08L101.56-7.08L101.56-11.17L97.69-11.17Q96.81-11.17 96.42-11.05L96.42-11.05Q95.92-10.92 95.64-10.78L95.64-10.78Q95.27-10.63 94.88-10.33L94.88-10.33Q94.67-10.19 94.30-9.81L94.30-9.81Q93.92-9.38 93.78-9.09L93.78-9.09Q93.61-8.84 93.42-8.30L93.42-8.30Q93.20-7.67 93.20-7L93.20-7L93.20-6.95Q93.20-5.55 94.11-4.36L94.11-4.36Q94.55-3.86 94.83-3.67L94.83-3.67Q95.97-2.80 97.39-2.80L97.39-2.80L102.91-2.80Q103.80-2.80 104.22-2L104.22-2Q104.36-1.72 104.36-1.44L104.36-1.44L104.36 0L97.30 0Q95.53 0 93.84-0.95L93.84-0.95Q93.38-1.23 92.84-1.67L92.84-1.67Q92.30-2.16 92.02-2.52L92.02-2.52Q91.64-2.98 91.42-3.34L91.42-3.34Q90.41-5.06 90.41-6.91L90.41-6.91L90.41-7.06Q90.41-8.66 91.19-10.20L91.19-10.20Q91.44-10.67 91.83-11.20L91.83-11.20Q92.05-11.50 92.55-12.02L92.55-12.02Q94.61-13.97 97.48-13.97L97.48-13.97L101.56-13.97L101.56-13.98Q101.56-15.39 100.66-16.58L100.66-16.58Q100.30-17 99.94-17.27L99.94-17.27Q98.78-18.14 97.38-18.14L97.38-18.14L94.66-18.14Q93.78-18.14 93.36-18.88L93.36-18.88Q93.20-19.19 93.20-19.53L93.20-19.53Z"/></svg>