<svg xmlns="http://www.w3.org/2000/svg" data-name="Слой 1" viewBox="0 0 100 100" x="0px" y="0px"><title>mp-01-01-01-01-01-01-01-01</title><g><path d="M77.18387,30.24458c-0.14377,1.45146-.30063,2.90176-0.42632,4.35476-0.07336.84841-.10586,1.70076-0.14022,2.552-0.03025.75-.0249,1.50153-0.06239,2.251a3.66989,3.66989,0,0,1-.171.69751c-0.33778,1.31853-.63224,2.65014-1.02425,3.95234-0.49978,1.66027-1.07962,3.29639-1.6216,4.944-0.07494.22784-.11909,0.466-0.1971,0.69265a10.54425,10.54425,0,0,1-.70408,1.96685,13.248,13.248,0,0,0-.81116,2.25243c-0.5534,1.57517-1.08157,3.16009-1.67744,4.71909-0.4791,1.25344-1.0574,2.46863-1.5614,3.71307-0.20215.49913-.292,1.04356-0.49187,1.54391a10.25656,10.25656,0,0,1-.57931,1.02152,2.23009,2.23009,0,0,0-.18646.49053,13.55554,13.55554,0,0,1-1.69046,3.27608c-0.321.55121-.52367,1.17-0.81283,1.7415-0.37414.73956-.78535,1.46027-1.17263,2.1933-0.21689.41048-.41206,0.83241-0.6271,1.24392-0.25983.49719-.53638,0.98565-0.7952,1.48335q-1.44677,2.782-2.88424,5.56886c-0.36487.71071-.67267,1.45212-1.062,2.14851a13.5139,13.5139,0,0,1-1.20078,1.851,29.54216,29.54216,0,0,0-2.489,4.563q-0.92281,1.68939-1.86455,3.36836c-0.21766.38582-.46657,0.75507-0.71737,1.12082-0.37374.5451-.7654,0.53939-1.12124-0.018-0.69627-1.09072-1.396-2.17952-2.07132-3.28323a42.09857,42.09857,0,0,0-2.50612-4.10357c-1.3382-1.70845-2.17806-3.72429-3.52387-5.40094A19.99807,19.99807,0,0,1,40.718,77.30193a23.69059,23.69059,0,0,0-2.08068-3.40037,26.57635,26.57635,0,0,1-3.15313-5.61173c-0.46937-1.17232-1.04643-2.30211-1.589-3.44442-0.44526-.93746-0.88778-1.87753-1.37368-2.79407-0.62315-1.17539-1.33738-2.30445-1.92277-3.49745-0.65428-1.33337-1.21142-2.71456-1.8045-4.0777-0.32665-.75072-0.64987-1.5032-0.95728-2.26192-0.38573-.95193-0.74111-1.91623-1.13344-2.8653-0.288-.69669-0.65352-1.363-0.91459-2.06873-0.4157-1.12368-.737-2.28274-1.16414-3.40168A17.80406,17.80406,0,0,1,23.66,39.12922c-0.07647-.81183-0.29771-1.60989-0.45113-2.41463a17.65979,17.65979,0,0,1-.25572-5.80226c0.145-1.032.27178-2.0667,0.40211-3.10075a15.67538,15.67538,0,0,1,1.60946-5.165,34.42924,34.42924,0,0,1,4.07192-6.63428,31.37965,31.37965,0,0,1,2.30193-2.32464,17.50324,17.50324,0,0,1,1.533-1.39016c0.53111-.407,1.13231-0.72162,1.696-1.08722a10.00085,10.00085,0,0,0,1.21149-.83336,22.63349,22.63349,0,0,1,6.15713-3.44637,8.25808,8.25808,0,0,1,2.5236-.52893c0.87556-.09075,1.74175-0.27165,2.61226-0.41163,0.14268-.02292.28607-0.04472,0.43-0.05609a5.05243,5.05243,0,0,0,1.75008-.2196,2.84935,2.84935,0,0,1,1.23878.00216c0.925,0.06768,1.85387.11672,2.77136,0.244,1.00632,0.13967,2.00072.364,3.00221,0.54078a6.60419,6.60419,0,0,0,1.228.1622,8.50115,8.50115,0,0,1,3.668,1.25912,19.59548,19.59548,0,0,1,1.88057.92827,13.38822,13.38822,0,0,1,1.51184,1.11589c0.82165,0.6631,1.63889,1.33282,2.43361,2.02769C67.695,12.614,68.38074,13.26088,69.05791,13.915a24.61557,24.61557,0,0,1,1.89258,1.922,20.3228,20.3228,0,0,1,3.0774,4.73319c0.47791,1.08418.96953,2.16262,1.42838,3.25483a2.91457,2.91457,0,0,0,.69146,1.28846,2.67113,2.67113,0,0,1,.41035,1.40409c0.14393,0.77358.2439,1.55534,0.362,2.3337q0.10421,0.68681.20708,1.37387ZM73.562,26.72877c-0.04494-.18379-0.09982-0.36581-0.133-0.55167-0.10534-.58979-0.20263-1.181-0.312-1.82463l-0.54057.337a0.55667,0.55667,0,0,1-.0183-0.14834,0.2888,0.2888,0,0,1,.06153-0.12958,1.52884,1.52884,0,0,0,.32425-1.59642,5.48475,5.48475,0,0,1-.01277-1.13982l0.22082-.0125,0.25548,1.72506,0.13758,0.033a1.62277,1.62277,0,0,0,.44255-0.71509,3.96965,3.96965,0,0,0-.49028-1.24347,0.47514,0.47514,0,0,0-.45618-0.08753c-0.5303.35827-1.03019,0.76133-1.54327,1.14532-0.0955.07148-.20364,0.12608-0.30595,0.18847a1.83543,1.83543,0,0,1-.14673-0.36581c-0.09574-.55626-0.17622-1.11513-0.27783-1.774l-0.662.79964-0.1512-.06756a1.49965,1.49965,0,0,1,.22988-0.57794,1.72217,1.72217,0,0,0,.4898-1.626,5.84571,5.84571,0,0,1,.014-0.79879l0.1688-.00307c0.06993,0.44477.13989,0.88957,0.22365,1.42218l0.95284-.85324c-0.3722-.648-0.71837-1.25067-1.07731-1.87561a5.13882,5.13882,0,0,1-2.14493,1.6443c0.61491-.66632,1.21747-1.31923,1.81459-1.96624a15.5953,15.5953,0,0,0-2.62356-2.887c0.02155,0.69168.03852,1.2366,0.0574,1.84214a2.37088,2.37088,0,0,1,.47487-0.44735,1.12367,1.12367,0,0,1,.47034-0.00173,1.49226,1.49226,0,0,1-.1639.38439,1.14334,1.14334,0,0,1-.32325.20617,0.79644,0.79644,0,0,0-.48177.89693,3.34248,3.34248,0,0,1-.0215.73044L67.85713,17.384l-0.08361-.9657a1.78641,1.78641,0,0,1-.21541.06081,0.85667,0.85667,0,0,1-.16856-0.01414c0.60819-.7312.02247-1.4475,0.15892-2.20607l-1.56207.86352-0.06354-.09206c0.50476-.52494,1.00951-1.04989,1.59177-1.6554-0.63537-.463-1.16816-0.86765-1.7243-1.23717a0.48924,0.48924,0,0,0-.40059.12642c-0.43218.38311-.84771,0.78541-1.26061,1.18962a1.56712,1.56712,0,0,0-.05688,1.53947c0.36417,0.36913.778,0.68921,1.27481,1.121a7.67839,7.67839,0,0,1-.06357-0.85619q0.06293-1.22244.16652-2.44251a0.87072,0.87072,0,0,1,.21167-0.31747l0.12642,0.05661c-0.00949.16944-.01577,0.33912-0.029,0.50825-0.04737.60664-.10635,1.21258-0.13979,1.81994a2.33878,2.33878,0,0,1,.07482.49737,0.89191,0.89191,0,0,0,.26284,1.18017,2.71309,2.71309,0,0,1,.50044.52251,32.00691,32.00691,0,0,1,3.24686,4.35865c0.35426,0.647.70654,1.29822,1.00492,1.97184,0.3542,0.7997.64686,1.62655,0.97078,2.43984a8.59826,8.59826,0,0,1,.89261,3.37018c-0.02271,1.15776.07558,2.31737,0.08546,3.47647,0.00751,0.88142-.05,1.76327-0.05637,2.64509a4.19073,4.19073,0,0,0,.13572.74105,2.20148,2.20148,0,0,0,.79447-1.60277l0.171,0.4241a2.56061,2.56061,0,0,0,1.03171-1.52017c0.10182-.94974.128-1.90757,0.1906-2.93076-0.63376.60664-1.222,1.16971-1.81018,1.73278a0.3718,0.3718,0,0,1,.0426-0.36c0.49111-.56991.97294-1.14961,1.49445-1.69082a1.25786,1.25786,0,0,0,.424-0.9138c0.01842-.71922.13384-1.43592,0.20872-2.15368l0.16451,0.0128c-0.01389.3279-.03071,0.65568-0.04092,0.9837-0.01015.32638-.01368,0.653-0.02033,0.99188l0.58453-.38016c-0.08042-.62287-0.15475-1.24344-0.24642-1.86144a0.87573,0.87573,0,0,0-.16439-0.26664,1.0523,1.0523,0,0,1-.15676-0.27883,3.2323,3.2323,0,0,0-.01535-0.37268c-0.28564-.74908-0.57952-1.49533-0.89319-2.23294a0.40037,0.40037,0,0,0-.31854-0.194,0.93841,0.93841,0,0,0-.70293.90085c0.0301,0.78805.0529,1.57641,0.07868,2.36465ZM45.42816,10.05071a1.49364,1.49364,0,0,1-.24967.34629,1.95575,1.95575,0,0,0-.83609,1.871,3.50334,3.50334,0,0,1-.09112.78614l-0.14879-.0173c0.01773-1.00021.03545-2.00039,0.05488-3.09606-0.198.16655-.315,0.26892-0.43608,0.36618A7.96119,7.96119,0,0,1,42.313,11.74351a4.93807,4.93807,0,0,0-.47913.2926l0.00605,0.00572a4.00931,4.00931,0,0,1,.598-0.72761,1.11209,1.11209,0,0,0,.4929-1.02943,7.75088,7.75088,0,0,1-.01861-0.96585c0.02034-.34134.08507-0.68,0.1304-1.01985l0.1785,0.02323c-0.02976.71864-.05953,1.43726-0.09194,2.22039,0.67945-.5908,1.23653-1.12921.99893-2.0605a1.174,1.174,0,0,1,.15427-0.516l0.175,0.02359,0.17816,0.99012,1.38478-1.74394-0.06576-.1266a3.62311,3.62311,0,0,0-.40315.0654,1.197,1.197,0,0,1-.34873.13432,5.29721,5.29721,0,0,0-2.50965.51619c-1.27764.47341-2.50952,1.07144-3.75624,1.62694A10.25841,10.25841,0,0,0,37.259,10.264a30.73153,30.73153,0,0,0-2.5063,1.95417c-1.45164,1.24055-2.91815,2.47015-4.28648,3.799a16.22448,16.22448,0,0,0-1.841,2.40439A14.705,14.705,0,0,0,27.262,20.623a3.87988,3.87988,0,0,1-.81411,1.20473,1.9567,1.9567,0,0,0-.37934.61217,30.05409,30.05409,0,0,0-1.95718,5.69254,30.93886,30.93886,0,0,0-.50022,3.51326,6.41024,6.41024,0,0,0,.16393,1.2929,37.07191,37.07191,0,0,0,.46979,4.69455c0.42239,1.759.53361,3.59322,0.963,5.35a20.42244,20.42244,0,0,0,1.78486,5.51428c0.85467,1.49189,1.14523,3.23644,1.94995,4.78038,0.85157,1.63385,1.46164,3.39174,2.254,5.059,0.5704,1.20026,1.309,2.31993,1.89541,3.51347a20.51892,20.51892,0,0,0,2.10556,3.78658,3.99514,3.99514,0,0,1,.34672.68484c0.682,1.3462,1.33407,2.70882,2.05654,4.033a24.898,24.898,0,0,1,2.22258,3.92215,1.64092,1.64092,0,0,0,.2265.3075c0.17376,0.26819.3563,0.53236,0.5074,0.81317,0.65483,1.217,1.22237,2.48879,1.96494,3.64892,1.35128,2.11106,2.8384,4.13485,4.203,6.23776,0.91693,1.413,1.71661,2.90185,2.57644,4.35215,0.48253,0.81393.97665,1.62111,1.47359,2.42637,0.29728,0.48174.6101,0.9539,0.98829,1.54312,0.2815-.62749.99617-0.89583,0.58426-1.61588a0.65737,0.65737,0,0,1,.07318-0.32018,5.815,5.815,0,0,0,.18546-0.84363c0.07771-1.00963.13219-2.02112,0.18884-3.03228,0.02447-.437.03271-0.8748,0.0518-1.409l-2.16648,1.51074-0.14034-.15706a1.24493,1.24493,0,0,1,.21443-0.31,12.68368,12.68368,0,0,1,1.32416-.96315,1.292,1.292,0,0,0,.84476-1.43993,4.22371,4.22371,0,0,1,.02365-0.81913c0.00933-.44018.012-0.88051,0.01751-1.32078l-0.14685-.0854q-1.20411.89472-2.40822,1.78948l-0.14238-.12757a2.7544,2.7544,0,0,1,.48229-0.61086c0.62774-.44672,1.299-0.83244,1.92508-1.2812a0.87426,0.87426,0,0,0,.31279-0.57137c0.0568-.65376.06038-1.31263,0.0709-1.96977,0.00538-.33593-0.01818-0.67234-0.03332-1.15794-0.9245.88568-1.75728,1.6834-2.59,2.48116l-0.07765-.089c0.14579-.18215.27877-0.37658,0.43966-0.54422,0.58706-.61168,1.18758-1.21048,1.77434-1.82244a1.318,1.318,0,0,0,.5399-0.90334c0.0878-1.84247.22857-3.68279,0.37664-5.52173,0.042-.5213.17476-1.03529,0.26588-1.55264l0.12873,0.025c-0.14311,2.36647-.28622,4.73295-0.43671,7.22186,0.80946-.50017,1.493-0.914,2.164-1.34708A0.46928,0.46928,0,0,0,55.782,76.493c0.03344-.53677.04081-1.07515,0.06205-1.76136-0.70806.69371-1.31564,1.289-1.92325,1.88425l-0.146-.13076a1.48957,1.48957,0,0,1,.1667-0.30215,15.46494,15.46494,0,0,1,1.15189-1.23051,2.05666,2.05666,0,0,0,.83445-1.778c-0.06047-.84588.26314-1.709-0.1072-2.54783a0.55709,0.55709,0,0,1,.06971-0.22362,6.22131,6.22131,0,0,0,.19431-0.89024c0.08933-1.08643.14889-2.1753,0.22942-3.26252a4.98232,4.98232,0,0,1,.11444-0.59308l0.12633,0.02235c-0.04761,1.32784-.09525,2.65567-0.14682,4.09341,0.75561-.68429,1.40825-1.24718,2.0228-1.849a1.25186,1.25186,0,0,0,.37554-0.7111c0.11812-1.44012.1888-2.88409,0.278-4.32661a2.40417,2.40417,0,0,1,.04919-0.2778l0.09793,0.013q-0.06457,2.32389-.12912,4.64782c1.15025-.68633,2.14815-1.386,3.13206-2.10476a0.685,0.685,0,0,0,.20121-0.41,7.17574,7.17574,0,0,0,.06175-0.76942q0.05021-.722.10006-1.4441l-0.151-.079q-1.298,1.30595-2.5959,2.61192a6.5921,6.5921,0,0,1,2.22678-2.66367,1.70388,1.70388,0,0,0,.67395-1.63336,14.0736,14.0736,0,0,1,.144-1.93542l0.18139,0.00642c-0.02122.85509-.04244,1.71019-0.06661,2.68328a31.60082,31.60082,0,0,0,4.4841-3.66205,1.316,1.316,0,0,0,.20951-0.66,3.06736,3.06736,0,0,0,.0294-0.62062c-0.01392-.62868-0.03712-1.25718-0.05822-1.93362-0.84871.66063-1.6585,1.28789-2.46489,1.91951-0.79425.62214-1.58417,1.24982-2.3776,1.873-0.79715.626-1.59627,1.24946-2.4112,1.88707,0.03178-.057.05619-0.10745,0.08653-0.15408a12.02485,12.02485,0,0,1,2.69705-2.525c1.12118-.92475,2.31266-1.76406,3.46975-2.64558a2.25616,2.25616,0,0,0,1.194-2.03775,18.79088,18.79088,0,0,1,.038-1.92186c-1.60177,1.23137-3.09448,2.37888-4.5872,3.52642a0.40405,0.40405,0,0,1,.12867-0.307c1.0222-.85178,2.03666-1.71365,3.07886-2.54044,0.74607-.59192,1.70432-1.00255,1.62375-2.20208a6.07453,6.07453,0,0,1,.03724-0.74023c-0.70822.65629-1.26025,1.3656-1.911,1.96837-0.79611.73749-1.67361,1.38733-2.51831,2.07214a10.64638,10.64638,0,0,1-4.4228,2.26125c-1.125.24909-2.23857,0.556-3.34671,0.87388a13.23249,13.23249,0,0,1-3.40034.602,1.90249,1.90249,0,0,0-.52163.05527,10.40047,10.40047,0,0,1-4.30885.20945,26.371,26.371,0,0,1-2.86515-.63361,9.34483,9.34483,0,0,1-2.85208-.97c-0.53631-.32483-1.10875-0.59147-1.63609-0.92934A23.55446,23.55446,0,0,1,38.441,52.92462c-0.6769-.53811-1.25058-1.21677-1.96047-1.70028A11.28356,11.28356,0,0,1,33.99912,48.301c-0.68678-.92171-1.22313-1.95621-1.91754-2.87138a11.96794,11.96794,0,0,1-1.77632-3.71231,30.8826,30.8826,0,0,1-.922-4.641,18.69272,18.69272,0,0,1-.27615-5.71112,14.4006,14.4006,0,0,1,.94411-3.95669c0.39254-.84308.83977-1.66276,1.19382-2.52126a21.14456,21.14456,0,0,1,2.43376-4.12753,14.85324,14.85324,0,0,1,4.22488-3.88023c1.36614-.86835,2.713-1.76938,4.10637-2.59164,0.768-.45325,1.61542-0.77142,2.42458-1.15563A8.09054,8.09054,0,0,1,45.66968,12.54c0.9885-.27357,1.9975-0.47308,3.027-0.70928l-0.02919-.24694c0.53838-.00453,1.04481.0131,1.54789-0.02,0.39914-.02624.79286-0.12566,1.19132-0.17269a10.16932,10.16932,0,0,1,1.67294-.15275c0.89659,0.0446,1.79048.172,2.68091,0.29713,0.35566,0.05.65525,0.07537,0.74871-.2625a1.5372,1.5372,0,0,0,.49719.35478,13.70113,13.70113,0,0,1,3.24306,1.16439c0.44605,0.20015.92414,0.32893,1.52363,0.53741l-0.4881-2.67732c-0.33891.31507-.59247,0.55076-0.846,0.78647l-0.10267-.10231a4.12749,4.12749,0,0,1,1.63522-1.85494l-1.20243-.60369c-0.08765.07221-.17494,0.14274-0.26074,0.215-0.50916.42887-1.1653,0.757-1.09051,1.58842a0.33619,0.33619,0,0,1-.10051.07525l-0.2003-.526c-0.25587.24131-.45757,0.444-0.67413,0.62932a1.35159,1.35159,0,0,1-.29963.14955A2.78492,2.78492,0,0,1,58.24,10.64555,0.76925,0.76925,0,0,1,58.384,10.521a3.93424,3.93424,0,0,0,.83649-1.05922,4.08121,4.08121,0,0,0-.00921-1.35806l-0.2297-.118a2.34509,2.34509,0,0,1-.55808.73749,3.36343,3.36343,0,0,0-1.83418,1.92867c-0.45137-.50521-0.43158.282-0.76328,0.26673a7.00146,7.00146,0,0,0,.59128-1.38749,6.838,6.838,0,0,0-.02268-1.48514A5.01558,5.01558,0,0,0,54.463,10.72956l-0.65933-.05834c0.74023-.84649.25563-1.83922,0.40236-2.79379-0.53984.64938-1.52628,0.8647-1.635,1.731-0.464-.30613-0.63522.28582-0.94162,0.35286a5.11569,5.11569,0,0,0,.7149-1.23167,6.07855,6.07855,0,0,0-.01973-1.55851,4.08361,4.08361,0,0,1-.85789.7748,1.07427,1.07427,0,0,0-.59429,1.14995c-0.01736.4725-.0291,0.94521-0.04329,1.41786l-0.12657.00906C50.62972,10.00313,50.5569,9.4835,50.4767,8.911a5.68776,5.68776,0,0,0-1.01019.98452,4.962,4.962,0,0,0-.37539,1.26247l-0.1677-.0142q0.05673-1.02251.1135-2.04505l-0.09273-.07719q-1.23594,1.15239-2.47191,2.30479l-0.1799-.09379A2.17017,2.17017,0,0,0,47.2966,8.49211,2.278,2.278,0,0,0,46.07621,10.899l-0.20075-.05719-0.08963-.97193L45.421,10.057a2.41737,2.41737,0,0,0,.48192-1.9117c-1.10087.72758-1.69976,1.87215-1.3503,2.5464ZM56.45,12.07882c-1.07245.006-2.00751-.00784-2.941,0.02417-0.51205.01754-1.02107,0.11578-1.53212,0.17166a6.88864,6.88864,0,0,1-1.33781.11933,7.6935,7.6935,0,0,0-3.07557.48071c-0.95755.309-1.87083,0.75343-2.8093,1.12386a18.62055,18.62055,0,0,0-2.46659.96415,34.85162,34.85162,0,0,0-3.8601,2.51989,29.34441,29.34441,0,0,0-4.86341,4.79068,11.76811,11.76811,0,0,0-2.08864,3.662c-0.40248,1.1829-.72461,2.39289-1.109,3.5823a13.77126,13.77126,0,0,0-.5814,4.28,18.49651,18.49651,0,0,0,.2874,3.0645,35.72175,35.72175,0,0,0,.9626,4.56746,16.60737,16.60737,0,0,0,1.59128,3.3907,40.57388,40.57388,0,0,0,2.68647,4.09332,20.49876,20.49876,0,0,0,4.01263,3.62487,16.88785,16.88785,0,0,0,5.70367,2.49456,29.23984,29.23984,0,0,0,5.10013.962,20.21834,20.21834,0,0,0,4.88548-.42419,14.111,14.111,0,0,0,2.13073-.57566,31.56052,31.56052,0,0,0,3.61681-1.10477,11.95342,11.95342,0,0,0,2.4551-1.61083,23.07859,23.07859,0,0,0,2.0352-1.81456,10.01432,10.01432,0,0,0,1.0415-1.25073c0.54921-.74549,1.07111-1.51111,1.603-2.26934,0.47119-.67176.706-1.46277,1.22969-2.13228a7.83557,7.83557,0,0,0,1.19288-2.44537,22.04977,22.04977,0,0,0,1.32209-5.17024c0.10048-1.51287.27947-3.02364,0.30589-4.53736,0.02262-1.296-.149-2.59407-0.1853-3.8926a10.51727,10.51727,0,0,0-1.29139-4.1295c-0.17461-.37621-0.35888-0.74814-0.52519-1.128-0.15424-.35222-0.25375-0.73293-0.44082-1.06539a19.81624,19.81624,0,0,0-2.69033-3.98141,13.54875,13.54875,0,0,0-3.2064-2.80626c-1.10407-.61333-2.1404-1.34772-3.21558-2.01419-1.24246-.77015-2.51429-1.44507-4.0607-1.0211a0.3996,0.3996,0,0,1-.15643-0.06029Zm-0.60056,73.7025,0.10881,0.01484c0.17369-.26709.35241-0.53109,0.52014-0.80186,0.43088-.69557.89878-1.37232,1.27575-2.09625,0.69551-1.33574,1.29758-2.72083,2.01006-4.04693,0.91012-1.694,1.94132-3.32385,2.82924-5.02877,1.23769-2.37648,2.40329-4.7909,3.57522-7.201,0.57532-1.18318,1.10784-2.38773,1.63725-3.59249,0.64571-1.46936,1.31455-2.93131,1.885-4.4301,0.44325-1.16445.75245-2.38,1.11881-3.57358,0.62214-2.02681,1.45492-4.00284,1.46784-6.17589,0.003-.50482.04579-1.00939,0.0771-1.65525-0.72065.65948-1.33112,1.22173-1.94575,1.77939a14.52265,14.52265,0,0,1-1.40953,1.2393,1.49507,1.49507,0,0,0-.8183,1.342c0.01805,0.67413-.03089,1.35006-0.05388,2.13878,0.46058-.398.80955-0.705,1.16445-1.0048,0.36809-.31093.72886-0.6337,1.12231-0.90921a0.92887,0.92887,0,0,1,.47387.032,1.22087,1.22087,0,0,1-.21212.36727c-0.78669.63874-1.58921,1.258-2.37629,1.89632a0.625,0.625,0,0,0-.24183.38269c-0.03536.9408-.04117,1.88273-0.05637,2.82432l0.13554,0.06a5.39344,5.39344,0,0,1,.7779-0.597,1.17484,1.17484,0,0,1,.55535.04065,1.21764,1.21764,0,0,1-.22553.394,5.7521,5.7521,0,0,1-.77826.481,0.85278,0.85278,0,0,0-.4797.91313A9.86727,9.86727,0,0,1,67.989,59.685c-0.0118.44438-.03734,0.88839-0.05692,1.33258l-0.18622-.00079-0.08206-2.63326c-1.49332,1.16271-2.8985,2.25392-4.29867,3.35154a0.82278,0.82278,0,0,0-.35.38564c-0.09577.829-.14618,1.66315-0.21185,2.4956a0.65675,0.65675,0,0,0,.38868-0.1276c0.98993-.79067,1.97275-1.5904,2.97-2.37167a9.11191,9.11191,0,0,1,1.18181-.80256,1.487,1.487,0,0,1,.61305-0.03287l0.04272,0.18929c-0.16415.1117-.32118,0.23614-0.494,0.33228a7.38782,7.38782,0,0,0-.89383.47058c-0.93314.70554-1.79966,1.50867-2.77649,2.144A1.94686,1.94686,0,0,0,62.715,66.60354a1.26159,1.26159,0,0,1-.03776.28567c-0.03135.64413-.0588,1.28843-0.09389,2.07612,0.371-.346.63142-0.573,0.87309-0.81861a0.59854,0.59854,0,0,1,.96251-0.09556c-0.49871.39533-.97555,0.74142-1.41132,1.13316a1.25765,1.25765,0,0,0-.44881.67593c-0.08908.86282-.09191,1.7343-0.14338,2.60155a1.03052,1.03052,0,0,1-.1622.33845,1.75831,1.75831,0,0,1-.19565-0.32763,0.86675,0.86675,0,0,1,.00885-0.28734c0.02331-.72919.04584-1.45842,0.06883-2.19354a0.5568,0.5568,0,0,0-.17379.00724q-1.34608.96514-2.68714,1.93727a0.47094,0.47094,0,0,0-.21416.2456c-0.04381.67879-.06321,1.35915-0.09012,2.03906l0.15226,0.04527c0.10991-.10577.213-0.21991,0.33091-0.31592,0.48475-.39482.96184-0.80131,1.47125-1.1618a1.01462,1.01462,0,0,1,.51764.03445,1.56962,1.56962,0,0,1-.28436.41342c-0.64373.47834-1.31437,0.921-1.9501,1.40929a0.77146,0.77146,0,0,0-.26025.53367c-0.01551,1.36578.0039,2.73192,0.00134,4.09794a1.39037,1.39037,0,0,1-.11733.38448l-0.13958-.00581-0.25715-.698c-0.72254.50327-1.43118,0.97549-2.11145,1.4856a0.8995,0.8995,0,0,0-.36.57338C55.90238,82.60418,55.88217,84.193,55.84948,85.78133ZM76.16019,29.2928L75.988,29.26465a3.45256,3.45256,0,0,0-.70095,1.09616,17.63692,17.63692,0,0,0-.151,2.54889,1.8076,1.8076,0,0,0,.21443.44982,0.65052,0.65052,0,0,1,.04539.41686,1.28525,1.28525,0,0,0-.43468,1.209c-0.01736.41148-.09617,0.82034-0.14785,1.23033l-0.18877-.01721,0.0667-1.50791c-0.65036.49107-1.309,0.89282-1.28961,1.81517a18.61931,18.61931,0,0,1-.18021,2.02012c-0.01335.14946,0.00675,0.30191,0.01578,0.59159,0.24517-.21875.39154-0.33468,0.52075-0.46733,0.40424-.415.78936-0.84977,1.2112-1.24566a1.0945,1.0945,0,0,1,.48409-0.11146,0.9884,0.9884,0,0,1-.10815.43246,6.86111,6.86111,0,0,1-1.19367,1.1082,2.37346,2.37346,0,0,0-1.17524,2.16761c-0.00255.49941-.04031,0.99866-0.06151,1.48289,0.50293-.07835.69256-0.84,1.41151-0.44587-0.45262.38773-.84771,0.71043-1.22182,1.05588a0.74577,0.74577,0,0,0-.25627.421c-0.07923,1.09087-.14326,2.18332-0.18391,3.27632-0.01876.50482,0.02566,1.012,0.04144,1.51813a0.08839,0.08839,0,0,0,.09963-0.08078c0.31306-1.09349.628-2.18646,0.937-3.2811,0.20474-.72527.38329-1.45839,0.60554-2.1781,0.2342-.75835.54039-1.49554,0.75243-2.25936,0.20874-.75194.36082-1.52184,0.4956-2.29126a10.61859,10.61859,0,0,0,.13436-1.51,6.88552,6.88552,0,0,1-.09593-0.83688c0.20328-1.21729.36077-2.44,0.61959-3.65272A11.77892,11.77892,0,0,0,76.16019,29.2928ZM59.09242,71.53168L59.24435,71.603c0.82585-.63443,1.64926-1.27208,2.47878-1.90164a1.02524,1.02524,0,0,0,.45623-0.94183,8.92529,8.92529,0,0,1,.10793-1.14493c0.05527-.67745.10006-1.35578,0.15579-2.12465a3.88216,3.88216,0,0,0-.42744.22243c-0.83013.60509-1.64318,1.23483-2.49125,1.81332a0.8314,0.8314,0,0,0-.41223.74926c-0.00925.89948-.02576,1.79887-0.036,2.69836C59.07406,71.15936,59.08665,71.34555,59.09242,71.53168Zm9.23912-21.24856a3.396,3.396,0,0,0,.47834-0.3026q1.43479-1.36,2.85341-2.73691a2.15112,2.15112,0,0,1,.38032-0.51892,0.54085,0.54085,0,0,0,.35337-0.68216c-0.01073-.23964.03232-0.48125,0.04232-0.72238,0.02219-.53486.03861-1.06992,0.05844-1.63515a0.66557,0.66557,0,0,0-.19668.06154c-0.90562.88915-1.79836,1.79164-2.71456,2.66969A4.75411,4.75411,0,0,0,68.33154,50.28312Zm1.38831-4.50723,0.08261,0.059c0.87863-.90271,1.7613-1.80158,2.6298-2.71392a0.71639,0.71639,0,0,0,.13274-0.40522c0.07342-.77541.13314-1.55212,0.19829-2.33765l-0.43036.01341c0.92794-1.31564.53568-2.82633,0.943-4.2759a0.97156,0.97156,0,0,0-.838.85862,12.18653,12.18653,0,0,1-.16348,1.33607c-0.31959,1.15651-.67666,2.30354-1.05049,3.44394-0.29881.91146-.63811,1.80991-0.97127,2.70976C70.08889,44.90641,69.89832,45.33889,69.71985,45.77588ZM56.23384,73.756c0.83655-.61275,1.56-1.13517,2.27147-1.67346a0.50114,0.50114,0,0,0,.1591-0.33036c0.05634-.74771.10669-1.49639,0.13371-2.24565,0.01468-.40619-0.02049-0.8142-0.03715-1.34851-0.65589.56027-1.22313,1.01763-1.756,1.512a1.68255,1.68255,0,0,0-.61892.80824C56.27531,71.52532,56.27827,72.58445,56.23384,73.756ZM53.367,81.93616l0.17266,0.0823c0.36466-.25125.74537-0.48241,1.09032-0.75832,0.54477-.43574,1.18433-0.8305,1.01964-1.69939a0.55167,0.55167,0,0,1,.02551-0.092c0.03034-.72913.059-1.45833,0.09024-2.24279a1.49374,1.49374,0,0,0-.3078.0885c-0.60968.38509-1.21884,0.77121-1.81934,1.17029a0.41325,0.41325,0,0,0-.17157.2774C53.42424,79.81975,53.39776,80.878,53.367,81.93616Zm5.23953-6.73689a18.41676,18.41676,0,0,1-1.67316,1.13693,1.30849,1.30849,0,0,0-.84351,1.48545,3.55609,3.55609,0,0,1-.03369.67079c-0.01861.54352-.03174,1.08722-0.04962,1.72077,0.88-.61445,1.35942-1.60776,2.47644-1.6537C58.52452,77.42874,58.56435,76.34562,58.60649,75.19926ZM55.441,83.98668a1.62915,1.62915,0,0,0-.26256.16625q-0.91146.8939-1.81329,1.7976a0.35711,0.35711,0,0,0-.10681.20841c-0.0426.87023-.07619,1.741-0.1083,2.51886,0.55-.32608,1.08917-0.64376,1.6257-0.96573a0.783,0.783,0,0,0,.25074-0.19446A1.58213,1.58213,0,0,0,55.47029,86.03a2.03863,2.03863,0,0,1,.01456-0.57228C55.47628,84.98312,55.45731,84.50874,55.441,83.98668Zm0.84667-7.54714c0.79058-.61229,1.524-1.17825,2.25277-1.75014A0.252,0.252,0,0,0,58.606,74.516c0.02058-.65331.03533-1.3068,0.05376-2.04356-0.322.19577-.58861,0.33626-0.83065,0.51087-0.2601.18765-.48661,0.42172-0.7461,0.61032A2.37761,2.37761,0,0,0,56.28772,76.43954Zm8.96382-64.78928a2.53446,2.53446,0,0,1-.6278-0.44015,0.54214,0.54214,0,0,0-.86628-0.10544c-0.52944.35487-1.03572,0.747-1.53172,1.14821a0.91875,0.91875,0,0,0-.26186,1.10075,2.05,2.05,0,0,0,.84348.65334,0.40364,0.40364,0,0,0,.37043-0.13928,3.17791,3.17791,0,0,0,.24405-0.81375c0.04375-.25621-0.128-0.57146.27618-0.77316l0.19832,0.90587,0.14341,0.0003C64.42849,12.694,64.81725,12.201,65.25153,11.65026ZM53.3053,85.29691l0.14527,0.04877q1.0143-1.14865,2.02562-2.29986a0.35254,0.35254,0,0,0,.07431-0.22049c-0.01042-.54908-0.03059-1.098-0.04846-1.67133-0.68882.45629-1.36763,0.90255-2.04046,1.35772a0.2905,0.2905,0,0,0-.10222.206C53.33613,83.57727,53.32187,84.43714,53.3053,85.29691ZM71.2011,22.26638l1.96877-1.54786c-0.19881-.28-0.382-0.55927-0.58776-0.8208-0.16053-.204-0.32392-0.52434-0.64446-0.2954a1.71692,1.71692,0,0,0-.75929.76626A9.52416,9.52416,0,0,0,71.2011,22.26638ZM63.81583,10.41914c-0.30166-.17625-0.62232-0.38913-0.96506-0.557a0.94361,0.94361,0,0,0-1.17509.52488,14.50643,14.50643,0,0,0,.16135,1.69806ZM56.50295,7.25728a4.64688,4.64688,0,0,0-1.26187-.15235c-0.3092.049-.79867,0.17287-0.58572,0.75294a1.36565,1.36565,0,0,1-.07589.41914c-0.02116.3722-.02481,0.74537-0.03879,1.23666C55.22558,8.72613,55.81443,8.049,56.50295,7.25728ZM47.71659,9.79915c0.85619-.77857,1.76692-1.45632,1.37721-2.82566a2.7046,2.7046,0,0,0-.26262.20416,2.17234,2.17234,0,0,1-.64215.61953,0.67934,0.67934,0,0,0-.50409.74814C47.66585,8.94035,47.70221,9.33805,47.71659,9.79915Zm6.82366-2.90559C53.87618,6.85067,53.36854,6.80585,52.86,6.79c-0.25351-.00787-0.38409.08887-0.27363,0.39473a2.94937,2.94937,0,0,1,.10589.744c0.01946,0.22812.0169,0.45809,0.024,0.68727l0.155,0.07358Zm2.22355,2.56534,0.12842,0.033,1.659-1.5886C58.079,7.74386,57.683,7.58542,57.27248,7.48859a0.44283,0.44283,0,0,0-.36851.22888C56.82948,8.29437,56.805,8.87772,56.76381,9.45891ZM53.0051,91.323l0.15612,0.06762L54.559,88.505l-0.12976-.08723a2.0902,2.0902,0,0,0-1.29692,1.14344A7.4285,7.4285,0,0,0,53.0051,91.323ZM49.34043,9.54112A3.98425,3.98425,0,0,0,50.674,8.00353a0.62221,0.62221,0,0,1,.27041-0.37186A1.00959,1.00959,0,0,0,51.776,6.85739a1.19247,1.19247,0,0,0-.71834.20544c-0.46825.38634-.88483,0.835-1.34976,1.22571A1.69747,1.69747,0,0,0,49.34043,9.54112Zm-2.88166-.587a11.86974,11.86974,0,0,0,.8869-1.27314c0.12085-.2269.1089-0.46839,0.46523-0.34669a0.56364,0.56364,0,0,0,.25417-0.148,0.54325,0.54325,0,0,0-.19188-0.20759,2.056,2.056,0,0,0-.8609.12167A1.30109,1.30109,0,0,0,46.45877,8.95409Zm3.1759-1.0584,0.84038-1.018C49.75957,6.83224,49.55082,7.05674,49.63467,7.89569ZM59.5863,8.31033l0.033,1.05688,0.62123-.771Zm4.026,5.6196-0.59566.34447,0.64659,0.38278a3.14207,3.14207,0,0,0,.01587-0.32456C63.67193,14.23959,63.64958,14.14774,63.61234,13.92993Z"></path><path d="M41.83385,12.03611q-0.59752.68193-1.195,1.36389l-0.11958-.11511a3.74536,3.74536,0,0,1,1.32063-1.24307Z"></path><path d="M73.55362,26.73813q0.50083-.40543,1.00143-0.81119a0.77854,0.77854,0,0,1,.25761-0.20613,1.15556,1.15556,0,0,1,.385.06227,0.7901,0.7901,0,0,1-.116.31924c-0.43811.39682-.89894,0.76854-1.33839,1.164-0.22236.20011-.41589,0.43231-0.62247,0.65L72.99095,27.859q0.28549-.56514.571-1.13024Z"></path><g><path d="M50.265,41.27409c-0.606.60223-1.18187,1.24018-1.82636,1.799a4.86827,4.86827,0,0,1-3.13419,1.25441,3.40079,3.40079,0,0,1-1.48767-.29148,3.50734,3.50734,0,0,1-1.96621-3.13741,6.86524,6.86524,0,0,1,.28731-2.911,6.75681,6.75681,0,0,1,1.40165-2.5398q2.37921-2.426,4.73328-4.8767c0.47572-.49284.92888-1.00741,1.40159-1.50326a1.38919,1.38919,0,0,1,.3812-0.27524,2.00307,2.00307,0,0,1,.94782-0.391,2.24481,2.24481,0,0,1,.68256.69621,52.58776,52.58776,0,0,1,5.08624,5.96976,7.44717,7.44717,0,0,1,1.69192,2.93654,10.08786,10.08786,0,0,1,.15262,4.45926,3.57328,3.57328,0,0,1-2.74545,2.13857,3.93383,3.93383,0,0,1-3.3959-1.33133c-0.35146-.356-0.819-0.59454-1.19437-0.93056C50.91429,42.0117,50.59764,41.62744,50.265,41.27409Zm5.873-2.64387,0.64127-.34553L56.89694,38.439a45.69461,45.69461,0,0,1-3.22312,3.52688,1.13056,1.13056,0,0,1,.22739-0.66146c0.58928-.692,1.2134-1.3545,1.79814-2.05016a0.6772,0.6772,0,0,0,.158-0.56167,8.68827,8.68827,0,0,0-.73679-1.05943c-0.2874.29354-.53093,0.56529-0.79936,0.8097a0.44317,0.44317,0,0,0-.06117.70095,2.151,2.151,0,0,1,.21766.62935l-0.15883.07355-0.71928-.66638c-0.28318.46748-.53817,0.88842-0.79313,1.30938a0.564,0.564,0,0,1-.047-0.49308c0.1308-.27482.31328-0.52458,0.45967-0.79274a0.49983,0.49983,0,0,0,.09817-0.33888c-0.2248-.31668-0.48658-0.60712-0.73549-0.90669-0.18856.1577-.37618,0.31659-0.56742,0.471a0.66361,0.66361,0,0,1-.20188-0.01073,2.5809,2.5809,0,0,1,.32319-0.57712,0.288,0.288,0,0,0,.01453-0.48265,6.84388,6.84388,0,0,1-.43519-0.56283l-0.67678.57578a1.32257,1.32257,0,0,1,.21912-0.50254,0.58236,0.58236,0,0,0,.11724-0.38445c-0.224-.41583-0.49089-0.80855-0.74713-1.21656l-0.26676.25448-0.106-.06607a1.50709,1.50709,0,0,1,.26965-0.56623c0.48238-.37895.16725-0.67608-0.03785-1.04964-0.29941.274-.57067,0.5223-0.842,0.77054l-0.08893-.08185c0.50415-.656,1.01228-1.309,1.51083-1.96922a1.09222,1.09222,0,0,0,.45246-1.25967,0.81093,0.81093,0,0,1,.13126-0.2611l0.31692,0.47259,0.72643-.82062c-0.36721-.3262-0.7063-0.62734-1.09084-0.96889-1.08725,1.13736-2.14286,2.24164-3.19846,3.34589a11.0529,11.0529,0,0,1,.94661-1.43969c0.54948-.68979,1.14046-1.34641,1.69767-2.03034a0.39723,0.39723,0,0,0,.04657-0.369,0.51377,0.51377,0,0,0-.40685-0.153,0.84344,0.84344,0,0,0-.37314.28211c-0.73384.77972-1.44537,1.581-2.19436,2.34577-1.12812,1.15192-2.27873,2.28192-3.4239,3.41709a6.87884,6.87884,0,0,0-2.10415,4.514,4.27767,4.27767,0,0,0,.36545,2.75521A2.53767,2.53767,0,0,0,44.55507,43.673a3.74383,3.74383,0,0,0,2.65789-.42537,8.895,8.895,0,0,0,2.79315-2.67218c0.25-.36946.43972-0.3864,0.67338-0.01259a3.39141,3.39141,0,0,0,.5291.79255,32.87651,32.87651,0,0,0,2.7463,2.2576,2.4863,2.4863,0,0,0,2.51673.21322,2.98086,2.98086,0,0,0,1.834-2.89811,7.90964,7.90964,0,0,0-1.45988-5.04063c-0.88249-1.21489-1.87768-2.3479-2.81857-3.5118-0.34179.21869-.675,0.43191-1.05734,0.6765,0.19869,0.36682.383,0.707,0.58624,1.08221a5.95306,5.95306,0,0,1,.64242-0.55492,0.94058,0.94058,0,0,1,.41048-0.03262,1.01453,1.01453,0,0,1-.13475.35973c-0.20762.2179-.44668,0.40588-0.67471,0.60715l0.60286,0.98771a6.94954,6.94954,0,0,1,.71609-0.3698,0.70617,0.70617,0,0,1,.33055.06917,0.63258,0.63258,0,0,1-.11678.27865c-0.20626.14089-.43626,0.247-0.7105,0.39582,0.25855,0.351.49719,0.675,0.7277,0.98793,0.29647-.17816.50816-0.32319,0.73658-0.43358a0.80416,0.80416,0,0,1,.32194-0.00517,0.77775,0.77775,0,0,1-.10382.35012,6.4915,6.4915,0,0,1-.65137.46292L55.9,37.85393l-0.41646-.31075-0.05372.04518Zm-4.13534-2.752c0.3867-.422.74585-0.80475,1.09075-1.1999a0.30778,0.30778,0,0,0,.05257-0.26761c-0.16348-.35444-0.35073-0.69794-0.57359-1.13046a8.24685,8.24685,0,0,1-.89778.8661,0.61835,0.61835,0,0,0-.15117.9335C51.65783,35.3337,51.8184,35.57374,52.00261,35.87826Zm1.7872,2.62636c0.34277-.3659.64668-0.66848,0.92077-0.996a0.48136,0.48136,0,0,0,.11316-0.39962,6.46081,6.46081,0,0,0-.5645-0.80168,0.161,0.161,0,0,0-.1294.03007c-0.3794.35286-.75461,0.71025-1.12273,1.0588,0.14983,0.21732.25654,0.37515,0.36643,0.53072C53.492,38.09469,53.61353,38.26033,53.78981,38.50462Zm-1.01435-1.52956c0.21249-.16469.38527-0.28163,0.53848-0.4202,0.76467-.6918.76318-0.694,0.20051-1.55869a0.72382,0.72382,0,0,0-.17108-0.09085,7.41513,7.41513,0,0,0-1.03818,1.2282,1.92641,1.92641,0,0,0,.4586.83287C52.77765,36.98983,52.81675,36.99835,52.77546,36.97506Zm-1.68869-2.852a0.49825,0.49825,0,0,0,.14828-0.03895c0.21149-.19717.42042-0.39707,0.629-0.5973,0.53234-.511.52409-0.70895-0.06467-1.23571a6.01579,6.01579,0,0,1-.66526.74582A0.72012,0.72012,0,0,0,51.08677,34.12307Zm1.96375-2.98c-0.99793.5738-1.047,0.79617-.3919,1.64184l1.04089-.76455Zm-1.40564,5.11244,0.17889-.11848-0.81849-1.27822-0.13168.08023A3.36313,3.36313,0,0,0,51.64488,36.25556Z"></path><path d="M56.76894,22.79755a4.97114,4.97114,0,0,1-.78775,3.12519A6.48467,6.48467,0,0,1,54.13,27.94393a1.576,1.576,0,0,1-2.29421-.9322,6.31927,6.31927,0,0,1,.18956-4.05578,4.89868,4.89868,0,0,1,2.12729-2.27265,1.7338,1.7338,0,0,1,1.512-.18607,2.09827,2.09827,0,0,1,1.10425,1.76944C56.76937,22.44363,56.76894,22.62061,56.76894,22.79755Zm-0.887-1.69231-0.191.03527A25.30126,25.30126,0,0,1,53.048,24.08012l-0.166-.14755q1.20616-1.485,2.41229-2.97007L55.221,20.84827a10.0698,10.0698,0,0,1-1.12283.78921,2.8783,2.8783,0,0,0-1.52181,1.82937,5.78567,5.78567,0,0,0-.11069,3.34233,1.05166,1.05166,0,0,0,1.71842.5147,5.6919,5.6919,0,0,0,1.61934-2.06226A3.40472,3.40472,0,0,0,56.191,22.94c-1.04247.37113-1.5869,1.339-2.48316,1.85375A14.83462,14.83462,0,0,1,55.337,22.92312a3.05564,3.05564,0,0,1,.66364-0.33942,0.58233,0.58233,0,0,0,.2778-0.24721C56.16939,21.92,56.01919,21.51432,55.88189,21.10524Z"></path><path d="M44.18393,24.76936a6.15311,6.15311,0,0,1,1.78626-4.48994,1.81547,1.81547,0,0,1,2.48876.30078,6.64067,6.64067,0,0,1,1.10188,3.36161,8.69016,8.69016,0,0,1-.55246,3.49693,2.11845,2.11845,0,0,1-2.10142,1.28646,4.06467,4.06467,0,0,1-1.6806-1.18305A4.666,4.666,0,0,1,44.18393,24.76936Zm4.89716-1.12261a6.11592,6.11592,0,0,0-.93174-2.57623,1.4049,1.4049,0,0,0-1.12693-.57243,3.17217,3.17217,0,0,0-1.22358.95187,3.229,3.229,0,0,0-.39494.7637,4.946,4.946,0,0,0-.56408,2.87914,3.7821,3.7821,0,0,0,1.62,2.71231,1.15146,1.15146,0,0,0,1.38195.11128,2.78533,2.78533,0,0,0,1.22066-2.22407A14.87083,14.87083,0,0,0,49.08109,23.64675Z"></path><path d="M57.23871,31.756a1.0091,1.0091,0,0,1-1.27348-1.15663,2.96935,2.96935,0,0,1,.61789-2.02666,18.0141,18.0141,0,0,1,1.66227-1.77978,1.363,1.363,0,0,1,.75771-0.07747,3.27173,3.27173,0,0,0,.452.04947,0.73024,0.73024,0,0,1,.88339.49454,1.55745,1.55745,0,0,1,.04494,1.27013A12.71947,12.71947,0,0,1,59.35982,30.47,2.55124,2.55124,0,0,1,57.23871,31.756Zm2.30618-2.59006-0.89468.81536-0.12681-.12365c0.2023-.25882.39853-0.52272,0.60843-0.77522,0.27567-.33167.58754-0.637,0.82925-0.991a1.03267,1.03267,0,0,0-.03271-0.52361,1.26178,1.26178,0,0,0-.44948.10647c-0.7731.5548-1.532,1.12936-2.2977,1.69918l-0.08884-.3756a8.13076,8.13076,0,0,1-.43608,1.26393,0.50533,0.50533,0,0,0,.04132.72375,1.26165,1.26165,0,0,0,.83543.18126C58.63592,30.96945,59.08422,30.0555,59.54489,29.16593Zm-0.3953-1.84141a2.11938,2.11938,0,0,0-1.82548,1.49694Z"></path><path d="M44.51673,30.33272a2.2805,2.2805,0,0,1-1.235,2.061,1.35226,1.35226,0,0,1-1.15438-.135,3.43555,3.43555,0,0,1-1.87078-3.04413,4.92523,4.92523,0,0,1,.20729-1.46693A1.72674,1.72674,0,0,1,42.783,27.044,3.74213,3.74213,0,0,1,44.51673,30.33272Zm-2.26849-3.01288-0.22948.12785c0.5264,0.312.26828,0.54258,0.06157,0.81329-0.26171.34268-.48162,0.7174-0.71755,1.07959a1.07978,1.07978,0,0,0,.04621,1.42917,5.93878,5.93878,0,0,0,1.06454.95567,0.77414,0.77414,0,0,0,.69809.07841,2.16909,2.16909,0,0,0,.75863-0.938,2.58744,2.58744,0,0,0-.88623-2.88595C42.78328,27.75461,42.51376,27.53953,42.24824,27.31984Zm-1.3075,1.82326,0.09969,0.01672c0.26825-.446.53647-0.892,0.81137-1.34912-0.29066-.14262-0.56556-0.22882-0.67486.14648C41.06467,28.34273,41.01682,28.747,40.94075,29.1431Z"></path><path d="M54.55643,43.14605a6.76657,6.76657,0,0,1,.46666-0.679q1.20069-1.37153,2.432-2.71584a0.88539,0.88539,0,0,1,.4245-0.09005,0.87662,0.87662,0,0,1-.0983.36882c-0.98118,1.03417-1.974,2.05733-2.96743,3.07986a0.675,0.675,0,0,1-.19279.09744Z"></path><path d="M46.3461,23.66505c0.18874-.34064.35669-0.69511,0.57134-1.01854,0.289-.43538.60612-0.85306,0.9311-1.2625a0.65673,0.65673,0,0,1,.31863-0.08233,0.65584,0.65584,0,0,1,.04226.33547,6.12093,6.12093,0,0,1-.48056.59274q-0.62876.76242-1.25563,1.52646Z"></path><path d="M47.17687,25.28178c0.13128-1.10817.83475-2.10814,1.39053-2.02736C48.09177,23.94789,47.63432,24.61485,47.17687,25.28178Z"></path><path d="M43,28.65135c-0.49107.69979-.91243,1.30026-1.33382,1.90073A2.172,2.172,0,0,1,43,28.65135Z"></path></g></g></svg>