<svg xmlns="http://www.w3.org/2000/svg" xmlns:xlink="http://www.w3.org/1999/xlink" version="1.1" x="0px" y="0px" viewBox="0 0 48 48" enable-background="new 0 0 48 48" xml:space="preserve"><path d="M23.4926758,30.8701172C23.8061523,30.6928711,24,30.3603516,24,30v-6c2.2060547,0,4-1.7944336,4-4s-1.7939453-4-4-4V9  c0-0.3730469-0.2075195-0.7148438-0.5380859-0.887207c-0.331543-0.1713867-0.7299805-0.1464844-1.0351563,0.0678711L12.6848755,15H7  c-2.7568359,0-5,2.2431641-5,5c0,2.0450439,1.2373047,3.8024292,3,4.5761719V31c0,0.5522461,0.4477539,1,1,1h4  c0.5522461,0,1-0.4477539,1-1v-6h1.7229614l9.7623901,5.8574219C22.6435547,30.9526367,22.8217773,31,23,31  C23.1699219,31,23.3398438,30.9570313,23.4926758,30.8701172z M24,18c1.1025391,0,2,0.8969727,2,2s-0.8974609,2-2,2V18z M9,30H7v-5  h2V30z M12,23h-2H7c-1.6542969,0-3-1.3457031-3-3s1.3457031-3,3-3h5V23z M22,17v6v5.2338867l-8-4.800293v-6.9130859l4-2.8000488V21  c0,0.5522461,0.4477539,1,1,1s1-0.4477539,1-1v-8.6795654l2-1.4000244V17z M32,12h1.5859375l2.7070313,2.7070313  C36.4882813,14.9023438,36.7441406,15,37,15s0.5117188-0.0976563,0.7070313-0.2929688L40.4140625,12H42c1.6542969,0,3-1.3457031,3-3  V5c0-1.6542969-1.3457031-3-3-3H32c-1.6542969,0-3,1.3457031-3,3v4C29,10.6542969,30.3457031,12,32,12z M31,5  c0-0.5512695,0.4482422-1,1-1h10c0.5517578,0,1,0.4487305,1,1v4c0,0.5512695-0.4482422,1-1,1h-2  c-0.130188,0-0.2598877,0.0266113-0.3820801,0.0771484c-0.1227417,0.0507813-0.2334595,0.1240845-0.3258057,0.2166748L37,12.5859375  l-2.2921143-2.2921143c-0.0923462-0.0925903-0.203064-0.1658936-0.3258057-0.2167358C34.2598877,10.0265503,34.130188,10,34,10h-2  c-0.5517578,0-1-0.4487305-1-1V5z M33,7c0-0.5522461,0.4472656-1,1-1h6c0.5527344,0,1,0.4477539,1,1s-0.4472656,1-1,1h-6  C33.4472656,8,33,7.5522461,33,7z M46,22.9970093c0-0.0028076,0-0.0054321,0-0.0081787C46,21.3398438,44.6504517,20,43,20H33  c-1.6504517,0-3,1.3398438-3,2.9888306c0,0.0027466,0,0.0053711,0,0.0081787C30,22.9980469,30,22.9989624,30,23v4  c0,1.6542969,1.3457031,3,3,3h10c1.6542969,0,3-1.3457031,3-3v-4C46,22.9989624,46,22.9980469,46,22.9970093z M33,22h10  c0.3341675,0,0.6159058,0.175354,0.7975464,0.4276733L38,24.9121094l-5.7975464-2.484436C32.3840942,22.175354,32.6658325,22,33,22z   M44,27c0,0.5512695-0.4482422,1-1,1H33c-0.5517578,0-1-0.4487305-1-1v-2.4838257l5.6064453,2.402771  C37.7314453,26.9731445,37.8662109,27,38,27s0.2685547-0.0268555,0.3935547-0.0810547L44,24.5161743V27z M34,34h-8  c-1.6542969,0-3,1.3457031-3,3v6c0,1.6542969,1.3457031,3,3,3h8c1.6542969,0,3-1.3457031,3-3v-6C37,35.3457031,35.6542969,34,34,34z   M35,43c0,0.5512695-0.4482422,1-1,1h-8c-0.5517578,0-1-0.4487305-1-1v-6c0-0.5512695,0.4482422-1,1-1h8  c0.5517578,0,1,0.4487305,1,1V43z M32.4472656,39.1054688l-4-2c-0.3105469-0.1542969-0.6777344-0.1381836-0.9726563,0.0439453  S27,37.6533203,27,38v4c0,0.3466797,0.1796875,0.668457,0.4746094,0.8505859C27.6347656,42.949707,27.8173828,43,28,43  c0.1533203,0,0.3056641-0.0351563,0.4472656-0.1054688l4-2C32.7861328,40.7250977,33,40.3789063,33,40  S32.7861328,39.2749023,32.4472656,39.1054688z M29,40.3818359v-0.7636719L29.7636719,40L29,40.3818359z"></path></svg>