<svg xmlns="http://www.w3.org/2000/svg" viewBox="0 0 120 120" x="0px" y="0px"><title>Shop Online</title><path d="M47.5,40A3.75,3.75,0,0,0,40,40v2.5h7.5Z"></path><polygon points="22.5 75 18.75 85 101.25 85 97.5 75 22.5 75"></polygon><path d="M109.66,88.2l-5.92-15a5.05,5.05,0,0,0-2.34-2.59,5,5,0,0,0,1.1-3.12V30a5,5,0,0,0-5-5h-75a5,5,0,0,0-5,5V67.5a5,5,0,0,0,1.1,3.12,5.05,5.05,0,0,0-2.34,2.59l-5.92,15a4.9,4.9,0,0,0,.51,4.56A5.16,5.16,0,0,0,15.13,95h89.74a5.16,5.16,0,0,0,4.28-2.24A4.9,4.9,0,0,0,109.66,88.2ZM21.5,29h77V68.5h-77Zm52,63.25H49v-4.5H73.5ZM17.31,86l4.5-12H98.19l4.5,12Z"></path><rect x="50" y="88.75" width="22.5" height="2.5"></rect><polygon points="37.41 43.75 36.34 58.75 51.16 58.75 50.09 43.75 37.41 43.75"></polygon><rect x="66.25" y="56.25" width="15" height="2.5"></rect><path d="M22.5,67.5h75V30h-75Zm60-7.5H65V55H82.5Zm9.4-.78-1,.71,1.43,2-2.66,1.86-1.43-2-1,.71-.94-6.34ZM36.25,42.5h2.5V40a5,5,0,0,1,10,0v2.5h2.5L52.5,60H35Z"></path><polygon points="88.47 60.4 89.9 62.45 90.93 61.73 89.49 59.69 90 59.33 87.55 58 87.96 60.76 88.47 60.4"></polygon></svg>