<svg xmlns="http://www.w3.org/2000/svg" xmlns:xlink="http://www.w3.org/1999/xlink" version="1.1" x="0px" y="0px" viewBox="0 0 100 100"  xml:space="preserve"><path d="M11,90.111h78c0.552,0,1-0.447,1-1v-5.036c0-0.553-0.448-1-1-1h-7.794l0.03-9.577C86.149,73.012,90,68.857,90,63.817  c0-5.364-4.364-9.729-9.729-9.729c-2.218,0-4.258,0.754-5.896,2.008V17.123h0.956c0.552,0,1-0.447,1-1v-5.012c0-0.553-0.448-1-1-1  h-50.26c-0.552,0-1,0.447-1,1v5.012c0,0.553,0.448,1,1,1h0.596v39.005c-1.645-1.273-3.701-2.039-5.938-2.039  c-5.365,0-9.729,4.364-9.729,9.729c0,5.015,3.814,9.154,8.694,9.673l-0.03,9.585H11c-0.552,0-1,0.447-1,1v5.036  C10,89.664,10.448,90.111,11,90.111z M74.375,83.075V71.539c1.38,1.056,3.043,1.758,4.861,1.951l-0.03,9.585H74.375z M72.375,54.924  H27.667V51.12h44.708V54.924z M27.667,56.924H58.75v15.219H27.667v-2.718c1.124-1.587,1.792-3.519,1.792-5.607  c0-2.088-0.668-4.02-1.792-5.607V56.924z M27.667,74.143H58.75v8.933H27.667V74.143z M60.75,56.924h11.625v1.232  c-1.149,1.597-1.833,3.549-1.833,5.662c0,2.113,0.685,4.066,1.833,5.663v13.595H60.75V56.924z M80.271,56.089  c4.262,0,7.729,3.467,7.729,7.729c0,3.932-2.954,7.182-6.758,7.662l0.012-3.874l2.664-2.759c0.384-0.396,0.373-1.03-0.024-1.414  s-1.029-0.371-1.414,0.025l-1.217,1.26l0.008-2.74c0.001-0.552-0.445-1.001-0.997-1.003c-0.525,0.037-1.001,0.444-1.003,0.997  l-0.009,2.868l-1.334-1.381c-0.384-0.396-1.016-0.409-1.414-0.025c-0.397,0.384-0.408,1.017-0.024,1.414l2.764,2.862l-0.012,3.762  c-3.776-0.506-6.7-3.741-6.7-7.653C72.542,59.556,76.009,56.089,80.271,56.089z M26.071,12.111h48.26v3.012h-48.26V12.111z   M72.375,17.123V49.12H27.667V17.123H72.375z M12,63.817c0-4.262,3.467-7.729,7.729-7.729c4.262,0,7.729,3.467,7.729,7.729  c0,3.932-2.954,7.182-6.759,7.662l0.012-3.874l2.665-2.76c0.384-0.396,0.373-1.03-0.024-1.414s-1.029-0.371-1.414,0.025l-1.217,1.26  l0.008-2.741c0.001-0.552-0.445-1.001-0.997-1.003c-0.001,0-0.002,0-0.003,0c-0.551,0-0.999,0.445-1,0.997l-0.009,2.867  l-1.334-1.381c-0.383-0.396-1.016-0.409-1.414-0.025c-0.397,0.384-0.408,1.018-0.024,1.414l2.764,2.862L18.7,71.47  C14.924,70.964,12,67.729,12,63.817z M20.694,73.498c1.863-0.184,3.567-0.903,4.973-1.99v11.567h-5.003L20.694,73.498z M12,85.075  h76v3.036H12V85.075z"></path><path d="M69.062,71.21c-0.552,0-1,0.447-1,1v0.933c0,0.553,0.448,1,1,1s1-0.447,1-1V72.21C70.062,71.657,69.615,71.21,69.062,71.21z  "></path><path d="M32.73,69.943c0.195,0.195,0.451,0.293,0.707,0.293s0.512-0.098,0.707-0.293c0.391-0.391,0.391-1.023,0-1.414l-2.125-2.125  c-0.391-0.391-1.023-0.391-1.414,0s-0.391,1.023,0,1.414L32.73,69.943z"></path><path d="M36.587,68.928c0.195,0.195,0.451,0.293,0.707,0.293s0.512-0.098,0.707-0.293c0.391-0.391,0.391-1.023,0-1.414l-5.037-5.037  c-0.391-0.391-1.023-0.391-1.414,0s-0.391,1.023,0,1.414L36.587,68.928z"></path><path d="M44.715,43.325c0.114,0.043,0.235,0.065,0.357,0.065h7.536c0.122,0,0.243-0.022,0.357-0.065  c3.199-1.222,5.824-3.738,7.575-6.999h2.639c2.477,0,4.491-2.015,4.491-4.491s-2.015-4.491-4.491-4.491h-0.3  c0.008-0.241,0.023-0.48,0.023-0.724v-2.768c0-0.553-0.448-1-1-1H35.779c-0.552,0-1,0.447-1,1v2.768  C34.779,34.342,38.772,41.055,44.715,43.325z M52.419,41.391h-7.158c-3.551-1.43-6.326-4.892-7.643-9.18h22.443  C58.745,36.498,55.97,39.961,52.419,41.391z M63.178,29.344c1.374,0,2.491,1.117,2.491,2.491s-1.118,2.491-2.491,2.491h-1.712  c0.611-1.553,1.045-3.226,1.264-4.982H63.178z M36.779,24.853h24.123v1.768c0,1.227-0.119,2.43-0.339,3.591H37.118  c-0.22-1.161-0.339-2.364-0.339-3.591V24.853z"></path></svg>