<svg xmlns="http://www.w3.org/2000/svg" xmlns:xlink="http://www.w3.org/1999/xlink" version="1.1" x="0px" y="0px" viewBox="0 0 91 91"  xml:space="preserve"><g><g><path d="M39.6,62c-0.2,0-0.4-0.1-0.5-0.3c-0.2-0.3-0.1-0.7,0.1-0.9l16.5-11.8c0.3-0.2,0.7-0.1,0.9,0.1c0.2,0.3,0.1,0.7-0.1,0.9    L40,61.9C39.9,62,39.7,62,39.6,62z"></path><path d="M59.4,63.6c-0.2,0-0.4-0.1-0.5-0.3c-0.2-0.3-0.1-0.7,0.1-0.9l16.5-11.8c0.3-0.2,0.7-0.1,0.9,0.1c0.2,0.3,0.1,0.7-0.1,0.9    L59.7,63.5C59.6,63.6,59.5,63.6,59.4,63.6z"></path><path d="M44,67.2c-0.3,0-0.6-0.1-0.8-0.4c-0.3-0.4-0.2-1,0.2-1.3l3-2.2c0.4-0.3,1-0.2,1.3,0.2c0.3,0.4,0.2,1-0.2,1.3l-3,2.2    C44.4,67.1,44.2,67.2,44,67.2z M50.1,62.8c-0.3,0-0.6-0.1-0.8-0.4c-0.3-0.4-0.2-1,0.2-1.3l3-2.2c0.4-0.3,1-0.2,1.3,0.2    c0.3,0.4,0.2,1-0.2,1.3l-3,2.2C50.4,62.7,50.3,62.8,50.1,62.8z M56.1,58.3c-0.3,0-0.6-0.1-0.8-0.4c-0.3-0.4-0.2-1,0.2-1.3l3-2.2    c0.4-0.3,1-0.2,1.3,0.2c0.3,0.4,0.2,1-0.2,1.3l-3,2.2C56.5,58.3,56.3,58.3,56.1,58.3z M62.2,53.9c-0.3,0-0.6-0.1-0.8-0.4    c-0.3-0.4-0.2-1,0.2-1.3l3-2.2c0.4-0.3,1-0.2,1.3,0.2c0.3,0.4,0.2,1-0.2,1.3l-3,2.2C62.6,53.8,62.4,53.9,62.2,53.9z M68.2,49.5    c-0.3,0-0.6-0.1-0.8-0.4c-0.3-0.4-0.2-1,0.2-1.3l1.3-0.9c0.4-0.3,1-0.2,1.3,0.2c0.3,0.4,0.2,1-0.2,1.3l-1.3,0.9    C68.6,49.4,68.4,49.5,68.2,49.5z"></path></g><g><polygon points="39,38.5 39,38.5 39,16.4 30.2,16.4 26.4,38.5   "></polygon><polygon points="50.6,16.4 51.8,38.5 64.7,38.5 64.7,38.5 60.9,16.4   "></polygon><polygon points="77.5,38.5 90.3,38.5 82.8,16.4 71.2,16.4   "></polygon><rect x="8.1" y="10.9" width="74.4" height="3.8"></rect><polygon points="19.8,16.4 8.3,16.4 0.7,38.5 13.6,38.5   "></polygon><path d="M19.9,44.9c3.1,0,5.8-2.2,6.4-5.1H13.4C14.1,42.7,16.7,44.9,19.9,44.9z"></path><path d="M32.7,44.9c3.1,0,5.8-2.2,6.4-5.1H26.3C26.9,42.7,29.6,44.9,32.7,44.9z"></path><path d="M45.5,44.9c3.1,0,5.8-2.2,6.4-5.1H39.1C39.8,42.7,42.4,44.9,45.5,44.9z"></path><path d="M58.4,44.9c3.1,0,5.8-2.2,6.4-5.1H52C52.6,42.7,55.2,44.9,58.4,44.9z"></path><path d="M71.2,44.9c3.1,0,5.8-2.2,6.4-5.1H64.8C65.5,42.7,68.1,44.9,71.2,44.9z"></path><path d="M84.1,39.7h-4.3h-2.2c0.3,1.4,1.1,2.6,2.2,3.5v26.4H34.1v-6.4H21.4v6.4H11.3V43.3c1.1-0.9,1.8-2.1,2.2-3.5h-2.2H7H0.6    c0.7,2.9,3.3,5.1,6.4,5.1v31.9h77V44.9c3.1,0,5.8-2.2,6.4-5.1H84.1z"></path></g><g><path d="M20.2,57.9c0,1.4,0.1,2.6,0.2,3.8c0,0.2,0,0.2-0.2,0.3c-0.2,0.1-0.3,0.1-0.5,0.1c-0.4,0-0.5-0.1-0.5-0.5    c0.2-3-0.1-5.9-1-8.7c-0.4-1.1-0.2-2.2,0.4-3.3c0.4-0.8,0.9-1.4,1.5-2c0.2-0.1,0.3-0.1,0.4,0c0.6,0.5,1,1.1,1.5,1.8    c1.3,1.8,2.6,3.6,3.8,5.5c0.5,0.8,1,1.6,1.5,2.3c0.8,1.1,1.9,1.7,3.3,1.8c0.8,0.1,1.3-0.3,1.5-1.1c0-0.2,0.1-0.2,0.3-0.2    c1.1,0.4,2.2,0.7,3.3,1.3c0.3,0.2,0.6,0.4,0.9,0.7c0.4,0.5,0.3,1-0.2,1.4c-0.6,0.4-1.3,0.6-2,0.8c-1.4,0.3-2.9,0.4-4.4,0.5    c-1.2,0-2.3-0.3-3.2-1.2c-0.5-0.4-0.8-1-1.1-1.6c-0.7-1.3-1.5-2.6-2.5-3.7c-0.4-0.5-0.9-0.9-1.5-1.1c-0.3-0.1-0.5-0.1-0.8-0.1    c-0.2,0-0.4,0.2-0.4,0.4c-0.1,0.4-0.2,0.8-0.2,1.2C20.2,57,20.2,57.5,20.2,57.9z"></path></g><rect x="4.4" y="79.3" width="82.4" height="3.8"></rect></g></svg>