<svg xmlns="http://www.w3.org/2000/svg" xmlns:xlink="http://www.w3.org/1999/xlink" version="1.1" x="0px" y="0px" viewBox="0 0 100 100"  xml:space="preserve"><path d="M58.8163757,44.133606c4.6572876-8.4879761,10.4462891-11.4984131,10.5238037-11.5371704  c0.6181641-0.3061523,0.9482422-0.9946289,0.7998047-1.668457c-0.1494141-0.6743164-0.7392578-1.1591797-1.4287109-1.1757813  c-2.0845947-0.0505981-4.0476074,0.1210938-5.8945923,0.4996948c2.9248657-3.1847534,5.350708-4.4494629,5.3994751-4.4738159  c0.6181641-0.3061523,0.9482422-0.9946289,0.7998047-1.668457c-0.1494141-0.6743164-0.7392578-1.1591797-1.4287109-1.1757813  c-2.78125-0.06073-5.3439941,0.2753296-7.6854248,1.0007935c3.0637817-3.5584717,5.7283936-4.9495239,5.7781982-4.9744263  c0.6181641-0.3061523,0.9482422-0.9946289,0.7998047-1.668457c-0.1494141-0.6743164-0.7392578-1.1591797-1.4287109-1.1757813  c-6.3980103-0.1521606-11.5935669,1.8870239-15.5227661,6.0596313c-3.9352417-4.1738281-9.1541748-6.2156982-15.5206909-6.0596313  c-0.6904297,0.0166016-1.2797852,0.5014648-1.4291992,1.1757813c-0.1489258,0.6738281,0.1811523,1.3623047,0.800293,1.668457  c0.052063,0.0257568,2.7348633,1.4029541,5.8129272,4.9849243c-2.3539429-0.7350464-4.9299927-1.0740967-7.7206421-1.0112915  c-0.6899414,0.0166016-1.2797852,0.5014648-1.4291992,1.1757813c-0.1489258,0.6738281,0.1811523,1.3623047,0.800293,1.668457  c0.0508423,0.0252075,2.4926758,1.2780762,5.4310913,4.4796753c-1.8582153-0.3843994-3.8320923-0.5584717-5.9262085-0.5055542  c-0.6904297,0.0166016-1.2797852,0.5014648-1.4291992,1.1757813c-0.1489258,0.6738281,0.1811523,1.3623047,0.800293,1.668457  c0.0800781,0.0394897,5.87323,3.0059204,10.5350952,11.5317383c-7.3185425,3.1325684-12.4608765,10.40271-12.4608765,18.8540039  v14.5146484c0,11.3037109,9.1962891,20.5,20.5,20.5h2.4736328c11.3037109,0,20.5-9.1962891,20.5-20.5V62.9821777  C71.2659607,54.5353394,66.1288147,47.2688599,58.8163757,44.133606z M56.2420349,65.6477051l4.5917969,4.5917969  l-4.5917969,4.5917969L51.650238,70.239502L56.2420349,65.6477051z M49.5291443,68.1184082l-4.5917969-4.5917969  l4.5917969-4.5917969l4.5917969,4.5917969L49.5291443,68.1184082z M51.650238,56.8137207l4.5917969-4.5917969l4.5917969,4.5917969  l-4.5917969,4.5917969L51.650238,56.8137207z M56.2420349,47.9797363l-2.175293-2.175293  c1.1618042,0.2229004,2.28302,0.5581055,3.3515015,0.9990845L56.2420349,47.9797363z M54.1209412,50.1008301l-4.5917969,4.5917969  l-4.5917969-4.5917969l4.5917969-4.5917969L54.1209412,50.1008301z M42.8162537,47.9797363l-1.1762085-1.1762085  c1.0684814-0.440979,2.1896973-0.7761841,3.3515015-0.9990845L42.8162537,47.9797363z M42.8162537,52.2219238l4.5917969,4.5917969  l-4.5917969,4.5917969l-4.5917969-4.5917969L42.8162537,52.2219238z M47.4080505,70.239502l-4.5917969,4.5917969  l-4.5917969-4.5917969l4.5917969-4.5917969L47.4080505,70.239502z M40.6951599,76.9523926l-4.5917969,4.5917969  l-4.5917969-4.5917969l4.5917969-4.5917969L40.6951599,76.9523926z M42.8162537,79.0734863l4.5917969,4.5917969  l-4.5917969,4.5917969l-4.5917969-4.5917969L42.8162537,79.0734863z M44.9373474,76.9523926l4.5917969-4.5917969  l4.5917969,4.5917969l-4.5917969,4.5917969L44.9373474,76.9523926z M56.2420349,79.0734863l4.5917969,4.5917969  l-4.5917969,4.5917969l-4.5917969-4.5917969L56.2420349,79.0734863z M58.3631287,76.9523926l4.5917969-4.5917969  l4.5917969,4.5917969l-4.5917969,4.5917969L58.3631287,76.9523926z M58.3631287,63.5266113l4.5917969-4.5917969l4.5917969,4.5917969  l-4.5917969,4.5917969L58.3631287,63.5266113z M60.1987,48.2652588c1.8387451,1.1826782,3.4365845,2.6992188,4.7191162,4.4644775  l-1.9628906,1.9628906l-4.5917969-4.5917969L60.1987,48.2652588z M51.5081482,24.4509277  c2.2626953-2.472168,5.0546875-4.09375,8.3388672-4.8496094c-1.7815552,1.6668701-3.8587646,4.0431519-5.7869263,7.298645  c-0.2722778,0.2030029-0.5418091,0.4105225-0.8049316,0.6290894c-0.5249634-1.0238037-1.1293945-2.0299683-1.8150024-2.9984741  C51.4637146,24.5045166,51.4844055,24.4768677,51.5081482,24.4509277z M53.388031,31.545166  c2.4277344-2.6616211,5.4384766-4.3862305,8.9902344-5.1552734c-1.499939,1.3806152-3.2158203,3.2595215-4.8949585,5.7167358  c-1.9743652,1.0111084-3.7652588,2.3405762-5.3624878,3.9960938c-0.2641602-0.5844727-0.552063-1.1663818-0.8625488-1.7451172  C51.8773499,33.3823853,52.5784607,32.4328003,53.388031,31.545166z M53.8548279,38.6408691  c2.5927734-2.8515625,5.8222656-4.6782227,9.6425781-5.4594727c-2.3004761,2.0856934-5.1212769,5.3036499-7.5913696,9.9793091  c-1.4556274-0.3779297-2.9698486-0.6015015-4.5311279-0.6477051c-0.0432739-0.0877686-0.0924683-0.1743164-0.1367798-0.2619629  C51.9725037,40.9915161,52.8318787,39.7659302,53.8548279,38.6408691z M47.5486755,24.4499512  c1.4788818,1.6154785,2.5999146,3.4433594,3.4544067,5.2709351c-0.385437,0.4343262-0.7631836,0.8816528-1.1238403,1.3574829  c-0.1231689,0.1625366-0.2319336,0.3323975-0.3502808,0.4974976c-0.1192017-0.1662598-0.2287598-0.3372192-0.3528442-0.5009155  c-1.243103-1.6395264-2.6396484-3.0258789-4.1768188-4.171936c-1.9285889-3.2566528-4.0062866-5.6339722-5.7880249-7.3012085  C42.4944763,20.3571777,45.2864685,21.9782715,47.5486755,24.4499512z M45.669281,31.5446777  c1.9889526,2.1802979,3.3603516,4.7194214,4.3063354,7.1507568c-0.1514282,0.2104492-0.3029785,0.4206543-0.4469604,0.6346436  c-0.2532959-0.3764038-0.5097046-0.7515869-0.7861328-1.1164551c-2.0153198-2.6603394-4.4130859-4.6936646-7.166748-6.1051025  c-1.6795044-2.4581909-3.395874-4.3376465-4.8962402-5.7186279C40.2303162,27.1594238,43.2415466,28.8830566,45.669281,31.5446777z   M35.5603943,33.1813965c3.8203125,0.7817383,7.0512695,2.6083984,9.644043,5.4604492  c1.0893555,1.1984863,1.9933472,2.5108643,2.757019,3.8571167c-1.6600342,0.0267334-3.2669067,0.2612915-4.8096313,0.6618652  C40.6817322,38.4851074,37.8608704,35.2670898,35.5603943,33.1813965z M38.8595886,48.2652588l1.8355713,1.8355713  L36.103363,54.692627l-1.9628906-1.9628906C35.4230042,50.9644775,37.0208435,49.447937,38.8595886,48.2652588z   M36.103363,58.9348145l4.5917969,4.5917969l-4.5917969,4.5917969l-4.5917969-4.5917969L36.103363,58.9348145z   M32.5523987,55.3838501l1.4298706,1.4298706l-2.8676758,2.8676758  C31.4047546,58.1687622,31.8988342,56.7319336,32.5523987,55.3838501z M30.7923279,67.0495605l3.1899414,3.1899414  l-3.1899414,3.1899414V67.0495605z M32.5523987,85.0951538c-0.6535645-1.3480835-1.147644-2.7849121-1.4378052-4.2975464  l2.8676758,2.8676758L32.5523987,85.0951538z M38.8595886,92.2137451c-1.8387451-1.1826782-3.4365845-2.6992188-4.7191162-4.4644775  l1.9628906-1.9628906l4.5917969,4.5917969L38.8595886,92.2137451z M41.6400452,93.6754761l1.1762085-1.1762085l2.175293,2.175293  C43.8297424,94.4516602,42.7085266,94.1164551,41.6400452,93.6754761z M49.5291443,94.9699707l-4.5917969-4.5917969  l4.5917969-4.5917969l4.5917969,4.5917969L49.5291443,94.9699707z M54.0667419,94.6745605l2.175293-2.175293l1.1762085,1.1762085  C56.349762,94.1164551,55.2285461,94.4516602,54.0667419,94.6745605z M60.1987,92.2137451l-1.8355713-1.8355713l4.5917969-4.5917969  l1.9628906,1.9628906C63.6352844,89.5145264,62.0374451,91.0310669,60.1987,92.2137451z M66.5058899,85.0951538  l-1.4298706-1.4298706l2.8676758-2.8676758C67.6535339,82.3102417,67.1594543,83.7470703,66.5058899,85.0951538z   M68.2659607,73.4294434l-3.1899414-3.1899414l3.1899414-3.1899414V73.4294434z M66.5058899,55.3838501  c0.6535645,1.3480835,1.147644,2.7849121,1.4378052,4.2975464l-2.8676758-2.8676758L66.5058899,55.3838501z M43.2059021,6.4455566  c0-0.8286133,0.6713867-1.5,1.5-1.5h2.2875977V2.6584473c0-0.8286133,0.6713867-1.5,1.5-1.5c0.828125,0,1.5,0.6713867,1.5,1.5  v2.2871094h2.2871094c0.828125,0,1.5,0.6713867,1.5,1.5s-0.671875,1.5-1.5,1.5h-2.2871094v2.2871094  c0,0.8286133-0.671875,1.5-1.5,1.5c-0.8286133,0-1.5-0.6713867-1.5-1.5V7.9455566h-2.2875977  C43.8772888,7.9455566,43.2059021,7.2741699,43.2059021,6.4455566z M88.4143982,61.4489746c0,0.828125-0.671875,1.5-1.5,1.5  h-2.2880859v2.2871094c0,0.828125-0.671875,1.5-1.5,1.5s-1.5-0.671875-1.5-1.5v-2.2871094h-2.2871094  c-0.828125,0-1.5-0.671875-1.5-1.5s0.671875-1.5,1.5-1.5h2.2871094V57.661377c0-0.8286133,0.671875-1.5,1.5-1.5  s1.5,0.6713867,1.5,1.5v2.2875977h2.2880859C87.7425232,59.9489746,88.4143982,60.6208496,88.4143982,61.4489746z   M25.6453552,93.5544434c0,0.828125-0.6713867,1.5-1.5,1.5h-2.2871094v2.2871094c0,0.828125-0.6713867,1.5-1.5,1.5  s-1.5-0.671875-1.5-1.5v-2.2871094h-2.2875977c-0.8286133,0-1.5-0.671875-1.5-1.5s0.6713867-1.5,1.5-1.5h2.2875977V89.767334  c0-0.828125,0.6713867-1.5,1.5-1.5s1.5,0.671875,1.5,1.5v2.2871094h2.2871094  C24.9739685,92.0544434,25.6453552,92.7263184,25.6453552,93.5544434z M15.4744568,34.1246948  c0-1.4647827,1.187439-2.6522217,2.6522217-2.6522217s2.6522217,1.187439,2.6522217,2.6522217  s-1.187439,2.6522217-2.6522217,2.6522217S15.4744568,35.5894775,15.4744568,34.1246948z M76.9043884,95.6802979  c0,1.4647827-1.187439,2.6522217-2.6521606,2.6522217c-1.4647827,0-2.6522217-1.187439-2.6522217-2.6522217  s1.187439-2.6522217,2.6522217-2.6522217C75.7169495,93.0280762,76.9043884,94.2155151,76.9043884,95.6802979z   M79.4745178,28.5691528c0-1.4647827,1.187439-2.6522217,2.6522217-2.6522217s2.6522217,1.187439,2.6522217,2.6522217  s-1.187439,2.6522217-2.6522217,2.6522217S79.4745178,30.0339355,79.4745178,28.5691528z M14.2378235,65.9991455  c-1.4647827,0-2.6522217-1.187439-2.6522217-2.6522217s1.187439-2.6522217,2.6522217-2.6522217  s2.6522217,1.187439,2.6522217,2.6522217S15.7026062,65.9991455,14.2378235,65.9991455z"></path></svg>