<svg xmlns="http://www.w3.org/2000/svg" xmlns:xlink="http://www.w3.org/1999/xlink" version="1.1" x="0px" y="0px" viewBox="0 0 96 96" enable-background="new 0 0 96 96" xml:space="preserve"><path d="M60,72h12v24H60V72z"></path><path d="M24,72h12v24H24V72z"></path><path d="M72,41.756c-3.264,0-6.172-1.452-8-3.888c-1.828,2.428-4.736,4.072-8,4.072s-6.172-1.544-8-3.976  c-1.828,2.432-4.732,4.02-8,4.02s-6.172-1.572-8-4c-1.828,2.428-4.732,4.008-8,4.008s-6.172-1.572-8-4C14.172,40.42,11.268,42,8,42  v52c0,1.1,0.896,2,2,2h10V70c0-1.1,0.896-2,2-2h16c1.104,0,2,0.9,2,2v26h16V70c0-1.1,0.9-2,2-2h16c1.1,0,2,0.9,2,2v26h10  c1.1,0,2-0.9,2-2c0,0,0-50.436,0-52.948c-3.084,0-6.632-0.916-8.221-3.252C77.943,40.072,75.141,41.756,72,41.756z M72,58  c0,1.1-0.9,2-2,2H26c-1.104,0-2-0.9-2-2v-8c0-1.1,0.896-2,2-2h44c1.1,0,2,0.9,2,2V58z"></path><path d="M28,52h40v4H28V52z"></path><path d="M85.884,1.328C85.6,0.532,84.852,0,84,0H11.876c-0.848,0-1.604,0.536-1.888,1.336L4,18.316V32c0,3.252,1.832,6,4,6  c3.308,0,6-2.692,6-6c0-1.1,0.896-2,2-2s2,0.9,2,2c0,3.308,2.692,6,6,6s6-2.692,6-6c0-1.1,0.896-2,2-2s2,0.9,2,2  c0,3.308,2.692,6,6,6s6-2.692,6-6c0-1.1,0.896-2,2-2c1.104,0,2,0.9,2,2c0,3.308,2.691,6,6,6s6-2.692,6-6c0-1.1,0.9-2,2-2s2,0.9,2,2  c0,3.308,2.691,6,6,6s6-2.692,6-6c0-1.1,0.9-2,2-2s2,0.9,2,2c0,2.764,1.309,6,5,6s5-3.236,5-6V18.456L85.884,1.328z"></path></svg>