<svg xmlns="http://www.w3.org/2000/svg" xmlns:xlink="http://www.w3.org/1999/xlink" version="1.1" x="0px" y="0px" viewBox="0 0 100 100"  xml:space="preserve"><g><path d="M9,21h14.3l6.5,35.2c0.2,1.2,0.8,2.3,1.6,3.1c1.1,1.1,2.6,1.7,4.2,1.7H77c1.8,0,2.9-1.8,3-3.2l6-25.6   c0-0.1,0.1-0.3,0.1-0.5c0-1.3-0.9-2.8-3-2.8H38.2c-1.1,0-2,0.9-2,2s0.9,2,2,2h43.5l-5.6,24H35.6c-0.5,0-1-0.2-1.3-0.6   c-0.3-0.3-0.5-0.6-0.5-1L27,18.6c-0.2-0.9-1-1.6-2-1.6H9c-1.1,0-2,0.9-2,2S7.9,21,9,21z M76,57.4C76,57.4,76,57.4,76,57.4   C76,57.4,76,57.4,76,57.4L76,57.4z"></path><path d="M70.3,67c-4.6,0-8.3,3.8-8.3,8.5s3.7,8.5,8.3,8.5s8.3-3.8,8.3-8.5S74.9,67,70.3,67z M70.3,80c-2.3,0-4.3-2-4.3-4.5   S68,71,70.3,71s4.3,2,4.3,4.5S72.7,80,70.3,80z"></path><path d="M31.1,75.5c0,4.7,3.7,8.5,8.3,8.5s8.3-3.8,8.3-8.5S43.9,67,39.3,67S31.1,70.8,31.1,75.5z M43.6,75.5c0,2.5-1.9,4.5-4.3,4.5   s-4.3-2-4.3-4.5S37,71,39.3,71S43.6,73,43.6,75.5z"></path></g></svg>