<svg xmlns="http://www.w3.org/2000/svg" xmlns:xlink="http://www.w3.org/1999/xlink" version="1.1" x="0px" y="0px" viewBox="0 0 48 48" enable-background="new 0 0 48 48" xml:space="preserve"><g><g><path  d="M45.5,47.5H2.5c-1.1,0-2-0.9-2-2V2.5c0-1.1,0.9-2,2-2h43.1c1.1,0,2,0.9,2,2v43.1    C47.5,46.6,46.6,47.5,45.5,47.5z M4.4,43.6h39.2V4.4H4.4V43.6z"></path></g><g><g><path  d="M37.7,18c-3.1,0-6.1-1.2-8.4-3.5c-0.8-0.8-0.8-2,0-2.8c0.8-0.8,2-0.8,2.8,0c3.1,3.1,8.2,3.1,11.3,0     c0.8-0.8,2-0.8,2.8,0c0.8,0.8,0.8,2,0,2.8C43.8,16.8,40.7,18,37.7,18z"></path></g><g><path  d="M23.6,18c-3.1,0-6.1-1.2-8.4-3.5c-0.8-0.8-0.8-2,0-2.8c0.8-0.8,2-0.8,2.8,0c3.1,3.1,8.2,3.1,11.3,0     c0.8-0.8,2-0.8,2.8,0c0.8,0.8,0.8,2,0,2.8C29.7,16.8,26.6,18,23.6,18z"></path></g><g><path  d="M9.5,18c-3.1,0-6.1-1.2-8.4-3.5c-0.8-0.8-0.8-2,0-2.8c0.8-0.8,2-0.8,2.8,0c3.1,3.1,8.2,3.1,11.3,0     c0.8-0.8,2-0.8,2.8,0c0.8,0.8,0.8,2,0,2.8C15.6,16.8,12.6,18,9.5,18z"></path></g></g><g><path  d="M30.5,47.5h-13c-1.1,0-2-0.9-2-2V33.7c0-4.7,3.8-8.5,8.5-8.5s8.5,3.8,8.5,8.5v11.8    C32.5,46.6,31.6,47.5,30.5,47.5z M19.5,43.6h9.1v-9.9c0-2.5-2-4.5-4.5-4.5s-4.5,2-4.5,4.5V43.6z"></path></g></g></svg>