<svg xmlns="http://www.w3.org/2000/svg" xmlns:xlink="http://www.w3.org/1999/xlink" version="1.1" x="0px" y="0px" viewBox="0 0 100 100" enable-background="new 0 0 100 100" xml:space="preserve"><path d="M70.279,18.06c-0.017-0.276-0.314-0.506-0.586-0.46l-4.743,0.835c-0.103-2.997-0.274-6.034-0.869-8.98  c-0.301-1.491-0.984-5.002-3.17-4.718c-1.459,0.19-2.223,2.425-2.65,3.562c-1.048,2.785-1.65,5.746-2.192,8.664l-1.085-0.715  c-0.185-0.121-0.425-0.108-0.596,0.033l-8.664,7.21c-0.37-3.309-0.863-6.615-1.592-9.865c-0.397-1.773-0.86-3.546-1.532-5.237  c-0.459-1.156-1.042-2.506-2.077-3.268c-2.642-1.945-4.01,2.877-4.389,4.564c-0.771,3.442-0.993,7.016-1.137,10.531  c-0.166,4.065-0.167,8.144-0.012,12.21l-10.644,8.858c-0.104,0.086-0.178,0.243-0.18,0.377l-0.689,50.565  c-0.003,0.229,0.211,0.475,0.439,0.503l22.213,2.739c0.145,0.021,0.32-0.043,0.422-0.15l26.693-27.907  c0.097-0.101,0.146-0.238,0.138-0.377L70.279,18.06z M64.021,23.795l-4.367,4.894l0.42-8.382l3.906-0.688  C64.013,21.006,64.025,22.411,64.021,23.795z M58.594,29.878l-3.833,4.296c0.572-5.453,1.271-10.886,2.054-15.523l2.267,1.494  L58.594,29.878z M45.458,45.036l0.22,48.042l-1.234-2.154l-6.481-11.318l0.725-39.91l5.589,4.409L45.458,45.036z M24.489,91.073  l0.668-49.002l12.538-2.767l-0.731,40.209L24.489,91.073z M68.448,18.834l-3.421,3.835c-0.003-1.064-0.018-2.145-0.046-3.224  L68.448,18.834z M61.06,5.726c1.568,0.047,1.995,3.476,2.178,4.534c0.476,2.752,0.624,5.563,0.714,8.35l-4.247,0.748l-2.703-1.781  C58.221,10.669,59.628,5.776,61.06,5.726C61.27,5.732,59.628,5.776,61.06,5.726z M54.743,17.286l1.13,0.745  c-0.982,5.557-1.733,11.974-2.268,17.439l-7.708,8.639l-7.381-5.823c-0.103-0.081-0.285-0.125-0.417-0.096l-11.534,2.546  L54.743,17.286z M38.63,6.127c2.018-2.102,3.718,4.62,3.97,5.562c1.096,4.105,1.76,8.347,2.202,12.57l-8.842,7.358  C35.735,24.709,35.83,9.046,38.63,6.127C38.889,5.857,35.83,9.046,38.63,6.127z M25.103,91.869l12.236-11.34l7.917,13.826  L25.103,91.869z M46.681,93.732l-0.146-31.927l-0.077-16.823l6.986-7.83c-0.401,4.29-0.658,7.813-0.778,9.57l0.998,0.068  c0.234-3.439,0.547-7.165,0.923-10.92l9.423-10.561c-0.044,3.862-0.201,7.426-0.35,9.723l0.998,0.064  c0.029-0.451,0.331-5.265,0.366-10.924l4.333-4.857l3.011,47.561L46.681,93.732z"></path></svg>