<svg xmlns="http://www.w3.org/2000/svg" data-name="Layer 3" viewBox="0 0 64 64" x="0px" y="0px"><rect x="19" y="15" width="2" height="2"></rect><path d="M21,10a7,7,0,0,1,14,0v1h2V10a9,9,0,0,0-18,0v1h2Z"></path><rect x="35" y="15" width="2" height="2"></rect><path d="M36,33H23V51H37V34A1,1,0,0,0,36,33Zm-1,9a1,1,0,0,1-1,1H26a1,1,0,0,1-1-1V36a1,1,0,0,1,1-1h8a1,1,0,0,1,1,1Z"></path><rect x="27" y="37" width="6" height="4"></rect><path d="M35,23V21.278a2,2,0,1,0,2,0V23Z"></path><path d="M19,54a1,1,0,0,0,1,1H37V53H20A1,1,0,0,0,19,54Z"></path><path d="M21,51V33a2,2,0,0,0-2,2V51.184A2.966,2.966,0,0,1,20,51Z"></path><path d="M40,23a4,4,0,1,1-5-3.858V17H21v2.142a4,4,0,1,1-2,0V17H10V61H46V17H37v2.142A4,4,0,0,1,40,23ZM39,52v4a1,1,0,0,1-1,1H20a3,3,0,0,1-3-3V35a4,4,0,0,1,4-4H36a3,3,0,0,1,3,3Z"></path><path d="M48,17V59.586l2.293-2.293a1,1,0,0,1,1.414,0L54,59.586V17Z"></path><rect x="21" y="11" width="14" height="4"></rect><path d="M17,11a3,3,0,0,0-3,3v1h5V11Z"></path><path d="M47,15h3V12a1,1,0,0,0-1-1H37v4Z"></path><path d="M18,23a2,2,0,1,0,3-1.722V23H19V21.278A1.993,1.993,0,0,0,18,23Z"></path></svg>