<svg xmlns="http://www.w3.org/2000/svg" xmlns:xlink="http://www.w3.org/1999/xlink" version="1.1" x="0px" y="0px" viewBox="0 0 100 100" enable-background="new 0 0 100 100" xml:space="preserve"><g><g><path fill-rule="evenodd" clip-rule="evenodd" d="M41.188,72.415c0-2.516-2.079-4.482-4.479-4.482c-2.479,0-4.48,1.967-4.48,4.482    c0,2.467,2.001,4.438,4.48,4.438C39.109,76.853,41.188,74.882,41.188,72.415L41.188,72.415z M72.512,23.147v8.965h-4.313H14.247    l1.322,4.553h53.945v4.729H16.896l6.3,22.045h49.316l4.46-31.139v-0.104v-0.084v-4.477l8.947-0.068v-4.42H72.512z M63.561,72.415    c0-2.516-1.985-4.482-4.473-4.482c-2.497,0-4.48,1.967-4.48,4.482c0,2.467,1.983,4.438,4.48,4.438    C61.575,76.853,63.561,74.882,63.561,72.415L63.561,72.415z"></path></g><g><path d="M59.088,77.353c-2.793,0-4.98-2.169-4.98-4.938c0-2.794,2.188-4.982,4.98-4.982c2.788,0,4.973,2.188,4.973,4.982    C64.061,75.138,61.83,77.353,59.088,77.353z M59.088,68.433c-2.232,0-3.98,1.749-3.98,3.982c0,2.208,1.748,3.938,3.98,3.938    c2.228,0,3.973-1.729,3.973-3.938C63.061,70.182,61.315,68.433,59.088,68.433z M36.709,77.353c-2.746,0-4.98-2.215-4.98-4.938    c0-2.794,2.188-4.982,4.98-4.982c2.746,0,4.979,2.235,4.979,4.982C41.688,75.092,39.408,77.353,36.709,77.353z M36.709,68.433    c-2.232,0-3.98,1.749-3.98,3.982c0,2.171,1.785,3.938,3.98,3.938c2.157,0,3.979-1.803,3.979-3.938    C40.688,70.219,38.903,68.433,36.709,68.433z M72.945,63.938H22.818l-6.586-23.045h52.782v-3.729h-53.82l-1.613-5.553h58.431    v-8.965h14.407v5.416l-8.947,0.068V32.3L72.945,63.938z M23.572,62.938h48.506l4.398-30.71l-0.005-0.032V27.14l8.947-0.068v-3.424    H73.012v8.965H14.913l1.031,3.553h54.07v5.729H17.559L23.572,62.938z"></path></g></g></svg>