<svg xmlns="http://www.w3.org/2000/svg" xmlns:xlink="http://www.w3.org/1999/xlink" version="1.1" x="0px" y="0px" viewBox="0 0 100 100"  xml:space="preserve"><g><path d="M47.2,70.2c0.9,0.2,1.9,0.3,2.8,0.3c6.5,0,11.8-5.3,11.8-11.8c0-0.9-0.1-1.9-0.3-2.8c-1-4.2-4.3-7.5-8.5-8.6   c-1-0.2-2-0.4-2.9-0.4c-6.5,0-11.8,5.3-11.8,11.8c0,1,0.1,2,0.4,3C39.7,65.9,43,69.1,47.2,70.2z"></path><path d="M61.2,15c0-0.4-0.3-0.8-0.8-0.8h-5.7h-9.6h-5.7c-0.4,0-0.8,0.3-0.8,0.8v4.5h22.5V15z"></path><path d="M53.2,5h-6.4c-0.3,0-0.6,0.3-0.6,0.6v6c0,0.3,0.3,0.6,0.6,0.6h6.4c0.3,0,0.6-0.3,0.6-0.6v-6C53.8,5.3,53.5,5,53.2,5z    M51,9.1c0,0.6-0.5,1-1,1s-1-0.5-1-1v-1c0-0.6,0.5-1,1-1s1,0.5,1,1V9.1z"></path><path d="M37.1,63.8l-6.3,6.3v15.7L45,71.6C41.4,70.2,38.6,67.4,37.1,63.8z"></path><path d="M62.9,21.5h-0.6H37.7h-0.6c-3.5,0-6.3,2.8-6.3,6.3v39.5l5.7-5.7c-0.2-1-0.3-1.9-0.3-2.9c0-7.6,6.2-13.8,13.8-13.8   c1,0,1.9,0.1,2.9,0.3l16.3-16.3v-1.2C69.2,24.3,66.4,21.5,62.9,21.5z"></path><path d="M62.9,53.7l6.3-6.3V31.8L55.1,45.9C58.7,47.3,61.5,50.1,62.9,53.7z"></path><path d="M63.8,58.7c0,7.6-6.2,13.8-13.8,13.8c-0.9,0-1.8-0.1-2.7-0.3L30.8,88.7v4.6c0,0.9,0.7,1.7,1.7,1.7h35   c0.9,0,1.7-0.7,1.7-1.7V50.4L63.5,56C63.7,56.9,63.8,57.8,63.8,58.7z"></path></g></svg>