<svg xmlns="http://www.w3.org/2000/svg" xmlns:xlink="http://www.w3.org/1999/xlink" version="1.1" x="0px" y="0px" viewBox="0 0 96 96" enable-background="new 0 0 96 96" xml:space="preserve"><g><path d="M48.885,35.024H17.386v21.712h31.499V35.024z M47.004,54.857H19.267V36.904h27.737V54.857z"></path><rect x="23.061" y="38.897" transform="matrix(0.7068 0.7074 -0.7074 0.7068 36.1306 -4.92)" width="1.88" height="4.468"></rect><rect x="25.553" y="37.299" transform="matrix(0.7071 0.7071 -0.7071 0.7071 38.3728 -6.0543)" width="1.882" height="11.988"></rect><path d="M65.804,30.442v-5.505h-3.21L53.684,8H22.976l-8.91,16.938h-3.21v6.05h1.777v51.607H8.386V88h59.887v-5.405h-4.245V64.741   h23.587V48.136v-1.088V30.442H65.804z M62.146,81.654h-4.261V64.872H45.996v16.782H14.515V30.991h47.631V81.654z M63.923,29.11   H12.735v-2.292h51.188V29.11z M76.971,32.947l0.254,0.143c-0.006,0.011-0.502,0.903-0.038,1.259   c0.664,0.509,0.064,1.589,0.038,1.634l-0.254-0.143c0.004-0.011,0.501-0.904,0.038-1.26C76.343,34.072,76.943,32.992,76.971,32.947   z M74.817,32.947l0.254,0.143c-0.004,0.011-0.501,0.903-0.037,1.259c0.664,0.509,0.063,1.589,0.037,1.634l-0.254-0.143   c0.005-0.011,0.502-0.904,0.038-1.26C74.19,34.072,74.792,32.992,74.817,32.947z M72.561,32.947l0.254,0.143   c-0.004,0.011-0.501,0.903-0.038,1.259c0.665,0.509,0.064,1.589,0.038,1.634l-0.254-0.143c0.005-0.011,0.502-0.904,0.037-1.26   C71.934,34.072,72.535,32.992,72.561,32.947z M77.549,50.654c-0.016-0.028-0.043-0.058-0.115-0.064   c-0.148-0.013-0.264-0.083-0.334-0.201c-0.234-0.4,0.141-1.266,0.219-1.436l0.256,0.116c-0.168,0.366-0.351,0.975-0.231,1.177   c0.017,0.027,0.042,0.057,0.114,0.063c0.149,0.013,0.264,0.083,0.334,0.202c0.234,0.399-0.14,1.266-0.217,1.436l-0.256-0.117   C77.485,51.462,77.668,50.856,77.549,50.654z M70.839,45.631c-0.588-0.101-1.04-0.22-1.3-0.354   c-1.21-0.215-2.131-0.495-2.131-0.804H81.92c0,0.309-0.921,0.589-2.132,0.804c-0.26,0.134-0.711,0.253-1.299,0.354H70.839z    M75.097,50.654c-0.016-0.028-0.042-0.058-0.113-0.064c-0.149-0.013-0.267-0.083-0.335-0.201c-0.234-0.4,0.14-1.266,0.218-1.436   l0.256,0.116c-0.167,0.366-0.35,0.975-0.23,1.177c0.016,0.027,0.043,0.057,0.115,0.063c0.147,0.013,0.264,0.083,0.333,0.202   c0.234,0.399-0.14,1.266-0.218,1.436l-0.256-0.117C75.033,51.462,75.216,50.856,75.097,50.654z M72.754,50.654   c-0.016-0.028-0.042-0.058-0.114-0.064c-0.148-0.013-0.264-0.083-0.334-0.201c-0.234-0.4,0.141-1.266,0.218-1.436l0.255,0.116   c-0.167,0.366-0.349,0.975-0.23,1.177c0.018,0.027,0.043,0.057,0.115,0.063c0.148,0.013,0.265,0.083,0.335,0.202   c0.233,0.399-0.142,1.266-0.22,1.436l-0.255-0.117C72.69,51.462,72.873,50.856,72.754,50.654z M80.445,62.401   c-0.273,0.166-0.749,0.313-1.367,0.437h-8.057c-0.619-0.124-1.096-0.271-1.369-0.437c-1.274-0.264-2.244-0.612-2.244-0.99h15.283   C82.691,61.789,81.722,62.138,80.445,62.401z M80.285,60.03c-0.25,0-0.496-0.029-0.73-0.081c-0.281,0.464-0.634,0.904-1.074,1.304   h-6.828c-3.235-2.926-1.756-8.128-1.74-8.179l0.028-0.103h2.625v2.741h-0.739l-0.242,2.268h2.427l-0.242-2.268h-0.739v-2.741h7.163   l0.028,0.103c0.002,0.004,0.014,0.047,0.032,0.117c0.011,0,0.021,0,0.032,0c1.886,0,3.419,1.533,3.419,3.417   C83.704,58.495,82.171,60.03,80.285,60.03z M81.049,42.298c-0.243,0-0.479-0.036-0.704-0.098c-0.29,0.762-0.742,1.497-1.439,2.116   l-0.035,0.032h-7.955l-0.036-0.032c-2.929-2.605-1.599-7.277-1.586-7.324l0.027-0.089h11.146l0.025,0.089   c0.001,0.002,0.006,0.021,0.015,0.051c0.176-0.036,0.357-0.055,0.543-0.055c1.465,0,2.655,1.19,2.655,2.653   C83.704,41.107,82.514,42.298,81.049,42.298z"></path><path d="M80.375,53.757c0.215,1.154,0.475,3.57-0.536,5.67c0.146,0.023,0.294,0.04,0.446,0.04c1.574,0,2.855-1.282,2.855-2.858   C83.141,55.064,81.907,53.806,80.375,53.757z"></path><path d="M81.049,37.281c-0.162,0-0.321,0.015-0.476,0.047c0.167,0.768,0.479,2.73-0.131,4.596c0.194,0.051,0.397,0.081,0.606,0.081   c1.303,0,2.363-1.06,2.363-2.363C83.412,38.341,82.352,37.281,81.049,37.281z"></path><path d="M74.979,38.149l-0.014-0.003v-0.015l-0.073,0.009l-0.074-0.009v0.015l-0.013,0.003c-0.811,0.085-1.423,1.148-1.423,2.475   c0,1.327,0.612,2.393,1.423,2.478h0.013v0.018l0.074-0.009l0.073,0.009v-0.018h0.014c0.811-0.085,1.422-1.15,1.422-2.478   C76.401,39.298,75.79,38.234,74.979,38.149z M74.675,42.774c-0.563-0.2-0.999-1.107-0.999-2.15c0-1.039,0.436-1.947,0.999-2.147   V42.774z M75.11,42.774v-4.298c0.563,0.2,0.999,1.108,0.999,2.147C76.109,41.667,75.674,42.574,75.11,42.774z"></path></g></svg>