<svg xmlns="http://www.w3.org/2000/svg" xmlns:xlink="http://www.w3.org/1999/xlink" version="1.1" viewBox="0 0 96 96" x="0px" y="0px"><path d="M86 96h-76c-1.104 0-2-0.9-2-2v-54c0-1.1 0.896-2 2-2s2 0.9 2 2v52h72v-52c0-1.1 0.9-2 2-2s2 0.9 2 2v54c0 1.1-0.9 2-2 2z" ></path><path d="M66 94c-1.1 0-2-0.9-2-2v-32h-32v32c0 1.1-0.896 2-2 2s-2-0.9-2-2v-34c0-1.1 0.896-2 2-2h36c1.1 0 2 0.9 2 2v34c0 1.1-0.9 2-2 2z" ></path><path d="M87 42c-3.084 0-5.632-1.4-7.22-3.728-1.836 2.276-4.64 3.728-7.78 3.728-3.264 0-6.172-1.58-8-4.008-1.828 2.428-4.736 4.008-8 4.008s-6.172-1.58-8-4.008c-1.828 2.428-4.732 4.008-8 4.008s-6.172-1.58-8-4.008c-1.828 2.428-4.732 4.008-8 4.008s-6.172-1.58-8-4.008c-1.828 2.428-4.732 4.008-8 4.008-4.412 0-8-4.484-8-10v-2c0-0.228 0.040-0.452 0.112-0.664l9.876-28c0.284-0.8 1.040-1.336 1.888-1.336h72.124c0.844 0 1.6 0.532 1.884 1.328l10 28c0.080 0.216 0.116 0.44 0.116 0.672v2c0 5.888-3.7 10-9 10zM82 32c0 2.764 1.308 6 5 6s5-3.236 5-6v-1.652l-9.416-26.348h-69.296l-9.292 26.344v1.656c0 3.252 1.832 6 4 6 3.308 0 6-2.692 6-6 0-1.1 0.896-2 2-2s2 0.9 2 2c0 3.308 2.692 6 6 6s6-2.692 6-6c0-1.1 0.896-2 2-2s2 0.9 2 2c0 3.308 2.692 6 6 6s6-2.692 6-6c0-1.1 0.896-2 2-2s2 0.9 2 2c0 3.308 2.692 6 6 6s6-2.692 6-6c0-1.1 0.896-2 2-2s2 0.9 2 2c0 3.308 2.692 6 6 6s6-2.692 6-6c0-1.1 0.896-2 2-2s2.004 0.9 2.004 2z" ></path></svg>