<svg xmlns="http://www.w3.org/2000/svg" xmlns:xlink="http://www.w3.org/1999/xlink" version="1.1" x="0px" y="0px" viewBox="0 0 96 96" enable-background="new 0 0 96 96" xml:space="preserve"><path d="M48.368,8.161c-0.189-0.207-0.548-0.207-0.737,0l-38.4,41.893c-0.134,0.146-0.169,0.357-0.089,0.539  c0.08,0.182,0.259,0.299,0.458,0.299h9.765v36.369c0,0.276,0.224,0.5,0.5,0.5h56.272c0.276,0,0.5-0.224,0.5-0.5V50.892H86.4  c0.003,0,0.007,0,0.01,0c0.263,0.014,0.51-0.221,0.51-0.5c0-0.174-0.089-0.327-0.224-0.417L48.368,8.161z M76.637,48.892  c-1.103,0-2,0.897-2,2v34.869H21.365V50.892c0-1.103-0.897-2-2-2H13.01L48,10.72L82.99,48.892H76.637z"></path><path d="M46.284,44.893l-0.064,0.333c-0.162-0.252-0.373-0.476-0.65-0.623c-0.641-0.334-1.494-0.22-2.022,0.265l-1.066,0.98  c-3.742,3.434-6.16,10.359-6.16,17.644c0,10.694,4.864,19.472,11.077,19.981l0.589,0.045c0.013,0.001,0.025,0.001,0.038,0.001  c0.871,0,1.62-0.647,1.75-1.508c0.14,0.166,0.3,0.316,0.5,0.426c0.259,0.142,0.553,0.217,0.85,0.217  c0.418,0,0.824-0.148,1.143-0.418l1.014-0.855c3.885-3.278,6.396-10.302,6.398-17.894c0-10.701-4.855-19.479-11.057-19.984  l-0.595-0.042C47.179,43.46,46.446,44.063,46.284,44.893z M47.445,50.727l0.006-0.215c0.003-0.152,0.008-0.273,0.012-0.347  l0.133-1.534l0.613-3.156l0.255,0.021c5.167,0.422,9.215,8.324,9.215,17.991c-0.001,7.027-2.234,13.451-5.687,16.366l-0.565,0.476  l0.293-2.566c0.024-0.264,0.047-0.537,0.07-0.837l0.137-2.219c0.012-0.268,0.023-0.551,0.03-0.824  c0.008-0.253,0.014-0.496,0.017-0.738c0.004-0.289,0.004-0.577,0.004-0.878l-0.004-0.738c-0.003-0.209-0.01-0.427-0.021-0.73  l-0.003-0.126c-0.008-0.251-0.018-0.496-0.03-0.755c-0.016-0.292-0.036-0.584-0.059-0.877l-0.012-0.16  c-0.014-0.196-0.028-0.384-0.044-0.561c-0.019-0.213-0.042-0.419-0.073-0.684l-0.042-0.354c-0.022-0.196-0.044-0.387-0.073-0.595  c-0.032-0.224-0.071-0.451-0.122-0.749l-0.055-0.331c-0.027-0.165-0.054-0.326-0.086-0.498c-0.039-0.197-0.084-0.401-0.141-0.651  l-0.208-0.899c-0.061-0.237-0.137-0.487-0.22-0.761l-0.085-0.285c-0.045-0.16-0.088-0.305-0.132-0.436  c-0.109-0.325-0.231-0.634-0.344-0.915l-0.098-0.266c-0.034-0.09-0.069-0.184-0.103-0.262c-0.21-0.492-0.432-0.952-0.656-1.362  c-0.186-0.35-0.356-0.694-0.498-1.008l-0.188-0.464c-0.079-0.185-0.167-0.392-0.25-0.622l-0.177-0.541  c-0.054-0.159-0.106-0.314-0.151-0.473L47.95,55.57c-0.037-0.14-0.076-0.29-0.1-0.403l-0.127-0.662  c-0.026-0.137-0.052-0.274-0.071-0.401l-0.079-0.612c-0.019-0.135-0.037-0.278-0.05-0.412l-0.04-0.551  c-0.011-0.157-0.022-0.314-0.029-0.464l-0.011-0.469c-0.004-0.169-0.008-0.347-0.006-0.548  C47.438,50.953,47.441,50.846,47.445,50.727z M47.142,62.646c0.085,0.222,0.173,0.45,0.248,0.685  c0.025,0.08,0.047,0.159,0.088,0.312l0.133,0.476c0.055,0.188,0.113,0.385,0.158,0.568c0.03,0.127,0.054,0.247,0.082,0.389  l0.116,0.553c0.036,0.165,0.073,0.339,0.102,0.503l0.129,0.854c0.034,0.217,0.067,0.439,0.092,0.638l0.084,0.833  c0.024,0.236,0.049,0.478,0.068,0.726c0.011,0.134,0.019,0.271,0.027,0.429l0.027,0.479c0.012,0.211,0.024,0.423,0.033,0.647  c0.006,0.144,0.009,0.292,0.011,0.449l0.021,1.007l-0.134,3.88c-0.015,0.251-0.029,0.47-0.044,0.658l-0.27,2.715  c-0.019,0.18-0.041,0.35-0.062,0.503l-0.222,1.555l-0.27-0.022c-5.18-0.427-9.238-8.327-9.238-17.988  c0-6.75,2.164-13.097,5.512-16.171l0.594-0.546l-0.203,1.389c-0.02,0.154-0.039,0.31-0.053,0.452  c-0.014,0.127-0.024,0.249-0.032,0.348l-0.015,0.173c-0.016,0.182-0.031,0.362-0.043,0.559l-0.023,0.461  c-0.009,0.207-0.016,0.409-0.021,0.646l-0.003,0.476c0,0.201,0.003,0.41,0.01,0.65l0.024,0.572c0.011,0.177,0.022,0.371,0.041,0.599  l0.045,0.483c0.021,0.22,0.05,0.441,0.079,0.657c0.024,0.182,0.05,0.355,0.08,0.547c0.036,0.22,0.079,0.443,0.133,0.717  c0.032,0.171,0.063,0.327,0.099,0.487c0.052,0.234,0.113,0.471,0.17,0.679l0.036,0.141c0.036,0.139,0.071,0.271,0.108,0.397  c0.059,0.202,0.125,0.4,0.206,0.646l0.09,0.27c0.035,0.105,0.069,0.209,0.105,0.307c0.084,0.23,0.176,0.453,0.297,0.743l0.108,0.262  c0.034,0.084,0.066,0.161,0.093,0.218c0.212,0.467,0.409,0.867,0.603,1.226c0.198,0.367,0.386,0.763,0.55,1.151L47.142,62.646z"></path></svg>