<svg xmlns="http://www.w3.org/2000/svg" xmlns:xlink="http://www.w3.org/1999/xlink" version="1.1" x="0px" y="0px" viewBox="0 0 96 96" enable-background="new 0 0 96 96" xml:space="preserve"><g><path d="M60.867,26.924c-0.207,2.134-0.842,5.441-2.773,8.151c0.42,0.18,0.85,0.294,1.289,0.341   c2.365,0.246,4.281-1.45,4.285-3.891C63.672,29.661,62.527,27.792,60.867,26.924z"></path><path d="M42.444,11.195c-0.345,0.025-0.688,0.052-1.033,0.082c0.002,1.345,0.004,2.691,0.006,4.037   c0.343-0.029,0.688-0.055,1.031-0.079C42.447,13.888,42.445,12.541,42.444,11.195z"></path><path d="M59.949,25.581c0.002-0.147,0.006-0.295,0.008-0.442c0.006-0.248,0.004-0.452,0.002-0.6   c-6.93-0.928-13.964-1.045-20.92-0.35c-0.03,1.83,0.152,11.345,8.026,14.037c1.624-0.013,3.249,0.008,4.874,0.064   c1.719-0.561,3.189-1.47,4.377-2.726c0.088-0.093,0.178-0.187,0.266-0.28c0.002,0,0.002,0.001,0.002,0.001   c0.107-0.136,0.215-0.27,0.32-0.404c2.305-2.889,2.873-6.734,3.012-8.8C59.928,25.914,59.938,25.748,59.949,25.581z"></path><path d="M61.227,17.188c-6.203-1.025-12.512-1.324-18.777-0.895c-0.343,0.023-0.687,0.049-1.031,0.077   c-0.934,0.076-1.864,0.168-2.796,0.276c-1.995,0.231-3.981,0.538-5.958,0.918c0.019,8.392,0.036,16.784,0.055,25.176   c12.65-1.6,25.635-1.199,38.119,1.203c0.008-8.183,0.018-16.366,0.029-24.549c-2.201-0.65-4.428-1.203-6.668-1.659   C63.211,17.535,62.221,17.352,61.227,17.188z M59.377,37.429c-0.9-0.093-1.768-0.368-2.582-0.825   c-1.273,1.25-2.822,2.159-4.611,2.726c-0.025,0.008-0.053,0.016-0.078,0.024c-1.762-0.071-3.523-0.102-5.285-0.094   c-9.517-3.123-8.784-15.08-8.779-15.308c0.014-0.238,0.026-0.478,0.039-0.717c7.585-0.853,15.275-0.724,22.83,0.388   c0.016,0.239,0.029,0.479,0.045,0.718c0.002,0.092,0.01,0.271,0.01,0.528c2.715,1.135,4.621,4.066,4.615,6.981   C65.572,35.366,62.805,37.767,59.377,37.429z"></path><path d="M61.238,12.149c-0.004,1.331-0.006,2.661-0.01,3.992c0.342,0.057,0.682,0.116,1.021,0.177   c0.002-1.327,0.006-2.654,0.008-3.982C61.918,12.272,61.578,12.209,61.238,12.149z"></path><path d="M71.432,9.958C56.443,4.794,40.154,4.729,25.134,9.767c-0.051,0.035-0.102,0.069-0.152,0.104   c-1.277,0.678-2.194,2.169-2.194,3.501c0.011,25.53,0.021,51.062,0.032,76.592c1.839-0.007,3.678-0.015,5.517-0.022   c-0.048-25.785-0.097-51.571-0.145-77.357c3.43-0.937,6.912-1.626,10.42-2.067c0.932-0.117,1.864-0.217,2.799-0.299   c0.344-0.03,0.688-0.058,1.032-0.083c6.272-0.465,12.593-0.142,18.798,0.968c0.34,0.06,0.68,0.123,1.02,0.189v-0.001   c3.094,0.597,6.156,1.391,9.168,2.38c0.988,0.323,1.785-0.216,1.785-1.231C73.213,11.428,72.418,10.3,71.432,9.958z"></path></g></svg>