<svg xmlns:dc="http://purl.org/dc/elements/1.1/" xmlns:cc="http://creativecommons.org/ns#" xmlns:rdf="http://www.w3.org/1999/02/22-rdf-syntax-ns#" xmlns:svg="http://www.w3.org/2000/svg" xmlns="http://www.w3.org/2000/svg" xmlns:sodipodi="http://sodipodi.sourceforge.net/DTD/sodipodi-0.dtd" xmlns:inkscape="http://www.inkscape.org/namespaces/inkscape" version="1.1" x="0px" y="0px" viewBox="0 0 100 100"><g transform="translate(0,-952.36218)"><path  d="m 22.109375,965.97156 -11.375,14.875 12.28125,0 6.8125,-14.875 -7.71875,0 z m 11.28125,0 -6.8125,14.875 13.40625,0 2.9375,-14.875 -9.53125,0 z m 12.78125,0 -2.90625,14.875 13.46875,0 -2.90625,-14.875 -7.65625,0 z m 10.90625,0 2.9375,14.875 13.375,0 -6.8125,-14.875 -9.5,0 z m 13.0625,0 6.8125,14.875 12.28125,0 -11.375,-14.875 -7.71875,0 z m -61.03125,18.09375 0,7.34375 c 0,0.861 0.52895,1.77028 1.75,2.5625 1.22105,0.79221 3.05107,1.34375 5.125,1.34375 2.07393,0 3.9352,-0.55154 5.15625,-1.34375 1.22105,-0.79222 1.75,-1.7015 1.75,-2.5625 l 0,-7.34375 -13.78125,0 z m 17,0 0,7.34375 c 0,0.861 0.52895,1.77028 1.75,2.5625 1.22105,0.79221 3.05107,1.34375 5.125,1.34375 2.07393,0 3.9352,-0.55154 5.15625,-1.34375 1.22105,-0.79222 1.75,-1.7015 1.75,-2.5625 l 0,-7.34375 -13.78125,0 z m 17,0 0,7.34375 c 0,0.861 0.52895,1.77028 1.75,2.5625 1.22105,0.79221 3.05107,1.34375 5.125,1.34375 2.07393,0 3.9352,-0.55154 5.15625,-1.34375 1.22105,-0.79222 1.75,-1.7015 1.75,-2.5625 l 0,-7.34375 -13.78125,0 z m 17,0 0,7.34375 c 0,0.861 0.52895,1.77028 1.75,2.5625 1.22105,0.79221 3.05107,1.34375 5.125,1.34375 2.07393,0 3.9352,-0.55154 5.15625,-1.34375 1.22105,-0.79222 1.75,-1.7015 1.75,-2.5625 l 0,-7.34375 -13.78125,0 z m 17,0 0,7.34375 c 0,0.861 0.52895,1.77028 1.75,2.5625 1.22105,0.79221 3.05107,1.34375 5.125,1.34375 2.07393,0 3.9352,-0.55154 5.15625,-1.34375 1.22105,-0.79222 1.75,-1.7015 1.75,-2.5625 l 0,-7.34375 -13.78125,0 z m -52.625,11.21875 c -0.46532,0.50984 -0.99938,0.98938 -1.59375,1.375 -1.8517,1.20136 -4.27118,1.875 -6.90625,1.875 -0.90904,0 -1.78661,-0.0956 -2.625,-0.25 l 0,40.46874 45,0 0,-31.3125 a 1.6116612,1.6116612 0 0 1 1.46875,-1.625 1.6116612,1.6116612 0 0 1 0.15625,0 l 18.4375,0 a 1.6116612,1.6116612 0 0 1 1.59375,1.625 l 0,31.3125 6.625,0 0,-40.46874 c -0.85251,0.158 -1.73618,0.25 -2.65625,0.25 -2.63507,0 -5.0233,-0.67364 -6.875,-1.875 -0.60045,-0.38957 -1.15656,-0.85877 -1.625,-1.375 -0.46532,0.50984 -0.99938,0.98938 -1.59375,1.375 -1.8517,1.20136 -4.27118,1.875 -6.90625,1.875 -2.63507,0 -5.0233,-0.67364 -6.875,-1.875 -0.60045,-0.38957 -1.15656,-0.85877 -1.625,-1.375 -0.46532,0.50984 -0.99938,0.98938 -1.59375,1.375 -1.8517,1.20136 -4.27118,1.875 -6.90625,1.875 -2.63507,0 -5.0233,-0.67364 -6.875,-1.875 -0.60045,-0.38957 -1.15656,-0.85877 -1.625,-1.375 -0.46532,0.50984 -0.99938,0.98938 -1.59375,1.375 -1.8517,1.20136 -4.27118,1.875 -6.90625,1.875 -2.63507,0 -5.0233,-0.67364 -6.875,-1.875 -0.60045,-0.38957 -1.15656,-0.85877 -1.625,-1.375 z m 6.9375,7.12504 c 4.14466,-0.099 8.84806,1.5373 12.875,4.875 6.612,5.4798 9.1125,13.6259 6.1875,19.0625 -4.143,-3.3278 -8.9235,-5.8297 -13.4375,-8.5313 -5.321,-3.1843 -10.2515,-6.6011 -13.6875,-11.9687 1.9705,-2.2205 4.83888,-3.3608 8.0625,-3.4375 z m -9.78125,6.2187 c 3.753,5.2738 8.77775,8.7486 13.84375,11.7813 4.637,2.775 9.3315,5.2193 13.1875,8.3125 -4.688,4.407 -13.516,3.592 -20.375,-2.0938 -6.206,-5.143 -8.78025,-12.607 -6.65625,-18 z m 39.9375,0.4063 0,29.3437 15.21875,0 0,-29.3437 -15.21875,0 z"  fill-opacity="1" stroke="none" marker="none" visibility="visible" display="inline" overflow="visible"></path></g></svg>