<svg xmlns="http://www.w3.org/2000/svg" xmlns:xlink="http://www.w3.org/1999/xlink" version="1.1" x="0px" y="0px" viewBox="0 0 100 100"  xml:space="preserve"><path d="M27.25,75.28c0.01,0.01,0.02,0.01,0.03,0.02c0.01,0.01,0.01,0.03,0.02,0.04c0.03,0.03,0.06,0.04,0.09,0.07  c0.02,0.01,0.04,0.03,0.06,0.04c0.07,0.03,0.14,0.06,0.22,0.06h44.67c0.08,0,0.15-0.02,0.22-0.06c0.02-0.01,0.04-0.03,0.06-0.04  c0.03-0.02,0.07-0.04,0.09-0.07c0.01-0.01,0.01-0.03,0.02-0.04c0.01-0.01,0.02-0.01,0.03-0.02l3.73-5.72  c0.06-0.1,0.09-0.21,0.08-0.33l-5.13-44.29c-0.01-0.07-0.03-0.13-0.07-0.19c0,0,0-0.01,0-0.01c-0.01-0.01-0.02-0.01-0.03-0.02  c-0.04-0.05-0.08-0.09-0.13-0.12c-0.02-0.01-0.03-0.02-0.05-0.03c-0.07-0.03-0.14-0.06-0.22-0.06H29.06c-0.08,0-0.15,0.02-0.22,0.06  c-0.02,0.01-0.03,0.02-0.05,0.03c-0.05,0.03-0.09,0.07-0.13,0.12c-0.01,0.01-0.02,0.01-0.03,0.02c0,0,0,0.01,0,0.01  c-0.03,0.06-0.06,0.12-0.07,0.19l-5.13,44.29c-0.01,0.12,0.01,0.23,0.08,0.33L27.25,75.28z M75.55,69.16l-2.85,4.37L68.6,30.81  l2.03-4.08L75.55,69.16z M32.36,31.22h35.27l4.15,43.29H28.22L32.36,31.22z M67.78,30.22H32.22l-2.35-4.72h40.26L67.78,30.22z   M29.37,26.73l2.03,4.08l-4.09,42.72l-2.85-4.37L29.37,26.73z"></path><path d="M39.44,40.01v1.77c0,5.83,4.74,10.56,10.56,10.56s10.56-4.74,10.56-10.56v-1.77c0.9-0.23,1.57-1.03,1.57-2  c0-1.14-0.93-2.07-2.07-2.07c-1.14,0-2.07,0.93-2.07,2.07c0,0.97,0.67,1.78,1.57,2v1.77c0,5.27-4.29,9.56-9.56,9.56  s-9.56-4.29-9.56-9.56v-1.77c0.9-0.23,1.57-1.03,1.57-2c0-1.14-0.93-2.07-2.07-2.07c-1.14,0-2.07,0.93-2.07,2.07  C37.86,38.98,38.54,39.79,39.44,40.01z M60.06,36.94c0.59,0,1.07,0.48,1.07,1.07s-0.48,1.07-1.07,1.07s-1.07-0.48-1.07-1.07  S59.47,36.94,60.06,36.94z M39.94,36.94c0.59,0,1.07,0.48,1.07,1.07s-0.48,1.07-1.07,1.07s-1.07-0.48-1.07-1.07  S39.34,36.94,39.94,36.94z"></path></svg>