<svg xmlns="http://www.w3.org/2000/svg" xmlns:xlink="http://www.w3.org/1999/xlink" version="1.1" x="0px" y="0px" viewBox="0 0 100 100"  xml:space="preserve"><path d="M48.7,5.4C33,6.1,19.7,18.1,17.5,33.6c-0.8,5.6-0.1,10.9,1.6,15.7c2.6,7.4,7.8,13.5,14.4,17.4L49.1,93  c0.4,0.7,1.5,0.7,1.9,0l15.2-26.1c10-5.6,16.7-16.3,16.7-28.6C83,19.6,67.5,4.7,48.7,5.4z M52.2,64.3c-16.3,1.3-29.7-12.2-28.5-28.5  c1-12.8,11.4-23.2,24.2-24.2c16.3-1.3,29.7,12.2,28.5,28.5C75.4,52.9,65,63.3,52.2,64.3z"></path><path d="M65.2,48.6c-3.5,0-6.2-2.7-6.3-6.2H41.1c-0.1,3.3-2.8,6-6.2,6c-3.5,0-6.3-2.8-6.3-6.3c0-1.6,0.7-3,1.6-4.2  c-1-1.2-1.6-2.6-1.6-4.2c0-3.5,2.8-6.3,6.3-6.3s6.3,2.8,6.3,6.3h17.7c0.1-3.4,2.9-6.2,6.3-6.2c3.5,0,6.3,2.8,6.3,6.3  c0,1.6-0.5,3-1.6,4.2c1,1.2,1.6,2.6,1.6,4.2C71.5,45.7,68.6,48.6,65.2,48.6z"></path></svg>