<svg xmlns="http://www.w3.org/2000/svg" xmlns:xlink="http://www.w3.org/1999/xlink" version="1.1" x="0px" y="0px" viewBox="0 0 96 96" enable-background="new 0 0 96 96" xml:space="preserve"><path d="M32,60h32v36H32V60z"></path><path d="M79.779,37.796c-1.836,2.272-4.639,3.96-7.779,3.96c-3.264,0-6.172-1.452-8-3.888c-1.828,2.428-4.736,4.072-8,4.072  s-6.172-1.544-8-3.976c-1.828,2.432-4.732,4.02-8,4.02s-6.172-1.572-8-4c-1.828,2.428-4.732,4.008-8,4.008s-6.172-1.572-8-4  C14.172,40.42,11.268,42,8,42v52c0,1.1,0.896,2,2,2h18V58c0-1.1,0.896-2,2-2h36c1.1,0,2,0.9,2,2v38h18c1.1,0,2-0.9,2-2  c0,0,0-49.492,0-52.312C84.916,41.688,81.368,40.132,79.779,37.796z"></path><path d="M85.884,1.328C85.6,0.532,84.852,0,84,0H11.876c-0.848,0-1.604,0.536-1.888,1.336L4,18.316V32c0,3.252,1.832,6,4,6  c3.308,0,6-2.692,6-6c0-1.1,0.896-2,2-2s2,0.9,2,2c0,3.308,2.692,6,6,6s6-2.692,6-6c0-1.1,0.896-2,2-2s2,0.9,2,2  c0,3.308,2.692,6,6,6s6-2.692,6-6c0-1.1,0.896-2,2-2c1.104,0,2,0.9,2,2c0,3.308,2.691,6,6,6s6-2.692,6-6c0-1.1,0.9-2,2-2s2,0.9,2,2  c0,3.308,2.691,6,6,6s6-2.692,6-6c0-1.1,0.9-2,2-2s2,0.9,2,2c0,2.764,1.309,6,5,6s5-3.236,5-6V18.456L85.884,1.328z"></path></svg>