<svg xmlns="http://www.w3.org/2000/svg" xmlns:xlink="http://www.w3.org/1999/xlink" version="1.1" x="0px" y="0px" viewBox="0 0 72 72" enable-background="new 0 0 72 72" xml:space="preserve"><path  d="M66.8,66.6V19.3c0-0.3-0.3-0.6-0.6-0.6l-29.6,0c-0.3,0-0.6-0.3-0.6-0.6V5.8c0-0.3-0.2-0.6-0.5-0.6L5.9,1  C5.5,1,5.2,1.2,5.2,1.6v65c0,0.3-0.3,0.6-0.6,0.6h-3c-0.3,0-0.6,0.3-0.6,0.6v2.5C1,70.7,1.3,71,1.6,71h3.6h61.6h3.6  c0.3,0,0.6-0.3,0.6-0.6v-2.5c0-0.3-0.3-0.6-0.6-0.6h-3C67.1,67.2,66.8,66.9,66.8,66.6z M29.4,66.7H10.8c-0.3,0-0.6-0.3-0.6-0.6V42.6  c0-5.4,4.2-10.1,9.6-10.3c5.6-0.2,10.2,4.3,10.2,9.9v23.9C30,66.4,29.7,66.7,29.4,66.7z M60.9,55.7H37.5c-0.3,0-0.6-0.3-0.6-0.6  v-1.8c0-0.3,0.3-0.6,0.6-0.6h23.4c0.3,0,0.6,0.3,0.6,0.6v1.8C61.6,55.4,61.3,55.7,60.9,55.7z M39.7,49V35.5c0-0.3,0.3-0.6,0.6-0.6  h17.8c0.3,0,0.6,0.3,0.6,0.6V49c0,0.3-0.3,0.6-0.6,0.6H40.4C40,49.6,39.7,49.3,39.7,49z M60.9,31.7H37.5c-0.3,0-0.6-0.3-0.6-0.6  v-1.8c0-0.3,0.3-0.6,0.6-0.6h23.4c0.3,0,0.6,0.3,0.6,0.6v1.8C61.6,31.5,61.3,31.7,60.9,31.7z"></path></svg>