<svg xmlns="http://www.w3.org/2000/svg" xmlns:xlink="http://www.w3.org/1999/xlink" version="1.1" x="0px" y="0px" viewBox="0 0 96 96" enable-background="new 0 0 96 96" xml:space="preserve"><path d="M32,16c0-8.288,7.032-12,14-12h4c6.968,0,14,3.712,14,12v12h4V16c0-9.42-7.408-16-18-16h-4C35.404,0,28,6.58,28,16v12h4V16z  "></path><path d="M65.416,78.584c-0.775-0.779-2.048-0.779-2.828,0c-0.775,0.775-0.775,2.048,0,2.828l8,8c0.38,0.376,0.893,0.584,1.416,0.584  c0.036,0,0.076,0,0.104-0.008c0.576-0.028,1.097-0.297,1.453-0.748l16-20c0.688-0.864,0.556-2.116-0.313-2.809  c-0.864-0.68-2.116-0.552-2.813,0.309l-14.6,18.252L65.416,78.584L65.416,78.584z"></path><path d="M95.9,93.368l-6.032-18.089L76.688,91.752c-1.063,1.328-2.647,2.145-4.359,2.244L72,94.004c-1.58,0-3.12-0.64-4.244-1.752  l-8-8C58.624,83.12,58,81.611,58,80.004s0.624-3.107,1.756-4.248c1.133-1.132,2.641-1.752,4.244-1.752s3.107,0.624,4.248,1.752  l3.26,3.256l11.805-14.764c0.631-0.771,1.42-1.352,2.304-1.736l-9.72-29.147C75.624,32.552,74.859,32,74,32h-6v12c0,1.1-0.9,2-2,2  c-1.104,0-2-0.9-2-2V32H32v12c0,1.1-0.896,2-2,2s-2-0.9-2-2V32h-6c-0.86,0-1.624,0.552-1.9,1.368l-20,60  c-0.204,0.608-0.1,1.28,0.272,1.804C0.752,95.691,1.352,96,1.996,96h92c0.64,0,1.248-0.309,1.62-0.828  C96,94.648,96.1,93.977,95.9,93.368z"></path></svg>