<svg xmlns="http://www.w3.org/2000/svg" xmlns:xlink="http://www.w3.org/1999/xlink" version="1.1" x="0px" y="0px" viewBox="0 0 64 64"  xml:space="preserve"><path d="M61,32h-1.111l-1.896-16.117C57.934,15.38,57.507,15,57,15H45.965c-0.005-0.076-0.02-0.149-0.027-0.224  c-0.018-0.212-0.047-0.42-0.075-0.629c-0.033-0.247-0.067-0.494-0.113-0.737c-0.039-0.207-0.086-0.411-0.134-0.614  c-0.056-0.238-0.114-0.474-0.182-0.706c-0.058-0.201-0.124-0.397-0.191-0.594c-0.078-0.228-0.159-0.453-0.247-0.675  c-0.077-0.193-0.159-0.383-0.245-0.571c-0.098-0.216-0.2-0.429-0.308-0.639c-0.095-0.184-0.194-0.366-0.296-0.545  c-0.117-0.204-0.239-0.404-0.365-0.601c-0.112-0.174-0.226-0.346-0.345-0.514c-0.135-0.191-0.275-0.376-0.419-0.56  c-0.128-0.163-0.256-0.324-0.39-0.481c-0.151-0.177-0.309-0.347-0.469-0.516c-0.142-0.15-0.283-0.299-0.432-0.442  c-0.168-0.162-0.342-0.317-0.518-0.471C41.053,5.345,40.9,5.209,40.739,5.08c-0.184-0.147-0.375-0.285-0.566-0.423  c-0.165-0.119-0.328-0.24-0.499-0.353c-0.199-0.131-0.406-0.251-0.612-0.372c-0.174-0.102-0.346-0.208-0.525-0.303  c-0.215-0.114-0.438-0.215-0.659-0.318c-0.181-0.084-0.359-0.173-0.544-0.25c-0.233-0.096-0.474-0.177-0.713-0.261  c-0.183-0.064-0.362-0.135-0.548-0.192c-0.255-0.078-0.518-0.137-0.779-0.201c-0.179-0.043-0.354-0.095-0.536-0.132  c-0.294-0.059-0.595-0.097-0.895-0.137c-0.156-0.021-0.308-0.052-0.465-0.068C32.939,2.025,32.472,2,32,2s-0.939,0.025-1.399,0.071  c-0.157,0.016-0.309,0.047-0.465,0.068c-0.3,0.04-0.601,0.078-0.895,0.137c-0.181,0.036-0.357,0.088-0.536,0.132  c-0.261,0.063-0.524,0.123-0.779,0.201C27.74,2.665,27.561,2.736,27.378,2.8c-0.239,0.084-0.48,0.165-0.713,0.261  c-0.185,0.077-0.363,0.165-0.544,0.25c-0.221,0.103-0.444,0.204-0.659,0.318c-0.179,0.095-0.351,0.201-0.525,0.303  c-0.206,0.121-0.413,0.241-0.612,0.372c-0.17,0.112-0.334,0.233-0.499,0.353c-0.191,0.138-0.382,0.276-0.566,0.423  c-0.16,0.129-0.313,0.264-0.468,0.399c-0.176,0.154-0.35,0.309-0.518,0.471c-0.148,0.143-0.29,0.293-0.432,0.442  c-0.16,0.169-0.318,0.339-0.469,0.516c-0.134,0.157-0.263,0.318-0.39,0.481c-0.144,0.184-0.284,0.369-0.419,0.56  c-0.119,0.169-0.233,0.34-0.345,0.514c-0.127,0.197-0.249,0.397-0.365,0.601c-0.103,0.179-0.201,0.361-0.296,0.545  c-0.108,0.21-0.21,0.423-0.308,0.639c-0.085,0.189-0.168,0.378-0.245,0.571c-0.089,0.222-0.17,0.447-0.247,0.675  c-0.067,0.197-0.132,0.394-0.191,0.594c-0.068,0.233-0.126,0.469-0.182,0.706C18.336,13,18.289,13.203,18.25,13.41  c-0.046,0.243-0.08,0.489-0.113,0.737c-0.028,0.209-0.057,0.417-0.075,0.629c-0.007,0.076-0.021,0.149-0.027,0.224H7  c-0.507,0-0.934,0.38-0.993,0.883L4.111,32H3c-0.553,0-1,0.447-1,1v4c0,0.553,0.447,1,1,1h3v21c0,1.654,1.346,3,3,3h31h12h3  c1.654,0,3-1.346,3-3V38h3c0.553,0,1-0.447,1-1v-4C62,32.447,61.553,32,61,32z M21.898,22.46c-1.203-1.877-1.851-4.032-1.891-6.246  c0.016-0.071,0.043-0.138,0.043-0.214c0-0.086-0.018-0.168-0.038-0.248c0.004-0.178,0.015-0.354,0.027-0.531  c0.013-0.196,0.022-0.392,0.044-0.585c0.023-0.207,0.06-0.409,0.094-0.613c0.031-0.188,0.059-0.378,0.099-0.563  c0.044-0.202,0.1-0.399,0.154-0.597c0.049-0.18,0.094-0.361,0.15-0.537c0.063-0.196,0.139-0.387,0.212-0.578  c0.065-0.171,0.126-0.343,0.198-0.51c0.082-0.189,0.176-0.37,0.267-0.554c0.08-0.161,0.156-0.325,0.243-0.482  c0.1-0.18,0.212-0.353,0.321-0.528c0.094-0.15,0.183-0.303,0.283-0.449c0.117-0.17,0.245-0.332,0.371-0.496  c0.107-0.139,0.209-0.282,0.321-0.417c0.133-0.158,0.276-0.307,0.416-0.458c0.119-0.128,0.233-0.261,0.357-0.383  c0.148-0.146,0.307-0.282,0.462-0.42c0.129-0.115,0.254-0.235,0.387-0.344c0.162-0.133,0.334-0.253,0.503-0.377  c0.139-0.102,0.274-0.21,0.417-0.306c0.175-0.117,0.359-0.221,0.541-0.329c0.148-0.088,0.292-0.183,0.444-0.265  c0.19-0.102,0.388-0.189,0.584-0.282c0.153-0.072,0.302-0.152,0.458-0.217c0.205-0.086,0.418-0.156,0.629-0.231  c0.156-0.055,0.308-0.119,0.467-0.168c0.224-0.069,0.455-0.12,0.684-0.176c0.153-0.038,0.302-0.084,0.457-0.116  c0.259-0.053,0.525-0.085,0.79-0.121c0.131-0.018,0.259-0.046,0.391-0.059C31.184,4.021,31.589,4,32,4s0.816,0.021,1.216,0.062  c0.132,0.013,0.26,0.041,0.391,0.059c0.265,0.036,0.531,0.068,0.79,0.121c0.155,0.032,0.305,0.078,0.457,0.116  c0.229,0.056,0.46,0.107,0.684,0.176c0.159,0.049,0.311,0.113,0.467,0.168c0.211,0.075,0.424,0.144,0.629,0.231  c0.156,0.066,0.305,0.145,0.458,0.217c0.196,0.092,0.394,0.179,0.584,0.282c0.152,0.082,0.296,0.177,0.444,0.265  c0.181,0.108,0.366,0.211,0.541,0.329c0.144,0.096,0.278,0.204,0.417,0.306c0.169,0.124,0.341,0.244,0.503,0.377  c0.134,0.109,0.258,0.229,0.387,0.344c0.156,0.139,0.314,0.274,0.462,0.42c0.124,0.123,0.238,0.255,0.357,0.383  c0.14,0.151,0.284,0.3,0.416,0.458c0.112,0.135,0.214,0.278,0.321,0.417c0.125,0.164,0.254,0.325,0.371,0.496  c0.1,0.146,0.189,0.299,0.283,0.449c0.109,0.175,0.221,0.347,0.321,0.528c0.087,0.157,0.162,0.32,0.243,0.482  c0.091,0.183,0.185,0.365,0.267,0.554c0.072,0.167,0.133,0.339,0.198,0.51c0.073,0.192,0.149,0.382,0.212,0.578  c0.057,0.176,0.102,0.358,0.15,0.537c0.054,0.198,0.11,0.395,0.154,0.597c0.04,0.185,0.068,0.375,0.099,0.563  c0.034,0.203,0.07,0.406,0.094,0.613c0.022,0.193,0.031,0.389,0.044,0.585c0.011,0.176,0.023,0.352,0.027,0.531  c-0.021,0.08-0.038,0.162-0.038,0.248c0,0.076,0.027,0.143,0.043,0.214c-0.04,2.214-0.687,4.369-1.891,6.246  c-0.197,0.309-0.211,0.699-0.035,1.02C42.241,23.801,42.578,24,42.943,24H47v4H17v-4h4.057c0.365,0,0.702-0.199,0.877-0.521  C22.109,23.159,22.096,22.769,21.898,22.46z M7.89,17h10.166c0.125,1.735,0.554,3.43,1.303,5H16c-0.553,0-1,0.447-1,1v6  c0,0.553,0.447,1,1,1h32c0.553,0,1-0.447,1-1v-6c0-0.553-0.447-1-1-1h-3.358c0.749-1.57,1.178-3.265,1.303-5H56.11l1.765,15H6.125  L7.89,17z M51,54h-4v-4h4V54z M51,48h-4v-5.899c2.279,0.465,4,2.484,4,4.899V48z M45,48h-4v-1c0-2.414,1.721-4.434,4-4.899V48z   M41,50h4v4h-4V50z M41,56h4v4h-4V56z M47,60v-4h4v4H47z M56,59c0,0.552-0.448,1-1,1h-2V47c0-3.859-3.141-7-7-7s-7,3.141-7,7v13H9  c-0.552,0-1-0.448-1-1V38h48V59z M60,36h-3H7H4v-2h1h54h1V36z"></path><path d="M31,56h3v-2h-2V41c0-0.553-0.447-1-1-1H13c-0.553,0-1,0.447-1,1v13h-2v2h3H31z M23,54v-5h7v5H23z M30,47h-7v-5h7V47z M21,42  v5h-7v-5H21z M14,49h7v5h-7V49z"></path><path d="M30,22h2c2.045,0,3.802-1.237,4.576-3H38c1.654,0,3-1.346,3-3s-1.346-3-3-3h-1c0-0.553-0.447-1-1-1H26c-0.553,0-1,0.447-1,1  v4C25,19.757,27.243,22,30,22z M38,15c0.552,0,1,0.448,1,1s-0.448,1-1,1h-1v-2H38z M27,14h8v3c0,0.147-0.023,0.288-0.043,0.43  c-0.017,0.102-0.036,0.204-0.066,0.32c-0.001,0.003,0.001,0.007,0,0.01C34.551,19.045,33.39,20,32,20h-2c-1.654,0-3-1.346-3-3V14z"></path><rect x="24" y="24" width="16" height="2"></rect><path d="M31.402,10.802l1.195-1.604C32.573,9.18,32,8.743,32,8c0-0.03,0.007-0.755,0.6-1.2L31.4,5.2C30.067,6.199,30,7.708,30,8  C30,9.672,31.168,10.627,31.402,10.802z"></path><path d="M35.402,10.802l1.195-1.604C36.573,9.18,36,8.743,36,8c0-0.03,0.007-0.755,0.6-1.2L35.4,5.2C34.067,6.199,34,7.708,34,8  C34,9.672,35.168,10.627,35.402,10.802z"></path><path d="M27.402,10.802l1.195-1.604C28.573,9.18,28,8.743,28,8c0-0.03,0.007-0.755,0.6-1.2L27.4,5.2C26.067,6.199,26,7.708,26,8  C26,9.672,27.168,10.627,27.402,10.802z"></path></svg>