<svg xmlns:dc="http://purl.org/dc/elements/1.1/" xmlns:cc="http://creativecommons.org/ns#" xmlns:rdf="http://www.w3.org/1999/02/22-rdf-syntax-ns#" xmlns:svg="http://www.w3.org/2000/svg" xmlns="http://www.w3.org/2000/svg" xmlns:sodipodi="http://sodipodi.sourceforge.net/DTD/sodipodi-0.dtd" xmlns:inkscape="http://www.inkscape.org/namespaces/inkscape" version="1.1" x="0px" y="0px" viewBox="0 0 100 100"><g transform="translate(0,-952.36218)"><path  d="m 22.156294,959.79975 -12.9062496,19.8437 c -0.199664,0.3423 -0.25,0.5891 -0.25,0.7188 -2.09e-4,0 0,9.9062 0,9.9062 0,2.0406 1.0768726,3.8428 2.7187496,5.0938 0.392554,0.2991 0.827856,0.5742 1.28125,0.8125 l 0,48.18745 c 5.2e-5,0.5236 0.476416,0.9999 1,1 l 72.000004,0 c 0.52358,-10e-5 0.99994,-0.4764 1,-1 l 0,-48.18745 c 0.45289,-0.2382 0.88908,-0.5137 1.28125,-0.8125 1.64187,-1.251 2.71875,-3.0532 2.71875,-5.0938 l 0,-9.9062 c 0,-0.2241 -0.18274,-0.5489 -0.28125,-0.7188 l -12.875004,-19.8437 c -0.18567,-0.273 -0.51366,-0.4431 -0.84375,-0.4375 l -54,0 c -0.38126,0 -0.69748,0.2126 -0.84375,0.4375 z m 1.375,1.5625 8.375,0 c 0,0 -6.909479,17.8725 -6.90625,18 l -13.15625,0 z m 10.46875,0 9.96875,0 c 0,0 -2.97455,17.9377 -2.96875,18 l -13.9375,0 c 0,0 6.936999,-17.8829 6.9375,-18 z m 12.03125,0 7.9375,0 c 0.0062,0.053 3,18 3,18 l -13.9375,0 c 0,0 2.993759,-17.9472 3,-18 z m 10,0 9.96875,0 c 5.01e-4,0.1171 6.9375,18 6.9375,18 l -13.9375,0 c 0.0058,-0.062 -2.96875,-18 -2.96875,-18 z m 12.0625,0 8.375,0 11.687504,18 -13.156254,0 c 0.0032,-0.1275 -6.90625,-18 -6.90625,-18 z m -57.09375,20 14,0 c 0,0 -5.17e-4,8.9684 0,9 -0.03128,1.2992 -0.716565,2.476 -1.9375,3.4062 -1.250121,0.9525 -3.050961,1.5938 -5.0625,1.5938 -2.011537,0 -3.812379,-0.6413 -5.0625,-1.5938 -1.250121,-0.9524 -1.9375,-2.1638 -1.9375,-3.5 z m 16,0 14,0 c 0,0 -5.17e-4,8.9684 0,9 -0.03128,1.2992 -0.716565,2.476 -1.9375,3.4062 -1.250121,0.9525 -3.050961,1.5938 -5.0625,1.5938 -2.011537,0 -3.812379,-0.6413 -5.0625,-1.5938 -1.250121,-0.9524 -1.9375,-2.1638 -1.9375,-3.5 z m 16,0 14,0 c 0,0 -5.17e-4,8.9684 0,9 -0.03128,1.2992 -0.716565,2.476 -1.9375,3.4062 -1.250121,0.9525 -3.050961,1.5938 -5.0625,1.5938 -2.011537,0 -3.812379,-0.6413 -5.0625,-1.5938 -1.250121,-0.9524 -1.9375,-2.1638 -1.9375,-3.5 z m 16,0 14,0 c 0,0 -4.77e-4,8.9697 0,9 -0.03128,1.2992 -0.716565,2.476 -1.9375,3.4062 -1.250121,0.9525 -3.050961,1.5938 -5.0625,1.5938 -2.011537,0 -3.812379,-0.6413 -5.0625,-1.5938 -1.250121,-0.9524 -1.9375,-2.1638 -1.9375,-3.5 z m 16,0 14.000004,0 0,8.9062 c 0,1.3362 -0.68738,2.5476 -1.9375,3.5 -1.25012,0.9525 -3.05097,1.5938 -5.0625,1.5938 -2.01154,0 -3.812383,-0.6413 -5.062504,-1.5938 -1.250121,-0.9524 -1.9375,-2.1638 -1.9375,-3.5 z m -49,12.1562 c 0.451566,0.6931 1.032119,1.3207 1.71875,1.8438 1.641877,1.2509 3.860793,2 6.28125,2 2.420459,0 4.639373,-0.7491 6.28125,-2 0.686473,-0.523 1.267076,-1.1514 1.71875,-1.8438 0.451566,0.6931 1.032119,1.3207 1.71875,1.8438 1.641877,1.2509 3.860793,2 6.28125,2 2.420459,0 4.639373,-0.7491 6.28125,-2 0.686473,-0.523 1.267076,-1.1514 1.71875,-1.8438 0.451566,0.6931 1.032119,1.3207 1.71875,1.8438 1.641877,1.2509 3.860793,2 6.28125,2 2.420459,0 4.639373,-0.7491 6.28125,-2 0.686473,-0.523 1.267076,-1.1514 1.71875,-1.8438 0.451566,0.6931 1.032119,1.3207 1.71875,1.8438 1.641877,1.2509 3.860794,2 6.281254,2 1.04832,0 2.05779,-0.1453 3,-0.4063 l 0,46.40625 -22.000004,0 0,-35 c -5.2e-5,-0.5236 -0.476416,-1 -1,-1 l -24,0 c -0.663872,0 -1,0.5808 -1,1 l 0,35 -22,0 0,-46.40625 c 0.94091,0.2602 1.953361,0.4063 3,0.4063 2.420459,0 4.639373,-0.7491 6.28125,-2 0.686473,-0.523 1.267076,-1.1514 1.71875,-1.8438 z m 13,15.84375 10,0 0,34 -10,0 z m 12,0 10,0 0,34 -10,0 z"  fill-opacity="1" stroke="none" marker="none" visibility="visible" display="inline" overflow="visible"></path></g></svg>