<svg xmlns="http://www.w3.org/2000/svg" xmlns:xlink="http://www.w3.org/1999/xlink" version="1.1" x="0px" y="0px" viewBox="0 0 52 52" enable-background="new 0 0 52 52" xml:space="preserve"><g><g><path d="M42,43.1201172H10c-0.5527344,0-1-0.4472656-1-1V13c0-0.5527344,0.4472656-1,1-1h32c0.5527344,0,1,0.4472656,1,1    v29.1201172C43,42.6728516,42.5527344,43.1201172,42,43.1201172z M11,41.1201172h30V14H11V41.1201172z"></path></g><g><path d="M28.6103516,33.7685547c-0.4599609,0-0.9189453-0.1738281-1.2675781-0.5234375l-6.0498047-6.0498047    C21.1054688,27.0078125,21,26.7539063,21,26.4882813V22c0-0.5527344,0.4472656-1,1-1h4.4882813    c0.265625,0,0.5195313,0.1054688,0.7070313,0.2929688l6.0498047,6.0498047c0.6992188,0.6992188,0.6992188,1.8369141,0,2.5361328    l-3.3662109,3.3662109C29.5283203,33.5947266,29.0693359,33.7685547,28.6103516,33.7685547z M23,26.0742188l5.6103516,5.6103516    l3.0742188-3.0742188L26.0742188,23H23V26.0742188z"></path></g><g><path d="M35,21c-0.5527344,0-1-0.4472656-1-1V8c0-2.2060547-1.7939453-4-4-4h-8c-2.2060547,0-4,1.7939453-4,4v12    c0,0.5527344-0.4472656,1-1,1s-1-0.4472656-1-1V8c0-3.3085938,2.6914063-6,6-6h8c3.3085938,0,6,2.6914063,6,6v12    C36,20.5527344,35.5527344,21,35,21z"></path></g><g><path d="M39,50H13c-2.2060547,0-4-1.7939453-4-4v-3.8798828c0-0.5527344,0.4472656-1,1-1h32c0.5527344,0,1,0.4472656,1,1V46    C43,48.2060547,41.2060547,50,39,50z M11,43.1201172V46c0,1.1025391,0.8974609,2,2,2h26c1.1025391,0,2-0.8974609,2-2v-2.8798828    H11z"></path></g></g></svg>