<svg xmlns="http://www.w3.org/2000/svg" xmlns:xlink="http://www.w3.org/1999/xlink" version="1.1" x="0px" y="0px" viewBox="0 0 100 100"  xml:space="preserve"><g><path d="M46,84.7c0,2.9,2.4,5.3,5.3,5.3c2.9,0,5.3-2.4,5.3-5.3c0-2.9-2.4-5.3-5.3-5.3C48.4,79.3,46,81.7,46,84.7z M54.7,84.7   c0,1.8-1.5,3.3-3.3,3.3S48,86.5,48,84.7s1.5-3.3,3.3-3.3S54.7,82.8,54.7,84.7z"></path><path d="M75,84.7c0,2.9,2.4,5.3,5.3,5.3c2.9,0,5.3-2.4,5.3-5.3c0-2.9-2.4-5.3-5.3-5.3C77.4,79.3,75,81.7,75,84.7z M83.7,84.7   c0,1.8-1.5,3.3-3.3,3.3S77,86.5,77,84.7s1.5-3.3,3.3-3.3S83.7,82.8,83.7,84.7z"></path><path d="M82.3,31c0.2-1.1,0.3-2.2,0.3-3.4c0-10.4-8.4-18.8-18.8-18.8S45,17.2,45,27.6c0,1.2,0.1,2.3,0.3,3.4H34.3l-1.1-7.8   c-0.2-1-0.4-2-0.8-3c-1-2.3-3.1-3.9-5.5-4.2C26.6,14.3,25,13,23.2,13H10.8C8.7,13,7,14.7,7,16.8v0.3c0,2.1,1.7,3.8,3.8,3.8h12.3   c1.8,0,3.3-1.2,3.7-2.9c1.6,0.3,3.1,1.4,3.7,2.9c0.3,0.8,0.5,1.7,0.6,2.5l6,43.6c0.5,3.9,3.9,6.8,7.8,6.8h47c0.6,0,1-0.4,1-1   s-0.4-1-1-1H45c-2.9,0-5.5-2.2-5.9-5.1L38.5,62H88c3.9,0,7-3.1,7-7V38c0-3.9-3.1-7-7-7H82.3z M25,17.2c0,1-0.8,1.8-1.8,1.8H10.8   c-1,0-1.8-0.8-1.8-1.8v-0.3c0-1,0.8-1.8,1.8-1.8h12.3c1,0,1.8,0.8,1.8,1.8V17.2z M63.8,10.8c9.3,0,16.8,7.6,16.8,16.8   c0,9.3-7.6,16.8-16.8,16.8c-9.3,0-16.8-7.6-16.8-16.8C47,18.3,54.6,10.8,63.8,10.8z M93,38v17c0,2.8-2.2,5-5,5H38.2l-3.7-27h11.3   c2.3,7.8,9.5,13.4,18,13.4c8.5,0,15.7-5.7,18-13.4c0,0,0.1,0,0.1,0h6C90.8,33,93,35.2,93,38z"></path><path d="M63.3,37.7c0.2,0.2,0.4,0.3,0.7,0.3c0,0,0,0,0,0c0.3,0,0.5-0.1,0.7-0.3l9.3-10.3c0.4-0.4,0.3-1-0.1-1.4   c-0.4-0.4-1-0.3-1.4,0.1L65,34.4V18c0-0.6-0.4-1-1-1s-1,0.4-1,1v16.5L54.7,26c-0.4-0.4-1-0.4-1.4,0c-0.4,0.4-0.4,1,0,1.4L63.3,37.7   z"></path></g></svg>