<svg xmlns="http://www.w3.org/2000/svg" xmlns:xlink="http://www.w3.org/1999/xlink" version="1.1" x="0px" y="0px" viewBox="0 0 34 34" enable-background="new 0 0 34 34" xml:space="preserve"><g><path d="M22,2.5C22,1.7,19.8,1,17,1c-2.8,0-5,0.7-5,1.5C12,4.5,22,4.5,22,2.5z"></path><path d="M12.8,18.4c0.7,0.3,1.3,0.7,1.7,1.2c1.6-0.7,3.3-0.7,4.8,0c0.5-0.5,1.1-0.9,1.7-1.2c0.4-1.4,1.4-2.5,2.7-3.1   c0.2-1,0.1-1.6,0.1-4c-1.2-1.8-2-3.9-2-6.2c-2.5,1.1-7.5,1.1-10,0c0,2.3-0.8,4.4-2,6.2c0,2.3-0.1,3,0.1,4   C11.5,15.8,12.5,17,12.8,18.4z"></path><path d="M8.2,22L8.2,22c-1.1,3,2.5,5.3,4.8,3.2c0.3,5,7.7,5,8,0c2.3,2.1,5.9-0.3,4.8-3.2v0c2.1-0.3,2.9-2.7,1.5-4.2   c0.4-1,0.6-2,0.7-3c-0.7-0.4-1.4-0.8-2-1.3c0,0.3,0.1,1.7-0.5,3.5c-1.5,0-2.8,1.4-2.4,3c-0.3-0.3-2.6,0.3-3,2.4   c-1.6-1.9-4.5-1.9-6.1,0c-0.4-1.9-2.5-2.7-3-2.4c0.3-1.7-0.9-3-2.4-3C7.9,15.2,8,13.8,8,13.5c-0.6,0.5-1.3,0.9-2,1.3   c0.1,1.1,0.3,2.1,0.7,3C5.3,19.2,6.1,21.7,8.2,22z"></path><path d="M29.9,15.6c-0.1,0.7-0.2,1.3-0.4,2c0.9,1.8,0.5,4.4-1.5,5.7c-0.1,2.9-2.8,5.2-5.8,4.7c-2.3,4.1-8.1,4.1-10.4,0   c-3,0.5-5.6-1.8-5.8-4.7c-1.9-1.3-2.5-3.8-1.5-5.7c-0.2-0.6-0.3-1.3-0.4-2c-1,0.3-2,0.4-3.1,0.4v1c0,8.8,7.2,16,16,16   c4.4,0,8.4-1.8,11.3-4.7C31.2,25.4,33,21.4,33,17v-1C31.9,16,30.9,15.9,29.9,15.6z"></path></g></svg>