<svg xmlns="http://www.w3.org/2000/svg" xmlns:xlink="http://www.w3.org/1999/xlink" version="1.1" x="0px" y="0px" viewBox="0 0 100 100"  xml:space="preserve"><path d="M67.23,77.86h-2.32V22.14h2.14c1.18,0,2.14-0.96,2.14-2.14v-4.11C69.2,9.89,64.31,5,58.31,5H41.52  c-6.01,0-10.89,4.89-10.89,10.89V20c0,1.18,0.96,2.14,2.14,2.14h2.14v55.71h-1.97c-1.18,0-2.14,0.96-2.14,2.14v4.11  c0,6,4.88,10.89,10.89,10.89h16.79c6.01,0,10.89-4.89,10.89-10.89V80C69.37,78.82,68.42,77.86,67.23,77.86z M39.2,48.69l21.43,7.14  v8.34L39.2,57.03V48.69z M60.63,38.46L39.2,31.31v-8.34l21.43,7.14V38.46z M39.2,74.4l10.37,3.46H39.2V74.4z"></path></svg>