<svg xmlns="http://www.w3.org/2000/svg" xmlns:xlink="http://www.w3.org/1999/xlink" version="1.1" x="0px" y="0px" viewBox="0 0 96 96" enable-background="new 0 0 96 96" xml:space="preserve"><path d="M32,16c0-8.288,7.032-12,14-12h4c6.968,0,14,3.712,14,12v12h4V16c0-9.42-7.408-16-18-16h-4C35.404,0,28,6.58,28,16v12h4V16z  "></path><path d="M95.9,93.368l-20-60C75.624,32.552,74.859,32,74,32h-6v12c0,1.1-0.9,2-2,2s-2-0.9-2-2V32H32v12c0,1.1-0.896,2-2,2  s-2-0.9-2-2V32h-6c-0.86,0-1.624,0.552-1.896,1.368l-20,60c-0.204,0.608-0.1,1.28,0.272,1.804C0.752,95.691,1.356,96,2,96h92  c0.641,0,1.248-0.309,1.62-0.828C96,94.648,96.1,93.977,95.9,93.368z M24,56h48c1.1,0,2,0.9,2,2s-0.9,2-2,2H24c-1.104,0-2-0.9-2-2  S22.896,56,24,56z M20,68h56c1.1,0,2,0.9,2,2s-0.9,2-2,2H20c-1.104,0-2-0.9-2-2S18.896,68,20,68z M80,84H16c-1.104,0-2-0.9-2-2  s0.896-2,2-2h64c1.1,0,2,0.9,2,2S81.1,84,80,84z"></path></svg>