<svg xmlns:dc="http://purl.org/dc/elements/1.1/" xmlns:cc="http://creativecommons.org/ns#" xmlns:rdf="http://www.w3.org/1999/02/22-rdf-syntax-ns#" xmlns:svg="http://www.w3.org/2000/svg" xmlns="http://www.w3.org/2000/svg" xmlns:sodipodi="http://sodipodi.sourceforge.net/DTD/sodipodi-0.dtd" xmlns:inkscape="http://www.inkscape.org/namespaces/inkscape" version="1.1" x="0px" y="0px" viewBox="0 0 100 100"><g transform="translate(0,-952.36218)"><path  d="m 18,960.3622 -13.0000001,22 16.6250001,0 7.625,-22 z m 13.34375,0 -7.59375,22 14.625,0 4.25,-22 z m 13.28125,0 -4.25,22 19.25,0 -4.25,-22 z m 12.75,0 4.25,22 14.625,0 -7.59375,-22 z m 13.375,0 7.625,22 16.625,0 -13,-22 z m -65.7500001,23.99996 0,5 c 0,4.986 4.014,9 9.0000001,9 4.986,0 9,-4.014 9,-9 0,4.986 4.014,9 9,9 4.986,0 9,-4.014 9,-9 0,4.986 4.014,9 9,9 4.986,0 9,-4.014 9,-9 0,4.986 4.014,9 9,9 4.986,0 9,-4.014 9,-9 0,4.986 4.014,9 9,9 4.986,0 9,-4.014 9,-9 l 0,-5 -18,0 -18,0 -18,0 -18,0 z M 23,995.33096 c -1.97417,2.9633 -5.18482,5.03124 -9,5.03124 -0.68168,0 -1.35208,-0.068 -2,-0.1875 l 0,44.1875 76,0 0,-44.1875 c -0.64792,0.1196 -1.31832,0.1875 -2,0.1875 -3.81518,0 -7.02583,-2.06794 -9,-5.03124 -1.97417,2.9633 -5.18482,5.03124 -9,5.03124 -3.81518,0 -7.02583,-2.06794 -9,-5.03124 -1.97417,2.9633 -5.18482,5.03124 -9,5.03124 -3.81518,0 -7.02583,-2.06794 -9,-5.03124 -1.97417,2.9633 -5.18482,5.03124 -9,5.03124 -3.81518,0 -7.02583,-2.06794 -9,-5.03124 z m 31,13.03124 22,0 0,14 -22,0 z m -30,0 20,0 0,28 -20,0 z"  stroke="none" marker="none" visibility="visible" display="inline" overflow="visible"></path></g></svg>