<svg xmlns="http://www.w3.org/2000/svg" xmlns:xlink="http://www.w3.org/1999/xlink" version="1.1" x="0px" y="0px" viewBox="0 0 100 100" enable-background="new 0 0 100 100" xml:space="preserve"><path d="M68.937,11.083H31.061c-1.707,0-3.096,1.464-3.096,3.264v71.305c0,1.799,1.39,3.264,3.096,3.264h37.877  c1.707,0,3.096-1.465,3.096-3.264V14.348C72.032,12.547,70.646,11.083,68.937,11.083z M70.124,84.25H29.875v-68.5h11.483  l1.178,2.021c0.555,0.955,1.883,1.729,2.963,1.729h1.959h5.084c0,0,0.877,0,1.957,0c1.082,0,2.408-0.774,2.965-1.729l1.177-2.021  h11.482V84.25z"></path><path d="M67.041,40.219c0.24-0.718-0.148-1.496-0.867-1.735c-0.719-0.24-1.496,0.149-1.735,0.868l-0.653,1.958H42.966l-1.141-2.896  h-7.565c-0.758,0-1.372,0.614-1.372,1.372s0.614,1.372,1.372,1.372h5.697l4.955,12.578h0.002l1.035,2.759  c-0.489,0.541-0.79,1.256-0.79,2.042c0,1.684,1.366,3.049,3.049,3.049c1.111,0,2.082-0.597,2.614-1.486h5.714  c0.533,0.89,1.502,1.486,2.614,1.486c1.684,0,3.05-1.365,3.05-3.049s-1.366-3.049-3.05-3.049c-1.264,0-2.349,0.771-2.811,1.868  h-5.32c-0.426-1.01-1.377-1.742-2.512-1.853l-0.664-1.768h14.692l3.805-11.415c0.037-0.069,0.063-0.145,0.075-0.224L67.041,40.219z   M59.151,57.265c0.702,0,1.271,0.568,1.271,1.271c0,0.702-0.569,1.272-1.271,1.272s-1.272-0.57-1.272-1.272  C57.879,57.833,58.449,57.265,59.151,57.265z M49.428,58.177c0.198,0.675-0.188,1.382-0.862,1.58s-1.38-0.188-1.579-0.862  s0.187-1.381,0.862-1.578C48.523,57.118,49.231,57.504,49.428,58.177z M56.402,46.227h-5.945v-3.544h5.945V46.227z M49.085,46.227  h-4.183l-1.396-3.544h5.578V46.227z M49.085,47.6v3.392H46.78L45.443,47.6H49.085z M50.458,47.6h5.945v3.392h-5.945V47.6z   M62.147,46.227h-4.373v-3.544h5.554L62.147,46.227z M57.774,50.991V47.6h3.915l-1.131,3.392H57.774z"></path></svg>