<svg xmlns="http://www.w3.org/2000/svg" xmlns:xlink="http://www.w3.org/1999/xlink" version="1.1" x="0px" y="0px" viewBox="0 0 100 100"  xml:space="preserve"><path d="M45.607,55.901v9.756c-2.41,0.468-4.234,2.594-4.234,5.139c0,2.886,2.348,5.234,5.234,5.234c1.268,0,2.456-0.446,3.393-1.25  c0.937,0.804,2.125,1.25,3.393,1.25c2.886,0,5.234-2.348,5.234-5.234c0-2.548-1.829-4.676-4.264-5.14v-9.75  c2.424-0.456,4.264-2.589,4.264-5.144c0-2.886-2.348-5.234-5.234-5.234c-1.268,0-2.456,0.446-3.393,1.25  c-0.937-0.804-2.125-1.25-3.393-1.25c-2.886,0-5.234,2.348-5.234,5.234C41.373,53.307,43.198,55.433,45.607,55.901z M46.607,47.528  c1.027,0,1.972,0.476,2.591,1.306c0.377,0.506,1.226,0.506,1.603,0c0.62-0.83,1.564-1.306,2.591-1.306  c1.783,0,3.234,1.451,3.234,3.234s-1.451,3.234-3.234,3.234h-0.029c-0.552,0-1,0.448-1,1v11.565c0,0.552,0.477,1,1.029,1  c1.783,0,3.234,1.451,3.234,3.234s-1.451,3.234-3.234,3.234c-1.027,0-1.972-0.476-2.591-1.306c-0.188-0.253-0.486-0.402-0.801-0.402  s-0.613,0.149-0.801,0.402c-0.62,0.83-1.564,1.306-2.591,1.306c-1.783,0-3.234-1.451-3.234-3.234s1.451-3.234,3.234-3.234  c0.552,0,1-0.448,1-1V54.997c0-0.552-0.448-1-1-1c-1.783,0-3.234-1.451-3.234-3.234S44.824,47.528,46.607,47.528z"></path><path d="M50.115,19.75c0.552,0,1-0.448,1-1v-2.5c0-0.552-0.448-1-1-1s-1,0.448-1,1v2.5C49.115,19.302,49.562,19.75,50.115,19.75z"></path><path d="M10.76,61.253l3.738,2.044c3.562,1.949,6.475,4.861,8.424,8.424l2.044,3.738c0.175,0.321,0.512,0.52,0.877,0.52  s0.702-0.199,0.877-0.52l1.995-3.647v11.434c0,3.815,3.104,6.92,6.92,6.92h28.958c3.815,0,6.92-3.104,6.92-6.92V41.581  c0-3.815-3.104-6.92-6.92-6.92h-3.285v-4.797c0-2.819-2.02-5.173-4.688-5.696v-9.688c0-2.378-1.986-4.313-4.427-4.313h-4.158  c-2.441,0-4.427,1.935-4.427,4.313v9.688c-2.668,0.523-4.688,2.877-4.688,5.696v4.797h-3.285c-3.815,0-6.92,3.104-6.92,6.92v7.358  l-1.995-3.647c-0.351-0.642-1.404-0.642-1.755,0l-2.044,3.738c-1.949,3.562-4.861,6.475-8.424,8.424l-3.738,2.044  c-0.321,0.175-0.52,0.512-0.52,0.877S10.439,61.078,10.76,61.253z M48.036,12.166h4.158c1.338,0,2.427,1.038,2.427,2.313v9.578  h-9.012v-9.578C45.608,13.204,46.697,12.166,48.036,12.166z M40.92,29.864c0-2.099,1.708-3.807,3.807-3.807h10.775  c2.099,0,3.807,1.708,3.807,3.807v4.797H40.92V29.864z M35.636,36.661h28.958c2.713,0,4.92,2.207,4.92,4.92v41.665  c0,2.713-2.207,4.92-4.92,4.92H35.636c-2.713,0-4.92-2.207-4.92-4.92V68.788c1.76-2.237,3.949-4.11,6.474-5.491l3.738-2.044  c0.321-0.175,0.52-0.512,0.52-0.877s-0.199-0.702-0.52-0.877l-3.738-2.044c-2.524-1.381-4.713-3.253-6.474-5.491V41.581  C30.716,38.868,32.923,36.661,35.636,36.661z M15.458,59.208c3.898-2.133,7.086-5.32,9.219-9.219l1.167-2.134l1.167,2.134  c2.133,3.899,5.321,7.086,9.219,9.219l2.134,1.167l-2.134,1.167c-3.898,2.132-7.086,5.32-9.219,9.219l-1.167,2.134l-1.167-2.134  c-2.133-3.898-5.32-7.086-9.219-9.219l-2.134-1.167L15.458,59.208z"></path><path d="M89.689,81.221l-1.81-0.99c-1.638-0.896-2.976-2.234-3.872-3.872l-0.99-1.81c-0.351-0.642-1.404-0.642-1.755,0l-0.99,1.81  c-0.896,1.638-2.234,2.976-3.872,3.872l-1.81,0.99c-0.321,0.175-0.52,0.512-0.52,0.877s0.199,0.702,0.52,0.877l1.81,0.99  c1.638,0.896,2.976,2.234,3.872,3.872l0.99,1.81c0.175,0.321,0.512,0.52,0.877,0.52s0.702-0.199,0.877-0.52l0.99-1.81  c0.896-1.638,2.234-2.976,3.872-3.872l1.81-0.99c0.321-0.175,0.52-0.512,0.52-0.877S90.01,81.396,89.689,81.221z M86.92,82.211  c-1.974,1.08-3.587,2.693-4.667,4.667l-0.112,0.206l-0.112-0.206c-1.08-1.974-2.693-3.587-4.667-4.667l-0.206-0.112l0.206-0.112  c1.974-1.08,3.587-2.693,4.667-4.667l0.112-0.206l0.112,0.206c1.08,1.974,2.693,3.587,4.667,4.667l0.206,0.112L86.92,82.211z"></path><path d="M18.926,23.255l1.616,0.884c1.443,0.789,2.624,1.97,3.413,3.414l0.883,1.615c0.175,0.32,0.512,0.52,0.877,0.52  s0.702-0.2,0.877-0.52l0.883-1.615c0.79-1.444,1.97-2.625,3.414-3.414l1.615-0.884c0.321-0.176,0.52-0.512,0.52-0.877  c0-0.366-0.2-0.702-0.52-0.877l-1.615-0.883c-1.444-0.79-2.625-1.97-3.414-3.414l-0.883-1.615c-0.351-0.641-1.404-0.641-1.755,0  l-0.883,1.615c-0.789,1.443-1.97,2.624-3.414,3.414L18.926,21.5c-0.32,0.175-0.52,0.512-0.52,0.877  C18.406,22.743,18.605,23.079,18.926,23.255z M21.501,22.372c1.78-0.974,3.235-2.429,4.208-4.208l0.006-0.011l0.006,0.011  c0.973,1.779,2.429,3.234,4.208,4.208l0.011,0.006l-0.011,0.006c-1.78,0.973-3.235,2.428-4.209,4.208l-0.006,0.011l-0.006-0.011  c-0.974-1.78-2.429-3.235-4.208-4.208l-0.011-0.006L21.501,22.372z"></path><path d="M64.491,21.766l2.488,1.361c2.315,1.266,4.208,3.159,5.475,5.474l1.361,2.488c0.175,0.321,0.512,0.52,0.877,0.52  s0.702-0.199,0.877-0.52l1.361-2.488c1.266-2.315,3.159-4.208,5.474-5.474l2.489-1.361c0.32-0.175,0.52-0.512,0.52-0.877  c0-0.365-0.199-0.702-0.52-0.877l-2.489-1.361c-2.315-1.266-4.208-3.159-5.474-5.474l-1.361-2.488c-0.351-0.642-1.404-0.642-1.755,0  l-1.361,2.488c-1.267,2.315-3.16,4.208-5.475,5.474l-2.488,1.361c-0.321,0.176-0.52,0.512-0.52,0.877  C63.971,21.254,64.17,21.59,64.491,21.766z M67.939,20.404c2.651-1.45,4.819-3.618,6.27-6.269l0.483-0.884l0.483,0.884  c1.45,2.651,3.618,4.819,6.269,6.269l0.885,0.484l-0.885,0.483c-2.651,1.45-4.819,3.618-6.269,6.269l-0.483,0.884l-0.483-0.884  c-1.451-2.651-3.619-4.819-6.27-6.269l-0.884-0.483L67.939,20.404z"></path><path d="M11.24,78.583h1.922v1.922c0,0.552,0.448,1,1,1s1-0.448,1-1v-1.922h1.922c0.552,0,1-0.448,1-1s-0.448-1-1-1h-1.922v-1.922  c0-0.552-0.448-1-1-1s-1,0.448-1,1v1.922H11.24c-0.552,0-1,0.448-1,1S10.688,78.583,11.24,78.583z"></path><path d="M89.24,48.083h-1.923v-1.922c0-0.552-0.448-1-1-1s-1,0.448-1,1v1.922h-1.922c-0.552,0-1,0.448-1,1s0.448,1,1,1h1.922v1.922  c0,0.552,0.448,1,1,1s1-0.448,1-1v-1.922h1.923c0.552,0,1-0.448,1-1S89.792,48.083,89.24,48.083z"></path></svg>