<svg xmlns="http://www.w3.org/2000/svg" xmlns:xlink="http://www.w3.org/1999/xlink" version="1.1" x="0px" y="0px" viewBox="0 0 100 100" enable-background="new 0 0 100 100" xml:space="preserve"><g><path d="M83.143,95H16.856c-0.377,0-0.737-0.157-0.994-0.435c-0.257-0.279-0.387-0.652-0.359-1.03l6.389-87.272   C21.945,5.552,22.536,5,23.246,5h53.505c0.711,0,1.302,0.552,1.354,1.263l6.393,87.272c0.027,0.378-0.103,0.751-0.36,1.028   C83.881,94.843,83.521,95,83.143,95z M18.318,92.272h63.365L75.49,7.728H24.507L18.318,92.272z"></path></g><g><path d="M50,48.349c-10.54,0-19.115-8.613-19.115-19.203v-8.863c0-0.754,0.607-1.363,1.357-1.363s1.357,0.609,1.357,1.363v8.863   c0,9.085,7.357,16.476,16.4,16.476c9.044,0,16.401-7.391,16.401-16.476v-8.863c0-0.754,0.607-1.363,1.357-1.363   c0.751,0,1.357,0.609,1.357,1.363v8.863C69.115,39.735,60.54,48.349,50,48.349z"></path></g><g><path d="M32.242,26.704c-3.526,0-6.395-2.882-6.395-6.422c0-3.539,2.869-6.421,6.395-6.421c3.523,0,6.39,2.882,6.39,6.421   C38.631,23.822,35.765,26.704,32.242,26.704z M32.242,16.588c-2.029,0-3.68,1.657-3.68,3.694s1.65,3.694,3.68,3.694   c2.025,0,3.675-1.657,3.675-3.694S34.267,16.588,32.242,16.588z"></path></g><g><path d="M67.758,26.704c-3.525,0-6.395-2.882-6.395-6.422c0-3.539,2.869-6.421,6.395-6.421c3.524,0,6.39,2.882,6.39,6.421   C74.147,23.822,71.282,26.704,67.758,26.704z M67.758,16.588c-2.029,0-3.68,1.657-3.68,3.694s1.65,3.694,3.68,3.694   c2.026,0,3.675-1.657,3.675-3.694S69.784,16.588,67.758,16.588z"></path></g><g><path d="M83.143,95H16.856c-0.377,0-0.737-0.157-0.994-0.435c-0.257-0.279-0.387-0.652-0.359-1.03l1.323-18.068   c0.051-0.71,0.643-1.263,1.353-1.263H81.82c0.71,0,1.302,0.553,1.354,1.263l1.323,18.068c0.027,0.378-0.103,0.751-0.36,1.03   C83.881,94.843,83.521,95,83.143,95z M18.318,92.272h63.365L80.56,76.932H19.44L18.318,92.272z"></path></g></svg>