<svg xmlns="http://www.w3.org/2000/svg" xmlns:xlink="http://www.w3.org/1999/xlink" version="1.1" x="0px" y="0px" viewBox="0 0 100 100" enable-background="new 0 0 100 100" xml:space="preserve"><path d="M62.7350655,36.1892052c-0.8066406,0-1.4605713-0.6539307-1.4605713-1.4605713s0.6539307-1.4605103,1.4605713-1.4605103  s1.4605141,0.6538696,1.4605141,1.4605103S63.5417061,36.1892052,62.7350655,36.1892052z M7.0256553,33.0480919  l-0.1962891-0.9990234l-0.4316406,1.0087891c-0.1118164,0.2626953-0.3320313,0.4648438-0.6035156,0.5551758  c-0.0358887,0.0120239-0.0740967,0.0045776-0.1108398,0.0123901v43.8035316c0,0.5527344,0.4477539,1,1,1s1-0.4472656,1-1V47.0637779  c-0.0299683,0.0015869-0.0617065,0.0131226-0.0913086,0.0131226c-0.34375,0-0.6606445-0.1069336-0.9091797-0.3134766  c-0.3657227-0.3041992-0.5458984-0.7929688-0.4951172-1.3408203l0.9404297-10.074707  C7.2029014,34.5476036,7.1687217,33.7736778,7.0256553,33.0480919z M76.2273178,36.1892052  c0.8066406,0,1.4605713-0.6539307,1.4605713-1.4605713s-0.6539307-1.4605103-1.4605713-1.4605103  s-1.4605103,0.6538696-1.4605103,1.4605103S75.4206772,36.1892052,76.2273178,36.1892052z M16.5666103,43.5589561  l3.1437378-0.8926392l-0.1617432-9.7363892L16.5666103,43.5589561z M96.7052841,90.8511353h-7.9817505  c-0.4202881,0-0.7957153-0.2628174-0.9395752-0.6577759l-3.1777344-8.723999v8.3817749c0,0.5522461-0.4476929,1-1,1H69.6903915  H55.3562202c-0.5523071,0-1-0.4477539-1-1V63.5612755l-6.140625,3.1577187  c-0.684082,0.3515625-1.4291992,0.5253906-2.171875,0.5253906c-0.9033203,0-1.8027344-0.2568359-2.5864258-0.765625  l-10.8743896-7.0581703c-0.1366577-0.0102539-0.2724609-0.0289307-0.4082642-0.055481l5.2024536,4.7435341  c0.3855591,0.3515625,0.4559937,0.9321899,0.1656494,1.3657227l-1.1873169,1.7727661l1.1990356,1.9943237  c0.2207031,0.3671875,0.1831055,0.8339844-0.0932617,1.1611328c-0.1943359,0.2294922-0.4755859,0.3544922-0.7641602,0.3544922  c-0.1225586,0-0.246582-0.0224609-0.3652344-0.0693359l-1.8054199-0.7097168l-3.787962,5.6556396  c-1.208374,1.8041382-2.1153564,3.7927856-2.6853638,5.8880615l-2.5805664,9.4854736  c-0.1647339,0.6055298-0.8187866,0.9338989-1.402832,0.7043457l-17.8736572-7.026123  c-0.5840454-0.2296143-0.8393555-0.9154663-0.5476685-1.4710693l4.5695796-8.7036133  c1.0093384-1.9224854,1.6993408-3.9962769,2.0430298-6.1402588l1.0773926-6.7210732l-1.7384644-0.6833496  c-0.3989258-0.15625-0.6533203-0.5498047-0.6333008-0.9775391c0.0205078-0.4277344,0.3105469-0.7958984,0.722168-0.9140625  l2.1621704-0.6227417l0.3453979-2.1549072c0.0825806-0.5151367,0.529541-0.892395,1.0512085-0.8872681l7.4111948,0.0726929  c0.2476807,0.0024414,0.4666748,0.1014404,0.6456299,0.2468262l1.8673706-0.5378418  c-0.0535889-0.1126709-0.0968628-0.2313232-0.128479-0.3550415c-0.1269531-0.4990234-0.0522461-1.0175781,0.2109375-1.4599609  c0.2227173-0.3757935,0.562561-0.6505737,0.9641724-0.805603c-0.0564575-0.4268188,0.0217896-0.8569336,0.244812-1.2324829  c0.229187-0.385376,0.5759888-0.6541748,0.9656982-0.8043213c-0.0549927-0.4138794,0.0151367-0.8470459,0.2442627-1.2332764  c0.229248-0.3862915,0.5759888-0.6553345,0.9656982-0.8054199c-0.0548706-0.4138184,0.0151978-0.8467407,0.2442627-1.232666  c0.0591431-0.0994873,0.12854-0.1900635,0.2025146-0.2758179c-1.4223022,0.1742554-2.5311279,1.3755493-2.5311279,2.8441772  c0,0.4140625-0.3359375,0.75-0.75,0.75s-0.75-0.3359375-0.75-0.75c0-2.4150391,1.9643555-4.3793945,4.3793945-4.3793945  c0.6621704,0,1.2838745,0.1587524,1.8471069,0.4229126c0.1401978-0.5928345,0.5294189-1.1134033,1.1167583-1.3740845  c0.0794678-0.0350952,0.161377-0.0545044,0.2426758-0.0783691c0.1689453-0.0495605,0.3395996-0.0824585,0.510498-0.0857544  c0.168457-0.0032349,0.3342896,0.0184326,0.4969482,0.0570068l0.196228-2.1022339l0.0499268-0.5349121l0.0499268-0.5349731  l0.0675659-0.7236938c0.0834961-0.8974609,0.0444336-1.7670898-0.1166992-2.5854492l-0.8212891-4.1796875l-1.4858379,3.4702148  c-0.0566406,0.1333008-0.1640625,0.2319336-0.3017578,0.277832c-0.137207,0.0444336-0.2822266,0.0307617-0.4077148-0.0419922  l-2.6660156-1.5424805c-0.0292969-0.0166016-0.0478516-0.109375-0.0068359-0.2338867l2.5339966-7.638916l0.3256226-0.9817505  l0.2160645-0.6513062c0.046875-0.1420898,0.1362305-0.2631836,0.2573242-0.3505859L36.83321,22.230526l0.3208618-0.2307739  c0.1210938-0.0859375,0.2353516-0.1079102,0.3256836-0.0615234l0.5287476,1.2657471l2.7769165,6.6478271l0.739563-2.1903687  l0.263916-0.7816162l0.2640991-0.7823486l1.5546265-4.6043701l0.3965454-1.1744995  c0.0302734-0.0894165,0.0861206-0.1652832,0.1485596-0.2324829c0.1200562-0.1292114,0.2738037-0.2121582,0.3817139-0.1976929  l5.6660156,0.8901367l3.078125,7.5297852c0.03125,0.0766602,0.0068359,0.2626953-0.1455078,0.4370117l-2.7138672,3.1113281  c-0.1074219,0.1240234-0.2548828,0.1879883-0.4267578,0.1689453c-0.1640625-0.0166016-0.3041992-0.1083984-0.3852539-0.2514648  l-1.2807617-2.265625l-0.7509766,4.2490234c-0.1601563,0.9038086-0.1987305,1.7924805-0.1152344,2.640625l0.9916992,10.0571289  c0.0195313,0.2001953-0.1811523,0.5087891-0.4433594,0.5830078L37.1077461,50.133358  c0.1413574,0.1282349,0.2715454,0.2635498,0.3878174,0.40979c0.1107178,0.1391602,0.2139282,0.2821045,0.3012085,0.4344482  c0.1264648,0.2207031,0.222168,0.4542236,0.2977295,0.6947632l8.2250977,5.338623l8.4091797-4.3242188  c0.8232422-0.4235229,1.711853-0.5702515,2.5715332-0.496521l5.5788574,0.0355835v-3.4715576  c-2.932251-1.7283936-4.7067261-4.5442505-5.7704468-7.9307861c-0.1289063,0.0237427-0.260437,0.0356445-0.3936157,0.0356445  c-0.53125,0-1.0869141-0.1884766-1.6005859-0.5541992c-0.6875-0.4892578-1.2597656-1.2568359-1.6123047-2.1616211  c-0.7822266-2.0078125-0.2568359-4.0239258,1.1953125-4.5898438c0.0681763-0.0266113,0.1395874-0.031311,0.2089844-0.0504761  c-0.1774902-0.8391724-0.5189209-2.6901245-0.6369019-4.9759521c0.0140991-0.1315308,0.0082397-0.2590942-0.0167236-0.3843994  c-0.0994873-2.5216675,0.092041-5.5049438,1.062561-8.2155762l-12.4890747-2.5460815  c-0.2987671,0.557312-0.7681274,1.0328369-1.3273315,1.331604l-0.0202026,0.6621094l1.673645,0.4453125  c-0.029541,0.0612793-0.0734863,0.112854-0.0955811,0.1782837l-0.4177856,1.2371826l-1.7213745-0.4578857l-0.5131226,0.4279785  l-0.4119263,0.3435059l-0.4116211,0.3433228l1.4165649,4.2040405l-0.3118286,0.9233398l-1.8734741-4.4862061l-0.409729-0.9810791  c-0.0656128-0.1567993-0.164856-0.2871704-0.2867432-0.3916626c-0.1130371-0.0969238-0.2453003-0.1719971-0.3963623-0.2147827  c-0.3696289-0.1035156-0.7895508-0.0170898-1.1494141,0.2421875l-5.6151104,4.0386963  c-0.2918701,0.2099609-0.5099487,0.5067749-0.6231689,0.8480225L27.2561245,35.34692  c-0.1914063,0.5771484-0.0087891,1.1455078,0.4545898,1.4140625l2.6665039,1.5424805  c0.3710938,0.215332,0.8183594,0.2607422,1.2241211,0.1254883c0.4072247-0.1352539,0.7373028-0.4389648,0.9057598-0.8334961  l0.2099609-0.4902344l0.1962891,0.9995117c0.1425781,0.7241211,0.1767578,1.4980469,0.1020508,2.2998047l-0.1040649,1.114624  l-11.5336285,3.3302002c-0.1513672,0.0429688-0.3095703,0.0146484-0.4355469-0.078125  c-0.1264648-0.0932617-0.2006836-0.2373047-0.203125-0.394043l-0.0159302-0.9589233l-0.008606-0.517334l-0.008606-0.517334  l-0.1900024-11.4404907c-0.0058594-0.3930664-0.2504883-0.6987305-0.5961914-0.7441406  c-0.3574219-0.050293-0.7006836,0.2060547-0.8168945,0.6171875l-3.6647959,13.0632324l-0.1583862,0.5646973l-0.1584473,0.5648804  l-0.1223755,0.4360962c-0.1103516,0.3935547-0.3178711,0.6279297-0.4755859,0.7158203  c-0.0458984,0.0258789-0.112793,0.0512695-0.1674805,0.0366211l-1.7079468-0.4862671l-0.6983032-0.1987915  c-0.0354004-0.0101318-0.0717773-0.0469971-0.1062622-0.0926514c-0.0722046-0.0955811-0.1251221-0.2652588-0.1374512-0.4806519  c-0.0087891-0.1539917-0.0014648-0.3228149,0.0532837-0.5165405l5.765626-20.3857422  c0.1914063-0.6762695,0.5834961-1.2373047,1.0239258-1.4638672l4.4135742-2.2744141  c0.0717773-0.0371094,0.1489258-0.0546875,0.2255859-0.0546875c0.0924072,0,0.1790161,0.0352783,0.2580566,0.0858154  c0.0366821,0.0234375,0.0755615,0.0430908,0.1057129,0.0767822c0.4525146,0.5061035,0.9655151,0.8793945,1.5126343,1.1486206  c0.5884399,0.2896729,1.2362061,0.4044189,1.8919678,0.3925781c0.1421509-0.0025635,0.2854004-0.0101318,0.4304199-0.0275269  c0.1654663-0.0199585,0.3335571-0.0558472,0.5019531-0.0939331c0.0464478-0.010498,0.0919189-0.0142822,0.1386108-0.0261841  c1.237915-0.3873901,2.3942261-1.2502441,3.3731079-2.4761353c0.3191528-0.3996582,0.617857-0.8388062,0.8948956-1.3139648  c0.078125-0.1340942,0.1594849-0.2630005,0.2339478-0.402771c0.0571289-0.1074219,0.1137695-0.1513672,0.1000977-0.152832  l4.8339844-0.2539063c0.4619141-0.0551758,0.7001953,0.4858398,0.7753906,0.7075195l0.8286743,2.4594727l0.4116211-0.3433228  l0.4119263-0.3435059l0.0803223-0.0670166l0.0394897-1.2918701l0.0009155-0.02948  c0-0.0005493,0.0003662-0.0009766,0.0003662-0.0015259c-0.0318604-0.3517456,0.1714478-0.6889038,0.5235596-0.7890015  c0.2546387-0.0721436,0.4855957-0.2436523,0.680542-0.4490356l-1.3658447-0.2784424  c-0.0175171,0.0801392-0.0490723,0.1604614-0.0490723,0.2391968c0,0.3497314-0.2446899,0.6304932-0.5686646,0.7133789  c-0.0595703,0.0152588-0.1170044,0.0366211-0.1813354,0.0366211c-0.1469727,0-0.2761841-0.0533447-0.3919067-0.1264648  c-0.189209-0.1195068-0.3180542-0.3140259-0.3427734-0.5476685c-0.0027466-0.0261841-0.0153198-0.0489502-0.0153198-0.0758667  c0-0.1798706,0.0246582-0.3589478,0.0623169-0.536377c-0.0057373-0.0037842-0.012207-0.0059204-0.0180054-0.0095825  l-1.229248-0.2506104l-7.0300274-1.4331656c-0.2828979,0.6639404-0.8025513,1.2433462-1.4449463,1.5866079l-0.0202026,0.6621094  l2.6732178,0.7112427c-0.2954102,0.4762573-0.6166382,0.9118652-0.9588013,1.2969971l-2.2755127-0.6053467l-1.161377,0.9685059  l-0.4030151,0.3360596l-0.40271,0.3358765l0.3449097,0.8438721c-0.3464966-0.0455933-0.6817017-0.1427612-0.9989014-0.2984619  c-0.4136353-0.203064-0.7984009-0.4970703-1.1420898-0.8811646c-0.0236206-0.0264282-0.0563354-0.0386353-0.0797729-0.0656128  c-0.4406128-0.5075073-1.2409058-0.5076294-1.8383179-0.1997681l-4.2879639,2.2097168  c-0.6884766,0.3544922-1.2597656,1.1318359-1.527832,2.0800781l-5.765626,20.3862305  c-0.1056519,0.3735962-0.12323,0.7382202-0.0740967,1.067627l-2.905395,0.8249512  c-0.0494385,0.0139771-0.0890503,0.0095825-0.1342773,0.0151367c-0.1472168,0.0181274-0.2776489,0.0058594-0.3613281-0.0639648  c-0.109375-0.0913086-0.1586914-0.2612305-0.1381836-0.4790039l0.4995117-5.3511963L8.1242876,35.44067  c0.0834961-0.8955078,0.0439453-1.765625-0.1171875-2.5854492l-0.32373-1.6477051L7.1858115,28.675045l-1.5024414,3.5111694  l-0.2045898,0.4780884l-3.1547854-1.8256836c-0.0288086-0.0166016-0.0473633-0.1088867-0.0063477-0.2333984l2.5340579-7.6387329  l0.3258057-0.9821167l0.2202148-0.6638184c0.0444336-0.1337891,0.1279297-0.2475586,0.2426758-0.3300781l0.0429688-0.0308838  l2-1.4387207l3.261291-2.3460083l0.3222046-0.2317505c0.1210938-0.0854492,0.2348633-0.1074219,0.3251953-0.0615234  l0.5288696,1.2658691l2.7772827,6.6477051l2.8217173-8.3586426l0.3965454-1.1745596  c0.0302124-0.0892944,0.0856934-0.1652832,0.1477661-0.232666c0.1195068-0.1297607,0.2727661-0.2132568,0.3829956-0.1975098  l5.6635742,0.8842773l1.1864624,2.9028311l0.402771-0.3358765l0.4029541-0.3360596l0.8101807-0.6756592l0.0394897-1.2919912  l0.0009155-0.0298462c0-0.0005493,0.0003662-0.0010376,0.0003662-0.0015869  c-0.0316772-0.3515625,0.1716309-0.6884155,0.5235596-0.7884521c0.3491211-0.098938,0.6599121-0.3687744,0.8735352-0.6887207  l-1.486084-0.3029175c-0.0731201,0.1662598-0.1218262,0.3366699-0.1218262,0.5033569c0,0.4140625-0.3359375,0.75-0.75,0.75  s-0.75-0.3359375-0.75-0.75c0-0.2720947,0.0532837-0.5427246,0.1369629-0.8060913l-8.5477905-1.7425537  c-0.2878418,0.6416626-0.7955933,1.199707-1.4208384,1.5336914l-0.0200195,0.6618652l1.6735849,0.4453125  c-0.0296021,0.0612793-0.0736694,0.112854-0.0958252,0.1782837l-0.4177246,1.2371817l-1.7209482-0.4578848l-2.105896,1.7562246  l-0.409729-0.980835c-0.0654297-0.1569824-0.1646729-0.2873535-0.2866211-0.3919067l1.8554688-1.5473623l0.0393066-1.2963257  l0.0007324-0.0246582c0-0.0007324,0.0004883-0.0014038,0.0004883-0.0021362  c-0.0317383-0.3518066,0.171814-0.6887817,0.5239258-0.7888794c0.3306885-0.093689,0.6300659-0.3396606,0.8432617-0.6367188  l-1.4851074-0.3027954c-0.05896,0.149292-0.0925293,0.3027344-0.0925293,0.4512329c0,0.4140625-0.3359375,0.75-0.75,0.75  s-0.75-0.3359375-0.75-0.75c0-0.2532349,0.0488281-0.5047607,0.1218262-0.7510376l-4.8522944-0.9891968v8.0726309l-2,1.4386597  v-9.5112906c0-0.6030273,0.2680664-1.1679688,0.7353516-1.5493164C6.8850303,8.2853975,7.4909873,8.1340303,8.083272,8.2565889  l5.7807617,1.1784668c0.2438965-0.1594238,0.5056763-0.2896729,0.7841797-0.3688965  c0.6860352-0.1943359,1.3686533-0.0869141,1.8745127,0.2958984c0.2521973,0.1905518,0.446228,0.442749,0.5777588,0.7327881  l9.8656006,2.0112305c0.2240601-0.1376953,0.4602051-0.2541504,0.7119141-0.3255615  c0.6850586-0.1928711,1.3686523-0.0864258,1.8745117,0.2954102c0.2328491,0.1760864,0.4146729,0.406189,0.5452271,0.6685791  l9.4177227,1.9199219c0.305481-0.2426758,0.6480713-0.4358521,1.0199585-0.541626  c0.6860352-0.1933594,1.3686523-0.0864258,1.8745117,0.2958984c0.3175049,0.2398682,0.5357056,0.5809326,0.6578369,0.9699097  l13.0751343,2.6655264c0.3377686-0.6259766,0.7280273-1.2255249,1.1825562-1.7853394  c2.3125-2.8496084,5.8339844-4.2197256,10.4541054-4.0566397c0.1210938,0.0039063,0.2382813,0.03125,0.3466797,0.078125  c5.8710938-0.6967773,10.2841797,0.5654297,13.1132813,3.7509756c4.8817139,5.4969482,3.3924561,14.8889771,2.8640137,17.4732666  c0.0534058,0.0160522,0.1087036,0.0184326,0.161377,0.0389404c1.4521484,0.565918,1.9775391,2.5820313,1.1953125,4.590332  c-0.3525391,0.9042969-0.9248047,1.671875-1.6123047,2.1611328c-0.5136719,0.3657227-1.0693359,0.5541992-1.6005859,0.5541992  c-0.1310425,0-0.2603149-0.0120239-0.3872681-0.0350342c-1.0631714,3.4007568-2.8395386,6.225708-5.777771,7.9519653v3.4497681  l5.8170776,0.1397705c0.7315674,0.0175781,1.4576416,0.2901001,1.9431152,0.8377075  c0.0032349,0.0036621,0.0064697,0.0073242,0.0097046,0.0110474c0.5344238,0.4957275,0.9752808,1.105835,1.2418213,1.8376465  l12.5509033,34.456852C97.8824692,90.1611328,97.399498,90.8511353,96.7052841,90.8511353z M82.2667465,39.3542442  c0.21521-0.0045776,0.4623413-0.0944824,0.7110596-0.2714844c0.4453125-0.3164063,0.8408203-0.8574219,1.0839844-1.4833984  c0.4873047-1.25,0.2216797-2.4291992-0.3417969-2.6484375c-0.0693359-0.0268555-0.1455078-0.0400391-0.2265625-0.0400391  c-0.1461182,0-0.3079224,0.0439453-0.4749146,0.1260986C82.847496,36.5305138,82.6046982,37.978878,82.2667465,39.3542442z   M56.7006416,39.3554649c-0.3395996-1.3754272-0.5836182-2.8239746-0.7553101-4.317688  c-0.1674194-0.0826416-0.3297729-0.1268921-0.4763184-0.1268921c-0.0810547,0-0.1572266,0.0131836-0.2265625,0.0400391  c-0.5634766,0.2192383-0.8291016,1.3984375-0.3417969,2.6479492c0.2431641,0.6264648,0.6386719,1.1674805,1.0839844,1.4838867  C56.2351875,39.2614098,56.484333,39.3524742,56.7006416,39.3554649z M30.1606655,48.4227257  c0.0350342,0.0754395,0.085022,0.1445923,0.1618652,0.1903076l1.8254986,1.0836792l0.1139526,0.067688  c0.0146484,0.0087891,0.0310059,0.0094604,0.0462036,0.0162964c0.1100464,0.0493774,0.2282104,0.0479126,0.3341675,0.0033569  c0.081665-0.0343628,0.1563721-0.0874023,0.2050781-0.1690674c0.0558472-0.0941772,0.0674438-0.2010498,0.0472412-0.3009644  c-0.020874-0.1029053-0.0800781-0.1947632-0.1705322-0.2593994c-0.0046997-0.003418-0.0077515-0.0081787-0.0126343-0.0114136  c-0.005249-0.003418-0.0080566-0.0089722-0.0134888-0.012207l-1.9404278-1.1518555  c-0.0976563-0.0585938-0.2124023-0.0742188-0.3227539-0.046875c-0.1108398,0.0283203-0.2036133,0.0976563-0.2617188,0.1958008  C30.0985317,48.1535606,30.1033535,48.2991905,30.1606655,48.4227257z M28.916769,50.3889122  c0.027832,0.1103516,0.097168,0.203125,0.1953125,0.2612305l0.1348267,0.0801392l1.8051147,1.0726929  c0.1507568,0.0888672,0.3346558,0.0734863,0.468811-0.0232544c0.007019-0.0075684,0.0147705-0.0145264,0.0217285-0.0222168  c0.0355835-0.0297852,0.0697021-0.0621338,0.0949097-0.1039429c0.1196289-0.2021484,0.0527344-0.4648438-0.1499023-0.5854492  l-1.8052368-1.071228l-0.1342163-0.0796509c-0.0683594-0.0405273-0.1430664-0.0600586-0.2172852-0.0600586  c-0.1459961,0-0.2880859,0.074707-0.3676758,0.2089844C28.9050503,50.1638145,28.8884487,50.2785606,28.916769,50.3889122z   M26.4968472,54.4650841c0.0283203,0.1103516,0.097168,0.203125,0.1948242,0.2607422  c0.0004883,0,0.0004883,0.0009766,0.0004883,0.0009766l0.0300903,0.0178833l1.9103394,1.1344604  c0.0094604,0.0056152,0.0203247,0.0056152,0.0300293,0.010437c0.062561,0.0308228,0.1279907,0.0426025,0.194397,0.0413208  c0.0188599-0.0004272,0.0375366-0.0004272,0.0561523-0.0032349c0.1219482-0.0185547,0.236084-0.083313,0.3043823-0.197937  c0.0506592-0.0856323,0.0612793-0.1813354,0.0489502-0.2731323c-0.010498-0.0786743-0.0394897-0.1520996-0.0909424-0.2142334  c-0.0234985-0.0283813-0.0516968-0.0530396-0.0829468-0.0749512c-0.0090332-0.0063477-0.0143433-0.0159302-0.0239868-0.0216675  l-1.6177368-0.9615479l-0.3226929-0.1917725c-0.0668945-0.0390625-0.1416016-0.0595703-0.2172852-0.0595703  c-0.008606,0-0.0172729,0.0028687-0.0258789,0.0033569c-0.0267334,0.0015259-0.0535278,0.0029297-0.0800781,0.0103149  c-0.1103516,0.0273438-0.203125,0.0976563-0.2612305,0.1953125C26.4851284,54.2404747,26.4685268,54.3547325,26.4968472,54.4650841z   M29.6425991,59.9641685l-1.6483765-2.7414551c-0.041626-0.020752-0.0861816-0.029541-0.12677-0.0535278l-0.7625732-0.453125  l-3.3696899,0.970459l0.0177002,0.6304932c0.078125,2.7863159,3.4611816,4.1162109,5.4158325,2.1289673L29.6425991,59.9641685z   M30.4275112,53.6916466c0.0576172-0.0976563,0.0742188-0.2128906,0.0458984-0.3232422  c-0.027832-0.1103516-0.097168-0.203125-0.1948242-0.2607422l-0.1676025-0.0996094l-1.6383057-0.9737549L28.38027,51.9793663  l-0.0421143-0.0250244c-0.0683594-0.0400391-0.1430664-0.0595703-0.2167969-0.0595703  c-0.1459961,0-0.2885742,0.0751953-0.3686523,0.2089844c-0.0576172,0.0976563-0.0742188,0.2128906-0.0458984,0.3232422  c0.027832,0.1103516,0.097168,0.203125,0.1948242,0.2607422c0.0004883,0,0.0004883,0.0009766,0.0004883,0.0009766  l0.1345825,0.0799561l0.0054321,0.0031738l1.736084,1.0310059l0.0643311,0.038208  C30.0437222,53.9592247,30.307394,53.8947716,30.4275112,53.6916466z M36.2710762,51.4108238  c-0.1148071-0.1323242-0.2416382-0.2563477-0.3938599-0.3583374c-0.0157471-0.0106201-0.0269165-0.0262451-0.041748-0.0379639  c-0.0997314-0.0788574-0.1824341-0.1773071-0.2321777-0.2950439l-0.0595703-0.1420898l-0.2935181-0.7002563l-1.5516968-3.7020874  c-0.0431519-0.0975952-0.1151123-0.1703491-0.1956177-0.2290039c-0.1456299-0.1060181-0.3294678-0.1468506-0.4953003-0.074585  c-0.0006104,0.0002441-0.0013428,0.000061-0.0019531,0.0003662c-0.2573242,0.1137695-0.362793,0.4418945-0.2353516,0.7304688  l0.1396484,0.3151855l0.2975464,0.6714478l0.1345825,0.079895l0.121582,0.0721436  c0.6436768,0.3820801,0.9754639,1.083374,0.9302368,1.7838745c-0.0189209,0.2932129-0.0969849,0.5861816-0.256897,0.8557739  c-0.1239624,0.2087402-0.2896118,0.3726196-0.4697876,0.5147095c-0.0184937,0.0736084-0.0448608,0.1436157-0.0670776,0.2156982  c-0.0539551,0.1749268-0.1066284,0.3493042-0.1812134,0.5141602c-0.0720825,0.1592407-0.1590576,0.3094482-0.2489014,0.4579468  c-0.0666504,0.1101074-0.1541748,0.2035522-0.2294922,0.3070679c-0.0053711,0.0093994-0.0079346,0.0196533-0.0134888,0.0289917  c-0.0158081,0.0265503-0.0414429,0.041748-0.0583496,0.0671387c-0.2563477,0.333313-0.5418701,0.6421509-0.8840313,0.8891602  c0.0200176,0.3764648-0.0708618,0.7505493-0.2675781,1.0817871c-0.2289429,0.3852539-0.5776978,0.6472168-0.9667969,0.7974243  c0.0565796,0.4157104-0.0128784,0.8513184-0.2431641,1.2396851c-0.0576172,0.097168-0.1331787,0.175354-0.2042236,0.2583618  l1.5255127,0.9057007c0.9526348,0.5634766,2.1835918,0.25,2.7475567-0.7011719l1.9145508-3.2246094  C36.9375801,52.9791832,36.8229561,52.0470543,36.2710762,51.4108238z M63.0913277,47.077755  c0.3512573,0.2462769,0.7297363,0.4626465,1.1204262,0.6655273c1.4708862,0.7639771,3.2133179,1.2321167,5.3070679,1.338501  c2.0985107-0.1073608,3.8411865-0.5846558,5.3109741-1.3619995c0.3652954-0.1932373,0.7230225-0.3949585,1.0534668-0.6268311  c2.2365723-1.5697021,3.6847534-4.0241699,4.604187-7.1749878c0.1054077-0.3613892,0.2088013-0.7258911,0.3004761-1.1055908  c0.2432861-1.0073242,0.4429321-2.0740356,0.598999-3.2040405c0.0611572-0.4425049,0.1108398-0.9024658,0.1600342-1.3627319  c0.0228271-0.2134399,0.0489502-0.4217529,0.0693359-0.638916l-0.6453247-0.8901367  c-4.3291016-2.3291016-6.4521484-6.0380859-7.3974609-8.3027344c-2.4492188,2.8022461-6.4189453,2.7558594-6.6210938,2.7470703  c-0.4316406-0.0097656-0.8027344-0.3095703-0.9023438-0.7299805c-0.0263672-0.1074219-0.0322266-0.2163086-0.0205078-0.3217773  c-2.3359413,0.9160156-4.5459023,1.0424805-4.7119179,1.0507813c-0.3212891,0.015625-0.6337891-0.1376953-0.8173828-0.3930664  c-1.1728516,0.5405273-2.1689453,0.7558594-2.6298828,0.8334961c-0.3059082,0.7474365-0.5628052,1.6593018-0.7385254,2.7575073  c0.0574341,1.3566895,0.1519165,2.6518555,0.2844238,3.8876343c0.0494995,0.4613647,0.0994873,0.9221802,0.1610107,1.3656006  c0.156189,1.1264648,0.355957,2.1898804,0.5993042,3.194397c0.0921021,0.3800659,0.1957397,0.7452393,0.3016968,1.1069336  C59.3990059,43.0565758,60.8504219,45.506649,63.0913277,47.077755z M76.942955,53.7258263h-0.0137329h-1.5969238  c-0.4140625,0-0.75-0.3359375-0.75-0.75v-3.4550171c-1.4429932,0.590332-3.1159058,0.960083-5.0634766,1.059021  c-1.9795532-0.0999756-3.6782227-0.4753418-5.1396484-1.0765991v3.4725952c0,0.4140625-0.3359375,0.75-0.7500038,0.75h-1.6096802  c1.491394,1.5679321,4.2709389,2.625061,7.4617348,2.625061c3.0811157,0,5.7810669-0.9849854,7.3059692-2.4643555  C76.8415146,53.8338585,76.8916855,53.7797203,76.942955,53.7258263z M69.109642,40.881588h1.3232422  c0.4140625,0,0.75-0.3359375,0.75-0.75s-0.3359375-0.75-0.75-0.75h-1.1533203v-1.9326172c0-0.4140625-0.3359375-0.75-0.75-0.75  s-0.75,0.3359375-0.75,0.75v2.1025391C67.7795639,40.2849083,68.3762436,40.881588,69.109642,40.881588z M69.4807358,45.8146935  c1.7753906,0,3.671875-0.4316406,3.671875-1.6430664c0-0.4140625-0.3359375-0.75-0.75-0.75  c-0.3349609,0-0.6181641,0.21875-0.7148438,0.5214844c-0.25,0.1484375-1.0400391,0.371582-2.2070313,0.371582  s-1.9560547-0.2231445-2.2060547-0.371582c-0.0966797-0.3027344-0.3798828-0.5214844-0.7148438-0.5214844  c-0.4140625,0-0.75,0.3359375-0.75,0.75C65.8098373,45.3830528,67.7063217,45.8146935,69.4807358,45.8146935z"></path></svg>