<svg xmlns="http://www.w3.org/2000/svg" xmlns:xlink="http://www.w3.org/1999/xlink" version="1.1" x="0px" y="0px" viewBox="0 0 90 90" enable-background="new 0 0 90 90" xml:space="preserve"><path  d="M66.312,67.885c-1.438,1.349-2.438,2.982-3.009,4.721H24.789c-0.5-1.53-1.328-2.973-2.503-4.229  c-0.508-0.539-1.059-1.017-1.642-1.432l1.733-5.489H78.81c1.566,0,2.838-1.266,2.838-2.838l5.681-32.08  c0-1.564-1.271-2.835-2.838-2.835l-62.392-8.252l-5.826-5.826c0.501-1.888,0.031-3.981-1.447-5.463  c-2.218-2.215-5.811-2.215-8.026,0s-2.215,5.808,0,8.023c1.481,1.484,3.575,1.951,5.463,1.45l5.004,5.006v35.852l-0.117-0.036  l-3.271,10.36c-2.739,0.036-5.476,1.048-7.632,3.071c-4.568,4.29-4.786,11.476-0.49,16.041c4.291,4.561,11.471,4.778,16.039,0.493  c1.427-1.349,2.433-2.978,3.004-4.721h38.519c0.498,1.525,1.322,2.978,2.5,4.228c4.291,4.561,11.471,4.778,16.036,0.493  c4.565-4.301,4.784-11.481,0.488-16.047C78.052,63.817,70.877,63.594,66.312,67.885z"></path></svg>