<svg xmlns="http://www.w3.org/2000/svg" xmlns:xlink="http://www.w3.org/1999/xlink" version="1.1" x="0px" y="0px" viewBox="0 0 96 96" enable-background="new 0 0 96 96" xml:space="preserve"><path d="M9.6,50.392h9.765c0.276,0,0.5,0.225,0.5,0.5v36.369h56.272V50.892c0-0.275,0.224-0.5,0.5-0.5H86.4L48,8.499L9.6,50.392z   M76.637,49.392c-0.827,0-1.5,0.673-1.5,1.5v35.369H20.865V50.892c0-0.827-0.673-1.5-1.5-1.5h-7.492L48,9.979l36.127,39.412H76.637z  "></path><path d="M49.923,76.147l0.135-3.925l-0.02-1.065c-0.002-0.166-0.006-0.328-0.013-0.482c-0.008-0.231-0.021-0.455-0.034-0.675  l-0.026-0.474c-0.009-0.161-0.018-0.317-0.029-0.465c-0.021-0.271-0.049-0.541-0.079-0.826l-0.079-0.785  c-0.029-0.229-0.065-0.466-0.1-0.692l-0.132-0.871c-0.034-0.196-0.075-0.391-0.115-0.573l-0.113-0.541  c-0.029-0.147-0.057-0.282-0.092-0.433c-0.054-0.221-0.118-0.442-0.179-0.649l-0.129-0.463c-0.034-0.126-0.064-0.239-0.101-0.354  c-0.085-0.269-0.186-0.53-0.288-0.798l-0.225-0.604c-0.192-0.458-0.402-0.897-0.623-1.308c-0.181-0.334-0.362-0.702-0.561-1.141  l-0.188-0.45c-0.101-0.245-0.186-0.448-0.264-0.661c-0.031-0.085-0.06-0.171-0.09-0.261l-0.094-0.283  c-0.072-0.215-0.132-0.396-0.187-0.585c-0.034-0.114-0.064-0.229-0.096-0.352l-0.038-0.146c-0.054-0.198-0.109-0.411-0.157-0.625  c-0.032-0.143-0.06-0.284-0.089-0.441c-0.052-0.264-0.092-0.473-0.125-0.674c-0.027-0.172-0.051-0.334-0.074-0.506  c-0.028-0.202-0.053-0.405-0.073-0.604l-0.044-0.473c-0.018-0.226-0.03-0.424-0.04-0.603l-0.02-0.489  c-0.006-0.212-0.009-0.406-0.009-0.593l0.003-0.462c0.004-0.21,0.01-0.4,0.019-0.598l0.022-0.44c0.011-0.177,0.025-0.348,0.04-0.514  l0.016-0.176c0.007-0.097,0.016-0.201,0.029-0.314l0.342-2.419c0.078-0.531-0.189-1.057-0.666-1.311  c-0.467-0.242-1.068-0.164-1.454,0.189l-1.067,0.98c-3.644,3.344-5.998,10.125-5.998,17.275c0,10.436,4.663,18.994,10.615,19.482  l0.589,0.045c0.628,0,1.17-0.47,1.259-1.093l0.253-1.773c0.023-0.176,0.046-0.357,0.067-0.549l0.272-2.743  C49.892,76.649,49.908,76.421,49.923,76.147z M48.925,76.101c-0.015,0.255-0.03,0.477-0.045,0.679l-0.27,2.718  c-0.02,0.185-0.042,0.358-0.063,0.521l-0.252,1.768c-0.019,0.132-0.133,0.232-0.289,0.232c-0.001,0-0.002,0-0.002,0l-0.484-0.04  c-5.438-0.447-9.697-8.567-9.697-18.486c0-6.884,2.227-13.375,5.674-16.539l1.068-0.98c0.05-0.046,0.115-0.071,0.183-0.071  c0.045,0,0.089,0.011,0.127,0.03c0.102,0.055,0.159,0.167,0.143,0.281l-0.295,2.014c-0.019,0.15-0.038,0.302-0.052,0.443  c-0.013,0.122-0.023,0.238-0.031,0.338l-0.015,0.172c-0.015,0.177-0.03,0.354-0.042,0.541l-0.023,0.457  c-0.009,0.203-0.016,0.401-0.02,0.627l-0.003,0.473c0,0.197,0.003,0.401,0.01,0.63l0.021,0.509c0.011,0.188,0.023,0.396,0.042,0.636  l0.045,0.481c0.021,0.214,0.048,0.429,0.077,0.641c0.023,0.178,0.049,0.348,0.078,0.531c0.035,0.215,0.077,0.434,0.131,0.706  c0.031,0.164,0.061,0.315,0.095,0.47c0.051,0.228,0.11,0.456,0.166,0.663l0.036,0.14c0.035,0.133,0.068,0.26,0.104,0.383  c0.058,0.197,0.121,0.39,0.201,0.629l0.09,0.271c0.033,0.1,0.065,0.197,0.1,0.291c0.082,0.225,0.171,0.44,0.29,0.725l0.109,0.266  c0.03,0.074,0.058,0.142,0.084,0.197c0.207,0.455,0.398,0.845,0.588,1.195c0.205,0.381,0.4,0.791,0.579,1.215l0.22,0.595  c0.09,0.235,0.184,0.479,0.264,0.729c0.032,0.1,0.058,0.198,0.093,0.328l0.128,0.459c0.058,0.199,0.119,0.406,0.168,0.606  c0.031,0.133,0.056,0.258,0.084,0.399l0.115,0.55c0.037,0.172,0.076,0.353,0.107,0.533l0.129,0.854  c0.034,0.221,0.068,0.448,0.096,0.664l0.079,0.788c0.026,0.255,0.054,0.515,0.074,0.779c0.012,0.142,0.02,0.288,0.028,0.441  l0.027,0.478c0.013,0.214,0.025,0.43,0.033,0.655c0.006,0.148,0.009,0.301,0.012,0.461l0.02,1.034L48.925,76.101z"></path><path d="M46.775,44.988l-0.653,3.363l-0.154,1.694c-0.007,0.115-0.012,0.253-0.017,0.426l-0.005,0.21  c-0.005,0.129-0.008,0.254-0.008,0.361c-0.002,0.209,0.001,0.404,0.006,0.586l0.003,0.174c0.001,0.109,0.004,0.217,0.009,0.319  c0.007,0.172,0.02,0.343,0.032,0.514l0.019,0.271c0.008,0.122,0.014,0.213,0.023,0.306c0.016,0.165,0.037,0.328,0.057,0.477  l0.035,0.277c0.018,0.146,0.03,0.248,0.046,0.352c0.024,0.158,0.053,0.314,0.083,0.47l0.128,0.671  c0.033,0.155,0.079,0.333,0.121,0.492l0.087,0.343c0.028,0.115,0.048,0.192,0.069,0.267c0.055,0.195,0.115,0.376,0.175,0.551  l0.108,0.337c0.043,0.133,0.066,0.202,0.085,0.252c0.089,0.247,0.188,0.483,0.273,0.682l0.191,0.471  c0.166,0.369,0.352,0.746,0.557,1.13c0.204,0.372,0.404,0.789,0.597,1.241l0.177,0.469c0.113,0.281,0.225,0.563,0.326,0.863  c0.039,0.113,0.073,0.232,0.113,0.372l0.096,0.322c0.072,0.234,0.142,0.465,0.197,0.677l0.199,0.864  c0.053,0.232,0.095,0.424,0.131,0.604c0.028,0.151,0.053,0.301,0.079,0.455l0.065,0.394c0.04,0.229,0.076,0.443,0.105,0.65  c0.026,0.19,0.047,0.369,0.068,0.558l0.045,0.38c0.026,0.227,0.049,0.418,0.066,0.62c0.017,0.173,0.029,0.349,0.042,0.536  l0.013,0.165c0.021,0.282,0.042,0.563,0.056,0.841c0.013,0.246,0.022,0.48,0.029,0.723l0.007,0.22  c0.007,0.205,0.014,0.414,0.017,0.609l0.004,0.727c0,0.286,0,0.568-0.004,0.85c-0.003,0.235-0.009,0.47-0.017,0.717  c-0.006,0.269-0.016,0.542-0.028,0.79l-0.136,2.196c-0.021,0.277-0.043,0.543-0.067,0.798l-0.363,3.095  c-0.069,0.524,0.187,1.027,0.651,1.281c0.186,0.102,0.396,0.155,0.609,0.155c0.3,0,0.591-0.106,0.82-0.3l1.014-0.855  c3.777-3.188,6.219-10.062,6.22-17.512c0-10.442-4.653-19.002-10.594-19.485l-0.559-0.041C47.417,43.96,46.891,44.393,46.775,44.988  z M48.027,44.96v-0.5l0.019,0.5l0.459,0.037c5.425,0.442,9.675,8.563,9.675,18.489c-0.001,7.168-2.304,13.742-5.865,16.748  l-1.014,0.854c-0.084,0.073-0.212,0.083-0.305,0.032c-0.1-0.055-0.155-0.162-0.14-0.274l0.225-1.722l0.143-1.409  c0.024-0.261,0.047-0.532,0.069-0.822l0.137-2.211c0.012-0.264,0.022-0.543,0.029-0.816c0.008-0.25,0.014-0.49,0.017-0.73  c0.004-0.286,0.004-0.572,0.004-0.867l-0.004-0.734c-0.003-0.206-0.01-0.421-0.021-0.722l-0.004-0.127  c-0.007-0.247-0.017-0.489-0.03-0.743c-0.015-0.288-0.036-0.576-0.058-0.866l-0.012-0.162c-0.014-0.192-0.027-0.376-0.044-0.553  c-0.018-0.208-0.042-0.409-0.072-0.668l-0.042-0.357c-0.021-0.192-0.043-0.379-0.071-0.58c-0.031-0.22-0.069-0.442-0.12-0.737  l-0.055-0.332c-0.026-0.161-0.052-0.318-0.083-0.482c-0.038-0.193-0.083-0.393-0.138-0.636l-0.205-0.888  c-0.059-0.23-0.133-0.474-0.215-0.742l-0.086-0.291c-0.043-0.151-0.083-0.288-0.125-0.413c-0.106-0.316-0.225-0.615-0.339-0.901  l-0.097-0.263c-0.031-0.083-0.064-0.169-0.095-0.241c-0.205-0.48-0.42-0.927-0.637-1.323c-0.192-0.359-0.367-0.715-0.521-1.056  l-0.184-0.454c-0.083-0.192-0.173-0.409-0.258-0.644c-0.018-0.047-0.036-0.103-0.071-0.212l-0.111-0.345  c-0.057-0.167-0.112-0.33-0.162-0.509l-0.15-0.588c-0.04-0.148-0.081-0.309-0.108-0.438l-0.127-0.662  c-0.027-0.143-0.054-0.287-0.076-0.432l-0.078-0.607c-0.02-0.141-0.039-0.292-0.053-0.444l-0.04-0.551  c-0.012-0.162-0.023-0.323-0.03-0.488l-0.011-0.468c-0.004-0.175-0.008-0.358-0.006-0.561c0-0.101,0.003-0.214,0.008-0.335  l0.006-0.214c0.004-0.159,0.008-0.285,0.014-0.378l0.14-1.586l0.651-3.355C47.782,45.05,47.893,44.96,48.027,44.96z"></path></svg>