<svg xmlns="http://www.w3.org/2000/svg" xmlns:xlink="http://www.w3.org/1999/xlink" version="1.1" x="0px" y="0px" viewBox="0 0 72 72" enable-background="new 0 0 72 72" xml:space="preserve"><path  d="M67.2,12.9c-0.2,0-0.4-0.2-0.4-0.4l0.1-7.7c0-0.1,0.1-0.3,0.3-0.3l1.3,0c0.1,0,0.3-0.1,0.3-0.3l0-2.9  c0-0.2-0.2-0.4-0.4-0.4L55.4,0.9c-0.2,0-0.4,0.2-0.4,0.4l0,2.9c0,0.1,0.1,0.3,0.3,0.3l1.3,0c0.1,0,0.3,0.1,0.3,0.3l-0.1,7.7  c0,0.2-0.2,0.4-0.4,0.4L1.8,12c-0.2,0-0.4,0.2-0.4,0.4L0.6,69.8c0,0.2,0.2,0.4,0.4,0.4l7.9,0.1c0.2,0,0.4-0.2,0.4-0.4l0.3-24.8  c0.1-5.6,4.6-10.1,10.2-10.1c5.5,0.1,10,4.7,9.9,10.3l-0.3,24.8c0,0.2,0.2,0.4,0.4,0.4l40.5,0.6c0.2,0,0.4-0.2,0.4-0.4l0.8-57.4  c0-0.2-0.2-0.4-0.4-0.4L67.2,12.9z M61.9,49.8l-22.4-0.3c-0.2,0-0.4-0.2-0.4-0.4l0.2-12.6c0-0.2,0.2-0.4,0.4-0.4l22.4,0.3  c0.2,0,0.4,0.2,0.4,0.4l-0.2,12.6C62.3,49.6,62.1,49.8,61.9,49.8z"></path></svg>