<svg xmlns="http://www.w3.org/2000/svg" xmlns:xlink="http://www.w3.org/1999/xlink" version="1.1" x="0px" y="0px" viewBox="0 0 100 100"  xml:space="preserve"><path d="M67.4,0.9H28.8c-4.5,0-8.2,3.7-8.2,8.2v81.5c0,4.5,3.7,8.2,8.2,8.2h38.6c4.5,0,8.2-3.7,8.2-8.2V9.2  C75.7,4.6,72,0.9,67.4,0.9z M28.8,4.1h38.6c2.8,0,5.1,2.3,5.1,5.1v4.6H23.7V9.2C23.7,6.4,26,4.1,28.8,4.1z M72.6,16.9v64.9H23.7  V16.9H72.6z M67.4,95.8H28.8c-2.8,0-5.1-2.3-5.1-5.1V85h48.9v5.7C72.6,93.5,70.3,95.8,67.4,95.8z"></path><circle cx="48.1" cy="90.2" r="3.3"></circle><path d="M6.6,16.1"></path><path d="M7.2,15.6"></path><circle cx="47.9" cy="90.2" r="3.3"></circle><path d="M42,8c-0.7,0-1.3,0.6-1.3,1.3s0.6,1.3,1.3,1.3h11.8c0.7,0,1.3-0.6,1.3-1.3S54.6,8,53.9,8H42z"></path><path d="M95.7,28.9h-1.5v-1.5c0-0.5-0.4-1-1-1s-1,0.4-1,1v1.5h-1.5c-0.5,0-1,0.4-1,1c0,0.5,0.4,1,1,1h1.5v1.5  c0,0.5,0.4,1,1,1s1-0.4,1-1v-1.5h1.5c0.5,0,1-0.4,1-1C96.6,29.3,96.2,28.9,95.7,28.9z"></path><path d="M14.5,67.6H13V66c0-0.5-0.4-1-1-1c-0.5,0-1,0.4-1,1v1.5H9.6c-0.5,0-1,0.4-1,1c0,0.5,0.4,1,1,1h1.5V71  c0,0.5,0.4,1,1,1c0.5,0,1-0.4,1-1v-1.5h1.5c0.5,0,1-0.4,1-1C15.4,68,15,67.6,14.5,67.6z"></path><path d="M12.5,18.9H10v-2.5c0-0.7-0.6-1.4-1.4-1.4c-0.7,0-1.4,0.6-1.4,1.4v2.5H4.7c-0.7,0-1.4,0.6-1.4,1.4  c0,0.7,0.6,1.4,1.4,1.4h2.5v2.5c0,0.7,0.6,1.4,1.4,1.4c0.7,0,1.4-0.6,1.4-1.4v-2.5h2.5c0.7,0,1.4-0.6,1.4-1.4  C13.9,19.5,13.3,18.9,12.5,18.9z"></path><circle cx="3.6" cy="46.4" r="1.8"></circle><circle cx="86.7" cy="83.4" r="1.8"></circle><circle cx="85.2" cy="16" r="2.2"></circle><path d="M58.9,41.1c0-0.4-0.3-0.6-0.6-0.6h-4.4C53.6,36.3,51.1,33,48,33c-3.1,0-5.7,3.3-5.9,7.5h-4.4  c-0.3,0-0.6,0.3-0.6,0.6l-1.6,23.9c0,0.2,0,0.4,0.2,0.5c0.1,0.1,0.3,0.2,0.5,0.2h24c0.2,0,0.3-0.1,0.5-0.2c0.1-0.1,0.2-0.3,0.2-0.5  L58.9,41.1z M48,34.7c2.2,0,4,2.4,4.3,5.6h-8.6C43.9,37.1,45.8,34.7,48,34.7z M43.6,46.6c-0.6,0-1.1-0.5-1.1-1.2s0.5-1.2,1.1-1.2  s1.1,0.5,1.1,1.2S44.2,46.6,43.6,46.6z M52.2,46.6c-0.6,0-1.1-0.5-1.1-1.2s0.5-1.2,1.1-1.2s1.1,0.5,1.1,1.2S52.8,46.6,52.2,46.6z"></path></svg>