<svg xmlns="http://www.w3.org/2000/svg" viewBox="0 0 128 128" x="0px" y="0px"><g><path d="M56.821,55.424a10.184,10.184,0,0,1,3.926,1.941l.168.132,1.078-.424c.12-.046.237-.093.355-.141a6.89,6.89,0,0,1,.819-.291L63.7,56.5l-.337-.443c-1.166-1.534-3.351-1.511-5.1-1.484l-.614.005c-.4.025-.755.035-1.172.024l0,.061-1.606-.148c-.434-.04-.837-.086-1.2-.129s-.713-.081-1-.1a4,4,0,0,0-1.446.053c-.1.028-.2.06-.3.091l-1.258.381,1.032.392c.641.244,1.282.479,1.869.68l.315.108.175-.1a6.241,6.241,0,0,1,.684-.361,3.14,3.14,0,0,1,1.061-.252L56.443,55l-.027.339C56.554,55.365,56.692,55.4,56.821,55.424Z"></path><path d="M44.73,78.853a8.069,8.069,0,0,0,6.148.742h.072c2.889-1.516,5.139-3.308,5.849-5.8a19.769,19.769,0,0,1,1.759-4.372,10.689,10.689,0,0,1,3.365-2.881,7.815,7.815,0,0,0,2.428-2.057,4.43,4.43,0,0,0,.484-1.033c0-.088,0-.153-.161-.2a4.217,4.217,0,0,0-1.146-.049,11.092,11.092,0,0,0-1.275.154,11.97,11.97,0,0,0-1.178.234c-.185.048-.363.088-.54.129-.17.064-.339.129-.5.185A11.567,11.567,0,0,0,56.88,65.71c-.823.63-1.46,1.194-1.977,1.622-1.024.855-1.532,1.178-1.637,1.073s.185-.621,1.032-1.67a19.179,19.179,0,0,1,1.791-1.952,11.456,11.456,0,0,1,3.357-2.308c.193-.081.379-.169.581-.258.2-.065.411-.121.621-.186.427-.121.871-.258,1.3-.338.444-.089.911-.178,1.428-.234a5.886,5.886,0,0,1,1.468,0A4.916,4.916,0,0,0,66.086,59.7a.962.962,0,0,0-.057-.726,1.379,1.379,0,0,0-.54-.6,2.431,2.431,0,0,0-1.848-.081,8.488,8.488,0,0,0-1.113.371c-.371.137-.735.266-1.09.4a36.08,36.08,0,0,0-3.727,1.574c-1.113.451-2.009,1.008-2.824,1.4-1.646.8-2.694,1.493-3.445,1.824-.734.347-1.113.435-1.2.314s.113-.435.71-1.008A19.551,19.551,0,0,1,54.1,60.708a25.892,25.892,0,0,1,2.791-1.694c.541-.282,1.114-.6,1.735-.912a8.906,8.906,0,0,0-2.235-.968,4.175,4.175,0,0,0-.783-.145l-.363-.048c-.113.008-.218.024-.322.032a1.441,1.441,0,0,0-.573.105,4.66,4.66,0,0,0-.589.282c-.412.242-.823.516-1.243.775a10.148,10.148,0,0,1-1.307.685c-.847.355-1.533.549-2.122.751-2.363.718-2.759,1.42-3.081,1.3-.122-.049-.178-.38.169-.936a4.049,4.049,0,0,1,1.008-.993q-1-.218-1.984-.484a.946.946,0,0,1-.234.194c-2.13,1.315-1.517,6.067-1.646,8.2a13.225,13.225,0,0,1-1.331,5.583C42.116,74.714,42.648,77.53,44.73,78.853Z"></path><path d="M44.847,43.465a6.794,6.794,0,0,1-2.05,1.393c-4.256,1.858-11.7,1.254-16.585-1.343l-2.589-1.376,2.16,1.984c1.981,1.819,4.933,2.309,7.788,2.783,3.417.568,6.645,1.1,7.847,3.821l.061.1a.5.5,0,0,1,.133.351l0,.063.018.061a5.9,5.9,0,0,1,.182.79l.042.261.26.048c.674.125,1.357.286,2.032.476L44.58,53l.039-.451c.093-1.052.239-2.121.381-3.155a37.452,37.452,0,0,0,.484-5.662l-.014-.869Z"></path><path d="M23.81,48.969a15.546,15.546,0,0,0,3.372,6.673c1.436-2.7,2.969-6.293,6.035-7.108l.129-.024a37.761,37.761,0,0,1-5.615-1.017,8.632,8.632,0,0,1-4.414-3.687A19.245,19.245,0,0,0,23.81,48.969Z"></path><path d="M55.162,89.043c1.992-.613,3.792-1.662,5.809-2.13-.009-.113-.025-.218-.041-.331-2.525-.823-3.05-2.646-2.049-5.236a27.894,27.894,0,0,1,1.985-5.034c.581-.92,2.178-2.751,1.363-3.946-.516-.75-1.1-1.428-1.678-2.121-.081.1-.177.2-.25.314A20.222,20.222,0,0,0,58.816,74.5a10.633,10.633,0,0,1-1.153,2.421A11.529,11.529,0,0,1,56.8,78.03,12.481,12.481,0,0,1,55.791,79a19.594,19.594,0,0,1-3.848,2.534c-2.348,2.4-3.784,5.429-5.382,8.35C49.409,89.705,52.443,89.882,55.162,89.043Z"></path><path d="M98.228,61.507c-2.138-1.549-4.017-2.8-6.849-1.9s-4.889,1.7-7.536.081a8.544,8.544,0,0,0-4.5-1.017c-.056,1.654-.218,3.3-.3,4.954,2.9.371,6.148-.226,8.834,1.024a10.237,10.237,0,0,1,5.365,5.963c.008.024,0,.04.008.056l.226-.048A3.257,3.257,0,0,1,95,70.834a2.424,2.424,0,0,1,.71.419,2.646,2.646,0,0,1,.581.581,5.162,5.162,0,0,1,.8,1.4c.177.444.339.928.492,1.436a21.786,21.786,0,0,1,.565,2.372c.016.048.032.081.048.129.557,1.533.541,3.986,2.574,4.639a1.935,1.935,0,0,0,1.541.121,11.672,11.672,0,0,1-.17-1.767c-.024-3.687.581-7.326.9-10.988a65.163,65.163,0,0,0,.331-7.036C101.617,61.822,99.826,62.661,98.228,61.507Z"></path><path d="M84,39.594a4.234,4.234,0,0,0-.839-.766,51.459,51.459,0,0,1-5.494,6.083,40.431,40.431,0,0,0-2.759,3.01c-1.259,1.549-.089,2.049,1.323,1.484,3.187-1.3,6.551-4.244,8.98-6.866a3.111,3.111,0,0,1-.557-.766,2.659,2.659,0,0,1-.274-1.832A1.265,1.265,0,0,1,84,39.594Z"></path><path d="M89.628,45.105c.177-.508.347-.984.516-1.444-.185.04-.379.072-.573.1a5.821,5.821,0,0,1-2.081.443.927.927,0,0,1-.758-.339c-.646.686-1.34,1.364-2.066,2.017a27.046,27.046,0,0,1,4.389.662C89.257,46.033,89.458,45.549,89.628,45.105Z"></path><path d="M96.163,50.656a1.213,1.213,0,0,1-.315-.073c-.919.944-2.105,1.267-3.066,2.065l-.032.025c-.008.008-.169.1-.169.1a.31.31,0,0,1-.057.025l-.088.048-.186.089-.089.04c-.04.016-.129.04-.185.057a3.831,3.831,0,0,1-.412.1,2.079,2.079,0,0,1-.734.025,1.826,1.826,0,0,1-.662-.138,3.071,3.071,0,0,1-1.839-1.7,3.169,3.169,0,0,1-.145-2.1,4.2,4.2,0,0,1,.185-.758,45.484,45.484,0,0,0-5.72-.758c-.04-.008-.072-.016-.105-.025-.718.573-1.436,1.114-2.138,1.614-1.573,1.122-4.219,3.034-6.317,2.316-.113-.041-.218-.081-.323-.13-.032.017-.056.041-.088.057-2.3.968-5.156,1.928-6.947,3.824,5.285,4.091,12.731-.791,18.129,2.59,2.218,1.4,4.841,0,7.108-.565a7.7,7.7,0,0,1,4.122.307c1.307.371,1.993,1.517,3.155,2.081s2.67.283,4.026.363C102.867,55.4,101.205,50.986,96.163,50.656Z"></path><path d="M92.371,41.789c-.089.492-.186,1.025-.307,1.622-.072.347-.145.71-.225,1.1-.041.185-.081.371-.121.565-.041.226-.1.451-.154.661-.234.855-.524,1.694-.766,2.558-.065.218-.121.427-.162.637-.1.492-.209,2.154.743,1.7a.6.6,0,0,1,.1-.1c.04-.017.1-.146.161-.21a3.669,3.669,0,0,0,.347-.541c.234-.4.444-.847.645-1.291.21-.468.4-.919.605-1.371.1-.234.194-.428.3-.686.089-.21.169-.42.25-.621a15.655,15.655,0,0,0,.887-2.38,18.434,18.434,0,0,0,.6-2.138c.13-.662.259-1.267.388-1.8.088-.557.145-1.049.226-1.453.145-.79.306-1.234.476-1.234s.33.444.476,1.234c.064.4.153.888.193,1.461,0,.589-.016,1.266-.048,2.017a14.424,14.424,0,0,1-.339,2.42,15.129,15.129,0,0,1-.758,2.7c-.008.04-.025.08-.033.113.138-.2.283-.4.428-.613a19.719,19.719,0,0,0,2.428-4.744c.1-.315.218-.6.323-.88a5.7,5.7,0,0,1,.25-.742c.162-.4.339-.621.509-.613s.314.242.443.661a5.867,5.867,0,0,1,.17.767c.024.314.024.686.016,1.1a10.628,10.628,0,0,1-1.2,4.308,2.3,2.3,0,0,1,.589.17c1.718.306,2.581-2.671,2.759-3.784a4.888,4.888,0,0,0-.863-4.26c-1.3-1.452-2.873-3.017-4.873-3.3a.792.792,0,0,1-.727-.887c-.6-1.493-2.509-1.372-3.832-.775a6.714,6.714,0,0,1,1.1,1.969c.662,1.872.944,4.2-.355,5.9C92.815,41.289,92.6,41.539,92.371,41.789Z"></path><path d="M94.065,77.546a2.36,2.36,0,0,1,.17.92c-.024,1.041-.2,1.557-.291,1.565-.129.016-.177-.589-.331-1.484a1.78,1.78,0,0,0-.233-.646,1.073,1.073,0,0,0-.138-.185,1.72,1.72,0,0,1,.186.855v.04l-.016.089-.016.056-.025.121a.655.655,0,0,1-.032.121.959.959,0,0,1-.105.21,1.241,1.241,0,0,1-.145.2l-.153.129a1.268,1.268,0,0,1-.307.185,2.9,2.9,0,0,0-.4.21.922.922,0,0,1-.081.1l-.024.048c0,.017.024.089.024.129.024.089.032.17.065.275.048.193.105.395.169.6a3.977,3.977,0,0,1,.2.605c.016.161-.113.323.016.46s.444.056.573-.057c.242-.209.387-.734.573-1.008.121-.2.25-.412.379-.621.105-.2.145-.371.234-.557a3.527,3.527,0,0,0,.145-.581,5.229,5.229,0,0,0,.016-.613,11.928,11.928,0,0,0-.783-2.574c-.08-.21-.169-.452-.242-.669-.032-.138-.072-.315-.088-.436a2.128,2.128,0,0,0-.057-.307c-.016-.2-.089-.177-.032-.218-.057.033-.016,0-.073-.008a1.551,1.551,0,0,1-.177-.024l-.04-.008c-.194-.016-.323.049-.476.283a1.454,1.454,0,0,0-.21.8v.049c0,.113-.008.217-.008.322a2.1,2.1,0,0,1,1.105.678A2.573,2.573,0,0,1,94.065,77.546Z"></path><path d="M38.921,55.045c3.477.814,6.825,2.113,10.375,2.662.016,0,.024.016.049.016.347-.169.718-.339,1.081-.54.266-.146.516-.3.782-.476-3.679-1.372-7.495-3.155-11.416-3.349A4.807,4.807,0,0,0,38.921,55.045Z"></path><path d="M86.61,105.881a8.4,8.4,0,0,1-2.033.484,4.646,4.646,0,0,1-.855-.049,3.19,3.19,0,0,1-.4.008,1.074,1.074,0,0,1-.525-.185.888.888,0,0,1-.7-.646c-.137-.121-.274-.258-.427-.411a.921.921,0,0,1-.283-.573,5.978,5.978,0,0,0-2.121-.911c-.025,2.9,1.274,5.163,4.606,5.187,2.913.016,5.2-1.371,7.536-2.824A10.467,10.467,0,0,0,86.61,105.881Z"></path><path d="M102.424,83.315c-.194.032-.388.064-.589.088-.194-.008-.388-.032-.581-.056a5.73,5.73,0,0,1-.968-.258A4.438,4.438,0,0,1,98.567,81.9a4.046,4.046,0,0,1-.524-.839,1.761,1.761,0,0,1-.057.193,9.044,9.044,0,0,1-.774,1.38,14.058,14.058,0,0,1-.872,1.186,13.081,13.081,0,0,1-1.9,1.977,3.124,3.124,0,0,1-.54.4l-.3.177-.072.041-.065.032-.032.016-.137.049a2.991,2.991,0,0,1-1.283.25,1.569,1.569,0,0,1-1.17-.678,2.712,2.712,0,0,1-.363-.976,6.537,6.537,0,0,1-.064-1.493c.064-.8.145-1.218.233-1.226s.194.444.3,1.2a8.14,8.14,0,0,0,.274,1.331,1.816,1.816,0,0,0,.323.646.64.64,0,0,0,.516.234,1.3,1.3,0,0,0,.371-.073,1.984,1.984,0,0,0,.46-.186l.129-.056.033-.016h-.016a.028.028,0,0,1,.016-.008l.048-.033.194-.145a2.217,2.217,0,0,0,.411-.347,13.8,13.8,0,0,0,1.646-1.888c.266-.355.524-.726.767-1.121a7.749,7.749,0,0,0,.645-1.21,6.672,6.672,0,0,0,.145-2.735,20.257,20.257,0,0,0-.6-2.929c-.137-.46-.274-.912-.436-1.38a4.433,4.433,0,0,0-.564-1.064,1.966,1.966,0,0,0-1.743-.864,4.512,4.512,0,0,0-1.912.63,10.459,10.459,0,0,0-2.477,1.968c-.516.541-.8.912-.879.847-.065-.048.024-.46.46-1.17a8.411,8.411,0,0,1,2.388-2.468c.193-.129.4-.25.629-.372a.839.839,0,0,1-.089-.145,8.123,8.123,0,0,0-7.438-5.518,42.641,42.641,0,0,1-6.253-.436.806.806,0,0,1-.589-.782c.048-1.864.25-3.712.315-5.575A44.929,44.929,0,0,1,72.072,59a15.6,15.6,0,0,1-4.01-.742,3.2,3.2,0,0,1,.121,2.017,6.22,6.22,0,0,1-1.573,2.493,2.035,2.035,0,0,1,.089.734,2.565,2.565,0,0,1-.105.621,3.256,3.256,0,0,1-.178.5,7.225,7.225,0,0,1-.451.9,9.3,9.3,0,0,1-2.937,2.711c-.331.225-.662.443-.976.669.387.452.815.92,1.2,1.42a2.684,2.684,0,0,1,.548-1.041c.323-.322.6-.363.759-.266s.1.42.048.783c-.008.282-.072.75-.129,1.283a8.113,8.113,0,0,1-.153,1.065,2.941,2.941,0,0,1-.073,2.331c-.8,1.735-1.92,3.308-2.711,5.051a7.025,7.025,0,0,0-.968,3.808,1.62,1.62,0,0,0,1.388,1.42c.516.024.871-.436,1.4-.436s1,.412,1.524.371a3.25,3.25,0,0,0,1.227-.5,1.067,1.067,0,0,0,.4-1.041c-.105-.815-.516-1.42-.339-1.549.073-.056.242,0,.484.17a2.729,2.729,0,0,1,.791,1.1,2.044,2.044,0,0,1,.105,1.065,1.959,1.959,0,0,1-.637,1.137,3.714,3.714,0,0,1-2.34.936,5.623,5.623,0,0,1,2.307,1.065,7.318,7.318,0,0,1,1.4,1.444c.67.936.807,1.662.646,1.735-.178.089-.6-.419-1.364-1.089a7.313,7.313,0,0,0-3.251-1.815,2.718,2.718,0,0,0-.888-.016,2.764,2.764,0,0,0,.355.314c.379.275.71.517.985.718a3.663,3.663,0,0,1,.532.484c.613.331,1,.726.936,1-.081.363-1.033.355-2.114-.033a5.08,5.08,0,0,1-.565-.266A1.71,1.71,0,0,0,65.1,91.834a1.038,1.038,0,0,1,.331.121.818.818,0,0,1,.605.92,26.015,26.015,0,0,0-.185,3.34l.153.057a4.708,4.708,0,0,1,1.21.807,2.914,2.914,0,0,0,.412.266,2.058,2.058,0,0,1,.2-.339.973.973,0,0,1,.412-.315,1.179,1.179,0,0,1,.153-.056l.008.04.121.032h.04l.1-.04c.073.008.113-.024.21-.008l.282.04.355.081c.081,0,.065.016.178.016a6.549,6.549,0,0,0,.662-.105.913.913,0,0,0,.726-.484c.217-.355.427-.686.621-1l.234-.379.355.185A2.11,2.11,0,0,1,73.306,96.4a3.411,3.411,0,0,1,.089.532,4.428,4.428,0,0,1,.307.646,2.677,2.677,0,0,1-.105,1.888,3.473,3.473,0,0,1-1.122,1.307,37.547,37.547,0,0,1,5.212.548c2,.436,4.769.815,5.922,2.647a3.455,3.455,0,0,0,.775.169c1.436-.508,2.848-1.993,4.3-2.323,2.775-.63,5.527-.638,7.842-2.639,3.34-2.88,4.808-7.043,7.9-9.972-.588-1.96-1.379-3.937-1.863-5.954C102.512,83.266,102.472,83.3,102.424,83.315Zm-11.36-6.293a.563.563,0,0,1,.21-.234.475.475,0,0,1,.161-.073c-.016-.024-.032-.04-.032-.056a.978.978,0,0,1-.065-.162c-.016-.072-.04-.161-.048-.218a6.462,6.462,0,0,1-.048-.645,2.525,2.525,0,0,1,.282-1.468,3.418,3.418,0,0,1,.242-.363,4.74,4.74,0,0,1,.363-.323,3.15,3.15,0,0,1,.476-.2,4.88,4.88,0,0,1,.492-.048c.145.008.291.024.436.04a2.126,2.126,0,0,1,.532.234,1.582,1.582,0,0,1,.549.936c.04.194.081.387.121.589.073.218.145.4.242.629a11.276,11.276,0,0,1,.895,2.929,5.652,5.652,0,0,1-.024.912,4.571,4.571,0,0,1-.226.871,8.086,8.086,0,0,1-.363.791c-.129.209-.258.411-.387.613l-.121.193-.105.137-.2.283a4.328,4.328,0,0,1-.492.629,1.677,1.677,0,0,1-.435.339,1.18,1.18,0,0,1-.71.113,1.64,1.64,0,0,1-.856-.46,1.83,1.83,0,0,1-.266-.331c-.04-.088-.056-.137-.089-.209a3.57,3.57,0,0,1-.145-.38c-.08-.242-.137-.476-.193-.7s-.1-.451-.146-.685a3.094,3.094,0,0,1-.048-.839l.008-.049.016-.04c.073-.129.145-.258.226-.379a2.388,2.388,0,0,1,.339-.3,3.4,3.4,0,0,1,.581-.258.716.716,0,0,0,.153-.065.362.362,0,0,1,.057-.024c0-.008,0-.008.008-.008.024.113.121-.306.121-.266a1.425,1.425,0,0,0-.444-1.122c-.549-.556-1.009-.112-1.081-.209C91.032,77.118,91.04,77.078,91.064,77.022Zm-9.222-7.205c.121-.113,1.009.411,2.251,1.638a14.024,14.024,0,0,1,1.88,2.412,10.571,10.571,0,0,1,1.4,3.542,13.123,13.123,0,0,1-.6,6.753c-.581,1.621-1.138,2.525-1.3,2.461-.194-.073.048-1.1.371-2.711a16.439,16.439,0,0,0,.2-6.237,14.457,14.457,0,0,0-2.687-5.591C82.391,70.785,81.689,69.954,81.842,69.817ZM92.1,91.076a5.346,5.346,0,0,1-.444,1.307,7.17,7.17,0,0,1-.815,1.364,10.785,10.785,0,0,1-2.662,2.347,16.341,16.341,0,0,1-5.89,2.163c-1.581.258-2.582.169-2.6,0-.024-.2.912-.46,2.372-.936a24.976,24.976,0,0,0,5.39-2.38,11.965,11.965,0,0,0,2.42-1.993,7.7,7.7,0,0,0,.783-1.089,5.453,5.453,0,0,0,.516-1.049,6.3,6.3,0,0,0,.29-.92,4.492,4.492,0,0,0,.154-.766c.064-.444.153-.686.242-.686s.193.234.282.669a2.459,2.459,0,0,1,.081.823A4.538,4.538,0,0,1,92.1,91.076Z"></path><path d="M106.288,90.229c-2.178,1.88-3.009,4.558-4.792,6.745a21.931,21.931,0,0,1-5.946,5.26c-2.041,1.186-4.664.823-6.834,1.63a8,8,0,0,1,1.985-.041c3.848.67,6.5.856,9.423-2.113a31.257,31.257,0,0,0,5.833-7.6c1.033-2.025,3.849-8.5-.451-8.682.306,1.211.661,2.453,1.024,3.76A.847.847,0,0,1,106.288,90.229Z"></path><path d="M93.049,85.461v.008C93.041,85.469,93.089,85.445,93.049,85.461Z"></path><path d="M72.96,97.764a3.832,3.832,0,0,0-.364-1.032c-.121-.258-.242-.452-.33-.613-.089.193-.186.395-.307.629a2.342,2.342,0,0,1-.21.331,1.328,1.328,0,0,1-.322.322,2.04,2.04,0,0,1-.807.4,7.2,7.2,0,0,1-.75.161,3.083,3.083,0,0,1-.549.008l-.379-.073a.282.282,0,0,1-.089-.024.324.324,0,0,1-.065-.072c-.016.048-.032.1-.056.153s-.065.161-.105.258a1.684,1.684,0,0,1-.153.218l-.049.064a1.161,1.161,0,0,1-.153.105.85.85,0,0,1-.339.1,2.32,2.32,0,0,1-1.517-.557,1.236,1.236,0,0,0-.113-.088v.242a3.861,3.861,0,0,0,2.929,2.057c.266.065.541.1.807.153a3.747,3.747,0,0,0,2.695-1.468A1.887,1.887,0,0,0,72.96,97.764Z"></path><path d="M31.681,74.861a.734.734,0,0,1-.006.2l-.01.066c-.03.469-.052.94-.074,1.41a33.189,33.189,0,0,1-.294,3.569A15.666,15.666,0,0,1,30.871,82l-.407,1.457,1.04-1.1c1.136-1.2,2.257-2.419,3.376-3.635q1.051-1.144,2.1-2.281A20.749,20.749,0,0,0,40.162,72.2l.144-.266-.228-.2a5.238,5.238,0,0,0-2.978-.969,6.037,6.037,0,0,1-2.2-.522,5.74,5.74,0,0,1-2.292-2.127,85.259,85.259,0,0,1-4.827-9.969l-.111-.26-.28.035a.571.571,0,0,1-.463-.168l-1.867-1.887,1.571,3.1c.475.936.952,1.878,1.431,2.834a41.364,41.364,0,0,1,3.442,11.971l.018.108.073.081a.477.477,0,0,1,.115.379c-.008.082-.013.164-.017.245S31.69,74.728,31.681,74.861Z"></path><path d="M36.339,59.03a3.378,3.378,0,0,0-.137.484.729.729,0,0,0,.032.339.119.119,0,0,0,.008.048l.073.138.04.064c.033.016.041.016.041.032a1.072,1.072,0,0,0,.346.154,4.383,4.383,0,0,0,1.178.072,13.664,13.664,0,0,1,1.509.008,2.689,2.689,0,0,1,.928.234,2.893,2.893,0,0,1,.734.412,4.333,4.333,0,0,1,.452.395,7.179,7.179,0,0,1,1.38-3.6c-1.622-.468-3.244-.96-4.9-1.323a.677.677,0,0,1-.524-.452.792.792,0,0,1-.291-.791,6.748,6.748,0,0,1,1.525-3.13c.033-.032.073-.04.105-.073a.727.727,0,0,1,.646-.314c.185.008.556.016.653.024-1.622-1.517-5.228-2.356-7.229-.855-1.839,1.379-2.9,3.719-3.993,5.768,1.484,3.558,2.912,7.447,5.115,10.626,1.024,1.468,2.5,1.71,3.985,1.992-.113-.161-.226-.322-.322-.484a14.118,14.118,0,0,1-1.17-2.605,5.773,5.773,0,0,1-.541-2.429c.137-.056.533.766,1.21,2.138a18.729,18.729,0,0,0,1.356,2.34,6.243,6.243,0,0,0,1.573,1.621,2.882,2.882,0,0,1,.387.186,6.842,6.842,0,0,0,.476-1.041,11.468,11.468,0,0,0,.315-2.162c.04-.879.024-1.912.056-2.985a1.2,1.2,0,0,1-.04-.162c-.073-.217-.153-.427-.242-.637a3.046,3.046,0,0,0-.331-.54l-.193-.234-.194-.162a1.86,1.86,0,0,0-.565-.331,1.244,1.244,0,0,0-.5-.137,12.375,12.375,0,0,0-1.364-.04,5.154,5.154,0,0,1-1.524-.186,1.994,1.994,0,0,1-.8-.451,1.7,1.7,0,0,1-.186-.226l-.088-.113-.033-.073-.072-.145a.9.9,0,0,1-.073-.25,1.791,1.791,0,0,1-.024-.872,5.941,5.941,0,0,1,.218-.637c.355-.823.556-1.493-.242-2.146-.4-.323-.839-.565-1.154-.847-.71-.6-.71-1.1-.654-1.122.089-.064.331.38.961.686.314.186.766.347,1.29.662a2.035,2.035,0,0,1,.4.29,1.727,1.727,0,0,1,.387.412l.161.266.041.056a.78.78,0,0,1,.024.089.314.314,0,0,1,.016.049l.032.121a1.665,1.665,0,0,1,.057.266,3.256,3.256,0,0,1-.008.4A5.885,5.885,0,0,1,36.339,59.03Z"></path><path d="M64.688,86.248l-.244-.408a1.277,1.277,0,0,0-.992-.451h0a1.245,1.245,0,0,0-.94.31.59.59,0,0,0-.13.511l.016.085.065.057a.177.177,0,0,0,.149.058,4.887,4.887,0,0,0,.486-.054c.359-.047,1.026-.136,1.12-.136Z"></path><path d="M120.536,96.95c-4.348,1.936-8.229,3.735-11.884,7.115a68.857,68.857,0,0,0-9.593,10.206,59.729,59.729,0,0,1-4.026,5.713c1.977.064,3.93.435,5.955.572,5.5.388,6.075-3.235,8.552-6.986a68.04,68.04,0,0,1,5.849-7.657C117.2,103.856,122.5,99.8,120.536,96.95Z"></path><path d="M22.454,111.415c4.082-.9,7.6-3.4,11.142-5.494s4.437-5.97,6.47-9.31,4.107-6.6,5.979-10.029A37.2,37.2,0,0,1,49,81.846,8.152,8.152,0,0,1,43.189,80.2a8.862,8.862,0,0,1-2.872-5.107,56.233,56.233,0,0,1-5.995,6.931,2.88,2.88,0,0,1,.291.113,5.122,5.122,0,0,1,.468.339l.726.605c.451.395.895.782,1.315,1.153a12.807,12.807,0,0,0,2.307,1.63c1.42.694,2.493.8,2.477,1.025,0,.145-1.1.411-2.856-.137a10.335,10.335,0,0,1-2.711-1.541c-.452-.347-.928-.726-1.38-1.1l-.718-.572a2.058,2.058,0,0,0-.282-.2c-.008,0-.008,0-.024.008l-.162.105-.379.266a3.913,3.913,0,0,0-.573.524c-.209.243-.419.477-.621.7a3.9,3.9,0,0,1-.322.315l-.154.137L31.6,85.5l-.1.065a12.967,12.967,0,0,1-1.46.855c-.194.081-.371.153-.549.234a.725.725,0,0,1-.121.048c-.1.049-.2.081-.3.121a17.085,17.085,0,0,1-1.993,1.525c-.169.113-.339.218-.5.315-.121.089-.234.169-.355.25-.169.113-.347.2-.524.3-.347.194-.71.388-1.073.581-.186.1-.372.2-.557.3l-.283.153-.137.073-.209.1c-.356.178-.719.339-1.065.541a10.128,10.128,0,0,0-3.333,2.84A11.437,11.437,0,0,0,17.4,97.071c-.339,1.04-.509,1.928-.694,2.541-.154.637-.323,1-.492.992s-.323-.355-.46-1.008a10.569,10.569,0,0,1-.049-2.889,10.1,10.1,0,0,1,4.075-6.978c-.033.016-.065.032-.105.048l-.4.266c-.088.057-.226.178-.338.267a14.184,14.184,0,0,0-2.5,2.46l-.5.622c-.153.209-.3.411-.435.613-.3.4-.517.79-.743,1.137-.839,1.4-1.226,2.445-1.428,2.372-.153-.056-.129-1.121.573-2.8a10.179,10.179,0,0,1,.637-1.307q.2-.339.412-.7c.153-.226.323-.46.492-.7a12.7,12.7,0,0,1,2.671-2.784c.145-.1.242-.2.427-.322l.412-.258a7.724,7.724,0,0,1,.952-.46,11.643,11.643,0,0,1,1.791-.533c1.145-.25,2.13-.4,2.92-.605.371-.242.743-.492,1.13-.742.185-.121.371-.234.557-.355a9.3,9.3,0,0,0,.363-1.824,10.788,10.788,0,0,0-.154-2.6,7.921,7.921,0,0,0-.718-2.405,12.669,12.669,0,0,0-5.1-.411,12.171,12.171,0,0,0-4.26,1.735c-1.145.709-2.017,1.379-2.654,1.815-.621.452-.992.669-1.057.6s.194-.412.718-.984a19.586,19.586,0,0,1,2.461-2.2,11.8,11.8,0,0,1,4.534-2.154,8.965,8.965,0,0,1,3-.226c.46.064.88.145,1.275.234-.339-.42-.718-.839-1.121-1.291a1,1,0,0,1-.1-.1,5.111,5.111,0,0,0-2.42-.605c-.476-.04-.936-.089-1.38-.137-.452-.032-.871-.04-1.283-.057-.831-.032-1.605-.1-2.315-.072H14.176c-.572.016-1.056.04-1.46.048-.8.016-1.25-.016-1.267-.113s.412-.234,1.2-.411c.4-.081.887-.186,1.46-.283.573-.056,1.226-.129,1.952-.2.718-.089,1.525-.081,2.388-.1.428,0,.88-.024,1.34-.008.443.024.911.056,1.387.081l.718.048.073.008c-.064-.089-.137-.169-.194-.258l-.137-.057c-2.8-1.113-5.268-2.1-7.043-2.8-1.807-.63-2.929-1.017-2.88-1.194.04-.154,1.21-.081,3.1.322a59.186,59.186,0,0,1,6.059,1.953c-.008-.049-.032-.089-.041-.137a4.085,4.085,0,0,1-.064-.557,5.288,5.288,0,0,0-.363-.629,3.448,3.448,0,0,0-.323-.428l-.04-.056c-.008-.008-.121-.1-.121-.1l-.218-.21a18.5,18.5,0,0,0-1.743-1.42c-1.178-.847-2.315-1.6-3.2-2.332-1.815-1.452-2.509-2.783-2.372-2.856.178-.129,1.081.9,2.937,2.082.928.605,2.074,1.242,3.348,2.073a16.371,16.371,0,0,1,1.92,1.461l.234.2.113.105.025.024.064.057c.016.016.073.089.073.089.08.1.153.2.234.306a3.514,3.514,0,0,1,.419-.355,12.816,12.816,0,0,0-1.275-1.613,18.537,18.537,0,0,1-1.815-2.187,4.753,4.753,0,0,1-.8-1.791c-.064-.444,0-.678.105-.726.121-.04.291.153.541.476a13.032,13.032,0,0,0,1.154,1.194c.532.484,1.242,1.025,2.081,1.719a12.886,12.886,0,0,1,1.307,1.234,5.876,5.876,0,0,1,1.2,1.88l.355.936-1.105.484a1.547,1.547,0,0,0-.387.193c-.033.017-.041.025-.041.041a.017.017,0,0,1,.016.016c-.016.008.025.089.025.129a2.708,2.708,0,0,0,.226.484,17.019,17.019,0,0,0,2.073,2.517c.476.533.96,1.089,1.42,1.694-.234-.556-.557-1.185-.855-1.839a9.688,9.688,0,0,1-1.009-3.187,2.171,2.171,0,0,1,.654-1.8,1.948,1.948,0,0,1,.823-.436,7.22,7.22,0,0,1-.63-2.541c.009-.912.331-1.243.42-1.243.137.017.032.533.218,1.17a11.9,11.9,0,0,0,1.291,2.816l.339.589-.807.218c-.162.048-.339.064-.492.113-.129.072-.275.113-.331.21a.988.988,0,0,0-.186.806,10.08,10.08,0,0,0,.944,2.719c.291.638.605,1.251.872,1.937l.048.129c.04.129.032.105.048.161l.065.242c.04.161.089.315.129.476a5.288,5.288,0,0,1,.186,1,7.14,7.14,0,0,1-.065,2.05,10.591,10.591,0,0,1,.186,1.347,11.248,11.248,0,0,1-.008,2.38,17.48,17.48,0,0,0,.935-3.2c.275-1.831.3-3.679.428-5.526a47.815,47.815,0,0,0-4.163-13.482l-.186-.1c-.225-.121-.46-.25-.693-.371a12.481,12.481,0,0,1-1.259-.831c-.379-.274-.718-.549-1.1-.8-.194-.129-.38-.258-.565-.379l-.145-.1-.113-.064-.258-.145c-.363-.186-.743-.347-1.114-.493a16.265,16.265,0,0,0-4.171-1,7.23,7.23,0,0,0-2.816.194c-.589.193-.944.508-1,.411-.032-.04.008-.137.113-.3a2.157,2.157,0,0,1,.661-.589,6.1,6.1,0,0,1,3.082-.678,14.29,14.29,0,0,1,4.559.782,12.679,12.679,0,0,1,1.266.509l.323.169a1.409,1.409,0,0,1,.178.1l.145.089c.186.121.379.242.573.371.387.242.782.549,1.17.823.056.032.105.064.153.1q-.836-1.538-1.573-3.123a10.08,10.08,0,0,0-2.8-1.831c-2.114-.928-3.614-.968-3.614-1.194-.025-.137,1.549-.452,3.953.323a10.737,10.737,0,0,1,1.533.637c-.928-2.146-1.751-4.349-2.493-6.584a23.825,23.825,0,0,0-5.131,4.623c-2.332,2.768-5.277,5.349-6.406,8.891a25.177,25.177,0,0,0-1.194,6.543c.08.541.113,1.662.169,3.163a12,12,0,0,0,.6,3.55,4.774,4.774,0,0,0,.444.96L8.3,75.3c.008.016.024.041.024.041l.081.08a1.542,1.542,0,0,0,.314.331,3.637,3.637,0,0,0,1.88.742c2.179.283,4.4-.21,6.382-.064l4.486.322-4.381.815a18.612,18.612,0,0,0-3.816,1.057c-.839.363-1.348.718-1.42.6-.057-.08.226-.565,1.1-1.178.073-.048.161-.105.242-.161a14.115,14.115,0,0,1-2.791-.04,5.159,5.159,0,0,1-2.066-.727c.283.944.6,1.905.952,2.889,3.76,10.367.662,26.358,13.086,31.36A.642.642,0,0,1,22.454,111.415ZM35.508,93.569a16.085,16.085,0,0,1,2.9-3.663,2.811,2.811,0,0,1,1.121-.613,1.506,1.506,0,0,1,1.428.29,1.178,1.178,0,0,1,.347.7,1.959,1.959,0,0,1,0,.573,4.322,4.322,0,0,1-.21.888,9.773,9.773,0,0,1-1.154,2.267c-.338.492-.58.726-.661.677s0-.363.185-.919a20.5,20.5,0,0,0,.7-2.284,3.582,3.582,0,0,0,.089-.709c.016-.226-.064-.428-.073-.38a1.586,1.586,0,0,0-.363.057,1.91,1.91,0,0,0-.6.395,18.9,18.9,0,0,0-2.541,3.405,13.346,13.346,0,0,0-1.363,4,32.353,32.353,0,0,1-.872,3.59,8.438,8.438,0,0,1-1.129,2.3c-.363.468-.622.678-.694.629-.089-.048.024-.371.242-.9a15.275,15.275,0,0,0,.653-2.283c.21-.985.347-2.187.573-3.566A12.764,12.764,0,0,1,35.508,93.569Zm-9.464,6.495a33.316,33.316,0,0,1,1.961-6.414c.113-.3.226-.589.331-.888.129-.3.25-.589.371-.879a9.245,9.245,0,0,1,.952-1.638,10.076,10.076,0,0,1,2.178-2.227c1.42-1.057,2.453-1.4,2.533-1.258.113.177-.734.815-1.895,1.976A12.362,12.362,0,0,0,30.7,90.947a8.934,8.934,0,0,0-.759,1.436c-.105.274-.218.557-.331.839-.113.3-.217.605-.33.912-.944,2.428-1.816,4.558-2.3,6.148-.5,1.524-.6,2.63-.807,2.614C26.012,102.879,25.746,101.855,26.044,100.064Zm-4.316,9.391c-.121-.065-.234-.137-.347-.2a5.2,5.2,0,0,1-1.726-2.122,11.143,11.143,0,0,1-.727-2.105,11.33,11.33,0,0,1-.314-3.147c.056-.775.21-1.138.3-1.138.105,0,.121.436.226,1.114a19.376,19.376,0,0,0,.71,2.9,12.176,12.176,0,0,0,.815,1.856,4.183,4.183,0,0,0,1.372,1.565,1.76,1.76,0,0,0,1.928-.153c.2-.105.427-.2.613-.315l.533-.363a10.049,10.049,0,0,0,1.04-.847,12.013,12.013,0,0,0,2.735-4.462,27.755,27.755,0,0,0,1.122-4.308c.46-2.509.669-4.115.871-4.115.17.009.307,1.622.089,4.252a22.6,22.6,0,0,1-.9,4.583,12.349,12.349,0,0,1-2.969,5.026,10.541,10.541,0,0,1-1.242,1c-.226.145-.444.29-.67.427s-.427.218-.637.323l-.315.153-.161.073a1.3,1.3,0,0,1-.242.081A3,3,0,0,1,23,109.7a2.564,2.564,0,0,1-.864-.105Z"></path><path d="M15.322,25.831c.734,1.129,1.436,2.129,1.735,2.751a1.761,1.761,0,0,1,.879.637,1.079,1.079,0,0,1,.194.686c-.016.169-.073.266-.162.29-.193.065-.419-.161-.71-.29a1.964,1.964,0,0,0-1.169-.065c-1.162.283-1.428.864-1.025,2.017a7.784,7.784,0,0,0,1.823,2.735,25.488,25.488,0,0,1,1.937,2.025c.742.944,1.194,2.187,2.573,1.541.024-.016.049-.04.073-.056.024-.129.048-.258.064-.4.138-1.379-.492-2.565-.185-2.807.153-.1.492.024.895.557a3.034,3.034,0,0,1,.468.919l.331.25a13.076,13.076,0,0,0,3.171,2.017,3.5,3.5,0,0,0,.944.162c.2.008.411.024.621.032.194.024.387.048.589.065a13.626,13.626,0,0,1,2.412.895,2.638,2.638,0,0,0,.315.065c-.024-.105-.048-.21-.073-.331A2.815,2.815,0,0,1,31.1,38.1a9.538,9.538,0,0,1,.791-2.017,2.988,2.988,0,0,1,.258-.436l.129-.193.064-.1.025-.049.016-.024.04-.056c.161-.162.315-.307.452-.42l.387-.266c.1-.065.194-.121.283-.178l.153-.145.081-.064.024-.025a1.02,1.02,0,0,0,.153-.242l.073-.145c.234-.532.242-.565-.194-.895a1.109,1.109,0,0,1-.363-.5,4.324,4.324,0,0,0-.726,1.5c-.178.678-.25,1.089-.363,1.089-.089,0-.218-.4-.2-1.17a3.968,3.968,0,0,1,.282-1.387,4.364,4.364,0,0,1,1.106-1.574l.855-.782-.008,1.218a1.9,1.9,0,0,0,.064.637c.017.017.025.017.049.009a2.182,2.182,0,0,0,.637-.275c.129-.08.266-.161.4-.25a3,3,0,0,1,.258-.153c.121-.049.25-.105.379-.145.242-.057.282-.057.581-.105a5.171,5.171,0,0,1,.645.032c1.654.21,2.025-.194,1.444-1.8-.04-.105-.225-.371-.258-.436-.484-.661-.9-1.315-1.291-1.9-.193-.282-.355-.556-.572-.831-.2-.258-.4-.508-.589-.75a6.76,6.76,0,0,1-1.138-1.541A2.242,2.242,0,0,1,34.79,22a2.061,2.061,0,0,1,.783-1.024c.572-.388.9-.412.952-.355.072.08-.242.322-.589.742a1.721,1.721,0,0,0-.4.823,1.523,1.523,0,0,0,.323,1.081,7.815,7.815,0,0,0,1.105,1.226c.283.291.46.5.7.767s.452.573.686.871c.444.605.863,1.218,1.323,1.823a.747.747,0,0,1,.065.1l.064.008.041.008a2.712,2.712,0,0,1,1.589.7c.315.291.436.565.339.726-.129.242-.662.162-1.259.049a.552.552,0,0,1-.024.121,2.782,2.782,0,0,1,.105.952c.169-.081.363-.186.6-.3a3.318,3.318,0,0,1,1.016-.33,4.5,4.5,0,0,1,.517-.049,3.169,3.169,0,0,1,.678.057,3.457,3.457,0,0,1,1.282.516c.186.129.363.258.533.395a6.374,6.374,0,0,0,.331-1.186c.024-.169.048-.339.064-.508a49.759,49.759,0,0,0-4.042-8.964C38.146,13.922,30.409,3.031,21.793,6.476a14.078,14.078,0,0,0-8.585,9.641c-.766,3.437.412,6.2,1.759,9.092C15.08,25.411,15.2,25.621,15.322,25.831Zm7.584.661a5.983,5.983,0,0,1,.863-2.332,8.165,8.165,0,0,1,1.194-1.532c.783-.783,1.412-1.082,1.525-.952.137.145-.242.685-.766,1.557a9.419,9.419,0,0,0-1.469,3.437,2.866,2.866,0,0,0,.484,2.081l.541.783-.823.177c-.524.113-.9.767-1.057,1.2-.161.452-.2.767-.339.8-.105.032-.339-.274-.363-.895a2.444,2.444,0,0,1,.226-1.114,2.482,2.482,0,0,1,.492-.7A3.783,3.783,0,0,1,22.906,26.492Zm-4.139,5.623c-.064.154-.661-.072-1.033.146-.048.016-.04.072-.064.064.016.057-.049.032-.032.1,0,.032-.073.057-.073.089l.073.008c.016.04.113.161.137.137s.024-.032.016-.04a3.773,3.773,0,0,0,.492.3,3.5,3.5,0,0,1,.887.605l.017.025.024.024a2.389,2.389,0,0,1,.29.589q.085.242.145.46c.033.1.065.2.089.3.008-.016.008-.032.016-.048.089-.4.154-.791.226-1.114.121-.645.258-1.04.412-1.04s.306.379.411,1.065a7.058,7.058,0,0,1,.057,1.234,3.728,3.728,0,0,1-.121.823,1.526,1.526,0,0,1-.275.557,1.369,1.369,0,0,1-.153.161.937.937,0,0,1-.282.145.844.844,0,0,1-.565.016,1.139,1.139,0,0,1-.654-.516,3.439,3.439,0,0,1-.209-.428c-.105-.266-.178-.516-.25-.766-.049-.137-.089-.274-.13-.4-.024-.08-.064-.177-.08-.217a3.842,3.842,0,0,0-.508-.371,2.806,2.806,0,0,1-.791-.7,1.231,1.231,0,0,1,.637-1.888,1.286,1.286,0,0,1,1.122.314C18.775,31.914,18.8,32.043,18.767,32.115Z"></path><path d="M63.956,93.634a3.681,3.681,0,0,1-2.308-4.648c-.04-.04-.072-.08-.113-.129-2.719.6-5.171,2.1-7.987,2.55-2.614.419-5.309.3-7.947.557a.816.816,0,0,1-.242,0,.7.7,0,0,0-.048.08c-2.219,3.558-4.236,7.116-6.2,10.811-1.686,3.163-3.953,4.438-6.946,6.261-2.929,1.791-5.987,3.606-9.383,4.3a1.133,1.133,0,0,1-.525-.032.9.9,0,0,1-.419-.073c-.1-.04-.186-.088-.291-.129.1,2.138.275,4.268.259,6.406a48.028,48.028,0,0,0,7.14,1.307,2.426,2.426,0,0,0,1.589-1.847,8.821,8.821,0,0,0,.266-2.711c-.04-1.59-.282-2.534-.121-2.59.13-.048.662.831.944,2.509a8.272,8.272,0,0,1,0,3.066,4.13,4.13,0,0,1-.653,1.573c.363-.024.726-.032,1.1-.064a13.057,13.057,0,0,0,2.485-.46A20.269,20.269,0,0,0,33.6,117.5a29.4,29.4,0,0,1-1.025-2.832c-.492-1.719-.3-2.711-.185-2.727.185-.041.322,1.008.976,2.452.315.743.775,1.622,1.275,2.647A15.616,15.616,0,0,1,35.96,120.7l.1.508-.291.121c3.97.1,7.98-.024,11.884-.121a.892.892,0,0,1-.08-.089c-.242-.282-.492-.565-.751-.855-.435-.6-.887-1.218-1.347-1.856-.444-.613-.879-1.21-1.291-1.791-.452-.573-.879-1.121-1.291-1.654-.815-1.032-1.565-2.057-2.154-2.888-1.1-1.719-1.638-2.864-1.492-2.961.161-.121.984.847,2.283,2.412.686.743,1.436,1.622,2.332,2.647.443.516.911,1.04,1.371,1.621.444.6.9,1.219,1.372,1.856.435.581.879,1.242,1.29,1.823.218.266.436.525.646.775.105.129.21.258.306.387l.009.008.016.016.032.032.1.081.185.17c.089.08.186.153.275.225q1.669-.036,3.316-.048a4.855,4.855,0,0,1,.5-.645c.048-.2.1-.4.145-.6l-.073-.065a11.606,11.606,0,0,1-2.186-2.493c-.3-.411-.589-.823-.871-1.226-.146-.186-.283-.371-.42-.557-.161-.185-.315-.371-.468-.557-.637-.718-1.258-1.42-1.847-2.081A21.893,21.893,0,0,1,44.73,109a10.064,10.064,0,0,1-1.057-3.122c-.081-.751-.081-1.178.008-1.194.242-.065.492,1.67,1.88,3.824a27.6,27.6,0,0,0,2.936,3.558c.614.653,1.251,1.339,1.921,2.041.314.355.645.75.968,1.186.29.411.589.823.887,1.242a15.61,15.61,0,0,0,1.4,1.775c.113-.153.234-.306.339-.459C56.2,111,60.559,104.8,64.335,98.87A11.622,11.622,0,0,1,63.956,93.634ZM59.2,98a13.039,13.039,0,0,1-.743,2.582,17.442,17.442,0,0,1-2.234,3.849c-1.533,2-2.735,2.977-2.856,2.864-.162-.129.782-1.348,2.057-3.405a20.964,20.964,0,0,0,1.864-3.76,13.237,13.237,0,0,0,.6-2.339,10.327,10.327,0,0,0,.024-2.542c-.008-.064-.024-.129-.033-.185a39.725,39.725,0,0,1-8.188,1.331c-2.251.177-3.655.3-3.687.113-.033-.17,1.3-.605,3.557-1.033a58.9,58.9,0,0,0,8.617-1.928l.75-.258.138.734c.064.347.137.694.193,1.049A10.438,10.438,0,0,1,59.2,98Z"></path><path d="M103.3,106.47a61.1,61.1,0,0,1,8.2-7.35c2.622-1.856,5.551-2.9,8.463-4.123.025-.024.049-.04.073-.064-2.493-2.937-6.785-5.414-10.529-5.414a32,32,0,0,1-5.558,11.029c-2.276,2.622-5.245,6.019-9.02,5.97a27.972,27.972,0,0,0-5.971,7.068c-1.178,2.13-1.6,4.51-2.622,6.688,2.719.452,5.26.645,7.229-1.783,1.138-1.4,2.106-2.905,3.147-4.381A63.108,63.108,0,0,1,103.3,106.47Z"></path><path d="M44.94,32.47l-.122-.113c-.314-.29-.6-.532-.879-.742a2.723,2.723,0,0,0-.815-.4c-.137-.049-.258-.04-.379-.081-.153-.016-.339-.008-.5-.016a3.245,3.245,0,0,0-.734.105,4.7,4.7,0,0,1-1.09.177.475.475,0,0,1-.016.057,3.879,3.879,0,0,1-.242.363l-.064.089-.033.04-.024.024v.008h-.008v.008l-.008.008c-.016.009-.04.033-.089.073l-.113.073a1.308,1.308,0,0,1-.3.177,2.522,2.522,0,0,1-.492.145,3.214,3.214,0,0,1-.694,0c-.428-.032-.783-.121-1.089-.169-.162-.032-.267-.024-.379-.04a.372.372,0,0,1-.041.008,10.366,10.366,0,0,0-1.089.774,4.365,4.365,0,0,0-.419.436l-.1.113-.057.056-.008.008a1.4,1.4,0,0,0-.137.307l-.04.137-.081.218a2.037,2.037,0,0,1-.25.468.629.629,0,0,1-.065.081l-.032.04-.073.072-.145.154a4.364,4.364,0,0,1-.411.331c-.1.088-.21.169-.323.258l-.226.234a8.32,8.32,0,0,0-.4.742,9.57,9.57,0,0,0-.6,1.727l-.008.048a1.44,1.44,0,0,0-.033.783,6.874,6.874,0,0,1,.234,1.25l.024.573-.54.121a3.258,3.258,0,0,1-1.7-.113,18.333,18.333,0,0,0-2.163-.855c-.2-.033-.395-.057-.589-.081-.177-.016-.363-.032-.54-.04a4.371,4.371,0,0,1-1.267-.275l-.314-.121a1.646,1.646,0,0,1-.283-.145c-.153-.1-.306-.185-.46-.274-.3-.194-.605-.428-.895-.629-.275-.218-.533-.428-.775-.646a2.176,2.176,0,0,0,0,.323,2.268,2.268,0,0,1,.121.218c1.372,3.251,6.059,4.316,9.19,4.986,4.276.9,10.052,1.678,12.57-2.913A13.159,13.159,0,0,0,46.247,31.9a5.369,5.369,0,0,1-.323.5l-.428.557Zm.024,3.437a1.92,1.92,0,0,1-.6.969,3.614,3.614,0,0,1-1.7.75c-.266.04-.524.081-.782.121l-.7.1c-.178.04-.363.072-.541.1-.218.088-.435.185-.645.274l-.041.032-.088.081a.949.949,0,0,0-.194.169,4.419,4.419,0,0,0-.347.46c-.226.331-.427.718-.653,1.089a4.738,4.738,0,0,1-.9,1.154,1.135,1.135,0,0,1-.258.186l-.121.08-.065.041-.024.016-.08.048-.025.008a1.517,1.517,0,0,1-.855.121,2.1,2.1,0,0,1-1.146-.742,8.3,8.3,0,0,1-.637-.831c-.073-.161-.145-.315-.218-.468a3.92,3.92,0,0,1-.129-.468,2.669,2.669,0,0,1,.2-1.525,2.4,2.4,0,0,1,.637-.919,6.247,6.247,0,0,1,1.477-1.485c.556-.419,1.137-.839,1.815-1.3A10.653,10.653,0,0,1,40.7,32.712a3.984,3.984,0,0,1,1.6-.233,2.392,2.392,0,0,1,1.291.492l.081.056.016.016.04.033.073.072.153.137a3.654,3.654,0,0,1,.976,1.509A1.916,1.916,0,0,1,44.964,35.907Z"></path><path d="M89.442,109.39c-2.452,1.243-5.066,2.017-7.842,1.073-3.348-1.145-4.518-3.888-4.348-7.237-1.469-.193-2.856-.242-3.47-.282-2.113-.137-4.566-.177-6.5-1.129a6.986,6.986,0,0,1-1.7-1.146c-4.171,6.478-8.9,13.3-10.48,20.977,4.478.879,9.851.04,14.305.193,4.905.17,9.818.242,14.53-1.226a1.286,1.286,0,0,1,.129-.347c1.791-3,2.13-6.487,4.228-9.367C88.66,110.383,89.047,109.882,89.442,109.39Zm-12.287,4.857c-.395.121-.815.242-1.2.4a3.1,3.1,0,0,0-.993.556.674.674,0,0,0-.209.307,2.257,2.257,0,0,0-.057.556,4.272,4.272,0,0,1-.371,1.719,3.481,3.481,0,0,1-.436.694l-.121.161-.008.016-.072.073-.017.016-.024.024-.064.065-.25.226a6.375,6.375,0,0,1-.678.452,5.745,5.745,0,0,1-.686.314,10.39,10.39,0,0,1-2.6.605,23.115,23.115,0,0,1-4.34.033c-2.429-.218-3.9-.581-3.9-.759.016-.2,1.525-.169,3.921-.21a32.454,32.454,0,0,0,4.147-.306,10.709,10.709,0,0,0,2.267-.6,5.253,5.253,0,0,0,.508-.242,4.062,4.062,0,0,0,.436-.291l.25-.234.065-.056.072-.105a2.066,2.066,0,0,0,.291-.468,2.708,2.708,0,0,0,.25-1.2,3.719,3.719,0,0,1,.137-.9,2.026,2.026,0,0,1,.581-.871,4.136,4.136,0,0,1,1.444-.783c.1-.04.21-.064.315-.1a11.225,11.225,0,0,1-2.453-3.954c-.452-1.379-.363-2.162-.266-2.194.153-.049.363.774.944,1.9a13.289,13.289,0,0,0,3.356,4.082l.871.718Z"></path><path d="M48.756,34.141c3.138,6.575,8.043,12.2,11.311,18.725a11.735,11.735,0,0,1,1.242.113,6.067,6.067,0,0,1,2.308.863c.016.017.032.025.048.041A14.123,14.123,0,0,0,65.618,51.6a2.33,2.33,0,0,0,.137-1.525c-.032-.145-.1-.331-.137-.492-.041-.138-.1-.21-.146-.331-.064-.105-.161-.2-.242-.315l-.322-.315c-.4-.338-.864-.653-1.348-1.1-.129-.129-.258-.274-.371-.4l-.226-.339-.032-.04-.048-.1-.016-.024-.049-.1-.1-.194c-.056-.145-.121-.266-.177-.444a1.433,1.433,0,0,1-.081-.29l-.016-.089a.827.827,0,0,1,.016-.323.859.859,0,0,1,.129-.29c.145-.274.46-.177.654-.355.274-.25.008-.791-.065-1.089A9.227,9.227,0,0,0,62,41.1a21.857,21.857,0,0,0-1.42-1.912c-1.888-2.275-3.227-3.582-3.082-3.735.113-.121,1.67.919,3.8,3.09a19.241,19.241,0,0,1,1.63,1.912,9.851,9.851,0,0,1,1.444,2.606,4.263,4.263,0,0,1,.2.831,3.877,3.877,0,0,1,.113.9c-.049.476-.629.6-.767,1.049-.161.549.307.573.646.759a8.828,8.828,0,0,1,1.218.984l.452.427c.137.186.282.347.4.549a4.507,4.507,0,0,1,.275.645c.048.17.1.315.145.517a3.692,3.692,0,0,1-.258,2.461,5.135,5.135,0,0,1-.912,1.2,15.738,15.738,0,0,1,3.735-2.3c.065-.056.121-.113.194-.177.113-.105.226-.21.347-.315l.266-.323c.154-.177.307-.363.468-.54-.96-1.961-1.872-3.623-2.582-4.833-.887-1.4-1.411-2.275-1.274-2.388.129-.1.887.581,1.976,1.856a30.457,30.457,0,0,1,2.768,4.251c.024-.032.056-.064.08-.1.1-.734.138-1.477.2-2.227.073-.783.194-1.436.282-2.106a28.826,28.826,0,0,0,.323-3.453c.04-1.952-.452-3.1-.25-3.195.081-.04.282.21.573.734a7.987,7.987,0,0,1,.637,2.413,19.123,19.123,0,0,1-.032,3.646c-.057.662-.161,1.4-.2,2.066a.221.221,0,0,0-.008.072,46.974,46.974,0,0,0,2.864-4.59c.2-.4.4-.775.573-1.1s.283-.63.412-.864c.234-.476.4-.726.492-.7s.088.331.008.856a7.52,7.52,0,0,1-.194.952c-.113.363-.25.782-.411,1.242-.081.2-.162.42-.258.637A44.841,44.841,0,0,0,81.2,38.118c-4.437-.266-8.116-2.34-11.578-4.994-2.4.218-5.131.75-7.422-.25-4.776-2.09-7.576-.557-12.159.532a.9.9,0,0,1-.363.016.95.95,0,0,1-.75-.274,1.4,1.4,0,0,0-.411-.274c.032.339.056.67.064,1.008A1.056,1.056,0,0,1,48.756,34.141Z"></path><path d="M49.345,54.278a.967.967,0,0,1-.146-.331,47.113,47.113,0,0,0-1.815-6.083c-.153-.419-.3-.863-.444-1.323-.209,2.178-.581,4.349-.734,6.583C47.263,53.479,48.3,53.883,49.345,54.278Z"></path><path d="M52.7,46.519c.192.353.391.709.592,1.067a22.422,22.422,0,0,1,2.486,5.545l.072.3.307-.012c.46-.016.937-.049,1.414-.1.085,0,.189-.009.274-.018l.551-.06-.259-.489c-1.489-2.807-3.276-5.5-5-8.1-1.579-2.38-3.213-4.841-4.6-7.367l-.489-.89-.207.994c-.079.378-.173.764-.283,1.141l-.054.184.117.151A56.49,56.49,0,0,1,52.7,46.519Z"></path><path d="M88.16,35.827a1.048,1.048,0,0,1,.7,1.242,3.712,3.712,0,0,1-1.234,2.058c-.355.322-1.267.855-1.339,1.371-.089.589,1.113,1.065,1.517,1.162a4.269,4.269,0,0,0,1.4.145,4.647,4.647,0,0,0,2.1-6.406c-1.355-2.566-3.509-2.4-5.486-.952a14.316,14.316,0,0,1,1.452,1.267A2,2,0,0,1,88.16,35.827Z"></path><path d="M49.207,46.493c.84,2.234,1.437,4.59,2.243,6.914.025-.17.823-.3,1.34-.331.46-.032.8-.056,1.315-.056-1.122-4.252-4.236-8.738-6.979-12.288-.065.137-.1.307-.17.307h.033A26.728,26.728,0,0,1,49.207,46.493Z"></path><path d="M83.141,36.238a1.144,1.144,0,0,1,.355.258c.63.67,1.4,1.146,2.009,1.832a10.173,10.173,0,0,0,.823-.734.49.49,0,0,1-.089-.081c-2.234-2.4-5.171-3.518-7.939-5.123-3.186-1.84-5.736-2.8-9.068-2.138,3.945,3.259,8.068,6.035,13.417,5.881A.95.95,0,0,1,83.141,36.238Z"></path><path d="M43.011,34.229l-.113-.1-.056-.056-.032-.024v-.008c-.089-.057-.194-.138-.25-.17a2.374,2.374,0,0,0-.38-.1,2.76,2.76,0,0,0-1.089.138,21.548,21.548,0,0,0-4.018,2.154,5.068,5.068,0,0,0-2.081,2.057,1.86,1.86,0,0,0-.137.3,2.384,2.384,0,0,0,.1.6,3.046,3.046,0,0,0,.936,1.274,1.163,1.163,0,0,0,.6.371c.065.017.129-.016.226-.056V40.6l.065-.04.113-.089c.064-.057.193-.113.2-.17a5.854,5.854,0,0,0,.533-.847c.194-.347.379-.75.637-1.17a4.972,4.972,0,0,1,.452-.629,1.811,1.811,0,0,1,.307-.306l.169-.146.089-.072.016-.016.1-.057.04-.016c.218-.1.428-.2.646-.3.274-.08.564-.153.855-.217.476-.073.96-.154,1.444-.226.065-.008.234-.057.339-.081.137-.032.185-.073.282-.1a1.632,1.632,0,0,0,.444-.266.571.571,0,0,0,.186-.678A2.421,2.421,0,0,0,43.011,34.229Z"></path></g></svg>