<svg xmlns="http://www.w3.org/2000/svg" xmlns:xlink="http://www.w3.org/1999/xlink" version="1.1" x="0px" y="0px" viewBox="0 0 96 96" enable-background="new 0 0 96 96" xml:space="preserve"><path d="M85.688,28.94c-0.359-0.584-1-0.94-1.695-0.94h-20v-8h10c1.104,0,2-0.9,2-2V2c0-1.1-0.896-2-2-2h-52c-1.104,0-2,0.9-2,2v16  c0,1.1,0.896,2,2,2h10v8h-20.12c-0.692,0-1.336,0.36-1.7,0.948L4,38.952V48c0,3.252,1.832,6,4,6c3.308,0,6-2.691,6-6  c0-1.1,0.896-2,2-2s2,0.9,2,2c0,3.309,2.692,6,6,6s6-2.691,6-6c0-1.1,0.896-2,2-2s2,0.9,2,2c0,3.309,2.692,6,6,6s6-2.691,6-6  c0-1.1,0.896-2,2-2c1.104,0,2,0.9,2,2c0,3.309,2.691,6,6,6s6-2.691,6-6c0-1.1,0.9-2,2-2s2,0.9,2,2c0,3.309,2.691,6,6,6s6-2.691,6-6  c0-1.1,0.9-2,2-2s2,0.9,2,2c0,2.764,1.309,6,5,6s5-3.236,5-6v-8.968L85.688,28.94z M35.996,28v-8h24v8H35.996z"></path><path d="M19.996,84h56V56.78c-1.232,0.588-2.572,0.979-4,0.979c-3.264,0-6.172-1.455-8-3.888c-1.828,2.424-4.732,4.067-8,4.067  c-3.264,0-6.168-1.543-8-3.976c-1.828,2.433-4.732,4.021-8,4.021s-6.172-1.568-8-4c-1.828,2.432-4.732,4.008-8,4.008  c-1.428,0-2.768-0.344-4-0.885V84z"></path><path d="M79.992,54.044V86c0,1.1-0.896,2-2,2h-60c-1.104,0-2-0.9-2-2V53.992C14.164,56.42,11.26,58,7.992,58v36c0,1.1,0.896,2,2,2  h76c1.104,0,2-0.9,2-2c0,0,0-30.813,0-35.688C85.016,58.313,81.656,56.275,79.992,54.044z"></path></svg>