<svg xmlns="http://www.w3.org/2000/svg" xmlns:xlink="http://www.w3.org/1999/xlink" version="1.1" x="0px" y="0px" viewBox="0 0 100 100" enable-background="new 0 0 100 100" xml:space="preserve"><path d="M80.512,54.269c-0.134-17.229-12.463-31.21-28.053-32.587v-9.222C52.459,11.101,51.358,10,50,10  c-1.358,0-2.459,1.101-2.459,2.459v9.273C31.92,23.117,19.553,37.111,19.475,54.39c-0.359,0.071-0.749,0.058-1.089,0.173  c-4.067,1.306-7,5.117-7,9.62c0,5.585,4.522,10.106,10.106,10.106c5.585,0,10.107-4.521,10.107-10.106  c0-4.58-3.049-8.403-7.225-9.645c0.013-14.615,10.209-26.49,23.165-27.873v43.449c-4.387,1.108-7.654,5.047-7.654,9.773  c0,5.585,4.534,10.113,10.12,10.113s10.106-4.528,10.106-10.113c0-4.727-3.266-8.671-7.654-9.773V26.607  c12.957,1.383,23.153,13.309,23.159,27.931c-4.17,1.249-7.225,5.072-7.225,9.645c0,5.585,4.528,10.106,10.113,10.106  s10.106-4.521,10.106-10.106C88.614,59.283,85.136,55.204,80.512,54.269z M22.825,57.074c-0.91,0-1.781,0.18-2.613,0.423  c1.153,0.589,1.96,1.748,1.96,3.132c0,1.966-1.588,3.555-3.549,3.555c-1.793,0-3.215-1.358-3.458-3.087  c-1.038,1.512-1.665,3.33-1.665,5.303c0,0.422,0.077,0.82,0.128,1.217c-0.461-1.05-0.743-2.203-0.743-3.433  c0-4.752,3.856-8.608,8.608-8.608c2.6,0,4.855,1.211,6.43,3.036C26.464,57.65,24.708,57.074,22.825,57.074z M21.499,54.07  c-0.007,0-0.007,0-0.007,0c-0.102,0-0.192,0.045-0.3,0.045h-0.737c0.442-16.869,12.246-30.037,27.085-31.402v0.186  C33.22,24.769,21.955,37.623,21.499,54.07z M48.52,22.707v-0.154v-0.973v-9.12c0-0.807,0.666-1.473,1.48-1.473  c0.238,0,0.416,0.153,0.615,0.256c-0.609,0.18-1.108,0.653-1.108,1.32v8.902v4.919v43.09H48.52V26.498V22.707z M51.339,72.791  c-0.922,0-1.781,0.167-2.613,0.41c1.14,0.589,1.96,1.755,1.96,3.138c0,1.96-1.588,3.548-3.548,3.548  c-1.793,0-3.228-1.345-3.458-3.074c-1.051,1.499-1.665,3.324-1.665,5.297c0,0.416,0.064,0.813,0.115,1.223  c-0.461-1.063-0.73-2.216-0.73-3.446c0-4.752,3.856-8.601,8.608-8.601c2.587,0,4.842,1.211,6.417,3.029  C54.964,73.354,53.222,72.791,51.339,72.791z M52.459,25.653v-0.153c13.712,0.82,24.722,12.982,25.164,28.615h-1.038  C76.157,38.885,65.672,27.01,52.459,25.653z M79.839,57.074c-0.915,0-1.781,0.18-2.613,0.423c1.147,0.589,1.96,1.748,1.96,3.132  c0,1.966-1.589,3.555-3.548,3.555c-1.793,0-3.222-1.358-3.458-3.087c-1.044,1.512-1.665,3.33-1.665,5.303  c0,0.422,0.07,0.82,0.121,1.217c-0.461-1.05-0.736-2.203-0.736-3.433c0-4.752,3.856-8.608,8.608-8.608  c2.594,0,4.849,1.211,6.424,3.036C83.471,57.65,81.722,57.074,79.839,57.074z"></path></svg>