<svg xmlns="http://www.w3.org/2000/svg" xmlns:xlink="http://www.w3.org/1999/xlink" version="1.1" x="0px" y="0px" viewBox="0 0 100 100"  xml:space="preserve"><g><path d="M74.31,50.046H50.974c-0.828,0-1.499,0.671-1.499,1.499v15.03c0,0.828,0.671,1.499,1.499,1.499H74.31   c0.828,0,1.499-0.671,1.499-1.499v-15.03C75.809,50.717,75.138,50.046,74.31,50.046z M72.811,65.077H52.473V53.045H72.81   L72.811,65.077L72.811,65.077z"></path><path d="M76.496,24.612H26.997l-2.999,0.887l-6.412,6.545c-0.275,0.28-0.429,0.657-0.429,1.05v5.706   c0,2.934,1.565,5.509,3.903,6.935v26.99c0,0.828,0.671,1.499,1.499,1.499h7.562c0.008,0,0.014-0.002,0.022-0.002   c0.008,0,0.014,0.002,0.022,0.002c0.828,0,1.499-0.671,1.499-1.499V53.045h10.748v19.679c0,0.828,0.671,1.499,1.499,1.499h36.714   c0.828,0,1.499-0.671,1.499-1.499V45.91c2.507-1.383,4.209-4.052,4.209-7.111v-5.706c0.001-0.393-0.152-0.769-0.427-1.05   l-6.412-6.545L76.496,24.612z M79.128,71.224H45.412V51.546c0-0.828-0.671-1.499-1.499-1.499H30.166   c-0.828,0-1.499,0.671-1.499,1.499v19.679h-4.606v-24.4c0.396,0.06,0.802,0.091,1.215,0.091c2.728,0,5.145-1.352,6.618-3.422   c1.473,2.07,3.89,3.422,6.618,3.422s5.145-1.352,6.618-3.422c1.473,2.07,3.89,3.422,6.618,3.422s5.146-1.352,6.618-3.422   c1.473,2.069,3.89,3.422,6.618,3.422c2.728,0,5.145-1.352,6.618-3.422c1.473,2.07,3.89,3.422,6.618,3.422   c0.308,0,0.611-0.019,0.91-0.052v24.361H79.128z M83.336,38.798c0,2.822-2.296,5.118-5.118,5.118s-5.118-2.296-5.118-5.118   c0-0.828-0.671-1.499-1.499-1.499c-0.828,0-1.499,0.671-1.499,1.499c0,2.822-2.296,5.118-5.118,5.118s-5.118-2.296-5.118-5.118   c0-0.828-0.671-1.499-1.499-1.499c-0.828,0-1.499,0.671-1.499,1.499c0,2.822-2.296,5.118-5.119,5.118s-5.118-2.296-5.118-5.118   c0-0.828-0.671-1.499-1.499-1.499c-0.828,0-1.499,0.671-1.499,1.499c0,2.822-2.296,5.118-5.118,5.118   c-2.822,0-5.118-2.296-5.118-5.118c0-0.828-0.671-1.499-1.499-1.499s-1.499,0.671-1.499,1.499c0,2.822-2.296,5.118-5.118,5.118   s-5.118-2.296-5.118-5.118v-5.094l5.971-6.094h51.236l5.971,6.094L83.336,38.798L83.336,38.798z"></path></g></svg>