<svg xmlns="http://www.w3.org/2000/svg" viewBox="0 0 64 64" x="0px" y="0px"><g><path d="M3,46H20V22H3Zm7.293-19.293A3.56363,3.56363,0,0,1,9,24h2c0,.562.2168.80273.707,1.293a3.48028,3.48028,0,0,1,0,5.41406C11.2168,31.19727,11,31.438,11,32H9a3.56363,3.56363,0,0,1,1.293-2.707C10.7832,28.80273,11,28.562,11,28S10.7832,27.19727,10.293,26.707ZM5,34H16a3,3,0,0,1,0,6H15v1a3.00328,3.00328,0,0,1-3,3H8a3.00328,3.00328,0,0,1-3-3Z"></path><path d="M17,37a1.0013,1.0013,0,0,0-1-1H15v2h1A1.0013,1.0013,0,0,0,17,37Z"></path><path d="M43,24a5.00588,5.00588,0,0,0,5-5V8H38V19A5.00588,5.00588,0,0,0,43,24Zm-1-5a1,1,0,0,0,2,0V15h2v4a3,3,0,0,1-6,0Z"></path><rect x="22" y="26" width="4" height="2"></rect><path d="M8,42h4a1.0013,1.0013,0,0,0,1-1V36H7v5A1.0013,1.0013,0,0,0,8,42Z"></path><rect x="22" y="39" width="4" height="2"></rect><path d="M49,22.587a6.98049,6.98049,0,0,1-12,0,6.96084,6.96084,0,0,1-9,2.728V56h2V28H56V56h2V25.315a6.96084,6.96084,0,0,1-9-2.728Z"></path><path d="M32,54.58594l6.293-6.293L39.707,49.707,33.41406,56h2.17188l6.707-6.707L43.707,50.707,38.41406,56H54V30H32ZM52,42H50V40h2ZM46,32h6v6H50V34H46Z"></path><path d="M36,19V8H26V19a5,5,0,0,0,10,0Zm-8,0h2a1,1,0,0,0,2,0V15h2v4a3,3,0,0,1-6,0Z"></path><path d="M50,8V19a5,5,0,0,0,10,0V8Zm8,11a3,3,0,0,1-6,0h2a1,1,0,0,0,2,0V15h2Z"></path></g></svg>