<svg xmlns:dc="http://purl.org/dc/elements/1.1/" xmlns:cc="http://creativecommons.org/ns#" xmlns:rdf="http://www.w3.org/1999/02/22-rdf-syntax-ns#" xmlns:svg="http://www.w3.org/2000/svg" xmlns="http://www.w3.org/2000/svg" xmlns:sodipodi="http://sodipodi.sourceforge.net/DTD/sodipodi-0.dtd" xmlns:inkscape="http://www.inkscape.org/namespaces/inkscape" version="1.1" x="0px" y="0px" viewBox="0 0 100 100"><g transform="translate(0,-952.36218)"><path  d="M 23 13 L 8 37 C 8 42.52303 12.701021 47 18.5 47 C 24.298993 47 29 42.52303 29 37 C 29 42.52303 33.701021 47 39.5 47 C 45.298993 47 50 42.52303 50 37 C 50 42.52303 54.701007 47 60.5 47 C 66.298979 47 71 42.52303 71 37 C 71 42.52303 75.701007 47 81.5 47 C 87.298979 47 92 42.52303 92 37 L 77 13 L 23 13 z M 29 46.5625 C 26.33237 49.28962 22.603271 51 18.5 51 C 18.332673 51 18.166172 50.974335 18 50.96875 L 18 87 L 55 87 L 55 57 L 71 57 L 71 87 L 82 87 L 82 50.96875 C 81.833828 50.974335 81.667327 51 81.5 51 C 77.396729 51 73.66763 49.28962 71 46.5625 C 68.332369 49.28962 64.603266 51 60.5 51 C 56.396729 51 52.66763 49.28962 50 46.5625 C 47.33237 49.28962 43.603271 51 39.5 51 C 35.396734 51 31.667631 49.28962 29 46.5625 z M 29 57 L 45 57 L 45 75 L 29 75 L 29 57 z " transform="translate(0,952.36218)"></path></g></svg>