<svg xmlns="http://www.w3.org/2000/svg" xmlns:xlink="http://www.w3.org/1999/xlink" xmlns:xodm="http://www.corel.com/coreldraw/odm/2003" xml:space="preserve" version="1.1"  viewBox="0 0 8.4666 8.4666" x="0px" y="0px" fill-rule="evenodd" clip-rule="evenodd"><defs></defs><g><path  d="M5.416 3.9997c-0.022,-0.0635 0.0115,-0.1329 0.0749,-0.155 0.0636,-0.022 0.1329,0.0115 0.1551,0.0749l0.1407 0.4c0.022,0.0634 -0.0115,0.1329 -0.0749,0.1549 -0.0635,0.0222 -0.1329,-0.0113 -0.1551,-0.0749l-0.1407 -0.3999zm-0.0479 -1.6053l0.0115 0.0001 0 -0.755c0,-0.1501 -0.0615,-0.2868 -0.1602,-0.3856 -0.0989,-0.0987 -0.2355,-0.1602 -0.3856,-0.1602l-2.7813 0c-0.1502,0 -0.2868,0.0615 -0.3856,0.1602 -0.0988,0.0988 -0.1602,0.2355 -0.1602,0.3856l0 5.1876c0,0.1501 0.0614,0.2868 0.1602,0.3856 0.0988,0.0987 0.2354,0.1602 0.3856,0.1602l2.7813 0c0.1501,0 0.2867,-0.0615 0.3856,-0.1602 0.0987,-0.0988 0.1602,-0.2355 0.1602,-0.3856l0 -0.755 -0.0115 0.0001c-0.0289,0 -0.0576,-0.0007 -0.0861,-0.002l0 0.4923c0,0.0682 -0.0553,0.1236 -0.1235,0.1236l-3.4308 0c-0.0682,0 -0.1235,-0.0554 -0.1235,-0.1236l0 -4.923c0,-0.1228 0.0504,-0.2349 0.1315,-0.3162l0.0008 -0.0008c0.0813,-0.081 0.1932,-0.1313 0.316,-0.1313l2.7813 0c0.1228,0 0.2349,0.0504 0.3162,0.1316l0.0008 0.0008c0.0809,0.0812 0.1312,0.1932 0.1312,0.3159l0 0.7569c0.0285,-0.0013 0.0572,-0.002 0.0861,-0.002zm0.2585 0.0181c0.4044,0.057 0.7667,0.2454 1.0418,0.5205 0.3327,0.3326 0.5386,0.7925 0.5386,1.3003 0,0.5078 -0.2059,0.9677 -0.5386,1.3003 -0.2751,0.2751 -0.6374,0.4635 -1.0418,0.5205l0 0.773c0,0.2179 -0.0892,0.416 -0.2327,0.5596 -0.1441,0.144 -0.3422,0.2333 -0.5601,0.2333l-2.7813 0c-0.2179,0 -0.4161,-0.0893 -0.5597,-0.2328 -0.144,-0.1441 -0.2332,-0.3422 -0.2332,-0.5601l0 -5.1876c0,-0.2179 0.0892,-0.416 0.2327,-0.5596 0.1441,-0.144 0.3423,-0.2333 0.5602,-0.2333l2.7813 0c0.2179,0 0.416,0.0893 0.5596,0.2328 0.144,0.1441 0.2332,0.3422 0.2332,0.5601l0 0.773zm-0.5916 3.6296c-0.3744,-0.0685 -0.7091,-0.2504 -0.9672,-0.5085 -0.3327,-0.3326 -0.5386,-0.7925 -0.5386,-1.3003 0,-0.5078 0.2059,-0.9677 0.5386,-1.3003 0.2581,-0.2581 0.5928,-0.44 0.9672,-0.5085l0 -0.785c0,-0.0554 -0.0226,-0.1059 -0.0587,-0.142 -0.0366,-0.0367 -0.0871,-0.0592 -0.1425,-0.0592l-2.7813 0c-0.0555,0 -0.106,0.0225 -0.142,0.0587 -0.0367,0.0366 -0.0592,0.0871 -0.0592,0.1425l0 4.7995 3.1837 0 0 -0.3969zm1.4587 -2.9344c-0.2589,-0.2589 -0.6068,-0.4292 -0.9938,-0.4609l-0.0032 -0.0002 -0.0031 -0.0002 -0.0049 -0.0004c-0.0398,-0.003 -0.0801,-0.0045 -0.1206,-0.0045 -0.0646,0 -0.1282,0.0038 -0.1908,0.0113l-0.0031 0.0004 -0.0031 0.0004c-0.3609,0.0444 -0.6843,0.2098 -0.9286,0.4541 -0.288,0.288 -0.4663,0.686 -0.4663,1.1256 0,0.4396 0.1783,0.8376 0.4663,1.1256 0.2443,0.2443 0.5678,0.4096 0.9286,0.4541l0.0031 0.0004 0.0031 0.0004c0.0625,0.0074 0.1263,0.0113 0.1908,0.0113 0.0406,0 0.0808,-0.0015 0.1206,-0.0045l0.0049 -0.0004 0.0031 -0.0002 0.0032 -0.0002c0.387,-0.0316 0.7349,-0.202 0.9938,-0.4609 0.288,-0.288 0.4662,-0.686 0.4662,-1.1256 0,-0.4396 -0.1782,-0.8376 -0.4662,-1.1256zm-3.2567 4.0401c-0.0682,0 -0.1236,-0.0554 -0.1236,-0.1236 0,-0.0681 0.0554,-0.1235 0.1236,-0.1235l0.4123 0c0.0681,0 0.1235,0.0554 0.1235,0.1235 0,0.0682 -0.0554,0.1236 -0.1235,0.1236l-0.4123 0zm1.7655 -3.1481c-0.022,-0.0635 0.0115,-0.1329 0.075,-0.155 0.0634,-0.022 0.1329,0.0115 0.1549,0.0749l0.1407 0.4c0.0222,0.0634 -0.0113,0.1329 -0.0749,0.1549 -0.0634,0.0222 -0.1329,-0.0113 -0.1549,-0.0749l-0.1408 -0.3999zm-0.4134 0c-0.0222,-0.0635 0.0113,-0.1329 0.0749,-0.155 0.0634,-0.022 0.1329,0.0115 0.1549,0.0749l0.1408 0.4c0.0221,0.0634 -0.0114,0.1329 -0.075,0.1549 -0.0634,0.0222 -0.1329,-0.0113 -0.1549,-0.0749l-0.1407 -0.3999zm1.2982 0.9067c0.0952,0 0.1726,0.0773 0.1726,0.1726 0,0.0953 -0.0774,0.1726 -0.1726,0.1726 -0.0955,0 -0.1726,-0.0773 -0.1726,-0.1726 0,-0.0953 0.0771,-0.1726 0.1726,-0.1726zm-1.2383 0c0.0953,0 0.1726,0.0773 0.1726,0.1726 0,0.0953 -0.0773,0.1726 -0.1726,0.1726 -0.0953,0 -0.1725,-0.0773 -0.1725,-0.1726 0,-0.0953 0.0772,-0.1726 0.1725,-0.1726zm1.4359 -1.3614l0.1667 -0.0928c0.0188,-0.0105 0.039,-0.0153 0.0591,-0.0153l0.2378 -0.0004c0.0674,0 0.1222,0.0546 0.1222,0.122 0,0.0674 -0.0548,0.1222 -0.1222,0.1222l-0.207 0 -0.1121 0.0623 -0.1059 0.9582c-0.0068,0.0624 -0.0597,0.1085 -0.1211,0.1084l-1.4557 0.0003c-0.0566,0 -0.1042,-0.0384 -0.118,-0.0906l-0.3562 -1.0121c-0.0221,-0.0636 0.0114,-0.1329 0.0749,-0.1551 0.0133,-0.0045 0.0268,-0.0067 0.04,-0.0069l1.8975 -0.0002zm-0.1053 0.2442l-1.6202 0 0.2732 0.7765 1.2608 0 0.0862 -0.7765z"></path></g></svg>