<svg xmlns:dc="http://purl.org/dc/elements/1.1/" xmlns:cc="http://creativecommons.org/ns#" xmlns:rdf="http://www.w3.org/1999/02/22-rdf-syntax-ns#" xmlns:svg="http://www.w3.org/2000/svg" xmlns="http://www.w3.org/2000/svg" xmlns:sodipodi="http://sodipodi.sourceforge.net/DTD/sodipodi-0.dtd" xmlns:inkscape="http://www.inkscape.org/namespaces/inkscape" viewBox="0 0 16.933333 16.933334" version="1.1" x="0px" y="0px"><g transform="matrix(0.99999977,0,0,1.0000024,2.3817659,-1.0588542)"  stroke-width="1.00001"><path  d="M 32.933594 6 C 29.275292 6 26.351828 8.9212933 26.322266 12.533203 C 25.285938 12.548059 24.742942 12.879427 24.396484 13.375 C 24.009924 13.927922 23.856826 14.666487 23.638672 15.478516 L 20.84375 32.126953 C 20.761228 32.784173 21.018737 33.402328 21.535156 33.894531 C 22.051576 34.386755 22.821201 34.712891 23.585938 34.712891 L 42.287109 34.712891 C 43.051844 34.712891 43.821464 34.386729 44.337891 33.894531 C 44.828108 33.427311 45.107053 32.807901 45.021484 32.126953 L 42.236328 15.478516 C 42.049997 14.784881 41.894102 13.983387 41.46875 13.375 C 41.122836 12.880221 40.615023 12.549067 39.550781 12.533203 C 39.521022 8.8904578 36.56071 6 32.933594 6 z M 32.933594 8.0136719 C 35.483056 8.0136711 37.500038 10.044251 37.533203 12.527344 L 28.339844 12.527344 C 28.372708 10.025201 30.383999 8.0136719 32.933594 8.0136719 z M 26.386719 17.033203 L 28.257812 17.033203 C 28.81445 17.03034 29.267731 17.48011 29.269531 18.037109 C 29.272203 18.567753 28.862971 19.009445 28.333984 19.046875 L 28.333984 19.902344 C 28.333984 22.43324 30.362945 24.476563 32.933594 24.476562 C 35.504243 24.476563 37.539063 22.413571 37.539062 19.902344 L 37.539062 19.044922 C 37.010829 19.007544 36.601915 18.567 36.603516 18.037109 C 36.605329 17.480112 37.058599 17.030303 37.615234 17.033203 L 39.480469 17.033203 C 40.036343 17.031424 40.488435 17.480877 40.490234 18.037109 C 40.492838 18.568454 40.082493 19.010425 39.552734 19.046875 L 39.552734 19.902344 C 39.552734 23.571149 36.57908 26.490234 32.933594 26.490234 C 29.256654 26.490234 26.320313 23.539677 26.320312 19.902344 L 26.320312 19.044922 C 25.792078 19.007544 25.383165 18.567 25.384766 18.037109 C 25.386567 17.483925 25.833894 17.035703 26.386719 17.033203 z M 5.7988281 19.048828 C 4.7822483 19.048828 4 19.830404 4 20.833984 L 4 50.535156 L 6 50.535156 L 6 23.621094 C 6 22.044389 7.2780145 20.75 8.8808594 20.75 L 20.705078 20.75 L 20.990234 19.048828 L 5.7988281 19.048828 z M 44.878906 19.048828 L 45.164062 20.75 L 55.214844 20.75 C 56.825561 20.75 58.095657 22.044181 58.105469 23.613281 L 58 50.535156 L 60 50.535156 L 60 20.833984 C 60 19.86581 59.217751 19.048828 58.201172 19.048828 L 44.878906 19.048828 z M 8.8808594 22.765625 C 8.4117333 22.765625 8.0117188 23.162709 8.0117188 23.621094 L 8.0117188 50.535156 L 25.988281 50.535156 C 26.547258 50.532956 27.0022 50.987541 27 51.546875 L 27 53.332031 L 37 53.332031 L 37 51.546875 C 36.9979 50.987541 37.452742 50.532957 38.011719 50.535156 L 43.042969 50.535156 L 42.056641 46.283203 C 41.878398 45.528218 42.580633 44.913463 43.244141 45.070312 L 51.857422 47.048828 C 52.631261 47.223216 52.910669 48.183091 52.349609 48.744141 L 51.083984 50.007812 L 51.613281 50.535156 L 56.255859 50.535156 L 56.080078 23.628906 C 56.076978 23.135442 55.691816 22.765625 55.214844 22.765625 L 45.501953 22.765625 L 47.025391 31.853516 C 47.203709 33.26106 46.620585 34.50363 45.720703 35.361328 C 44.820813 36.219018 43.59441 36.728516 42.287109 36.728516 L 23.585938 36.728516 C 22.278627 36.728516 21.044429 36.219018 20.144531 35.361328 C 19.244637 34.50363 18.670257 33.270255 18.845703 31.873047 C 18.848003 31.860577 18.850816 31.848407 18.853516 31.835938 L 20.369141 22.765625 L 8.8808594 22.765625 z M 43.699219 37.806641 C 44.25823 37.804441 44.718997 38.257046 44.716797 38.816406 L 44.716797 41.449219 C 44.714897 42.005672 44.255319 42.457278 43.699219 42.455078 C 43.146025 42.453178 42.691353 42.00277 42.689453 41.449219 L 42.689453 38.816406 C 42.687253 38.259945 43.143126 37.808542 43.699219 37.806641 z M 38.408203 40.4375 C 38.676502 40.437198 38.933829 40.544038 39.123047 40.734375 L 41.105469 42.707031 C 41.502918 43.098576 41.50646 43.738886 41.113281 44.134766 C 40.719936 44.529636 40.080845 44.529636 39.6875 44.134766 L 37.703125 42.164062 C 37.305677 41.77252 37.302133 41.132204 37.695312 40.736328 C 37.883733 40.545764 38.1403 40.438207 38.408203 40.4375 z M 35.773438 45.703125 L 38.416016 45.703125 C 38.972112 45.705025 39.433841 46.156433 39.431641 46.712891 C 39.429741 47.266438 38.969214 47.714896 38.416016 47.716797 L 35.773438 47.716797 C 35.217337 47.718997 34.759714 47.269344 34.757812 46.712891 C 34.755612 46.153519 35.214431 45.700925 35.773438 45.703125 z M 44.386719 47.390625 L 45.597656 52.625 L 46.300781 51.925781 C 46.693382 51.535366 47.326144 51.535366 47.71875 51.925781 L 49.652344 53.851562 L 50.871094 52.640625 L 48.945312 50.720703 C 48.545193 50.326165 48.545193 49.681659 48.945312 49.287109 L 49.636719 48.601562 L 44.386719 47.390625 z M 2 52.550781 L 2 53.408203 C 2 55.924188 4.0403372 58 6.5976562 58 L 57.402344 58 C 59.932136 58 62 55.951801 62 53.408203 L 62 52.550781 L 53.300781 52.550781 C 53.326104 52.838789 53.230112 53.135462 53.009766 53.355469 L 50.365234 55.992188 C 49.972628 56.383593 49.337918 56.383593 48.945312 55.992188 L 47.005859 54.0625 L 45.736328 55.332031 C 45.178081 55.894593 44.219636 55.619008 44.041016 54.845703 L 43.509766 52.550781 L 39.013672 52.550781 L 39.013672 54.345703 C 39.011714 54.900634 38.564894 55.351509 38.011719 55.353516 L 26.001953 55.353516 C 25.448777 55.351554 25.002 54.900626 25 54.345703 L 25 52.550781 L 2 52.550781 z " transform="matrix(0.2645834,0,0,0.2645827,-2.3817664,1.0588517)"></path></g></svg>