<svg xmlns="http://www.w3.org/2000/svg" xmlns:xlink="http://www.w3.org/1999/xlink" version="1.1" x="0px" y="0px" viewBox="0 0 512 512" enable-background="new 0 0 512 512" xml:space="preserve"><g><path d="M256,0C139.167,0,44.467,94.708,44.467,211.533C44.467,372.184,256,512,256,512s211.533-139.816,211.533-300.467   C467.533,94.708,372.833,0,256,0z M256,375.941c-90.8,0-164.4-73.6-164.4-164.408c0-90.8,73.601-164.408,164.4-164.408   s164.417,73.608,164.417,164.408C420.417,302.342,346.8,375.941,256,375.941z"></path><path d="M310.292,114.6l15.324,29.433v3.4c0,8.967,7.259,16.233,16.226,16.233c8.958,0,16.216-7.267,16.216-16.233v-3.4   L332.542,114.6H310.292z"></path><path d="M259.933,163.667c8.959,0,16.217-7.267,16.217-16.233v-3.4l-5.1-29.433H248.8l-5.1,29.433v3.4   C243.7,156.4,250.967,163.667,259.933,163.667z"></path><path d="M202.75,147.434c0,8.967,7.267,16.233,16.225,16.233c8.958,0,16.226-7.267,16.226-16.233v-3.4l5.1-29.433h-22.25   l-15.3,29.433V147.434z"></path><path d="M284.649,147.434c0,8.967,7.275,16.233,16.234,16.233c8.966,0,16.225-7.267,16.225-16.233v-3.4L301.783,114.6H279.55   l5.1,29.433V147.434z"></path><path d="M194.241,147.434v-3.4L209.55,114.6H187.3l-25.5,29.433v3.4h-0.008c0,8.967,7.267,16.233,16.225,16.233   C186.983,163.667,194.241,156.4,194.241,147.434z"></path><path d="M171.608,291.233h176.633V173.467H171.608V291.233z M191.233,193.1h137.383v78.5H191.233V193.1z"></path></g></svg>