<svg xmlns="http://www.w3.org/2000/svg" xmlns:xlink="http://www.w3.org/1999/xlink" version="1.1" x="0px" y="0px" viewBox="0 0 100 100" enable-background="new 0 0 100 100" xml:space="preserve"><g><path d="M89,12H67v2h22c5.5,0,9,3.5,9,9c0,5-4,9-9,9H11C4.9,32,0,36.9,0,43c0,6.6,4.4,11,11,11h31.1c-2.5,2.2-4.1,5.4-4.1,9v2h-9.8   v30c0,3.3,2.7,6,6,6h32c3.3,0,6-2.7,6-6V65H62v-2c0-6.6-5.4-12-12-12c-1.7,0-3.3,0.4-4.8,1H11c-5.5,0-9-3.5-9-9c0-5,4-9,9-9h78   c6.1,0,11-4.9,11-11C100,16.4,95.6,12,89,12z M50,55c4.4,0,8,3.6,8,8v2H42v-2C42,58.6,45.6,55,50,55z"></path><g><path d="M67,3v9h-4.3c-0.3-0.6-1-1-1.7-1h-1c-0.7,0-1.4,0.4-1.7,1h-4.1V1H65C66.1,1,67,1.9,67,3z"></path><path d="M52.2,1v24H45c-6.6,0-12-5.4-12-12S38.4,1,45,1H52.2z"></path><path d="M67,14v9c0,1.1-0.9,2-2,2H54.2V14h4.1c0.3,0.6,1,1,1.7,1h1c0.7,0,1.4-0.4,1.7-1H67z"></path></g></g></svg>