<svg xmlns="http://www.w3.org/2000/svg" xmlns:xlink="http://www.w3.org/1999/xlink" version="1.1" x="0px" y="0px" viewBox="0 0 100 100"  xml:space="preserve"><g><path d="M47.521,72.5h20V75c0,5.513-4.487,10-10,10s-10-4.487-10-10V72.5z M67.521,65c0-4.65-3.192-8.57-7.5-9.684V67.5h7.5V65z    M85,20H65v-3.999C65,7.163,58.281,0,50,0S35,7.163,35,16.001V20h5v-3.999C40,9.937,44.487,5,50,5s10,4.937,10,11.001V20H40v10   c0.015,1.24,0.439,7.5,7.5,7.5c9.888,0,12.5,8.387,12.5,12.708C67.102,51.391,72.521,57.56,72.521,65v10c0,8.286-6.719,15-15,15   c-8.282,0-15-6.714-15-15V65c0-7.427,5.398-13.586,12.479-14.785c-0.015-1.24-0.439-7.715-7.5-7.715C37.612,42.5,35,34.321,35,30   V20H15l-5,80h80L85,20z M47.521,65v2.5h7.5V55.316C50.713,56.43,47.521,60.35,47.521,65z"></path></g></svg>