<svg xmlns="http://www.w3.org/2000/svg" xmlns:xlink="http://www.w3.org/1999/xlink" xmlns:sketch="http://www.bohemiancoding.com/sketch/ns" viewBox="0 0 30 30" version="1.1" x="0px" y="0px"><title>shopping_003-shop-store-sell-buy-building</title><desc>Created with Sketch.</desc><g stroke="none" stroke-width="1"  fill-rule="evenodd" sketch:type="MSPage"><g sketch:type="MSArtboardGroup" transform="translate(-135.000000, -45.000000)" ><g sketch:type="MSLayerGroup" transform="translate(138.000000, 49.000000)"><path d="M1,20.5 C1,20.7761424 1.22385763,21 1.5,21 L23.5,21 C23.7761424,21 24,20.7761424 24,20.5 L24,7 L23,7.5 L23,20 L2,20 L2,7.5 L1,7 L1,20.5 Z" sketch:type="MSShapeGroup"></path><path d="M4,11.5 L4,17.5 C4,17.7761424 4.22385763,18 4.5,18 L20.5,18 C20.7761424,18 21,17.7761424 21,17.5 L21,11.5 C21,11.2238576 20.7761424,11 20.5,11 L4.5,11 C4.22385763,11 4,11.2238576 4,11.5 Z M5,12 L20,12 L20,17 L5,17 L5,12 Z" sketch:type="MSShapeGroup"></path><path d="M0,5 C0,6.93299662 1.56700338,8.5 3.5,8.5 C4.77316257,8.5 5.88755143,7.82020891 6.5,6.80379331 C7.11244857,7.82020891 8.22683743,8.5 9.5,8.5 C10.7731626,8.5 11.8875514,7.82020891 12.5,6.80379331 C13.1124486,7.82020891 14.2268374,8.5 15.5,8.5 C16.7731626,8.5 17.8875514,7.82020891 18.5,6.80379331 C19.1124486,7.82020891 20.2268374,8.5 21.5,8.5 C23.4329966,8.5 25,6.93299662 25,5 L25,4.5 C25,4.22385763 24.7761424,4 24.5,4 L0.5,4 C0.223857625,4 0,4.22385763 0,4.5 L0,5 Z M15.5,7.5 C14.1192881,7.5 13,6.38071187 13,5 L18,5 C18,6.38071187 16.8807119,7.5 15.5,7.5 Z M9.5,7.5 C8.11928813,7.5 7,6.38071187 7,5 L12,5 C12,6.38071187 10.8807119,7.5 9.5,7.5 Z M3.5,7.5 C2.11928813,7.5 1,6.38071187 1,5 L6,5 C6,6.38071187 4.88071187,7.5 3.5,7.5 Z M21.5,7.5 C20.1192881,7.5 19,6.38071187 19,5 L24,5 C24,6.38071187 22.8807119,7.5 21.5,7.5 Z" sketch:type="MSShapeGroup"></path><path d="M6.01492875,4.37873219 C5.94795439,4.64662964 6.11083473,4.91809689 6.37873219,4.98507125 C6.64662964,5.05204561 6.91809689,4.88916527 6.98507125,4.62126781 L7.98507125,0.621267813 C8.05204561,0.353370359 7.88916527,0.0819031134 7.62126781,0.0149287499 C7.35337036,-0.0520456136 7.08190311,0.110834733 7.01492875,0.378732187 L6.01492875,4.37873219 Z" sketch:type="MSShapeGroup"></path><path d="M18.0149287,4.62126781 C18.0819031,4.88916527 18.3533704,5.05204561 18.6212678,4.98507125 C18.8891653,4.91809689 19.0520456,4.64662964 18.9850713,4.37873219 L17.9850713,0.378732187 C17.9180969,0.110834733 17.6466296,-0.0520456136 17.3787322,0.0149287499 C17.1108347,0.0819031134 16.9479544,0.353370359 17.0149287,0.621267813 L18.0149287,4.62126781 Z" sketch:type="MSShapeGroup"></path><rect sketch:type="MSShapeGroup" x="12" y="0" width="1" height="5"></rect><path d="M22.5,1 C22.7761424,1 23,0.776142375 23,0.5 C23,0.223857625 22.7761424,0 22.5,0 L2.5,0 C2.22385763,0 2,0.223857625 2,0.5 C2,0.776142375 2.22385763,1 2.5,1 L22.5,1 Z" sketch:type="MSShapeGroup"></path><path d="M24.0527864,4.7236068 C24.176281,4.97059605 24.4766175,5.07070822 24.7236068,4.9472136 C24.970596,4.82371897 25.0707082,4.52338245 24.9472136,4.2763932 L22.9472136,0.276393202 C22.823719,0.0294039535 22.5233825,-0.0707082199 22.2763932,0.0527864045 C22.029404,0.176281029 21.9292918,0.476617549 22.0527864,0.723606798 L24.0527864,4.7236068 Z" sketch:type="MSShapeGroup"></path><path d="M2.0527864,4.7236068 C2.17628103,4.97059605 2.47661755,5.07070822 2.7236068,4.9472136 C2.97059605,4.82371897 3.07070822,4.52338245 2.9472136,4.2763932 L0.947213595,0.276393202 C0.823718971,0.0294039535 0.523382451,-0.0707082199 0.276393202,0.0527864045 C0.0294039535,0.176281029 -0.0707082199,0.476617549 0.0527864045,0.723606798 L2.0527864,4.7236068 Z" sketch:type="MSShapeGroup" transform="translate(1.500000, 2.500000) scale(-1, 1) translate(-1.500000, -2.500000) "></path><path d="M6,17.5 C6,17.7761424 6.22385763,18 6.5,18 L8.5,18 C8.77614237,18 9,17.7761424 9,17.5 L9,13 L8,13 L8,17 L7,17 L7,13 L6,13 L6,17.5 Z" sketch:type="MSShapeGroup" transform="translate(7.500000, 15.500000) scale(1, -1) translate(-7.500000, -15.500000) "></path><rect sketch:type="MSShapeGroup" x="6" y="15" width="3" height="1"></rect><path d="M16,17.5 C16,17.7761424 16.2238576,18 16.5,18 L18.5,18 C18.7761424,18 19,17.7761424 19,17.5 L19,14 L18,14 L18,17 L17,17 L17,14 L16,14 L16,17.5 Z" sketch:type="MSShapeGroup" transform="translate(17.500000, 16.000000) scale(1, -1) translate(-17.500000, -16.000000) "></path><path d="M10,17.5 C10,17.7761424 10.2238576,18 10.5,18 L14.5,18 C14.7761424,18 15,17.7761424 15,17.5 L15,15 L14,15 L14,17 L11,17 L11,15 L10,15 L10,17.5 Z" sketch:type="MSShapeGroup" transform="translate(12.500000, 16.500000) scale(1, -1) translate(-12.500000, -16.500000) "></path></g></g></g></svg>