<svg xmlns="http://www.w3.org/2000/svg" xmlns:xlink="http://www.w3.org/1999/xlink" version="1.1" x="0px" y="0px" viewBox="0 0 100 100" enable-background="new 0 0 100 100" xml:space="preserve"><path d="M96.3,34.371l-9.39-12.916V6.169c0-2.976-2.406-5.383-5.383-5.383H18.472c-2.976,0-5.383,2.407-5.383,5.383v15.286  L3.701,34.371c-6.833,9.391-3.904,17.155,6.313,18.459v41.001c0,2.976,2.407,5.383,5.383,5.383h69.207  c2.976,0,5.383-2.407,5.383-5.383V52.83C100.202,51.526,103.132,43.761,96.3,34.371z M16.935,6.169c0-0.848,0.689-1.538,1.538-1.538  h63.055c0.849,0,1.538,0.69,1.538,1.538v13.022H16.935V6.169z M37.696,23.036L30.63,49.181H17.627l14.839-26.145H37.696z   M41.68,23.036h5.906v26.145H34.613L41.68,23.036z M51.43,23.036h5.906l7.066,26.145H51.43V23.036z M68.386,49.181l-7.066-26.145  h5.229l14.839,26.145H68.386z M4.286,45.818c-1.088-2.137-0.168-5.485,2.525-9.186l9.883-13.596h11.351L13.206,49.181h-0.009  C8.622,49.181,5.374,47.955,4.286,45.818z M61.427,95.369H39.896V63.072h21.531V95.369z M84.604,95.369H65.271V61.534  c0-1.276-1.03-2.307-2.308-2.307H38.358c-1.277,0-2.307,1.03-2.307,2.307v33.835H15.396c-0.848,0-1.538-0.689-1.538-1.538V53.026  h72.283v40.805C86.142,94.68,85.452,95.369,84.604,95.369z M95.715,45.818c-1.089,2.137-4.336,3.363-8.913,3.363H85.81L70.97,23.036  h12.336l9.885,13.597C95.883,40.333,96.803,43.681,95.715,45.818z"></path></svg>