<svg xmlns="http://www.w3.org/2000/svg" xmlns:xlink="http://www.w3.org/1999/xlink" version="1.1" x="0px" y="0px" viewBox="0 0 60 59"  xml:space="preserve"><g><g><path d="M59.03,20c0.552,0,1-0.448,1-1v-5c0-0.552-0.448-1-1-1h-1V5.996C58.03,4.344,56.686,3,55.034,3H48.03V1    c0-0.552-0.448-1-1-1h-34c-0.552,0-1,0.448-1,1v2H5.026C3.374,3,2.03,4.344,2.03,5.996V13h-1c-0.552,0-1,0.448-1,1v5    c0,0.552,0.448,1,1,1h3v33h-3c-0.552,0-1,0.448-1,1v4c0,0.552,0.448,1,1,1h29h20h9c0.552,0,1-0.448,1-1v-4c0-0.552-0.448-1-1-1h-3    V20H59.03z M58.03,18h-3h-7v-3h9h1V18z M55.034,5c0.549,0,0.996,0.447,0.996,0.996V13h-8V5H55.034z M22.03,14h2.541    c-0.954-1.063-1.541-2.462-1.541-4V5c0-0.552,0.448-1,1-1h10h5c0.552,0,1,0.448,1,1c0,2.994-2.207,5.476-5.078,5.922    C34.77,12.095,34.249,13.155,33.49,14h2.541c0.552,0,1,0.448,1,1s-0.448,1-1,1h-14c-0.552,0-1-0.448-1-1S21.478,14,22.03,14z     M4.03,5.996C4.03,5.447,4.477,5,5.026,5h7.004v8h-8V5.996z M2.03,15h1h9v3h-7h-3V15z M2.03,55h3h6h18v2h-27V55z M47.03,29h-2v-1    c0-0.552,0.448-1,1-1s1,0.448,1,1V29z M43.03,29h-2v-1c0-0.552,0.448-1,1-1s1,0.448,1,1V29z M39.03,29h-2v-1c0-0.552,0.448-1,1-1    s1,0.448,1,1V29z M35.03,29h-2v-1c0-0.552,0.448-1,1-1s1,0.448,1,1V29z M31.03,29h-2v-1c0-0.552,0.448-1,1-1s1,0.448,1,1V29z     M27.03,29h-2v-1c0-0.552,0.448-1,1-1s1,0.448,1,1V29z M23.03,29h-2v-1c0-0.552,0.448-1,1-1s1,0.448,1,1V29z M19.03,29h-2v-1    c0-0.552,0.448-1,1-1s1,0.448,1,1V29z M15.03,29h-2v-1c0-0.552,0.448-1,1-1s1,0.448,1,1V29z M12.03,31h2h4h4h4h4h4h4h4h4h2v22h-2    V34c0-0.552-0.448-1-1-1h-10c-0.552,0-1,0.448-1,1v19h-4h-18V31z M39.03,44c0-0.552,0.448-1,1-1h2c0.552,0,1,0.448,1,1    s-0.448,1-1,1h-2C39.478,45,39.03,44.552,39.03,44z M31.03,57v-2h4h10h4v2H31.03z M58.03,57h-7v-2h4h3V57z M54.03,53h-4V31h1    c0.314,0,0.609-0.147,0.798-0.398s0.25-0.575,0.163-0.877l-2-7C49.868,22.296,49.476,22,49.03,22h-38    c-0.446,0-0.839,0.296-0.961,0.725l-2,7c-0.086,0.302-0.026,0.626,0.163,0.877S8.717,31,9.03,31h1v22h-4V20h7h34h7V53z"></path><path d="M37.903,6h-2.874v2.874C36.434,8.511,37.541,7.404,37.903,6z"></path><path d="M29.03,14c2.206,0,4-1.794,4-4V6h-8v4C25.03,12.206,26.824,14,29.03,14z"></path><rect x="21.03" y="33" width="4" height="4"></rect><path d="M27.03,47h-3v4h7c0.552,0,1-0.448,1-1V34c0-0.552-0.448-1-1-1h-4v5c0,0.552-0.448,1-1,1h-1.815    c0.414,1.161,1.514,2,2.815,2c0.552,0,1,0.448,1,1s-0.448,1-1,1c-1.641,0-3.088-0.806-4-2.031c-0.912,1.225-2.358,2.031-4,2.031    c-0.552,0-1-0.448-1-1s0.448-1,1-1c1.302,0,2.402-0.839,2.816-2H20.03c-0.552,0-1-0.448-1-1v-5h-4c-0.552,0-1,0.448-1,1v16    c0,0.552,0.448,1,1,1h7v-4h-3c-0.552,0-1-0.448-1-1s0.448-1,1-1h8c0.552,0,1,0.448,1,1S27.582,47,27.03,47z"></path></g></g></svg>