<svg xmlns="http://www.w3.org/2000/svg" xmlns:xlink="http://www.w3.org/1999/xlink" version="1.1" x="0px" y="0px" viewBox="0 0 96 96" enable-background="new 0 0 96 96" xml:space="preserve"><g><path d="M48.885,35.024L48.885,35.024H17.386v21.712h31.499V35.024z M47.004,54.857H19.267V36.904h27.737V54.857z"></path><rect x="23.061" y="38.897" transform="matrix(0.7068 0.7074 -0.7074 0.7068 36.1306 -4.92)" width="1.88" height="4.468"></rect><rect x="25.553" y="37.299" transform="matrix(0.7071 0.7071 -0.7071 0.7071 38.3728 -6.0543)" width="1.882" height="11.988"></rect><path d="M70.915,44.349h7.955l0.035-0.032c0.697-0.619,1.149-1.354,1.439-2.116c0.225,0.062,0.461,0.098,0.704,0.098   c1.465,0,2.655-1.19,2.655-2.656c0-1.463-1.19-2.653-2.655-2.653c-0.186,0-0.367,0.019-0.543,0.055   c-0.009-0.029-0.014-0.049-0.015-0.051l-0.025-0.089H69.32l-0.027,0.089c-0.013,0.047-1.343,4.719,1.586,7.324L70.915,44.349z    M80.573,37.328c0.154-0.032,0.313-0.047,0.476-0.047c1.303,0,2.363,1.06,2.363,2.36c0,1.304-1.061,2.363-2.363,2.363   c-0.209,0-0.412-0.03-0.606-0.081C81.053,40.059,80.74,38.096,80.573,37.328z M74.806,38.149l0.013-0.003v-0.015l0.074,0.009   l0.073-0.009v0.015l0.014,0.003c0.811,0.085,1.422,1.148,1.422,2.475c0,1.327-0.611,2.393-1.422,2.478h-0.014v0.018l-0.073-0.009   l-0.074,0.009v-0.018h-0.013c-0.811-0.085-1.423-1.15-1.423-2.478C73.383,39.298,73.995,38.234,74.806,38.149z"></path><path d="M69.539,45.277c0.26,0.134,0.712,0.253,1.3,0.354h7.65c0.588-0.101,1.039-0.22,1.299-0.354   c1.211-0.215,2.132-0.495,2.132-0.804H67.408C67.408,44.782,68.329,45.063,69.539,45.277z"></path><path d="M76.109,40.624c0-1.039-0.436-1.947-0.999-2.147v4.298C75.674,42.574,76.109,41.667,76.109,40.624z"></path><path d="M74.675,42.774v-4.298c-0.563,0.2-0.999,1.108-0.999,2.147C73.676,41.667,74.111,42.574,74.675,42.774z"></path><path d="M72.561,35.84l0.254,0.143c0.026-0.045,0.627-1.125-0.038-1.634c-0.463-0.355,0.034-1.248,0.038-1.259l-0.254-0.143   c-0.025,0.045-0.627,1.125,0.037,1.633C73.063,34.936,72.565,35.829,72.561,35.84z"></path><path d="M74.817,35.84l0.254,0.143c0.026-0.045,0.627-1.125-0.037-1.634c-0.464-0.355,0.033-1.248,0.037-1.259l-0.254-0.143   c-0.025,0.045-0.627,1.125,0.038,1.633C75.319,34.936,74.822,35.829,74.817,35.84z"></path><path d="M76.971,35.84l0.254,0.143c0.026-0.045,0.626-1.125-0.038-1.634c-0.464-0.355,0.032-1.248,0.038-1.259l-0.254-0.143   c-0.027,0.045-0.628,1.125,0.038,1.633C77.472,34.936,76.975,35.829,76.971,35.84z"></path><path d="M65.804,30.442v-5.505h-3.21L53.684,8H22.976l-8.91,16.938h-3.21v6.05h1.777v51.607H8.386V88h59.887v-5.405h-4.245V64.741   h23.587V48.136v-1.088V30.442H65.804z M62.146,81.654h-4.261V64.872H45.996v16.782H14.515V30.991h47.631V81.654z M63.923,29.11   H12.735v-2.292h51.188V29.11z M86.525,63.652H64.587V48.137h21.938V63.652z M86.525,47.047H64.587V31.531h21.938V47.047z"></path><path d="M69.652,62.401c0.273,0.166,0.75,0.313,1.369,0.437h8.057c0.618-0.124,1.094-0.271,1.367-0.437   c1.276-0.264,2.246-0.612,2.246-0.99H67.408C67.408,61.789,68.378,62.138,69.652,62.401z"></path><path d="M78.48,61.253c0.44-0.399,0.793-0.84,1.074-1.304c0.234,0.052,0.48,0.081,0.73,0.081c1.886,0,3.419-1.535,3.419-3.422   c0-1.884-1.533-3.417-3.419-3.417c-0.011,0-0.021,0-0.032,0c-0.019-0.07-0.03-0.113-0.032-0.117l-0.028-0.103h-7.163v2.741h0.739   l0.242,2.268h-2.427l0.242-2.268h0.739v-2.741H69.94l-0.028,0.103c-0.016,0.051-1.495,5.253,1.74,8.179H78.48z M80.375,53.757   c1.532,0.049,2.766,1.308,2.766,2.852c0,1.576-1.281,2.858-2.855,2.858c-0.152,0-0.3-0.017-0.446-0.04   C80.85,57.327,80.59,54.911,80.375,53.757z"></path><path d="M72.64,50.59c0.072,0.007,0.099,0.036,0.114,0.064c0.119,0.202-0.063,0.808-0.23,1.176l0.255,0.117   c0.078-0.17,0.453-1.036,0.22-1.436c-0.07-0.119-0.187-0.189-0.335-0.202c-0.072-0.007-0.098-0.036-0.115-0.063   c-0.118-0.202,0.063-0.811,0.23-1.177l-0.255-0.116c-0.077,0.17-0.452,1.035-0.218,1.436C72.376,50.507,72.491,50.577,72.64,50.59z   "></path><path d="M74.983,50.59c0.071,0.007,0.098,0.036,0.113,0.064c0.119,0.202-0.063,0.808-0.23,1.176l0.256,0.117   c0.078-0.17,0.452-1.036,0.218-1.436c-0.069-0.119-0.186-0.189-0.333-0.202c-0.072-0.007-0.1-0.036-0.115-0.063   c-0.119-0.202,0.063-0.811,0.23-1.177l-0.256-0.116c-0.078,0.17-0.452,1.035-0.218,1.436C74.717,50.507,74.834,50.577,74.983,50.59   z"></path><path d="M77.434,50.59c0.072,0.007,0.1,0.036,0.115,0.064c0.119,0.202-0.063,0.808-0.23,1.176l0.256,0.117   c0.077-0.17,0.451-1.036,0.217-1.436c-0.07-0.119-0.185-0.189-0.334-0.202c-0.072-0.007-0.098-0.036-0.114-0.063   c-0.119-0.202,0.063-0.811,0.231-1.177l-0.256-0.116c-0.078,0.17-0.453,1.035-0.219,1.436C77.17,50.507,77.285,50.577,77.434,50.59   z"></path></g></svg>