<svg xmlns:dc="http://purl.org/dc/elements/1.1/" xmlns:cc="http://creativecommons.org/ns#" xmlns:rdf="http://www.w3.org/1999/02/22-rdf-syntax-ns#" xmlns:svg="http://www.w3.org/2000/svg" xmlns="http://www.w3.org/2000/svg" xmlns:sodipodi="http://sodipodi.sourceforge.net/DTD/sodipodi-0.dtd" xmlns:inkscape="http://www.inkscape.org/namespaces/inkscape" version="1.1" x="0px" y="0px" viewBox="0 0 100 100"><g transform="translate(0,-952.36218)"><path  d="m 27.999999,959.36217 c -3.32176,0 -6,2.67601 -6,6 l 0,44.00003 c 0,3.324 2.67824,6 6,6 l 10.000001,0 c 0.004,7.999 0.004,7.993 0,8 l -7,0 19,22 19,-22 -7,0 c 0.004,0 0,11.991 0,-8 l 10,0 c 3.32176,0 6,-2.676 6,-6 l 0,-44.00003 c 0,-3.32399 -2.67824,-6 -6,-6 l -44,0 z m 22.093751,10.96901 c 3.832269,0.04 7.022589,3.408 7.75,8.03099 l 3.59375,0 c 2.485129,0 4.692949,2.057 4.5625,4.656 l -0.84375,16.907 c -0.118261,2.35803 -2.078321,4.43703 -4.5625,4.43703 l -21.1875,0 c -2.48419,0 -4.4442,-2.079 -4.5625,-4.43703 L 34,983.01817 c -0.13041,-2.599 2.07737,-4.656 4.5625,-4.656 l 3.59375,0 c 0.72704,-4.625 3.97871,-8.066 7.9375,-8.03099 z m -0.0312,4 c -1.322681,-0.01 -3.198881,1.40599 -3.84375,4.03099 l 7.53125,0 c -0.64264,-2.655 -2.47451,-4.023 -3.6875,-4.03099 z m -11.5,8.03099 c -0.33469,0 -0.573301,0.223 -0.5625,0.438 l 0.84375,16.906 c 0.023,0.45803 0.226889,0.65603 0.5625,0.65603 l 21.1875,0 c 0.3356,0 0.539599,-0.198 0.5625,-0.65603 L 62,982.80017 c 0.0108,-0.215 -0.227811,-0.438 -0.5625,-0.438 l -22.875,0 z"  stroke="none" marker="none" visibility="visible" display="inline" overflow="visible"></path></g></svg>