<svg xmlns="http://www.w3.org/2000/svg" xmlns:xlink="http://www.w3.org/1999/xlink" version="1.1" x="0px" y="0px" viewBox="0 0 100 100"  xml:space="preserve"><path d="M10.942,12h17.639v12.065c-9.034,6.663-14.904,17.354-14.904,29.389C13.676,73.605,30.128,90,50.351,90  c20.223,0,36.675-16.395,36.675-36.546c0-12.052-5.888-22.756-14.945-29.417V12h16.861c0.552,0,1-0.448,1-1s-0.448-1-1-1h-78  c-0.552,0-1,0.448-1,1S10.39,12,10.942,12z M85.025,53.454C85.025,72.502,69.47,88,50.351,88S15.676,72.502,15.676,53.454  s15.555-34.546,34.674-34.546S85.025,34.405,85.025,53.454z M70.081,22.671c-5.701-3.641-12.47-5.763-19.73-5.763  c-7.277,0-14.06,2.132-19.77,5.789V12h39.5V22.671z"></path><path d="M28.366,46.416v4.097c0,11.231,5.787,20.989,14.4,24.281c0.114,0.043,0.235,0.066,0.357,0.066h11.156  c0.122,0,0.243-0.022,0.357-0.066c4.71-1.8,8.565-5.542,11.101-10.393h4.19c3.401,0,6.168-2.767,6.168-6.168  s-2.767-6.168-6.168-6.168h-0.94c0.025-0.515,0.05-1.03,0.05-1.552v-4.097c0-0.552-0.448-1-1-1h-38.67  C28.814,45.416,28.366,45.864,28.366,46.416z M54.092,72.86H43.311c-5.602-2.217-9.945-7.746-11.864-14.55h34.508  C64.036,65.114,59.693,70.643,54.092,72.86z M69.927,54.065c2.298,0,4.168,1.87,4.168,4.168s-1.87,4.168-4.168,4.168h-3.239  c1.083-2.561,1.81-5.375,2.139-8.337H69.927z M30.366,47.416h36.67v3.097c0,1.984-0.208,3.928-0.591,5.797H30.957  c-0.382-1.869-0.591-3.812-0.591-5.797V47.416z"></path><path d="M45.917,42.688c0.552,0,1-0.448,1-1s-0.448-1-1-1c-0.807,0-1.463-0.656-1.463-1.463s0.656-1.464,1.463-1.464  c1.91,0,3.464-1.554,3.464-3.463s-1.554-3.463-3.464-3.463c-0.552,0-1,0.448-1,1s0.448,1,1,1c0.807,0,1.464,0.656,1.464,1.463  s-0.657,1.463-1.464,1.463c-1.91,0-3.463,1.554-3.463,3.464C42.453,41.134,44.007,42.688,45.917,42.688z"></path><path d="M53.383,35.76c-1.91,0-3.463,1.554-3.463,3.464c0,1.91,1.554,3.463,3.463,3.463c0.552,0,1-0.448,1-1s-0.448-1-1-1  c-0.807,0-1.463-0.656-1.463-1.463s0.656-1.464,1.463-1.464c1.91,0,3.464-1.554,3.464-3.463s-1.554-3.463-3.464-3.463  c-0.552,0-1,0.448-1,1s0.448,1,1,1c0.807,0,1.464,0.656,1.464,1.463S54.19,35.76,53.383,35.76z"></path></svg>