<svg xmlns="http://www.w3.org/2000/svg" viewBox="0 0 100 100" x="0px" y="0px"><title>Noun_Project_50Icon_5px_grid</title><g data-name="Capa 2"><path d="M37.37,67.94a1,1,0,0,0-.73,1.11A8.71,8.71,0,0,0,40,74.67a7.62,7.62,0,0,0,6.38.65,1,1,0,0,0,.73-1C46.76,70.32,43.63,66.16,37.37,67.94ZM41.14,73a6.15,6.15,0,0,1-2.29-3.34,5.4,5.4,0,0,1,4.12.66,5.66,5.66,0,0,1,2,3.27A5.2,5.2,0,0,1,41.14,73Z"></path><path d="M58.73,81.74a7.18,7.18,0,0,1-5.49-2.6,4.82,4.82,0,0,0-7.33,0C42.25,83.68,34.64,82,34.48,75.81V62.53a14.81,14.81,0,0,1,2.77-8.69q.89.57,1.8,1.11a1,1,0,0,0,1-1.74A33.59,33.59,0,0,1,23.54,30.84a1,1,0,0,0-2,.44,36.66,36.66,0,0,0,5.23,12.38,35.53,35.53,0,0,0,8.78,9,17.08,17.08,0,0,0-3.12,9.83V75.81c.15,8.07,10.17,10.6,15,4.6a2.77,2.77,0,0,1,4.23,0,9.17,9.17,0,0,0,7,3.33,1,1,0,0,0,0-2Z"></path><path d="M61.79,67.93a7.57,7.57,0,0,0-6.38.64A8.73,8.73,0,0,0,52,74.2a1,1,0,0,0,.73,1.11C58.89,77,62.07,73.16,62.52,69A1,1,0,0,0,61.79,67.93Zm-3.45,5a5.35,5.35,0,0,1-4.12.65,6.18,6.18,0,0,1,2.29-3.33,5.17,5.17,0,0,1,3.86-.59A5.63,5.63,0,0,1,58.34,72.93Z"></path><path d="M78.13,16.05a1,1,0,0,0-1.4-.72A39.17,39.17,0,0,0,62.94,25.64c-4.65,5.24-8.06,13.84-8.72,20.46a17.3,17.3,0,0,0-9.28,0,42.09,42.09,0,0,0-2-8.63A37.58,37.58,0,0,0,22.42,15.33a1,1,0,0,0-1.4.72,38.55,38.55,0,0,0-.28,9.78,1,1,0,0,0,2-.18,39.87,39.87,0,0,1,.07-7.91c13.92,6.6,20.68,21.05,20.39,33.45a1,1,0,0,0,2,.12,26,26,0,0,0-.06-3.17,15.26,15.26,0,0,1,8.88,0A27.4,27.4,0,0,0,54,51.31a1,1,0,0,0,2-.12,36.9,36.9,0,0,1,2.17-13,35.88,35.88,0,0,1,6.34-11.21,36.84,36.84,0,0,1,11.88-9.19c.92,6.7-.65,17.51-5.43,24.43a34.37,34.37,0,0,1-11.83,11,1,1,0,0,0-.36,1.37A1,1,0,0,0,60.1,55c.62-.36,1.22-.73,1.81-1.11a14.89,14.89,0,0,1,2.76,8.69V75.81a5.86,5.86,0,0,1-1.4,3.82,1,1,0,0,0,1.53,1.3,7.94,7.94,0,0,0,1.88-5.12V62.53a16.92,16.92,0,0,0-3.12-9.83,35.57,35.57,0,0,0,9-9.44c5.84-8.45,6.74-21.31,5.52-27.21Z"></path><path d="M74.52,22.35a1,1,0,0,0-1.28-1.55c-.3.25-7.4,6.18-11.27,13.56a35.61,35.61,0,0,0-4,15.41,1,1,0,0,0,1.51.86c5.44-3.15,8.43-7.46,11-11.61A1,1,0,0,0,68.77,38c-2.28,3.64-4.67,7.13-8.71,9.91.87-11.7,8.6-20.56,14.46-25.52Z"></path><path d="M25.91,20.8a1,1,0,0,0-1.28,1.55c5.95,5,13.6,13.9,14.47,25.52-4-2.78-6.44-6.27-8.71-9.91A1,1,0,0,0,28.68,39c2.6,4.15,5.59,8.46,11,11.61a1,1,0,0,0,1.51-.86c-.06-11.67-7.21-22.28-15.3-29Z"></path></g></svg>