<svg xmlns="http://www.w3.org/2000/svg" xmlns:xlink="http://www.w3.org/1999/xlink" xml:space="preserve" version="1.1"  viewBox="0 0 914 794" x="0px" y="0px" fill-rule="evenodd" clip-rule="evenodd"><defs></defs><g><path  d="M828 537c-20,11 -26,36 -15,55 11,20 36,26 55,15 20,-11 26,-36 15,-55 -11,-20 -36,-26 -55,-15zm-528 -39c17,0 17,25 0,25l-8 0c-17,0 -17,-25 0,-25l8 0zm-93 -381c17,0 17,25 0,25l-127 0c-17,0 -17,-25 0,-25l127 0zm-177 25c-17,0 -17,-25 0,-25l8 0c17,0 17,25 0,25l-8 0zm334 580c16,0 16,25 0,25l-127 0c-17,0 -17,-25 0,-25l127 0zm-212 25c-17,0 -17,-25 0,-25l9 0c16,0 16,25 0,25l-9 0zm72 -224c17,0 17,-25 0,-25l-127 0c-16,0 -16,25 0,25l127 0zm-211 -25c-17,0 -17,25 0,25l8 0c17,0 17,-25 0,-25l-8 0zm296 -458c17,0 17,-25 0,-25l-127 0c-17,0 -17,25 0,25l127 0zm-212 -25c-16,0 -16,25 0,25l9 0c16,0 16,-25 0,-25l-9 0zm315 76c15,-8 2,-30 -12,-22l-74 43c-14,8 -1,30 13,22l73 -43zm117 -67c15,-8 2,-30 -13,-22l-73 42c-14,9 -2,31 13,22l73 -42zm-150 145c15,-8 2,-30 -12,-22l-74 42c-14,9 -1,31 13,22l73 -42zm117 -67c15,-9 2,-31 -13,-22l-73 42c-14,8 -2,30 13,22l73 -42zm117 -68c14,-8 2,-30 -13,-22l-73 42c-15,9 -2,31 13,22l73 -42zm84 10c14,-8 1,-30 -13,-22l-73 43c-15,8 -2,30 12,22l74 -43zm-117 68c14,-9 2,-31 -13,-22l-73 42c-15,9 -2,31 13,22l73 -42zm-117 67c15,-8 2,-30 -13,-22l-73 43c-14,8 -2,30 13,22l73 -43zm-190 110c-14,8 -27,-14 -13,-22l74 -42c14,-9 27,13 12,22l-73 42zm-245 10c-15,8 -28,-14 -13,-22l92 -54 126 119 528 -308 46 303 -374 216 -1 1c-55,33 -6,120 52,87l0 0 367 -212c14,-8 27,14 12,22l-366 212 0 0c-37,21 -83,8 -104,-28 -18,-31 -12,-70 14,-94 -101,-95 -202,-191 -303,-286l-76 44zm225 62l176 165 351 -202 -39 -252 -488 289zm292 310c31,-18 72,-7 90,24 18,32 7,72 -24,90 -32,18 -72,8 -91,-24 -18,-31 -7,-72 25,-90zm12 22c-19,11 -26,36 -15,55 12,20 36,26 56,15 19,-11 26,-36 15,-55 -11,-20 -36,-26 -56,-15zm258 -178c32,-18 72,-8 90,24 18,31 7,72 -24,90 -32,18 -72,8 -90,-24 -18,-32 -8,-72 24,-90z"></path></g></svg>