<svg xmlns="http://www.w3.org/2000/svg" data-name="Layer 3" viewBox="0 0 64 64" x="0px" y="0px"><path d="M17.044,42H5a2,2,0,0,0,0,4H20.711A18.141,18.141,0,0,1,17.044,42Z"></path><path d="M33,20.051c-.331-.028-.662-.051-1-.051a11.981,11.981,0,0,0-9.727,5H33Z"></path><path d="M5,3.184A3,3,0,0,0,3,6V40.556A3.959,3.959,0,0,1,5,40Z"></path><path d="M13,33a1,1,0,0,0,1,1h.118A18.1,18.1,0,0,1,14,32,1,1,0,0,0,13,33Z"></path><path d="M14.464,36H14a3,3,0,0,1,0-6h.118a17.832,17.832,0,0,1,.6-3H12a1,1,0,0,1-1-1V10a1,1,0,0,1,1-1H34a1,1,0,0,1,1,1v4.271a17.853,17.853,0,0,1,4,1.146V4a1,1,0,0,0-1-1H7V40h8.9A17.809,17.809,0,0,1,14.464,36Z"></path><path d="M15.417,25A18.028,18.028,0,0,1,32,14c.338,0,.667.032,1,.051V11H13V25Z"></path><path d="M33,33a2,2,0,0,0-2-2H20.051c-.028.331-.051.662-.051,1a11.932,11.932,0,0,0,.395,3H31A2,2,0,0,0,33,33Z"></path><path d="M45.946,43.36a18.061,18.061,0,0,1-2.586,2.586L48,50.586,50.586,48Z"></path><path d="M32,44a11.925,11.925,0,0,0,6.619-2H25.381A11.925,11.925,0,0,0,32,44Z"></path><path d="M32,16A16,16,0,1,0,48,32,16.019,16.019,0,0,0,32,16Zm0,30A14,14,0,1,1,46,32,14.015,14.015,0,0,1,32,46Z"></path><path d="M60.05,55.464,53,48.414,48.414,53l7.051,7.05a3.242,3.242,0,1,0,4.585-4.586Z"></path><path d="M41,24.089V39.911a11.931,11.931,0,0,0,0-15.822Z"></path><path d="M35,26a1,1,0,0,1-1,1H21.105a11.9,11.9,0,0,0-.71,2H31a4,4,0,0,1,0,8H21.105a12.037,12.037,0,0,0,1.976,3H39V22.273A11.934,11.934,0,0,0,35,20.4Z"></path></svg>