<svg xmlns="http://www.w3.org/2000/svg" xmlns:xlink="http://www.w3.org/1999/xlink" version="1.1" x="0px" y="0px" viewBox="0 0 100 100" enable-background="new 0 0 100 100" xml:space="preserve"><path d="M93.908,97.167c1.273,0,2.307-1.03,2.307-2.306V37.65c0-1.273-1.032-2.305-2.307-2.305H79.746V18.868  c0-1.273-1.033-2.305-2.306-2.305h-7.13V7.306C70.311,6.033,69.279,5,68.004,5H31.551c-1.272,0-2.305,1.032-2.305,2.305v9.257  h-7.129c-1.273,0-2.305,1.032-2.305,2.305v16.477H5.488c-1.273,0-2.306,1.032-2.306,2.305v57.212c0,1.273,1.032,2.305,2.306,2.305   M19.812,92.559H7.793V39.955h12.019V92.559z M33.857,9.611h31.844v6.952H33.857V9.611z M57.877,92.061H41.681V81.199h16.196V92.061  z M74.974,92.559H62.486V78.895c0-1.272-1.031-2.306-2.305-2.306H39.376c-1.273,0-2.305,1.032-2.305,2.306v13.664H24.422V21.173  h50.713L74.974,92.559z M91.604,92.559H79.746V39.955h11.857V92.559z"></path><path d="M43.974,39.742c-0.054-0.145-0.118-0.287-0.196-0.422l0.442-0.448c0.666-0.674,0.658-1.759-0.015-2.424  c-0.675-0.665-1.76-0.657-2.425,0.016l-5.792,5.805c-1.065,1.079-1.054,2.815,0.025,3.879c0.535,0.528,1.23,0.791,1.927,0.791  c0.708,0,1.416-0.272,1.952-0.816l1.808-1.831l1.655,1.7l3.769-3.011L43.974,39.742z"></path><path d="M64.067,57.346l-4.338-12.148l0.503-0.503c0.45-0.45,0.45-1.18,0-1.63c-0.45-0.451-1.179-0.451-1.629,0l-0.843,0.843  l-9.711,0.018l-3.87,3.091v11.508c0,1.061,0.86,1.921,1.92,1.921s1.921-0.86,1.921-1.922v-5.062h9.776l1.925,5.427  c0.336,0.944,1.225,1.535,2.172,1.535c0.256,0,0.516-0.044,0.771-0.134C63.866,59.863,64.493,58.546,64.067,57.346z"></path></svg>