<svg xmlns="http://www.w3.org/2000/svg" xmlns:xlink="http://www.w3.org/1999/xlink" xml:space="preserve" version="1.1"  viewBox="0 0 711 722" x="0px" y="0px" fill-rule="evenodd" clip-rule="evenodd"><defs></defs><g><path  d="M388 248c17,15 22,41 10,62 -13,23 -43,31 -66,18 -24,-14 -32,-43 -18,-67 12,-20 37,-29 59,-21l28 -49 -173 -11 -204 354 283 164 204 -354 -95 -145 -28 49zm-24 42c-6,10 -21,1 -15,-9l15 -26c-13,-3 -28,2 -35,15 -9,15 -4,34 11,43 15,9 35,4 43,-12 8,-12 5,-27 -4,-37l-15 26zm47 -116l87 -151 0 0 0 -1c36,-51 116,-5 90,52l0 0c-31,68 64,122 108,62 6,-9 20,1 14,10 -56,77 -177,7 -138,-79l0 0c18,-38 -35,-69 -59,-36l-87 152 106 160 -219 379c-104,-61 -209,-121 -313,-181l218 -378 193 11zm-209 109c6,-10 21,-1 15,8l-129 224c-6,10 -21,1 -15,-8l129 -224zm219 126c5,-10 20,-1 15,9l-130 224c-5,9 -20,1 -14,-9l129 -224z"></path></g></svg>