<svg xmlns="http://www.w3.org/2000/svg" xmlns:xlink="http://www.w3.org/1999/xlink" version="1.1" x="0px" y="0px" viewBox="0 0 182.5 155.9" enable-background="new 0 0 182.5 155.9" xml:space="preserve"><path d="M182.4,73.6V64L152.6-0.1H28L0,64v10.1c0,5.6,4.5,10.1,10.1,10.1c1.5,0,2.9-0.3,4.2-0.9v71.6h76.1v-48h47.5v48h28.4V82.2  c1.7,1.3,3.8,2,6,2c5.6,0,10.1-4.5,10.1-10.1C182.5,73.9,182.4,73.7,182.4,73.6z M20.2,74.1v-6.6V64l20.5-49.1h15.9L40.7,64h-0.2  v3.6v6.6c0,5.6-4.5,10.1-10.1,10.1S20.2,79.7,20.2,74.1z M58.8,126.1H30.4V97.7h28.4V126.1z M81.3,64h-0.2v3.6v6.6  c0,5.6-4.5,10.1-10.1,10.1s-10.1-4.5-10.1-10.1v-6.6V64l7.9-49.1h16.4L81.3,64z M121.6,67.5v6.6c0,5.6-4.5,10.1-10.1,10.1  c-5.6,0-10.1-4.5-10.1-10.1v-6.6V64l-3.8-49.1h16.3l7.8,49.1V67.5z M162.2,74.1c0,5.6-4.5,10.1-10.1,10.1c-5.6,0-10.1-4.5-10.1-10.1  v-6.6V64l-15.7-49.1h15.7L162.2,64V74.1z"></path></svg>