<svg xmlns="http://www.w3.org/2000/svg" xmlns:xlink="http://www.w3.org/1999/xlink" version="1.1" x="0px" y="0px" viewBox="0 0 100 100" enable-background="new 0 0 100 100" xml:space="preserve"><path d="M91,10.5H10.2c-1.4,0-2.5,1.1-2.5,2.5v8.5c0,1.4,1.1,2.5,2.5,2.5h1.9V35v51.8c0,2,1.6,3.6,3.6,3.6h25.6h18.9h25.4  c2,0,3.6-1.6,3.6-3.6V31.6c0-0.4-0.1-0.8-0.2-1.2v-6.4H91c1.4,0,2.5-1.1,2.5-2.5V13C93.6,11.7,92.4,10.5,91,10.5z M87.7,35  c0,3.1-2.6,5.7-5.7,5.7c-3.1,0-5.7-2.6-5.7-5.7V24.2h11.4v6.3V35z M24.7,35c0,3.1-2.6,5.7-5.7,5.7s-5.7-2.6-5.7-5.7V24.2h11.4V35z   M37.3,35c0,3.1-2.6,5.7-5.7,5.7c-3.1,0-5.7-2.6-5.7-5.7V24.2h11.4V35z M49.9,35c0,3.1-2.6,5.7-5.7,5.7c-3.1,0-5.7-2.6-5.7-5.7V24.2  h11.4V35z M62.5,35c0,3.1-2.6,5.7-5.7,5.7s-5.7-2.6-5.7-5.7V24.2h11.4V35z M75.1,35c0,3.1-2.6,5.7-5.7,5.7c-3.1,0-5.7-2.6-5.7-5.7  V24.2h11.4V35z M13.8,39.5c0.1,0.1,0.1,0.1,0.2,0.2c0.1,0.1,0.2,0.2,0.3,0.4c0.1,0.1,0.1,0.1,0.2,0.2c0.1,0.1,0.3,0.2,0.4,0.3  c0.1,0,0.1,0.1,0.2,0.1c0.2,0.1,0.4,0.3,0.6,0.4c0,0,0.1,0,0.1,0.1c0.2,0.1,0.4,0.2,0.6,0.3c0.1,0,0.2,0.1,0.2,0.1  c0.2,0.1,0.3,0.1,0.5,0.2c0.1,0,0.2,0,0.3,0.1c0.2,0,0.4,0.1,0.5,0.1c0.1,0,0.2,0,0.2,0c0.3,0,0.5,0,0.8,0c2.8,0,5.2-1.7,6.3-4.1  c1.1,2.4,3.5,4.1,6.3,4.1c2.8,0,5.2-1.7,6.3-4.1c1.1,2.4,3.5,4.1,6.3,4.1c2.8,0,5.2-1.7,6.3-4.1c1.1,2.4,3.5,4.1,6.3,4.1  s5.2-1.7,6.3-4.1c1.1,2.4,3.5,4.1,6.3,4.1s5.2-1.7,6.3-4.1c1.1,2.4,3.5,4.1,6.3,4.1c0.3,0,0.6,0,0.8-0.1c0.1,0,0.2,0,0.2,0  c0.2,0,0.4-0.1,0.6-0.1c0.1,0,0.2,0,0.3-0.1c0.2-0.1,0.4-0.1,0.6-0.2c0,0,0.1,0,0.1,0c0.2-0.1,0.5-0.2,0.7-0.3  c0.1,0,0.1-0.1,0.2-0.1c0.2-0.1,0.3-0.2,0.5-0.3c0.1-0.1,0.1-0.1,0.2-0.2c0.2-0.1,0.3-0.2,0.4-0.4c0.1,0,0.1-0.1,0.2-0.1  c0.2-0.2,0.4-0.4,0.5-0.6c0-0.1,0.1-0.1,0.1-0.2c0.1-0.2,0.2-0.3,0.3-0.5c0,0,0-0.1,0.1-0.1v35.2H60.8V54.5c0-1.5-1.3-2.8-2.8-2.8  H43.5c-1.5,0-2.8,1.3-2.8,2.8v18.1H13.3V39c0,0,0.1,0.1,0.1,0.1C13.5,39.2,13.7,39.4,13.8,39.5z M13.3,86.8v-13h27.3v15.4h-25  C14.4,89.2,13.3,88.1,13.3,86.8z M41.9,89.2V54.5c0-0.9,0.7-1.6,1.6-1.6H58c0.9,0,1.6,0.7,1.6,1.6v34.7H41.9z M85.6,89.2H60.8V75  h27.1v11.8C87.9,88.1,86.9,89.2,85.6,89.2z M92.3,21.6c0,0.7-0.6,1.3-1.3,1.3H10.2c-0.7,0-1.3-0.6-1.3-1.3V13c0-0.7,0.6-1.3,1.3-1.3  H91c0.7,0,1.3,0.6,1.3,1.3V21.6z"></path></svg>