<svg xmlns="http://www.w3.org/2000/svg" viewBox="0 0 128 128" x="0px" y="0px"><g><path d="M59.511,62.989l-.02-.007-.149-.052a4.891,4.891,0,0,0-2.526-.286c-.924.11-1.932.41-3.065.67-1.132.241-2.16.4-3.052.69a4.243,4.243,0,0,0-1.139.533c-.091.052-.123.1-.182.131a1.531,1.531,0,0,0-.215.227l-.058.072-.013.013-.118.15-.227.3c-.287.371-.593.755-.788,1.041l-.175.228c-.046.078-.092.176-.144.26.254-.019.514-.045.755-.065.443-.052.846-.11,1.243-.175a7.4,7.4,0,0,1,.736-.378,8.625,8.625,0,0,1,1.145-.449c.234-.065.475-.137.729-.215.677-.2,2.291-.306,2.811.306a1.246,1.246,0,0,1,.274.56,1.993,1.993,0,0,1,0,.742c-.026.149-.052.306-.078.462l-.033.2c-.091.807.052,2.421.866,1.08a5.87,5.87,0,0,1,2-2.336c.436-.273.82-.5,1.126-.722a2.54,2.54,0,0,0,.638-.625,1.093,1.093,0,0,0,.156-.573,1.826,1.826,0,0,1-.02-.26c-.019-.085-.045-.176-.058-.241-.02-.143-.007-.228.045-.267s.15-.013.267.052a.816.816,0,0,1,.208.156c.072.085.157.2.248.326a1.743,1.743,0,0,1,.156,1.035.626.626,0,0,0,.065.026,6.4,6.4,0,0,1,1.633,1.477,2.457,2.457,0,0,1,1.061,2.1,4.369,4.369,0,0,1-.546,3.6c-.046.072-.1.137-.144.2,1.276.638,2.226,1.829,3.573,2.33a.858.858,0,0,1,.339.221c2.629.215,5.219.651,7.842,1.061.169.026.371.059.592.1a25.729,25.729,0,0,1,3.169-2.649c.007-.006.02-.006.026-.013-.026-1.106-.039-2.212-.039-3.325A9.985,9.985,0,0,1,73.3,65.383c-2.395.456-4.979-.032-7.36-.331-.456-.059-.905-.131-1.341-.215a7.729,7.729,0,0,0,1.119.514c.508.163.976.273,1.367.358.781.169,1.236.267,1.236.4,0,.117-.449.267-1.288.319a6.242,6.242,0,0,1-3.625-.807,7.625,7.625,0,0,1-.976-.7c-.313-.247-.631-.52-.95-.761-.332-.267-.651-.462-.964-.67a.147.147,0,0,1-.039-.026c-.143-.072-.292-.144-.436-.222a.855.855,0,0,1-.117-.052l-.319-.156L59.53,63ZM24.655,84.055a.032.032,0,0,0,.019.006l.059.026.24.1c.163.071.332.136.5.208l.482.156c.273.091.559.169.839.247a1.668,1.668,0,0,1,.4-.006,4.707,4.707,0,0,1,.781.189c.221.071.456.143.683.214l.17.046c.013.006.1.026.156.039.28.052.559.1.833.143.963.15,1.835.267,2.629.358a8.054,8.054,0,0,0,1.315-.065,11.077,11.077,0,0,0,1.509-.273,12.793,12.793,0,0,0,1.478-.54c.7-.3,1.464-.677,2.154-1.016a7.573,7.573,0,0,0,1.815-1.2l.183-.169.143-.189.137-.182a1.855,1.855,0,0,0,.13-.228,3.917,3.917,0,0,0,.2-.456,3.542,3.542,0,0,1,.169-.4,7.807,7.807,0,0,0-3.495.144,23.121,23.121,0,0,1-3.592.611,11.586,11.586,0,0,1-6.326-1,2.942,2.942,0,0,1-2.6.162,2.345,2.345,0,0,1-.645-.123,1.936,1.936,0,0,1-1.021-.775c-.248-.4-.156-.95-.547-1.282a1.6,1.6,0,0,1-.325-.351,1.99,1.99,0,0,1-.28-.677.147.147,0,0,1-.013-.052,1.535,1.535,0,0,1-.241.039,1.513,1.513,0,0,1-.241.006,15.473,15.473,0,0,0-.416,3.456A5.71,5.71,0,0,0,22.78,82.6a5.494,5.494,0,0,0,1.347,1.171,4.009,4.009,0,0,0,.4.221l.1.053Zm17.987-2.591a2.623,2.623,0,0,0-.156.371,4.751,4.751,0,0,1-.241.586c-.058.117-.1.176-.149.267s-.131.182-.2.273l-.208.274-.228.227a8.537,8.537,0,0,1-2.076,1.393c-.735.371-1.412.709-2.212,1.061a13.411,13.411,0,0,1-1.627.579,11.457,11.457,0,0,1-1.679.3,11.709,11.709,0,0,1-1.66.065c-.54-.052-1.08-.071-1.607-.175-.261-.046-.521-.1-.781-.143l-.723-.176-.182-.046c-.67-.091-1.366-.214-2.089-.384a1.06,1.06,0,0,1,.013.183l.033.169v.039c0-.046-.026,0-.026,0l-.007.065.039.254a19.371,19.371,0,0,0,1.178,2.167,3.847,3.847,0,0,1,.215.7l.032.287a1.452,1.452,0,0,1-.006.377,3.224,3.224,0,0,1-.41,1.191c-.631,1.093-1.36,1.881-1.79,2.616.417.84.84,1.692,1.243,2.558.111.24.228.481.339.729.058-.274.117-.534.175-.755.2-.671.384-1.081.534-1.061s.234.462.234,1.165-.065,1.627-.026,2.6c.28.58.573,1.165.866,1.758.254.273.54.618.852,1.008a8.909,8.909,0,0,0,1.718,1.757c.189.118.384.235.58.358l.689.384a6.033,6.033,0,0,0,.664.306c.013.007.033.007.046.013.117-.058.247-.123.41-.189.11-.052.221-.1.332-.149.032-.039.065-.078.1-.124a3.105,3.105,0,0,1,.567-.579,4.039,4.039,0,0,1,.807-.43l.071-.032.02-.007.032-.019.169-.1.293-.209a4.01,4.01,0,0,1,.84-.488,1.259,1.259,0,0,1-.163-.169l-.032-.032-.02-.02c-.007-.013-.059-.072-.059-.072s-.065-.123-.065-.123c-.039-.085-.078-.156-.11-.241a1.56,1.56,0,0,1-.072-.508,2.363,2.363,0,0,1,.046-.338,5.481,5.481,0,0,0-.371.456c-.222.312-.339.559-.41.527s-.111-.254.039-.716a2.916,2.916,0,0,1,.371-.749,2.543,2.543,0,0,1,.839-.826l.553-.325v.689c0,.352-.169.729-.149,1.1.019.462.293.664.651.879a8.053,8.053,0,0,0,1.483.546,5.041,5.041,0,0,0,1.055.183.077.077,0,0,0,.039-.007.605.605,0,0,0,.1-.006.413.413,0,0,0,.208-.072,4.8,4.8,0,0,0,1.8-1.816,3.7,3.7,0,0,0,.254-.514l.039-.123.046-.157a1.727,1.727,0,0,0,.065-.26.821.821,0,0,0-.15-.748l-.495-.671.755-.045a3.444,3.444,0,0,1,1.549.286,4.131,4.131,0,0,1,1,.547c.514.371.67.735.605.774-.078.059-.325-.143-.846-.351a5.528,5.528,0,0,0-.97-.306c-.162-.039-.351-.072-.54-.1a1.67,1.67,0,0,1,.052.619,2.081,2.081,0,0,1,.384-.189,1.385,1.385,0,0,1,.593-.065,1.869,1.869,0,0,1,.527.162c.306.144.52.287.755.4.117.039.234.1.344.143a1.214,1.214,0,0,0,.2.059c.045.006.084.019.136.026a.805.805,0,0,0,.528-.117,2.568,2.568,0,0,0,.787-1.328,24.268,24.268,0,0,0,.677-3.6c.026-.15.052-.3.078-.442l.026-.111L49.8,94.6l.052-.2c.072-.267.143-.521.208-.774.046-.163.091-.319.137-.475-.007-.489-.007-1.061-.013-1.705-.085-.515-.176-1.12-.28-1.81a27.7,27.7,0,0,0-1.243-4.015c-.071-.1-.15-.2-.215-.286q-.293-.3-.585-.625c-.1-.085-.2-.169-.287-.26-1-.619-1.985-1.25-2.928-1.933a9.885,9.885,0,0,0-1.757-1.042,1.033,1.033,0,0,0-.183-.019.238.238,0,0,1-.058.006ZM53.556,67.088H53.5c-.13,0-.26,0-.39.007-.247.007-.508,0-.729.02s-.41.052-.6.071l-.143.02a21.484,21.484,0,0,1-2.538.859,3.11,3.11,0,0,1,.273.169,2.481,2.481,0,0,1,.482,3.84c.6.2,1.2.41,1.8.605.254.078.494.162.742.241a39.382,39.382,0,0,1,5.8-1.94,13.032,13.032,0,0,0,3.052-1.074c1.757-1.028.052-2.622-1.223-2.739a.385.385,0,0,1-.124-.033c-.286.28-.6.547-.911.807-.189.156-.39.319-.547.475l-.032.033-.033.032-.032.039-.072.072c-.019.026-.006.032-.019.045l-.117.222c-.319.605-.469,1.431-1.061,1.828a3.972,3.972,0,0,1-2.252.612c-.729-.124-1.243-1.009-1.373-1.666a4,4,0,0,1-.091-1.191c.006-.169.026-.384.045-.521l.046-.286.058-.247c.02-.1.046-.2.072-.3Zm66.823-13.933A35.675,35.675,0,0,1,124,69.548c-.032,2.87.124,6.066-.592,8.871a39.616,39.616,0,0,0-1.536,9.742c-.071,6.833.6,13.907-.859,20.65-.306,1.4-.423,3.553-1.666,4.51-.878.676-3.351.572-4.367.533-6.546-.221-13.093.052-19.647-.123-5.232-.137-11.265,1.132-16.315-.56-4.36,1.471-9.326.442-13.829.527-6.294.117-12.489-.644-18.769-.729a6.248,6.248,0,0,1-4.575,1.562.7.7,0,0,1-.111.013c-4.627-.033-9.254.124-13.881.163-.039.214-2.057.306-4.835-.02-.228,0-.45-.006-.671-.006-3.319-.078-6.638-.144-9.95-.313-2.564-.13-5.3.176-7.81-.4a.807.807,0,0,1-.084-1.523c1.614-1.535,2.772-3.6,4.275-5.251s3.007-3.254,4.588-4.8a42.015,42.015,0,0,1,9.443-7.452c-1.7-2.245-2.727-5.278-.865-6.007a18.683,18.683,0,0,1-1.126-11.8,1.117,1.117,0,0,1-.13-.117c-.085-.1-.17-.222-.248-.339a2.4,2.4,0,0,1-.214-1.666,8.417,8.417,0,0,1,1.2-2.538,19.34,19.34,0,0,1,1.386-2.219,4.541,4.541,0,0,1,.436-.495c.078-.078.15-.156.228-.228s.2-.162.286-.234.2-.15.287-.2.149-.078.221-.111c.111-.052.215-.1.319-.149a.174.174,0,0,1,.058-.013c.7-1.679,2.441-2.63,4.068-3.424.26-1.854.651-3.7.846-5.557a5.319,5.319,0,0,1,.664-2.551c1.048-1.413,2.6-1.3,4.191-1.087a.648.648,0,0,1,.573.833.886.886,0,0,1,.026.2,27.573,27.573,0,0,1-.892,8.252c.742.279,1.471.6,2.187.95a2.628,2.628,0,0,1,1.086-1.276,2.381,2.381,0,0,1,2.473-.1c1.185.833,1.439,2.362,1.484,3.742a1.8,1.8,0,0,0,.189.084,33.715,33.715,0,0,1,4.276-1.249.491.491,0,0,1-.013-.085,1.874,1.874,0,0,1,.1-.6c.052-.143.071-.208.143-.371l.137-.3c.052-.1.091-.2.149-.306l.2-.338c.28-.482.553-.846.827-1.25l.2-.293.1-.143.1-.13.059-.072a2.067,2.067,0,0,1,.279-.318,2.651,2.651,0,0,1,.4-.345,5.727,5.727,0,0,1,1.608-.833,24.558,24.558,0,0,1,3.247-.781,27.54,27.54,0,0,1,3.267-.671A6.406,6.406,0,0,1,60,61.342l.189.078.019.007.059.032.039.02.084.039.306.175a4.119,4.119,0,0,1,.618.365c.013.006.02.013.026.013a15.61,15.61,0,0,0,5.539,1.445c2.16.208,4.412.748,6.553.182a1.525,1.525,0,0,1,.176-.026c1.978-3.215,4.432-6.1,6.4-9.319-.052-.033-.1-.066-.144-.092a2.628,2.628,0,0,1-.9-.833c-.019-.039-.026-.078-.045-.11a.719.719,0,0,1-.293-.3,4.209,4.209,0,0,1-.384-.963c-3.124,1.816-4.041-1.087-4.113-4.087-.059-2.473-2.6-2.9-3.625-4.874a32.225,32.225,0,0,1-2.245-7.126c-.124-.078-.241-.15-.365-.235l-.1-.052c0-.006-.013,0-.039-.006s-.052-.013-.11-.02l-.183-.019c-.162-.02-.332-.033-.5-.052a4.128,4.128,0,0,1-.657-.176,2.857,2.857,0,0,1-1.158-.839,2.481,2.481,0,0,1-.612-1.523,2.1,2.1,0,0,1,.4-1.25l-.13-.13a4.526,4.526,0,0,1-.423-.794c-.046-.163-.085-.325-.118-.5a4.34,4.34,0,0,1,.554-3.176,3.57,3.57,0,0,1,.976-1.061,1.57,1.57,0,0,1-.039-.175,2.74,2.74,0,0,1,.176-1.347A3.969,3.969,0,0,1,67.2,22.926a4.285,4.285,0,0,1,2.531-.989,2.037,2.037,0,0,1,.117-.261,1.6,1.6,0,0,1,.3-.416c.013-.137.026-.267.045-.423a5.639,5.639,0,0,1,.553-1.464,2.917,2.917,0,0,1,.664-.833q.215-.166.449-.352c.156-.117.339-.2.514-.312a5.731,5.731,0,0,1,1.217-.469c.189-.052.391-.1.593-.143a.251.251,0,0,0,.065-.045l.032-.033.072-.085c.214-.266.52-.735.891-1.151a5.1,5.1,0,0,1,1.5-1.172l.521-.2a5.124,5.124,0,0,1,.572-.1,2.5,2.5,0,0,1,.586,0,2.049,2.049,0,0,1,.631.1c.384.117.651.241.925.338a2.859,2.859,0,0,0,.325.1.108.108,0,0,0,.045,0,.1.1,0,0,0,.027-.02.214.214,0,0,1,.026-.071,2.119,2.119,0,0,1,.377-.605,2.469,2.469,0,0,1,.508-.508,2.59,2.59,0,0,1,1.444-.54,4.058,4.058,0,0,1,.7.026c.195.032.43.065.6.11.4.1.7.157,1.12.287a6.3,6.3,0,0,1,1.23.488,5.322,5.322,0,0,1,1.178.859c.11.117.195.215.26.3.039-.013.072-.045.111-.058a1.294,1.294,0,0,1,.872.026,3.378,3.378,0,0,1,.82.5l.4.358a4.147,4.147,0,0,1,.93,1.106,2.516,2.516,0,0,1,.306.963c2.786,1.159,4.1,3.775,4.907,6.755.983,3.606,2.044,7.914,4.334,11.129,1.868-.508,3.886-.885,5.74-.091,1.823.781,1.816,2.323,2.9,3.787,1.894,2.578,4.888,4.244,6.912,6.782A36.523,36.523,0,0,1,120.379,53.155Zm1.9,19.726c.228-5.409.065-11.1-2.05-16.166a37.54,37.54,0,0,0-2.5-4.92,11.371,11.371,0,0,0-2.512-1.23,13.325,13.325,0,0,0-3.013-.488c-.58-.039-1.185-.046-1.816-.026l-.247.006-.215.026c-.163.02-.319.033-.482.052-.319.046-.651.059-.976.124a42.8,42.8,0,0,0-6.651,1.965c-1.718.6-2.811.847-2.863.71s.95-.657,2.57-1.432a26.872,26.872,0,0,1,6.762-2.323c.351-.072.7-.085,1.048-.13.169-.013.345-.033.514-.052a2.64,2.64,0,0,1,.273-.02l.241-.006a16.494,16.494,0,0,1,1.926.1,11.554,11.554,0,0,1,3.189.762,5.418,5.418,0,0,1,1.731,1.112,31.145,31.145,0,0,0-6.872-7.7c-.208-.17-.41-.332-.6-.495a14.787,14.787,0,0,1-2.408,3.326,7.049,7.049,0,0,1,1.067-.163,5.306,5.306,0,0,1,1.673.15c.931.253,1.386.65,1.334.774-.071.15-.612.026-1.451-.007a7.81,7.81,0,0,0-1.451.092,11.179,11.179,0,0,0-1.738.442c-.547.2-1.054.41-1.536.625A50.444,50.444,0,0,1,94.6,53.949a6.741,6.741,0,0,1-.71,1.991c-1.171,2.031-3.078,4.419-5.544,4.875-1.478.273-4.243.247-4.751-1.666-.332-1.23-.469-1.933-1.458-2.642a22.15,22.15,0,0,1-.742,2.824c-.247.989-.468,1.978-.657,2.974A33.61,33.61,0,0,0,80.16,67c-.149,3.456-.039,6.905-.006,10.36h.1a3.036,3.036,0,0,0,.541-.123,6.237,6.237,0,0,0,2.876-2.688c.911-1.373,1.647-2.733,2.291-3.67s1.158-1.445,1.275-1.354-.156.716-.6,1.738a30.131,30.131,0,0,1-1.595,3.156,10.554,10.554,0,0,1,1.347-1.406c1.23-1.048,2.89-1.653,3.951-2.9a1.114,1.114,0,0,0,.078-.1.644.644,0,0,1,.267-.325c.872-1.061,1.718-2.181,2.57-3.261,3.95-5.03,4.51-12.157,11.714-13.634,4.354-.891,10.992-1.171,14.116,2.538,3.534,4.2,2.486,11.467-.2,15.71-2.109,3.332-4.276,6.554-6.495,9.814-1.4,2.05-2.525,4.725-4.445,6.352-2.454,2.082-6.924,1.8-9.443-.26-.234.234-.527.494-.853.82s-.7.728-1.112,1.151-.879.905-1.374,1.413-1.054,1-1.633,1.536c-.625.553-1.243,1.041-1.913,1.594s-1.341,1.113-2.044,1.692a66.612,66.612,0,0,1-7.549,5.545c-.514.306-.983.585-1.4.82-.423.214-.794.39-1.1.533-.6.28-.963.4-1,.339s.241-.313.781-.71c.274-.195.605-.429,1-.7.378-.273.814-.592,1.289-.937,1.92-1.38,4.477-3.423,7.276-5.74.709-.573,1.4-1.132,2.063-1.679.664-.527,1.347-1.054,1.926-1.523.592-.521,1.185-.983,1.692-1.458.234-.208.456-.416.677-.611a30.353,30.353,0,0,1-3.007,1.666c-3.26,1.561-5.707,2.844-8.252,5.46-1.5,1.549-3.7.781-5.564-.013-.56,3.976-1.191,7.939-1.666,11.929a35.9,35.9,0,0,1,3.143,3.475,34.405,34.405,0,0,1,3.821-2.7c1.373-.839,2.6-1.523,3.611-2.095A21.689,21.689,0,0,1,90.573,105a13.255,13.255,0,0,1-2.922,2.284c-.97.638-2.148,1.406-3.482,2.284A39.649,39.649,0,0,0,80.9,112a22.246,22.246,0,0,0,4.907.384,15.226,15.226,0,0,0,2.076-.6,21.175,21.175,0,0,0,3.859-1.861,29.888,29.888,0,0,0,3.306-2.3,39.532,39.532,0,0,0,4.965-4.725c2.6-2.928,3.82-5.063,3.983-4.965a4.752,4.752,0,0,1-.716,1.575,28.465,28.465,0,0,1-2.674,3.891,34.907,34.907,0,0,1-4.92,5.012,28.575,28.575,0,0,1-3.385,2.433,22.335,22.335,0,0,1-2.57,1.374c1.5-.091,2.974-.17,4.393-.137.6.02,1.2.026,1.8.033a11.571,11.571,0,0,0,3.5-2.252c.241-.215.475-.423.7-.625s.423-.423.625-.618c.4-.391.749-.781,1.074-1.113a12.933,12.933,0,0,1,2.1-2.089,11.547,11.547,0,0,1-1.7,2.434c-.3.371-.618.781-1.008,1.21-.189.215-.391.436-.6.664s-.449.449-.683.69a17.6,17.6,0,0,1-1.985,1.653c.319-.007.638-.013.963-.026,1,0,2.05.019,3.1,0q1.611-.039,3.3-.065c.566-.007,1.139-.02,1.712-.026a7.365,7.365,0,0,1,.917.019c.261.026.528.052.794.085.781,0,1.562.013,2.35.026a.022.022,0,0,0,.019.007l.111-.053.247-.1a.458.458,0,0,0,.052-.039l.091-.071a.475.475,0,0,0,.157-.143,2.27,2.27,0,0,0,.462-.807c.117-.339.214-.677.345-1.081.065-.2.136-.358.2-.54l.013-.032.033-.079.032-.065.065-.123.131-.241c.331-.657.657-1.3.976-1.92a47.256,47.256,0,0,0,2.87-6.807,20.335,20.335,0,0,0,.989-4.849c.019-.292.032-.553.046-.774s.006-.423.006-.579c.007-.319.026-.482.065-.488s.091.162.156.468c.026.15.072.339.1.573s.039.5.058.807a16.911,16.911,0,0,1-.67,5.057,41.433,41.433,0,0,1-2.714,7.035c-.305.631-.624,1.282-.95,1.945l-.221.45c-.059.175-.137.357-.182.52-.1.306-.2.7-.332,1.087a4.479,4.479,0,0,1-.449.905,24.068,24.068,0,0,0,5.33-.2c1.373-.247,1.737-5.818,1.835-6.8.56-5.649.182-11.3.3-16.966.052-2.356-.091-4.952.684-7.224A27.524,27.524,0,0,0,122.279,72.881Zm-10.048,5.408c3.729-5.135,8.538-11.109,7.165-17.858-.82-4.015-3.013-6.293-7.184-6.306-2.467-.013-5.324-.274-7.712.429-3.931,1.159-5.4,4.445-6.983,7.862-.28.6-.579,1.171-.885,1.731.293-.358.6-.729.937-1.139a18.951,18.951,0,0,1,4.022-3.709,20.9,20.9,0,0,1,4.855-2.552c.813-.234,1.568-.514,2.3-.663.742-.131,1.419-.293,2.057-.352.638-.039,1.217-.078,1.724-.11s.925.032,1.276.045c.7.052,1.087.117,1.087.2s-.384.157-1.08.235c-.345.045-.781.058-1.263.136s-1.028.17-1.627.267-1.249.306-1.946.469-1.406.475-2.173.722a22.644,22.644,0,0,0-4.582,2.506,21.157,21.157,0,0,0-2.128,1.679l-.254.214c-.032.026-.1.085-.1.085l-.117.117c-.15.163-.306.319-.456.469-.312.312-.585.618-.846.924-.507.586-1.034,1.191-1.562,1.718.059-.033.111-.059.163-.085.332-.136.664-.279,1.009-.416.345-.117.7-.241,1.048-.358.7-.247,1.457-.462,2.225-.677s1.491-.436,2.2-.638c.683-.247,1.347-.488,1.959-.722a9.391,9.391,0,0,0,1.646-.866c.5-.312.937-.644,1.341-.956,1.594-1.282,2.616-2.1,2.727-1.972.084.1-.716,1.087-2.219,2.557a13.34,13.34,0,0,1-1.328,1.12,10.022,10.022,0,0,1-1.738,1.035c-.65.286-1.334.553-2.05.826-.716.215-1.483.462-2.225.67s-1.491.4-2.2.645c-.351.11-.7.214-1.035.319l-.95.357a12.883,12.883,0,0,0-3.02,1.764c-.273.215-.52.417-.755.612q-.516.644-1.015,1.21a26.823,26.823,0,0,1,5.1,1.458c1.7-.475,3.788-1.126,6.007-1.939,5.557-2.122,9.963-4.191,10.113-3.885.124.234-4.074,2.752-9.729,4.913a45.12,45.12,0,0,1-4.992,1.516,25.457,25.457,0,0,1,4.809,2.877,31.181,31.181,0,0,0,3.729-1.367,50.947,50.947,0,0,0,5.467-3.02c1.373-.872,2.252-1.386,2.343-1.262s-.618.852-1.881,1.887a27.1,27.1,0,0,1-5.479,3.4,20.627,20.627,0,0,1-3.209,1.126,23.252,23.252,0,0,1,5.174,6.144C110.715,80.527,111.437,79.382,112.231,78.289Zm-4.894,7.2c.586-.729,1.126-1.5,1.647-2.271a22.006,22.006,0,0,0-6.222-7.243c-.345.058-.67.11-.976.143-1.647.124-2.668.065-2.675-.078,0-.163,1-.371,2.551-.69l.163-.039a24.62,24.62,0,0,0-5.662-2.87,7.6,7.6,0,0,1-2.831.1c-.019-.117.547-.286,1.51-.527a23.614,23.614,0,0,0-3.657-.768,24.078,24.078,0,0,1-2.33,1.972c3.547.436,6.579,2.824,9.417,4.939,3.156,2.356,6.1,4.686,8.128,8.122l.007.007A3.527,3.527,0,0,0,107.337,85.486Zm1.2-43.941a10.7,10.7,0,0,1-1.4-2.122,34.585,34.585,0,0,1-6.182,5.2C98,46.738,96.092,48.593,95.22,51.88,100.257,49.576,106.12,46.556,108.535,41.545Zm-3.957-1.822a18.783,18.783,0,0,0,1.607-1.7c-1.171-1.061-2.9-.9-4.542-.514a10.483,10.483,0,0,0,2.844,2.154C104.519,39.684,104.545,39.7,104.578,39.723ZM99.808,85.89a6.892,6.892,0,0,0,5.05,1,18.272,18.272,0,0,0-2.317-2.993.006.006,0,0,0-.007.006C101.63,84.543,100.725,85.219,99.808,85.89Zm3.462-45.041a13.809,13.809,0,0,1-5.109-5.486,4.3,4.3,0,0,1-3.4,1.334c.241,2.512-.722,5.356-2.779,6.41A14.606,14.606,0,0,1,95.8,46.882a13.325,13.325,0,0,1,2.2-2.09C99.749,43.452,101.578,42.228,103.27,40.849Zm-1.9,41.884a57.228,57.228,0,0,0-4.64-3.709c-2.876-2.148-5.993-4.523-9.761-4.217-1.172,1.256-2.044,2.746-3.534,3.677-1.79,1.113-5.024.267-6.931-.007-3.3-.468-6.606-1.21-9.938-1.386-3-.156-5.863.111-8.779-.781-2.98-.9-5.961-1.822-8.9-2.85-3.143-1.1-6.3-2.239-9.332-3.638-2.486-1.146-4.816-2.629-7.5-3.293a4.026,4.026,0,0,0-3.13.41,6.4,6.4,0,0,0-2.519,1.991,1.029,1.029,0,0,1,.1.033c.306.136.5.267.494.4s-.182.267-.533.365c-.183.052-.41.1-.632.162a.745.745,0,0,1-.442.163c-.033.02-.065.026-.091.046l-.124.078c-.1.058.078-.039.065-.033s-.058.052-.058.052l-.1.078c-.059.052-.124.1-.189.157a1.489,1.489,0,0,0-.1.143l-.1.123-.131.189a4.137,4.137,0,0,0-.26.41c-.358.586-.69,1.347-1.178,2.18-.234.378-.468.742-.69,1.1a4.968,4.968,0,0,0-.442.872,1.125,1.125,0,0,0-.085.5.339.339,0,0,1,.026.1.521.521,0,0,1,.065.1c.033.065.163.163.163.2a2.078,2.078,0,0,0,.573.345,2.294,2.294,0,0,1,.052-.514,5.211,5.211,0,0,1,1.744-3.014c.683-.566,1.171-.716,1.367-.553s-.007.71-.332,1.373a9.7,9.7,0,0,0-.938,2.493,4.65,4.65,0,0,0-.058.657v.046c.085-.117.163-.228.234-.332s.143-.195.208-.287l.046-.058a.047.047,0,0,0-.007.019l.013-.019.02-.046.1-.169c.253-.455.533-.865.735-1.178.4-.625.787-1.015,1.041-.95s.306.592.176,1.458a8.191,8.191,0,0,1-.377,1.36l-.066.189-.019.045-.007.026-.032.065-.059.124c-.084.169-.156.286-.234.423-.338.547-1.223,1.562-.176,1.77.872.176,1.712-.9,2.421-.468,5.083,3.078,10.654-2.154,15.385.924,2.928,1.9,5.584,3.937,8.805,5.4,3.443,1.562,7.009,3.111,10.582,4.373,3,1.061,6.111,1.712,9.176,2.551-.072-.058-.156-.117-.221-.176-.768-.637-1.185-1.1-1.107-1.223s.671.111,1.543.586a31.575,31.575,0,0,0,3.345,1.685,7.893,7.893,0,0,0,3.521.508c.93-.1,1.535-.254,1.6-.091.052.117-.443.533-1.452.852a7.313,7.313,0,0,1-.813.169,11.906,11.906,0,0,0,1.139.371c2.805.768,3.52-1.151,5.076-2.512,2.291-2,5.551-2.733,8.122-4.327C96.053,86.515,98.721,84.64,101.369,82.733ZM97.38,33.788c-.143-.326-.286-.658-.416-.99-.684-1.789-1.165-4.223-1.881-6.533a2.97,2.97,0,0,1-.814,1.054,2.043,2.043,0,0,1,.235.586,1.681,1.681,0,0,1-.241,1.236,3.011,3.011,0,0,1-1.373,1.074c-.859.351-1.426.351-1.465.228-.052-.15.43-.41,1.094-.885a2.913,2.913,0,0,0,.885-.918.684.684,0,0,0,.058-.5,1.675,1.675,0,0,0-.364-.579l-.436-.521.6-.345.2-.117a2.361,2.361,0,0,0,.892-1.282,3.329,3.329,0,0,0,.143-.729c-.084-.221-.176-.436-.267-.657a4.057,4.057,0,0,1-1.158,2.16,3.127,3.127,0,0,1-1.471.788,3.2,3.2,0,0,1-.429.071l-.215.013H90.95l-.032.007.013.039V27l-.013.052-.026.1a2.129,2.129,0,0,1-.124.43,4.455,4.455,0,0,1-.95,1.607A3.983,3.983,0,0,1,88.054,30.3a3.853,3.853,0,0,1-1.893.065,3.847,3.847,0,0,1-.358.254,3.572,3.572,0,0,1-2.057.6c-.182-.013-.384-.013-.56-.033-.156-.019-.312-.032-.475-.052-.123-.006-.162-.019-.162.013a.176.176,0,0,1,.006.052.326.326,0,0,0-.013.046,1.58,1.58,0,0,1-.1.221,2.494,2.494,0,0,1-.287.384,3.25,3.25,0,0,1-1.36.833,6.811,6.811,0,0,1-1.393.378c-.13.019-.273.026-.41.039a1.412,1.412,0,0,1-.169.006c.69,1.647.378,3.43.4,5.207a28.046,28.046,0,0,1,3.612-.736,13.321,13.321,0,0,1-.918-1.08,1.361,1.361,0,0,1-.338.1,1.165,1.165,0,0,1-.833-.2,1.674,1.674,0,0,1-.631-.943,1.462,1.462,0,0,1-.026-.684c.039-.149.1-.221.149-.221s.1.078.163.208c.065.111.143.28.267.462a1.154,1.154,0,0,0,.5.469c.189.072.293.019.514-.2l.339-.326.364.339c.514.475.963,1.093,1.451,1.523a2.981,2.981,0,0,0,.827.481,6.092,6.092,0,0,1,2.479.625c.15-1.777.469-3.566,1.9-4.77a3.211,3.211,0,0,1,4.555.221,4.914,4.914,0,0,1,.8,1.464,3.6,3.6,0,0,0,1.685-.11A3.347,3.347,0,0,0,97.38,33.788ZM94.432,47.565c.007-.046.026-.078.033-.124-1-1.581-3.053-2.857-4.3-4.048-.631-.605-1.3-1.191-1.9-1.828a33.54,33.54,0,0,1,.084,5.3c.007.046.013.091.02.143l.045.26s.039.118.059.17a2.68,2.68,0,0,0,.195.436c.078.162.189.358.267.533l.124.267.013.039c.006.013.026.072.026.072s.032.091.032.091l.039.163a5.143,5.143,0,0,1,.111,1.815,1.638,1.638,0,0,1-.605,1.165,1.028,1.028,0,0,1-.345.156.742.742,0,0,1-.313.026,1.107,1.107,0,0,1-.325.762.617.617,0,0,1-.345.169c-.078.007-.13,0-.15-.032s-.006-.085.033-.15a.844.844,0,0,0,.13-.247,1.018,1.018,0,0,0-.111-.84l-.364-.657.839.149c.2.033.371.007.4-.058a.906.906,0,0,0,.15-.553A4.157,4.157,0,0,0,87.95,48.9c-.527,1.477-1.49,2.219-2.668,3.488.078,1.621-1.184,2.382-2.577,2.688.592.325,1.451.436,1.829,1.067a3.317,3.317,0,0,1,.312,1.575,1.685,1.685,0,0,0,1.048,1.647,1.611,1.611,0,0,1-.039-.254A2.6,2.6,0,0,1,86.024,58c.475-1.23,1.269-1.613,1.334-1.49.1.117-.384.657-.586,1.7-.254,1.275,1.185,1.867,1.744.644a4.275,4.275,0,0,0,.2-1.887l-.065-1.178.8.664c.592.481,1.041-.814,1.2-1.445.189-.7.286-1.139.41-1.139s.241.449.221,1.236A4.171,4.171,0,0,1,91,56.539a1.62,1.62,0,0,1-.69.833,1.092,1.092,0,0,1-.514.15,4.471,4.471,0,0,1-.052,1,8.429,8.429,0,0,0,3.534-5.584c-.131.046-.267.091-.4.124-.157.02-.306.033-.449.046a2.239,2.239,0,0,1-1.256-.378c-.241-.2-.319-.351-.274-.41s.215-.032.449.02a3.1,3.1,0,0,0,1.009-.007,1.182,1.182,0,0,0,.755-2.03A6.787,6.787,0,0,0,91.185,48.9l-.7-.378.592-.436a1.121,1.121,0,0,0,.437-.624.822.822,0,0,0-.072-.579,2.113,2.113,0,0,1-.137-.189c-.045-.065-.143-.1-.188-.143-.111-.085-.163-.157-.144-.2s.1-.078.241-.085a.773.773,0,0,1,.254.026,1.91,1.91,0,0,1,.384.209,1.329,1.329,0,0,1,.449,1.028,1.77,1.77,0,0,1-.189.729A5.629,5.629,0,0,1,93.95,49.6c.027.026.046.065.072.091A9.639,9.639,0,0,0,94.432,47.565Zm-3.4-5.629c2.4-.768,2.773-5.005,1.719-6.957-.853-1.588-2.87-1.048-3.554.494a12.475,12.475,0,0,0-.7,4.159c0,.019-.013.032-.013.052a10.887,10.887,0,0,0,2.252,2.427A.72.72,0,0,1,91.028,41.936Zm1.679-18.522a2.562,2.562,0,0,0-.286-2.291,3.54,3.54,0,0,0-.364-.423,5.375,5.375,0,0,0-2.395-1.269c-1.256-.3.149-1.776-.749-2.369-.6-.4-.442.254-.93.4a1.162,1.162,0,0,1-.4-.013.274.274,0,0,1-.072-.019,1.8,1.8,0,0,0-.182-.065.752.752,0,0,0,.182.065,1.893,1.893,0,0,1-.983-.6c-.2-.221-.3-.371-.357-.436a4.077,4.077,0,0,0-.7-.514,5.149,5.149,0,0,0-.866-.351c-.286-.1-.7-.189-1-.267-.169-.046-.292-.059-.436-.091a2.106,2.106,0,0,0-.338-.02.6.6,0,0,0-.234.046.45.45,0,0,0-.2.1c-.072.019-.124.123-.189.182a.439.439,0,0,0-.143.2c-.039.065-.111.267-.182.377-.013.02-.026.033-.039.052a1.654,1.654,0,0,1,.755.54,1.23,1.23,0,0,1,.065.124,2.79,2.79,0,0,1,1.484-.143,2.324,2.324,0,0,1,1.464.82,1,1,0,0,1,.182.69.916.916,0,0,1-.182.462c-.176.182-.286.241-.332.2s-.02-.169.033-.351a.606.606,0,0,0-.183-.6,1.945,1.945,0,0,0-1.087-.365,1.69,1.69,0,0,0-1.275.41l-.729.84-.156-1.152a.524.524,0,0,0-.4-.462,1.466,1.466,0,0,0-.937.059.8.8,0,0,0-.52,1.138l.325.918-.905-.2a2.464,2.464,0,0,0-.852-.058.58.58,0,0,0-.41.2c-.039.052,0,.241.137.4a2.274,2.274,0,0,0,.442.43l.417.332-.378.182c-.709.345-1.132.586-1.2.488-.052-.065.111-.319.475-.67a1.986,1.986,0,0,1-.312-.241,1.254,1.254,0,0,1-.43-1.132,1.189,1.189,0,0,1,.43-.645,1.745,1.745,0,0,1,.625-.286,2.2,2.2,0,0,1,.507-.065A1.588,1.588,0,0,1,79,17.238a1.672,1.672,0,0,1,.429-.618c-.032-.013-.065-.026-.091-.039-.325-.124-.618-.261-.813-.332a1.968,1.968,0,0,0-.547-.059l-.28.033c-.091.032-.182.065-.273.091a3.439,3.439,0,0,0-1.015.735c-.326.319-.553.651-.944,1.074l-.163.163a2.108,2.108,0,0,1-.221.176,1.508,1.508,0,0,1-.527.221c-.319.065-.456.071-.651.11a5.1,5.1,0,0,0-.963.28c-.143.065-.286.117-.416.189s-.241.15-.358.221A2.987,2.987,0,0,0,71,22.659c0,.007.176.638.176.638l-1,.13a3.27,3.27,0,0,0-1.653.976,2.336,2.336,0,0,0-.58.924.6.6,0,0,0,.1.6l.768,1.139-1.276.592-.11.052a2.461,2.461,0,0,0-1.23,2.18c-.111.97.651,1.575,1.393,2.05.357.176.585.345.579.495-.026.579-1.614.26-1.946.364a1.176,1.176,0,0,0,1.048.879c.136.02.273.033.4.052l.267.033c.091.013.215.045.319.071a1.22,1.22,0,0,1,.371.13l.273.157c.3.188.514.364.7.488a1.714,1.714,0,0,0,.449.221,4.218,4.218,0,0,0,.534.084,4.671,4.671,0,0,0,3.482-1.47,4.841,4.841,0,0,0,1.087-1.855c.149-.449.234-.683.377-.7.124-.013.306.195.384.768a3.036,3.036,0,0,1,0,.69,3.564,3.564,0,0,0,.5.026.729.729,0,0,0,.371-.078c.006-.007.006-.013.006-.026a2.646,2.646,0,0,1,.13-.443,1.479,1.479,0,0,1,.248-.377,1.7,1.7,0,0,1,.351-.261,1.181,1.181,0,0,1,.26-.11.724.724,0,0,1,.254-.026,1,1,0,0,1,.228.013c.1.013.182.026.247.039l.339.078c.052.013-.013.006.084.006.078-.006.156-.006.235-.013a4.9,4.9,0,0,0,1.021-.26,1.7,1.7,0,0,0,.645-.306c.032-.019.026-.045.052-.058s.006-.02.013-.033c.026-.006.039-.15.039-.234v-.664c-.039.013-.072.033-.111.046a2.911,2.911,0,0,1-1.477.078,1.781,1.781,0,0,1-1.2-.944,2.6,2.6,0,0,1-.189-.638c-.078.007-.156.007-.234.02-.664.006-1.829-.15-1.673-1.093a1.177,1.177,0,0,1,.384-.7c.124-.111.2-.157.241-.13s.026.123-.02.273a1.3,1.3,0,0,0-.1.56c.013.039.013.078.052.1,0,.006.013.019.013.019l.1.078c.039.039.072.052.091.046a.215.215,0,0,1,.065.006,1.479,1.479,0,0,0,.222.039,2.254,2.254,0,0,0,.553-.013,1.54,1.54,0,0,0,.273-.065c.033-.019.085-.032.111-.045s.006-.052.065-.013l.722.325a1.722,1.722,0,0,0,.189.775.784.784,0,0,0,.56.377,2.638,2.638,0,0,0,1.887-.6,1.838,1.838,0,0,0,.618-.787.789.789,0,0,0-.124-.723l-.7-1.028,1.2.2a.94.94,0,0,0,.69-.1.961.961,0,0,0,.371-.585,2.012,2.012,0,0,0-.189-1.38,2.078,2.078,0,0,0-.67-.709c-.215-.111-.345-.2-.339-.261s.157-.084.449-.065a1.894,1.894,0,0,1,1.087.664,2.522,2.522,0,0,1,.527,1.913,1.841,1.841,0,0,1-.637,1.191,1.6,1.6,0,0,1-.6.293,1.883,1.883,0,0,1-.039.911,2.839,2.839,0,0,1-.976,1.328c-.118.091-.241.156-.365.234.059.007.124.02.182.026.313.059.619.111.918.169l.534.1c.149.026.273.032.41.052a2.1,2.1,0,0,0,1.256-.234,3.2,3.2,0,0,0,.9-.638,1.54,1.54,0,0,0,.358-.683,2.794,2.794,0,0,0-.032-1.139c-.052-.274-.033-.443.052-.5s.221,0,.455.228a2.235,2.235,0,0,1,.593,1.484,1.462,1.462,0,0,1-.013.371,2.019,2.019,0,0,0,1.028-.593,2.513,2.513,0,0,0,.566-.911.9.9,0,0,0,.078-.247l.046-.176c.019-.11.013-.24.026-.358.019-.292.019-.566.032-.839a3.5,3.5,0,0,1-.573.2,3.057,3.057,0,0,1-.917.111,1.306,1.306,0,0,1-1.276-.651.559.559,0,0,1,.007-.41c.032-.085.071-.124.11-.117.085,0,.118.2.254.319a1.116,1.116,0,0,0,.859.084,3.139,3.139,0,0,0,1.347-.579,1.577,1.577,0,0,0,.332-.651,2.206,2.206,0,0,0,.085-.872c-.078-.657-.482-.7-.924-1.021-.195-.15-.579-.45-.475-.729,0,0,.722-.527.722-.554.02-.019-.039-.123-.143-.188a1.354,1.354,0,0,0-.338-.169c-.482-.17-.846-.157-.866-.274-.013-.058.065-.123.215-.2a1.809,1.809,0,0,1,.748-.123,1.674,1.674,0,0,1,.573.117,1.029,1.029,0,0,1,.612.592.981.981,0,0,1-.092.827,1.489,1.489,0,0,1,.358.227,2.02,2.02,0,0,1,.7,1.367,3,3,0,0,1-.143,1.328,3.38,3.38,0,0,1-.261.579l-.039.065-.019.033-.033.052c-.013.019-.1.117-.1.117a.772.772,0,0,1-.1.11c.267.052.528.111.794.157a1.518,1.518,0,0,0,.345.032h.1a1,1,0,0,0,.209-.026,1.433,1.433,0,0,0,.683-.312A2.687,2.687,0,0,0,92.707,23.414ZM86.564,48.652a12.512,12.512,0,0,0,.312-3.586c-.065-1.848-.156-3.7-.2-5.551-2.063-1.3-5.538-.176-7.588.338a.7.7,0,0,1-.423-.02.767.767,0,0,1-.872-.689c-.15-1.66.325-3.5-.182-5.109-.091.045-.183.091-.274.13-.143.039-.3.085-.455.117l-.417.039a8.26,8.26,0,0,1-1.288-.091.268.268,0,0,1-.046.072,5.43,5.43,0,0,1-1.685,1.575,5.8,5.8,0,0,1-2.916.839c-.137-.013-.273-.019-.41-.026.449,1.692.983,3.378,1.582,5.005.754,2.037,2.18,1.724,3.253,3.182.788,1.074.632,2.87.873,4.126.1.5.208,1.282.663,1.6.833.592,2.434-.566,3.1-.976a.744.744,0,0,0,.156-.41.539.539,0,0,0-.123-.365,2.026,2.026,0,0,0-.859-.579,4.22,4.22,0,0,0-.762-.215c-.176-.045-.351-.039-.371-.13-.013-.071.02-.2.267-.325a1.893,1.893,0,0,1,1.048-.163,2.439,2.439,0,0,1,1.5.67,1.626,1.626,0,0,1,.482,1.074,1.794,1.794,0,0,1-.391,1.185,3.064,3.064,0,0,1-1.041.8,1.129,1.129,0,0,1,.085.3,1.475,1.475,0,0,0,.032.169,6.985,6.985,0,0,1,4.471-.1C84.976,50.637,86.232,49.979,86.564,48.652Zm-4.9,5.115c.781-.046,1.7-.215,2.03-.82a6.394,6.394,0,0,0-3.228-.065c.208.162.43.306.644.455A5.488,5.488,0,0,1,81.664,53.767ZM78.755,64.459a57.144,57.144,0,0,1,1.62-7.672c-1.184,1.757-2.466,3.442-3.683,5.173A6.141,6.141,0,0,0,78.755,64.459ZM78.52,77.241c0-.41-.006-.814-.013-1.224-.436.332-.859.671-1.262,1.029C77.655,77.117,78.084,77.182,78.52,77.241Zm-.078-8.3c.026-.878.065-1.75.13-2.622a9.749,9.749,0,0,1-2.915-2.851c-.293.443-.573.892-.846,1.347A8.85,8.85,0,0,0,78.442,68.943ZM76.874,95.5c-.078-.033-.163-.065-.235-.091-3.748-1.341-7.659-2.018-11.447-3.228A86.589,86.589,0,0,1,50.614,86.2a29.876,29.876,0,0,1,1.471,6.436c2.87.7,5.942,1.217,8.552,2.668,2.687,1.5,5.447,3.117,8,4.823a22.607,22.607,0,0,1,5.669,5.232c.319.416.663.813,1.008,1.2C75.787,102.869,76.366,99.185,76.874,95.5Zm1.139,16.283c-1.387-1.653-3.137-3.033-4.471-4.777-.267-.352-.54-.69-.814-1.022-.117-.058-.228-.117-.351-.176-.794-.364-1.751-.794-2.694-1.269a33.268,33.268,0,0,1-4.732-2.824c-1.086-.872-1.718-1.477-1.633-1.6s.872.254,2.076.963c1.223.664,2.883,1.523,4.783,2.48.143.071.28.136.417.208a24.731,24.731,0,0,0-4.543-3.313C63.513,98.99,61,96.979,58.229,96a59.455,59.455,0,0,0-5.994-1.653c.039.624.058,1.256.058,1.88.072-.006.144-.019.209-.019l.26.019a8.106,8.106,0,0,1,1.614.436c.482.176.95.345,1.412.508.462.195.918.39,1.36.573a21.107,21.107,0,0,1,4.335,2.622c2.245,1.855,3.065,3.5,2.974,3.547-.156.124-1.185-1.321-3.443-2.928a24.276,24.276,0,0,0-4.269-2.311c-.423-.169-.859-.338-1.3-.514-.468-.156-.937-.319-1.418-.481a8.854,8.854,0,0,0-1.38-.371l-.137-.007a.115.115,0,0,1-.045.007,1.5,1.5,0,0,0,.006.416c.033.234.078.482.13.735a10.9,10.9,0,0,1,2.6.476,9.73,9.73,0,0,1,2.551,1.282,11.879,11.879,0,0,1,3.241,3.423,14.285,14.285,0,0,1,1.38,2.8c.234.69.306,1.087.247,1.113-.169.072-.742-1.445-2.245-3.488a12.318,12.318,0,0,0-3.17-3.026,9.47,9.47,0,0,0-2.329-1.094,10.324,10.324,0,0,0-2.734-.416h-.026c-.078.69-.169,1.386-.293,2.069.17.163.326.319.489.475.273.267.546.521.813.749a4.947,4.947,0,0,0,.794.585,1.1,1.1,0,0,0,.56.2c.071-.033.143-.137.175-.332a2.539,2.539,0,0,0,.007-.664,8.915,8.915,0,0,0-.234-1.184c-.17-.664-.3-1.035-.215-1.087s.371.26.7.9a5.777,5.777,0,0,1,.475,1.237,3.264,3.264,0,0,1,.091.878,1.632,1.632,0,0,1-.136.567,1.314,1.314,0,0,1-.2.286,1.575,1.575,0,0,1-.3.228l-.007.006-.019.007a1.741,1.741,0,0,1-1.354-.176,6.767,6.767,0,0,1-.983-.644c-.13-.1-.26-.228-.39-.339.1.163.208.326.319.5.084.137.162.26.234.39l.058.092.072.13.1.188c.136.248.267.5.4.736a25.9,25.9,0,0,1,1.334,2.649,11.28,11.28,0,0,1,.39,1.093,7.187,7.187,0,0,1,.169.885c.026.468,0,.735-.078.748s-.188-.227-.338-.676c-.091-.2-.2-.456-.332-.742-.15-.287-.306-.619-.508-.97-.39-.716-.93-1.536-1.516-2.48-.143-.234-.286-.488-.436-.741l-.111-.2a.7.7,0,0,1-.039-.065l-.058-.091c-.085-.124-.163-.241-.247-.364-.066-.1-.137-.215-.215-.326a29.7,29.7,0,0,1-.989,3.072,17,17,0,0,1-2.35,4.269c1.627.052,3.248.143,4.868.247-.247-.859-.579-1.64-.774-2.245-.241-.761-.319-1.243-.209-1.3s.417.339.827,1.022a12.5,12.5,0,0,1,.7,1.243,6.993,6.993,0,0,1,.371.8c.059.176.117.365.176.547,3.365.221,6.723.456,10.107.391C68.433,112.012,73.639,113.015,78.013,111.785ZM63.643,75.36A9.117,9.117,0,0,0,61.971,74.3a1.121,1.121,0,0,1-.176-.11,1.24,1.24,0,0,0-.228-.02c-.032-.006-.058-.019-.084-.026a8.2,8.2,0,0,1-2.415.644A28.06,28.06,0,0,0,63.643,75.36ZM60.689,73.1a2.676,2.676,0,0,0,1.653-2.35c-2.18,1.569-5.33,1.953-7.966,2.792.527.17,1.054.326,1.581.475a.547.547,0,0,1,.15-.071C57.6,73.583,59.257,73.687,60.689,73.1ZM50.582,96.315a15.324,15.324,0,0,1-.54,2.9,4.918,4.918,0,0,1-.443,1.009,2.472,2.472,0,0,1-.82.892,1.8,1.8,0,0,1-1.249.241,2.482,2.482,0,0,1-.306-.072A2.288,2.288,0,0,1,47,101.2c-.169-.065-.306-.143-.455-.215-.28-.156-.534-.332-.716-.429a.489.489,0,0,0-.417-.1c-.052-.039-.41.208-.488.26a2.666,2.666,0,0,0-.416.436c-.17.215-.332.436-.5.638a6.983,6.983,0,0,1-.605.8c-.162.169-.332.338-.514.494.091-.045.176-.084.267-.13.2-.111.39-.228.592-.345.4-.228.807-.514,1.243-.774a6.547,6.547,0,0,1,.723-.4,2.048,2.048,0,0,1,1-.221,1.381,1.381,0,0,1,.6.169,2.141,2.141,0,0,1,.482.417l.117.162.052.085.033.045.013.02.045.078.2.436a5.6,5.6,0,0,1-.143,3.7,6.787,6.787,0,0,1-.866,1.653,4.246,4.246,0,0,1-1.405,1.289,1.765,1.765,0,0,1-1.12.2,5.844,5.844,0,0,1-.807-.247c-.351-.059-.5-.032-.742.338a4.872,4.872,0,0,1-.943,1.354,1.987,1.987,0,0,1-1.725.241,6.232,6.232,0,0,1-2.265-1.406,14.529,14.529,0,0,1-1.483-1.5,3.614,3.614,0,0,1-.495-.761,1.41,1.41,0,0,1-.15-.625.041.041,0,0,1,.007-.045.805.805,0,0,1,.494-.7,1.488,1.488,0,0,1,.437-.136.292.292,0,0,1,.045-.033,12.1,12.1,0,0,1,3.156-1.92c.189-.078.671-.039.736-.293a6.315,6.315,0,0,1-1.094-.123,1.377,1.377,0,0,0-.449-.091.8.8,0,0,1-.071-.072l-.221-.111a2.056,2.056,0,0,0-.664-.123h-.033a2.051,2.051,0,0,0-1.022.553c-.11.085-.227.169-.338.26l-.163.111-.045.026-.078.045-.1.053a3.857,3.857,0,0,0-.612.325.3.3,0,0,1-.046.032,2.68,2.68,0,0,0-.325.378,5.528,5.528,0,0,1-.5.586,1.324,1.324,0,0,1-.175.143,1.305,1.305,0,0,1-.248.13,1.775,1.775,0,0,1-1.21-.065,5.829,5.829,0,0,1-.807-.4c-.247-.137-.469-.28-.677-.4-.215-.149-.423-.3-.631-.436a19.657,19.657,0,0,0,6.573,6.86c6.169,3.573,9.82-1.107,11.323-6.821A35.033,35.033,0,0,0,50.582,96.315Zm-2.089-24.7c.7-.592,1.327-1.653.221-2.258a3.867,3.867,0,0,0-2.349-.41,15.724,15.724,0,0,0-2.981.736C45.07,70.362,46.775,71.013,48.493,71.611Zm-1.419,34.343A4.607,4.607,0,0,0,47.237,103l-.13-.312-.189-.28a1.53,1.53,0,0,1-.13-.1c-.052,0-.085-.059-.156-.039a.438.438,0,0,0-.131.013,4.22,4.22,0,0,1-.436,2.564c-.078.162-.156.332-.227.488s-.144.293-.241.449a.513.513,0,0,1-.065.1,3.314,3.314,0,0,1-.931,1.243,4.776,4.776,0,0,1-1.763.99,4.214,4.214,0,0,1-2.545-.039,3.66,3.66,0,0,1-.631-.287l-.3-.175-.234-.17-.111-.084-.032-.02c-.072-.052-.033-.032-.059-.052l-.065-.058-.234-.241c-.072-.1-.143-.2-.208-.3a2.165,2.165,0,0,1-.157-.37,1.583,1.583,0,0,1-.032-.43c.006-.026.013-.059.019-.091-.344.189-.657.377-.924.521-.306.175-.559.312-.755.4a.032.032,0,0,1-.013.026c-.039.28.254.709.658,1.106a17.911,17.911,0,0,0,1.516,1.315,6.16,6.16,0,0,0,2,1.119,1.049,1.049,0,0,0,.924-.143,1.806,1.806,0,0,0,.293-.423c.1-.2.208-.429.364-.683a1.583,1.583,0,0,1,1.855-.827c.319.091.56.189.723.222a.681.681,0,0,0,.449-.111A4.48,4.48,0,0,0,47.074,105.954Zm-1.92-1.478c.026-.078.052-.156.078-.241a5.418,5.418,0,0,1-2.277,1.712,7.931,7.931,0,0,1-1.783.5,2.787,2.787,0,0,1-1.686-.156c-.059-.039-.117-.085-.176-.13a.812.812,0,0,1,.1.123l.169.144.039.039.007.006.013.007.117.078.234.163.208.11c.13.078.3.13.456.2a3.71,3.71,0,0,0,1.933.1,4.8,4.8,0,0,0,.969-.332c.007-.007.013-.007.02-.013a3.076,3.076,0,0,0,.872-.723,2.723,2.723,0,0,0,.364-.664c.059-.117.111-.292.176-.449S45.1,104.639,45.154,104.476Zm-.891-.572c-.117.052-.235.11-.345.169l-.182.084-.157.046-.312.1c-.807.214-1.5.312-2.056.449-.287.058-.515.143-.742.2-.2.072-.378.137-.527.189-.1.072-.2.143-.3.228-.032.084-.039.176-.019.169.019-.039.1.052.214.059a3.362,3.362,0,0,0,1.139-.144,11.471,11.471,0,0,0,1.562-.52A6.611,6.611,0,0,0,44.263,103.9ZM39.473,68c.065.032.137.058.208.091a3.1,3.1,0,0,0-.4-1.334c-.456-.71-1.263-.215-1.51.416C38.328,67.453,38.894,67.733,39.473,68Zm-5.935,43.121c.338.97.846,1.373.768,1.523-.039.058-.228.032-.521-.137a3.139,3.139,0,0,1-.944-1.041,14.429,14.429,0,0,1-1.2-3.319c-.286.794-.553,1.49-.748,2.037-.3.9-.508,1.457-.651,1.431s-.182-.611-.065-1.574a22.812,22.812,0,0,1,.853-3.359c-.326-.455-.638-.924-.937-1.4-.092.091-.17.169-.254.248-.261.234-.514.455-.762.676a1.163,1.163,0,0,0-.234.267c-.078.137-.156.274-.234.4s-.156.267-.208.39-.1.247-.15.365-.1.234-.143.351a2.279,2.279,0,0,0-.091.345,3.754,3.754,0,0,0-.144.677c-.071.41-.1.787-.143,1.1-.065.618-.13.963-.2.963s-.149-.339-.208-.97a8.038,8.038,0,0,1-.039-1.171,4.714,4.714,0,0,1,.065-.729c.026-.137.026-.228.072-.417.039-.136.084-.273.13-.423s.091-.293.143-.442.124-.274.189-.417.13-.28.2-.423a1.89,1.89,0,0,1,.364-.494c.247-.267.508-.5.735-.729a2.577,2.577,0,0,0,.267-.306c.026-.007.059-.091.091-.163-.566-.95-1.1-1.92-1.6-2.9-.312.618-.67,1.185-1,1.757-.507.716-.963,1.432-1.471,2.05-.976,1.269-1.939,2.33-2.746,3.222-1.62,1.75-2.668,2.811-2.785,2.713s.716-1.327,2.193-3.214c.729-.951,1.62-2.057,2.525-3.326.475-.625.9-1.321,1.373-2.024a20.445,20.445,0,0,0,1.217-2.278c.026-.052.046-.1.072-.149-.1-.215-.215-.423-.313-.638l-.039.1a6.369,6.369,0,0,1-1.034,1.405,14.583,14.583,0,0,1-2.565,2c-.807.585-1.581,1.158-2.323,1.7-1.445,1.178-2.746,2.232-3.84,3.124a30.6,30.6,0,0,1-2.681,2c-.657.442-1.041.657-1.093.6s.254-.391.826-.931,1.445-1.3,2.454-2.265c1.022-.95,2.265-2.095,3.7-3.312.748-.579,1.523-1.191,2.356-1.809a13.865,13.865,0,0,0,2.369-1.868c.468-.462,1.08-1.152.917-1.861-.058-.254-.26-.807-.52-.905-.287-.111-.567.189-.788.319a31.553,31.553,0,0,0-3.781,2.98c-2.1,1.894-3.41,3.04-3.521,2.929s1.022-1.458,2.981-3.488l.189-.189c.039-.039.045-.052.11-.117l.1-.091.4-.384c.287-.267.573-.54.879-.827A13.669,13.669,0,0,1,24.264,97l.351-.2.013-.013a6.993,6.993,0,0,1-.709-.592c-3.9,2.011-7.067,5.005-10.159,8.1-2.59,2.584-4.666,5.74-7.171,8.369,2.616.319,5.564.137,8.082.2,2.33.059,4.66.124,6.99.176.013-.019.026-.032.039-.052a39.571,39.571,0,0,0,2.915-3.924c.671-1.093,1.146-1.744,1.283-1.673s-.1.833-.593,2.024a19.7,19.7,0,0,1-2.245,3.658c.189,0,.378.006.566.013,4.627.078,9.241-.078,13.856-.143A18.877,18.877,0,0,1,33,109.181c.013.059.026.118.039.17A14.507,14.507,0,0,0,33.538,111.121Zm-.97-46.109a25.633,25.633,0,0,0,.82-7.282c-1.445-.091-1.985.423-2.206,2.122-.2,1.607-.495,3.2-.735,4.8A12.357,12.357,0,0,1,32.568,65.012ZM27.492,90.1a1.826,1.826,0,0,0-.007-.195l-.045-.286a2.549,2.549,0,0,0-.163-.436,16.3,16.3,0,0,1-1.3-2.258l-.092-.4-.019-.105a.2.2,0,0,1-.013-.078V86.3l-.007-.169a3.219,3.219,0,0,1,.039-.462c-.1-.027-.2-.053-.3-.085-.182-.059-.364-.124-.547-.182-.162-.072-.325-.137-.488-.209l-.24-.1-.059-.026-.046-.019-.032-.013-.13-.072a4.533,4.533,0,0,1-.5-.28,6.186,6.186,0,0,1-1.464-1.34c.475,3.488,2.037,6.683,3.7,10.009.423-.736,1-1.477,1.432-2.337A2.589,2.589,0,0,0,27.492,90.1Zm-3.156,4.341a.714.714,0,0,1,.2.1c-.683-1.367-1.354-2.714-1.946-4.061-.286.39.781,2.466.931,2.714C23.717,93.517,24,93.986,24.336,94.441Z"></path><path d="M118.179,76.447a8.643,8.643,0,0,1-.28,2.74,24.329,24.329,0,0,1-1.353,3.794c-.3.683-.612,1.4-.937,2.141l-.97,2.317a39.191,39.191,0,0,1-4.237,7.829,16.565,16.565,0,0,1-1.783,2.043c-.468.443-.748.657-.807.6s.124-.364.482-.878c.377-.5.852-1.276,1.464-2.206a59.593,59.593,0,0,0,3.866-7.823c.345-.794.677-1.568,1-2.323s.683-1.451,1-2.122a33.671,33.671,0,0,0,1.523-3.6,12.373,12.373,0,0,0,.6-2.518c.045-.293.052-.547.071-.716s.046-.26.078-.26.085.078.137.24A2.723,2.723,0,0,1,118.179,76.447Z"></path><path d="M104.643,91.493c.065.163-1.119.605-2.766,1.594-.846.482-1.8,1.159-2.844,1.914-1.041.774-2.167,1.659-3.364,2.59s-2.376,1.783-3.5,2.5a20.053,20.053,0,0,1-3.136,1.653c-1.888.761-3.157.853-3.183.729-.039-.169,1.133-.527,2.851-1.438a29.073,29.073,0,0,0,2.915-1.784c1.054-.741,2.193-1.6,3.384-2.531s2.356-1.8,3.449-2.545a22.542,22.542,0,0,1,3.066-1.77C103.374,91.532,104.6,91.376,104.643,91.493Z"></path><path d="M96.918,56.025c.241.2-1.4,2.838-3.612,6.026-2.284,3.235-4.646,5.285-4.848,5.122-.267-.221,1.776-2.662,3.95-5.759C94.608,58.244,96.684,55.836,96.918,56.025Z"></path><path d="M93.742,82.382c.091.117-.664.918-2,2.089a28.108,28.108,0,0,1-2.467,1.965c-.247.176-.5.352-.755.534-.13.091-.26.182-.4.273l-.41.235c-.279.149-.566.312-.852.468l-.436.241L86.2,88.3l-.111.059-.052.032-.052.026h-.007l-.019.007-.033.013a9.9,9.9,0,0,1-3.944.625,14.847,14.847,0,0,1-1.7-.157,13.547,13.547,0,0,1-1.451-.266c-1.757-.4-2.766-.833-2.74-.97.039-.163,1.139.006,2.87.208.436.046.911.1,1.419.124.508.052,1.048.045,1.614.045a10.1,10.1,0,0,0,3.514-.624l1.7-.9.416-.222c.13-.084.254-.162.378-.247.247-.163.494-.319.729-.475.963-.586,1.809-1.237,2.538-1.725C92.714,82.851,93.645,82.258,93.742,82.382Z"></path><path d="M91.66,34.523c1.152.273,1,1.692.891,2.642a8.414,8.414,0,0,1-.182,1.041c-.039.17-.078.332-.117.495a2.474,2.474,0,0,1-.078.28c-.039.091-.072.176-.1.254a5.232,5.232,0,0,1-1.12,1.653,1.165,1.165,0,0,1-.624.319.729.729,0,0,1-.528-.157.793.793,0,0,1-.234-.318,1.686,1.686,0,0,1-.13-.495l-.013-.091-.007-.085.007-.071a1.113,1.113,0,0,1,.046-.28,2.843,2.843,0,0,1,.364-.671,1.682,1.682,0,0,0,.156-.292c-.078-.261-.273-.358-.436-.313a.507.507,0,0,1-.1.033c-.039.032-.072.052-.1.071-.058.039-.1.052-.123.039s-.026-.058-.02-.13a.561.561,0,0,1,.033-.117,1.183,1.183,0,0,1,.13-.176.822.822,0,0,1,.338-.143c-.039-.058-.065-.11-.1-.182a2.024,2.024,0,0,1-.221-1.139,5.308,5.308,0,0,1,.293-1.236A1.672,1.672,0,0,1,91.66,34.523Zm-.2,2.512a4.593,4.593,0,0,0,0-1.412c-.1-.4-.208-.475-.442-.475a.183.183,0,0,0-.072.039,1.064,1.064,0,0,0-.156.15,2.532,2.532,0,0,0-.28.468,6.072,6.072,0,0,0-.371,1.028,1.443,1.443,0,0,0,.033.768,6.335,6.335,0,0,1,.156.625.985.985,0,0,1,.241.319l.006.006v.02a1.1,1.1,0,0,1-.11.807,2.477,2.477,0,0,0-.209.534.656.656,0,0,0,.04.26,5.139,5.139,0,0,0,.787-1.354l.072-.188a1.4,1.4,0,0,0,.045-.189c.033-.15.065-.306.1-.462C91.367,37.673,91.425,37.354,91.464,37.035Z"></path><path d="M87.514,17.427a.274.274,0,0,0,.072.019A.274.274,0,0,1,87.514,17.427Z"></path><path d="M87.332,17.362a1.8,1.8,0,0,1,.182.065A.752.752,0,0,1,87.332,17.362Z"></path><path d="M87.436,62.735c.26.162-.1,1.321-.852,2.648-.814,1.406-1.81,2.115-2.031,1.953-.26-.189.4-1.3,1.08-2.506C86.356,63.548,87.176,62.579,87.436,62.735Z"></path><path d="M75.286,21.676c.091.274.1.43.032.469s-.208-.059-.384-.228a1.625,1.625,0,0,0-.748-.449C73.7,21.345,72.91,22.5,72.858,23.7c-.019.137,0,.261-.006.391l-.02.481-.5.111c-.1.02-.247.013-.273.046a.04.04,0,0,0-.026.006.9.9,0,0,0,.143.332,2.74,2.74,0,0,0,.911.833,2.676,2.676,0,0,0,.775.286c.234.02.384.033.4.105s-.072.175-.293.292a1.97,1.97,0,0,1-1.159.007,2.954,2.954,0,0,1-1.418-.937,1.84,1.84,0,0,1-.293-.475,1.2,1.2,0,0,1-.078-.768.887.887,0,0,1,.247-.423,1.941,1.941,0,0,1,.176-.163l.175-.078a.827.827,0,0,1,.144-.059v-.058a4.021,4.021,0,0,1,.774-2.122,2.247,2.247,0,0,1,.814-.7,1.313,1.313,0,0,1,1.054-.078A1.6,1.6,0,0,1,75.286,21.676Z"></path><path d="M72.305,31.744c.039.052.013.15-.084.28a1.563,1.563,0,0,1-.612.436,1.619,1.619,0,0,1-1.243.007,1.538,1.538,0,0,1-.657-.541c-.026-.045-.039-.091-.059-.13a2.147,2.147,0,0,1-.787.163,1.408,1.408,0,0,1-1.159-.625,3.091,3.091,0,0,1-.234-.494l-.026-.079-.007-.026-.006-.045-.02-.1a1.875,1.875,0,0,1-.026-.293,1.417,1.417,0,0,1,.384-.976,1.953,1.953,0,0,1,.651-.442c.833-.313,1.334-.2,1.367-.065.039.156-.443.345-.983.742-1.054.78-.091,1.542.879,1.034l.735-.384.059.794a.776.776,0,0,0,.292.651,1.109,1.109,0,0,0,.677.163,5.008,5.008,0,0,0,.566-.085C72.169,31.692,72.273,31.692,72.305,31.744Z"></path><path d="M55.671,84.588c.495.293.762.488.735.56s-.351.006-.9-.169c-.28-.085-.618-.2-1.009-.345a9.975,9.975,0,0,1-1.3-.54,27.229,27.229,0,0,1-6.769-4.562,9.34,9.34,0,0,0-1.62-1.413,2.413,2.413,0,0,0-.391-.175l-.266-.072-.059-.019-.032-.007-.124-.013c-.339-.046-.657-.117-.983-.143-1.3-.124-2.551-.039-3.625-.208a6.271,6.271,0,0,1-2.408-.833c-.475-.332-.722-.547-.683-.612s.345.019.885.234a7.842,7.842,0,0,0,2.278.436c.989.065,2.2-.1,3.625-.026.351.013.722.078,1.093.117l.137.02h.039a.37.37,0,0,0,.052.013l.019.006.065.013.261.065a4.168,4.168,0,0,1,.625.254,9.167,9.167,0,0,1,1.861,1.556A36.838,36.838,0,0,0,53.55,83.4c.429.286.846.481,1.2.677S55.417,84.439,55.671,84.588Z"></path><path d="M42.6,89.651c.117.111-.065.508-.332,1.081a8.769,8.769,0,0,0-.624,2.336,10.829,10.829,0,0,0,.123,2.421c.143.651.222,1.093.072,1.158-.13.052-.449-.254-.788-.865a5.546,5.546,0,0,1-.5-2.818,5.13,5.13,0,0,1,1.061-2.642C42.1,89.768,42.506,89.554,42.6,89.651Z"></path><path d="M38.262,94.923A3.791,3.791,0,0,1,39.1,97.4a3.426,3.426,0,0,1-.124.5,1.129,1.129,0,0,1-.169.286c-.1.143-.2.215-.273.195s-.117-.13-.137-.312c-.013-.085.007-.208-.013-.319a2.518,2.518,0,0,1-.058-.332,5.622,5.622,0,0,0-.977-1.887c-.065-.1-.13-.2-.2-.286l-.045-.072c-.007-.013-.02-.033-.026-.046l-.1-.136c-.137-.195-.234-.313-.338-.449a1.318,1.318,0,0,0-.658-.443c-.52-.162-.937-.273-.93-.436.013-.136.358-.312,1.054-.332a1.887,1.887,0,0,1,.612.1,2.747,2.747,0,0,1,.332.163c.1.072.2.143.3.221a4.3,4.3,0,0,1,.481.521l.105.13.071.1.052.071C38.132,94.727,38.2,94.825,38.262,94.923Z"></path></g></svg>