<svg xmlns="http://www.w3.org/2000/svg" viewBox="0 0 64 64" x="0px" y="0px"><g><path d="M61,2H3A1,1,0,0,0,2,3V7A1,1,0,0,0,3,8H4V44H3a1,1,0,0,0-1,1V61a1,1,0,0,0,1,1H61a1,1,0,0,0,1-1V45a1,1,0,0,0-1-1H60V8h1a1,1,0,0,0,1-1V3A1,1,0,0,0,61,2ZM16,60H4V50H16Zm0-12H4V46H16Zm0-4H6V23.444a3.92,3.92,0,0,0,5-.826,3.92,3.92,0,0,0,5,.826ZM10,20a2,2,0,0,1-4,0ZM6,18V8h4V18Zm8,4a2,2,0,0,1-2-2h4A2,2,0,0,1,14,22Zm2-4H12V8h4ZM46,60H18V58H46Zm0-4H18V23.444a3.92,3.92,0,0,0,5-.826,3.947,3.947,0,0,0,6,0,3.947,3.947,0,0,0,6,0,3.947,3.947,0,0,0,6,0,3.92,3.92,0,0,0,5,.826ZM22,20a2,2,0,0,1-4,0Zm-4-2V8h4V18Zm10,2a2,2,0,0,1-4,0Zm-4-2V8h4V18Zm10,2a2,2,0,0,1-4,0Zm-4-2V8h4V18Zm10,2a2,2,0,0,1-4,0Zm-4-2V8h4V18Zm8,4a2,2,0,0,1-2-2h4A2,2,0,0,1,44,22Zm2-4H42V8h4ZM60,60H48V50H60Zm0-12H48V46H60ZM52,20a2,2,0,0,1-4,0Zm-4-2V8h4V18Zm2,6a3.975,3.975,0,0,0,3-1.382,3.92,3.92,0,0,0,5,.826V44H48V23.444A3.959,3.959,0,0,0,50,24Zm8-4a2,2,0,0,1-4,0Zm-4-2V8h4V18ZM60,6H4V4H60Z"></path><path d="M32,36.857c-4.5,0-8,4.761-8,8.857C24,51,29.812,51,32,51s8,0,8-5.286C40,41.618,36.505,36.857,32,36.857ZM32,49c-4.979,0-6-1.313-6-3.286,0-3.087,2.769-6.857,6-6.857s6,3.77,6,6.857C38,47.687,36.979,49,32,49Z"></path><path d="M28,35a3,3,0,1,0-3,3A3,3,0,0,0,28,35Zm-4,0a1,1,0,1,1,1,1A1,1,0,0,1,24,35Z"></path><path d="M39,32a3,3,0,1,0,3,3A3,3,0,0,0,39,32Zm0,4a1,1,0,1,1,1-1A1,1,0,0,1,39,36Z"></path><path d="M32,35a3,3,0,1,0-3-3A3,3,0,0,0,32,35Zm0-4a1,1,0,1,1-1,1A1,1,0,0,1,32,31Z"></path><path d="M43,40a1,1,0,0,0-1,1v2a1,1,0,0,0,2,0V41A1,1,0,0,0,43,40Z"></path><path d="M12.4,28.2l-4,3a1,1,0,1,0,1.2,1.6l4-3a1,1,0,1,0-1.2-1.6Z"></path><path d="M12.4,33.2l-4,3a1,1,0,1,0,1.2,1.6l4-3a1,1,0,0,0-1.2-1.6Z"></path><path d="M51,33a1,1,0,0,0,.6-.2l4-3a1,1,0,1,0-1.2-1.6l-4,3A1,1,0,0,0,51,33Z"></path><path d="M51,38a1,1,0,0,0,.6-.2l4-3a1,1,0,0,0-1.2-1.6l-4,3A1,1,0,0,0,51,38Z"></path></g></svg>