<svg xmlns="http://www.w3.org/2000/svg" xmlns:xlink="http://www.w3.org/1999/xlink" version="1.1" x="0px" y="0px" viewBox="0 0 128 128" enable-background="new 0 0 128 128" xml:space="preserve"><g><path  d="M44.8,35.4c0,4.6,3.7,8.3,8.3,8.3s8.3-3.7,8.3-8.3v-8.5H44.8V35.4z"></path><path  d="M74.9,43.7c4.6,0,8.3-3.7,8.3-8.3v-8.5H66.6v8.5C66.6,40,70.4,43.7,74.9,43.7z"></path><polygon  points="61.4,21.6 61.4,1 51.9,1 45.7,21.6  "></polygon><polygon  points="40.2,21.6 46.4,1 37.4,1 32.7,8.7 24.9,21.6  "></polygon><polygon  points="76.1,1 66.6,1 66.6,21.6 82.3,21.6  "></polygon><polygon  points="109.3,21.6 123.7,21.6 105,1 96.8,1 104.6,13.9  "></polygon><path  d="M88.5,35.4c0,4.6,3.7,8.3,8.3,8.3c4.6,0,8.3-3.7,8.3-8.3v-8.5H88.5V35.4z"></path><polygon  points="103.1,21.6 95.3,8.7 90.6,1 81.6,1 87.8,21.6  "></polygon><path  d="M22.9,35.4c0,4.6,3.7,8.3,8.3,8.3s8.3-3.7,8.3-8.3v-8.5H22.9V35.4z"></path><path  d="M9.3,43.7c4.6,0,8.3-3.7,8.3-8.3v-8.5H1v8.5C1,40,4.7,43.7,9.3,43.7z"></path><path  d="M110.4,35.4c0,4.6,3.7,8.3,8.3,8.3c4.6,0,8.3-3.7,8.3-8.3v-8.5h-16.6V35.4z"></path><path  d="M107.8,43.4c-2.5,3.4-6.5,5.6-10.9,5.6c-4.5,0-8.5-2.2-10.9-5.6c-2.5,3.4-6.5,5.6-10.9,5.6   c-4.5,0-8.5-2.2-10.9-5.6c-2.5,3.4-6.5,5.6-10.9,5.6s-8.5-2.2-10.9-5.6c-2.5,3.4-6.5,5.6-10.9,5.6c-4.5,0-8.5-2.2-10.9-5.6   C17.8,46.8,13.8,49,9.3,49c-3.1,0-6-1.1-8.3-2.8V127h9.7V61c0-1.5,1.2-2.6,2.6-2.6h42.2c1.5,0,2.6,1.2,2.6,2.6v66H127V46.2   c-2.3,1.8-5.2,2.8-8.3,2.8C114.2,49,110.2,46.8,107.8,43.4z M119.9,61v36.3c0,1.5-1.2,2.6-2.6,2.6h-50c-1.5,0-2.6-1.2-2.6-2.6V61   c0-1.5,1.2-2.6,2.6-2.6h50C118.7,58.3,119.9,59.5,119.9,61z"></path><polygon  points="23.4,13.9 31.2,1 23,1 4.3,21.6 18.7,21.6  "></polygon><rect x="16" y="63.6"  width="36.9" height="63.4"></rect></g></svg>