<svg xmlns="http://www.w3.org/2000/svg" xmlns:xlink="http://www.w3.org/1999/xlink" version="1.1" x="0px" y="0px" viewBox="0 0 100 100"  xml:space="preserve"><path d="M35.9,45.9c2.3,0,4.6-0.8,6.5-2.5l5,5.5l-4.8,4.4l-0.7-0.7c-0.4-0.4-1-0.4-1.4,0L18.8,74.4c-2.2,2.2-2.2,5.8,0,8.1  c1.1,1.1,2.6,1.7,4,1.7s2.9-0.6,4-1.7l21.7-21.7c0.4-0.4,0.4-1,0-1.4l-0.7-0.7l4.2-4.6l4.3,4.7l-0.7,0.7c-0.4,0.4-0.4,1,0,1.4  l21.7,21.7c1.1,1.1,2.6,1.7,4,1.7s2.9-0.6,4-1.7c2.2-2.2,2.2-5.8,0-8.1L63.8,52.8c-0.4-0.4-1-0.4-1.4,0l-0.7,0.7L56.8,49l5.2-5.7  c2.4,1.6,5.2,2.4,7.9,2.4c3.7,0,7.3-1.4,10.1-4.2c2.8-2.8,5.6-7.8,7.1-12.8c1.8-6,1.4-10.8-1.2-13.4c-2.6-2.6-7.3-3-13.4-1.2  c-4.9,1.5-10,4.3-12.8,7.1c-4.9,4.9-5.5,12.5-1.8,18l-5.9,5.4l-5.7-5.2c3.4-3.8,3.3-9.7-0.4-13.4L29.8,9.9c-0.4-0.4-1-0.4-1.4,0  L12.8,25.5c-0.4,0.4-0.4,1,0,1.4L29,43.1C30.9,45,33.4,45.9,35.9,45.9z M84.1,75.9c1.4,1.4,1.4,3.8,0,5.2c-1.4,1.4-3.8,1.4-5.2,0  l-21-21l5.2-5.2L84.1,75.9z M25.5,81c-1.4,1.4-3.8,1.4-5.2,0c-1.4-1.4-1.4-3.8,0-5.2l21-21l5.2,5.2L25.5,81z M60.2,54.8l-2.5,2.5  l-4.3-4.7l2-2.2L60.2,54.8z M61.2,22.6c2.6-2.6,7.4-5.2,11.9-6.6c2.2-0.7,4.3-1,6.1-1c2.3,0,4.2,0.6,5.3,1.7c2,2,2.3,6.2,0.7,11.4  c-1.4,4.6-4,9.4-6.6,11.9c-4.7,4.7-12.1,4.8-17,0.4l-0.9-0.9C56.4,34.7,56.6,27.3,61.2,22.6z M60.3,41.9l0.2,0.2L46.5,57.2L44,54.8  l15.2-13.9l0.2,0.2C59.5,41.1,60.1,41.7,60.3,41.9z M48.9,47.6l-5-5.4l1.2-1.2l5.5,5L48.9,47.6z M29.1,12l15.5,15.5c3,3,3,8,0,11  l-3.2,3.2c-3,3-8,3-11,0L14.9,26.2L29.1,12z"></path><path d="M40.3,32.1c0.2,0.2,0.5,0.3,0.7,0.3s0.5-0.1,0.7-0.3c0.4-0.4,0.4-1,0-1.4L30.1,19.1c-0.4-0.4-1-0.4-1.4,0s-0.4,1,0,1.4  L40.3,32.1z"></path><path d="M37,35.4c0.2,0.2,0.5,0.3,0.7,0.3s0.5-0.1,0.7-0.3c0.4-0.4,0.4-1,0-1.4L26.8,22.4c-0.4-0.4-1-0.4-1.4,0s-0.4,1,0,1.4  L37,35.4z"></path><path d="M34.5,38.9c0.3,0,0.5-0.1,0.7-0.3c0.4-0.4,0.4-1,0-1.4L23.6,25.6c-0.4-0.4-1-0.4-1.4,0s-0.4,1,0,1.4l11.6,11.6  C34,38.8,34.2,38.9,34.5,38.9z"></path><ellipse transform="matrix(0.7071 -0.7071 0.7071 0.7071 -31.4027 79.9865)" cx="80.9" cy="77.9" rx="1.3" ry="1.3"></ellipse><ellipse transform="matrix(0.7071 -0.7071 0.7071 0.7071 -48.1592 39.3773)" cx="23.5" cy="77.8" rx="1.3" ry="1.3"></ellipse></svg>