<svg xmlns="http://www.w3.org/2000/svg" xmlns:xlink="http://www.w3.org/1999/xlink" version="1.1" x="0px" y="0px" viewBox="0 0 100 100" enable-background="new 0 0 100 100" xml:space="preserve"><g><g><path d="M21.095,75.879c-4.251,0-7.706,3.455-7.706,7.706c0,4.25,3.455,7.709,7.706,7.709c4.25,0,7.705-3.459,7.705-7.709    C28.8,79.334,25.345,75.879,21.095,75.879z"></path><path d="M64.104,75.879c-4.25,0-7.705,3.455-7.705,7.706c0,4.25,3.455,7.709,7.705,7.709c4.255,0,7.714-3.459,7.714-7.709    C71.817,79.334,68.358,75.879,64.104,75.879z"></path></g></g><g><path d="M93.163,16.907c-7.823,0-13.855,4.035-15.784,10.693l-0.021,0.098H0l7.746,34.139h62.191l-1.084,4.762H8.83l1.64,7.234   l63.637-0.024l3.269-14.424l0.017,0.004L83.77,31.25l0.438-1.839c0.99-3.406,4.335-5.439,8.955-5.439H100v-7.064H93.163z"></path></g></svg>