<svg xmlns="http://www.w3.org/2000/svg" xmlns:xlink="http://www.w3.org/1999/xlink" version="1.1" x="0px" y="0px" viewBox="0 0 100 100"  xml:space="preserve"><path d="M17,35h11v34H17V35z M72,69h11V35H72V69z M80,11H20c-3.7,0-6.9,2.5-7.8,6h75.5C86.9,13.5,83.7,11,80,11z M65,35  c1.1,0,2.1-0.2,3-0.7V89H32V34.3c0.9,0.4,1.9,0.7,3,0.7c2,0,3.7-0.8,5-2.1c1.3,1.3,3,2.1,5,2.1s3.7-0.8,5-2.1c1.3,1.3,3,2.1,5,2.1  s3.7-0.8,5-2.1C61.3,34.2,63,35,65,35z M48,45c0,0.5,0.2,1,0.6,1.4C49,46.8,49.5,47,50,47s1-0.2,1.4-0.6C51.8,46,52,45.5,52,45  c0-0.1,0-0.3,0-0.4c0-0.1-0.1-0.2-0.1-0.4c0-0.1-0.1-0.2-0.2-0.3c-0.1-0.1-0.1-0.2-0.2-0.3c-0.7-0.8-2.1-0.8-2.8,0  c-0.1,0.1-0.2,0.2-0.2,0.3c-0.1,0.1-0.1,0.2-0.2,0.3c-0.1,0.1-0.1,0.2-0.1,0.4C48,44.7,48,44.9,48,45z M38,51c0,0.5,0.2,1,0.6,1.4  C39,52.8,39.5,53,40,53s1-0.2,1.4-0.6C41.8,52,42,51.5,42,51c0-0.1,0-0.3,0-0.4c0-0.1-0.1-0.2-0.1-0.4c0-0.1-0.1-0.2-0.2-0.3  c-0.1-0.1-0.1-0.2-0.2-0.3c-0.7-0.8-2.1-0.8-2.8,0c-0.1,0.1-0.2,0.2-0.2,0.3c-0.1,0.1-0.1,0.2-0.2,0.3c-0.1,0.1-0.1,0.2-0.1,0.4  C38,50.7,38,50.9,38,51z M62,63c0-3.3-2.7-6-6-6c0-3.3-2.7-6-6-6s-6,2.7-6,6c-3.3,0-6,2.7-6,6s2.7,6,6,6c2.2,0,4.1-1.2,5.2-3h1.6  c1,1.8,3,3,5.2,3C59.3,69,62,66.3,62,63z M62,51c0-0.5-0.2-1-0.6-1.4c-0.5-0.5-1.1-0.7-1.8-0.5c-0.1,0-0.2,0.1-0.4,0.1  c-0.1,0.1-0.2,0.1-0.3,0.2s-0.2,0.2-0.3,0.2C58.2,50,58,50.5,58,51c0,0.1,0,0.3,0,0.4c0,0.1,0.1,0.3,0.1,0.4c0,0.1,0.1,0.2,0.2,0.3  c0.1,0.1,0.2,0.2,0.3,0.3C59,52.8,59.5,53,60,53s1-0.2,1.4-0.6c0.1-0.1,0.2-0.2,0.2-0.3c0.1-0.1,0.1-0.2,0.2-0.3  c0.1-0.1,0.1-0.2,0.1-0.4C62,51.3,62,51.1,62,51z M15,31c1.7,0,3-1.4,3-3v-7h-6v7C12,29.6,13.3,31,15,31z M22,28c0,1.6,1.3,3,3,3  s3-1.4,3-3v-7h-6V28z M35,31c1.7,0,3-1.4,3-3v-7h-6v7C32,29.6,33.3,31,35,31z M45,31c1.7,0,3-1.4,3-3v-7h-6v7C42,29.6,43.3,31,45,31  z M55,31c1.7,0,3-1.4,3-3v-7h-6v7C52,29.6,53.3,31,55,31z M62,28c0,1.6,1.3,3,3,3s3-1.4,3-3v-7h-6V28z M72,28c0,1.6,1.3,3,3,3  s3-1.4,3-3v-7h-6V28z M82,21v7c0,1.6,1.3,3,3,3s3-1.4,3-3v-7H82z M12,75v12c0,1.1,0.9,2,2,2h14V73H14C12.9,73,12,73.9,12,75z M86,73  H72v16h14c1.1,0,2-0.9,2-2V75C88,73.9,87.1,73,86,73z M56,61h-2c-1.1,0-2-0.9-2-2v-2c0-1.1-0.9-2-2-2s-2,0.9-2,2v2c0,1.1-0.9,2-2,2  h-2c-1.1,0-2,0.9-2,2c0,1.1,0.9,2,2,2c0.9,0,1.7-0.6,1.9-1.5c0.2-0.9,1-1.5,1.9-1.5h4.3c0.9,0,1.7,0.6,1.9,1.5  c0.2,0.9,1,1.5,1.9,1.5c1.1,0,2-0.9,2-2C58,61.9,57.1,61,56,61z"></path></svg>