<svg xmlns="http://www.w3.org/2000/svg" xmlns:xlink="http://www.w3.org/1999/xlink" viewBox="0 0 60 60" version="1.1" x="0px" y="0px"><title>056-Shop</title><desc>Created with Sketch.</desc><g stroke="none" stroke-width="1"  fill-rule="evenodd"><g transform="translate(1.000000, 1.000000)" stroke="#000000" stroke-width="2"><path d="M0,15 L58,15" stroke-linecap="round"></path><path d="M8,0 L48,0" stroke-linecap="round"></path><path d="M0,15 L8,0" stroke-linecap="round"></path><path d="M58,15 L48,0" stroke-linecap="round"></path><path d="M0,15 L58,15" stroke-linecap="round"></path><path d="M10,15 C10,17.761 7.761,20 5,20 C2.239,20 0,17.761 0,15" stroke-linecap="round"></path><path d="M23,15 C23,18.314 20.314,21 17,21 C13.686,21 11,18.314 11,15" stroke-linecap="round"></path><path d="M47,15 C47,18.314 44.314,21 41,21 C37.686,21 35,18.314 35,15" stroke-linecap="round"></path><path d="M34,15 C34,17.761 31.761,20 29,20 C26.239,20 24,17.761 24,15" stroke-linecap="round"></path><path d="M58,15 C58,17.761 55.761,20 53,20 C50.239,20 48,17.761 48,15" stroke-linecap="round"></path><path d="M2,19 L2,58"></path><path d="M58,58 L0,58" stroke-linecap="round"></path><path d="M56,19 L56,58"></path><path d="M2,25 L56,25"></path><path d="M16,58 L16,25"></path><path d="M56,45 L17,45"></path><path d="M22,37 L30,29" stroke-linecap="square"></path><path d="M20,33 L24,29" stroke-linecap="square"></path><path d="M12,39 L12,43" stroke-linecap="round"></path></g></g></svg>