<svg xmlns="http://www.w3.org/2000/svg" xmlns:xlink="http://www.w3.org/1999/xlink" version="1.1" x="0px" y="0px" viewBox="0 0 100 100"  xml:space="preserve"><path d="M29.177,58.006c0.113,0.931,0.532,1.8,1.215,2.483c0.832,0.831,1.924,1.246,3.016,1.246s2.184-0.416,3.015-1.247  c1.419-1.419,1.627-3.597,0.606-5.255l5.053-5.053c1.644,1.017,3.835,0.813,5.259-0.611c1.662-1.662,1.662-4.367,0-6.03  c-0.684-0.684-1.552-1.102-2.482-1.215c-0.113-0.93-0.532-1.799-1.216-2.482c-1.662-1.662-4.367-1.662-6.029,0  c-1.419,1.418-1.627,3.597-0.623,5.239l-5.056,5.055c-0.663-0.407-1.427-0.625-2.225-0.625c-1.139,0-2.21,0.443-3.015,1.249  c-1.662,1.662-1.662,4.367,0,6.029C27.378,57.475,28.246,57.894,29.177,58.006z M28.108,52.176c0.855-0.855,2.346-0.855,3.201,0  c0.391,0.391,1.023,0.391,1.414,0l6.303-6.302c0.391-0.39,0.391-1.023,0-1.414c-0.883-0.883-0.883-2.319,0-3.202  c0.883-0.883,2.318-0.883,3.201,0c0.509,0.508,0.74,1.211,0.636,1.929c-0.046,0.312,0.059,0.627,0.282,0.851s0.542,0.33,0.851,0.283  c0.714-0.104,1.421,0.126,1.93,0.635c0.883,0.883,0.883,2.319,0,3.202c-0.884,0.883-2.318,0.882-3.212-0.011l-0.017-0.016  c-0.392-0.38-1.016-0.376-1.403,0.011l-6.303,6.303c-0.391,0.391-0.374,1.04,0.017,1.43c0.883,0.883,0.883,2.319,0,3.202  c-0.883,0.882-2.319,0.882-3.202,0c-0.508-0.508-0.739-1.211-0.636-1.93c0.046-0.312-0.06-0.627-0.282-0.851  c-0.189-0.188-0.444-0.292-0.707-0.292c-0.048,0-0.096,0.003-0.145,0.01c-0.718,0.108-1.419-0.127-1.928-0.635  C27.226,54.494,27.226,53.059,28.108,52.176z"></path><path d="M82.396,25h-16.02c0.003-0.112,0.012-0.222,0.012-0.334c0-7.995-6.504-14.499-14.499-14.499  c-7.994,0-14.498,6.504-14.498,14.499c0,0.113,0.014,0.222,0.017,0.334H18.082c-4.324,0-7.843,3.518-7.843,7.843V67.49  c0,4.325,3.519,7.843,7.843,7.843h1.653c-0.977,1.505-1.55,3.294-1.55,5.217c0,5.303,4.314,9.617,9.617,9.617  s9.616-4.314,9.616-9.617c0-1.923-0.573-3.713-1.55-5.217h46.527c4.324,0,7.843-3.518,7.843-7.843V32.842  C90.239,28.518,86.721,25,82.396,25z M42.178,35.48c0.026,0,0.048-0.013,0.073-0.015c2.565,2.292,5.937,3.699,9.639,3.699  c0.286,0,0.569-0.027,0.853-0.043c0.072,6.035,4.998,10.925,11.051,10.925c6.097,0,11.057-4.96,11.057-11.057  c0-1.227-0.209-2.404-0.58-3.508h2.648c1.082,0,1.962,0.88,1.962,1.962V62.89c0,1.082-0.88,1.961-1.962,1.961H23.216  c-1.082,0-1.962-0.88-1.962-1.961V37.442c0-1.082,0.88-1.962,1.962-1.962H42.178z M72.851,38.989c0,4.994-4.062,9.057-9.057,9.057  s-9.058-4.063-9.058-9.057s4.063-9.057,9.058-9.057S72.851,33.995,72.851,38.989z M51.89,12.167c6.892,0,12.499,5.607,12.499,12.499  c0,1.114-0.154,2.211-0.442,3.274c-0.052-0.001-0.101-0.008-0.153-0.008c-5.457,0-9.991,3.977-10.886,9.182  c-0.337,0.027-0.677,0.051-1.018,0.051c-6.892,0-12.498-5.607-12.498-12.499C39.392,17.774,44.998,12.167,51.89,12.167z   M27.803,88.167c-4.2,0-7.617-3.417-7.617-7.617c0-4.2,3.417-7.617,7.617-7.617c4.199,0,7.616,3.417,7.616,7.617  C35.419,84.75,32.002,88.167,27.803,88.167z M88.239,67.49c0,3.222-2.621,5.843-5.843,5.843H34.137  c-1.694-1.489-3.907-2.4-6.334-2.4c-2.431,0-4.647,0.914-6.342,2.407c-0.012,0-0.022-0.007-0.034-0.007h-3.345  c-3.222,0-5.843-2.621-5.843-5.843V32.842c0-3.222,2.621-5.843,5.843-5.843h19.515c0.393,2.412,1.378,4.622,2.808,6.481h-17.19  c-2.185,0-3.962,1.777-3.962,3.962V62.89c0,2.185,1.777,3.961,3.962,3.961h53.703c2.185,0,3.962-1.777,3.962-3.961V37.442  c0-2.185-1.777-3.962-3.962-3.962h-3.552c-1.566-2.711-4.241-4.701-7.407-5.333c0.094-0.379,0.174-0.762,0.236-1.148h16.2  c3.222,0,5.843,2.621,5.843,5.843V67.49z"></path><path d="M27.803,76.375c-2.302,0-4.175,1.873-4.175,4.175c0,0.552,0.447,1,1,1s1-0.448,1-1c0-1.199,0.976-2.175,2.175-2.175  c0.553,0,1-0.448,1-1S28.355,76.375,27.803,76.375z"></path><path d="M62.522,32.461c-2.878,0-5.219,2.341-5.219,5.218c0,0.552,0.447,1,1,1s1-0.448,1-1c0-1.774,1.444-3.218,3.219-3.218  c0.553,0,1-0.448,1-1S63.075,32.461,62.522,32.461z"></path><path d="M44.288,24.056c0-4.192,3.41-7.602,7.602-7.602c0.553,0,1-0.448,1-1s-0.447-1-1-1c-5.294,0-9.602,4.308-9.602,9.602  c0,0.552,0.447,1,1,1S44.288,24.608,44.288,24.056z"></path></svg>