<svg xmlns="http://www.w3.org/2000/svg" xmlns:xlink="http://www.w3.org/1999/xlink" version="1.1" x="0px" y="0px" viewBox="0 0 48 48" enable-background="new 0 0 48 48" xml:space="preserve"><g><path d="M47.9,15.9l-6-15.3C41.7,0.3,41.4,0,40.9,0H7C6.6,0,6.3,0.3,6.1,0.6l-6,15.5C-0.1,16.4,0,16.8,0.2,17   c0.2,0.3,0.5,0.4,0.8,0.4h1.7V47c0,0.6,0.4,1,1,1h40.6c0.6,0,1-0.4,1-1V17.5H47c0,0,0,0,0,0c0.6,0,1-0.4,1-1   C48,16.3,48,16.1,47.9,15.9z M29.4,2h6.8v13.5h-6.8V2z M20.6,2h6.8v13.5h-6.8V2z M11.8,2h6.8v13.5h-6.8V2z M2.5,15.5L7.7,2h2.1   v13.5H2.5z M23.2,46H11.8V29.2h11.4V46z M43.3,46H25.2V28.2c0-0.6-0.4-1-1-1H10.8c-0.6,0-1,0.4-1,1V46H4.7V17.6h38.6V46z    M38.2,15.5V2h2.1l5.3,13.5H38.2z"></path><path d="M35.3,41.3c3.2,0,5.8-4.1,5.8-9.4s-2.5-9.4-5.8-9.4c-3.2,0-5.8,4.1-5.8,9.4S32,41.3,35.3,41.3z M35.3,24.5   c1.8,0,3.8,3,3.8,7.4s-2,7.4-3.8,7.4s-3.8-3-3.8-7.4S33.5,24.5,35.3,24.5z"></path><path d="M35.2,34.1c0,0.6-0.2,1.1-0.6,1.5c-0.4,0.4-0.4,1,0,1.4c0.2,0.2,0.5,0.3,0.7,0.3s0.5-0.1,0.7-0.3c0.8-0.8,1.2-1.8,1.2-2.9   S36.7,32,36,31.2c-0.8-0.8-0.8-2.2,0-3c0.4-0.4,0.4-1,0-1.4c-0.4-0.4-1-0.4-1.4,0c-1.6,1.6-1.6,4.2,0,5.8   C35,33,35.2,33.6,35.2,34.1z"></path><path d="M11.2,24h12.5c0.6,0,1-0.4,1-1s-0.4-1-1-1H11.2c-0.6,0-1,0.4-1,1S10.7,24,11.2,24z"></path></g></svg>