<svg xmlns="http://www.w3.org/2000/svg" xmlns:xlink="http://www.w3.org/1999/xlink" version="1.1" x="0px" y="0px" viewBox="0 0 100 100" enable-background="new 0 0 100 100" xml:space="preserve"><g display="none"><rect x="5" y="5.206" display="inline"  stroke="#000000" stroke-miterlimit="10" width="90" height="90"></rect><rect x="5" y="5.206" display="inline"  stroke="#000000" stroke-miterlimit="10" width="90" height="90"></rect><rect x="5" y="5.206" display="inline"  stroke="#000000" stroke-miterlimit="10" width="90" height="90"></rect></g><g><path d="M50.857,93.447c-3.145,0.121-6.289,0.263-9.434,0.357c-4.405,0.132-8.81,0.236-13.215,0.334   c-1.888,0.042-3.777,0.076-5.665,0.048c-1.382-0.021-2.767-0.108-4.143-0.243c-1.009-0.099-1.946-0.473-2.816-1.018   c-1.369-0.858-2.211-1.978-2.221-3.687c-0.013-2.264-0.074-4.531-0.225-6.79c-0.15-2.257-0.371-4.502-0.361-6.772   c0.025-5.414-0.059-10.829-0.08-16.243c-0.005-1.259,0.085-2.518,0.093-3.776c0.005-0.789,0.346-1.457,0.643-2.149   c0.21-0.49,0.586-0.802,1.052-1.022c1.266-0.598,2.628-0.866,3.995-1.044c0.625-0.081,1.299,0.183,1.625,0.772   c1.486,2.688,2.233,5.509,2.038,8.655c-0.288,4.646-0.306,9.308-0.414,13.964c-0.032,1.383,0.007,2.768,0.036,4.151   c0.032,1.528,0.278,3.01,1.09,4.342c0.266,0.437,0.626,0.786,1.171,0.844c0.5,0.053,1.003,0.117,1.505,0.117   c3.515,0.003,7.018,0.448,10.54,0.279c1.253-0.06,2.529-0.054,3.769,0.115c3.778,0.515,7.546,0.279,11.305-0.075   c3.254-0.307,6.519-0.444,9.769-0.883c2.351-0.318,4.777-0.092,7.169-0.104c1.372-0.007,2.741,0.195,4.053-0.552   c0.482-0.275,1.226-0.073,1.847-0.128c0.623-0.055,1.268-0.076,1.857-0.261c0.88-0.277,1.573-0.883,1.736-1.821   c0.343-1.981,0.446-3.979,0.36-5.999c-0.161-3.773-0.297-7.557,0.209-11.314c0.419-3.116,0.957-6.216,1.459-9.321   c0.122-0.756,0.392-1.479,0.987-1.993c1.002-0.865,2.211-1.211,3.502-1.041c0.451,0.059,0.947,0.399,1.261,0.753   c1.023,1.153,1.677,2.524,1.847,4.06c0.193,1.748,0.362,3.507,0.394,5.263c0.056,3.019-0.018,6.041-0.008,9.062   c0.015,4.784-0.019,9.57,0.12,14.35c0.054,1.831-0.098,3.503-1.181,5.021c-0.218,0.305-0.386,0.65-0.544,0.992   c-0.977,2.117-2.739,2.771-4.923,2.698c-5.789-0.193-11.575-0.117-17.365,0.096c-4.273,0.157-8.554,0.086-12.831,0.117   C50.86,93.549,50.858,93.498,50.857,93.447z M15.812,88.542c1.087,0.266,1.908,0.517,2.24,1.516   c0.168,0.504,0.634,0.79,1.141,0.892c1.603,0.322,3.208,0.575,4.863,0.519c5.283-0.178,10.569-0.296,15.853-0.441   c2.265-0.062,4.543-0.009,6.793-0.232c3.273-0.324,6.535-0.316,9.808-0.165c1.759,0.081,3.529,0.291,5.277,0.181   c5.153-0.326,10.308-0.469,15.468-0.44c1.819,0.01,3.439-0.394,5.008-1.364c1.78-1.1,2.707-2.567,2.716-4.638   c0.002-0.377,0.007-0.754-0.003-1.131c-0.103-3.649-0.212-7.297-0.31-10.946c-0.017-0.628-0.038-1.262,0.022-1.886   c0.351-3.649,0.034-7.3,0.033-10.949c0-0.87-0.168-1.751-0.356-2.606c-0.072-0.327-0.392-0.617-0.643-0.882   c-0.322-0.34-1.091-0.146-1.278,0.236c-0.407,0.831-0.421,1.714-0.339,2.584c0.295,3.145,0.129,6.292,0.104,9.439   c-0.024,3.147-0.021,6.295-0.066,9.442c-0.021,1.51-0.068,3.024-0.206,4.527c-0.153,1.671-1.186,2.656-2.911,2.928   c-0.37,0.058-0.765,0.007-1.119,0.107c-4.039,1.148-8.164,1.411-12.336,1.262c-2.647-0.095-5.286,0.008-7.916,0.365   c-4.248,0.577-8.529,0.71-12.806,0.874c-0.628,0.024-1.258,0.007-1.887-0.011c-5.789-0.166-11.577-0.337-17.366-0.504   c-0.503-0.014-1.011,0.036-1.51-0.014c-1.596-0.158-2.88-0.856-3.705-2.274c-0.695-1.195-1.492-2.38-1.57-3.798   c-0.27-4.904-0.409-9.807,0.263-14.699c0.447-3.249,0.667-6.51,0.093-9.739c-0.965-1.317-2.352-1.369-3.747-1.332   c-0.16,0.004-0.427,0.311-0.449,0.499c-0.101,0.872-0.186,1.753-0.18,2.629c0.028,3.777,0.144,7.554,0.126,11.33   c-0.028,5.671,0.515,11.315,0.696,16.975C15.631,87.295,15.725,87.79,15.812,88.542z"></path><path d="M51.583,44.885c-0.674,0.744-1.089,1.206-1.509,1.664c-1.351,1.476-3.091,2.158-5.031,2.249   c-1.503,0.07-3.038,0.083-4.519-0.145c-1.879-0.289-3.604-1.081-5.018-2.418c-0.712-0.674-1.403-1.37-2.204-2.153   c-0.602,0.626-1.074,1.191-1.624,1.667c-0.569,0.492-1.203,0.912-1.827,1.337c-0.624,0.425-1.265,0.824-1.907,1.221   c-2,1.238-4.143,1.766-6.49,1.318c-1.108-0.212-2.243-0.312-3.331-0.595c-3.315-0.862-5.847-2.921-7.819-5.609   c-1.525-2.079-2.248-4.43-1.661-7.113c0.674-3.085,1.546-6.084,2.848-8.966c2.223-4.922,4.387-9.872,6.598-14.8   c0.462-1.031,0.974-2.045,1.541-3.022c0.439-0.756,0.999-1.442,1.462-2.098c3.562-0.701,7.08-0.779,10.585-0.999   c2.886-0.181,5.773-0.344,8.658-0.529c3.001-0.193,6.035-0.039,9.047,0.12c5.402,0.286,10.805,0.457,16.214,0.505   c2.137,0.019,4.274,0.08,6.411,0.097c1.003,0.008,2.012,0.011,3.008-0.086c0.618-0.06,1.307-0.442,1.833-0.082   c1.032,0.706,2.556,0.433,3.282,1.692c3.616,2.61,5.064,6.442,5.941,10.585c0.495,2.337,0.927,4.687,1.42,7.025   c0.649,3.079,1.472,6.104,2.737,9.002c1.128,2.583,1.442,5.305,1.298,8.117c-0.123,2.405-1.403,4.061-3.382,5.068   c-2.02,1.028-4.192,1.414-6.566,1.055c-2.687-0.406-5.141-1.111-7.226-2.905c-0.276-0.238-0.667-0.342-1.002-0.513   c-0.371-0.19-0.748-0.144-1.042,0.102c-0.381,0.319-0.716,0.698-1.048,1.07c-1.666,1.87-3.819,2.831-6.224,3.276   c-0.604,0.112-1.256,0.076-1.872-0.002c-1.37-0.174-2.725-0.461-4.096-0.623c-2.208-0.261-4.11-1.098-5.643-2.737   C52.915,46.113,52.349,45.618,51.583,44.885z M55.744,8.727c0-0.025,0-0.049,0-0.074c-4.27-0.178-8.541-0.36-12.811-0.53   c-0.501-0.02-1.011-0.018-1.507,0.049C37.797,8.662,34.144,8.557,30.5,8.689c-1.881,0.068-3.756,0.31-5.634,0.47   c-1.359,0.116-2.385,0.773-3.035,1.959c-1.205,2.2-2.576,4.298-3.661,6.579c-1.46,3.069-2.656,6.247-4.084,9.324   c-1.225,2.639-1.887,5.46-2.767,8.21c-0.227,0.709-0.29,1.481-0.351,2.231c-0.15,1.855,0.495,3.46,1.689,4.848   c1.777,2.066,3.998,3.445,6.65,4.061c1.727,0.401,3.517,0.628,5.222,0.009c2.497-0.906,4.894-2.013,6.41-4.398   c0.332-0.523,0.806-0.961,1.244-1.41c0.762-0.78,1.661-0.706,2.173,0.174c0.188,0.324,0.283,0.703,0.476,1.024   c1.082,1.806,2.608,2.976,4.68,3.538c1.871,0.508,3.736,0.548,5.612,0.301c1.689-0.222,3.084-1.036,4.028-2.512   c0.405-0.633,0.757-1.31,1.228-1.889c0.303-0.373,0.757-0.644,1.184-0.892c0.559-0.324,1.562,0.019,1.527,0.586   c-0.087,1.428,1.077,2.223,1.525,3.369c0.161,0.41,0.693,0.717,1.115,0.976c0.972,0.595,2.031,0.989,3.167,1.152   c0.997,0.143,1.989,0.354,2.991,0.416c3.358,0.208,6.201-0.868,8.146-3.699c0.504-0.733,1.08-1.377,1.644-2.04   c0.795-0.935,2.143-0.975,2.97-0.098c0.424,0.45,0.789,0.971,1.102,1.505c0.545,0.929,1.344,1.456,2.363,1.724   c2.8,0.737,5.495,0.493,8.037-0.916c2.257-1.252,2.402-1.667,2.173-4.246c-0.044-0.497-0.166-0.993-0.301-1.476   c-1.389-4.975-3.393-9.72-5.594-14.373c-1.076-2.275-2.143-4.545-3.057-6.889c-0.548-1.405-1.143-2.794-1.773-4.165   c-0.673-1.465-1.816-2.349-3.43-2.642c-2.604-0.474-5.202-0.92-7.87-0.636c-0.743,0.079-1.503-0.002-2.256-0.02   c-1.508-0.036-3.016-0.091-4.524-0.115C58.259,8.711,57.001,8.727,55.744,8.727z"></path></g></svg>