<svg xmlns:dc="http://purl.org/dc/elements/1.1/" xmlns:cc="http://creativecommons.org/ns#" xmlns:rdf="http://www.w3.org/1999/02/22-rdf-syntax-ns#" xmlns:svg="http://www.w3.org/2000/svg" xmlns="http://www.w3.org/2000/svg" xmlns:sodipodi="http://sodipodi.sourceforge.net/DTD/sodipodi-0.dtd" xmlns:inkscape="http://www.inkscape.org/namespaces/inkscape" version="1.1" x="0px" y="0px" viewBox="0 0 100 100"><g transform="translate(0,-952.36218)"><path  d="m 20.5,958.70593 -13,20 C 7.18118,979.19642 7,979.77718 7,980.36218 l 0,9.90625 c 0,2.74505 1.49761,5.13805 3.53125,6.68755 0.15348,0.1169 0.30889,0.2347 0.46875,0.3437 l 0,47.06252 c 1.5e-4,1.5707 1.42924,2.9998 3,3 l 72,0 c 1.57075,-2e-4 2.99984,-1.4293 3,-3 l 0,-47.06252 c 0.15985,-0.109 0.31526,-0.2268 0.46875,-0.3437 C 91.50238,995.40648 93,993.01348 93,990.26843 l 0,-9.90625 c 0,-0.585 -0.18119,-1.16576 -0.5,-1.65625 l -13,-20 c -0.54411,-0.82165 -1.51453,-1.34325 -2.5,-1.34375 l -54,0 c -1.08425,0 -2.04386,0.64199 -2.5,1.34375 z m 4.09375,4.65625 4.40625,0 -5.4375,14 -8.0625,0 z m 10.8125,0 6.21875,0 -2.34375,14 -9.3125,0 z m 12.3125,0 4.5625,0 2.34375,14 -9.25,0 z m 10.65625,0 6.21875,0 5.4375,14 -9.3125,0 z m 12.625,0 4.40625,0 9.09375,14 -8.0625,0 z m -58,20 10,0 0,6.90625 c 0,0.63165 -0.29789,1.25225 -1.15625,1.90625 -0.85837,0.654 -2.24113,1.1875 -3.84375,1.1875 -1.60262,0 -2.98539,-0.5335 -3.84375,-1.1875 C 13.29788,991.52068 13,990.90008 13,990.26843 z m 16,0 10,0 0,6.90625 c 0,0.63165 -0.29789,1.25225 -1.15625,1.90625 -0.85837,0.654 -2.24113,1.1875 -3.84375,1.1875 -1.60262,0 -2.98539,-0.5335 -3.84375,-1.1875 C 29.29788,991.52068 29,990.90008 29,990.26843 z m 16,0 10,0 0,6.90625 c 0,0.63165 -0.29789,1.25225 -1.15625,1.90625 -0.85837,0.654 -2.24113,1.1875 -3.84375,1.1875 -1.60262,0 -2.98539,-0.5335 -3.84375,-1.1875 C 45.29788,991.52068 45,990.90008 45,990.26843 z m 16,0 10,0 0,6.90625 c 0,0.63165 -0.29789,1.25225 -1.15625,1.90625 -0.85837,0.654 -2.24113,1.1875 -3.84375,1.1875 -1.60262,0 -2.98539,-0.5335 -3.84375,-1.1875 C 61.29788,991.52068 61,990.90008 61,990.26843 z m 16,0 10,0 0,6.90625 c 0,0.63165 -0.29789,1.25225 -1.15625,1.90625 -0.85837,0.654 -2.24114,1.1875 -3.84375,1.1875 -1.60262,0 -2.98539,-0.5335 -3.84375,-1.1875 C 77.29788,991.52068 77,990.90008 77,990.26843 z m -51,13.1875 c 0.16887,0.1479 0.35355,0.2709 0.53125,0.4063 2.03363,1.5494 4.63937,2.4062 7.46875,2.4062 2.82938,0 5.43511,-0.8568 7.46875,-2.4062 0.1777,-0.1354 0.36237,-0.2584 0.53125,-0.4063 0.16887,0.1479 0.35355,0.2709 0.53125,0.4063 2.03363,1.5494 4.63937,2.4062 7.46875,2.4062 2.82938,0 5.43511,-0.8568 7.46875,-2.4062 0.1777,-0.1354 0.36237,-0.2584 0.53125,-0.4063 0.16887,0.1479 0.35355,0.2709 0.53125,0.4063 2.03363,1.5494 4.63937,2.4062 7.46875,2.4062 2.82938,0 5.43511,-0.8568 7.46875,-2.4062 0.1777,-0.1354 0.36237,-0.2584 0.53125,-0.4063 0.16887,0.1479 0.35355,0.2709 0.53125,0.4063 2.03363,1.5494 4.63937,2.4062 7.46875,2.4062 0.33288,0 0.67387,-0.01 1,-0.031 l 0,42.03132 -18,0 0,-33 c -1.6e-4,-1.5708 -1.42925,-2.9999 -3,-3 l -24,0 c -1.61931,0 -3,1.7353 -3,3 l 0,33 -18,0 0,-42.03132 c 0.32612,0.024 0.66711,0.031 1,0.031 2.82938,0 5.43511,-0.8568 7.46875,-2.4062 0.1777,-0.1354 0.36237,-0.2584 0.53125,-0.4063 z m 15,14.81252 6,0 0,30 -6,0 z m 12,0 6,0 0,30 -6,0 z"  fill-opacity="1" stroke="none" marker="none" visibility="visible" display="inline" overflow="visible"></path></g></svg>