<svg xmlns="http://www.w3.org/2000/svg" xmlns:xlink="http://www.w3.org/1999/xlink" version="1.1" x="0px" y="0px" viewBox="0 0 100 100"  xml:space="preserve"><g><g><path d="M5,23.3c3.8,0.4,7.8,0.2,11.6,0c3.8-0.2,8.6-1.4,12.3-0.5c-0.7-2.6-1.4-5.2-2.1-7.8c-2.7,3.1-2.6,6.3-2.2,10.3    c0.5,5.2,1.1,10.3,2,15.4c1.7,10.1,3.6,21.3,8.1,30.6c2.5,5.1,10.8,0.4,7.7-4.5c-1.1-1.7-1.9-3.5-3.5-4.8c-0.2-0.2-0.4-0.2-0.7,0    c-1.6,1.3-2.4,3.1-3.5,4.8c2.7,0.4,5.4,0.7,8.1,1.1c-1.6-8.1-4.5-15.9-6.1-24c-0.8-4-1.4-7.9-1.9-11.9c-0.2-1.9-0.4-3.8-0.6-5.7    c-0.1-1.3-0.2-2.5-0.3-3.8c0.2-1.2,0.1-1.5-0.3-0.8c3.3-3.9-0.9-10.3-5.7-7.4c-3.5,2.1-8.9,2.5-12.9,3.6c-3.5,1-7.1,1.9-10.5,3.4    C3.3,21.7,4,23.2,5,23.3L5,23.3z"></path></g></g><g><g><path d="M31.2,29.2c4.7,1.7,10,1.7,14.9,1.9c5.9,0.3,11.7,0.4,17.6,0.5c5.5,0.1,11.1,0.1,16.6,0.1c4.7,0,9.9,1.1,13.6-2.2    c1-0.9,1.1-2.9,0-3.8c-3.7-2.9-8.1-1.8-12.7-1.6c-5.9,0.3-11.7,0.6-17.6,0.8c-5.6,0.2-11.1,0.4-16.6,0.8c-5.2,0.3-10.9,0.3-15.9,2    C30.4,27.9,30.4,28.9,31.2,29.2L31.2,29.2z"></path></g></g><g><g><path d="M94.7,27.8c-4.2,5.8-5.8,13.8-7.9,20.5c-1.1,3.6-2.2,7.3-3.3,10.9c-1.1,3.7-2.4,6.5-1.6,10.3c0.6,2.6,4.2,3.5,6,1.6    c2.6-2.8,3-6,3.8-9.7c0.9-4,1.7-8.1,2.4-12.1c1.2-6.8,2.8-14.7,1.2-21.5C95.3,27.6,94.9,27.6,94.7,27.8L94.7,27.8z"></path></g></g><g><g><path d="M41.8,70.3c6.6,2.1,14.8,0.1,21.5-0.3c6.9-0.4,15.5,0.6,21.9-2.2c3.3-1.5,2.1-6.4-1-7.3c-6.7-1.9-16.1,1.2-22.8,2.7    c-6.4,1.4-14.6,2.4-19.7,7C41.7,70.2,41.8,70.3,41.8,70.3L41.8,70.3z"></path></g></g><g><g><path d="M43.7,71.2c-0.9-2.2-2.9-3-5.2-2.4c-2.3,0.6-4.1,2.5-4.7,4.8c-1.4,5.1,2.8,10.4,8,10.7c5.1,0.3,9.3-3.9,8.2-9.1    c-0.5-2.4-2-4.4-4.1-5.6c-2.1-1.2-5.7-1.8-7.8-0.3c-1.7,1.3-1.7,4,0.6,4.7c1.6,0.5,4.1-0.2,5.1,1.7c0.6,1.2,0,2-1.2,2    c-1.2,0-2.6-0.9-2.6-2.3c0-1.2,1.9-2.3,2.9-2.7C43.4,72.5,44,71.8,43.7,71.2L43.7,71.2z"></path></g></g><g><g><path d="M83.4,74.1C83.5,74.1,83.5,74.1,83.4,74.1c0.6-0.2,0.9-0.6,0.9-1.1c0.1-2.7-3.9-3.9-6.1-4c-2.6,0-5,1.3-6,3.7    c-1.9,5.1,2.2,12.5,8,11.7c5.6-0.8,8.4-7.9,5.1-12.3c-1.4-1.9-3.1-3.8-5.6-4.4c-2.4-0.5-5,0.4-5.1,3.1c0,0.8,0.7,1.5,1.5,1.5    c0.8,0,1.7-0.3,2.4-0.3c1.2,0,2.1,0.9,3,1.7c1.1,1,1.8,2.1,0.7,3.4c-0.7,0.8-1.7,1.7-2.8,1.7c-1.4,0-2.9-3.4-2-4.4    C78.6,73.1,81.9,74.5,83.4,74.1L83.4,74.1z"></path></g></g><g><g><path d="M41.2,31.3c-0.1,7,1.1,14.5,2.9,21.2c0.3,1.1,2.2,1,2.1-0.3c-0.3-7-1.5-14.5-3.7-21.1C42.3,30.5,41.2,30.6,41.2,31.3    L41.2,31.3z"></path></g></g><g><g><path d="M54.3,28.9c-0.9,5.8,0.3,11.9,1.1,17.6c0.7,5.3,1.1,11.3,3.5,16.1c0.7,1.3,2.4,0.5,2.5-0.7c0.5-5.2-1.2-10.8-2.1-15.9    c-1-5.7-1.3-11.8-3.4-17.1C55.7,28.2,54.5,28,54.3,28.9L54.3,28.9z"></path></g></g><g><g><path d="M74.1,29.5c-0.5,5.7-0.9,11.4-1,17.2c-0.1,5.1-0.8,10.6,0.2,15.7c0.3,1.4,2.5,1.4,2.8,0c1.1-5,0.5-10.5,0.5-15.7    c0-5.8-0.2-11.4-0.7-17.2C75.8,28.3,74.2,28.3,74.1,29.5L74.1,29.5z"></path></g></g><g><g><path d="M40.4,39.4c8.9,1.1,17.8,2.1,26.8,2.7c4.3,0.3,8.6,0.6,12.9,0.9c4,0.3,8.3,1.1,12.2,0.3c1.4-0.3,1.1-2.2,0-2.6    c-3.8-1.5-8.2-1.3-12.2-1.6c-4.3-0.3-8.6-0.7-12.9-0.9c-9-0.4-17.8-0.3-26.8,0.3C39.8,38.6,39.8,39.4,40.4,39.4L40.4,39.4z"></path></g></g><g><g><path d="M40.7,54.9c6.8-0.5,13.9,1.6,20.7,2.1c5.6,0.4,14.3,2,19.3-1.1c0.9-0.6,1.1-2.2,0-2.7c-2.9-1.3-5.4-0.8-8.6-0.7    c-3.9,0.1-7.8,0-11.7-0.2c-6.9-0.4-13.5-2-20,0.6C39.4,53.3,39.4,55,40.7,54.9L40.7,54.9z"></path></g></g></svg>