<svg xmlns="http://www.w3.org/2000/svg" data-name="Layer 1" viewBox="0 0 100 100" x="0px" y="0px"><title>Artboard 128</title><path d="M6.25,8h.31a15,15,0,0,1,4.07.45,9.21,9.21,0,0,1,3.29,1.77,8.94,8.94,0,0,1,2.3,2.86A31.68,31.68,0,0,1,17.62,17l5.67,17.36L29.06,51.7,30.52,56l.76,2.2a11.07,11.07,0,0,0,1.52,2.86A11.4,11.4,0,0,0,37.92,65a11.15,11.15,0,0,0,3.18.73l1.39,0,1.14,0,18.26.15L71,66h3.43a13.26,13.26,0,0,0,1.63-.11,11.72,11.72,0,0,0,6-2.69,11.87,11.87,0,0,0,3.58-5.42l1.43-4.33,2.83-8.68,5.6-17.39,0-.09a3.48,3.48,0,0,0,.15-1.08,3.39,3.39,0,0,0-3.45-3.35c-6,.08-12,.23-18,.35.58-5.64,1-11.28,1.31-16.92a3.15,3.15,0,0,0-3-3.3h-.33a316.05,316.05,0,0,0-32,0l-.34,0a3.11,3.11,0,0,0-3,3.27c.3,6,.79,11.91,1.43,17.86-4,.13-8.11.22-12.16.37h0a3.05,3.05,0,0,0-.63.14L22,15.18l-.83-2.13a13.86,13.86,0,0,0-1.23-2.43A13.24,13.24,0,0,0,8.57,4.45l-2.32.08h0a1.88,1.88,0,0,0-2,1.72A1.9,1.9,0,0,0,6.25,8Zm37.1,1.65q12.92.53,25.83,0,.41,6.8,1.1,13.6-14.07.3-28.13.74C42.67,19.2,43.05,14.42,43.35,9.63Zm44.14,20L83,42.47,80.1,51.13l-1.46,4.34a4.52,4.52,0,0,1-1.38,2.08,4.35,4.35,0,0,1-2.22,1,5.77,5.77,0,0,1-.68,0H70.93l-9.16,0-18.3.15a7.79,7.79,0,0,1-3.23-.26,4.64,4.64,0,0,1-2.07-1.54,4.78,4.78,0,0,1-.65-1.18l-.8-2.14L35.1,49.34l-6.52-17.1L27,28.05Q57.21,29.15,87.49,29.6Z"></path><path d="M40.15,81.49a5.77,5.77,0,0,1,6.34,4.41h0c.06.18.85.34,1.79.35S50,86,50,85.7v-.09a9.79,9.79,0,0,0-2.63-7.23A10.53,10.53,0,0,0,39.88,75a11,11,0,0,0-8,3.18A11.29,11.29,0,0,0,32,94.35a11,11,0,0,0,8,3.1A10.52,10.52,0,0,0,47.44,94,9.72,9.72,0,0,0,50,86.81c0-.32-.77-.57-1.69-.56s-1.71.17-1.75.36v.06A5.78,5.78,0,0,1,40.11,91a4.82,4.82,0,0,1,0-9.54Z"></path><path d="M72.15,81.49a5.77,5.77,0,0,1,6.34,4.41h0c.06.18.85.34,1.79.35S82,86,82,85.7v-.09a9.79,9.79,0,0,0-2.63-7.23A10.53,10.53,0,0,0,71.88,75a11,11,0,0,0-8,3.18A11.29,11.29,0,0,0,64,94.35a11,11,0,0,0,8,3.1A10.52,10.52,0,0,0,79.44,94,9.72,9.72,0,0,0,82,86.81c0-.32-.77-.57-1.69-.56s-1.71.17-1.75.36v.06A5.78,5.78,0,0,1,72.11,91a4.82,4.82,0,0,1,0-9.54Z"></path></svg>