<svg xmlns="http://www.w3.org/2000/svg" xmlns:xlink="http://www.w3.org/1999/xlink" version="1.1" x="0px" y="0px" viewBox="0 0 52 52" enable-background="new 0 0 52 52" xml:space="preserve"><g><path d="M9.5014648,36.0010681h4.4747925v-3.4432373c-1.3220825-0.0392456-2.6564331-0.1564941-4.0334473-0.3508911   C9.7055054,33.3628845,9.5531616,34.6352844,9.5014648,36.0010681z"></path><path d="M10.4515991,30.2649231c1.2027588,0.1641846,2.369873,0.2654419,3.5246582,0.3023071v-5.3428345   C12.6130371,25.8241882,11.3036499,27.6197205,10.4515991,30.2649231z"></path><path d="M15.9762573,25.2243958v5.3459473c1.1557007-0.0366821,2.3226929-0.140564,3.5245361-0.3046265   C18.6488647,27.6200867,17.3395996,25.8242493,15.9762573,25.2243958z"></path><path d="M9.934082,41.7477112c1.3761597-0.1826782,2.7133179-0.2869263,4.0421753-0.3128052v-3.4338379H9.5014648   C9.5524902,39.3486023,9.7021484,40.6042175,9.934082,41.7477112z"></path><path d="M7.5029297,38.0010681h-5.477478c0.1392822,1.8133545,0.6452637,3.5235596,1.4544067,5.0536499l0.0466919-0.012146   c1.5631104-0.4077148,3.0324097-0.7381592,4.4440308-0.9921265C7.7151489,40.7835388,7.5546875,39.4259949,7.5029297,38.0010681z"></path><path d="M15.9762573,36.0010681h4.4743042c-0.0516968-1.3650513-0.2039185-2.6368408-0.440979-3.7922974   c-1.3761597,0.1942749-2.7099609,0.3106079-4.0333252,0.3496704V36.0010681z"></path><path d="M21.9569702,42.1776428c1.3153687,0.255249,2.6807251,0.5705566,4.1320801,0.9562378l0.3009644,0.0800171   c0.8577271-1.5697021,1.3899536-3.3374023,1.5339966-5.2128296h-5.4749146   C22.3956299,39.4733582,22.227417,40.8750916,21.9569702,42.1776428z"></path><path d="M7.9829712,31.8877258c-1.4147949-0.2646484-2.8890991-0.6038208-4.4608154-1.0214233l-0.0046387-0.0012207   c-0.833313,1.5506592-1.3511963,3.2908936-1.4922485,5.1359863h5.4776611   C7.555542,34.5523376,7.7200317,33.1726379,7.9829712,31.8877258z"></path><path d="M15.9762573,43.441864v5.3363647c1.355896-0.5966187,2.6588745-2.3751831,3.5111694-4.9972534   C18.2869873,43.60672,17.1240845,43.4907532,15.9762573,43.441864z"></path><path d="M11.6138306,24.4550476c-2.7976685,0.7503052-5.2203369,2.4066772-6.9388428,4.6414185   c1.3325195,0.3417358,2.5947266,0.6289063,3.7993774,0.8526611C9.2025757,27.5762634,10.291748,25.6672668,11.6138306,24.4550476z"></path><path d="M4.6221313,44.830658c1.7199097,2.2680664,4.1605225,3.9511108,6.9841309,4.7102051   c-1.3300781-1.2229614-2.4243164-3.151001-3.1511841-5.5475464C7.2382202,44.2102966,5.9660034,44.4919128,4.6221313,44.830658z"></path><path d="M25.218811,44.9757385c-1.3205566-0.3439941-2.5675049-0.6322021-3.7605591-0.8622437   c-0.7266235,2.3396606-1.8043823,4.2241821-3.1112061,5.4263916C21.1091309,48.7964172,23.5061646,47.1704407,25.218811,44.9757385   z"></path><path d="M15.9762573,41.4510803c1.3169556,0.0522461,2.6478271,0.1817627,4.0251465,0.3876343   c0.2421265-1.1672974,0.3968506-2.4551392,0.4491577-3.8376465h-4.4743042V41.4510803z"></path><path d="M18.3394775,24.4560242c1.3214111,1.2120972,2.4099121,3.1205444,3.1379395,5.4923096   c1.2061157-0.2240601,2.4649048-0.5081787,3.7982178-0.8502808C23.5578613,26.8634949,21.1361084,25.2069397,18.3394775,24.4560242   z"></path><path d="M13.9762573,48.7782288v-5.3530884c-1.1629028,0.0244141-2.3341675,0.1136475-3.5383301,0.2672119   C11.2895508,46.36203,12.6054077,48.1750793,13.9762573,48.7782288z"></path><path d="M26.4327393,30.8667908l-0.3480835,0.0908203c-1.4433594,0.3765259-2.803772,0.6833496-4.1158447,0.9287109   c0.2631226,1.2852783,0.4276733,2.6654663,0.4802856,4.1147461h5.4750977   C27.7831421,34.1566467,27.2655029,32.4170837,26.4327393,30.8667908z"></path><path d="M46.9762573,11.9989319v-0.4978638c0-5.2382813-4.2617188-9.5-9.5-9.5c-1.0490112,0-2.0556641,0.1776733-3,0.493103   c-0.9443359-0.3154297-1.9509888-0.493103-3-0.493103c-5.2382813,0-9.5,4.2617188-9.5,9.5v0.4978638h2v-0.4978638   c0-4.1357422,3.3642578-7.5,7.5-7.5c0.0602417,0,0.1185303,0.0076294,0.1784668,0.0090332   c-2.2336426,1.7398071-3.6784668,4.4469604-3.6784668,7.4909668v0.4978638h-4v10.0021362h-2V11.9989319h-8.0015259v10.0508423   c0.3320923-0.0220337,0.6624756-0.0506592,1.000061-0.0506592c8.2709961,0,15,6.7290039,15,15   c0,5.5577393-3.0455322,10.4083252-7.5484009,12.9998169h27.5483398v-38H46.9762573z M40.9762573,22.0010681h-2V11.9989319h-9   v-0.4978638c0-3.0689087,1.8544312-5.7096558,4.5-6.8695068c2.6455688,1.1598511,4.5,3.8005981,4.5,6.8695068v0.4978638h2   v-0.4978638c0-3.0440063-1.4448242-5.7511597-3.6784668-7.4909668c0.0599365-0.0014038,0.1182251-0.0090332,0.1784668-0.0090332   c4.1357422,0,7.5,3.3642578,7.5,7.5v0.4978638h-4V22.0010681z"></path></g></svg>