<svg xmlns="http://www.w3.org/2000/svg" xmlns:xlink="http://www.w3.org/1999/xlink" version="1.1" x="0px" y="0px" viewBox="0 0 144.083 144" enable-background="new 0 0 144.083 144" xml:space="preserve"><path d="M88.288,23.074H55.793c-11.676,0-21.174,9.499-21.174,21.175v32.493c0,11.676,9.498,21.175,21.174,21.175h3.774  l12.474,23.009l12.472-23.009h3.774c11.677,0,21.176-9.499,21.176-21.175V44.249C109.463,32.573,99.964,23.074,88.288,23.074z   M103.463,76.742c0,8.367-6.808,15.175-15.176,15.175h-7.347l-8.899,16.419L63.14,91.917h-7.347  c-8.367,0-15.174-6.808-15.174-15.175V44.249c0-8.367,6.807-15.175,15.174-15.175h32.494c8.368,0,15.176,6.808,15.176,15.175V76.742  z"></path><path d="M88.59,49.203h-5.191v-2.226c0-6.263-5.096-11.357-11.359-11.357c-6.262,0-11.355,5.095-11.355,11.357v2.226h-5.191  c-1.563,0-2.865,1.201-2.99,2.759l-2.256,28c-0.067,0.835,0.218,1.66,0.785,2.275c0.568,0.615,1.367,0.966,2.205,0.966h37.609  c0.838,0,1.637-0.351,2.205-0.966c0.567-0.615,0.853-1.44,0.785-2.275l-2.256-28C91.456,50.404,90.154,49.203,88.59,49.203z   M66.684,46.978c0-2.954,2.402-5.357,5.355-5.357c2.955,0,5.359,2.403,5.359,5.357v2.226H66.684V46.978z M56.488,77.203l1.772-22  h2.424v5.25h6v-5.25h10.715v5.25h6v-5.25h2.424l1.772,22H56.488z"></path></svg>