<svg xmlns="http://www.w3.org/2000/svg" xmlns:xlink="http://www.w3.org/1999/xlink" version="1.1" x="0px" y="0px" viewBox="0 0 512 512"  xml:space="preserve"><g><path d="M169.7441406,333.6005859h-50.5581055c-11.0864258,0-20.105957,9.0195312-20.105957,20.1054688v79.4472656   c0,11.0859375,9.0195312,20.1054688,20.105957,20.1054688h50.5581055c11.0864258,0,20.105957-9.0195312,20.105957-20.1054688   v-79.4472656C189.8500977,342.6201172,180.8305664,333.6005859,169.7441406,333.6005859z M173.8500977,433.1533203   c0,2.2636719-1.8417969,4.1054688-4.105957,4.1054688h-50.5581055c-2.2641602,0-4.105957-1.8417969-4.105957-4.1054688v-79.4472656   c0-2.2636719,1.8417969-4.1054688,4.105957-4.1054688h50.5581055c2.2641602,0,4.105957,1.8417969,4.105957,4.1054688V433.1533203z"></path><path d="M392.8144531,333.6005859h-50.5585938c-11.0859375,0-20.1054688,9.0195312-20.1054688,20.1054688v79.4472656   c0,11.0859375,9.0195312,20.1054688,20.1054688,20.1054688h50.5585938c11.0859375,0,20.1054688-9.0195312,20.1054688-20.1054688   v-79.4472656C412.9199219,342.6201172,403.9003906,333.6005859,392.8144531,333.6005859z M396.9199219,433.1533203   c0,2.2636719-1.8417969,4.1054688-4.1054688,4.1054688h-50.5585938c-2.2636719,0-4.1054688-1.8417969-4.1054688-4.1054688   v-79.4472656c0-2.2636719,1.8417969-4.1054688,4.1054688-4.1054688h50.5585938   c2.2636719,0,4.1054688,1.8417969,4.1054688,4.1054688V433.1533203z"></path><path d="M281,406c-4.4179688,0-8,3.5820312-8,8v17.8769531c0,4.4179688,3.5820312,8,8,8s8-3.5820312,8-8V414   C289,409.5820312,285.4179688,406,281,406z"></path><path d="M151.503418,359.6015625c-3.1230469-3.1220703-8.1884766-3.1220703-11.3134766,0l-17.1401367,17.1396484   c-3.1240234,3.1240234-3.1245117,8.1894531,0,11.3144531c1.5620117,1.5615234,3.6088867,2.3427734,5.6567383,2.3427734   c2.0473633,0,4.0947266-0.78125,5.6567383-2.3427734l17.1401367-17.1396484   C154.6279297,367.7919922,154.6279297,362.7265625,151.503418,359.6015625z"></path><path d="M154.5664062,376.7421875l-5.9106445,5.9111328c-3.1240234,3.1240234-3.1235352,8.1894531,0.0004883,11.3134766   c1.5625,1.5615234,3.609375,2.3427734,5.6567383,2.3427734s4.0952148-0.78125,5.6572266-2.34375l5.9106445-5.9111328   c3.1240234-3.1240234,3.1235352-8.1894531-0.0004883-11.3134766   C162.7553711,373.6181641,157.6904297,373.6171875,154.5664062,376.7421875z"></path><path d="M374.5742188,359.6025391c-3.1240234-3.1240234-8.1894531-3.1240234-11.3134766-0.0009766l-17.140625,17.1396484   c-3.125,3.1240234-3.125,8.1894531-0.0009766,11.3134766c1.5625,1.5625,3.609375,2.34375,5.6572266,2.34375   c2.046875,0,4.0947266-0.78125,5.65625-2.3427734l17.140625-17.1396484   C377.6982422,367.7919922,377.6982422,362.7265625,374.5742188,359.6025391z"></path><path d="M377.6367188,376.7412109l-5.9111328,5.9111328c-3.1240234,3.125-3.1240234,8.1894531,0,11.3144531   c1.5625,1.5615234,3.609375,2.3427734,5.6572266,2.3427734s4.0947266-0.78125,5.6572266-2.3427734l5.9111328-5.9111328   c3.1240234-3.125,3.1240234-8.1894531,0-11.3144531C385.8261719,373.6181641,380.7617188,373.6181641,377.6367188,376.7412109z"></path><path d="M503,496.2763672h-64.9746094V297.9975586c7.951416-8.1777344,12.8623047-19.326416,12.8623047-31.605957v-36.7724609   V205.40625c0-8.5302734-5.3493652-15.8183594-12.8623047-18.7338867v-28.934082   c0-19.4306641-15.8076172-35.2382812-35.2382812-35.2382812h-50.0628662   c1.6463623-7.1574707,2.5179443-14.607666,2.5179443-22.2578125C355.2421875,45.5195312,310.7226562,1,256,1   c-54.722168,0-99.2416992,44.5195312-99.2416992,99.2421875c0,7.6501465,0.871582,15.1003418,2.5179443,22.2578125h-50.0628662   c-19.4306641,0-35.2387695,15.8076172-35.2387695,35.2382812v28.934082   c-7.5131836,2.9152832-12.862793,10.2036133-12.862793,18.7338867v24.2128906v36.7724609   c0,12.2797852,4.9111328,23.4287109,12.862793,31.6064453v198.2783203H10c-4.418457,0-8,3.5820312-8,8s3.581543,8,8,8h71.9746094   h124.8442383h98.3618164h124.8447266H503c4.4179688,0,8-3.5820312,8-8S507.4179688,496.2763672,503,496.2763672z    M360.1328125,266.3916016c0,16.1982422-13.1787109,29.3769531-29.3779297,29.3769531   c-16.1982422,0-29.3769531-13.1787109-29.3769531-29.3769531v-28.7724609h58.7548828V266.3916016z M285.3779297,266.3916016   c0,16.1982422-13.1787109,29.3769531-29.3779297,29.3769531c-16.1987305,0-29.3774414-13.1787109-29.3774414-29.3769531   v-28.7724609h58.7553711V266.3916016z M210.6225586,266.3916016c0,16.1982422-13.1787109,29.3769531-29.3779297,29.3769531   c-16.1987305,0-29.3774414-13.1787109-29.3774414-29.3769531v-28.7724609h58.7553711V266.3916016z M135.8671875,266.3916016   c0,16.1982422-13.1787109,29.3769531-29.3774414,29.3769531h-0.0004883c-16.1987305,0-29.3774414-13.1787109-29.3774414-29.3769531   v-28.7724609h58.7553711V266.3916016z M77.1118164,205.40625c0-2.2636719,1.8417969-4.1054688,4.105957-4.1054688h0.7568359   h348.0507812h0.7568359c2.2636719,0,4.1054688,1.8417969,4.1054688,4.1054688v16.2128906h-66.7548828h-74.7548828h-74.7553711   h-74.7553711H77.1118164V205.40625z M376.1328125,237.6191406h58.7548828v28.7724609   c0,16.1982422-13.1787109,29.3769531-29.3769531,29.3769531c-16.1992188,0-29.3779297-13.1787109-29.3779297-29.3769531   V237.6191406z M402.7871094,138.5c10.6083984,0,19.2382812,8.6298828,19.2382812,19.2382812v27.5625H307.0751953   C325.0732422,174.453125,339.3653564,158.0585938,347.5678711,138.5H402.7871094z M256,17   c45.9003906,0,83.2421875,37.3417969,83.2421875,83.2421875c0,45.8994141-37.3417969,83.2412109-83.2421875,83.2412109   c-45.8994141,0-83.2416992-37.3417969-83.2416992-83.2412109C172.7583008,54.3417969,210.1005859,17,256,17z    M89.9746094,157.7382812c0-10.6083984,8.6303711-19.2382812,19.2387695-19.2382812h55.2192383   c8.2025146,19.5585938,22.4946289,35.953125,40.4926758,46.8007812H89.9746094V157.7382812z M214.8188477,496.2763672V353.7060547   c0-2.2636719,1.8417969-4.1054688,4.105957-4.1054688h74.1503906c2.2636719,0,4.1054688,1.8417969,4.1054688,4.1054688v142.5703125   H214.8188477z M313.1806641,496.2763672V353.7060547c0-11.0859375-9.0195312-20.1054688-20.1054688-20.1054688h-74.1503906   c-11.0864258,0-20.105957,9.0195312-20.105957,20.1054688v142.5703125H89.9746094V308.6435547   c5.1220703,2.0092773,10.689209,3.125,16.5151367,3.125c15.4902344,0,29.1861572-7.8066406,37.3774414-19.6872559   c8.1912842,11.8806152,21.887207,19.6872559,37.3774414,19.6872559c15.4904785,0,29.1865234-7.8066406,37.3779297-19.6872559   c8.1912842,11.8806152,21.887207,19.6872559,37.3774414,19.6872559c15.4904785,0,29.1865234-7.8066406,37.3779297-19.6872559   c8.1912842,11.8806152,21.887085,19.6872559,37.3769531,19.6872559c15.4904785,0,29.1865234-7.8066406,37.3779297-19.6872559   c8.1914062,11.8806152,21.8874512,19.6872559,37.3779297,19.6872559c5.8258057,0,11.3927002-1.1157227,16.5146484-3.125   v187.6328125H313.1806641z"></path><path d="M256.0117188,77.8310547c-25.4443359,0-47.2856445,19.0029297-50.8051758,44.203125   c-1.34375,9.6181641,2.0478516,19.3710938,9.0727539,26.0878906c5.7021484,5.4511719,13.0161133,8.3681641,20.6645508,8.3671875   c1.8544922,0,3.7290039-0.1708984,5.6040039-0.5195312c10.6333008-1.9765625,21.1933594-2.0996094,31.390625-0.3662109   c0,0,0,0,0.0009766,0c9.6308594,1.640625,19.1611328-1.3349609,26.1328125-8.1533203   c6.9375-6.7861328,10.1054688-16.1875,8.6914062-25.7939453C303.0839844,96.671875,281.265625,77.8310547,256.0117188,77.8310547z    M286.8847656,136.0117188c-3.2675781,3.1953125-7.7353516,4.5859375-12.265625,3.8183594h0.0009766   c-12.0595703-2.0498047-24.5053711-1.9121094-36.9956055,0.4091797c-4.4902344,0.8330078-8.9682617-0.5087891-12.2880859-3.6826172   c-3.3657227-3.2177734-4.9272461-7.7041016-4.2836914-12.3095703c2.421875-17.3398438,17.4506836-30.4160156,34.9589844-30.4160156   c17.3769531,0,32.390625,12.9638672,34.921875,30.1552734C291.59375,128.4667969,290.1181641,132.8496094,286.8847656,136.0117188z   "></path><ellipse cx="256" cy="53.1381836" rx="12.6151123" ry="15.1381836"></ellipse><path d="M293.138916,80.4667969c6.0336914,3.4835205,14.3137207,0.4379883,18.4940186-6.8024902   s2.6778564-15.934082-3.355835-19.4176025c-6.0338135-3.4835205-14.3139648-0.4381104-18.4941406,6.8023682   C285.6025391,68.2895508,287.1051025,76.9831543,293.138916,80.4667969z"></path><ellipse transform="matrix(0.8660221 -0.5000058 0.5000058 0.8660221 -5.4159937 114.6838074)" cx="211.2920227" cy="67.4481506" rx="12.6151066" ry="15.1381683"></ellipse></g></svg>