<svg xmlns="http://www.w3.org/2000/svg" xmlns:xlink="http://www.w3.org/1999/xlink" version="1.1" x="0px" y="0px" viewBox="0 0 100 100"  xml:space="preserve"><g><path d="M46.4,49.5c3.9,0,7.8,0,11.7,0c0.8-2.3,1.6-4.6,2.4-6.8c-5.5,0-11,0-16.4,0C44.9,45,45.6,47.2,46.4,49.5z"></path><path d="M56.5,55.2c-0.7,0.2-0.9,1.2-0.3,1.6c0.5,0.5,1.5,0.2,1.6-0.5C57.9,55.6,57.1,54.9,56.5,55.2z"></path><path d="M71.5,6.9c-1.1-1.1-2.6-1.8-4.2-1.9H32.8c-1.5,0.1-3,0.7-4,1.7c-1.2,1.1-1.9,2.7-2,4.3v78c0.1,1.5,0.7,2.9,1.7,4   c1.1,1.2,2.7,1.9,4.3,2h34.5c1.5-0.1,2.9-0.7,4-1.7c1.2-1.1,1.9-2.7,2-4.3V11C73.2,9.5,72.6,8,71.5,6.9z M70.5,88.6   c0,0.5-0.1,1-0.3,1.5c-0.5,1.2-1.8,2-3.1,2c-11.4,0-22.7,0-34,0c-1.7,0-3.2-1.5-3.3-3.2c0-2.8,0-5.6,0-8.4c13.3,0,26.8,0,40.5,0   c0,0,0.1,0,0.2,0C70.5,83.2,70.5,85.9,70.5,88.6z M59.6,50.8c-0.1,0.4-0.5,0.7-0.9,0.7c-4.3,0-8.7,0-13,0c-0.4,0-0.8-0.3-1-0.7   c-0.9-2.5-1.7-5.1-2.5-7.6c-0.1-0.3-0.2-0.6-0.3-0.9c-0.2-0.3-0.2-0.6-0.3-0.9c-0.2-0.5-0.3-1-0.5-1.5c-1.2,0-2.4,0-3.6,0   c-0.6,0-1.1-0.5-1.1-1s0.5-1,1-1c1.4,0,2.8,0,4.2,0c0.4,0,0.9,0.2,1.1,0.6c0.3,0.7,0.5,1.5,0.8,2.3c6.1,0,12.3,0,18.4-0.1   c0.5,0,0.9,0.3,0.9,0.8c0.1,0.3-0.1,0.6-0.2,0.9C61.6,45.2,60.6,48,59.6,50.8z M58.3,58.5c-1,0.6-2.4,0.5-3.3-0.2s-1.3-1.8-1-2.9   c0.2-1,1.1-1.9,2.2-2.2c1.4-0.3,2.8,0.5,3.3,1.8S59.5,57.8,58.3,58.5z M48.9,58.6c-0.9,0.5-2.1,0.4-3-0.2c-0.9-0.6-1.3-1.7-1.2-2.7   c0.1-1.2,1.1-2.3,2.3-2.5c1.4-0.3,2.9,0.6,3.3,1.9C50.8,56.4,50.1,58,48.9,58.6z M70.5,17.6c-13.6,0-27.1,0-40.7,0   c0-2.2,0-4.3,0-6.5c0-1.7,1.5-3.2,3.3-3.2c11.2,0,22.3,0,33.5,0c0.5,0,1.1,0,1.7,0.2c1.3,0.5,2.2,1.8,2.2,3.1   C70.5,13.4,70.5,15.5,70.5,17.6z"></path><path d="M47.2,55.2c-0.7,0.2-0.8,1.2-0.3,1.6c0.5,0.5,1.5,0.1,1.6-0.5C48.8,55.6,47.9,54.9,47.2,55.2z"></path><path d="M54.8,11.7c-3,0-6.1,0-9.2,0c-0.3,0-0.5,0-0.8,0.1c-0.4,0.2-0.7,0.7-0.7,1.1c0.1,0.5,0.5,0.8,1,0.8c3.2,0,6.5,0,9.7,0   c0.6,0,1-0.5,1-1C55.8,12.1,55.3,11.7,54.8,11.7z"></path><path d="M51.9,82.7c-0.9-0.4-1.9-0.6-2.8-0.4c-1.2,0.2-2.2,1-2.7,1.9c-0.6,1.1-0.7,2.3-0.3,3.4c0.4,1,1.1,1.8,2.1,2.3   c0.9,0.5,2.1,0.6,3.1,0.2c1-0.4,1.9-1.1,2.3-2.1c0.5-1,0.6-2.1,0.2-3.1C53.4,84,52.8,83.2,51.9,82.7z M50.7,88.3   c-0.7,0.3-1.5,0.2-2.1-0.3c-0.7-0.5-1-1.3-0.8-2.1c0.2-0.8,0.8-1.4,1.5-1.6c0.6-0.2,1.3-0.1,1.9,0.4c0.5,0.4,0.9,1.1,0.8,1.8   C51.9,87.3,51.4,88,50.7,88.3z"></path></g></svg>