<svg xmlns="http://www.w3.org/2000/svg" xmlns:xlink="http://www.w3.org/1999/xlink" version="1.1" x="0px" y="0px" viewBox="0 0 100 100" enable-background="new 0 0 100 100" xml:space="preserve"><g><path  d="M29.87,18.492c-0.028,0-0.084,0-0.14,0c-0.224,0.056-0.392,0.195-0.503,0.391l-14.623,23.75   c-0.056,0.111-0.112,0.279-0.112,0.418c0,4.493,3.523,8.149,7.884,8.149c0.419,0,0.811-0.057,1.202-0.112v29.638   c0,0.419,0.364,0.782,0.783,0.782h51.277c0.419,0,0.782-0.363,0.782-0.782V51.088c0.392,0.056,0.783,0.112,1.202,0.112   c4.362,0,7.885-3.656,7.885-8.149c0-0.14-0.056-0.307-0.112-0.418l-14.622-23.75c-0.14-0.224-0.392-0.391-0.644-0.391H29.87z    M30.317,20.083h1.761l-5.368,27.74c-1.119,1.117-2.628,1.814-4.334,1.814c-3.411,0-6.179-2.846-6.291-6.418L30.317,20.083z    M33.672,20.083h7.186l-2.237,26.792c-1.314,1.451-3.495,2.847-5.2,2.763c-2.041-0.111-3.886-1.2-4.949-2.512L33.672,20.083z    M42.451,20.083h6.766v27.294c-1.174,1.396-2.852,2.26-4.753,2.26c-1.677,0-3.159-0.697-4.306-1.814L42.451,20.083z M50.783,20.083   h6.766l2.293,27.74c-1.146,1.117-2.629,1.814-4.306,1.814c-1.901,0-3.579-0.865-4.753-2.26V20.083z M59.143,20.083H66.3l5.2,27.071   c-1.286,1.646-3.299,2.595-4.921,2.483c-2.292-0.167-4.445-1.256-5.256-3.07L59.143,20.083z M67.894,20.083h1.789l14.231,23.136   c-0.111,3.572-2.88,6.418-6.291,6.418c-1.705,0-3.243-0.697-4.361-1.87L67.894,20.083z M27.913,48.66   c1.426,1.507,3.327,2.54,5.508,2.54c2.208,0,4.11-1.033,5.536-2.54c1.426,1.507,3.327,2.54,5.508,2.54   c2.181,0,4.026-0.977,5.424-2.428c0.084,0,0.14,0,0.224,0c1.398,1.451,3.244,2.428,5.424,2.428s4.082-1.033,5.508-2.54   c1.426,1.507,3.327,2.54,5.535,2.54c2.209,0,4.082-1.033,5.509-2.54c0.027,0,0.027,0,0.027,0c0.783,0.837,1.706,1.507,2.74,1.953   v29.331H68.62V56.948c0-0.418-0.391-0.809-0.782-0.809H52.041h-0.056c-0.392,0.056-0.728,0.418-0.728,0.809v22.996H25.145V50.613   C26.179,50.167,27.129,49.498,27.913,48.66L27.913,48.66z M32.022,56.14c-0.363,0.083-0.643,0.418-0.643,0.809v10.94   c0,0.419,0.392,0.781,0.783,0.781h10.932c0.419,0,0.783-0.362,0.783-0.781v-10.94c0-0.418-0.363-0.809-0.783-0.809H32.162h-0.056   H32.022L32.022,56.14z M32.973,57.73h9.338v9.377h-9.338V57.73z M52.824,57.73h14.203v22.214H52.824V57.73z M56.989,66.382   c-1.313,0-2.432,1.116-2.432,2.455c0,1.34,1.118,2.456,2.432,2.456c1.343,0,2.461-1.116,2.461-2.456   C59.45,67.498,58.332,66.382,56.989,66.382L56.989,66.382z M56.989,67.973c0.504,0,0.896,0.362,0.896,0.864   c0,0.475-0.392,0.865-0.896,0.865c-0.475,0-0.838-0.391-0.838-0.865C56.151,68.335,56.515,67.973,56.989,67.973L56.989,67.973z"></path></g></svg>