<svg xmlns="http://www.w3.org/2000/svg" xmlns:xlink="http://www.w3.org/1999/xlink" version="1.1" x="0px" y="0px" viewBox="0 0 52 52" enable-background="new 0 0 52 52" xml:space="preserve"><g><path d="M38.2732582,24.4724255c0.5022621,0,0.9971809,0.0307446,1.4856873,0.0834599L38.1793404,2.0350401H4.7226119L2,40.7840729   h22.7528706c-0.1553478-0.8262749-0.245718-1.6753311-0.245718-2.5460434   C24.5071526,30.6474533,30.6821823,24.4724255,38.2732582,24.4724255z M11.9569359,15.765543V9.7254467h-1.8044109v-2.039423   h5.6482449v2.039423h-1.8044109v6.0400963c0,4.1087208,3.3429413,7.4516602,7.4516602,7.4516602   s7.4516602-3.3429394,7.4516602-7.4516602V9.7254467h-1.8044109v-2.039423h5.6482468v2.039423h-1.8044128v6.0400963   c0,5.23349-4.258091,9.4910831-9.4910831,9.4910831S11.9569359,20.999033,11.9569359,15.765543z"></path><path d="M38.2733192,26.5116615c-6.476511,0-11.7266808,5.2501678-11.7266808,11.7266159   c0,6.4765129,5.2501698,11.7266808,11.7266808,11.7266808C44.7497673,49.9649582,50,44.7147903,50,38.2382774   C50,31.7618294,44.7497673,26.5116615,38.2733192,26.5116615z M38.2732582,37.2188148   c2.5303574,0,4.5886993,1.6774483,4.5886993,3.7387772c0,1.77491-1.5295677,3.2584229-3.5689888,3.6383247v1.8003006h-2.0394249   v-1.8003006c-2.0394211-0.3799019-3.5689888-1.8634148-3.5689888-3.6383247h2.0394249   c0,0.9211273,1.1670914,1.6993523,2.5492783,1.6993523s2.5492783-0.7782249,2.5492783-1.6993523   s-1.1670914-1.6993523-2.5492783-1.6993523c-2.5303574,0-4.5887032-1.6774445-4.5887032-3.7392731   c0-1.77491,1.5295677-3.2584229,3.5689888-3.6383247v-1.7998047h2.0394249v1.7998047   c2.0394211,0.3799019,3.5689888,1.8634148,3.5689888,3.6383247h-2.0394211c0-0.9211273-1.1670914-1.6993523-2.5492783-1.6993523   s-2.5492783,0.7782249-2.5492783,1.6993523C35.7239799,36.4405899,36.8910713,37.2188148,38.2732582,37.2188148z"></path></g></svg>