<svg xmlns="http://www.w3.org/2000/svg" xmlns:xlink="http://www.w3.org/1999/xlink" version="1.1" x="0px" y="0px" viewBox="0 0 100 100" enable-background="new 0 0 100 100" xml:space="preserve"><g><path  stroke="#000000" stroke-width="3.2445" stroke-miterlimit="10" d="M69.676,61.977H23.293   c-1.775,0-3.214-1.441-3.214-3.219l-8.268-23.315c0-1.778,1.439-3.219,3.214-3.219h59.509"></path><line  stroke="#000000" stroke-width="3" stroke-linecap="round" stroke-miterlimit="10" stroke-dasharray="5.1219,7.6828,0.6402,0.6402,0" x1="72.198" y1="33.667" x2="44.878" y2="61.664"></line><line  stroke="#000000" stroke-width="3" stroke-linecap="round" stroke-miterlimit="10" stroke-dasharray="5.1219,5,0.6402,0.6402,0" x1="54.545" y1="32.222" x2="24.753" y2="61.125"></line><line  stroke="#000000" stroke-width="3" stroke-linecap="round" stroke-miterlimit="10" stroke-dasharray="5.1219,7.6828,0.6402,0.6402,0" x1="30.992" y1="32.222" x2="16.284" y2="46.283"></line><path  stroke="#000000" stroke-width="3.026" stroke-linecap="round" stroke-miterlimit="10" d="M25.329,66.969   c33.927-0.216,32.605,0.281,37.278,0.276c4.271-0.464,5.346-2.274,8.969-10.745c3.833-8.961,3.833-27.289,3.833-27.289   s4.065-8.107,5.841-8.544c1.189-0.293,11.867,0,11.867,0"></path><circle  stroke="#000000" stroke-width="3.3352" stroke-linecap="round" stroke-miterlimit="10" cx="25.329" cy="76.704" r="6.212"></circle><circle  stroke="#000000" stroke-width="3.3352" stroke-linecap="round" stroke-miterlimit="10" cx="64.145" cy="76.668" r="6.212"></circle><circle  stroke="#000000" stroke-width="1.91" stroke-miterlimit="10" cx="25.329" cy="76.719" r="1.929"></circle><circle  stroke="#000000" stroke-width="1.91" stroke-miterlimit="10" cx="64.145" cy="76.654" r="1.929"></circle><path  stroke="#000000" stroke-width="3.0261" stroke-miterlimit="10" d="M30.992,67.25"></path></g></svg>