<svg xmlns="http://www.w3.org/2000/svg" xmlns:xlink="http://www.w3.org/1999/xlink" version="1.1" x="0px" y="0px" viewBox="0 0 100 100"  xml:space="preserve"><path d="M70.436,27.009h-11.88c0.148-0.174,0.247-0.393,0.247-0.64c0-4.629-4.067-8.395-9.066-8.395c-5,0-9.067,3.766-9.067,8.395  c0,0.247,0.099,0.465,0.247,0.64H29.564c-0.553,0-1,0.448-1,1v53.51c0,0.552,0.447,1,1,1h40.871c0.553,0,1-0.448,1-1v-53.51  C71.436,27.457,70.988,27.009,70.436,27.009z M30.564,45.143h38.871v19.243H30.564V45.143z M42.669,26.369  c0-3.526,3.171-6.395,7.067-6.395s7.066,2.869,7.066,6.395c0,0.247,0.099,0.465,0.247,0.64H42.422  C42.57,26.834,42.669,26.616,42.669,26.369z M69.436,29.009v14.134H30.564V29.009H69.436z M30.564,80.519V66.385h38.871v14.134  H30.564z"></path></svg>