<svg xmlns="http://www.w3.org/2000/svg" xmlns:xlink="http://www.w3.org/1999/xlink" version="1.1" x="0px" y="0px" viewBox="0 0 100 100" enable-background="new 0 0 100 100" xml:space="preserve"><rect x="14.59" y="6.388" width="69.925" height="11.654"></rect><path d="M59.338,32.523c-0.035-1.222-0.865-2.036-2.132-2.208c-0.044,1.782-0.354,3.3-0.685,4.796  C58.278,35.124,59.386,34.122,59.338,32.523z"></path><path d="M91.949,45.353V34.961l-7.637-13.694H14.387L7.153,34.961V45.41c0,2.479,2.01,4.488,4.487,4.488  c1.152,0,2.192-0.447,2.986-1.161V94.75h69.04V47.777c0.793,1.269,2.19,2.12,3.797,2.12c2.479,0,4.487-2.009,4.487-4.488  C91.951,45.391,91.949,45.372,91.949,45.353z M37.183,26.128c4.309,0.032,8.702-0.018,13.036-0.012v2.799l-1.938,1.486v4.716h2.455  h0.033h2.456v-4.716l-1.938-1.486v-2.795c2.043,0.008,4.074,0.03,6.073,0.083c-0.059,0.678-0.103,1.37-0.078,2.132  c3.096,0.188,5.87,3.14,4.188,6.243c-0.922,1.703-2.996,2.379-5.632,2.512c-0.667,1.263-1.514,2.344-2.514,3.274H41.066  C37.958,37.788,36.851,32.144,37.183,26.128z M50.531,31.371c0.547,0.334,1.038,0.975,1.875,0.799v2.002h-1.641h-0.021h-1.641  v-2.774C49.312,31.261,50.209,31.175,50.531,31.371z M66.469,80.002c-1.288,0-2.333-1.045-2.333-2.334s1.045-2.334,2.333-2.334  c1.289,0,2.334,1.045,2.334,2.334S67.758,80.002,66.469,80.002z M80.667,91.75h-7.728V55.141H54.932V91.75h-2.963V77h-5.598  l3.182-3.044h-8.134c0.155-0.242,0.329-0.466,0.466-0.726c2.19-0.109,3.912-0.672,4.679-2.086c1.396-2.576-0.908-5.029-3.478-5.185  c-0.018-0.53,0.009-1.016,0.045-1.491H26.381c-0.161,3.649,0.321,7.105,1.637,9.487h-7.466L23.596,77h-5.969V45.41h1.046  c0,2.479,2.009,4.488,4.488,4.488s4.487-2.009,4.487-4.488h1.742c0,2.479,2.009,4.488,4.488,4.488c2.478,0,4.487-2.009,4.487-4.488  h1.743c0,2.479,2.008,4.488,4.486,4.488c2.479,0,4.489-2.009,4.489-4.488h1.742c0,2.479,2.008,4.488,4.486,4.488  S59.8,47.888,59.8,45.41h1.743c0,2.479,2.008,4.488,4.486,4.488s4.488-2.009,4.488-4.488h1.743c0,2.479,2.008,4.488,4.487,4.488  c1.698,0,3.157-0.955,3.919-2.347V91.75z M42.453,71.587c0.274-1.243,0.532-2.503,0.568-3.982c1.053,0.143,1.741,0.819,1.771,1.833  C44.831,70.765,43.913,71.598,42.453,71.587z"></path></svg>