<svg xmlns="http://www.w3.org/2000/svg" data-name="Layer 32" viewBox="0 0 64 64" x="0px" y="0px"><path d="M62,35H61V18a1,1,0,0,0-1-1H33V4a1,1,0,0,0-1-1H23V2a1,1,0,0,0-1-1H12a1,1,0,0,0-1,1V5H6A1,1,0,0,0,5,6V35H2a1,1,0,0,0-1,1v6a1,1,0,0,0,1,1H3v3a1,1,0,0,0,1,1H5V62a1,1,0,0,0,1,1h6a1,1,0,0,0,1-1V47H51V62a1,1,0,0,0,1,1h6a1,1,0,0,0,1-1V47h1a1,1,0,0,0,1-1V43h1a1,1,0,0,0,1-1V36A1,1,0,0,0,62,35Zm-3-6H33V25H59ZM33,31H59v4H33ZM59,19v4H33V19ZM31,5V35H23V5ZM13,3h8V35H13V3ZM7,7h4V35H7Zm4,54H7V47h4Zm46,0H53V47h4Zm2-16H5V43H59Zm2-4H3V37H61Z"></path><rect x="15" y="31" width="4" height="2"></rect><rect x="25" y="31" width="4" height="2"></rect><rect x="26" y="7" width="2" height="20"></rect></svg>