<svg xmlns="http://www.w3.org/2000/svg" xmlns:xlink="http://www.w3.org/1999/xlink" version="1.1" x="0px" y="0px" viewBox="0 0 100 100"  xml:space="preserve"><path d="M40.5249023,75.171875c0.1137695,0.0429688,0.2348633,0.0654297,0.3569336,0.0654297h12.394043  c0.1220703,0,0.2431641-0.0224609,0.3569336-0.0654297c5.2269287-1.9975586,9.5030518-6.1585693,12.3071289-11.5537109h4.7207031  c3.7177734,0,6.7421875-3.0244141,6.7421875-6.7421875s-3.0244141-6.7421875-6.7421875-6.7421875h-1.1595459  c0.0311279-0.6083374,0.05896-1.2178955,0.05896-1.8349609v-4.5517578c0-0.5527344-0.4477539-1-1-1H25.597168  c-0.5522461,0-1,0.4472656-1,1v4.5517578C24.597168,60.7324219,30.9980469,71.53125,40.5249023,75.171875z M53.0883789,73.2373047  H41.0688477C34.765625,70.7518311,29.883728,64.5161133,27.760376,56.8505859h38.6364136  C64.2734985,64.5158081,59.3918457,70.7518311,53.0883789,73.2373047z M70.6606445,52.1337891  c2.6147461,0,4.7421875,2.1269531,4.7421875,4.7421875s-2.1274414,4.7421875-4.7421875,4.7421875h-3.7711182  c1.2476196-2.9060059,2.0829468-6.1077881,2.4486084-9.484375H70.6606445z M26.597168,44.7470703h40.9628906v3.5517578  c0,2.2440796-0.2405396,4.4402466-0.6789551,6.5517578H27.276062c-0.4384155-2.1114502-0.678894-4.3076172-0.678894-6.5517578  V44.7470703z"></path><path d="M43.9848633,39.4941406c0.5522461,0,1-0.4472656,1-1s-0.4477539-1-1-1  c-0.9575195,0-1.7368164-0.7792969-1.7368164-1.7373047c0-0.9570312,0.7792969-1.7363281,1.7368164-1.7363281  c2.0605469,0,3.7368164-1.6767578,3.7368164-3.7373047s-1.6762695-3.7373047-3.7368164-3.7373047c-0.5522461,0-1,0.4472656-1,1  s0.4477539,1,1,1c0.9575195,0,1.7368164,0.7792969,1.7368164,1.7373047s-0.7792969,1.7373047-1.7368164,1.7373047  c-2.0605469,0-3.7368164,1.6757812-3.7368164,3.7363281S41.9243164,39.4941406,43.9848633,39.4941406z"></path><path d="M52.2797852,39.4941406c0.5522461,0,1-0.4472656,1-1s-0.4477539-1-1-1  c-0.9575195,0-1.7368164-0.7792969-1.7368164-1.7373047c0-0.9570312,0.7792969-1.7363281,1.7368164-1.7363281  c2.0605469,0,3.7373047-1.6767578,3.7373047-3.7373047s-1.6767578-3.7373047-3.7373047-3.7373047c-0.5522461,0-1,0.4472656-1,1  s0.4477539,1,1,1c0.9580078,0,1.7373047,0.7792969,1.7373047,1.7373047s-0.7792969,1.7373047-1.7373047,1.7373047  c-2.0605469,0-3.7368164,1.6757812-3.7368164,3.7363281S50.2192383,39.4941406,52.2797852,39.4941406z"></path><path d="M88.9956055,12c0.5522461,0,1-0.4472656,1-1s-0.4477539-1-1-1h-78c-0.5522461,0-1,0.4472656-1,1s0.4477539,1,1,1H21  v5.5830078h-9.9858398c-0.5522461,0-1,0.4472656-1,1v61.25c0,0.5527344,0.4477539,1,1,1h1.2226562  c8.1879883,0,16.3378906,2.0078125,24.2236328,5.96875C40.684082,88.9238281,45.2382812,90,49.9956055,90  s9.3115234-1.0761719,13.5356445-3.1982422c7.8852539-3.9609375,16.0351562-5.96875,24.2236328-5.96875h1.2226562  c0.2651367,0,0.5200195-0.1054688,0.7075195-0.2929688s0.2924805-0.4423828,0.2924805-0.7080078l-0.0385742-61.25  c-0.0004883-0.5517578-0.4477539-0.9990234-1-0.9990234h-9.9472656V12H88.9956055z M87.9770508,78.8330078h-0.222168  c-8.5029297,0-16.9550781,2.0800781-25.1210938,6.1816406C58.6904297,86.9951172,54.4384766,88,49.9956055,88  s-8.6948242-1.0048828-12.6376953-2.9853516c-8.1665039-4.1015625-16.6186523-6.1816406-25.1210938-6.1816406h-0.2226562v-59.25  h75.925293L87.9770508,78.8330078z M76.9916992,17.5830078H23V12h53.9916992V17.5830078z"></path></svg>