<svg xmlns="http://www.w3.org/2000/svg" viewBox="0 0 64 64" x="0px" y="0px"><g><path d="M8,44h4a3.00328,3.00328,0,0,0,3-3V40h1a3,3,0,0,0,0-6H5v7A3.00328,3.00328,0,0,0,8,44Zm7-8h1a1,1,0,0,1,0,2H15ZM7,36h6v5a1.0013,1.0013,0,0,1-1,1H8a1.0013,1.0013,0,0,1-1-1Z"></path><path d="M9,32h2c0-.562.2168-.80273.707-1.293a3.48028,3.48028,0,0,0,0-5.41406C11.2168,24.80273,11,24.562,11,24H9a3.56363,3.56363,0,0,0,1.293,2.707c.49023.49024.707.731.707,1.293s-.2168.80273-.707,1.293A3.56363,3.56363,0,0,0,9,32Z"></path><path d="M34,19V15H32v4a1,1,0,0,1-2,0H28a3,3,0,0,0,6,0Z"></path><path d="M43,22a3.00328,3.00328,0,0,0,3-3V15H44v4a1,1,0,0,1-2,0H40A3.00328,3.00328,0,0,0,43,22Z"></path><path d="M55,22a3.00328,3.00328,0,0,0,3-3V15H56v4a1,1,0,0,1-2,0H52A3.00328,3.00328,0,0,0,55,22Z"></path><path d="M24,6V19a6.97353,6.97353,0,0,0,2,4.88965V24H22V20H2V48H22V43h4V58H60V23.88965A6.97353,6.97353,0,0,0,62,19V6ZM20,46H4V22H20Zm6-5H22V39h4Zm0-4H22V30h4Zm0-9H22V26h4ZM38,8H48V19a5,5,0,0,1-10,0ZM26,19V8H36V19a5,5,0,0,1-10,0ZM54,56H38.41406l5.293-5.293L42.293,49.293,35.58594,56H33.41406l6.293-6.293L38.293,48.293,32,54.58594V30H54Zm4,0H56V28H30V56H28V25.315a6.96084,6.96084,0,0,0,9-2.728,6.98049,6.98049,0,0,0,12,0,6.96084,6.96084,0,0,0,9,2.728Zm2-37a5,5,0,0,1-10,0V8H60Z"></path><polygon points="50 38 52 38 52 32 46 32 46 34 50 34 50 38"></polygon><rect x="50" y="40" width="2" height="2"></rect></g></svg>