<svg xmlns="http://www.w3.org/2000/svg" xmlns:xlink="http://www.w3.org/1999/xlink" version="1.1" x="0px" y="0px" viewBox="0 0 100 100" enable-background="new 0 0 100 100" xml:space="preserve"><g><path d="M80.635,64.559c0-5.711-3.775-10.557-8.959-12.175c0.205-0.562,0.33-1.161,0.33-1.796v-9.432l-0.842-3.2l-2.246-8.821   h-2.504v-6.443H24.958v6.443h-2.27l-2.38,8.638l-0.903,3.104l-0.04,9.711c0,2.071,1.189,3.853,2.909,4.751v21.97h46.112   c0.01-0.011,0.023-0.017,0.035-0.027C75.201,76.997,80.635,71.407,80.635,64.559z M26.958,24.691h37.456v4.443H26.958V24.691z    M21.366,50.588v-9.289l2.847-10.164h43.151l1.869,7.333l0.773,2.823v9.297c0,0.489-0.117,0.947-0.309,1.365   c-0.594-0.086-1.195-0.145-1.813-0.145c-1.416,0-2.773,0.241-4.047,0.669c-0.189-0.267-0.344-0.565-0.445-0.896l-0.957-3.111   l-0.955,3.111c-0.438,1.428-1.736,2.387-3.23,2.387c-1.496,0-2.795-0.959-3.232-2.387l-0.957-3.113l-0.955,3.113   c-0.439,1.428-1.736,2.387-3.232,2.387c-1.495,0-2.793-0.959-3.231-2.387l-0.956-3.113l-0.956,3.113   c-0.438,1.428-1.737,2.387-3.232,2.387c-1.494,0-2.793-0.959-3.231-2.387l-0.958-3.113l-0.954,3.114   c-0.438,1.427-1.736,2.386-3.232,2.386c-1.495,0-2.793-0.959-3.231-2.387l-0.956-3.113l-0.956,3.113   c-0.438,1.428-1.737,2.387-3.232,2.387C22.882,53.968,21.366,52.451,21.366,50.588z M42.878,55.784v8.648H29.464v-9.899   c0.969,0.899,2.256,1.435,3.657,1.435c1.674,0,3.192-0.755,4.189-1.993c0.997,1.238,2.515,1.993,4.187,1.993   C41.974,55.968,42.435,55.9,42.878,55.784z M48.016,75.309H24.275V55.92c0.157,0.015,0.31,0.048,0.471,0.048   c0.986,0,1.915-0.268,2.719-0.737v11.202h17.414V54.779c0.296-0.238,0.567-0.507,0.808-0.805c0.997,1.238,2.515,1.993,4.188,1.993   c1.673,0,3.191-0.755,4.187-1.993c0.998,1.238,2.516,1.993,4.189,1.993c0.088,0,0.172-0.017,0.26-0.021   c-0.473,0.514-0.906,1.06-1.291,1.646h-9.203V75.309z M60.949,75.309H50.016V59.593h6.125c-0.646,1.527-1.006,3.205-1.006,4.966   c0,4.473,2.32,8.407,5.814,10.684V75.309z M67.885,75.309c-5.928,0-10.75-4.822-10.75-10.75s4.822-10.75,10.75-10.75   s10.75,4.822,10.75,10.75S73.813,75.309,67.885,75.309z"></path><rect x="62.178" y="63.184" width="11.414" height="2.75"></rect></g></svg>