<svg xmlns="http://www.w3.org/2000/svg" xmlns:xlink="http://www.w3.org/1999/xlink" version="1.1" x="0px" y="0px" viewBox="0 0 100 100" enable-background="new 0 0 100 100" xml:space="preserve"><g><g><g><path d="M58.961,65.105c1.173-1.169,1.503-1.884,1.921-2.789c0.499-1.08,1.063-2.304,2.765-4.004     c0.539-0.538,1.028-0.963,1.482-1.308c-0.132-0.01-0.264-0.015-0.399-0.015c-1.913,0-4.008,0.953-5.604,2.549     c-2.155,2.155-3.029,5.032-2.314,7.181C57.456,66.393,58.079,65.988,58.961,65.105z"></path><path d="M50,76.072h27.692V52.335H50V76.072z M70.939,58.553c0.645-0.317,1.422-0.13,1.849,0.444     c2.482,3.337,1.624,8.584-1.997,12.207c-2.172,2.172-4.979,3.418-7.703,3.418c-1.87-0.001-3.548-0.587-4.853-1.697     c-0.386-0.328-0.577-0.832-0.509-1.333c0.069-0.501,0.392-0.934,0.852-1.145l0.28-0.129c0.979-0.454,1.823-0.845,3.146-2.169     c1.324-1.324,1.716-2.168,2.17-3.146c0.455-0.986,0.969-2.101,2.515-3.647c1.543-1.543,2.609-2.037,3.642-2.514     C70.556,58.737,70.745,58.65,70.939,58.553z M57.028,57.44c2.171-2.171,4.979-3.417,7.701-3.417c1.812,0,3.449,0.554,4.737,1.601     c0.396,0.323,0.599,0.827,0.535,1.334c-0.062,0.507-0.381,0.946-0.845,1.162l-0.258,0.119c-0.986,0.457-1.83,0.847-3.155,2.173     c-1.327,1.327-1.718,2.171-2.168,3.149c-0.479,1.034-0.972,2.102-2.518,3.645c-1.541,1.542-2.608,2.036-3.641,2.513l-0.097,0.045     c-0.167,0.078-0.334,0.155-0.507,0.241c-0.21,0.104-0.436,0.153-0.657,0.153c-0.468,0-0.924-0.22-1.209-0.623     C52.573,66.199,53.468,61,57.028,57.44z"></path><path d="M16.374,46.149v36.845h24.725V46.149H16.374z M36.648,69.643c-0.819,0-1.483-0.665-1.483-1.483v-6.923     c0-0.82,0.664-1.483,1.483-1.483s1.483,0.664,1.483,1.483v6.923C38.132,68.979,37.468,69.643,36.648,69.643z"></path><path d="M83.626,46.149h-39.56v36.845h39.56V46.149z M80.659,76.338c0,1.488-1.211,2.7-2.7,2.7H49.733     c-1.489,0-2.7-1.212-2.7-2.7v-24.27c0-1.489,1.211-2.701,2.7-2.701h28.226c1.489,0,2.7,1.211,2.7,2.701V76.338z"></path><path d="M62.524,71.626c0.184,0.019,0.371,0.029,0.563,0.029c1.914,0,4.009-0.953,5.605-2.549     c2.163-2.164,3.031-5.131,2.272-7.281c-0.662,0.334-1.289,0.738-2.179,1.628c-1.171,1.171-1.501,1.885-1.917,2.788     c-0.504,1.087-1.07,2.308-2.767,4.004C63.526,70.823,63.005,71.269,62.524,71.626z"></path></g><g><rect x="66.319" y="37.997" width="11.868" height="5.165"></rect><rect x="36.648" y="37.997" width="11.868" height="5.165"></rect><rect x="51.483" y="37.997" width="11.869" height="5.165"></rect><rect x="81.155" y="37.997" width="11.867" height="5.186"></rect><rect x="6.978" y="37.997" width="11.868" height="5.165"></rect><rect x="21.813" y="37.997" width="11.868" height="5.165"></rect></g><g><polygon points="78.791,10.082 72.718,10.082 80.752,35.03 92.038,35.03    "></polygon><polygon points="21.209,10.082 7.962,35.03 19.249,35.03 27.283,10.082    "></polygon><polygon points="36.647,10.082 30.4,10.082 22.365,35.03 33.839,35.03    "></polygon><polygon points="69.601,10.082 63.354,10.082 66.162,35.03 77.636,35.03    "></polygon><polygon points="48.517,10.082 39.633,10.082 36.824,35.03 48.517,35.03    "></polygon><polygon points="60.368,10.082 51.483,10.082 51.483,35.03 63.177,35.03    "></polygon></g></g><rect x="5" y="85.962" width="90" height="3.956"></rect></g></svg>