<svg xmlns="http://www.w3.org/2000/svg" xmlns:xlink="http://www.w3.org/1999/xlink" version="1.1" x="0px" y="0px" viewBox="0 0 100 100" enable-background="new 0 0 100 100" xml:space="preserve"><g><path  d="M59.966,27.493c1.574,0.318,1.809-1,2.099-1.958c0.857-2.827,0.293-5.775,0.794-9.391   c-2.972,2.887-3.45,5.871-3.462,8.972C59.394,25.901,58.155,27.127,59.966,27.493z"></path><path  d="M61.069,13.01c-0.666-1.138-1.909-1.146-3.231-0.56c0.567,1.204,1.695,2.059,1.685,4.256   C60.381,14.97,61.839,14.326,61.069,13.01z"></path><path  d="M69.689,29.871c-0.952-0.041-0.991,0.599-0.926,1.286c0.366,3.869,0.738,7.738,1.108,11.607   c0.163-0.011,0.326-0.021,0.489-0.031c0-3.888,0.009-7.778-0.012-11.666C70.345,30.592,70.549,29.907,69.689,29.871z"></path><path  d="M64.763,25.646c-0.112,0.866-0.705,1.903,0.782,2.097c1.033,0.135,1.841,0.685,2.93-0.775   c1.749-2.344,1.969-4.751,1.96-7.837c0.087-1.482,0.078-3.446-0.733-5.227c-0.739-1.624-2.199-2.149-3.917-1.706   c-1.127,0.29-1.656,0.961-1.358,2.25C65.283,18.151,65.249,21.898,64.763,25.646z"></path><path  d="M54.598,26.742c1.71-1.395,3.265-9.066,2.252-10.999c-0.281-0.536-0.642-1.208-1.401-1.176   c-0.636,0.027-0.772,0.685-1.102,1.107c-1.854,2.374-1.019,5.11-1.06,7.348c-0.085,1.292-0.22,2.21-0.188,3.122   C53.141,27.334,53.943,27.277,54.598,26.742z"></path><path  d="M59.64,30.143c-2.291,1.316-4.489-0.603-6.749-0.193c-0.676,0.123-0.699,0.768-0.88,1.273   c-0.556,1.549-1.097,3.104-1.685,4.641c-0.301,0.788-0.702,1.625-1.76,1.351c-1.148-0.298-1.281-1.258-0.998-2.206   c0.315-1.051,0.744-2.079,1.227-3.066c0.694-1.414,0.928-2.33-1.25-2.312c-2.658,0.022-5.333-0.106-7.973-0.416   c-2.633-0.308-4.725-0.277-4.706,3.238c0.003,0.642-0.113,1.937-1.265,1.79c-1.093-0.14-1-1.305-0.83-2.032   c0.773-3.299-1.087-3.831-3.692-3.736c-0.543,0.02-1.122-0.055-1.633-0.234c-1.317-0.461-1.801,0.152-2.106,1.336   c-0.641,2.487-1.253,4.992-2.095,7.414c-4.933,14.2-8.292,28.895-13.52,42.997c-0.736,1.986-0.064,2.575,1.7,2.89   c3.872,0.691,7.707,1.666,11.603,2.133c9.496,1.136,19.102,0.762,28.605,1.884c0.918,0.054,1.846,0.045,2.753,0.18   c1.13,0.168,1.692-0.049,1.62-1.379c-0.339-6.28,0.873-12.439,1.548-18.64c1.231-11.318,2.372-22.646,3.806-33.938   C61.6,31.235,60.172,31.136,59.64,30.143z"></path><path  d="M71.684,74.876c-2.37-11.032-3.969-22.172-4.779-33.429c-0.23-3.194-0.684-6.371-0.965-9.562   c-0.076-0.867-0.31-1.434-1.24-1.452c-1.05-0.021-0.756,0.806-0.809,1.385c-0.246,2.65-0.435,5.306-0.724,7.951   c-1.049,9.573-1.779,19.178-3.115,28.724c-0.846,6.05-1.69,12.121-1.568,18.674c2.994-2.206,4.852-5.202,8.563-5.425   c5.65-0.34,5.648-0.4,4.823-6.064C71.832,75.407,71.741,75.145,71.684,74.876z"></path><path  d="M82.391,51.981c-2.15-6.712-3.641-13.628-5.038-20.551c-0.203-1.002,0.277-2.973-2.099-2.789   c-2.345,0.182-2.236,1.633-2.167,3.267c0.365,8.537-0.266,17.091,0.659,25.628c0.781,7.209,1.562,14.402,3.492,22.381   c1.846-3.09,3.85-4.788,7.02-4.354c1.447,0.198,2.942,0.042,4.414,0.083c3.297,0.09,3.575-0.179,1.916-2.986   C86.764,66.187,84.651,59.038,82.391,51.981z"></path><path  d="M49.038,23.276c0.214-0.793,0.518-1.566,0.836-2.325c0.652-1.556,0.279-2.955-0.435-4.45   c-2.064,2.265-4.864,7.428-5.648,10.31C47.983,27.217,47.972,27.215,49.038,23.276z"></path><path  d="M39.135,26.415c1.786,0.557,2.636-0.019,3.285-1.929c0.963-2.835,1.946-5.722,3.662-8.264   c0.464-0.687,1.686-1.441,0.913-2.285c-0.684-0.748-1.859-0.243-2.829,0.147c-1.321,0.532-2.361,1.362-3.195,2.492   c-1.58,2.142-2.88,4.412-3.802,6.939C36.408,25.597,35.945,27.135,39.135,26.415z"></path><path d="M94.56,74.962c-1.155-2.59-2.653-5.034-3.727-7.654c-4.706-11.481-7.932-23.383-10.564-35.513   c-1.698-7.826-0.454-6.346-8.02-5.616c1.141-3.919,1.338-7.818,0.273-11.695c-1.158-4.218-4.667-5.799-8.559-3.888   c-0.622,0.306-1.083,1.008-1.911,0.336c-2.045-1.659-4.02-0.814-6.187-0.04c-2.205,0.788-4.653,1.889-6.972,0.822   c-2.142-0.985-4.059-0.946-6.056-0.013c-3.871,1.809-5.527,5.448-7.384,8.953c-0.924,1.741-0.366,4.599-2.371,5.213   c-1.857,0.568-4.144-0.264-6.242-0.48c-0.092-0.01-0.186-0.015-0.272-0.046c-1.924-0.701-2.745,0.029-3.31,1.981   C18.163,44.919,12.09,62.231,7.911,80.095c-0.174,0.742-0.503,1.171-1.209,1.278c-1.037,0.156-1.795,0.611-1.693,1.757   c0.1,1.124,1.082,1.358,1.966,1.63c5.273,1.623,10.766,2.257,16.171,3.042c6.247,0.908,12.648,0.696,18.965,1.186   c4.663,0.362,9.327,0.756,13.979,1.17c1.981,0.175,3.236-0.088,4.508-1.37c3.112-3.134,6.629-4.848,11.301-4.383   c2.588,0.259,5.376-0.602,7.036-3.055c2.231-3.298,5.256-3.906,8.913-3.14c1.419,0.298,2.928,0.258,4.393,0.231   C94.809,78.392,95.59,77.27,94.56,74.962z M65.785,12.198c1.719-0.443,3.178,0.082,3.917,1.706c0.811,1.781,0.82,3.745,0.733,5.227   c0.009,3.086-0.211,5.493-1.96,7.837c-1.089,1.46-1.897,0.91-2.93,0.775c-1.487-0.194-0.894-1.231-0.782-2.097   c0.486-3.748,0.52-7.496-0.335-11.198C64.13,13.159,64.658,12.489,65.785,12.198z M70.36,42.732   c-0.163,0.01-0.326,0.02-0.489,0.031c-0.37-3.869-0.742-7.738-1.108-11.607c-0.065-0.687-0.027-1.326,0.926-1.286   c0.861,0.036,0.657,0.721,0.659,1.196C70.369,34.955,70.36,38.844,70.36,42.732z M62.859,16.144   c-0.501,3.616,0.063,6.564-0.794,9.391c-0.29,0.959-0.525,2.277-2.099,1.958c-1.81-0.367-0.572-1.593-0.569-2.377   C59.409,22.015,59.887,19.032,62.859,16.144z M61.069,13.01c0.77,1.316-0.688,1.96-1.546,3.696c0.01-2.197-1.118-3.052-1.685-4.256   C59.161,11.865,60.403,11.873,61.069,13.01z M54.347,15.674c0.33-0.422,0.465-1.081,1.102-1.107   c0.759-0.032,1.121,0.64,1.401,1.176c1.013,1.933-0.542,9.604-2.252,10.999c-0.656,0.535-1.457,0.592-1.498-0.598   c-0.032-0.911,0.102-1.829,0.188-3.122C53.329,20.784,52.494,18.048,54.347,15.674z M49.439,16.501   c0.714,1.495,1.087,2.894,0.435,4.45c-0.318,0.759-0.622,1.532-0.836,2.325c-1.066,3.939-1.055,3.941-5.247,3.535   C44.575,23.929,47.376,18.766,49.439,16.501z M37.168,23.516c0.922-2.527,2.223-4.796,3.802-6.939   c0.834-1.131,1.874-1.96,3.195-2.492c0.97-0.391,2.146-0.895,2.829-0.147c0.773,0.844-0.449,1.598-0.913,2.285   c-1.715,2.542-2.699,5.429-3.662,8.264c-0.649,1.91-1.499,2.486-3.285,1.929C35.945,27.135,36.408,25.597,37.168,23.516z    M56.008,85.696c0.072,1.329-0.49,1.547-1.62,1.379c-0.907-0.135-1.835-0.126-2.753-0.18c-9.503-1.122-19.109-0.748-28.605-1.884   c-3.896-0.466-7.731-1.442-11.603-2.133c-1.764-0.315-2.436-0.904-1.7-2.89c5.229-14.102,8.587-28.797,13.52-42.997   c0.842-2.422,1.454-4.927,2.095-7.414c0.305-1.184,0.789-1.797,2.106-1.336c0.511,0.179,1.09,0.254,1.633,0.234   c2.605-0.095,4.466,0.438,3.692,3.736c-0.17,0.727-0.263,1.892,0.83,2.032c1.152,0.148,1.268-1.148,1.265-1.79   c-0.019-3.516,2.072-3.546,4.706-3.238c2.64,0.309,5.315,0.438,7.973,0.416c2.178-0.018,1.944,0.898,1.25,2.312   c-0.483,0.987-0.913,2.015-1.227,3.066c-0.283,0.948-0.151,1.908,0.998,2.206c1.057,0.274,1.458-0.563,1.76-1.351   c0.588-1.537,1.129-3.092,1.685-4.641c0.181-0.505,0.203-1.15,0.88-1.273c2.26-0.41,4.458,1.509,6.749,0.193   c0.532,0.993,1.96,1.093,1.721,2.976c-1.434,11.291-2.574,22.62-3.806,33.938C56.881,73.257,55.669,79.416,56.008,85.696z    M67.049,81.741c-3.712,0.223-5.57,3.22-8.563,5.425c-0.123-6.553,0.721-12.625,1.568-18.674   c1.336-9.546,2.065-19.151,3.115-28.724c0.289-2.645,0.478-5.301,0.724-7.951c0.053-0.578-0.24-1.406,0.809-1.385   c0.93,0.018,1.164,0.585,1.24,1.452c0.281,3.191,0.735,6.368,0.965,9.562c0.81,11.257,2.408,22.397,4.779,33.429   c0.057,0.268,0.148,0.531,0.187,0.801C72.696,81.341,72.699,81.402,67.049,81.741z M88.673,75.646   c-1.472-0.041-2.967,0.115-4.414-0.083c-3.17-0.434-5.174,1.264-7.02,4.354c-1.93-7.979-2.711-15.172-3.492-22.381   c-0.925-8.537-0.294-17.09-0.659-25.628c-0.07-1.633-0.178-3.084,2.167-3.267c2.376-0.184,1.897,1.786,2.099,2.789   c1.397,6.924,2.888,13.839,5.038,20.551c2.26,7.057,4.374,14.207,8.198,20.679C92.247,75.467,91.97,75.736,88.673,75.646z"></path></g></svg>