<svg xmlns="http://www.w3.org/2000/svg" xmlns:xlink="http://www.w3.org/1999/xlink" version="1.1" x="0px" y="0px" viewBox="0 0 30 30" xml:space="preserve"><g transform="translate(-150 -140)"><g xmlns="http://www.w3.org/2000/svg" xmlns:xlink="http://www.w3.org/1999/xlink"><path d="M154,168h-2v1h26v-1h-2v-2h-1v-8v-3h-20v11h-1V168z M164,158h9v4h-9V158z M157,158h5v8h-5V158z"></path><rect x="164" y="158"  width="9" height="4" opacity="0"></rect><path  d="M162,158h-5v8h5V158z M161,161h-3v-2h3V161z" opacity="0"></path><rect x="158" y="159" width="3" height="2"></rect><rect x="158" y="145" width="2" height="9"></rect><rect x="162" y="145" width="2" height="9"></rect><rect x="166" y="145" width="2" height="9"></rect><rect x="170" y="145" width="2" height="9"></rect><path d="M176,147c0-1.105-0.896-2-2-2v9h2V147z"></path><path d="M156,148v-3c-1.105,0-2,0.895-2,2v7h2V148z"></path></g></g></svg>