<svg xmlns="http://www.w3.org/2000/svg" viewBox="0 0 128 128" x="0px" y="0px"><g><path d="M70.831,63.166a13.492,13.492,0,0,0,1.524-.4l.912-.317-.887-.382a10.821,10.821,0,0,1-1.554-.825l-.284-.105-.21.175a7.226,7.226,0,0,0-1.758,1.836l-.577,1,1.054-.468A9.162,9.162,0,0,1,70.831,63.166Z"></path><path d="M76.681,62.238l.943.243.148-.224a11.437,11.437,0,0,1,.842-1.133l.408-.478L77.875,60.4a21.2,21.2,0,0,0-6.124-.715l-1.158.082.988.61A18.029,18.029,0,0,0,76.681,62.238Z"></path><path d="M69.479,60.53,69.6,60.4v-.527l-.358-.016a5.3,5.3,0,0,1-2-.461l-.5-.22c-.638-.279-1.36-.595-2.036-.96l-1.005-.543.721,1.53a23.377,23.377,0,0,0,2.206,4l.388.526.258-.6A7.864,7.864,0,0,1,69.479,60.53Z"></path><path d="M20.947,57.024a3.906,3.906,0,0,1,.008-.431,2.894,2.894,0,0,1-1.255-.9c-.385.57-.762,1.147-1.109,1.748A18.535,18.535,0,0,0,17.4,59.657c-.4.993-.331,1.624.031,2,1.124,1.186,5.112-.162,6.328-1.008a4.706,4.706,0,0,1-1.809-1.163.989.989,0,0,0-.108-.077,2.87,2.87,0,0,1-.808-1.016,1.47,1.47,0,0,1-.116-.369l-.023-.1-.008-.107v-.123l-.015-.239a3.536,3.536,0,0,1,.054-.362Z"></path><path d="M104.364,77.562a2.776,2.776,0,0,1-.9-.893,4.434,4.434,0,0,1-.354-.685l-.131-.392c-.038-.131-.054-.224-.084-.339a2.042,2.042,0,0,1-.024-.508l.024-.347c.015-.2.023-.377.023-.515a.912.912,0,0,0-.316-.062c-.2-.015-.393-.023-.585-.038-.108-.023-.223-.039-.331-.054a2.148,2.148,0,0,1-.423-.147,1.028,1.028,0,0,1-.27-.184l-.046-.039-.023-.023-.008-.008-.008-.007a.935.935,0,0,1-.1-.093l-.092-.169a1.208,1.208,0,0,1-.115-.285,1.6,1.6,0,0,1-1.124.123,1.845,1.845,0,0,1-.932-.592l-.131-.17-.061-.092-.016-.023-.046-.069-.031-.062a3.868,3.868,0,0,1-.238-.5,3.322,3.322,0,0,1-.177-1.171v-.03a.666.666,0,0,0-.147-.039,4.826,4.826,0,0,1-2.163-.739,2.207,2.207,0,0,1-.439-.493,2.237,2.237,0,0,1-1.4.539,3.569,3.569,0,0,1-2.14-.739,6.359,6.359,0,0,1-1.747-2c-.016-.023-.023-.046-.039-.07a2.132,2.132,0,0,1-.924-.053,2.673,2.673,0,0,1-1.177-.716,2.332,2.332,0,0,1-.362-.5,3.451,3.451,0,0,1-.154-.431c-2.132,1.871.947,4.042,1.717,5.858a8.788,8.788,0,0,1,.785,3.619c1.563-1.956,3.649-3.542,6.3-2.064,2.532,1.4,3.371,4.435,3.364,7.16a.513.513,0,0,1-.016.108,12.378,12.378,0,0,0,2.471,3.618A25.806,25.806,0,0,1,104.364,77.562Z"></path><path d="M76.92,51.1a.813.813,0,0,0,.039.131c.077.185.146.377.223.577a11.449,11.449,0,0,1,.223-1.432c.139-.662.246-.947.331-.947s.123.316.116.994-.031,1.755.007,3.256a5.463,5.463,0,0,0,.6,2.363,1.029,1.029,0,0,0,.385.37.418.418,0,0,0,.231.061.569.569,0,0,1,.115.016c.031,0,.031-.023.054-.023s.038-.024.054-.047a1.776,1.776,0,0,1,.146-.746V55.33c.008-.662.008-1.362.008-2.1s.077-1.494.115-2.294c.008-.2.023-.408.031-.609,0-.184,0-.377.008-.562-.016-.184-.054-.354-.07-.538a3.035,3.035,0,0,0-.177-.47A2.019,2.019,0,0,0,78.8,48.1c-.6-.293-1.224-.555-1.816-.8a7.828,7.828,0,0,1-.224,1.724c.016.254.024.524.039.832C76.82,50.242,76.851,50.665,76.92,51.1Z"></path><path d="M74.911,56.139c-.008,0-.046.038-.154.238a3.872,3.872,0,0,1-.793.978,5.938,5.938,0,0,1-.8.646c.224,0,.447-.007.67,0,2.125.039,4.319.893,6.42,1.309a.008.008,0,0,0,.008-.008,2.727,2.727,0,0,1-.346-.485,4.436,4.436,0,0,1-.508-1.354,1.674,1.674,0,0,1-1.555-.616c-.247-.054-.493-.108-.709-.17-.246-.084-.477-.161-.708-.238a5.855,5.855,0,0,0-1.193-.285A2.1,2.1,0,0,0,74.911,56.139Z"></path><path d="M55.82,49.1c-.586.069-1.44.131-2.495.2-1.047.108-2.294.231-3.679.369-.7.062-1.432.131-2.194.2-.762.038-1.548.084-2.348.123-1.625.077-3.172.054-4.558.054s-2.625.007-3.656.092c-2.04.131-3.341.462-3.387.262-.047-.147,1.116-.785,3.279-1.17a28.227,28.227,0,0,1,3.741-.385c1.386-.047,2.918-.093,4.519-.147l1.124-.046c-.47-.069-.947-.146-1.416-.231l-.431-.038.1-.023c-.955-.177-1.917-.385-2.918-.624-3.672-.862-7.652-1.678-11.309-.308a21.732,21.732,0,0,0-8.521,5.589c-.624.839-.762,1.609.408,1.94a.957.957,0,0,1,.392.216,7.354,7.354,0,0,1,1.278-.609,12.172,12.172,0,0,1,2.271-.569c.539-.077.839-.085.87,0s-.231.254-.731.485c-.485.231-1.217.508-2.048.931a7.084,7.084,0,0,0-1.232.77.3.3,0,0,1,0,.085,2.247,2.247,0,0,0,1.286,2.579,7.718,7.718,0,0,0,3.241.408,1.151,1.151,0,0,1,.238.023c.124-.039.254-.07.378-.108,1.162-.362,2.224-.839,3.171-1.132a7.1,7.1,0,0,1,2.348-.408c.57.023.847.131.855.216s-.316.154-.816.292a11.588,11.588,0,0,0-2.056.755c-.677.308-1.447.716-2.355,1.1,6.1,2.463,12.5,2.432,18.96.931,4.75-1.108,8.991-3.626,13.7-4.788a4.238,4.238,0,0,1-.193-.416,4.86,4.86,0,0,1,.955-5.065A20.119,20.119,0,0,0,55.82,49.1Zm-9.808,5.758c-1.609.277-3.11.416-4.149.539-1.17.146-1.809-.093-1.817-.247-.015-.2.693-.307,1.624-.654a27.947,27.947,0,0,1,4.127-.916c3.24-.523,5.935-.57,5.989-.231C51.84,53.714,49.253,54.329,46.012,54.853Z"></path><path d="M74.872,49a1.407,1.407,0,0,0-.346-.446A2.532,2.532,0,0,0,74,48.2a8.1,8.1,0,0,0-1.94-.67c-.516-.077-.8-.154-.8-.246s.285-.177.8-.254c.185-.008.4-.008.639,0-.008-.023-.031-.047-.039-.07a3.667,3.667,0,0,1-.161-.385c-.046.008-.085.024-.139.031-2.694.37-4.434,2.364-6.582,3.834-3.687,2.517-2.625,5.389.847,6.982a8.553,8.553,0,0,0,4.195.693A5.866,5.866,0,0,0,73.21,56.6a3.132,3.132,0,0,0,.592-.777.132.132,0,0,1,.016-.039,2.945,2.945,0,0,1-.87-.284,5.578,5.578,0,0,1-1.3-.9c-.169-.154-.323-.308-.462-.454-.085-.093-.169-.177-.246-.262a2.907,2.907,0,0,1-.478.939,4.21,4.21,0,0,1-1.478,1.139,4.134,4.134,0,0,1-1.362.4,2.357,2.357,0,0,1-1.732-.262c-.339-.3-.247-.539-.185-.539.085-.031.177.1.4.146a3.106,3.106,0,0,0,1.363-.146,3.794,3.794,0,0,0,1.054-.446,3.576,3.576,0,0,0,1.094-.932,1.758,1.758,0,0,0,.277-.677l.03-.185c.008-.008-.007-.139-.007-.216l-.023-.261-.016-.27-.007-.131c0-.038-.039-.115.03-.1.185-.03.37-.054.555-.084l.5-.07.27-.054a3.2,3.2,0,0,0,.508-.13,1.4,1.4,0,0,0,.338-.17,5.042,5.042,0,0,1-.523-.192,3.231,3.231,0,0,1-1.163-.947,2.678,2.678,0,0,1-.423-.824c-.062-.2-.069-.315-.023-.346.115-.062.362.308.885.762a3.428,3.428,0,0,0,1.055.57,6.252,6.252,0,0,0,1.6.231l.423.015.062.485a4.822,4.822,0,0,0,.785,2.271,1,1,0,0,0,.762.462l.2-.016a.776.776,0,0,0,.085-.023.458.458,0,0,0,.216-.077.332.332,0,0,0,.2-.246,1.624,1.624,0,0,0,.015-.731,6.292,6.292,0,0,0-.208-.886c-.184-.608-.423-1.17-.639-1.793A12.775,12.775,0,0,0,74.872,49Z"></path><path d="M81.131,58.625a.672.672,0,0,0,.331.169.531.531,0,0,0,.154.016l.069-.023a.068.068,0,0,1-.007-.023l.115-.024c0-.007,0-.007.008-.007l.046-.1c0-.077.008-.016.008-.046a1.82,1.82,0,0,0-.139-.239c-.069-.108-.154-.216-.262-.408a1.259,1.259,0,0,1-.138-.885,1.406,1.406,0,0,1,.492-.732.141.141,0,0,0,.047-.031,2.3,2.3,0,0,1,.107-1.454,2.326,2.326,0,0,1,.732-.909c-.632-1.27-.647-2.917-1.486-4.034a4.07,4.07,0,0,0-.485-.546A9.594,9.594,0,0,1,80.7,51c-.046.793-.123,1.563-.139,2.271s-.03,1.386-.046,2.025a4.84,4.84,0,0,1-.085,1.077,1.832,1.832,0,0,1-.238.586,5.279,5.279,0,0,0,.623,1.285A2.476,2.476,0,0,0,81.131,58.625Z"></path><path d="M97.108,52.9c.086.226.171.447.261.664a.265.265,0,0,1,.014.157l-.052.272.244.13a3.24,3.24,0,0,1,.961.8l.176.206.417-.171a1.548,1.548,0,0,1,.281-.072l.179-.036.082-.162a.331.331,0,0,0,.037-.1,4.677,4.677,0,0,0,.1-3.527,1.885,1.885,0,0,0-1.257-1.066,4.272,4.272,0,0,0-2.534.088l-.526.226.417.392A5.875,5.875,0,0,1,97.108,52.9Z"></path><path d="M84.375,91.757l-.328.028c-.559.047-1.114.109-1.666.171l-1.951.208,1.043.576a4.39,4.39,0,0,0,2.164.58,4.528,4.528,0,0,0,.632-.044l.376-.051-.056-.376c-.04-.262-.088-.517-.144-.771Z"></path><path d="M91.108,53.365a1.3,1.3,0,0,1,.691.233,2.221,2.221,0,0,1,.23.2l.238.236.261-.209a1.234,1.234,0,0,1,.4-.219,2,2,0,0,1,1.04-.023,3.134,3.134,0,0,1,.977.394,3.432,3.432,0,0,1,.409.3l.233.209.247-.193a1.165,1.165,0,0,1,.172-.12l.287-.156-.116-.306c-.05-.132-.1-.283-.148-.441-.243-.76-.575-1.8-1.507-1.983a.353.353,0,0,1-.124-.043l-.117-.065-.133.025c-.3.058-.613.088-.921.12-.354.036-.707.073-1.053.143-.825.163-1.5.392-1.441,1.543l.02.354Z"></path><path d="M99.861,56.177c.2.339.377.654.538.939.2.347.555,1.324.978,1.409-.208-.046.654-.862.708-.9a4.459,4.459,0,0,1,1.317-.677,4.058,4.058,0,0,1,.608-.139c.115-.046.231-.092.362-.131a1.955,1.955,0,0,0-2.063-1.378,1.453,1.453,0,0,0-1.047.593l-.424.562-.492-.416c-.085-.061-.162-.115-.239-.161a1.06,1.06,0,0,1-.293-.116A3.678,3.678,0,0,0,99.861,56.177Z"></path><path d="M82.54,57.378c.038.092.123.231.192.369.154.293.17.917.477,1.017a.717.717,0,0,1-.123.092h-.054a1.268,1.268,0,0,1-.192.523,1.255,1.255,0,0,1-.493.432c1.525,1.062,3.133,2.009,4.688,3.033A1.181,1.181,0,0,1,87.22,63c.016.007.023.007.039.015.131-.508.277-.778.385-.778.184,0,.246.67.331,1.617a2.866,2.866,0,0,0,.146.693,1.559,1.559,0,0,0,.131.277c.023.008.208.269.261.254.3.285,1.04.447,1.186.254l.531-.693.462.955c.085.161.154.331.246.493a6.29,6.29,0,0,0,1.355,1.685,3.175,3.175,0,0,0,1.448.77,2.624,2.624,0,0,0,1.139-.084c-.008-.016-.016-.024-.016-.039a3.8,3.8,0,0,1-.161-.87,7.584,7.584,0,0,1,.008-1.147c.015-.277.061-.446.146-.462s.208.1.346.347a8.789,8.789,0,0,1,.408,1.093,1.76,1.76,0,0,0,.647,1.07,2.181,2.181,0,0,0,.693.254c.3.061.6.077,1.062.185a1.718,1.718,0,0,1,.777.377,1.063,1.063,0,0,1,.308.577,1.93,1.93,0,0,1,.024.393,2.281,2.281,0,0,0,.046.793,1.926,1.926,0,0,0,.115.354l.016.046.046.1.108.185a.9.9,0,0,0,.323.315,1.4,1.4,0,0,0,.754.147,4.442,4.442,0,0,1,.17-1.217c.092-.315.177-.5.269-.5s.177.185.231.524c.069.331.1.823.239,1.3.046.093.077.216.131.255l.046.03c.069.039.169.116.169.07.039-.016,0-.008.092,0l.208.007c.185-.007.37-.007.562-.015a2.407,2.407,0,0,1,.8.123,1.631,1.631,0,0,1,.485.316c.038.054.1.138.1.138a.332.332,0,0,0,.038.07c.008.03.016.03.039.1a1.618,1.618,0,0,1,.077.369,4.579,4.579,0,0,1-.008.739c-.007.154-.007.316-.015.477a2.494,2.494,0,0,0,.87,1.571c1.362-1.994,2.956-3.826,3.795-6.082l-.362.116.131-.732a2.561,2.561,0,0,0-.008-1.016c.023-.192-.238-.408-.161-.523a.25.25,0,0,1,.2-.131c.077-.046.338.031.523.177a1.581,1.581,0,0,1,.354.447.768.768,0,0,1,.177-.093,5.99,5.99,0,0,0,.293-.985c.008-.039.008-.069.015-.1-.077-.108-.161-.224-.254-.331l-.362-.408.37-.454a3.269,3.269,0,0,0,.477-.724,1.9,1.9,0,0,0,.008-1.532,3.213,3.213,0,0,1-.416,1.062c-.608.916-1.293,1.07-1.339.955-.093-.139.354-.508.639-1.309a2.2,2.2,0,0,0,.092-1.339,1.011,1.011,0,0,0-.362-.524,1.773,1.773,0,0,0-.746-.254l-1.009-.161.639-.878a1.213,1.213,0,0,0,.231-.585,2.4,2.4,0,0,0-.077-.793,1.893,1.893,0,0,0-.6-.939c-.108-.046-.17-.077-.247-.054-.046,0-.092.038-.154.054a1.56,1.56,0,0,1-.177.146l-.454.331-.408-.308c-.069-.054-.154-.169-.192-.169-.016-.008-.016-.016-.024-.023a.726.726,0,0,0-.23.285,6.7,6.7,0,0,0-.432,1.185c-.207.716-.3,1.139-.431,1.147s-.285-.454-.269-1.247a4.7,4.7,0,0,1,.231-1.463,1.522,1.522,0,0,1,.77-.946.774.774,0,0,1,.292-.078c-.031,0-.523-.477-.747-.5a1.98,1.98,0,0,0-.954.231,5.566,5.566,0,0,0-1.617,1.147,2.243,2.243,0,0,0-.338.462l-.316.554-.539-.215a1.1,1.1,0,0,0-.57-.093,1.171,1.171,0,0,0-.515.262,1.709,1.709,0,0,0-.547.985,1.3,1.3,0,0,0,.1.739c.116.2.216.339.162.4s-.2.084-.447-.031A1.411,1.411,0,0,1,98.56,61.1a2.339,2.339,0,0,1,.585-1.794,2.512,2.512,0,0,1,.662-.516c-.085-.054-.185-.115-.254-.154a2.261,2.261,0,0,0-.855-.369,1.052,1.052,0,0,0-.724.239l-.739.508-.254-.886c-.053-.177-.238-.331-.646-.423a3.08,3.08,0,0,0-1.655.192,1.538,1.538,0,0,0-.516.362.4.4,0,0,0-.046.324l.154,1.123-.87-.377a1.852,1.852,0,0,0-1.14-.138,1.55,1.55,0,0,0-.785.492c-.084.108-.161.208-.223.3a2.834,2.834,0,0,0-.162.284c-.092.162-.169.239-.223.224s-.092-.116-.108-.3a1.329,1.329,0,0,1,.008-.346,3.935,3.935,0,0,1,.154-.5,2.042,2.042,0,0,1,1.016-1.009,2.461,2.461,0,0,1,1.047-.185,1.348,1.348,0,0,1,.169-.531,2.444,2.444,0,0,1,.986-.847,4.011,4.011,0,0,1,2.44-.338,2.012,2.012,0,0,1,.5.146,1.661,1.661,0,0,1,.493.277,1.409,1.409,0,0,1,.308.3,1.891,1.891,0,0,1,1.032-.084c.061.015.107.038.169.054-.054-.131-.092-.27-.139-.408-.269-.355-.554-.724-.869-1.078a3.11,3.11,0,0,0-.955-.762c-.293-.1-.5-.054-.854.231a3.4,3.4,0,0,0-.247.238l-.662.593-.4-.724a2.1,2.1,0,0,0-1.193-.8,1.352,1.352,0,0,0-.616-.046.544.544,0,0,0-.354.238l-.547.716-.393-.677a1.594,1.594,0,0,0-.831-.778c-.131-.046-.323.108-.47.3a1.6,1.6,0,0,1-.5,1.209c-.269.185-.423.223-.485.162s-.023-.239.069-.454a1.425,1.425,0,0,0,.008-.847,1.573,1.573,0,0,0-.762-.878.623.623,0,0,0-.493-.092c-.092.031-.184.108-.292.315l-.893,1.271-.347-1.409c-.069-.308-.161-.393-.369-.477a1.5,1.5,0,0,0-.832.069,2.267,2.267,0,0,0-.7.408.871.871,0,0,0-.139.162c.054.023.108.03.154.053.062.039.108.085.162.124a1.709,1.709,0,0,1,.346.238c.331.316.362.631.239.739a.44.44,0,0,1,.015.1q-.022.474-.161.485c-.085.008-.2-.131-.323-.338-.039-.054-.085-.108-.131-.162a3.337,3.337,0,0,0-1.063.023,1.912,1.912,0,0,0-.8.339.252.252,0,0,0-.085.054,1.135,1.135,0,0,0-.062.7c.047.1.077.2.116.3l.2.655-.485.208A1.8,1.8,0,0,0,82.54,57.378Zm21.023,7.767a2.251,2.251,0,0,1,.955-.438,2.277,2.277,0,0,1,.77-.024,1.488,1.488,0,0,1,.947.447,1.369,1.369,0,0,1,.323,1.293,1.308,1.308,0,0,1-.1.308c.069.031.123.054.185.085a2.341,2.341,0,0,1,1.039.916,1.989,1.989,0,0,1,.246.7,3.124,3.124,0,0,1-.038.686l-.054.223-.031.108-.069.154a1.813,1.813,0,0,1-.3.515,2.432,2.432,0,0,1-.708.609c-.977.531-1.655.361-1.663.215-.046-.192.539-.393,1.117-.955a2.023,2.023,0,0,0,.369-.477,1.056,1.056,0,0,0,.093-.238l.03-.054.016-.108.031-.231c0-.015-.024-.177-.024-.27-.046-.069-.038-.169-.107-.223a1.2,1.2,0,0,0-.539-.415c-.216-.116-.485-.224-.747-.331l-.77-.331.508-.67a1.669,1.669,0,0,0,.331-.524c.047-.146.054-.169.024-.238-.078-.17-.516-.308-.817-.331a6.679,6.679,0,0,0-.808.007c-.215.031-.354.023-.392-.046S103.4,65.307,103.563,65.145Zm-5.943-.708a1.933,1.933,0,0,1,1.217-.369,3.588,3.588,0,0,1,.562.069,2.389,2.389,0,0,1,1.208-1.332,2.076,2.076,0,0,1,1.532-.169,1.079,1.079,0,0,1,.578.439.76.76,0,0,1,.1.515c-.07.254-.177.339-.262.324s-.162-.139-.239-.262c-.108-.131-.192-.131-.362-.116a1.771,1.771,0,0,0-1.354,1.07c-.008.07-.031.131-.039.2a1.922,1.922,0,0,1-.015.2l-.17,1.609-.916-1.093a1.627,1.627,0,0,0-.716-.339,1.788,1.788,0,0,0-.693-.023.733.733,0,0,0-.354.169c-.084.131-.154.231-.238.223s-.162-.077-.216-.254A.933.933,0,0,1,97.62,64.437Zm-6.951-1.416a1.59,1.59,0,0,1,.808-.978,1.516,1.516,0,0,1,.978-.154,2.685,2.685,0,0,1,.954-1.055,2.418,2.418,0,0,1,1.186-.392l.331.007.131.031.046.016.054.015.1.039a1.424,1.424,0,0,1,.477.231,2,2,0,0,1,.9,1.7c-.008.977-.323,1.455-.477,1.432-.193-.016-.223-.585-.431-1.294a.987.987,0,0,0-1.625-.654,1.455,1.455,0,0,0-.654.785l-.277,1.193-.708-.8c-.3-.331-.878-.131-1.109.185a2.081,2.081,0,0,0-.239.423c-.038.154-.084.246-.154.262s-.153-.046-.238-.185A1.176,1.176,0,0,1,90.669,63.021ZM84.1,57.262a1.279,1.279,0,0,1,.978-.515c.031,0,.054.007.077.007a1.8,1.8,0,0,1,.077-.184,1.919,1.919,0,0,1,.824-.839,2.676,2.676,0,0,1,.924-.339,2.539,2.539,0,0,1,1.6.223,1.489,1.489,0,0,1,.731.847c.039.269,0,.408-.085.431s-.215-.054-.346-.169a1.693,1.693,0,0,0-.631-.254,2.253,2.253,0,0,0-1.009.092,1.451,1.451,0,0,0-.847.593c-.069.1-.046.192-.053.315L86.25,58.8l-.924-.685a1.756,1.756,0,0,0-.246-.154c-.023-.008-.061-.023-.138.038a1.122,1.122,0,0,0-.339.624,3.342,3.342,0,0,0-.077.577c.008.17.015.293-.054.331s-.185.024-.331-.1a1.489,1.489,0,0,1-.377-.808A1.788,1.788,0,0,1,84.1,57.262Z"></path><path d="M94.341,90.6c-2.887.37-4.7,2.194-7.221,3.311a11.439,11.439,0,0,1-2.433.785c3.765,1.416,8.938,1.293,10.439-1.717a5.434,5.434,0,0,1,1.586-2.117A6.025,6.025,0,0,0,94.341,90.6Z"></path><path d="M101.285,85.946a1.028,1.028,0,0,1-.085-.277c-1.185-1.917-3.033-3.38-3.757-5.566a10.547,10.547,0,0,1-.685.847c-.477.546-.97,1.023-1.424,1.485a5.1,5.1,0,0,1-1.709,1.294,2.492,2.492,0,0,1-2.094-.3A4.2,4.2,0,0,1,90.238,82.4,2.627,2.627,0,0,1,89.63,81.1a1.81,1.81,0,0,1,.184-1.086c.324-.523.609-.6.67-.562.085.054-.108.331-.2.747a1.654,1.654,0,0,0,.624,1.57,3.66,3.66,0,0,0,1.108.693,2.528,2.528,0,0,0,.639.208c.1-.008.2.015.285.008.085-.039.177-.023.262-.077a4.814,4.814,0,0,0,1.216-1.055c.454-.477.931-.955,1.37-1.455a6.806,6.806,0,0,0,1.471-2.355,4.643,4.643,0,0,0-1.925-3.526c-2.325-1.294-3.68.585-4.873,2.325a.961.961,0,0,1-1.093.392,1.361,1.361,0,0,1-.416-.108,6.518,6.518,0,0,0-.669-.284.994.994,0,0,1-.67-1.186.882.882,0,0,1,.061-.154v-.038c.7-4.211-5.257-7.622-2.317-11.109-1.485-.947-2.994-1.855-4.426-2.894-1.632,1.047-2.494,3.094-3.48,4.688-.646,1.047-3.379,3.88-1.578,5.019a.893.893,0,0,1,.431.593.851.851,0,0,1,.046.431c-.184,1.609-1.378,2.748-2.478,3.841-.67.67-2.595,2.11-1.3,3.018.6.423,2.317,1.031,2.632-.031a3.042,3.042,0,0,0,.108-.762c.016-.47-.061-.77.062-.908.108-.131.569.069.831.7a2.366,2.366,0,0,1,.177,1.17,1.885,1.885,0,0,1-.215.755,1.735,1.735,0,0,1-.97.823,1.76,1.76,0,0,1-.777-.068,1.668,1.668,0,0,0-.637-.11,2.452,2.452,0,0,0-1.8.978,1.6,1.6,0,0,0,.247,1.77,1.13,1.13,0,0,0-.386,1.757c.423.512,1.073.356,1.665.348a2.855,2.855,0,0,1,.671.071,1.336,1.336,0,0,1,.4.612,1.629,1.629,0,0,1,.092.485.233.233,0,0,1,.039.077c.585.27.823.662.716.786s-.408.1-.863.092a1.01,1.01,0,0,1-.1.092c-1.593,1.309,1.863,2.9,3,3.133a15.575,15.575,0,0,0,5.142-.107A30.028,30.028,0,0,0,85.9,88.948a17.858,17.858,0,0,0,2.8-1.925,4.567,4.567,0,0,1,.986-.9c.077-.077.161-.162.231-.224.231-.192.392-.277.469-.238s.062.223-.038.508a5.1,5.1,0,0,1-.224.523,2.482,2.482,0,0,1-.377.632,7.422,7.422,0,0,1-.954,1.1,10.841,10.841,0,0,1-1.194,1.7,5.49,5.49,0,0,1-.523.523,3.306,3.306,0,0,1-.616.493l-.162.115-.084.062-.046.031-.024.007c-.007.008-.069.047-.069.047l-.185.077c.062.277.124.562.17.839,1.986-.939,3.91-2.656,5.873-3.187a11.693,11.693,0,0,1,3.511-.439c1.185.031,2.04.677,3.179.616A28.5,28.5,0,0,0,101.285,85.946ZM90.9,79.633l.085-.269.023-.07c0-.007.038-.092.038-.092.008-.015.023-.038.023-.038l.046-.085c.147-.477,1.109-.439.724-1-.292-.431-.8-.608-.747-1.239a1.084,1.084,0,0,1,.27-.639,1.815,1.815,0,0,1,.392-.331,3.224,3.224,0,0,1,.732-.316,4.709,4.709,0,0,1,1.178-.2,2.131,2.131,0,0,1,.508.023,3.042,3.042,0,0,1,1.17.031.856.856,0,0,1,.231.085.725.725,0,0,1,.246.154.656.656,0,0,1,.231.3.786.786,0,0,1,.077.4,1.723,1.723,0,0,1-.493.978l-.077.069-.015.015-.039.031c-.154.123-.531.123-.608.331s.139.262.223.431a2.451,2.451,0,0,1,.016,1.609,2.91,2.91,0,0,1-.577,1.109,2.209,2.209,0,0,1-.224.231l-.123.108-.077.053c-.015.008-.046.031-.046.031l-.046.031c-.046.023-.07.038-.123.069l-.177.085a1.737,1.737,0,0,1-.347.115,2.41,2.41,0,0,1-1.193-.007,1.875,1.875,0,0,1-1.062-.716A1.669,1.669,0,0,1,90.9,79.633Z"></path><path d="M93.086,80.38a.818.818,0,0,0,.131-.039.118.118,0,0,1,.046-.015c.023-.015.07-.046.1-.062l.054-.03.046-.046c.039-.039.085-.077.124-.116a1.674,1.674,0,0,0,.323-.6,2.111,2.111,0,0,0,.077-.686l-.023-.215c-.016-.023-.093-.1-.231-.277a1.382,1.382,0,0,1-.123-.216.973.973,0,0,1-.07-.392l.016-.108a.734.734,0,0,1,.015-.1c.008-.023.023-.054.023-.054l.031-.069a.634.634,0,0,1,.062-.131A1.272,1.272,0,0,1,94.5,76.7c.2-.038.469.062.577-.169.246-.516-.8-.393-1.039-.4a7.037,7.037,0,0,0-.855.023c-.038.007-.069.007-.108.015-.1.039-.192.077-.3.131a2.682,2.682,0,0,0-.5.316c-.154.115-.216.277-.185.246l-.008.038c.024-.038.008-.023.162.1.092.062.185.131.277.2a2.134,2.134,0,0,1,.17.146,1.177,1.177,0,0,1,.107,1.778c-.215.262-.646.462-.762.793C91.862,80.434,92.74,80.48,93.086,80.38Z"></path><path d="M105.357,86.346a12.521,12.521,0,0,1,4.342,7.66c.623,3.371.531,7.829,4.334,8.391C112.709,97.693,110.776,86.954,105.357,86.346Z"></path><path d="M47.182,10.743c1.632.346,4.219.261,4.565-1.686l.2-1.124.87.8c.247.231.5.462.755.7a18.428,18.428,0,0,0,4.865,3.649,5.051,5.051,0,0,0,2.409.416l.147-.054h.015c.015,0-.146.084-.077.069l.008.023.007.008.039-.008.077-.015c.038-.008.085-.023.131-.031-.539-2.564-1.771-5-4.311-6.189C54.711,6.278,49.93,5.038,47.79,6.64a12.527,12.527,0,0,0-3.4,4.6,2.369,2.369,0,0,1,1.17-.67A4.262,4.262,0,0,1,47.182,10.743Z"></path><path d="M73.365,52.51l-.11-.72-.522.507a1.89,1.89,0,0,1-.727.45l-.057.019c-.11.037-.214.073-.319.1l-.13.031-.211.3.045.176a.432.432,0,0,0,.223.27l.087.057c.144.127.295.254.457.384a6.151,6.151,0,0,0,1.176.742,2.606,2.606,0,0,0,.375.134l.948.252-.538-.82A4.57,4.57,0,0,1,73.365,52.51Zm-1.249.6Z"></path><path d="M15.42,59.3a23.432,23.432,0,0,1,3.418-5.774.869.869,0,0,1,.138-.246c.154-.2.316-.393.478-.585.069-.1.13-.193.192-.277a1.394,1.394,0,0,1,.2-.216c.354-.408.716-.793,1.093-1.178.185-.2.378-.392.57-.577a30.852,30.852,0,0,1,5.827-4.334c-.469.085-.946.169-1.439.254a23.54,23.54,0,0,0-6.443,1.886,13.1,13.1,0,0,0-1.717,1.078c-.408.292-.662.431-.724.362s.07-.316.37-.724a7.087,7.087,0,0,1,1.593-1.5,17.362,17.362,0,0,1,6.69-2.379c1.355-.246,2.648-.408,3.818-.516a31.274,31.274,0,0,1,3.172-.084c.485.015.916.03,1.293.061a4.436,4.436,0,0,0-.77-.454,9.969,9.969,0,0,0-1.131-.4c-.37-.093-.732-.139-1.078-.2a16.066,16.066,0,0,0-3.518.185c-1.84.254-2.625.223-2.694-.061s.531-.739,2.363-1.378a11.534,11.534,0,0,1,3.964-.662,12.178,12.178,0,0,1,1.417.177c.138.038.292.077.439.115l-.093-.115a17.481,17.481,0,0,0-4.3-3.857,18.674,18.674,0,0,0-2.841-1.44,20.573,20.573,0,0,0-2.5-.808c-1.432-.377-2.425-.516-2.4-.708.015-.162.954-.354,2.563-.2a14.01,14.01,0,0,1,2.748.585,14.96,14.96,0,0,1,3.126,1.47,13.4,13.4,0,0,1,2.548,2.071c.085-.177.169-.346.246-.516a4.8,4.8,0,0,0,.208-.7,6,6,0,0,0-.069-2.679,9.492,9.492,0,0,0-.77-2.063,11.186,11.186,0,0,0-1.547-2.287c-.377-.446-.555-.685-.478-.816.062-.115.378-.123.978.177a6.5,6.5,0,0,1,2.31,2.163,9.1,9.1,0,0,1,1.17,2.356,7.418,7.418,0,0,1,.292,3.51,5.805,5.805,0,0,1-.262,1.04l-.03.092c-.016.023-.008.031,0,.031h.015l.039.046c.123.131.238.269.361.4a5.547,5.547,0,0,1,.709.893c.215.331.431.67.662,1.009.2.362.354.746.539,1.131.092.193.184.385.269.585l.115.324a7.144,7.144,0,0,0,.216-2.263,16.9,16.9,0,0,0-.431-2.91c-.37-1.632-.67-2.618-.516-2.679.123-.054.693.816,1.293,2.455a12.583,12.583,0,0,1,.739,3.041,7.039,7.039,0,0,1-.346,3.387,10.725,10.725,0,0,0,2,.562c.038.008.076.016.123.023a10.4,10.4,0,0,0,.177-3.725,24.075,24.075,0,0,0-.747-3.557c-.562-2.017-.916-3.279-.739-3.341.146-.054.793,1.07,1.586,3.064a18.669,18.669,0,0,1,1.062,3.664,10.347,10.347,0,0,1-.115,4.38c.569.147,1.147.285,1.716.431a2.794,2.794,0,0,1-.177-.615c-.123-.786-.015-1.409-.123-2.025-.092-.677-.177-1.37-.315-2.078a29.381,29.381,0,0,0-2.141-7.044c-.423-.816-.746-1.517-1.047-1.979-.277-.469-.392-.762-.323-.816s.323.131.716.508a9.889,9.889,0,0,1,1.463,1.848,21.156,21.156,0,0,1,2.609,7.244c.147.739.224,1.478.3,2.186.1.762-.023,1.494.038,1.979a.97.97,0,0,0,.208.554l.038.054.008.015.169.116a1.936,1.936,0,0,0,.339.2,7.221,7.221,0,0,0,.67.285c.2.084.408.153.608.223l.146.023a22.064,22.064,0,0,0,3.318.239,9.6,9.6,0,0,0,1.27-.578,7.91,7.91,0,0,0,1.886-1.478A9.918,9.918,0,0,0,54.265,41.4c.754-2.271.908-3.8,1.108-3.772.131.008.3,1.532-.277,4.019a9.829,9.829,0,0,1-2.017,4.064A8.453,8.453,0,0,1,51.709,47c.785,0,1.578,0,2.378.046.678.039,1.355.092,2.033.154a1.554,1.554,0,0,0,.131-.169,3.113,3.113,0,0,0,.462-.978,10.22,10.22,0,0,0,.346-2.125c.077-1.362.046-2.494.085-3.279s.13-1.224.223-1.224.162.431.285,1.2a27.317,27.317,0,0,1,.323,3.318,9.579,9.579,0,0,1-.223,2.394,4.963,4.963,0,0,1-.362,1c.393.053.777.107,1.17.177.1-.139.2-.262.293-.378a4.606,4.606,0,0,0,.446-.585,1.28,1.28,0,0,0,.116-.277l.053-.192a1.2,1.2,0,0,0,.016-.131,3.433,3.433,0,0,0,.054-.693,10.847,10.847,0,0,0-.331-2.556c-.07-.369-.185-.685-.254-.977-.093-.27-.162-.508-.224-.716-.161-.4-.215-.647-.146-.685s.262.115.547.438c.131.177.277.416.446.693a9.842,9.842,0,0,1,.454.986,9.2,9.2,0,0,1,.655,2.786,3.972,3.972,0,0,1-.016.9c-.015.092,0,.115-.03.277l-.054.2a2.758,2.758,0,0,1-.193.508,4.107,4.107,0,0,1-.439.678c.347.077.693.161,1.04.261.377-1.993.731-3.695.923-4.98.17-1.447.278-2.356.455-2.364.146,0,.338.909.392,2.425a36.022,36.022,0,0,1-.554,5.3c.339.123.677.254,1.008.4.085-.377.162-.754.247-1.147A22.4,22.4,0,0,0,64,43.506c0-.262.008-.5.015-.716a5.731,5.731,0,0,1-.03-.585c-.008-.323.03-.508.123-.531s.208.123.362.408a4.436,4.436,0,0,1,.246.531c.069.223.131.485.2.785a11.79,11.79,0,0,1-.177,4.55c-.069.331-.146.639-.223.954a25.427,25.427,0,0,1,4.734-3.325c-1.039-2.956-2.533-5.974-5.35-7.591a19.355,19.355,0,0,0-6.42-2.171c.207.355.415.747.639,1.155.446.747.785,1.478,1.085,2.033.269.561.362.962.216,1.062s-.493-.1-.955-.516a8,8,0,0,1-1.486-1.955,9.8,9.8,0,0,1-.716-1.717,6.811,6.811,0,0,1-2.594,2.479c.239-.039.393-.031.431.046.077.162-.339.554-1.062,1.109a9.981,9.981,0,0,1-3.272,1.724,5.41,5.41,0,0,1-1.093.192l-.246.016-.116.008-.123.007-.062-.007-.5-.047a5.036,5.036,0,0,1-.893-.169,5.586,5.586,0,0,1-.747-.223c-.885-.324-1.355-.647-1.316-.816.038-.185.639-.162,1.524-.085.223.031.462.046.716.062a6.69,6.69,0,0,0,.8.038c.138,0,.277.085.423.092l.015.024V40.3l.031-.053.116-.031.238-.046a4.543,4.543,0,0,0,.893-.193,19.225,19.225,0,0,0,2.687-1.07c-.139.031-.285.069-.423.1a9.776,9.776,0,0,1-6.321-.762,12.94,12.94,0,0,1-4.8-5.111A39.54,39.54,0,0,1,37.8,26.4c0-.031-.092-.077-.192-.147-1.224-.923-4.611-1.67-6.282-.793a8.693,8.693,0,0,1,1.078.485c.977.539,1.316.9,1.255,1.017-.062.146-.539.023-1.563-.262a10.093,10.093,0,0,0-4.9-.27,13.867,13.867,0,0,0-3.872,1.132,10.965,10.965,0,0,0-2.055,1.247l-.508.393c-.154.154-.316.308-.478.462l-.238.231c-.077.084-.116.154-.177.231a1.811,1.811,0,0,0-.308.485,9.769,9.769,0,0,0-.609,2.886,7.867,7.867,0,0,1-.184.947,5.27,5.27,0,0,1-.347,1.016c-.277.685-.7,1.209-.808,1.578a1.022,1.022,0,0,0-.069.493c.023.085.038.223.054.247.007.007.007.015.015.03l.077.07a.484.484,0,0,1,.115.138,1.225,1.225,0,0,1,.108.2,2.259,2.259,0,0,1-.3,1.717,5.273,5.273,0,0,1-.77,1.047,5.116,5.116,0,0,0-.539.67l-.084.138a1.055,1.055,0,0,1-.031.123c-.046.07-.023.177-.046.27a1.217,1.217,0,0,0,.123.569A7.45,7.45,0,0,1,18,41.381a9.41,9.41,0,0,1,1.986-.847,13.617,13.617,0,0,1,3.233-.515,16.191,16.191,0,0,1,2.155.054c1.094.115,1.555.277,1.555.415s-.477.262-1.547.393a22.233,22.233,0,0,0-4.927,1.047,8.847,8.847,0,0,0-1.609.823,6.041,6.041,0,0,0-1.493,1.355,2.718,2.718,0,0,0-.316.439c-.1.162-.208.293-.308.485-.2.362-.415.739-.577,1.116a5.7,5.7,0,0,0-.57,2.464c-.007.477,0,1,.008,1.539.008.562-.008,1.171-.054,1.771-.084,1.185-.262,2.379-.362,3.6a11.05,11.05,0,0,0,.185,3.6C15.374,59.187,15.4,59.233,15.42,59.3ZM30.639,27.263A8.069,8.069,0,0,1,34.2,29.172a10.086,10.086,0,0,1,2.441,3.148c.439.94.485,1.6.331,1.656-.177.061-.524-.439-1.116-1.171a20.669,20.669,0,0,0-2.518-2.655,12.851,12.851,0,0,0-2.971-2.01c-.785-.385-1.44-.515-1.417-.708C28.953,27.271,29.554,27.047,30.639,27.263Z"></path><path d="M42.509,23.183a1.764,1.764,0,0,1-.4.008,1.538,1.538,0,0,1-.385-.131,2.2,2.2,0,0,1-.631-.578c-.339,1.209-.924,2.341-1.216,3.6.762,3.264,2.109,6.983,4.719,9.223a7.232,7.232,0,0,0,5.127,1.947,8.73,8.73,0,0,0,2.024-.277l-.084.008c-.147,0-.3.008-.447.008a6.666,6.666,0,0,1-1.871-.254,7.168,7.168,0,0,1-3.063-1.848,10.914,10.914,0,0,1-1.709-2.248c-.786-1.386-1.047-2.325-.909-2.4.17-.092.732.709,1.671,1.886a9.211,9.211,0,0,0,4.372,3.364c.193.054.385.085.57.124-.062-.054-.139-.1-.193-.154A3.5,3.5,0,0,1,49.03,33.76a3.12,3.12,0,0,1-.085-1.286c.046-.3.116-.454.208-.461s.192.154.292.408a8.672,8.672,0,0,0,.439,1,3.421,3.421,0,0,0,.963,1.117,3.536,3.536,0,0,0,1.639.623A4.635,4.635,0,0,0,54.318,35c.093-.046.185-.084.278-.13.215-.293.431-.616.654-.978a1.081,1.081,0,0,1,.185-.223,1.045,1.045,0,0,1,.254-.27,10.269,10.269,0,0,0,3.279-3.618c.624-1.355.393-3.056.239-4.5a.777.777,0,0,1,.569-.885h.008c2.479-1.732,1.863-5.458,1.74-8.144-.023-.562-.077-1.14-.154-1.717l-.069.023-.039.015h-.015l-.085.023h-.023l-.185.023a6.082,6.082,0,0,1-2.971-.431,17.963,17.963,0,0,1-5.3-3.8.394.394,0,0,0-.061-.062,3.16,3.16,0,0,1-.655.808,3.726,3.726,0,0,1-1.747.847,6.616,6.616,0,0,1-1.717.123c-.3-.015-.5-.023-.816-.061s-.546-.116-.793-.177a3.511,3.511,0,0,0-1.154-.216,1.35,1.35,0,0,0-.793.493c-.516.546-.87,1.239-1.332,1.832l-.069.092a4.278,4.278,0,0,1,.693.6c1.07,1.193,1.193,2.2.916,2.34-.285.154-.909-.447-1.963-1.055a3.139,3.139,0,0,0-.8-.346.635.635,0,0,0-.508.023,2.776,2.776,0,0,0-.839,1.632,6.688,6.688,0,0,0-.17,1.239,2.479,2.479,0,0,0,.031.478,1.051,1.051,0,0,0,.077.315,5.424,5.424,0,0,0,.685.855,4.252,4.252,0,0,1,.47.7c.069.208.146.408.215.593.047.285.124.462.116.539-.008,0-.015.031-.031.046s-.031.016-.031.046c.008,0,.047.07.1.054s.116.023.193-.008a1.535,1.535,0,0,1,.208-.061.317.317,0,0,1,.277.046.3.3,0,0,1,.069.277.773.773,0,0,1-.262.516A1.074,1.074,0,0,1,42.509,23.183Zm10.839,2.248a1.313,1.313,0,0,1,.493-.3,1.593,1.593,0,0,1,.824-.069.958.958,0,0,1,.485.223c.069.085.084.154.061.185s-.084.046-.192.039c-.085.015-.2.023-.362.054-.146.038-.762.269-.724.492s.616.2.817.27a1.407,1.407,0,0,1,.277.146c.023.015.084.069.084.069a.273.273,0,0,0,.039.046l.054.054a2.259,2.259,0,0,1,.415.793c.077.2.1.231.162.27a2.4,2.4,0,0,0,.269.192.555.555,0,0,1,.147.046.8.8,0,0,0,.931-.516.1.1,0,0,1-.031.031l.1-.362a2.362,2.362,0,0,1,.023-.246c0-.392-.047-.862-.07-1.332a4.062,4.062,0,0,1,.17-1.455,3.531,3.531,0,0,1,.261-.577,3.119,3.119,0,0,1,.355-.523,2.329,2.329,0,0,1,1.539-.924c.416-.054.639.038.647.115.038.224-.878.3-1.432,1.332a3.025,3.025,0,0,0-.185.393,3.077,3.077,0,0,0-.146.485,3.205,3.205,0,0,0-.008,1.054c.046.424.131.878.146,1.455,0,.154-.007.324-.023.485l-.069.362-.008.046-.023.085a.405.405,0,0,1-.023.054l-.054.123-.115.231a2.01,2.01,0,0,1-.339.439,1.984,1.984,0,0,1-2.032.462A4.012,4.012,0,0,1,55.3,28.9a2.588,2.588,0,0,1-.293-.231c-.439-.339-.377-.9-.723-1.255-.416-.424-1.032-.223-1.194-.955A1.148,1.148,0,0,1,53.348,25.431Zm-8.267-2.148c.454-.8.831-1.247.993-1.178s.084.654-.147,1.524a13.562,13.562,0,0,0-.592,3.234,2.534,2.534,0,0,0,.462,1.47,2.769,2.769,0,0,1,.123.254l.061.131.031.061.016.031c0,.008.023.077.023.077a4.23,4.23,0,0,1,.069.447,5,5,0,0,1,.031.793,5.923,5.923,0,0,0,.069.962c.054.223.062.392-.008.446s-.223-.007-.446-.208a2.543,2.543,0,0,1-.547-1.077,8.433,8.433,0,0,0-.893-1.932c0-.008-.1-.224-.1-.224l-.046-.115c0-.008-.031-.1-.031-.1a.4.4,0,0,0-.008-.054l-.007-.07-.046-.292a2.9,2.9,0,0,1-.054-.585A7.574,7.574,0,0,1,45.081,23.283Zm-2.04-2.094c-.093-.015-.131-.169-.131-.423a.8.8,0,0,1-.185-.37c-.031-.454.015-.516-.339-.847-.223-.215-.492-.338-.616-.639a1.682,1.682,0,0,1-.007-1.285,1.47,1.47,0,0,1,1.185-.9h.385a2.347,2.347,0,0,1,.331.077l.085.015.123.047.023.015.108.054.046.023.123.092a1.943,1.943,0,0,1,.216.208,1.381,1.381,0,0,1,.262.778,2.223,2.223,0,0,1-.062.577,4.382,4.382,0,0,1-.169.508h.023l-.039.046a7.324,7.324,0,0,1-.454.917C43.5,20.82,43.218,21.212,43.041,21.189Z"></path><path d="M58.229,106.046c.008-.024.015-.039.023-.062-.192-1.162-.223-2.31-.346-3.626A35.821,35.821,0,0,0,56.358,95.9a17.522,17.522,0,0,1-.177-9.992c1.355-4.626,3.4-8.976,4.373-13.726A71.575,71.575,0,0,0,61.94,58.894c-.031.054-.062.116-.093.17-.3.523-.585.939-.808,1.285-.439.686-.616,1.1-.724,1.078-.084-.015-.069-.516.239-1.324.154-.393.377-.862.6-1.393.062-.154.131-.324.193-.485-1.132.3-2.248.669-3.349,1.054-1.255.655-2.571,1.424-3.964,2.233l-.316.185c-.046.023-.192.115-.277.169-.2.131-.408.262-.608.385-.37.262-.778.508-1.093.762a6.545,6.545,0,0,0-.924.839c-.131.154-.27.3-.4.447-.115.169-.23.331-.338.5a8.094,8.094,0,0,0-.616,1.008c-.2.331-.37.678-.539,1-.323.647-.677,1.324-.9,1.84a18.846,18.846,0,0,1-1.162,2.825,2.5,2.5,0,0,1-.57.662c-.146.116-.246.162-.277.139-.1-.054.185-.424.393-1.024.254-.647.377-1.624.754-2.918.223-.677.485-1.262.793-1.978.146-.354.3-.716.493-1.078a9.072,9.072,0,0,1,.623-1.131c.116-.185.239-.378.362-.57.154-.177.308-.362.462-.539a6.894,6.894,0,0,1,1.047-1.008c.108-.093.215-.162.323-.247a32.606,32.606,0,0,1-6.5,1.64c-6.343.831-11.709.446-17.559-2.186a.463.463,0,0,1-.1-.062c-.184,0-.369,0-.554-.008-2.525,5.889-4.873,10.639-6.5,14.673a69.319,69.319,0,0,0-3.387,10.046,46.087,46.087,0,0,0-1.016,5.566c-.123,1.162-.224,1.67-.308,1.67s-.131-.508-.147-1.7a30.43,30.43,0,0,1,.67-5.712,60.167,60.167,0,0,1,3.2-10.269c1.308-3.387,3.133-7.26,5.142-11.794-.57.816-1.093,1.563-1.563,2.225-.916,1.424-1.616,2.548-2.186,3.387-1.124,1.678-1.64,2.263-1.778,2.179s.131-.809,1.077-2.6c.478-.893,1.109-2.063,1.979-3.534.431-.654.916-1.378,1.447-2.163a8.908,8.908,0,0,1-5.874.816c-.338,2.594-.962,5.142-1.093,7.806a37.9,37.9,0,0,1-1.509,9.615A85.1,85.1,0,0,0,11,103.952c-.092,2.756-.962,6.658.077,9.268,1.062,2.687,4.811,3.857,7.383,4.411,4.38.939,12.209,2.133,15.334-2a1.018,1.018,0,0,1,1.086-.439c4.88.908,9.976-.885,14.449-2.741C52.178,111.265,57.413,109.379,58.229,106.046Zm-32.155,4.611a17.707,17.707,0,0,0,3.11-5.15c1.855-4.427,2.594-8.345,2.971-8.284.332.031.162,4.134-1.778,8.8a13.658,13.658,0,0,1-3.679,5.312c-.17.123-.332.246-.485.362a4.072,4.072,0,0,1-.485.277,2.859,2.859,0,0,1-.793.339c-.439.115-.7.138-.739.054C24.1,112.173,25.081,111.75,26.074,110.657Zm1.963,5.4a19.246,19.246,0,0,1-5.774,1.07,17.676,17.676,0,0,1-3.487-.27,14.125,14.125,0,0,1-1.832-.462c-.316-.084-.585-.2-.878-.307l-.431-.162-.485-.239a5.541,5.541,0,0,1-2.64-3,9.852,9.852,0,0,1-.57-3.549,23.287,23.287,0,0,1,.9-5.781c.9-3.172,1.717-5.019,1.863-4.981.192.054-.316,2.025-.97,5.2a26.689,26.689,0,0,0-.6,5.551,8.947,8.947,0,0,0,.562,3.094,4.366,4.366,0,0,0,2.056,2.325,15.723,15.723,0,0,0,6.505,1.394,21.148,21.148,0,0,0,5.5-.755c3.079-.862,4.788-1.986,4.9-1.793C32.748,113.49,31.193,114.921,28.037,116.061ZM50.816,81.3a22.994,22.994,0,0,0,1.978-3.072,44.026,44.026,0,0,0,1.894-4.1c2.379-6,3.272-11.216,3.641-11.162.347.023.023,5.458-2.433,11.647a31.454,31.454,0,0,1-2.063,4.211A17.9,17.9,0,0,1,51.516,81.9c-.2.2-.385.385-.554.562-.185.169-.385.316-.554.454a5.291,5.291,0,0,1-.924.632c-.539.284-.855.408-.908.331C48.445,83.713,49.592,82.936,50.816,81.3Zm-2.371,16.3c.092-.123.716.385,1.824.824a18.216,18.216,0,0,0,4.3,1.078,4.1,4.1,0,0,0-.3-1.486c-.27-.716-.724-1.478-1.047-2.409l-.116-.324-.008-.046-.007-.015-.023-.1-.008-.077-.031-.154c-.031-.208-.061-.416-.092-.616s-.062-.408-.093-.608c0-.224-.007-.439-.015-.655a16.127,16.127,0,0,1,.108-2.417c.2-1.486.485-2.794.731-3.872.508-2.156.754-3.487.939-3.487.17,0,.254,1.416-.031,3.641-.223,2.209-.939,5.25-.13,8.306.269.77.7,1.532,1.008,2.394a5.018,5.018,0,0,1,.254,2.7l-.115.562-.547-.084a14.389,14.389,0,0,1-5.1-1.694C48.768,98.347,48.383,97.693,48.445,97.608ZM37,70.072c.361-1.232.631-2.348.816-3.148.169-.839.308-1.394.5-1.386.169.008.354.531.416,1.416a10.974,10.974,0,0,1-.485,3.488c-.824,2.594-1.925,4.441-2.24,4.334C35.643,74.645,36.22,72.536,37,70.072Zm8.86,40.777a35.05,35.05,0,0,1-4.165,1.64,10.457,10.457,0,0,1-3.163.516,3.913,3.913,0,0,1-1.9-.516,3.159,3.159,0,0,1-1.324-1.7,11.135,11.135,0,0,1-.231-4.08c.046-1.363.169-2.749.285-4.181.246-2.856.554-5.558.793-8.013s.408-4.658.508-6.513c.031-.924.061-1.763.092-2.494.016-.747-.007-1.386,0-1.909a4.415,4.415,0,0,1,.147-1.64c.092,0,.215.57.361,1.6.062.524.162,1.155.216,1.9.031.754.061,1.609.1,2.548.023,1.894-.054,4.134-.231,6.612s-.446,5.181-.693,8.014c-.115,1.417-.246,2.8-.3,4.134q-.059.993-.116,1.94l.008.485.031.408a4.267,4.267,0,0,0,.162.793,2.045,2.045,0,0,0,.8,1.132,2.8,2.8,0,0,0,1.347.4,9.739,9.739,0,0,0,2.872-.331c1.778-.431,3.218-.932,4.226-1.216,1.009-.3,1.586-.408,1.609-.324S46.805,110.41,45.858,110.849Zm.285-3.579c-.239-.039-.423-.093-.631-.139l-.154-.039c-.131-.038-.131-.046-.2-.069l-.316-.123c-.216-.085-.431-.162-.647-.262l-.623-.346a6.174,6.174,0,0,1-2.033-1.925A7.262,7.262,0,0,1,40.523,102a14.488,14.488,0,0,1-.323-4.149c.139-2.317.385-3.711.547-3.711.192,0,.277,1.44.377,3.711a16.591,16.591,0,0,0,.554,3.833,5.709,5.709,0,0,0,2.564,3.5l.515.285c.177.085.37.154.547.223l.277.116a.962.962,0,0,1,.092.038l.154.039a5.268,5.268,0,0,0,.585.138,9.558,9.558,0,0,0,2.194.139,8.749,8.749,0,0,0,3.634-.916,4.569,4.569,0,0,0,1.832-1.663,4.987,4.987,0,0,0,.339-.623c.084-.147.154-.224.192-.216s.069.1.062.277a2.225,2.225,0,0,1-.131.77,4.42,4.42,0,0,1-1.817,2.24,8.676,8.676,0,0,1-4.026,1.324A9.918,9.918,0,0,1,46.143,107.27Z"></path><path d="M115.288,117.069c-.5-1.247-1.094-2.486-1.555-3.756a20.04,20.04,0,0,1-1.3,2.04,22.258,22.258,0,0,1-3.118,3.756,24.66,24.66,0,0,0-3.326,2.9c2.833-.185,5.835-.6,8.561-.247C117.736,122.173,116.034,118.909,115.288,117.069Z"></path><path d="M98.336,96.123c-.362.677-.754,1.4-1.177,2.178-.255.4-.547.785-.84,1.2-.146.2-.292.408-.446.624l-.231.315-.139.193-.146.146a49.108,49.108,0,0,1-5.165,4.657c-.455.408-.909.809-1.348,1.209-.207.192-.477.416-.631.577-.192.216-.392.424-.585.632-.77.846-1.555,1.624-2.24,2.424s-1.339,1.556-1.948,2.264q-.888,1.1-1.639,2.032c-1.024,1.216-1.8,2.271-2.387,2.956s-.931,1.047-1.008.993.138-.508.593-1.285,1.116-1.894,2.055-3.211c.47-.662.97-1.393,1.54-2.155.592-.739,1.224-1.54,1.886-2.371s1.447-1.647,2.224-2.517c.193-.216.393-.439.593-.655.254-.269.439-.415.67-.639.439-.4.877-.808,1.347-1.216a61.533,61.533,0,0,0,5.15-4.5l.139-.13s.069-.085.092-.124l.239-.308c.161-.2.315-.4.469-.6.308-.4.624-.778.893-1.155.478-.777.924-1.493,1.332-2.155a7.577,7.577,0,0,0,.785-1.9c.154-.615.285-1.147.393-1.585a1.924,1.924,0,0,0,.054-.185,19.773,19.773,0,0,1-1.648,1.27A8.042,8.042,0,0,1,94.7,96.354c-.154.192-.324.384-.508.577a11.457,11.457,0,0,1-2.872,2.055c-.746.732-1.562,1.509-2.455,2.348-1.348,1.324-2.964,2.779-4.658,4.188-1.7,1.432-3.31,2.779-4.688,4.08a32.958,32.958,0,0,0-3.4,3.68c-1.779,2.225-2.518,3.9-2.718,3.8-.085-.031.039-.477.316-1.247.138-.377.377-.839.631-1.37a18.392,18.392,0,0,1,1.024-1.717,26.02,26.02,0,0,1,3.318-3.995c1.37-1.394,2.979-2.787,4.68-4.219s3.264-2.771,4.7-4.088l.223-.2c-.808.262-1.647.5-2.51.716-3.51.831-6.674,1.355-8.868,2.048-2.194.639-3.395,1.439-3.518,1.278-.038-.07.177-.362.716-.77a11.238,11.238,0,0,1,2.494-1.37A61.837,61.837,0,0,1,85.473,99.7a34,34,0,0,0,4.7-1.463c.324-.131.624-.27.924-.416.123-.108.246-.208.37-.315a23.466,23.466,0,0,1-6.582-.855,7.815,7.815,0,0,1-4.95-2.74c-4.966,5.026-11.109,9.253-16.728,13.494-5.7,4.3-10.231,9.608-15.481,14.35,3.3.431,6.582.107,9.923.061,2.171-.03,4.341-.023,6.512-.007.039-.254.062-.547.085-.84l.069-.831c.031-.339.07-.577.108-.87.062-.569.154-1.147.269-1.755a35.228,35.228,0,0,1,.863-3.649,26.881,26.881,0,0,1,2.987-6.6,21.978,21.978,0,0,1,3.8-4.534c2.5-2.279,4.465-3.08,4.519-2.972.131.2-1.639,1.27-3.88,3.626a25.083,25.083,0,0,0-3.418,4.5,28.767,28.767,0,0,0-2.763,6.351,38.148,38.148,0,0,0-1.363,6.836c-.031.239-.054.485-.092.739,1.324.016,2.64.023,3.964.031,7.206.054,14.4.069,21.609.146,3.256-5.85,2.979-13.11,5.273-19.36C97,100.449,97.72,98.309,98.336,96.123Z"></path><path d="M109.322,116.261c2.44-3.049,3.687-5.389,3.972-9.307a8.916,8.916,0,0,1,.531-2.625,5.436,5.436,0,0,1-4.965-4.3c-1.278-4.789-.924-9.7-5.535-12.81a1.692,1.692,0,0,1-.17-.139c-1.739,2.756-1.878,5.92-2.694,9.03-.854,3.241-2.24,6.3-3.226,9.492-1.678,5.4-1.685,11.293-4.157,16.412,3.549.047,7.1.124,10.639.07C104.964,119.664,107.628,118.363,109.322,116.261Z"></path><path d="M104.925,55.84a3.467,3.467,0,0,1,.2.676l.023.119a1.145,1.145,0,0,1,.024.345l-.029.182.206.211.053.017a1.383,1.383,0,0,1,.218.212l.275.294.275-.293.059-.071a3.5,3.5,0,0,0,.957-2.42,1.292,1.292,0,0,0-1.394-1.28l-.305-.017-.077.3a3.68,3.68,0,0,1-.561,1.159l-.128.183.163.314C104.9,55.8,104.917,55.824,104.925,55.84Z"></path><path d="M43.4,17.723a.578.578,0,0,0-.651.17.63.63,0,0,0-.229.494,1.044,1.044,0,0,0,.5.727l.288-.227h0l.368.073a2.716,2.716,0,0,0,.053-.565C43.731,18.045,43.62,17.82,43.4,17.723Zm-.4.448Z"></path><path d="M102.193,54.388l.019,0a2.674,2.674,0,0,1,1.35.2l.288.123.172-.261a1.467,1.467,0,0,0,.184-1.432,3.546,3.546,0,0,0-2.548-1.629l-.513-.1.068.519a6.463,6.463,0,0,1-.139,2.312l-.165.694.665-.258A2.132,2.132,0,0,1,102.193,54.388Z"></path><path d="M73.233,45.6a2.759,2.759,0,0,1,.577.762,3.375,3.375,0,0,1,.331.924v.007c.077.023.146.039.223.07l.093.03a.629.629,0,0,1,.077.031l.038.023.162.077a1.677,1.677,0,0,1,.369.208,2.653,2.653,0,0,1,.285.239c.223-1.925-.477-4.334-.916-6.074-.285-1.132-.785-5.342-2.948-4.457.87,2.609,1.047,5.373,1.709,8.037A.722.722,0,0,1,73.233,45.6Z"></path></g></svg>