<svg xmlns="http://www.w3.org/2000/svg" xmlns:xlink="http://www.w3.org/1999/xlink" version="1.1" x="0px" y="0px" viewBox="0 0 100 100" enable-background="new 0 0 100 100" xml:space="preserve"><g><path d="M93,7v86H7V7H93 M95,5H5v90h90V5L95,5z"></path></g><g><path d="M72.5,43.5l-1.1-6.9l0,0v-0.1h0v-6.7H28.6v7.1l-1.1,6.6c-0.1,1,1,1.8,2.6,1.9h0c1.6,0.1,3-0.6,3.1-1.6l0-0.1   c0,0.9,1.3,1.7,2.9,1.7h0.9c1.5,0,2.7-0.7,2.9-1.5c0.2,0.9,1.4,1.6,2.9,1.6h0.9c1.6,0,2.9-0.8,2.9-1.7c0,1,1.3,1.7,2.9,1.7h0.9   c1.5,0,2.7-0.7,2.9-1.5c0.2,0.9,1.4,1.5,2.9,1.5h0.9c1.6,0,2.9-0.8,2.9-1.7v0c0,1,1.3,1.7,2.9,1.7h0.9c1.6,0,2.9-0.8,2.9-1.7v0   l0,0.2c0.1,1,1.6,1.7,3.1,1.6C71.4,45.3,72.6,44.4,72.5,43.5z"></path><path d="M29.7,70.3h29.1V58.7h5.8v11.6h5.7V47.1H29.7V70.3z M33.5,52.5H55v14H33.5V52.5z"></path></g></svg>