<svg xmlns="http://www.w3.org/2000/svg" xmlns:xlink="http://www.w3.org/1999/xlink" version="1.1" x="0px" y="0px" viewBox="0 0 100 100" enable-background="new 0 0 100 100" xml:space="preserve"><g><path  d="M78.035,70.357c-0.643,0-1.071,0.429-1.071,1.072v4.286c0,0.643,0.429,1.071,1.071,1.071   s1.071-0.429,1.071-1.071v-4.286C79.106,70.786,78.678,70.357,78.035,70.357z"></path><path  d="M89.821,22.143v-6.429c0-2.357-1.929-4.286-4.286-4.286H16.964c-2.357,0-4.286,1.928-4.286,4.286v6.429   L6.25,39.286c0,2.886,1.748,5.231,4.285,6.083V80v8.571h47.143V80V50h25.715v30v8.571h8.571V80V45.369   c2.537-0.852,4.286-3.197,4.286-6.083L89.821,22.143z M34.106,22.143l-1.944,15.551c-0.129,0.509-0.198,1.042-0.198,1.592   c0,3.55-2.878,6.429-6.429,6.429s-6.429-2.878-6.429-6.429l0.757-3.026l3.529-14.116H34.106z M19.106,50h30v23.571h-30V50z    M51.249,45.714c-3.55,0-6.429-2.878-6.429-6.429V22.143h12.857v17.143C57.678,42.836,54.8,45.714,51.249,45.714z M76.964,45.714   c-3.551,0-6.429-2.878-6.429-6.429c0-0.549-0.069-1.083-0.199-1.592l-1.943-15.551h10.714l3.529,14.116l0.757,3.027   C83.393,42.836,80.514,45.714,76.964,45.714z"></path></g></svg>