<svg xmlns="http://www.w3.org/2000/svg" xmlns:xlink="http://www.w3.org/1999/xlink" version="1.1" x="0px" y="0px" viewBox="0 0 32 32" enable-background="new 0 0 32 32" xml:space="preserve"><g display="none"><g display="inline"><path d="M16,20c-2.209,0-4,1.791-4,4v4c0,2.209,1.791,4,4,4s4-1.791,4-4v-4C20,21.791,18.209,20,16,20z"></path><path d="M25,4h-2.667l-0.001-0.014C22.149,1.794,20.2,0,18,0h-4c-2.2,0-4.149,1.794-4.332,3.986L9.667,4H7C6.447,4,6,4.447,6,5    s0.447,1,1,1h2.5L8.332,20.012c-0.122,1.468,0.588,2.743,1.724,3.435C10.34,20.401,12.881,18,16,18    c3.119,0,5.66,2.401,5.944,5.448c1.136-0.692,1.846-1.967,1.724-3.435L22.5,6H25c0.553,0,1-0.447,1-1S25.553,4,25,4z M16,8    c-1.104,0-2-0.896-2-2s0.896-2,2-2s2,0.895,2,2S17.104,8,16,8z"></path></g></g><g><path d="M10,20.001L8,22h16l-2-1.999H10z M28,0H4L0,10c0,1.477,0.809,2.752,2,3.445V32h4l2-2h16l2,2h4V13.445   c1.191-0.693,2-1.969,2-3.445L28,0z M26,24H6V13.445C7.191,12.752,8,11.477,8,10c0,2.209,1.791,4,4,4c2.209,0,4-1.791,4-4   c0,2.209,1.791,4,4,4c2.209,0,4-1.791,4-4c0,1.477,0.809,2.752,2,3.445V24z"></path></g></svg>