<svg xmlns="http://www.w3.org/2000/svg" xmlns:xlink="http://www.w3.org/1999/xlink" version="1.1" x="0px" y="0px" viewBox="0 0 144.083 144" enable-background="new 0 0 144.083 144" xml:space="preserve"><path d="M95.589,65.608h-29c-1.657,0-3,1.343-3,3v29.203c0,1.657,1.343,3,3,3h29c1.657,0,3-1.343,3-3V68.608  C98.589,66.952,97.247,65.608,95.589,65.608z M92.589,94.812h-23V71.608h23V94.812z"></path><rect x="45.089" y="87.546" width="6" height="5.811"></rect><path d="M123.08,55.606h-14.874l-9.354-21.21c-0.479-1.088-1.557-1.79-2.745-1.79H31.004c-1.189,0-2.266,0.702-2.745,1.79  L18.258,57.078c-0.002,0.005-0.002,0.011-0.005,0.017c-0.09,0.207-0.154,0.426-0.196,0.654c-0.012,0.067-0.012,0.133-0.02,0.201  c-0.013,0.113-0.034,0.223-0.034,0.339v50.105c0,1.657,1.343,3,3,3h85.106c1.657,0,3-1.343,3-3V89.312h13.971c1.657,0,3-1.343,3-3  V58.606C126.08,56.95,124.737,55.606,123.08,55.606z M32.96,38.606h61.191l7.356,16.682H81.622  c-1.869-8.304-9.324-14.465-18.066-14.465c-8.741,0-16.196,6.161-18.065,14.465H25.604L32.96,38.606z M53.839,105.394h-17.75v-24.91  c0-4.894,3.981-8.875,8.875-8.875s8.875,3.981,8.875,8.875V105.394z M103.109,105.394h-43.27v-24.91  c0-8.202-6.673-14.875-14.875-14.875s-14.875,6.673-14.875,14.875v24.91h-6.086V61.288h24.073c1.578,0,2.886-1.222,2.993-2.795  c0.447-6.543,5.932-11.669,12.486-11.669s12.04,5.126,12.487,11.669c0.107,1.574,1.415,2.795,2.993,2.795h24.073v25.023V105.394z   M120.08,83.312h-10.971V61.606h10.971V83.312z"></path></svg>