<svg xmlns="http://www.w3.org/2000/svg" xmlns:xlink="http://www.w3.org/1999/xlink" version="1.1" x="0px" y="0px" viewBox="0 0 100 100" enable-background="new 0 0 100 100" xml:space="preserve"><g><path d="M16.331,59.22v5.446h5.391c-0.551,0.884-0.883,1.917-0.883,3.034c0,3.18,2.578,5.756,5.756,5.756   c3.18,0,5.758-2.576,5.758-5.756c0-1.117-0.333-2.15-0.885-3.034h18.568c-0.551,0.884-0.883,1.917-0.883,3.034   c0,3.18,2.576,5.756,5.758,5.756c3.178,0,5.755-2.576,5.755-5.756c0-1.117-0.333-2.15-0.882-3.034h6.784l8.171-32.677h13.303   v-5.445H70.486L62.314,59.22H16.331z"></path><polygon points="63.532,35.098 64.894,29.263 25.12,29.263 16.766,29.263 14.044,29.263 11.958,29.263 11.958,35.098    15.407,35.098  "></polygon><polygon points="58.792,55.365 62.878,37.887 16.058,37.887 20.146,55.365  "></polygon></g></svg>