<svg xmlns="http://www.w3.org/2000/svg" data-name="Layer 1" viewBox="0 0 1024 1024" x="0px" y="0px"><title>icon</title><path  d="M511.974482 876.304384c30.157824 0 54.62016 22.57408 54.62016 50.439168 0 27.849728-24.462336 50.423808-54.62016 50.423808H246.349906c-99.950592-0.094208-180.98176-74.923008-181.100544-167.223296V636.739584c0-27.834368 24.462336-50.408448 54.602752-50.408448 30.158848-0.01536 54.62016 22.55872 54.637568 50.408448v173.20448c0.033792 36.631552 32.192512 66.313216 71.860224 66.36032h265.6256zM988.805202 729.56928c0 9.2672-2.220032 19.162112-6.695936 30.308352-1.610752 4.32128-3.661824 8.781824-6.272 13.556736-0.169984 0.203776-0.32256 0.453632-0.475136 0.689152l-0.152576 0.2816c-0.372736 0.625664-0.677888 1.252352-0.999424 1.878016-1.119232 1.988608-2.33984 4.29056-3.98336 6.653952-43.177984 70.289408-151.841792 144.539648-156.48768 147.98336a19.395584 19.395584 0 0 1-11.50976 3.77344c-4.051968 0-8.01792-1.189888-11.409408-3.663872-5.424128-4.006912-132.871168-90.719232-165.979136-166.095872-0.16896-0.392192-0.321536-0.81408-0.507904-1.252352-5.238784-12.242944-7.917568-23.701504-7.917568-34.143232 0-0.51712 0.034816-0.970752 0.084992-1.471488a37.023744 37.023744 0 0 1-0.372736-5.197824c0-59.0336 48.754688-107.015168 108.630016-107.015168 29.531136 0 57.501696 12.132352 77.810688 32.780288 20.206592-20.647936 48.1792-32.780288 77.759488-32.780288 59.858944 0 108.630016 48.012288 108.630016 107.015168 0 1.956864-0.152576 3.600384-0.22016 4.822016 0.033792 0.516096 0.067584 1.173504 0.067584 1.878016z m6.30784-453.875712C972.719186 220.0576 928.474194 119.1936 885.586002 72.573952c0 0-27.701248-22.933504-55.36768-25.469952H193.714258c-27.6992 2.536448-55.365632 25.469952-55.365632 25.469952C95.492178 119.1936 51.246162 220.0576 28.818514 275.694592 10.00149 302.369792-0.03371 333.53728 0.000082 365.380608 0.000082 456.787968 80.558162 530.88256 179.880018 530.88256c72.521728 0.06144 137.991168-40.076288 166.064128-101.818368 27.123712 59.785216 91.237376 101.818368 166.047744 101.818368 74.826752 0 138.940416-42.033152 166.064128-101.818368 28.055552 61.74208 93.524992 101.880832 166.04672 101.818368 99.37408 0 179.897344-74.094592 179.897344-165.501952-0.017408-31.85664-10.052608-63.010816-28.88704-89.686016"></path></svg>