<svg xmlns="http://www.w3.org/2000/svg" xmlns:xlink="http://www.w3.org/1999/xlink" version="1.1" x="0px" y="0px" viewBox="0 0 68 68" enable-background="new 0 0 68 68" xml:space="preserve"><g><path d="M38.20441,50.4502c-0.06885-0.15967-0.2251-0.26221-0.39844-0.26221h-7.4751c-0.17334,0-0.32959,0.10303-0.39844,0.26221   l-1.2373,2.86377c-0.08398,0.19434-0.00293,0.35205,0.03564,0.41064c0.03857,0.05908,0.15137,0.1958,0.36279,0.1958h9.94971   c0.21143,0,0.32421-0.13672,0.36279-0.1958c0.03857-0.05859,0.11963-0.21631,0.03564-0.41064L38.20441,50.4502z"></path><path d="M50.37,45.7666c0.32001,0,0.59003-0.26001,0.59003-0.58002v-0.77997c0-0.26001-0.18005-0.49005-0.44-0.56006l-3-0.73999   L45.94,44.46661c-0.03918-0.10144-2.82556-7.30725-2.72998-7.06c-0.37006-0.92004-1.25-1.57001-2.23004-1.65002   c-4.63-0.35999-9.33002-0.35999-13.95996,0c-0.98004,0.08002-1.86005,0.72998-2.23004,1.65002   c-0.02795,0.07245-1.73779,4.50305-2.7254,7.06213l-1.58929-1.35724l-2.99878,0.73462   c-0.2522,0.07129-0.43311,0.30151-0.43311,0.56464v0.77307c0,0.32343,0.26312,0.58661,0.58661,0.58661h2.69177l0.58514,1.15125   l-0.62695,0.91492c-0.32996,0.56-0.5,1.19995-0.5,1.84998v6.88831c0,0.43726,0.35443,0.79169,0.79169,0.79169h26.85663   c0.43726,0,0.79169-0.35266,0.79169-0.78992c0-1.9024,0-6.58313,0-6.89008c0-0.65002-0.16998-1.28998-0.51996-1.88l-0.61005-0.88   l0.59003-1.15997H50.37z M24.77997,40.14661c3.30096-0.47198,14.40735-0.5766,18.44,0L45.44,45.96661h-1.70001   c-0.25-2.13-2.03998-3.79004-4.22998-3.79004s-3.98999,1.66003-4.23999,3.79004H22.56L24.77997,40.14661z M23.37,53.0166h-2.59003   v-1.47003h3.58002L23.37,53.0166z M40.23999,54.27661c-0.26001,0.39996-0.71002,0.63995-1.20001,0.63995h-9.95001   c-0.47998,0-0.92999-0.23999-1.19995-0.63995c-0.26001-0.41003-0.31-0.91003-0.11005-1.36005l1.23004-2.85999   c0.22998-0.52997,0.75-0.87,1.32001-0.87H37.81c0.57001,0,1.08997,0.34003,1.31,0.87l1.23999,2.85999   C40.54999,53.36658,40.51001,53.86658,40.23999,54.27661z M36.26001,45.96661c0.23999-1.58002,1.60999-2.79004,3.25-2.79004   c1.63995,0,3,1.21002,3.25,2.79004H36.26001z M47.21997,51.54657v1.47003l-2.57996,0.01001l-1-1.48004H47.21997z"></path><path d="M21.29034,64.08984H7.01202c-0.27637,0-0.5,0.22363-0.5,0.5s0.22363,0.5,0.5,0.5h14.27832c0.27637,0,0.5-0.22363,0.5-0.5   S21.56671,64.08984,21.29034,64.08984z"></path><path d="M46.42511,64.08984h-20.8584c-0.27637,0-0.5,0.22363-0.5,0.5s0.22363,0.5,0.5,0.5h20.8584c0.27637,0,0.5-0.22363,0.5-0.5   S46.70148,64.08984,46.42511,64.08984z"></path><path d="M60.9881,64.08984H50.80695c-0.27637,0-0.5,0.22363-0.5,0.5s0.22363,0.5,0.5,0.5H60.9881c0.27637,0,0.5-0.22363,0.5-0.5   S61.26447,64.08984,60.9881,64.08984z"></path><path d="M31.37531,24.15186c-0.18561,0,5.0896,0,5.24268,0v-2.69238h-5.24268V24.15186z"></path><path d="M37.6214,24.15186c-0.32953,0,5.08618,0,5.24268,0v-2.69238H37.6214V24.15186z"></path><path d="M40.77032,27.84473h5.27148v-2.69287c0.1485,0-5.12402,0-5.27148,0V27.84473z"></path><path d="M34.49884,27.84473h5.27148v-2.69287c0.11993,0-4.98779,0-5.27148,0V27.84473z"></path><path d="M18.88312,24.15186c-0.19147,0,5.04907,0,5.24268,0v-2.69238h-5.24268V24.15186z"></path><path d="M21.95636,27.84473h5.27148v-2.69287c0.21606,0-5.06201,0-5.27148,0V27.84473z"></path><path d="M25.12921,24.15186c-0.19427,0,5.10883,0,5.24268,0v-2.69238h-5.24268V24.15186z"></path><path d="M28.22784,27.84473h5.271v-2.69287c0.17462,0-5.09698,0-5.271,0V27.84473z"></path><rect x="6.54327" y="47.30859" width="2.04688" height="2.69238"></rect><path d="M6.54327,46.30859c-0.18561,0,4.99176,0,5.09375,0v-2.69287c0.18561,0-4.99176,0-5.09375,0V46.30859z"></path><path d="M49.11066,21.45947h-5.24317v2.69238c0.3125,0,5.10791,0,5.24317,0V21.45947z"></path><rect x="6.54327" y="39.92285" width="2.04688" height="2.69287"></rect><rect x="6.54327" y="54.69385" width="2.04688" height="2.69287"></rect><path d="M6.54327,53.69385c-0.18561,0,4.99176,0,5.09375,0v-2.69287c0.18561,0-4.99176,0-5.09375,0V53.69385z"></path><rect x="53.31329" y="51.00098" width="2.04639" height="2.69287"></rect><path d="M58.40656,47.30859c0.18561,0-4.99127,0-5.09326,0v2.69238c-0.18561,0,4.99127,0,5.09326,0V47.30859z"></path><rect x="53.31329" y="43.61572" width="2.04639" height="2.69287"></rect><path d="M6.54327,38.92285c-0.18561,0,4.99176,0,5.09375,0v-2.69287c0.18561,0-4.99176,0-5.09375,0V38.92285z"></path><circle cx="33.99713" cy="12.64551" r="1.99194"></circle><path d="M58.40656,39.92285c0.18561,0-4.99127,0-5.09326,0v2.69287c-0.18561,0,4.99127,0,5.09326,0V39.92285z"></path><path d="M15.29327,17.45947h37.41309L33.99982,6.396L15.29327,17.45947z M36.98907,12.64551   c0,1.64941-1.34229,2.9917-2.99219,2.9917c-1.64941,0-2.9917-1.34229-2.9917-2.9917s1.34229-2.9917,2.9917-2.9917   C35.64679,9.65381,36.98907,10.99609,36.98907,12.64551z"></path><path d="M33.99982,2.91016L4.32745,20.45947c44.39502,0,18.60901,0,59.34473,0L33.99982,2.91016z M54.534,18.45947H13.46564   c-0.2251,0-0.42285-0.15088-0.48242-0.36816c-0.05908-0.21729,0.03418-0.44727,0.22803-0.56201L33.74542,5.38477   c0.15625-0.09277,0.35254-0.09277,0.50879,0L54.78839,17.5293c0.19385,0.11475,0.28711,0.34473,0.22803,0.56201   C54.95685,18.30859,54.75909,18.45947,54.534,18.45947z"></path><path d="M15.68488,27.84473h5.27148v-2.69287c0.2182,0-5.05621,0-5.27148,0V27.84473z"></path><path d="M55.35968,21.45947h-5.24609v2.69238c-0.13824,0,5.14343,0,5.24609,0V21.45947z"></path><path d="M58.40656,25.15186c0.18561,0-4.99127,0-5.09326,0v2.69287c-0.18561,0,4.99127,0,5.09326,0V25.15186z"></path><path d="M17.8797,21.45947h-5.24268v2.69238c-0.30945,0,5.02307,0,5.24268,0V21.45947z"></path><path d="M58.40656,32.5376c0.18561,0-4.99127,0-5.09326,0v2.69238c-0.18561,0,4.99127,0,5.09326,0V32.5376z"></path><rect x="53.31329" y="28.84473" width="2.04639" height="2.69287"></rect><rect x="53.31329" y="36.22998" width="2.04639" height="2.69287"></rect><path d="M58.40656,54.69385c0.18561,0-4.99127,0-5.09326,0v2.69287c-0.18561,0,4.99127,0,5.09326,0V54.69385z"></path><path d="M61.45343,51.00098c0.18561,0-4.99176,0-5.09375,0v2.69287c-0.18561,0,4.99176,0,5.09375,0V51.00098z"></path><rect x="59.40656" y="47.30859" width="2.04688" height="2.69238"></rect><rect x="59.40656" y="54.69385" width="2.04688" height="2.69287"></rect><path d="M52.31329,25.15186c0.1485,0-5.17145,0-5.27148,0v2.69287h5.27148V25.15186z"></path><path d="M61.45343,43.61572c0.18561,0-4.99176,0-5.09375,0v2.69287c-0.18561,0,4.99176,0,5.09375,0V43.61572z"></path><path d="M66,61.5766c0,0.27997-0.22003,0.5-0.5,0.5h-63c-0.28003,0-0.5-0.22003-0.5-0.5c0-0.27002,0.21997-0.5,0.5-0.5h4.03998   v-2.69c0.10999,0,5.10004,0,5.10004,0v2.69h1v-2.69h2.03998v2.69h6.15997c-0.03998-0.10999-0.06-0.23004-0.06-0.35999v-2.35004   h6.33002v2.35004c0,0.12994-0.02002,0.25-0.06,0.35999h13.90002c-0.04004-0.10999-0.06-0.23004-0.06-0.35999v-2.35004h6.32996   v2.35004c0,0.12994-0.01996,0.25-0.06,0.35999H53.31v-2.69h2.04999v2.69h1v-2.69h5.09003v2.69H65.5   C65.77997,61.0766,66,61.30658,66,61.5766z"></path><rect x="59.40656" y="39.92285" width="2.04688" height="2.69287"></rect><path d="M61.45343,28.84473c0.18561,0-4.99176,0-5.09375,0v2.69287c-0.18561,0,4.99176,0,5.09375,0V28.84473z"></path><rect x="59.40656" y="25.15186" width="2.04688" height="2.69287"></rect><path d="M61.45343,21.45947h-5.09375v2.69238c-0.18561,0,4.99176,0,5.09375,0V21.45947z"></path><path d="M61.45343,36.22998c0.18561,0-4.99176,0-5.09375,0v2.69287c-0.18561,0,4.99176,0,5.09375,0V36.22998z"></path><path d="M52.31329,28.84473c-6.89404,0-26.45917,0-36.62988,0v2.59814h36.62988V28.84473z"></path><rect x="59.40656" y="32.5376" width="2.04688" height="2.69238"></rect><rect x="12.63702" y="36.22998" width="2.04346" height="2.69287"></rect><path d="M14.68048,54.69385c0.13824,0-4.84607,0-5.09033,0v2.69287c-0.33276,0,4.91614,0,5.09033,0V54.69385z"></path><rect x="6.54327" y="25.15186" width="2.04688" height="2.69287"></rect><path d="M14.68341,25.15186c0.12225,0-4.81238,0-5.09326,0v2.69287c-0.18561,0,4.99127,0,5.09326,0V25.15186z"></path><path d="M6.54327,31.5376c-0.18561,0,4.99176,0,5.09375,0v-2.69287c0.18561,0-4.99176,0-5.09375,0V31.5376z"></path><rect x="12.63702" y="51.00098" width="2.04346" height="2.69287"></rect><path d="M11.63361,21.45947H6.54327v2.69238c-0.33276,0,4.91614,0,5.09033,0V21.45947z"></path><path d="M14.68048,32.5376c0.13824,0-4.84607,0-5.09033,0v2.69238c-0.33276,0,4.91614,0,5.09033,0V32.5376z"></path><rect x="6.54327" y="32.5376" width="2.04688" height="2.69238"></rect><rect x="12.63702" y="28.84473" width="2.04346" height="2.69287"></rect><path d="M14.68048,39.92285c0.13824,0-4.84607,0-5.09033,0v2.69287c-0.33276,0,4.91614,0,5.09033,0V39.92285z"></path><path d="M14.68048,47.30859c0.13824,0-4.84607,0-5.09033,0v2.69238c-0.33276,0,4.91614,0,5.09033,0V47.30859z"></path><rect x="12.63702" y="43.61572" width="2.04346" height="2.69287"></rect></g></svg>