<svg xmlns="http://www.w3.org/2000/svg" xmlns:xlink="http://www.w3.org/1999/xlink" version="1.1" x="0px" y="0px" viewBox="0 0 100 100" enable-background="new 0 0 100 100" xml:space="preserve"><g><path d="M81.229,37.186c0.026,0,0.026-21.356,0.026-21.356c0-2.688-1.932-4.868-4.315-4.868h-2.878   c-2.385,0-4.316,2.181-4.316,4.868v9.873L50.734,6.69c-0.343-0.344-0.9-0.344-1.244,0L6.354,49.824   c-1.803,1.806-1.806,4.728,0,6.531c1.804,1.807,4.728,1.803,6.53,0l35.053-35.052c1.201-1.203,3.149-1.203,4.354,0l34.828,34.831   c1.803,1.8,4.727,1.803,6.528,0c1.807-1.807,1.805-4.728,0-6.53L81.229,37.186z"></path><path d="M71.485,93.566c5.315,0,9.623-4.308,9.623-9.622V56.771c0-0.486-0.278-1.157-0.621-1.501L50.592,25.396   c-0.343-0.344-0.902-0.344-1.243,0L19.515,55.268c-0.344,0.344-0.622,1.017-0.622,1.503v27.174c0,5.314,4.308,9.622,9.624,9.622   H71.485z M45.719,88.51c-1.988,0-3.6-1.611-3.6-3.6s1.611-3.6,3.6-3.6s3.6,1.611,3.6,3.6S47.707,88.51,45.719,88.51z M57.384,88.51   c-1.988,0-3.6-1.611-3.6-3.6s1.611-3.6,3.6-3.6s3.6,1.611,3.6,3.6S59.372,88.51,57.384,88.51z M39.816,60.871   c0.262-0.361,0.693-0.6,1.179-0.6h2.254c0.488,0,0.882-0.394,0.882-0.88v-5.755c0-0.784,0.648-1.424,1.446-1.424h7.233   c0.798,0,1.446,0.64,1.446,1.424v2.674c0,0.487,0.396,0.88,0.881,0.88h3.115c0.456,0,0.826,0.374,0.826,0.83v1.371   c0,0.486,0.396,0.88,0.881,0.88h2.736c0.485,0,0.917,0.238,1.178,0.6c0.287,0.395,0.117,1.188-0.066,1.637l-4.246,10.324   c-0.362,0.918-0.647,1.422-1.447,1.422H45.096c-0.8,0-1.107-0.636-1.449-1.422l-3.794-10.312   C39.686,62.064,39.53,61.266,39.816,60.871z M30.546,60.033c3.092,0,4.957,0.004,6.054,0.006c1.065,0,1.646,1.358,1.982,2.374   c1.101,2.991,3.18,8.714,4.224,11.545c0.396,1.025,1.08,1.36,2.112,1.36c3.016,0,10.693,0,13.732,0c1.062,0,1.488-0.462,1.758-1.36   c0.871-2.175,1.863-4.604,2.466-6.111c0.397-1.001,1.318-4.078,3.259-3.412c1.94,0.663,1.932,1.585,1.016,4.204   c-4.18,10.772-4.299,10.871-4.902,10.871c-2.31,0-13.205,0-22.035,0c-0.854,0-4.318-10.179-5.495-13.875   c-0.238-0.852-0.757-1.186-1.478-1.186c-0.985,0-1.813,0-2.79,0C26.148,64.449,26.176,60.033,30.546,60.033z"></path></g></svg>