<svg xmlns="http://www.w3.org/2000/svg" xmlns:xlink="http://www.w3.org/1999/xlink" version="1.1" x="0px" y="0px" viewBox="0 0 64 64" enable-background="new 0 0 64 64" xml:space="preserve"><g><g><path  d="M53,9.8h-3.3h-2h-6.3h-2H33h-2h-6.3h-2h-6.3h-2H11c-2.8,0-5,2.2-5,5v9.8c0,2.4,1.7,4.5,4,5v24.7h7h13h24    V29.5c2.3-0.5,4-2.6,4-5v-9.8C58,12,55.8,9.8,53,9.8z M41.3,11.8h6.3v12.8c0,1.7-1.4,3.2-3.2,3.2s-3.2-1.4-3.2-3.2V11.8z M33,11.8    h6.3v12.8c0,1.7-1.4,3.2-3.2,3.2S33,26.3,33,24.5V11.8z M24.7,11.8H31v12.8c0,1.7-1.4,3.2-3.2,3.2s-3.2-1.4-3.2-3.2V11.8z     M16.3,11.8h6.3v12.8c0,1.7-1.4,3.2-3.2,3.2s-3.2-1.4-3.2-3.2V11.8z M8,24.5v-9.8c0-1.7,1.3-3,3-3h3.3v12.8c0,1.7-1.4,3.2-3.2,3.2    l0,0C9.4,27.7,8,26.3,8,24.5z M19,52.2v-18h9v18H19z M52,52.2H30v-20H17v20h-5V29.6c0,0,0.1,0,0.1,0c0.2,0,0.3-0.1,0.5-0.1    c0.2,0,0.3-0.1,0.5-0.1c0.2-0.1,0.3-0.1,0.5-0.2c0.1-0.1,0.3-0.1,0.4-0.2c0.1-0.1,0.3-0.2,0.4-0.3c0.1-0.1,0.3-0.2,0.4-0.3    c0.1-0.1,0.2-0.2,0.3-0.4c0.1-0.1,0.2-0.2,0.3-0.3c0.1,0.2,0.3,0.4,0.5,0.6c0,0,0.1,0.1,0.1,0.1c0.4,0.4,0.9,0.8,1.5,1    c0.1,0,0.1,0,0.2,0.1c0.3,0.1,0.6,0.2,0.8,0.3c0.1,0,0.1,0,0.2,0c0.3,0.1,0.6,0.1,0.9,0.1s0.6,0,0.9-0.1c0.1,0,0.1,0,0.2,0    c0.3-0.1,0.6-0.2,0.8-0.3c0.1,0,0.1,0,0.2-0.1c0.6-0.2,1.1-0.6,1.5-1c0,0,0.1-0.1,0.1-0.1c0.2-0.2,0.3-0.4,0.5-0.6    c0.1,0.2,0.3,0.4,0.5,0.5c0,0,0.1,0.1,0.1,0.1c0.2,0.2,0.4,0.4,0.7,0.6c0,0,0,0,0,0c0.2,0.2,0.5,0.3,0.8,0.4c0.1,0,0.1,0,0.2,0.1    c0.3,0.1,0.5,0.2,0.8,0.3c0.1,0,0.1,0,0.2,0c0.3,0.1,0.6,0.1,0.9,0.1s0.6,0,0.9-0.1c0.1,0,0.1,0,0.2,0c0.3-0.1,0.6-0.2,0.8-0.3    c0.1,0,0.1,0,0.2-0.1c0.6-0.2,1.1-0.6,1.5-1c0,0,0.1-0.1,0.1-0.1c0.2-0.2,0.3-0.4,0.5-0.6c0.1,0.2,0.3,0.4,0.5,0.6    c0,0,0.1,0.1,0.1,0.1c0.4,0.4,0.9,0.8,1.5,1c0.1,0,0.1,0,0.2,0.1c0.3,0.1,0.6,0.2,0.8,0.3c0.1,0,0.1,0,0.2,0    c0.3,0.1,0.6,0.1,0.9,0.1s0.6,0,0.9-0.1c0.1,0,0.1,0,0.2,0c0.3-0.1,0.6-0.2,0.8-0.3c0.1,0,0.1,0,0.2-0.1c0.3-0.1,0.5-0.3,0.8-0.4    c0,0,0,0,0,0c0.2-0.2,0.5-0.4,0.7-0.6c0,0,0.1-0.1,0.1-0.1c0.2-0.2,0.3-0.4,0.5-0.5c0.1,0.2,0.3,0.4,0.5,0.6c0,0,0.1,0.1,0.1,0.1    c0.4,0.4,0.9,0.8,1.5,1c0.1,0,0.1,0,0.2,0.1c0.3,0.1,0.6,0.2,0.8,0.3c0.1,0,0.1,0,0.2,0c0.3,0.1,0.6,0.1,0.9,0.1s0.6,0,0.9-0.1    c0.1,0,0.1,0,0.2,0c0.3-0.1,0.6-0.2,0.8-0.3c0.1,0,0.1,0,0.2-0.1c0.6-0.2,1.1-0.6,1.5-1c0,0,0.1-0.1,0.1-0.1    c0.2-0.2,0.3-0.4,0.5-0.6c0.1,0.1,0.2,0.2,0.3,0.3c0.1,0.1,0.2,0.3,0.3,0.4c0.1,0.1,0.2,0.2,0.4,0.3c0.1,0.1,0.3,0.2,0.4,0.3    c0.1,0.1,0.3,0.2,0.4,0.2c0.2,0.1,0.3,0.2,0.5,0.2c0.2,0.1,0.3,0.1,0.5,0.1c0.2,0,0.3,0.1,0.5,0.1c0,0,0.1,0,0.1,0V52.2z M56,24.5    c0,1.7-1.3,3.1-3,3.2l0,0l-0.2,0c-0.1,0-0.2,0-0.4,0c-0.1,0-0.2,0-0.3,0c-0.1,0-0.2-0.1-0.3-0.1c-0.1,0-0.2,0-0.2-0.1    c-0.1,0-0.2-0.1-0.3-0.2c-0.1,0-0.1-0.1-0.2-0.1c-0.1-0.1-0.2-0.2-0.3-0.2c-0.1-0.1-0.1-0.1-0.2-0.2c-0.1-0.1-0.2-0.2-0.2-0.3    c0-0.1-0.1-0.1-0.1-0.2c-0.1-0.1-0.1-0.2-0.2-0.3c0-0.1-0.1-0.1-0.1-0.2c-0.1-0.1-0.1-0.3-0.1-0.4c0-0.1,0-0.1-0.1-0.2    c0-0.2-0.1-0.4-0.1-0.6V11.8H53c1.7,0,3,1.3,3,3V24.5z"></path><path  d="M44.5,37.6l-2.7-5.6L39,37.6l-6.1,0.9l4.4,4.3l-1,6.1l5.5-2.9l5.5,2.9l-1-6.1l4.4-4.3L44.5,37.6z     M44.6,45.3l-2.8-1.5l-2.8,1.5l0.5-3.2l-2.3-2.2l3.2-0.5l1.4-2.9l1.4,2.9l3.2,0.5L44,42.1L44.6,45.3z"></path></g></g></svg>