<svg xmlns="http://www.w3.org/2000/svg" data-name="Layer 1" viewBox="0 0 100 100" x="0px" y="0px"><title>12</title><g data-name="Group"><path data-name="Compound Path" d="M89.74,24.9a1,1,0,0,0-1-1h-.8a9.69,9.69,0,0,0-9.68-9.65H21.74a9.69,9.69,0,0,0-9.68,9.65h-.8a1,1,0,0,0-1,1v4a7.42,7.42,0,0,0,1.82,4.87h0V76.07a9.69,9.69,0,0,0,9.68,9.68H78.26a9.69,9.69,0,0,0,9.68-9.68V33.73h0a7.42,7.42,0,0,0,1.82-4.87Zm-12.91,1H87.74v3a5.46,5.46,0,0,1-10.91,0ZM21.74,16.25H78.26a7.69,7.69,0,0,1,7.68,7.65H14.06A7.69,7.69,0,0,1,21.74,16.25ZM59.61,25.9H74.83v4.4a7.61,7.61,0,0,1-15.22,0Zm-17.22,0H57.61v4.4a7.61,7.61,0,0,1-15.22,0Zm-17.22,3v-3H40.39v4.4a7.61,7.61,0,0,1-15.22,0Zm-12.91-3H23.17v3a5.46,5.46,0,0,1-10.91,0ZM57.61,83.75H42.39V66a7.61,7.61,0,0,1,15.22,0Zm20.65,0H59.61V66a9.61,9.61,0,0,0-19.22,0V83.75H21.74a7.69,7.69,0,0,1-7.68-7.68V35.35a7.42,7.42,0,0,0,9.61-2,9.59,9.59,0,0,0,17.72,1.21,9.59,9.59,0,0,0,17.22,0,9.59,9.59,0,0,0,17.72-1.21,7.42,7.42,0,0,0,9.61,2V76.07A7.69,7.69,0,0,1,78.26,83.75Z"></path><path data-name="Compound Path" d="M33.09,57.25H20.9a1,1,0,0,0-1,1V69.56a1,1,0,0,0,1,1H33.09a1,1,0,0,0,1-1V58.25A1,1,0,0,0,33.09,57.25Zm-1,11.31H21.9V59.25H32.09Z"></path><path data-name="Compound Path" d="M79.1,57.25H66.91a1,1,0,0,0-1,1V69.56a1,1,0,0,0,1,1H79.1a1,1,0,0,0,1-1V58.25A1,1,0,0,0,79.1,57.25Zm-1,11.31H67.91V59.25H78.1Z"></path></g></svg>