<svg xmlns="http://www.w3.org/2000/svg" xmlns:xlink="http://www.w3.org/1999/xlink" version="1.1" x="0px" y="0px" viewBox="0 0 100 100" enable-background="new 0 0 100 100" xml:space="preserve"><path d="M33.281,57.936h3.257c0.004,0,0.008,0.001,0.012,0.001c0.002,0,0.005-0.001,0.007-0.001h40.916c1.381,0,2.5-1.119,2.5-2.5  V27.202c0-1.381-1.119-2.5-2.5-2.5H37.696l-0.913-3.284c-0.369-1.331-1.748-2.106-3.078-1.74c-1.331,0.37-2.109,1.748-1.74,3.078  l0.541,1.946h-1.788l-0.51-1.859c-0.298-1.086-1.285-1.839-2.411-1.839h0l-5.387,0.001c-0.773-1.052-2.009-1.744-3.412-1.744  c-2.34,0-4.243,1.903-4.243,4.243s1.903,4.244,4.243,4.244c1.402,0,2.638-0.692,3.412-1.743l3.481-0.001l0.509,1.856  c0,0.001,0,0.001,0,0.002l6.874,25.072c-5.707,0.004-10.349,4.648-10.349,10.356c0,4.776,3.254,8.796,7.658,9.988  c-1.197,1.384-1.927,3.182-1.927,5.15c0,4.35,3.539,7.889,7.889,7.889c4.346,0,7.883-3.534,7.888-7.879  c0-0.003,0.001-0.007,0.001-0.01v-4.781h15.593c-1.017,1.328-1.629,2.982-1.629,4.781c0,4.35,3.539,7.889,7.889,7.889  s7.889-3.539,7.889-7.889c0-0.003,0-0.007,0-0.01v-4.771h3.26c1.381,0,2.5-1.119,2.5-2.5s-1.119-2.5-2.5-2.5h-3.26v-0.492  c0-1.381-1.119-2.5-2.5-2.5s-2.5,1.119-2.5,2.5v0.492H44.434v-0.492c0-1.381-1.119-2.5-2.5-2.5s-2.5,1.119-2.5,2.5v0.492h-6.152  c-2.954,0-5.356-2.403-5.356-5.357C27.925,60.339,30.328,57.936,33.281,57.936z M74.973,29.702v23.233H44.242l-6.455-23.233H74.973z   M32.089,29.702h3.103l6.455,23.233h-3.188L32.089,29.702z M66.287,81.319c-1.593,0-2.889-1.296-2.889-2.889  s1.296-2.889,2.889-2.889s2.889,1.296,2.889,2.889S67.879,81.319,66.287,81.319z M36.544,81.319c-1.593,0-2.889-1.296-2.889-2.889  s1.296-2.889,2.889-2.889s2.889,1.296,2.889,2.889S38.137,81.319,36.544,81.319z"></path></svg>