<svg xmlns="http://www.w3.org/2000/svg" xmlns:xlink="http://www.w3.org/1999/xlink" version="1.1" x="0px" y="0px" viewBox="0 0 50 50"  xml:space="preserve"><path d="M31.5019531,31.3408203h-5.1376953c-0.1376953,0-0.25,0.1118164-0.25,0.25v2.2416992c0,0.1381836,0.1123047,0.25,0.25,0.25  h5.1376953c0.1376953,0,0.25-0.1118164,0.25-0.25v-2.2416992C31.7519531,31.4526367,31.6396484,31.3408203,31.5019531,31.3408203z   M31.2519531,33.5825195h-4.6376953v-1.7416992h4.6376953V33.5825195z M28.4804688,14.7583008  c0.8017578,0,1.4541016-0.6518555,1.4541016-1.453125c0-0.8017578-0.6523438-1.4536133-1.4541016-1.4536133  c-0.8007813,0-1.453125,0.6518555-1.453125,1.4536133C27.0273438,14.1064453,27.6796875,14.7583008,28.4804688,14.7583008z   M28.4804688,12.3515625c0.5263672,0,0.9541016,0.4277344,0.9541016,0.9536133c0,0.5253906-0.4277344,0.953125-0.9541016,0.953125  c-0.5253906,0-0.953125-0.4277344-0.953125-0.953125C27.5273438,12.7792969,27.9550781,12.3515625,28.4804688,12.3515625z   M31.4521484,9.5800781c0.4980469,0,0.9033203-0.4052734,0.9033203-0.9033203s-0.4052734-0.9033203-0.9033203-0.9033203  s-0.9033203,0.4052734-0.9033203,0.9033203S30.9541016,9.5800781,31.4521484,9.5800781z M31.4521484,8.2734375  c0.2226563,0,0.4033203,0.1811523,0.4033203,0.4033203s-0.1806641,0.4033203-0.4033203,0.4033203  s-0.4033203-0.1811523-0.4033203-0.4033203S31.2294922,8.2734375,31.4521484,8.2734375z M31.4521484,10.9130859  c-0.4980469,0-0.9033203,0.4052734-0.9033203,0.9033203s0.4052734,0.9033203,0.9033203,0.9033203  s0.9033203-0.4052734,0.9033203-0.9033203S31.9501953,10.9130859,31.4521484,10.9130859z M31.4521484,12.2197266  c-0.2226563,0-0.4033203-0.1811523-0.4033203-0.4033203s0.1806641-0.4033203,0.4033203-0.4033203  s0.4033203,0.1811523,0.4033203,0.4033203S31.6748047,12.2197266,31.4521484,12.2197266z M33.0214844,11.1499023  c0.4980469,0,0.9033203-0.4052734,0.9033203-0.9033203s-0.4052734-0.9033203-0.9033203-0.9033203  s-0.9033203,0.4052734-0.9033203,0.9033203S32.5234375,11.1499023,33.0214844,11.1499023z M33.0214844,9.8432617  c0.2226563,0,0.4033203,0.1811523,0.4033203,0.4033203s-0.1806641,0.4033203-0.4033203,0.4033203  s-0.4033203-0.1811523-0.4033203-0.4033203S32.7988281,9.8432617,33.0214844,9.8432617z M29.8818359,11.1499023  c0.4980469,0,0.9033203-0.4052734,0.9033203-0.9033203s-0.4052734-0.9033203-0.9033203-0.9033203  s-0.9033203,0.4052734-0.9033203,0.9033203S29.3837891,11.1499023,29.8818359,11.1499023z M29.8818359,9.8432617  c0.2226563,0,0.4033203,0.1811523,0.4033203,0.4033203s-0.1806641,0.4033203-0.4033203,0.4033203  s-0.4033203-0.1811523-0.4033203-0.4033203S29.6591797,9.8432617,29.8818359,9.8432617z M20.7509766,13.3051758  c0,0.8012695,0.6523438,1.453125,1.4541016,1.453125c0.8007813,0,1.453125-0.6518555,1.453125-1.453125  c0-0.8017578-0.6523438-1.4536133-1.453125-1.4536133C21.4033203,11.8515625,20.7509766,12.503418,20.7509766,13.3051758z   M22.2050781,12.3515625c0.5253906,0,0.953125,0.4277344,0.953125,0.9536133c0,0.5253906-0.4277344,0.953125-0.953125,0.953125  c-0.5263672,0-0.9541016-0.4277344-0.9541016-0.953125C21.2509766,12.7792969,21.6787109,12.3515625,22.2050781,12.3515625z   M17.3535156,11.1079102h1.015625v1.015625c0,0.1381836,0.1123047,0.25,0.25,0.25h1.2285156c0.1376953,0,0.25-0.1118164,0.25-0.25  v-1.015625h1.015625c0.1376953,0,0.25-0.1118164,0.25-0.25V9.6293945c0-0.1381836-0.1123047-0.25-0.25-0.25h-1.015625V8.3632813  c0-0.1381836-0.1123047-0.25-0.25-0.25h-1.2285156c-0.1376953,0-0.25,0.1118164-0.25,0.25v1.0161133h-1.015625  c-0.1376953,0-0.25,0.1118164-0.25,0.25v1.2285156C17.1035156,10.9960938,17.2158203,11.1079102,17.3535156,11.1079102z   M17.6035156,9.8793945h1.015625c0.1376953,0,0.25-0.1118164,0.25-0.25V8.6132813h0.7285156v1.0161133  c0,0.1381836,0.1123047,0.25,0.25,0.25h1.015625v0.7285156h-1.015625c-0.1376953,0-0.25,0.1118164-0.25,0.25v1.015625h-0.7285156  v-1.015625c0-0.1381836-0.1123047-0.25-0.25-0.25h-1.015625V9.8793945z M24.8535156,9.5800781h0.9033203  c0.3867188,0,0.7021484-0.3149414,0.7021484-0.7016602c0-0.387207-0.3154297-0.7021484-0.7021484-0.7021484h-0.9033203  c-0.3867188,0-0.7021484,0.3149414-0.7021484,0.7021484C24.1513672,9.2651367,24.4667969,9.5800781,24.8535156,9.5800781z   M24.8535156,8.6762695h0.9033203c0.1113281,0,0.2021484,0.0908203,0.2021484,0.2021484s-0.0908203,0.2016602-0.2021484,0.2016602  h-0.9033203c-0.1113281,0-0.2021484-0.090332-0.2021484-0.2016602S24.7421875,8.6762695,24.8535156,8.6762695z   M24.8535156,11.4008789h0.9033203c0.3867188,0,0.7021484-0.3149414,0.7021484-0.7021484S26.1435547,9.996582,25.7568359,9.996582  h-0.9033203c-0.3867188,0-0.7021484,0.3149414-0.7021484,0.7021484S24.4667969,11.4008789,24.8535156,11.4008789z   M24.8535156,10.496582h0.9033203c0.1113281,0,0.2021484,0.0908203,0.2021484,0.2021484s-0.0908203,0.2021484-0.2021484,0.2021484  h-0.9033203c-0.1113281,0-0.2021484-0.0908203-0.2021484-0.2021484S24.7421875,10.496582,24.8535156,10.496582z M35.25,38.71875  h2.59375c1.1025391,0,2-0.8969727,2-2V31.1875c0-0.4995117-0.40625-0.90625-0.90625-0.90625H35.25  c-0.5,0-0.90625,0.4067383-0.90625,0.90625v6.625C34.34375,38.3120117,34.75,38.71875,35.25,38.71875z M34.84375,31.1875  c0-0.2241211,0.1826172-0.40625,0.40625-0.40625h3.6875c0.2236328,0,0.40625,0.1821289,0.40625,0.40625v5.53125  c0,0.8271484-0.6728516,1.5-1.5,1.5H35.25c-0.2236328,0-0.40625-0.1821289-0.40625-0.40625V31.1875z M35.5234375,34.75h3.140625  c0.1376953,0,0.25-0.1118164,0.25-0.25v-3.140625c0-0.1381836-0.1123047-0.25-0.25-0.25h-3.140625  c-0.1376953,0-0.25,0.1118164-0.25,0.25V34.5C35.2734375,34.6381836,35.3857422,34.75,35.5234375,34.75z M35.7734375,31.609375  h2.640625V34.25h-2.640625V31.609375z M35.2734375,36.7294922c0-0.1381836,0.1123047-0.25,0.25-0.25h0.2480469v-0.2480469  c0-0.1381836,0.1123047-0.25,0.25-0.25s0.25,0.1118164,0.25,0.25v0.2480469h0.2480469c0.1376953,0,0.25,0.1118164,0.25,0.25  s-0.1123047,0.25-0.25,0.25h-0.2480469v0.2480469c0,0.1381836-0.1123047,0.25-0.25,0.25s-0.25-0.1118164-0.25-0.25v-0.2480469  h-0.2480469C35.3857422,36.9794922,35.2734375,36.8676758,35.2734375,36.7294922z M37.8839722,36.0236816  c0,0.1147461-0.0930786,0.2078247-0.2078857,0.2078247c-0.1147461,0-0.2078247-0.0930786-0.2078247-0.2078247  c0-0.1148071,0.0930786-0.2078857,0.2078247-0.2078857C37.7908936,35.8157959,37.8839722,35.9088745,37.8839722,36.0236816z   M38.715332,36.0236816c0,0.1147461-0.0930786,0.2078247-0.2078857,0.2078247c-0.1147461,0-0.2078247-0.0930786-0.2078247-0.2078247  c0-0.1148071,0.0930786-0.2078857,0.2078247-0.2078857C38.6222534,35.8157959,38.715332,35.9088745,38.715332,36.0236816z   M37.8839722,35.6079712c0-0.1148071,0.0930176-0.2078247,0.2078247-0.2078247s0.2078247,0.0930176,0.2078247,0.2078247  s-0.0930176,0.2078247-0.2078247,0.2078247S37.8839722,35.7227783,37.8839722,35.6079712z M38.2996216,36.4393311  c0,0.1148071-0.0930176,0.2078247-0.2078247,0.2078247s-0.2078247-0.0930176-0.2078247-0.2078247  s0.0930176-0.2078247,0.2078247-0.2078247S38.2996216,36.3245239,38.2996216,36.4393311z M9.6162109,34.1953125l0.5419922,0.4902344  C10.2041016,34.7270508,10.2646484,34.75,10.3261719,34.75c0.0039063,0,0.0087891,0,0.0126953-0.0004883  c0.0664063-0.0029297,0.1279297-0.0327148,0.1728516-0.0820313l1.0136719-1.1213379l0.3857422,0.348877  c0.0458984,0.0415039,0.1064453,0.0644531,0.1679688,0.0644531c0.0039063,0,0.0087891,0,0.0126953-0.0004883  c0.0664063-0.0029297,0.1279297-0.0327148,0.1728516-0.0820313l0.4902344-0.5424805  c0.0927734-0.1020508,0.0849609-0.2602539-0.0175781-0.3530273l-0.1188354-0.1074829l0.5067139-0.4931641l0.5064087,0.493103  l-0.1188965,0.1075439c-0.1025391,0.0927734-0.1103516,0.2509766-0.0175781,0.3530273l0.4902344,0.5424805  c0.0449219,0.0493164,0.1064453,0.0791016,0.1728516,0.0820313c0.0039063,0.0004883,0.0087891,0.0004883,0.0126953,0.0004883  c0.0615234,0,0.1220703-0.0229492,0.1679688-0.0644531l0.3857422-0.348877l1.0136719,1.1213379  c0.0449219,0.0493164,0.1064453,0.0791016,0.1728516,0.0820313C15.9150391,34.75,15.9199219,34.75,15.9238281,34.75  c0.0615234,0,0.1220703-0.0229492,0.1679688-0.0644531l0.5419922-0.4902344  c0.1025391-0.0927734,0.1103516-0.2509766,0.0175781-0.3530273l-1.013916-1.1216431l0.3859863-0.3490601  c0.1025391-0.0927734,0.1103516-0.2509766,0.0175781-0.3530273l-0.4902344-0.5424805  c-0.0449219-0.0493164-0.1064453-0.0791016-0.1728516-0.0820313c-0.0605469-0.0053711-0.1318359,0.0195313-0.1806641,0.0639648  l-0.1190796,0.107666l-0.4866333-0.6119995l1.8684082-1.8184204c0.0419922-0.0410156,0.0683594-0.0957031,0.0742188-0.1542969  l0.1806641-1.7924805c0.0078125-0.0791016-0.0224609-0.1572266-0.0810547-0.2104492  c-0.0595703-0.0537109-0.140625-0.0761719-0.2177734-0.0595703l-1.7646484,0.3603516  c-0.0576172,0.0117188-0.109375,0.043457-0.1455078,0.0898438L13.125,29.1071167l-1.3808594-1.7384644  c-0.0361328-0.0463867-0.0878906-0.078125-0.1455078-0.0898438L9.8339844,26.918457  c-0.0761719-0.0146484-0.1582031,0.0058594-0.2177734,0.0595703C9.5576172,27.03125,9.5273438,27.109375,9.5351563,27.1884766  l0.1806641,1.7924805c0.0058594,0.0585938,0.0322266,0.1132813,0.0742188,0.1542969l1.8684082,1.8180542l-0.4865112,0.6124878  l-0.1192017-0.1077881c-0.0488281-0.0444336-0.1113281-0.0698242-0.1806641-0.0639648  c-0.0664063,0.0029297-0.1279297,0.0327148-0.1728516,0.0820313l-0.4902344,0.5424805  c-0.0927734,0.1020508-0.0849609,0.2602539,0.0175781,0.3530273l0.3859863,0.3490601l-1.013916,1.1216431  C9.5058594,33.9443359,9.5136719,34.1025391,9.6162109,34.1953125z M13.4840698,32.0314941l0.1933594-0.1881714l0.4920044,0.5441895  l-0.1657715,0.1499023L13.4840698,32.0314941z M16.1123047,33.9921875l-0.1708984,0.1547852l-0.8460083-0.9360962  l0.1712036-0.1548462L16.1123047,33.9921875z M15.5019531,32.168457l-1.3134766,1.1879883l-0.1542969-0.171875l1.3134766-1.1879883  L15.5019531,32.168457z M14.7068481,31.9014893l-0.166626,0.1506958l-0.5043335-0.5577393l0.1958008-0.1905518  L14.7068481,31.9014893z M12.2463379,32.5374756l-0.1657715-0.1499634l4.0599976-4.491394l-0.0946655,0.9442139  L12.2463379,32.5374756z M12.8062744,29.5083008l-0.2646484,0.3331299l-2.0614014-2.2805786l0.9289551,0.1896362  L12.8062744,29.5083008z M10.2041016,28.840332l-0.0946655-0.9441528l2.1170044,2.3421021l-0.2550049,0.3210449  L10.2041016,28.840332z M14.8408203,27.7504883l0.9289551-0.1896362l-4.0599976,4.491333l-0.1669312-0.1509399  L14.8408203,27.7504883z M10.9023438,31.996582l1.3134766,1.1879883l-0.1542969,0.171875l-1.3134766-1.1879883L10.9023438,31.996582  z M10.9833984,33.0560303l0.1712036,0.1548462l-0.8460083,0.9360962l-0.1708984-0.1547852L10.9833984,33.0560303z   M15.9345703,36.3603516c-0.0039063,0.0009766-0.2910156,0.1274414-1.3681641-0.1269531  c-1.0878906-0.2573242-1.2216797-0.8740234-1.2255859-0.8964844c-0.0195313-0.1196289-0.1220703-0.2055664-0.2431641-0.2080078  c-0.0019531,0-0.0029297,0-0.0039063,0c-0.1201172,0-0.2226563,0.0869141-0.2460938,0.2041016  c-0.0048828,0.0263672-0.1386719,0.6430664-1.2265625,0.9003906c-0.5644531,0.1333008-0.9121094,0.1625977-1.1113281,0.1625977  c-0.1865234,0-0.2324219-0.0185547-0.2285156-0.0166016c-0.0771484-0.0639648-0.1845703-0.0751953-0.2744141-0.0297852  c-0.0898438,0.0463867-0.1435547,0.1420898-0.1347656,0.2426758c0.0058594,0.0786133,0.1630859,1.9331055,0.5566406,2.6772461  c0.7363281,1.394043,2.4287109,2.8837891,2.5,2.9462891c0.0478516,0.0415039,0.1064453,0.0620117,0.1650391,0.0620117  s0.1171875-0.0205078,0.1650391-0.0620117c0.0712891-0.0625,1.7636719-1.5522461,2.5-2.9462891  c0.3935547-0.7441406,0.5507813-2.5986328,0.5566406-2.6772461c0.0087891-0.1005859-0.0302734-0.206543-0.1201172-0.2529297  C16.1064453,36.293457,16.0107422,36.2963867,15.9345703,36.3603516z M10.8701172,39.0361328  c-0.2373047-0.4487305-0.3955078-1.5073242-0.4667969-2.1474609c0.2773438,0.0185547,0.6904297-0.0161133,1.3330078-0.1689453  c0.5215454-0.1233521,0.8683472-0.3248901,1.1074219-0.5324097v5.2659302  C12.2976074,40.9263916,11.3500366,39.9440918,10.8701172,39.0361328z M15.3173828,39.0361328  c-0.4799194,0.907959-1.4274902,1.8902588-1.9736328,2.4171143v-5.2659302  c0.2390747,0.2075195,0.5858765,0.4090576,1.1074219,0.5324097c0.6425781,0.1523438,1.0556641,0.1850586,1.3330078,0.1689453  C15.7128906,37.5288086,15.5546875,38.5874023,15.3173828,39.0361328z M26.4013672,19.8764648  c0.0908203,0.0458984,0.1894531,0.0693359,0.2880859,0.0693359c0.0654297,0,0.1318359-0.0102539,0.1962891-0.03125  c0.1601563-0.0517578,0.2919922-0.1635742,0.3691406-0.3144531s0.0908203-0.3227539,0.0390625-0.484375  c-0.1074219-0.3330078-0.4667969-0.5141602-0.7998047-0.4077148c-0.1611328,0.0522461-0.2919922,0.1640625-0.3691406,0.3149414  s-0.0908203,0.3227539-0.0390625,0.4838867C26.1386719,19.6679688,26.2509766,19.7993164,26.4013672,19.8764648z   M26.5703125,19.2504883c0.015625-0.0322266,0.0439453-0.0556641,0.078125-0.0668945  c0.0136719-0.0043945,0.0273438-0.0063477,0.0410156-0.0063477c0.0566406,0,0.1103516,0.0361328,0.1279297,0.0927734  c0.0117188,0.0341797,0.0087891,0.0703125-0.0078125,0.1025391c-0.0166016,0.0317383-0.0439453,0.0551758-0.078125,0.0664063  c-0.0712891,0.0239258-0.1474609-0.0166016-0.1689453-0.0864258C26.5507813,19.3183594,26.5537109,19.2822266,26.5703125,19.2504883  z M28.8388672,19.25c0.0644531,0,0.1308594-0.0097656,0.1953125-0.0307617  c0.1611328-0.0522461,0.2919922-0.1640625,0.3691406-0.3149414s0.0908203-0.3227539,0.0390625-0.4838867  c-0.1083984-0.3325195-0.4667969-0.515625-0.7998047-0.4082031c-0.3330078,0.1083984-0.515625,0.4663086-0.4082031,0.7988281  C28.3212891,19.0791016,28.5712891,19.25,28.8388672,19.25z M28.796875,18.487793  c0.0136719-0.0043945,0.0273438-0.0063477,0.0410156-0.0063477c0.0566406,0,0.1103516,0.0361328,0.1279297,0.0932617  c0.0117188,0.0341797,0.0087891,0.0703125-0.0078125,0.1020508c-0.015625,0.0322266-0.0439453,0.0556641-0.078125,0.0668945  c-0.0703125,0.0214844-0.1474609-0.0161133-0.1689453-0.0869141C28.6875,18.5864258,28.7265625,18.5107422,28.796875,18.487793z   M24.2529297,20.5717773c0.0908203,0.0463867,0.1884766,0.0698242,0.2880859,0.0698242  c0.0654297,0,0.1308594-0.0102539,0.1953125-0.03125c0.3330078-0.1079102,0.5166016-0.4663086,0.4091797-0.7988281  c-0.0527344-0.1611328-0.1650391-0.2924805-0.3154297-0.3696289c-0.1513672-0.0771484-0.3251953-0.0913086-0.4833984-0.0380859  c-0.1611328,0.0517578-0.2929688,0.1630859-0.3701172,0.3134766c-0.0771484,0.1513672-0.0908203,0.3237305-0.0390625,0.4853516  C23.9902344,20.3637695,24.1015625,20.4946289,24.2529297,20.5717773z M24.421875,19.9453125  c0.015625-0.03125,0.0439453-0.0546875,0.078125-0.065918c0.0136719-0.0043945,0.0273438-0.0063477,0.0410156-0.0063477  c0.0576172,0,0.1103516,0.0361328,0.1279297,0.0927734c0.0234375,0.0703125-0.015625,0.1459961-0.0869141,0.1689453  c-0.0341797,0.0107422-0.0693359,0.0073242-0.1015625-0.0083008c-0.0322266-0.0161133-0.0556641-0.0439453-0.0664063-0.078125  C24.4023438,20.0141602,24.4052734,19.9775391,24.421875,19.9453125z M37.1171875,14.4736328  c0.1542969,0.0761719,0.3183594,0.1123047,0.4804688,0.1123047c0.4013672,0,0.7890625-0.2226563,0.9785156-0.6064453  c0.1279297-0.2612305,0.1474609-0.5566406,0.0546875-0.8320313c-0.09375-0.2753906-0.2880859-0.4985352-0.5498047-0.6269531  C37.8212891,12.3916016,37.5234375,12.3730469,37.25,12.465332c-0.2763672,0.09375-0.4990234,0.2885742-0.6279297,0.5493164  C36.3564453,13.5532227,36.578125,14.2075195,37.1171875,14.4736328z M37.0712891,13.2363281  c0.0693359-0.1411133,0.1894531-0.246582,0.3388672-0.2973633c0.0625-0.0209961,0.1259766-0.03125,0.1894531-0.03125  c0.0898438,0,0.1777344,0.0205078,0.2607422,0.0610352c0.140625,0.0698242,0.2460938,0.1899414,0.296875,0.3393555  c0.0507813,0.1489258,0.0400391,0.3085938-0.0302734,0.449707c-0.1425781,0.2905273-0.4951172,0.4111328-0.7890625,0.2675781  C37.046875,13.8813477,36.9267578,13.5273438,37.0712891,13.2363281z M37.5678101,13.5606689  c-0.1102295-0.0544434-0.1554565-0.1879883-0.1010132-0.2982178c0.0544434-0.1102905,0.1879883-0.1555176,0.2982178-0.1010742  c0.1102905,0.0544434,0.1555176,0.1879883,0.1010742,0.2982178C37.8115845,13.5698853,37.6781006,13.6151123,37.5678101,13.5606689z   M10.0859375,9.284668c-0.0625-0.1230469-0.0146484-0.2734375,0.1083984-0.3364258  c0.1201172-0.0634766,0.2724609-0.0166016,0.3369141,0.1079102l0.2333984,0.4545898  c0.0625,0.1230469,0.0146484,0.2734375-0.1083984,0.3364258C10.6201172,9.8662109,10.5810547,9.875,10.5419922,9.875  c-0.0908203,0-0.1777344-0.0493164-0.2226563-0.1357422L10.0859375,9.284668z M12.3046875,10.0830078l0.4541016-0.2324219  c0.1259766-0.0625,0.2753906-0.0136719,0.3369141,0.1088867c0.0625,0.1225586,0.0136719,0.2734375-0.1083984,0.3364258  l-0.4541016,0.2324219c-0.0371094,0.0185547-0.0761719,0.0273438-0.1142578,0.0273438  c-0.0908203,0-0.1787109-0.0498047-0.2226563-0.1362305C12.1337891,10.296875,12.1826172,10.1459961,12.3046875,10.0830078z   M9.875,11.3266602c0.1230469-0.0615234,0.2724609-0.0151367,0.3369141,0.1083984  c0.0625,0.1230469,0.0146484,0.2739258-0.1083984,0.3369141l-0.4541016,0.2329102  c-0.0371094,0.0185547-0.0751953,0.0273438-0.1142578,0.0273438c-0.0908203,0-0.1777344-0.0498047-0.2226563-0.1357422  c-0.0625-0.1230469-0.0146484-0.2739258,0.1083984-0.3369141L9.875,11.3266602z M11.5869141,9.4648438l0.15625-0.4858398  c0.0419922-0.1313477,0.1845703-0.2036133,0.3144531-0.1611328c0.1318359,0.0419922,0.2041016,0.1831055,0.1621094,0.3144531  l-0.15625,0.4858398c-0.0341797,0.105957-0.1328125,0.1733398-0.2382813,0.1733398  c-0.0253906,0-0.0507813-0.0039063-0.0761719-0.012207C11.6171875,9.7373047,11.5449219,9.5961914,11.5869141,9.4648438z   M8.9951172,10.3862305c0.0419922-0.1313477,0.1845703-0.2041016,0.3154297-0.1611328l0.4853516,0.1567383  c0.1308594,0.0424805,0.203125,0.1831055,0.1611328,0.3144531c-0.0341797,0.105957-0.1328125,0.1733398-0.2382813,0.1733398  c-0.0253906,0-0.0517578-0.0039063-0.0771484-0.012207L9.15625,10.7006836  C9.0253906,10.6582031,8.953125,10.5175781,8.9951172,10.3862305z M45.6728516,17.659668h-9.0619507  c-0.0062866-0.189209-0.006897-0.374939-0.0164795-0.5651855c0.0485229-0.0097656,0.0982056-0.0030518,0.145813-0.0192871  c0.1660156-0.0561523,0.3134766-0.1469727,0.4345703-0.265625c0.21875,0.2763672,0.5537109,0.4394531,0.90625,0.4394531  c0.1220703-0.0004883,0.2460938-0.0200195,0.3681641-0.0610352c0.4736328-0.1606445,0.7753906-0.6015625,0.7822266-1.0761719  c0.4736328,0.0576172,0.9482422-0.1845703,1.1699219-0.6333008c0.1357422-0.2758789,0.15625-0.5883789,0.0576172-0.8798828  c-0.0556641-0.1655273-0.1464844-0.3129883-0.2646484-0.4345703c0.3710938-0.293457,0.5380859-0.8007813,0.3779297-1.2749023  c-0.1168823-0.3439331-0.3831787-0.5927124-0.6999512-0.708313l0.4629517-0.3532715  c0.0668335,0.0374756,0.1393433,0.0656128,0.2174683,0.0772095c0.03125,0.0043945,0.0615234,0.0063477,0.0917969,0.0063477  c0.3095703,0,0.5810547-0.2270508,0.6279297-0.5424805c0.0498047-0.3457031-0.1904297-0.668457-0.5361328-0.7192383  c-0.1650391-0.0219727-0.3339844,0.0175781-0.4716797,0.1196289c-0.1357422,0.1010742-0.2236328,0.2490234-0.2470703,0.4155273  c-0.0127563,0.0840454-0.0083618,0.1679077,0.0118408,0.2478638l-0.5331421,0.4069824  c-0.0092773-0.0800781-0.0256348-0.1598511-0.0519409-0.237854c-0.0996094-0.2915039-0.3056641-0.5273438-0.5820313-0.6635742  c-0.3579102-0.1774292-0.7614746-0.1420288-1.0848389,0.045166l-0.0008545-0.6656494  c0.0743408-0.0318604,0.1445923-0.0769043,0.204834-0.1383057c0.2431641-0.2509766,0.2373047-0.6533203-0.0136719-0.8969727  c-0.1210938-0.1186523-0.2929688-0.1865234-0.4501953-0.1796875c-0.1699219,0.0024414-0.328125,0.0708008-0.4453125,0.1918945  c-0.1191406,0.121582-0.1826172,0.2822266-0.1806641,0.4516602s0.0703125,0.3276367,0.1923828,0.4453125  c0.0571899,0.055603,0.1234131,0.0952148,0.192627,0.124939l0.0007324,0.6086426  c-0.0441284-0.0300903-0.0742798-0.0757446-0.1230469-0.0997925c-0.2773438-0.1367188-0.5908203-0.1567383-0.8798828-0.0581055  c-0.222229,0.0750732-0.3949585,0.227356-0.5325928,0.4104004c-0.5828857-2.1087646-1.6594238-4.3427734-3.6334229-4.7668457  c-1.3730469-0.2944336-2.5068359-0.1425781-3.8222656,0.034668c-0.9033203,0.1210938-1.8378906,0.246582-2.9804688,0.246582  s-2.0771484-0.1254883-2.9814453-0.246582C21.0097656,6.2680664,19.875,6.1162109,18.5019531,6.4106445  c-2.5658569,0.5510864-3.612854,4.1992798-4.0229492,6.5040894c-0.2924805-0.0651855-0.5914917-0.1014404-0.8943481-0.0814209  c-0.0012207-0.0025635,0.0006104-0.0056152-0.0006714-0.0081177l-0.5556641-1.0849609  c-0.0625-0.1220703-0.2109375-0.1708984-0.3369141-0.1088867l-0.6669312,0.3413086l-0.5527954-1.0800781  c-0.0625-0.1225586-0.2109375-0.1708984-0.3369141-0.1088867c-0.1220703,0.0629883-0.1708984,0.2138672-0.1083984,0.3364258  l0.5529175,1.0803833l-0.6681519,0.34198c-0.0585938,0.0302734-0.1035156,0.0825195-0.1240234,0.1459961  c-0.0195313,0.0629883-0.0146484,0.1318359,0.015625,0.1904297l0.5556641,1.0849609  c0.0015259,0.0029907,0.0048218,0.0040283,0.0064087,0.006897c-0.7796631,0.9442139-0.9735107,2.2991943-0.3814087,3.4564819  c0.0419312,0.0819092,0.0928345,0.1558228,0.1407471,0.2324219H4.5898438c-0.1376953,0-0.25,0.1118164-0.25,0.25v2.7338867  c0,0.1381836,0.1123047,0.25,0.25,0.25h1.7080078v23.1831055c0,0.1381836,0.1123047,0.25,0.25,0.25h37.1669922  c0.1376953,0,0.25-0.1118164,0.25-0.25V20.8935547h1.7080078c0.1376953,0,0.25-0.1118164,0.25-0.25V17.909668  C45.9228516,17.7714844,45.8105469,17.659668,45.6728516,17.659668z M40.5644531,11.1694336  c0.0234375-0.0175781,0.0507813-0.0263672,0.0800781-0.0263672c0.0058594,0,0.0126953,0.0004883,0.0195313,0.0014648  c0.0732422,0.0107422,0.1240234,0.0791016,0.1142578,0.1518555c-0.0107422,0.0727539-0.0732422,0.1235352-0.1533203,0.1132813  c-0.0351563-0.0048828-0.0664063-0.0239258-0.0878906-0.0527344c-0.0214844-0.0283203-0.0302734-0.0634766-0.0253906-0.1000977  C40.5175781,11.2216797,40.5351563,11.190918,40.5644531,11.1694336z M37.4306641,9.6430664  c0.0244141-0.0258789,0.0576172-0.0400391,0.09375-0.0405273c0,0,0.0009766,0,0.0019531,0  c0.0351563,0,0.0683594,0.0136719,0.09375,0.0380859c0.0527344,0.0517578,0.0537109,0.1367188,0.0029297,0.1899414  c-0.0517578,0.0532227-0.1376953,0.0546875-0.1914063,0.0024414c-0.0253906-0.0249023-0.0400391-0.0581055-0.0400391-0.09375  C37.390625,9.703125,37.4042969,9.6689453,37.4306641,9.6430664z M36.0595703,11.5693359  c0.0771484-0.15625,0.2099609-0.2729492,0.375-0.3286133c0.1669922-0.0566406,0.3417969-0.0439453,0.4980469,0.0327148  c0.15625,0.0771484,0.2724609,0.2104492,0.3261719,0.3789063c0.0009766,0.0117188,0.0078125,0.0722656,0.0097656,0.0834961  c0.0214844,0.1118164,0.1162109,0.1943359,0.2294922,0.2011719c0.1308594,0.0146484,0.2167969-0.0634766,0.2529297-0.1713867  c0.0033569-0.0091553,0.0109863-0.0505981,0.0151367-0.0708008h0.012207l-0.000061-0.0248413  c0.1627197-0.3114624,0.5431519-0.4400024,0.8633423-0.2837524c0.15625,0.0771484,0.2724609,0.2104492,0.328125,0.3754883  c0.0566406,0.1650391,0.0449219,0.3417969-0.0361328,0.4990234c-0.0078125,0.0078125-0.0449219,0.0532227-0.0507813,0.0620117  c-0.0654297,0.0932617-0.0585938,0.21875,0.015625,0.3051758c0.0722656,0.0869141,0.1953125,0.1118164,0.2988281,0.0620117  c0.0059204-0.0029907,0.0241699-0.0144653,0.0419312-0.026001l0.000061,0.0001221l0.0014038-0.0010376  c0.0136719-0.0088501,0.0276489-0.0180054,0.0317993-0.0209351c0.3408203-0.1137695,0.7109375,0.0678711,0.8261719,0.4077148  c0.1152344,0.340332-0.0683594,0.7119141-0.4101563,0.8242188c-0.0117188,0.0009766-0.0732422,0.0073242-0.0849609,0.0097656  C39.4921875,13.9057617,39.4101563,14,39.4023438,14.1132813c-0.0068359,0.1132813,0.0634766,0.2167969,0.1708984,0.2529297  c0.0107422,0.003418,0.0722656,0.015625,0.0839844,0.0175781c0.15625,0.0771484,0.2724609,0.2104492,0.3291016,0.3754883  c0.0556641,0.1645508,0.0439453,0.3413086-0.0341797,0.4975586c-0.1582031,0.3222656-0.5498047,0.4541016-0.8720703,0.2929688  c-0.0087891-0.0078125-0.0566406-0.046875-0.0664063-0.0537109c-0.0947266-0.0620117-0.2197266-0.0541992-0.3056641,0.0205078  c-0.0849609,0.0761719-0.1083984,0.199707-0.0566406,0.3012695c0.0048828,0.0092773,0.0400391,0.0610352,0.0458984,0.0698242  c0.1152344,0.340332-0.0683594,0.7114258-0.4082031,0.8266602c-0.3447266,0.1152344-0.7119141-0.0688477-0.8232422-0.4091797  c-0.0009766-0.012207-0.0068359-0.0742188-0.0097656-0.0859375c-0.0214844-0.1103516-0.1142578-0.1923828-0.2265625-0.2011719  c-0.0058594-0.0004883-0.0126953-0.0004883-0.0185547-0.0004883c-0.1044922,0-0.1992188,0.065918-0.2353516,0.1655273  c-0.0039063,0.012207-0.0175781,0.0766602-0.0205078,0.0893555c-0.0771484,0.15625-0.2099609,0.2729492-0.375,0.3291016  c-0.1640625,0.0556641-0.3408203,0.043457-0.4980469-0.0332031c-0.3222656-0.1591797-0.4541016-0.5512695-0.2919922-0.8725586  c0.0078125-0.0087891,0.046875-0.0571289,0.0537109-0.0673828c0.0625-0.0942383,0.0546875-0.2192383-0.0205078-0.3041992  c-0.0761719-0.0854492-0.2001953-0.1083984-0.2988281-0.0581055c-0.0107422,0.0048828-0.0634766,0.0405273-0.0722656,0.046875  c-0.1640625,0.0556641-0.3427734,0.0444336-0.4980469-0.0332031c-0.15625-0.0771484-0.2734375-0.2099609-0.3291016-0.3754883  c-0.0556641-0.1645508-0.0439453-0.3413086,0.0332031-0.4975586s0.2099609-0.2729492,0.3789063-0.3261719  c0.0107422-0.0004883,0.0693359-0.0063477,0.0800781-0.0083008c0.1123047-0.0205078,0.1962891-0.1142578,0.2041016-0.2280273  c0.0087891-0.1137695-0.0615234-0.2182617-0.1689453-0.2548828c-0.0117188-0.0039063-0.0742188-0.0161133-0.0859375-0.0180664  c-0.1552734-0.0771484-0.2724609-0.2104492-0.328125-0.3754883s-0.0439453-0.3417969,0.0332031-0.4975586  c0.0771484-0.15625,0.2099609-0.2734375,0.375-0.3291016c0.1669922-0.0556641,0.3427734-0.0439453,0.4980469,0.0366211  c0.0087891,0.0078125,0.0556641,0.0458984,0.0654297,0.0522461c0.0927734,0.0629883,0.21875,0.0566406,0.3037109-0.0180664  c0.0849609-0.0742188,0.1103516-0.1967773,0.0605469-0.2983398c-0.0048828-0.0112305-0.0400391-0.0644531-0.0478516-0.074707  C35.9707031,11.9023438,35.9824219,11.7255859,36.0595703,11.5693359z M18.6074219,6.8999023  c1.2871094-0.2773438,2.3818359-0.1303711,3.6503906,0.0410156c0.8779297,0.1176758,1.8720703,0.2509766,3.0478516,0.2509766  s2.1699219-0.1333008,3.046875-0.2509766c1.2695313-0.1704102,2.3652344-0.3173828,3.6503906-0.0410156  c1.8974609,0.4073486,2.8824463,2.8300171,3.3902588,4.9411621c-0.1345825-0.0043945-0.2731934,0.0092163-0.4068604,0.0544434  c-0.2919922,0.0986328-0.5273438,0.3051758-0.6630859,0.5810547c-0.1367188,0.2758789-0.1572266,0.5883789-0.0585938,0.8798828  c0.0556641,0.1650391,0.1464844,0.3125,0.2646484,0.4335938c-0.1328125,0.1049805-0.2421875,0.2387695-0.3193359,0.3955078  c-0.1367188,0.2758789-0.1572266,0.5883789-0.0585938,0.8793945c0.0986328,0.2915039,0.3046875,0.5268555,0.5810547,0.6630859  c0.1572266,0.0776367,0.3251953,0.1176758,0.4951172,0.1201172c-0.0556641,0.4702148,0.1845703,0.9467773,0.6337891,1.168457  c0.0734253,0.036438,0.1539917,0.0430298,0.2318726,0.0629272c0.0292358,0.5498047,0.0484009,1.0994263,0.0484009,1.6323853  c0,1.2524414-0.3017578,2.7539063-1.7392578,2.7929688c-0.0078125,0.0004883-0.015625,0.0004883-0.0234375,0.0004883  c-0.7985229,0-1.5834961-1.1520386-2.3251343-2.3984985c1.6436768-0.77948,1.8525391-1.2545166,1.727478-1.6415405  c0-0.0004883,0-0.0004883-0.0009766-0.0004883c-0.1872559-0.5808105-1.4395142-0.7985229-3.1359253-0.671814  c-0.4603271-0.6623535-0.8630981-1.0787964-1.2566528-1.2852173c-0.3931885-0.2052612-0.9415894-0.3311157-1.6755981-0.3848877  c-0.710083-0.331543-1.4963379-0.3972168-2.2514648-0.1976318l-0.0824585-0.2549438  c0.1846313-0.1621704,0.2664185-0.4238281,0.1862793-0.671814c-0.1074219-0.3325195-0.4648438-0.5161133-0.7988281-0.4077148  c-0.1611328,0.0517578-0.2929688,0.1630859-0.3701172,0.3134766c-0.0771484,0.1513672-0.0908203,0.3237305-0.0390625,0.4853516  c0.0800781,0.2470093,0.3000488,0.404541,0.5431519,0.428772l0.0889893,0.2750244  c-0.0115356,0.0050659-0.0231323,0.0100098-0.034668,0.0151978l-0.22052-0.0046387  c-1.1123047-0.0258789-2.6230469-0.0610352-3.5107422,0.4038086c-0.8183594,0.4287109-1.5273438,1.6494141-2.2792969,2.9418945  c-0.8730469,1.5024414-1.7763672,3.0556641-2.7119141,3.0556641c-0.0078125,0-0.015625,0-0.0234375-0.0004883  c-1.314209-0.036377-1.6699219-1.2991943-1.7262573-2.4362793c0.2574463-0.0568848,0.512085-0.1417236,0.7575073-0.267334  c0.9874878-0.5055542,1.5913086-1.4630737,1.6987305-2.4920654c0.000061-0.0002441,0.0004272-0.0003052,0.0004883-0.0006104  c0.0004883-0.0015869-0.0008545-0.0029907-0.0003662-0.0045776c0.0430298-0.4188843-0.0008545-0.8474731-0.1321411-1.2644653  c-0.0074463-0.0273438-0.0125122-0.0496826-0.0284424-0.072937c-0.0484619-0.1415405-0.0941772-0.2837524-0.1642456-0.4207153  c-0.3635254-0.7091675-0.9641113-1.2108765-1.6519165-1.4840698C15.340271,10.8876953,16.3019409,7.3947144,18.6074219,6.8999023z   M29.5498047,20.8139648c-0.3787231,0.1224976-0.7684937-0.0371094-0.9807129-0.3504639  c0.5770264-0.1975708,1.1030884-0.3846436,1.5640259-0.5580444C30.168457,20.302063,29.9442749,20.6865234,29.5498047,20.8139648z   M27.4013672,21.5097656c-0.3751831,0.12146-0.7636108-0.0354614-0.977356-0.345459  c0.2608643-0.0819702,0.5070801-0.1570435,0.7859497-0.2473145c0.2755737-0.0892334,0.5275269-0.1735229,0.781311-0.2582397  C27.9996948,21.0344238,27.7766724,21.3885498,27.4013672,21.5097656z M25.2529297,22.2055664  c-0.3948364,0.1275635-0.8019409-0.0524902-1.0050659-0.3953247c0.4872437-0.1331787,1.0141602-0.2854004,1.5941772-0.4628296  C25.8535156,21.725708,25.6306152,22.0835571,25.2529297,22.2055664z M24.8330078,14.2353516  c-0.0117188-0.0341797-0.0087891-0.0708008,0.0078125-0.1030273c0.015625-0.03125,0.0439453-0.0546875,0.078125-0.065918  c0.0136719-0.0043945,0.0273438-0.0063477,0.0410156-0.0063477c0.0576172,0,0.1103516,0.0361328,0.1279297,0.0927734  c0.0234375,0.0703125-0.015625,0.1459961-0.0859375,0.1689453C24.9306641,14.3427734,24.8544922,14.3056641,24.8330078,14.2353516z   M25.4365234,15.4399414c0.7216797-0.2319336,1.4892578-0.1708984,2.1611328,0.1723633  c0.5944214,0.3040771,1.0415649,0.8027344,1.3010864,1.4088745c-0.8782959,0.1581421-1.8071289,0.3859863-2.7288208,0.6843872  c-0.9115601,0.295166-1.7935791,0.6514893-2.6116333,1.043457C23.2443237,17.3405151,24.0361938,15.8935547,25.4365234,15.4399414z   M29.4053955,16.9364624c-0.1729736-0.4474487-0.4361572-0.8412476-0.7720947-1.1700439  c0.2027588,0.0511475,0.3814697,0.1112061,0.5219727,0.1847534c0.2767944,0.1447144,0.5734253,0.4393921,0.9138794,0.8963013  C29.8532104,16.8719482,29.6312256,16.9020386,29.4053955,16.9364624z M23.0237427,17.659668h-3.0276489  c0.4851074-0.7822876,0.9758301-1.4556274,1.4589844-1.7084961c0.6385498-0.3342285,1.7680054-0.3690796,2.7035522-0.3578491  C23.5383301,16.1196899,23.1415405,16.8588867,23.0237427,17.659668z M19.6932373,18.159668h3.298645  c0.0015259,0.2739868,0.03479,0.5493164,0.1074219,0.824646c-0.555603,0.2856445-1.0859375,0.5823975-1.5494995,0.8945923  c-0.2327881,0.1567993-0.4730835,0.3314209-0.6987915,0.5146484h-2.5179443  c0.3583374-0.5181885,0.7029419-1.1075439,1.0429077-1.6923828C19.4812012,18.5202026,19.5870972,18.3392944,19.6932373,18.159668z   M21.8300781,20.293457c1.2109375-0.815918,2.8076172-1.5664063,4.4941406-2.1123047  c2.1308594-0.6894531,3.9736328-0.9257813,5.2314453-0.9257813c1.0439453,0,1.6845703,0.1625977,1.7490234,0.3637695  c0.0244141,0.0751953,0.0458984,0.784668-6.2490234,2.8222656c-2.0810547,0.6738281-3.6474609,1.1103516-4.7871094,1.3339844  c-1.8095703,0.3554688-1.9296875,0.0454102-1.9296875,0.0415039C20.2929688,21.6777344,20.5986328,21.1225586,21.8300781,20.293457z   M30.6212769,19.7164917c0.3612061-0.1416626,0.6868896-0.2759399,0.9740601-0.4020386  c0.225769,0.3806763,0.4528809,0.7446289,0.6835938,1.0791016h-1.6908569  C30.6557617,20.1791382,30.6671753,19.9478149,30.6212769,19.7164917z M11.7424316,17.6734619l0.2995605-0.928833  l1.0507813,0.3393555c0.1367188,0.0439453,0.2734375-0.0292969,0.3154297-0.1611328l0.3388672-1.050293l1.0498047,0.3388672  c0.0634766,0.0200195,0.1308594,0.0141602,0.1914063-0.0151367c0.0585938-0.0302734,0.1035156-0.0825195,0.1240234-0.1459961  l0.3388672-1.0507813l0.9162598,0.2958984c0.0527954,0.1963501,0.0762939,0.3949585,0.083252,0.5933838l-0.3969727-0.1280518  c-0.1347656-0.0419922-0.2724609,0.0297852-0.3154297,0.1611328l-0.3388672,1.0507813l-1.0507813-0.3393555  c-0.1357422-0.0415039-0.2734375,0.0302734-0.3154297,0.1611328l-0.3388672,1.0507813l-1.0507813-0.3393555  c-0.0644531-0.0214844-0.1328125-0.015625-0.1914063,0.0151367c-0.0585938,0.0302734-0.1035156,0.0830078-0.1240234,0.1459961  l-0.1381836,0.4284668C12.0275269,17.972229,11.875,17.8347778,11.7424316,17.6734619z M12.7275391,18.0585938l1.0507813,0.3388672  c0.1357422,0.0439453,0.2724609-0.0292969,0.3154297-0.1611328l0.3388672-1.0507813l1.0507813,0.3393555  c0.1367188,0.043457,0.2734375-0.0297852,0.3154297-0.1611328l0.3388672-1.0507813l0.2808228,0.0906982  c-0.1303101,0.8097534-0.6234131,1.5510254-1.4077759,1.9522705c-0.7744141,0.3967896-1.6531372,0.3666992-2.3821411,0.0098877  L12.7275391,18.0585938z M12.0284424,12.5326538c0.0006104-0.0003052,0.0012207-0.0001221,0.0018311-0.0004272  c0.0003662-0.0001831,0.0003662-0.0006714,0.0007324-0.0008545l0.6662598-0.3409424l0.3271484,0.6401367l-1.3349609,0.6831055  l-0.3271484-0.6401367L12.0284424,12.5326538z M12.5859375,13.6171875c0.3867188-0.1982422,0.7998047-0.2919922,1.2080078-0.2919922  c0.9332275,0,1.8266602,0.5014038,2.3120728,1.3605347l-0.7388306-0.2384644  c-0.1347656-0.0419922-0.2724609,0.0297852-0.3154297,0.1611328l-0.3388672,1.050293l-1.0498047-0.3388672  c-0.0654297-0.0219727-0.1318359-0.0151367-0.1914063,0.0151367c-0.0585938,0.0302734-0.1035156,0.0825195-0.1240234,0.1459961  l-0.3388672,1.0507813l-1.0507813-0.3393555c-0.1357422-0.043457-0.2734375,0.0297852-0.3154297,0.1611328l-0.2463379,0.7630615  C10.7891846,15.8253784,11.3063965,14.2717896,12.5859375,13.6171875z M4.8398438,18.159668h6.6616821  c0.2191162,0.2312622,0.4713745,0.4212646,0.7428589,0.5742188c0.0007324,0.0002441,0.0009766,0.0012207,0.001709,0.0014648  c0.0005493,0.0001831,0.0010986,0.000061,0.0016479,0.0002441c0.473938,0.2662354,1.0096436,0.4123535,1.5559692,0.4123535  c0.0603027,0,0.1204834-0.0177002,0.1809082-0.0211792c0.0285034,0.5045776,0.1070557,0.9227295,0.2218628,1.2667847H4.8398438  V18.159668z M41.2089844,43.8266602h-8.2236328v-18.5h8.2236328V43.8266602z M17.7773438,27.0825195h7.1035156v16.7441406  h-7.1035156V27.0825195z M25.3808594,27.0825195h7.1044922v16.7441406h-7.1044922V27.0825195z M32.4853516,26.5825195H17.7773438  v-1.2558594h14.7080078V26.5825195z M17.2773438,43.8266602H9.0527344v-18.5h8.2246094V43.8266602z M43.4648438,43.8266602  h-1.7558594v-18.75c0-0.1381836-0.1123047-0.25-0.25-0.25h-32.65625c-0.1376953,0-0.25,0.1118164-0.25,0.25v18.75H6.7978516  V20.8935547h7.6225586c0.5137329,0.9378662,1.3378906,1.0992432,1.7739258,1.1113281  c0.0126953,0.0004883,0.0244141,0.0004883,0.0371094,0.0004883c0.6328125,0,1.1988525-0.4532471,1.729187-1.1118164h2.3466797  c-0.3441162,0.3712769-0.5511475,0.7496338-0.4450073,1.0771484c0.1035156,0.3193359,0.4267578,0.4755859,1.03125,0.4755859  c0.3769531,0,0.8623047-0.0605469,1.4707031-0.1801758c0.4030151-0.0790405,0.8776245-0.1938477,1.3869629-0.3255005  c0.2270508,0.4915771,0.7075806,0.8074341,1.2341309,0.8074341c0.1396484,0,0.2822266-0.0214844,0.421875-0.0668945  c0.4470215-0.1446533,0.7686157-0.4989014,0.8930054-0.9188843c0.237793,0.1821899,0.5281982,0.289978,0.8335571,0.289978  c0.1396484,0,0.2822266-0.0214844,0.421875-0.0668945c0.4470215-0.1446533,0.7686157-0.4989014,0.8930054-0.9188843  c0.237793,0.1821899,0.5281982,0.289978,0.8335571,0.289978c0.1396484,0,0.2822266-0.0214844,0.421875-0.0668945  c0.2402344-0.0777588,0.4401245-0.2196045,0.5969849-0.3959961h2.3499146  c0.5315552,0.6615601,1.0929565,1.1118164,1.7269287,1.1118164c0.0126953,0,0.0253906,0,0.0380859-0.0004883  c0.4396362-0.012207,1.2606201-0.1760864,1.7731934-1.1113281h7.2756348V43.8266602z M45.4228516,20.3935547h-9.0169067  c0.1448364-0.4353638,0.2356567-0.9834595,0.2356567-1.6816406c0-0.1803589-0.0128174-0.3690796-0.0161133-0.5522461h8.7973633  V20.3935547z"></path></svg>