<svg xmlns="http://www.w3.org/2000/svg" xmlns:xlink="http://www.w3.org/1999/xlink" version="1.1" x="0px" y="0px" viewBox="0 0 100 100"  xml:space="preserve"><path d="M48.7,5.4C33,6.1,19.7,18.1,17.5,33.6c-0.8,5.6-0.1,10.9,1.6,15.7c2.6,7.4,7.8,13.5,14.4,17.4L49.1,93  c0.4,0.7,1.5,0.7,1.9,0l15.2-26.1c10-5.6,16.7-16.3,16.7-28.6C83,19.6,67.5,4.7,48.7,5.4z M52.2,64.3c-16.3,1.3-29.7-12.2-28.5-28.5  c1-12.8,11.4-23.2,24.2-24.2c16.3-1.3,29.7,12.2,28.5,28.5C75.4,52.9,65,63.3,52.2,64.3z"></path><path d="M35.7,52.4c2.2-7.2,10.7-23.7,19.3-13c2.4,3,11.4,18.2,0.8,15.9c-4.4-0.9-6.4-4-11.1-3.5c-3.4,0.3-3.3,2.7-6.8,3.3  C36.1,55.4,35.3,53.7,35.7,52.4z"></path><ellipse transform="matrix(0.5841 -0.8117 0.8117 0.5841 -0.9288 67.152)" cx="65.1" cy="34.5" rx="7.8" ry="5.1"></ellipse><ellipse transform="matrix(0.3564 -0.9343 0.9343 0.3564 9.9529 68.2062)" cx="54.5" cy="26.9" rx="6.8" ry="4.5"></ellipse><ellipse transform="matrix(0.9811 -0.1934 0.1934 0.9811 -4.5135 8.6)" cx="41.8" cy="27.4" rx="4.1" ry="6.3"></ellipse><ellipse transform="matrix(0.7324 -0.6809 0.6809 0.7324 -15.3764 32.5442)" cx="33.7" cy="35.8" rx="3.8" ry="5.8"></ellipse></svg>