<svg xmlns="http://www.w3.org/2000/svg" xmlns:xlink="http://www.w3.org/1999/xlink" version="1.1" x="0px" y="0px" viewBox="0 0 100 100"  xml:space="preserve"><circle cx="43.5" cy="47.1" r="1.6"></circle><circle cx="55.8" cy="47.1" r="1.6"></circle><path d="M49.7,33.2c-3.1,0-5.8,3.1-6.2,7.3h12.4C55.5,36.4,52.9,33.2,49.7,33.2z"></path><path d="M88.4,24L53.7,4c-2.2-1.3-5-1.3-7.2,0L11.9,24c-2.2,1.3-3.6,3.7-3.6,6.2v40c0,2.6,1.4,5,3.6,6.2l34.6,20  c1.1,0.6,2.3,1,3.6,1s2.5-0.3,3.6-1l34.6-20c2.2-1.3,3.6-3.7,3.6-6.2v-40C92,27.6,90.6,25.3,88.4,24z M59.6,23.3l1-2.5l1.1,2.5  l2.2,0.9l-2.2,1l-0.9,2.3l-1-2.3l-2.3-1L59.6,23.3z M36.1,27.3L37,25l1,2.3l2,0.8l-2,0.9L37.1,31l-0.9-2.1l-2.1-0.9L36.1,27.3z   M24.7,46.5l-0.9,2.2l-0.9-2.2l-2.2-0.9l2-0.8l1-2.4l1,2.4l2.1,0.8L24.7,46.5z M67.8,73.4c-0.2,0.2-0.4,0.3-0.7,0.3H32.7  c-0.3,0-0.5-0.1-0.7-0.3c-0.2-0.2-0.3-0.4-0.2-0.7l2.3-31.1c0-0.5,0.4-0.8,0.9-0.8h6.3c0.4-5.5,4-9.8,8.5-9.8s8.1,4.3,8.5,9.8h6.3  c0.5,0,0.9,0.4,0.9,0.8l2.7,31.1C68.1,72.9,68,73.2,67.8,73.4z M76.3,42.5l-0.8,2.1l-0.9-2.1l-2.1-0.9l2-0.8l0.9-2.3l1,2.3l2,0.8  L76.3,42.5z"></path></svg>