<svg xmlns="http://www.w3.org/2000/svg" data-name="Ebene 2" viewBox="0 0 95 95" x="0px" y="0px"><title>facility-icon</title><path d="M27.36,75.75H67.64a1.4,1.4,0,0,0,1.4-1.4V34.07a1.4,1.4,0,0,0-1.4-1.4h-5a1.4,1.4,0,0,0,0,2.8h3.64V73H28.76V35.47h3.6a1.4,1.4,0,0,0,0-2.8h-5a1.4,1.4,0,0,0-1.4,1.4V74.35A1.4,1.4,0,0,0,27.36,75.75Z"></path><path d="M52.09,32.67H42.88a1.4,1.4,0,0,0,0,2.8h9.21A1.4,1.4,0,1,0,52.09,32.67Z"></path><path d="M37.62,42.13A2.8,2.8,0,0,0,39,36.91v-6.4a8.46,8.46,0,0,1,16.93,0v6.4a2.81,2.81,0,1,0,2.8,0v-6.4a11.26,11.26,0,0,0-22.53,0v6.4A2.8,2.8,0,0,0,37.62,42.13Z"></path></svg>