<svg xmlns="http://www.w3.org/2000/svg" viewBox="0 0 25 25" x="0px" y="0px"><g><path d="M20.375,11.931,17.458,9.487l.006-2.677a.375.375,0,0,0-.652-.254L14.7,8.883a4.86,4.86,0,0,0-.563.757l-1.265,2.1L5.3,4.335a.375.375,0,0,0-.526.536l7.249,7.1H8.206L5.143,8.627a.375.375,0,0,0-.651.279l.092,1.317a7.759,7.759,0,0,0,1.553,4.155V20.4a.375.375,0,0,0,.375.375h1.6a.376.376,0,0,0,.358-.262L8.8,19.47a3.851,3.851,0,0,0,1.863-1.594h2.153l.768,2.626a.375.375,0,0,0,.36.27h1.719a.375.375,0,0,0,.375-.375V16.069l1.106-2.129h1.22a2.136,2.136,0,0,0,1.913-1.173l.193-.378A.376.376,0,0,0,20.375,11.931Zm-.768.5a1.392,1.392,0,0,1-1.245.763H16.914a.376.376,0,0,0-.333.2l-1.253,2.413a.381.381,0,0,0-.042.173v4.044H14.224L13.456,17.4a.375.375,0,0,0-.36-.27H10.448a.374.374,0,0,0-.322.184l-.107.18a3.1,3.1,0,0,1-1.646,1.338.375.375,0,0,0-.235.242l-.3.952h-.95V14.25a.381.381,0,0,0-.079-.23,7.006,7.006,0,0,1-1.476-3.849l-.017-.246L7.765,12.6a.373.373,0,0,0,.276.122h4.9a.365.365,0,0,0,.238-.1c.009-.007.022,0,.03-.012s0-.019.011-.027.032-.024.043-.042l1.509-2.512a4.049,4.049,0,0,1,.476-.639L16.712,7.78l0,1.881a.377.377,0,0,0,.134.288l2.822,2.365Z"></path></g></svg>