<svg xmlns="http://www.w3.org/2000/svg" xmlns:xlink="http://www.w3.org/1999/xlink" version="1.1" x="0px" y="0px" viewBox="0 0 100 100"  xml:space="preserve"><g><path d="M39.8,57.4h20.3l6.1-19.9H33.8L39.8,57.4z M54.2,42.4c0-0.7,0.6-1.3,1.3-1.3c0.7,0,1.3,0.6,1.3,1.3v9.2   c0,0.7-0.6,1.3-1.3,1.3c-0.7,0-1.3-0.6-1.3-1.3V42.4z M48.7,42.4c0-0.7,0.6-1.3,1.3-1.3c0.7,0,1.3,0.6,1.3,1.3v9.2   c0,0.7-0.6,1.3-1.3,1.3c-0.7,0-1.3-0.6-1.3-1.3V42.4z M43.1,42.4c0-0.7,0.6-1.3,1.3-1.3s1.3,0.6,1.3,1.3v9.2c0,0.7-0.6,1.3-1.3,1.3   s-1.3-0.6-1.3-1.3V42.4z"></path><path d="M50,5.2c-21.2,0-38.4,17.2-38.4,38.4c0,16.9,11,31.3,26.3,36.4L50,94.8L62.1,80c15.3-5.1,26.3-19.5,26.3-36.4   C88.4,22.4,71.2,5.2,50,5.2z M69.3,36.5l-6.9,22.6c-0.2,0.6-0.7,1-1.3,1H38.8c-0.6,0-1.1-0.4-1.3-1l-6.9-22.6   c-0.1-0.4,0-0.9,0.2-1.2s0.7-0.5,1.1-0.5h14.9l-8.3-8.3c-0.5-0.5-0.5-1.4,0-1.9c0.5-0.5,1.4-0.5,1.9,0l9.6,9.6l9.6-9.6   c0.5-0.5,1.4-0.5,1.9,0c0.5,0.5,0.5,1.4,0,1.9l-8.3,8.3H68c0.4,0,0.8,0.2,1.1,0.5S69.5,36.1,69.3,36.5z"></path></g></svg>