<svg xmlns="http://www.w3.org/2000/svg" xmlns:xlink="http://www.w3.org/1999/xlink" xml:space="preserve" version="1.1"  viewBox="0 0 60000 60000" x="0px" y="0px" fill-rule="evenodd" clip-rule="evenodd"><defs></defs><g><path  d="M18918 46580l3138 0 33 -914c-112,-527 189,-793 519,-1085 48,-43 97,-86 123,-110 658,-616 594,-1351 521,-2193 -30,-349 -62,-715 -52,-1128 29,-1170 438,-1813 924,-2577 75,-118 152,-240 270,-434 549,-910 1017,-2240 1513,-3664 -212,148 -432,275 -657,381 -867,409 -1810,510 -2625,379 19,938 -15,1906 -104,2869 -164,1792 -514,3566 -1050,5090 -26,74 -51,155 -76,235 -143,461 -279,901 -803,1119 -812,337 -1190,1015 -1676,2034zm17315 -28176c-191,-64 -322,-156 -406,-265 -116,-151 -141,-315 -97,-480 32,-118 101,-225 195,-318 154,-151 402,-281 629,-340 1147,-301 3255,-633 5418,-632 894,0 1799,57 2653,196 361,-428 766,-819 1189,-1148 -1450,112 -2873,140 -4194,-164l0 -1c-28,-6 -56,-16 -83,-29 -1646,-786 -4169,-827 -6919,-674 -579,2563 -763,5118 -418,7673 2831,-284 5611,-521 8395,-673 65,-531 167,-1043 302,-1531 -115,-33 -231,-67 -349,-102 -1691,-493 -3724,-1085 -5515,-1383 -56,-9 -141,-19 -232,-29 -200,-23 -421,-48 -570,-98zm9300 -1656c302,75 595,163 873,265 153,56 144,53 116,43 618,225 1282,475 1525,1214 180,546 121,1017 -83,1400 -236,444 -662,753 -1128,920 -234,84 -453,128 -678,142 -218,13 -433,-4 -665,-43 -456,-77 -1086,-242 -1826,-452 -112,406 -199,830 -259,1269 296,-14 592,-28 889,-40 4103,-170 8231,-139 12555,214 109,-900 111,-1778 -62,-2630 -37,-182 -69,-315 -114,-441 -44,-123 -101,-241 -189,-397 -1944,-3440 -5283,-3294 -8690,-2976 -426,123 -883,365 -1330,690 -325,236 -641,515 -934,822zm-3559 417c-1956,0 -3861,280 -4999,553 69,8 134,16 191,26 1827,305 3890,905 5606,1405 1194,348 2217,646 2852,752 176,30 335,43 487,34 145,-9 293,-39 456,-98 294,-105 556,-289 691,-542 107,-201 134,-460 30,-775 -126,-383 -615,-560 -1065,-724 -123,-45 124,46 -92,-33 -1200,-439 -2691,-598 -4158,-598zm10899 -2650c1208,173 2489,583 3591,1308 1335,878 2407,2216 2776,4149l3 18c401,3505 -370,5305 -1142,7105 -158,368 -315,735 -466,1128 -859,2240 -802,2669 -515,4849l1 6c1068,2743 327,4378 -467,6128 -463,1020 -944,2081 -1062,3429 -12,138 -73,705 -201,1080 -45,132 -101,248 -171,328 -126,145 -277,195 -458,104 -78,-39 -153,-110 -223,-218 -253,-391 -325,-1156 -406,-2006 -69,-722 -144,-1509 -332,-2120 -82,236 -156,480 -215,737 -4,15 -8,30 -13,45 -168,522 -206,1152 -245,1781 -82,1348 -164,2697 -1385,3451l186 1518c12,94 -11,185 -57,260 -23,40 -52,77 -87,111 -249,243 -1324,418 -2432,476 -1070,57 -2217,22 -2676,-151 -43,-16 -83,-34 -120,-54l-4980 -69c-29,0 -58,-4 -88,-11 -214,-51 -346,-266 -295,-480l12 -51c259,-1087 505,-2116 2694,-3282 214,-393 490,-858 792,-1365 1128,-1895 2632,-4421 2888,-6908 -48,84 -100,165 -155,243 -64,91 -143,170 -231,233 -123,87 -263,143 -405,154 -154,13 -308,-23 -447,-121 -67,-47 -129,-109 -184,-186 -120,-169 -119,-314 -116,-528 1,-43 1,-90 1,-141 -1,-63 -2,-102 -5,-107 -2,-4 -15,-2 -56,-18 -87,-34 -169,-43 -239,-30 -54,10 -102,32 -141,65 -143,315 -310,504 -481,589 -153,76 -305,76 -448,11 -120,-54 -225,-154 -311,-291 -181,-290 -288,-786 -242,-1358l2 -27c19,-238 20,-248 -164,-383 -299,-219 -553,-482 -779,-850 -172,-280 -328,-618 -473,-1042 -1263,1451 -2625,2842 -5732,3193l-18 2 -32 -1c-1761,-29 -3388,-322 -5021,-616 -1680,-303 -3367,-606 -5184,-613 -77,220 -153,438 -229,655 -523,1503 -1013,2910 -1613,3904 -69,115 -177,285 -282,449 -421,662 -776,1220 -799,2168 -8,345 22,701 52,1041 91,1047 170,1959 -775,2843 -61,57 -100,92 -139,126 -149,132 -286,252 -261,346l0 0c10,37 14,76 13,116l-48 1323c0,6 0,12 0,18 0,221 -179,400 -400,400l-4154 0 0 -1c-57,0 -115,-12 -170,-38 -199,-94 -285,-332 -191,-531 44,-92 86,-181 127,-269 641,-1356 1061,-2245 2234,-2732 179,-74 261,-339 347,-616 26,-86 53,-172 85,-263 514,-1464 851,-3172 1009,-4900 81,-888 116,-1781 102,-2648 -26,12 -51,25 -76,36 -243,114 -478,201 -705,263 172,1070 -475,1930 -1163,2846 -684,911 -1417,1885 -1193,3101 3,15 5,30 6,45l1 0c133,1905 -498,2365 -1128,2824 -203,148 -405,295 -550,513l246 1822c29,218 -124,419 -342,448 -18,2 -36,4 -53,4l0 1 -4233 0c-221,0 -400,-179 -400,-400 0,-18 1,-36 4,-53 64,-1121 911,-1845 1816,-2618 799,-683 1650,-1410 1877,-2440 51,-232 140,-586 234,-956 131,-521 272,-1075 327,-1382 127,-703 119,-1390 111,-2090 -8,-699 -17,-1409 98,-2172 52,-343 110,-952 90,-1597 -13,-432 -61,-880 -168,-1274 -167,-526 -280,-1015 -393,-1505 -259,-1124 -518,-2249 -1484,-3801 -362,-581 -846,-1276 -1376,-1903 -413,-488 -851,-933 -1276,-1244 -473,-346 -1033,-641 -1567,-723 -384,-59 -754,-4 -1057,235 -960,759 -2082,624 -3203,489 -533,-64 -1067,-129 -1540,-83 -8,1 -16,1 -23,2 -104,4 -205,30 -304,69 -111,44 -224,106 -337,173 -92,55 -129,78 -165,100 -396,246 -647,401 -1245,309 -451,-70 -828,-326 -1131,-662 -363,-402 -620,-926 -760,-1354 -143,-435 -149,-743 -54,-1013 95,-270 270,-451 501,-661 168,-152 313,-282 468,-413 151,-128 306,-254 494,-397 699,-535 1177,-992 1480,-1465 289,-451 422,-930 443,-1530 15,-431 53,-828 173,-1201 127,-396 340,-752 701,-1071 343,-303 650,-632 945,-948 715,-767 1367,-1466 2484,-1793 368,-108 827,-146 1268,-101 411,42 816,158 1134,361 45,29 641,328 1327,670 913,455 1963,972 2094,1031 14,6 28,14 41,22 1153,682 3242,338 5363,-11 2176,-358 4383,-721 5903,-36 1003,452 1182,440 1998,384 186,-13 403,-28 704,-42 1075,-52 2227,-141 3380,-231 3900,-304 7801,-608 10224,523 1633,367 3501,188 5369,9 1957,-188 3914,-375 5667,25zm1195 24611c369,723 471,1791 562,2750 68,716 130,1367 283,1697l6 -17c109,-322 164,-837 175,-963 125,-1432 624,-2533 1105,-3591 751,-1657 1453,-3204 447,-5768l-10 -27 -9 -70c-301,-2286 -360,-2736 543,-5091 148,-386 311,-766 473,-1145 745,-1738 1490,-3477 1105,-6847 -342,-1777 -1329,-3006 -2557,-3814 -154,-101 -312,-196 -472,-284 536,482 1028,1094 1463,1865 116,205 191,360 248,522 56,158 96,323 142,551 465,2290 -200,4640 -891,7079 -169,596 -339,1197 -480,1744 -454,1764 -540,2689 -620,3543 -47,501 -91,980 -200,1575 413,2581 -273,4048 -959,5514 -120,257 -241,515 -354,778zm-10779 -7542c162,526 329,918 516,1221 189,307 401,527 650,710 409,300 407,322 367,824l-2 27c-37,463 38,846 168,1055 33,53 64,87 92,100 5,2 12,1 22,-3 77,-38 166,-159 263,-384l17 -38 29 -32c116,-125 270,-210 446,-242 159,-29 334,-14 509,55 160,63 251,132 312,242 55,101 63,200 65,342 1,56 0,106 -1,153 -2,117 -3,196 24,233 21,29 42,51 65,67 36,25 77,34 118,31 53,-4 107,-27 157,-63 42,-30 80,-68 112,-114 294,-418 478,-937 501,-1452 6,-139 1,-277 -17,-413 -31,-153 -70,-305 -115,-456 -57,-149 -133,-290 -229,-422 -5,-6 -9,-13 -13,-19 -1011,-988 -1838,-1987 -2504,-2982 -588,469 -1074,1012 -1551,1561zm4492 7334l2018 9c487,-581 884,-1190 917,-2028 -80,-347 -177,-704 -293,-1070 -109,-343 -330,-510 -642,-745l-51 -39c-415,-314 -810,-630 -1184,-948 239,1616 -144,3269 -766,4819zm1585 505l-1794 -8c-598,1364 -1354,2633 -1994,3709 -313,526 -598,1004 -829,1441 -40,77 -102,135 -175,171 -1654,860 -2062,1614 -2282,2380l4179 58 -609 -2204 -4 -14c-63,-211 57,-434 269,-497 872,-260 1154,-1045 1570,-2200 97,-269 199,-554 281,-769 330,-862 865,-1479 1388,-2067zm2439 -401l1454 -30c139,-336 290,-659 442,-982 634,-1356 1268,-2712 890,-5064 -3265,-1293 -5204,-2814 -6286,-4623 -1105,-1848 -1306,-3973 -1102,-6446 -965,16 -1927,45 -2887,85 -321,13 -642,28 -963,44 -141,1662 118,3514 967,5434 1015,2296 2872,4689 5892,6969l51 39c431,325 738,556 923,1141 393,1243 584,2392 619,3433zm1260 472l-1255 26c-4,290 -20,571 -48,843 -166,1650 -745,2950 -1481,3820 -129,152 -244,280 -378,401 -139,126 -285,232 -466,331 -1126,617 -1770,1824 -2034,2428 467,77 1301,83 2110,40 779,-41 1503,-114 1793,-197l-188 -1540 1 0c-20,-164 64,-330 220,-406 1047,-513 1120,-1717 1193,-2922 41,-680 83,-1359 280,-1974 70,-298 156,-579 252,-849zm-5360 -17624c-202,2398 -21,4445 1027,6197 1011,1689 2836,3124 5908,4361 73,-454 109,-840 146,-1242 68,-728 140,-1506 426,-2777 -1950,-722 -3136,-1578 -3791,-2647 -659,-1075 -771,-2341 -573,-3883 -1055,-20 -2102,-22 -3144,-9zm3647 20c-193,1457 -101,2638 496,3612 589,961 1679,1744 3480,2418 32,-129 65,-264 101,-403 163,-632 324,-1200 483,-1763 346,-1220 684,-2418 870,-3581 -1843,-150 -3648,-241 -5431,-283zm-21173 6016c752,532 1594,920 2546,1169 997,261 2117,371 3380,337 -983,-1785 -1659,-3566 -2071,-5345 -101,-435 -185,-869 -255,-1304 -588,60 -1178,122 -1772,185 501,2139 -668,3605 -1828,4957zm6203 1996c-1417,59 -2669,-53 -3782,-344 -1029,-269 -1938,-691 -2748,-1272 -254,296 -497,588 -705,876 -547,760 -1006,1686 -1415,2671 -16,54 -26,88 -31,103 -95,301 -209,580 -339,836 -53,141 -106,283 -157,425 1777,34 3412,329 5041,622 1591,287 3177,572 4861,603 836,-96 1535,-278 2134,-521 -1137,-1336 -2084,-2669 -2859,-3999zm-4515 -7440c616,-66 1228,-130 1839,-193 -344,-2564 -168,-5125 398,-7693 -800,50 -1616,114 -2431,178 -1135,88 -2270,177 -3401,231 -96,5 -190,10 -282,15 198,512 353,1048 430,1604 93,678 69,1382 -137,2105 371,116 730,271 1071,469 659,383 1247,927 1714,1660 370,581 630,1120 800,1623zm10681 -415c-2739,151 -5480,385 -8273,666 67,414 148,828 244,1243 747,3228 2388,6465 5193,9731 1246,-627 2034,-1538 2821,-2449 570,-659 1140,-1319 1877,-1893 -317,-531 -590,-1059 -822,-1583 -888,-2010 -1172,-3956 -1040,-5714zm-16266 -2811l-2 329c-31,5152 -64,10472 -1706,14704 113,-40 225,-86 336,-139 677,-319 1300,-869 1729,-1703 513,-1356 1101,-2677 1861,-3732 281,-390 603,-764 931,-1145 1365,-1585 2854,-3314 964,-6284 -393,-618 -888,-1076 -1442,-1398 -805,-468 -1739,-654 -2671,-633zm-2310 15193c1745,-4199 1778,-9620 1810,-14866l2 -296c-1074,107 -2109,473 -2907,981 -535,341 -958,741 -1204,1165 -242,417 -327,865 -280,1335 49,495 243,1022 550,1571l80 143 0 0c329,583 386,684 485,1494 141,1152 48,2289 -44,3423 -93,1133 -185,2262 -32,3352 76,538 130,1103 162,1684 423,90 897,101 1377,15zm3828 -15847c188,-656 210,-1295 125,-1911 -78,-565 -245,-1113 -458,-1636 -882,60 -1127,53 -2264,-460 -581,-262 -1319,-339 -2141,-313 -325,543 -542,1269 -676,2078 -175,1061 -204,2256 -140,3372 66,-46 134,-91 203,-135 911,-580 2091,-994 3309,-1107 680,-63 1373,-33 2041,113zm-6028 1499c-93,-1244 -76,-2615 123,-3822 121,-733 310,-1408 584,-1964 -864,69 -1796,222 -2722,375 -1908,314 -3792,624 -5176,218 -670,1714 -425,3201 -190,4629 269,1631 525,3188 -504,4945 33,38 66,77 99,116 559,661 1066,1389 1445,1996 1036,1664 1310,2855 1584,4045 184,799 368,1597 797,2534 87,185 184,366 293,538 343,543 786,981 1332,1188 539,204 1196,184 1981,-183 124,-58 251,-125 383,-202 -31,-571 -84,-1125 -158,-1653 -166,-1181 -70,-2351 25,-3524 89,-1094 179,-2191 47,-3264 -80,-655 -126,-735 -388,-1201l1 -1c-135,-239 106,193 -81,-142 -359,-641 -586,-1272 -647,-1884 -63,-636 52,-1244 383,-1813 192,-330 460,-643 788,-931zm-8238 3990c846,-1555 611,-2981 365,-4475 -246,-1492 -502,-3048 215,-4883 -81,-38 -160,-78 -236,-122 -203,-94 -1224,-597 -2104,-1035 -694,-346 -1313,-658 -1399,-714 -205,-131 -488,-208 -787,-239 -340,-35 -688,-7 -962,73 -907,266 -1488,889 -2125,1572 -304,326 -620,665 -1001,1001 -242,213 -384,452 -470,718 -92,288 -123,618 -135,982 -26,751 -197,1357 -568,1936 -357,558 -895,1076 -1668,1668 -175,134 -320,251 -463,372 -139,118 -280,244 -446,395 -144,131 -250,236 -286,336 -36,101 -22,250 60,501 112,341 314,755 595,1067 189,210 412,368 659,406 310,48 463,-47 705,-197 71,-44 146,-91 177,-109 143,-85 291,-166 453,-230 171,-67 353,-113 555,-122 563,-53 1130,15 1697,84 959,116 1918,231 2616,-320 501,-396 1083,-492 1672,-401 672,104 1353,457 1917,870 323,237 647,535 961,866zm4052 10278c-18,386 -55,718 -89,943 -108,716 -100,1385 -92,2044 9,738 17,1463 -123,2240 -66,363 -205,916 -337,1435 -88,348 -172,680 -228,934 -284,1289 -1240,2107 -2139,2875 -637,545 -1241,1060 -1457,1665l3296 0 -203 -1505 0 0c-11,-79 2,-162 42,-237 231,-441 540,-666 848,-890 450,-328 899,-655 801,-2112 -271,-1543 564,-2654 1345,-3693 577,-767 1118,-1488 1009,-2243 -397,13 -765,-52 -1103,-180 -639,-242 -1160,-703 -1569,-1276zm-7400 -19716c-217,-36 -364,-242 -328,-459 36,-217 242,-364 459,-328 202,34 408,46 615,58 339,19 678,39 1041,143 597,171 1052,578 1229,995 85,201 112,409 71,608 -44,212 -160,403 -360,552 -347,258 -983,380 -1980,195 -231,-43 -489,30 -763,108 -257,73 -526,149 -847,167 -220,12 -408,-157 -420,-377 -12,-220 157,-408 377,-420 230,-13 457,-78 675,-139 364,-103 707,-200 1122,-123 750,139 1173,88 1361,-52 32,-24 49,-48 54,-71 7,-36 -2,-83 -24,-137 -92,-217 -354,-436 -713,-539 -284,-81 -575,-98 -866,-115 -231,-13 -461,-26 -702,-67zm11837 9829c-18,-32 -32,-56 0,-1l0 1zm25029 21821c408,-700 1059,-1553 2001,-2069 128,-70 227,-141 316,-221 94,-85 190,-192 303,-326 642,-759 1148,-1907 1297,-3383 51,-504 60,-1046 18,-1622 -271,445 -618,835 -973,1235 -491,553 -1000,1125 -1289,1878 -123,320 -203,543 -278,753 -445,1238 -762,2120 -1724,2560l330 1196z"></path></g></svg>