<svg xmlns="http://www.w3.org/2000/svg" xmlns:xlink="http://www.w3.org/1999/xlink" version="1.1" x="0px" y="0px" viewBox="0 0 100 100" enable-background="new 0 0 100 100" xml:space="preserve"><g><g><path fill-rule="evenodd" clip-rule="evenodd" d="M69.195,62.28c0,1.545-1.286,2.672-2.829,2.672    c-1.424,0-2.677-1.117-2.677-2.672V48.438c0-1.543,1.253-2.799,2.677-2.799c1.543,0,2.829,1.256,2.829,2.809V62.28z     M85.843,35.472c0,2.25-1.42,3.953-3.396,4.508c-2.116,7.49-6.911,24.695-7.616,26.947c-0.834,2.967-3.815,5.082-7.459,5.082    c-3.683,0-17.366,0-17.366,0s-13.69,0-17.35,0c-3.683,0-6.647-2.115-7.503-5.082c-0.693-2.252-5.473-19.457-7.476-26.947    c-1.978-0.555-3.521-2.258-3.521-4.508v-2.822c0-2.535,2.103-4.658,4.68-4.658h62.346c2.533,0,4.66,2.123,4.66,4.67V35.472z     M58.186,62.28c0,1.545-1.121,2.672-2.676,2.672c-1.554,0-2.692-1.117-2.692-2.672V48.438c0-1.543,1.139-2.799,2.692-2.799    c1.555,0,2.676,1.256,2.676,2.809V62.28z M47.336,62.28c0,1.545-1.291,2.672-2.828,2.672c-1.43,0-2.69-1.117-2.69-2.672V48.438    c0-1.543,1.261-2.799,2.69-2.799c1.537,0,2.828,1.256,2.828,2.809V62.28z M36.315,62.28c0,1.545-1.123,2.672-2.703,2.672    c-1.536,0-2.798-1.117-2.798-2.672V48.438c0-1.543,1.262-2.799,2.798-2.799c1.58,0,2.703,1.256,2.703,2.809V62.28z"></path></g></g></svg>