<svg xmlns="http://www.w3.org/2000/svg" xmlns:xlink="http://www.w3.org/1999/xlink" xmlns:sketch="http://www.bohemiancoding.com/sketch/ns" viewBox="0 0 30 30" version="1.1" x="0px" y="0px"><title>shopping_003-shop-store-sell-buy-building</title><desc>Created with Sketch.</desc><g stroke="none" stroke-width="1"  fill-rule="evenodd" sketch:type="MSPage"><g sketch:type="MSArtboardGroup" transform="translate(-135.000000, -45.000000)" ><g sketch:type="MSLayerGroup" transform="translate(138.000000, 49.000000)"><path d="M1,20.5 C1,20.7761424 1.22385763,21 1.5,21 L23.5,21 C23.7761424,21 24,20.7761424 24,20.5 L24,6 L23,6.5 L23,20 L2,20 L2,6.5 L1,6 L1,20.5 Z" sketch:type="MSShapeGroup"></path><path d="M4,11.5 L4,17.5 C4,17.7761424 4.22385763,18 4.5,18 L20.5,18 C20.7761424,18 21,17.7761424 21,17.5 L21,11.5 C21,11.2238576 20.7761424,11 20.5,11 L4.5,11 C4.22385763,11 4,11.2238576 4,11.5 Z M5,12 L20,12 L20,17 L5,17 L5,12 Z" sketch:type="MSShapeGroup"></path><path d="M6,14.5 C6,14.7761424 6.22385763,15 6.5,15 L8.5,15 C8.77614237,15 9,14.7761424 9,14.5 L9,13 L6,13 L6,14.5 Z" sketch:type="MSShapeGroup" transform="translate(7.500000, 14.000000) scale(1, -1) translate(-7.500000, -14.000000) "></path><rect sketch:type="MSShapeGroup" x="6" y="16" width="3" height="1"></rect><path d="M16,17.5 C16,17.7761424 16.2238576,18 16.5,18 L18.5,18 C18.7761424,18 19,17.7761424 19,17.5 L19,14 L16,14 L16,17.5 Z" sketch:type="MSShapeGroup" transform="translate(17.500000, 16.000000) scale(1, -1) translate(-17.500000, -16.000000) "></path><path d="M10,17.5 C10,17.7761424 10.2238576,18 10.5,18 L14.5,18 C14.7761424,18 15,17.7761424 15,17.5 L15,15 L10,15 L10,17.5 Z" sketch:type="MSShapeGroup" transform="translate(12.500000, 16.500000) scale(1, -1) translate(-12.500000, -16.500000) "></path><path d="M0.0528959328,4.27650273 L2.04805169,0.286191208 C2.09136945,0.194812623 2.16157781,0.118662472 2.24845641,0.0679611312 C2.33183686,0.0208823512 2.42075469,-0.00178260373 2.51094157,0.000109528279 L22.4892775,0.000109528279 C22.5794644,-0.00178260373 22.6683822,0.0208823512 22.7462983,0.0648601768 C22.8386412,0.118662472 22.9088496,0.194812623 22.9521674,0.286191208 L24.9473231,4.27650273 C24.9849785,4.35181354 25.0018445,4.43208423 25.0000961,4.51078916 C24.9948149,6.43928307 23.4298412,8.0009973 21.5001095,8.0009973 C20.226947,8.0009973 19.1125581,7.32120622 18.5001095,6.30479061 C17.887661,7.32120622 16.7732721,8.0009973 15.5001095,8.0009973 C14.226947,8.0009973 13.1125581,7.32120622 12.5001095,6.30479061 C11.887661,7.32120622 10.7732721,8.0009973 9.50010953,8.0009973 C8.22694696,8.0009973 7.1125581,7.32120622 6.50010953,6.30479061 C5.88766096,7.32120622 4.7732721,8.0009973 3.50010953,8.0009973 C1.5703779,8.0009973 0.0054041824,6.43928307 0.000122934533,4.51078916 C-0.00162540283,4.43208423 0.0152405261,4.35181354 0.0528959328,4.27650273 Z" sketch:type="MSShapeGroup"></path></g></g></g></svg>