<svg xmlns="http://www.w3.org/2000/svg" xmlns:xlink="http://www.w3.org/1999/xlink" xml:space="preserve" version="1.1"  viewBox="0 0 60000 60000" x="0px" y="0px" fill-rule="evenodd" clip-rule="evenodd"><defs></defs><g><path  d="M5580 27242c-173,-85 -245,-294 -160,-467 85,-173 294,-245 467,-160 1447,709 2798,1278 4349,1692 1550,414 3302,673 5552,762 708,28 2498,-484 3787,-853 251,-72 483,-138 698,-198l-631 -7675c-771,-228 -1206,-511 -1206,-838 0,-73 22,-140 60,-196l956 -1581c51,-95 145,-164 255,-181l638 -2549c27,-139 135,-249 274,-277 481,-133 1641,-259 3145,-350 1396,-85 3109,-143 4862,-152 321,-429 630,-750 898,-733 940,63 1571,68 2131,27 565,-41 1060,-128 1725,-249 502,-91 888,531 1240,1174 377,37 726,78 1043,124 322,46 621,98 891,155 143,21 258,129 290,269l573 1843c19,0 39,2 59,6l2117 402 34 14c839,347 1476,591 1957,776 668,257 1035,397 1383,606 421,252 758,571 1506,1277 205,194 443,418 735,691 61,57 97,130 108,207 213,37 407,80 574,129 1282,371 2575,1168 3931,2005 2079,1282 4313,2660 6756,2608 193,-4 352,150 356,342 4,193 -150,352 -342,356 -2648,56 -4973,-1378 -7137,-2712 -1314,-811 -2567,-1583 -3758,-1928 -548,-159 -1442,-250 -2399,-301 -1633,-86 -3427,-52 -4058,-33 -308,9 -695,39 -1115,70 -1157,88 -2560,194 -3914,-31 -1496,-248 -1552,-214 -2965,639l-246 148c-907,549 -1294,783 -2952,1171l0 -1c-383,107 -651,308 -789,548 -82,144 -117,303 -99,463 18,168 94,342 230,507 301,363 881,674 1788,809l25 5c632,139 1470,100 2255,-182 641,-230 1241,-621 1651,-1208l133 -190 226 48c554,118 1109,167 1662,216 1298,115 2587,230 3849,1141l31 23 22 24c130,141 247,270 365,399 1423,1562 2955,3245 6107,3712 191,28 324,206 296,397 -28,191 -206,324 -397,296 -2400,-356 -3913,-1347 -5124,-2480 111,2853 331,5964 8297,6864l18 3c409,68 834,113 1265,160 1438,155 2947,317 4526,1329 163,104 210,321 105,483 -104,163 -321,210 -483,105 -1439,-922 -2865,-1076 -4222,-1222 -434,-47 -862,-93 -1290,-163 -4652,-526 -6844,-1778 -7896,-3315 -724,-722 -1856,-703 -2988,-684 -545,9 -1089,18 -1610,-47l-1037 7739c162,39 317,89 464,151 358,150 666,369 880,651 227,300 343,660 294,1073 -45,384 -236,807 -617,1258l0 0c-1398,1708 -3336,2186 -5274,2663 -917,226 -1835,452 -2677,814 -731,454 -1383,613 -1980,614 -548,1 -1032,-129 -1485,-285 -85,34 -201,79 -313,123 -1897,748 -2345,925 -4974,-1 -816,-288 -1661,-716 -2431,-1342 -648,-526 -1242,-1191 -1720,-2027 -763,-1151 -1713,-1197 -2639,-1241 -188,-9 -376,-18 -576,-36l-7 0c-535,-60 -1006,-116 -1476,-173 -2456,-294 -4891,-585 -6987,-384 -192,18 -363,-123 -381,-315 -18,-192 123,-363 315,-381 2178,-209 4645,86 7135,384 512,61 1024,123 1470,173l0 1c168,15 353,24 539,33 1103,53 2235,107 3193,1559l12 21c434,762 973,1366 1562,1844 700,569 1473,960 2223,1224 2131,751 2678,703 3987,204l-5190 -1598c-185,-57 -288,-252 -231,-437 57,-185 252,-288 437,-231l6148 1893 14 4c431,154 886,291 1375,290 482,-1 1019,-137 1636,-525l27 -17 21 -9c894,-386 1850,-622 2807,-858 1824,-450 3648,-899 4899,-2428l4 -4c287,-340 428,-638 459,-893 26,-220 -34,-411 -154,-569 -134,-176 -343,-320 -595,-426 -417,-175 -932,-236 -1414,-161 -1,32 -3,65 -5,97 -28,366 -153,727 -349,1044 -322,520 -843,923 -1455,1034 -1665,424 -3330,847 -5652,427 -2247,56 -4329,-398 -5903,-741 -973,-212 -1745,-380 -2186,-350 -193,13 -360,-133 -372,-326 -13,-193 133,-360 326,-372 541,-38 1354,140 2380,363 1548,337 3596,784 5763,727 27,-2 55,0 83,5 2188,403 3790,-5 5393,-413l0 1c9,-2 19,-4 29,-6 414,-70 773,-350 999,-716 138,-222 225,-474 245,-729 19,-245 -26,-491 -150,-712 -184,-327 -548,-609 -1144,-771 -548,-51 -1127,-44 -1689,7 -609,55 -1199,163 -1714,306 -53,17 -112,22 -171,10 -2181,-407 -3778,-912 -5268,-1383 -1511,-477 -2912,-920 -4682,-1182 -320,-20 -643,-51 -970,-96 -191,-26 -325,-203 -299,-394 26,-191 203,-325 394,-299 309,43 616,72 921,91 11,0 22,1 33,2 877,54 1742,26 2614,-2 1309,-42 2635,-84 4069,138 19,2 37,5 56,10 566,149 1101,251 1637,317 542,66 1076,95 1639,98 516,3 971,-121 1312,-332 235,-145 413,-332 512,-543 93,-199 115,-426 46,-668 -78,-274 -269,-570 -600,-873l0 0c-5,-5 -10,-10 -15,-15 -461,-476 -1012,-790 -1581,-990 -1078,-380 -2261,-121 -3005,-469 -633,-296 -1327,-501 -2034,-641 -704,-139 -1414,-214 -2085,-249 -435,62 -902,113 -1369,96 -501,-19 -992,-117 -1430,-365 -168,-95 -227,-309 -131,-477 95,-168 309,-227 477,-131 328,186 712,260 1110,275 311,12 635,-13 951,-51l-141 -1714c-169,48 -361,103 -565,161 -1332,381 -3181,910 -4006,878 -2309,-91 -4109,-357 -5705,-783 -1595,-426 -2985,-1012 -4475,-1742zm1660 2031c-105,-59 -143,-192 -84,-298 59,-105 192,-143 298,-84 593,333 1196,602 1850,783 654,181 1362,275 2167,256 121,-2 220,93 223,214 2,121 -93,220 -214,223 -850,20 -1599,-80 -2292,-271 -693,-192 -1327,-475 -1947,-823zm44993 -2583c-113,-43 -170,-169 -127,-282 43,-113 169,-170 282,-127 623,237 1188,440 1773,571 582,131 1193,195 1918,157 121,-6 223,87 229,207 6,121 -87,223 -207,229 -767,40 -1416,-28 -2036,-167 -617,-139 -1196,-346 -1833,-588zm-26947 12142c-89,-37 -131,-140 -93,-229 37,-89 140,-131 229,-93 425,180 842,322 1288,424 446,102 922,162 1467,177 96,3 172,83 170,179 -3,96 -83,172 -179,170 -569,-16 -1067,-79 -1534,-185 -467,-106 -903,-255 -1347,-443zm-273 6027c-93,-24 -150,-120 -125,-213 24,-93 120,-150 213,-125 58,15 133,36 208,56 580,158 1128,308 1578,-55 75,-61 185,-49 246,27 61,75 49,185 -27,246 -588,475 -1220,302 -1889,120 -62,-17 -123,-34 -204,-55zm14494 -16489l-3114 21 -299 2229c474,59 990,50 1506,41 840,-14 1679,-28 2416,220 -357,-1022 -399,-2111 -440,-3165 -8,-212 -16,-423 -28,-647 -228,-241 -449,-483 -667,-723 -117,-129 -234,-256 -340,-371 -557,-395 -1134,-617 -1723,-753l-331 2470 3018 -21 3 698zm-1856 -10790l53 170 935 1545c44,58 69,131 69,209 0,545 -1213,971 -3174,1217 -36,5 -72,9 -108,13 924,42 1847,-28 2648,-89 408,-31 785,-59 1147,-70 640,-19 2462,-54 4112,33 319,17 632,38 931,66 -95,-90 -186,-175 -270,-255 -711,-672 -1033,-975 -1386,-1187 -289,-173 -638,-307 -1273,-551 -454,-174 -1054,-404 -1939,-770l-1744 -331zm-6230 3451c-902,34 -1859,53 -2849,53 -2716,0 -5178,-139 -6962,-363 -460,-58 -879,-125 -1251,-202l625 7605c9,19 16,39 22,61 16,62 14,125 -2,182l168 2046c624,42 1272,117 1912,244 754,149 1503,371 2196,695 628,294 1817,45 2942,442 657,232 1296,596 1838,1151 432,395 688,803 800,1198 117,412 77,804 -85,1152 -156,335 -427,624 -780,842 -447,276 -1032,439 -1682,436 -602,-3 -1165,-33 -1721,-101 -558,-68 -1119,-175 -1718,-333 -1206,-187 -2353,-177 -3482,-144 576,165 1141,344 1721,527 1458,461 3019,954 5108,1349 535,-144 1144,-253 1771,-310 615,-56 1247,-62 1847,-4 21,2 42,6 62,11 815,215 1325,625 1599,1110 58,103 105,209 142,317 207,-32 419,-44 630,-37l1858 -13863c-351,-49 -705,-81 -1059,-112 -509,-45 -1019,-90 -1527,-184 -491,614 -1151,1029 -1848,1279 -902,323 -1873,370 -2616,212l0 0c-1095,-164 -1822,-571 -2224,-1056 -229,-276 -356,-578 -389,-879 -34,-309 31,-613 187,-885 226,-396 645,-719 1226,-878l12 -4c1549,-363 1908,-580 2750,-1089l246 -148c200,-121 377,-228 536,-321zm-9932 -5761c280,77 682,162 1182,252 1196,215 2876,365 4782,408 4,0 333,-497 681,-1010 -1555,16 -3066,71 -4330,148 -952,58 -1753,128 -2315,202zm13466 -95c52,146 85,242 118,234 206,-47 389,-97 546,-148 -18,-3 -36,-5 -54,-8 -197,-28 -401,-55 -610,-79zm-5757 -581c-10,125 -86,231 -193,285 -86,127 -178,263 -270,398 -465,685 -923,1360 -1297,1352 -1943,-44 -3661,-197 -4892,-419 -713,-128 -1279,-296 -1660,-498l-544 2173c-12,47 -32,89 -59,125 320,119 1066,260 2105,405 1576,220 3762,356 6182,356 2421,0 4606,-136 6182,-356 1329,-185 2179,-365 2270,-499l-682 -2193c-8,4 -16,8 -24,12 -256,130 -625,250 -1088,356 -453,104 -775,-492 -1122,-1132 -265,-490 -551,-1019 -605,-1009 -695,127 -1213,217 -1799,260 -591,43 -1251,38 -2227,-27 -1,0 -114,168 -278,411zm8108 3846c-476,283 -1331,511 -2457,668 -1613,225 -3833,364 -6278,364 -2445,0 -4666,-139 -6278,-364 -1125,-157 -1979,-384 -2455,-667l-669 1107c180,129 1112,300 2526,477 1757,221 4189,357 6877,357 2689,0 5120,-137 6877,-357 1417,-178 2349,-349 2527,-478l-670 -1107z"></path></g></svg>