<svg xmlns="http://www.w3.org/2000/svg" xmlns:xlink="http://www.w3.org/1999/xlink" version="1.1" x="0px" y="0px" viewBox="0 0 100 100" enable-background="new 0 0 100 100" xml:space="preserve"><g><path  d="M28.22,19.67c-2.22,0-4.439,1.561-5.279,3.66l-7.86,21.18c0,0.061,0,0.061,0,0.12   c-0.061,0.061-0.061,0.18-0.061,0.3v1.2c0,2.76,2.28,5.04,5.04,5.04v19.681H16.94c-1.62,0-2.94,1.319-2.94,2.939v3.601   c0,1.619,1.32,2.939,2.94,2.939H83.06c1.62,0,2.94-1.32,2.94-2.939V73.79c0-1.62-1.32-2.939-2.94-2.939h-3.12V51.17   c2.76,0,5.04-2.28,5.04-5.04v-1.2c0-0.12,0-0.239-0.06-0.359c0,0,0,0,0-0.061l-7.86-21.18c-0.84-2.1-3-3.66-5.28-3.66h-5.52H33.74   H28.22L28.22,19.67z M28.22,21.29h5.521h32.52h5.52c1.44,0,3.24,1.26,3.78,2.58L83,44.03h-7.38H67.1h-8.58H50h-8.521H32.9H24.38H17   l7.44-20.16C24.979,22.55,26.78,21.29,28.22,21.29L28.22,21.29z M16.64,45.59h6.96v0.54c0,1.92-1.56,3.48-3.479,3.48   s-3.48-1.561-3.48-3.48V45.59L16.64,45.59z M25.16,45.59h6.96v0.54c0,1.92-1.561,3.48-3.48,3.48s-3.479-1.561-3.479-3.48V45.59   L25.16,45.59z M33.74,45.59h6.899v0.54c0,1.92-1.5,3.48-3.42,3.48c-1.979,0-3.479-1.561-3.479-3.48V45.59L33.74,45.59z    M42.26,45.59h6.96v0.54c0,1.92-1.56,3.48-3.479,3.48s-3.48-1.561-3.48-3.48V45.59L42.26,45.59z M50.78,45.59h6.959v0.54   c0,1.92-1.56,3.48-3.479,3.48s-3.479-1.561-3.479-3.48V45.59L50.78,45.59z M59.359,45.59h6.9v0.54c0,1.92-1.5,3.48-3.48,3.48   c-1.92,0-3.42-1.561-3.42-3.48V45.59L59.359,45.59z M67.88,45.59h6.96v0.54c0,1.92-1.561,3.48-3.48,3.48s-3.479-1.561-3.479-3.48   V45.59L67.88,45.59z M76.399,45.59h6.96v0.54c0,1.92-1.56,3.48-3.479,3.48s-3.48-1.561-3.48-3.48V45.59L76.399,45.59z M24.38,48.83   c0.6,0.9,1.44,1.62,2.46,2.04v11.4c0,1.62,1.32,2.939,2.94,2.939h15.18c1.62,0,2.94-1.319,2.94-2.939V50.69   c0.84-0.421,1.56-1.08,2.1-1.86c0.899,1.439,2.46,2.34,4.26,2.34s3.36-0.9,4.26-2.34c0.9,1.439,2.521,2.34,4.26,2.34   c1.801,0,3.42-0.9,4.32-2.34c0.9,1.439,2.46,2.34,4.26,2.34c1.801,0,3.36-0.9,4.261-2.34c0.6,0.96,1.56,1.74,2.699,2.101v19.92   H73.16V57.11c0-1.62-1.32-2.94-2.94-2.94h-9.78c-1.62,0-2.939,1.32-2.939,2.94v13.74H21.68v-19.92   C22.82,50.57,23.78,49.79,24.38,48.83L24.38,48.83z M32.9,48.83c0.899,1.439,2.52,2.34,4.319,2.34c1.74,0,3.36-0.9,4.26-2.34   c0.9,1.439,2.46,2.34,4.261,2.34c0.18,0,0.359,0,0.54,0v11.101c0,0.72-0.601,1.319-1.32,1.319H29.78c-0.721,0-1.32-0.6-1.32-1.319   V51.17c0.06,0,0.12,0,0.18,0C30.44,51.17,32,50.27,32.9,48.83L32.9,48.83z M60.439,55.79h9.78c0.72,0,1.32,0.54,1.32,1.32v13.74   H59.12V57.11C59.12,56.33,59.66,55.79,60.439,55.79L60.439,55.79z M16.94,72.471h3.84c0.06,0,0.12,0,0.239,0H58.16   c0.06,0,0.18,0,0.239,0h13.8c0.061,0,0.181,0,0.24,0h6.54c0.12,0,0.181,0,0.24,0h3.84c0.78,0,1.32,0.6,1.32,1.319v3.601   c0,0.72-0.54,1.319-1.32,1.319H16.94c-0.78,0-1.32-0.6-1.32-1.319V73.79C15.62,73.07,16.16,72.471,16.94,72.471L16.94,72.471z"></path></g></svg>