<svg xmlns:dc="http://purl.org/dc/elements/1.1/" xmlns:cc="http://creativecommons.org/ns#" xmlns:rdf="http://www.w3.org/1999/02/22-rdf-syntax-ns#" xmlns:svg="http://www.w3.org/2000/svg" xmlns="http://www.w3.org/2000/svg" xmlns:sodipodi="http://sodipodi.sourceforge.net/DTD/sodipodi-0.dtd" xmlns:inkscape="http://www.inkscape.org/namespaces/inkscape" viewBox="0 0 100 100" version="1.1" x="0px" y="0px"><g transform="translate(0,-952.36216)"><path  d="m 50,976.86216 c -1.798409,0 -3.596902,0.57975 -5.148438,1.74023 -2.74803,2.05541 -4.427579,5.48387 -4.777343,9.25977 l -16.574219,0 a 1.50015,1.50015 0 0 0 -1.5,1.5 l 0,37.00004 a 1.50015,1.50015 0 0 0 1.5,1.5 l 53,0 a 1.50015,1.50015 0 0 0 1.5,-1.5 l 0,-37.00004 a 1.50015,1.50015 0 0 0 -1.5,-1.5 l -16.574219,0 c -0.349764,-3.7759 -2.029313,-7.20436 -4.777343,-9.25977 C 53.596902,977.44191 51.798409,976.86216 50,976.86216 Z m 0,2.93164 c 1.136617,0 2.273235,0.4044 3.351562,1.21094 1.849825,1.38359 3.203005,3.93677 3.552735,6.85742 l -13.808594,0 c 0.34973,-2.92065 1.70291,-5.47383 3.552735,-6.85742 C 47.726765,980.1982 48.863383,979.7938 50,979.7938 Z m -25,11.06836 50,0 0,34.00004 -50,0 0,-34.00004 z"></path><circle  cx="41.5" cy="995.36041" r="1.5"></circle><circle  cx="58.5" cy="995.36041" r="1.5"></circle><path  d="m 5,957.36205 0,90.00015 90,0 0,-90.00015 z m 2,2 86,0 0,86.00015 -86,0 z"></path></g></svg>