<svg xmlns="http://www.w3.org/2000/svg" xmlns:xlink="http://www.w3.org/1999/xlink" version="1.1" x="0px" y="0px" viewBox="0 0 100 100" enable-background="new 0 0 100 100" xml:space="preserve"><g><path d="M93.103,17.852l-9.978,9.98c-0.062,0.065-0.104,0.138-0.167,0.202c-2.813,2.814-7.377,2.814-10.19,0   c-2.814-2.815-2.814-7.378,0-10.192c0.063-0.061,0.137-0.104,0.204-0.165l9.978-9.979c-8.125-3.926-18.175-2.539-24.918,4.204   c-6.66,6.661-8.092,16.547-4.342,24.62L7.064,83.146c-1.224,1.223-1.811,2.615-1.317,3.108l8.351,8.348   c0.495,0.494,1.885-0.091,3.108-1.313l46.458-46.461c8.181,4.117,18.405,2.772,25.236-4.058   C95.643,36.027,97.027,25.977,93.103,17.852z M11.875,88.475c-1.387-1.384-1.386-3.636,0-5.02c1.386-1.387,3.635-1.389,5.02,0   c1.387,1.387,1.387,3.636,0,5.02C15.51,89.862,13.262,89.862,11.875,88.475z"></path></g></svg>