<svg xmlns="http://www.w3.org/2000/svg" xmlns:xlink="http://www.w3.org/1999/xlink" version="1.1" x="0px" y="0px" viewBox="0 0 95 95"  xml:space="preserve"><path d="M36.71,57.15h21.57c1.48,0,2.8-0.64,3.71-1.79c0.92-1.15,1.24-2.59,0.89-4.04l-4.11-17.07c-0.51-2.1-2.34-3.56-4.49-3.61  l0.03-2.42c0.02-1.8-0.67-3.5-1.94-4.79c-1.3-1.32-3.03-2.04-4.87-2.04c-3.71,0-6.77,3.05-6.82,6.8l-0.02,2.46  c-2.12,0.08-3.93,1.53-4.43,3.61l-4.12,17.07c-0.34,1.44-0.03,2.87,0.88,4.03C33.91,56.51,35.23,57.15,36.71,57.15z M47.51,24.34  c1.04,0,2.02,0.41,2.75,1.16c0.72,0.72,1.1,1.67,1.09,2.67l-0.03,2.45h-7.69l0.02-2.41C43.68,26.08,45.41,24.34,47.51,24.34z   M35,52.01l4.12-17.07c0.18-0.74,0.78-1.24,1.51-1.32l-0.02,1.97c-0.01,0.82,0.65,1.49,1.47,1.5c0,0,0.01,0,0.01,0  c0.81,0,1.48-0.66,1.48-1.47l0.02-2.03h7.68l-0.02,2c-0.01,0.82,0.65,1.49,1.47,1.5c0,0,0.01,0,0.02,0c0.81,0,1.48-0.65,1.48-1.47  l0.02-2.02c0.79,0.03,1.45,0.56,1.63,1.34L60,52.01c0.13,0.57,0.03,1.06-0.33,1.51c-0.35,0.45-0.81,0.67-1.38,0.67H36.71  c-0.58,0-1.03-0.22-1.38-0.67C34.98,53.06,34.87,52.56,35,52.01z M93.52,65.87h-6.67V16.15c0-3.56-2.9-6.47-6.46-6.47H14.63  c-3.56,0-6.46,2.9-6.46,6.47v49.72H1.48C0.67,65.87,0,66.54,0,67.36v6.51c0,6.31,5.14,11.45,11.46,11.45h72.1  c6.31,0,11.44-5.14,11.44-11.45v-6.51C95,66.54,94.33,65.87,93.52,65.87z M11.13,16.15c0-1.93,1.57-3.5,3.5-3.5h65.76  c1.93,0,3.5,1.57,3.5,3.5v49.72H65.46h-35.9H11.13V16.15z M62.5,68.84l-2.31,3.09H34.82l-2.3-3.09H62.5z M92.03,73.86  c0,4.68-3.8,8.48-8.48,8.48h-72.1c-4.68,0-8.49-3.8-8.49-8.48v-5.02h5.19h20.65l4.07,5.46c0.28,0.38,0.72,0.6,1.19,0.6h26.87  c0.47,0,0.91-0.22,1.19-0.6l4.07-5.46h20.65h5.18V73.86z M80.87,61.37V17.16c0-0.82-0.67-1.48-1.48-1.48H15.63  c-0.82,0-1.48,0.66-1.48,1.48v44.21c0,0.82,0.67,1.48,1.48,1.48h63.75C80.2,62.85,80.87,62.19,80.87,61.37z M77.9,59.89H17.12V18.64  H77.9V59.89z"></path></svg>