<svg xmlns="http://www.w3.org/2000/svg" xmlns:xlink="http://www.w3.org/1999/xlink" viewBox="0 0 24 24" version="1.1" x="0px" y="0px"><title>shopping_071-mobile_shopping-phone-online-cart</title><desc>Created with Sketch.</desc><g stroke="none" stroke-width="1"  fill-rule="evenodd"><g transform="translate(-45.000000, -381.000000)" ><g transform="translate(47.000000, 381.000000)"><path d="M7,17 L7,21.9991358 C7,23.0983727 7.89666625,24 9.00276013,24 L17.9972399,24 C19.1064574,24 20,23.1041826 20,21.9991358 L20,2.00086422 C20,0.901627257 19.1033337,0 17.9972399,0 L9.00276013,0 C7.89354265,0 7,0.895817426 7,2.00086422 L7,6 L8,6 L8,2.00086422 C8,1.44699395 8.44693549,1 9.00276013,1 L17.9972399,1 C18.5488079,1 19,1.45166907 19,2.00086422 L19,21.9991358 C19,22.553006 18.5530645,23 17.9972399,23 L9.00276013,23 C8.4511921,23 8,22.5483309 8,21.9991358 L8,17 L7,17 Z"></path><rect x="7" y="3" width="13" height="1"></rect><rect x="7" y="19" width="13" height="1"></rect><path d="M14.7013807,21 L12.2986193,21 C12.1336964,21 12,21.1390457 12,21.2946243 L12,21.7053757 C12,21.8680922 12.1289062,22 12.2986193,22 L14.7013807,22 C14.8663036,22 15,21.8609543 15,21.7053757 L15,21.2946243 C15,21.1319078 14.8710938,21 14.7013807,21 Z"></path><g transform="translate(0.000000, 4.000000)"><path d="M11.107727,8.13227981 C10.9834734,8.62763858 10.5131318,9 10.0089948,9 L4.99100518,9 C4.49654498,9 4.01679156,8.62871904 3.89580911,8.14478924 L2.13404839,1.09774639 C2.12453266,1.05968344 2.04645518,1 1.99531555,1 L0,1 L0,0 L1.99531555,0 C2.50115697,0 2.98234475,0.367826201 3.10419089,0.855210764 L4.86595161,7.90225361 C4.8752112,7.93929198 4.95365552,8 4.99100518,8 L10.0089948,8 C10.0515889,8 10.1243839,7.94236944 10.1377756,7.88898139 L11.3641064,3 L12.3950858,3 L11.107727,8.13227981 Z"></path><circle cx="5" cy="11" r="1"></circle><circle cx="10" cy="11" r="1"></circle><rect x="3" y="3" width="9" height="1"></rect></g></g></g></g></svg>