<svg xmlns="http://www.w3.org/2000/svg" xmlns:xlink="http://www.w3.org/1999/xlink" version="1.1" x="0px" y="0px" viewBox="0 0 96 96" enable-background="new 0 0 96 96" xml:space="preserve"><path d="M12,12h8v8h-8V12z"></path><path d="M30,0H2C0.896,0,0,0.9,0,2v28c0,1.1,0.896,2,2,2h28c1.104,0,2-0.9,2-2V2C32,0.9,31.104,0,30,0z M24,22c0,1.1-0.896,2-2,2H10  c-1.104,0-2-0.9-2-2V10c0-1.1,0.896-2,2-2h12c1.104,0,2,0.9,2,2V22z"></path><path d="M76,12h8v8h-8V12z"></path><path d="M94,0H66c-1.1,0-2,0.9-2,2v28c0,1.1,0.9,2,2,2h28c1.1,0,2-0.9,2-2V2C96,0.9,95.1,0,94,0z M88,22c0,1.1-0.9,2-2,2H74  c-1.1,0-2-0.9-2-2V10c0-1.1,0.9-2,2-2h12c1.1,0,2,0.9,2,2V22z"></path><path d="M30,36H4c-1.104,0-2,0.9-2,2s0.896,2,2,2h24v4c0,1.1,0.896,2,2,2s2-0.9,2-2v-6C32,36.9,31.104,36,30,36z"></path><path d="M2,60h26c1.104,0,2-0.9,2-2s-0.896-2-2-2H4v-4c0-1.1-0.896-2-2-2s-2,0.9-2,2v6C0,59.1,0.896,60,2,60z"></path><path d="M94,66c-1.1,0-2,0.9-2,2v24h-4c-1.1,0-2,0.9-2,2s0.9,2,2,2h6c1.1,0,2-0.9,2-2V68C96,66.9,95.1,66,94,66z"></path><path d="M46,66c0-1.1-0.896-2-2-2h-6c-1.104,0-2,0.9-2,2v26c0,1.1,0.896,2,2,2s2-0.9,2-2V68h4C45.104,68,46,67.1,46,66z"></path><path d="M76,92H52c-1.1,0-2,0.9-2,2s0.9,2,2,2h24c1.1,0,2-0.9,2-2S77.1,92,76,92z"></path><path d="M62,86c0-1.1-0.9-2-2-2H48c-1.104,0-2,0.9-2,2s0.896,2,2,2h12C61.1,88,62,87.1,62,86z"></path><path d="M84,84H72c-1.1,0-2,0.9-2,2s0.9,2,2,2h12c1.1,0,2-0.9,2-2S85.1,84,84,84z"></path><path d="M84,68c1.1,0,2-0.9,2-2s-0.9-2-2-2h-8c-1.1,0-2,0.9-2,2s0.9,2,2,2H84z"></path><path d="M70,66c0-1.1-0.9-2-2-2h-4c-1.1,0-2,0.9-2,2s0.9,2,2,2h4C69.1,68,70,67.1,70,66z"></path><path d="M52,68h4c1.1,0,2-0.9,2-2s-0.9-2-2-2h-4c-1.1,0-2,0.9-2,2S50.9,68,52,68z"></path><path d="M48,80v-8c0-1.1-0.896-2-2-2s-2,0.9-2,2v8c0,1.1,0.896,2,2,2S48,81.1,48,80z"></path><path d="M64,72v8c0,1.1,0.9,2,2,2s2-0.9,2-2v-8c0-1.1-0.9-2-2-2S64,70.9,64,72z"></path><path d="M72,72v8c0,1.1,0.9,2,2,2s2-0.9,2-2v-8c0-1.1-0.9-2-2-2S72,70.9,72,72z"></path><path d="M86,82c1.1,0,2-0.9,2-2v-8c0-1.1-0.9-2-2-2s-2,0.9-2,2v8C84,81.1,84.9,82,86,82z"></path><path d="M12,48c1.104,0,2-0.9,2-2s-0.896-2-2-2H8c-1.104,0-2,0.9-2,2s0.896,2,2,2H12z"></path><path d="M24,52c1.104,0,2-0.9,2-2s-0.896-2-2-2h-4c-1.104,0-2,0.9-2,2s0.896,2,2,2H24z"></path><path d="M94,58c0-1.1-0.9-2-2-2H80v-8c0-1.1-0.9-2-2-2s-2,0.9-2,2v8H64c-1.1,0-2,0.9-2,2s0.9,2,2,2h28C93.1,60,94,59.1,94,58z"></path><path d="M64,40h28c1.1,0,2-0.9,2-2s-0.9-2-2-2H64c-1.1,0-2,0.9-2,2S62.9,40,64,40z"></path><path d="M40,4h16c1.1,0,2-0.9,2-2s-0.9-2-2-2H40c-1.104,0-2,0.9-2,2S38.896,4,40,4z"></path><path d="M38,30c1.104,0,2-0.9,2-2V8c0-1.1-0.896-2-2-2s-2,0.9-2,2v20C36,29.1,36.896,30,38,30z"></path><path d="M46,6c-1.104,0-2,0.9-2,2v4c0,1.1,0.896,2,2,2s2-0.9,2-2V8C48,6.9,47.104,6,46,6z"></path><path d="M48,28c0,1.1,0.896,2,2,2c1.1,0,2-0.9,2-2v-4c0-1.1-0.9-2-2-2c-1.104,0-2,0.9-2,2V28z"></path><path d="M56,8v16c0,1.1,0.9,2,2,2s2-0.9,2-2V8c0-1.1-0.9-2-2-2S56,6.9,56,8z"></path><path d="M94,42c-1.1,0-2,0.9-2,2v8c0,1.1,0.9,2,2,2s2-0.9,2-2v-8C96,42.9,95.1,42,94,42z"></path><path d="M60,52c0,1.1,0.9,2,2,2s2-0.9,2-2v-8c0-1.1-0.9-2-2-2s-2,0.9-2,2V52z"></path><path d="M72,52v-8c0-1.1-0.9-2-2-2s-2,0.9-2,2v8c0,1.1,0.9,2,2,2S72,53.1,72,52z"></path><path d="M38,58c1.104,0,2-0.9,2-2V44h4c1.104,0,2-0.9,2-2s-0.896-2-2-2h-4v-4c0-1.1-0.896-2-2-2s-2,0.9-2,2v20  C36,57.1,36.896,58,38,58z"></path><path d="M48,52h4v4c0,1.1,0.9,2,2,2s2-0.9,2-2V36c0-1.1-0.9-2-2-2s-2,0.9-2,2v12h-4c-1.104,0-2,0.9-2,2S46.896,52,48,52z"></path><path d="M30,64H2c-1.104,0-2,0.9-2,2v28c0,1.1,0.896,2,2,2h28c1.104,0,2-0.9,2-2V66C32,64.9,31.104,64,30,64z M24,86  c0,1.1-0.896,2-2,2H10c-1.104,0-2-0.9-2-2V74c0-1.1,0.896-2,2-2h12c1.104,0,2,0.9,2,2V86z"></path><path d="M12,76h8v8h-8V76z"></path></svg>