<svg xmlns="http://www.w3.org/2000/svg" xmlns:xlink="http://www.w3.org/1999/xlink" version="1.1" x="0px" y="0px" viewBox="0 0 100 100" enable-background="new 0 0 100 100" xml:space="preserve"><g><path d="M68.09,77.031c0.014,0,0.028,0,0.042,0h5.539v5.141c-0.012,0.828,0.65,1.51,1.479,1.521c0.828,0.012,1.51-0.65,1.521-1.479   c0-0.014,0-0.028,0-0.042v-5.141h5.539c0.828,0.012,1.51-0.65,1.521-1.479c0.012-0.828-0.65-1.51-1.479-1.521   c-0.014,0-0.028,0-0.042,0h-5.539v-5.14c0.012-0.828-0.65-1.51-1.479-1.521c-0.015,0-0.029,0-0.044,0   c-0.828,0.012-1.489,0.693-1.478,1.521v5.14h-5.539c-0.828-0.012-1.51,0.65-1.521,1.479C66.6,76.339,67.262,77.02,68.09,77.031z"></path><path d="M8.9,92.464c0.049,0.005,0.099,0.007,0.148,0.007h65.083c0.009,0,0.018-0.001,0.027-0.001   c0.335,0.019,0.673,0.03,1.013,0.03c9.506,0,17.28-7.596,17.28-16.969s-7.774-16.968-17.28-16.968c-1.179,0-2.331,0.117-3.446,0.34   l-3.433-34.515c-0.076-0.767-0.722-1.352-1.493-1.352h-9.428v-0.678c0-8.247-7.346-14.859-16.142-14.859   c-8.805,0-16.152,6.612-16.152,14.859v0.678H15.65c-0.771,0-1.417,0.585-1.493,1.352L7.556,90.823   C7.474,91.647,8.076,92.382,8.9,92.464z M75.172,61.563c7.917,0,14.28,6.249,14.28,13.968c0,7.719-6.363,13.969-14.28,13.969   c-7.917,0-14.28-6.25-14.28-13.969S67.255,61.563,75.172,61.563z M28.078,22.359c0-6.453,5.837-11.859,13.152-11.859   c7.304,0,13.142,5.405,13.142,11.859v0.678H28.078V22.359z M17.008,26.036h8.07v8.359c-0.012,0.828,0.65,1.51,1.479,1.521   c0.828,0.012,1.51-0.65,1.521-1.479c0-0.014,0-0.028,0-0.042v-8.359h26.294v8.359c-0.012,0.828,0.65,1.51,1.479,1.521   c0.828,0.012,1.51-0.65,1.521-1.479c0-0.014,0-0.028,0-0.042v-8.359h8.07l3.354,33.725c-6.373,2.495-10.904,8.614-10.904,15.77   c0,5.775,2.952,10.875,7.441,13.94H10.705L17.008,26.036z"></path></g></svg>