<svg viewBox="0 0 65 65" xmlns="http://www.w3.org/2000/svg"><g fill="#000" fill-rule="nonzero"><path d="M60.513 10.47a860.555 860.555 0 0 0-27.335-6.807l-.025-.005-.023-.01a1.829 1.829 0 0 0-.629-.1 1.811 1.811 0 0 0-.628.1l-.025.01-.024.005A860.04 860.04 0 0 0 4.486 10.47c-.122.071-.256.305-.252.552 0 .056.006.11.019.164a93.941 93.941 0 0 1 2.358 20.94c0 6.35-.652 12.7-1.945 18.953-.057.335 0 .679.16.978a612.129 612.129 0 0 0 27.15 8.357l.068.02.056.047a.639.639 0 0 0 .402.133c.154 0 .303-.05.4-.133l.055-.047.071-.02a615.148 615.148 0 0 0 27.147-8.357c.163-.299.22-.644.16-.98h.002a93.726 93.726 0 0 1 .412-39.89.707.707 0 0 0 .02-.165c.001-.247-.133-.48-.256-.552z"/><path d="M64.17 7.814A965.116 965.116 0 0 0 33.348.14c-.465-.185-1.232-.185-1.696 0A970.521 970.521 0 0 0 .832 7.814C.439 8 .217 8.563.33 9.064a105.167 105.167 0 0 1 .464 44.744c-.102.5.04 1.177.322 1.502a690.976 690.976 0 0 0 30.69 9.45c.38.32 1.01.32 1.39 0a689.986 689.986 0 0 0 30.688-9.45c.284-.324.426-1 .322-1.502a105.183 105.183 0 0 1 .463-44.744c.115-.5-.108-1.064-.5-1.25zm-2.764 3.523a93.106 93.106 0 0 0-.411 39.603l-.33.068.33-.067c.025.125.036.252.036.381-.005.452-.122.913-.399 1.243l-.06.069-.087.028a614.488 614.488 0 0 1-27.213 8.382 1.32 1.32 0 0 1-.773.244 1.315 1.315 0 0 1-.773-.244 612.717 612.717 0 0 1-27.212-8.382l-.088-.028-.06-.068c-.277-.33-.394-.79-.399-1.245 0-.128.011-.256.038-.381a92.88 92.88 0 0 0 1.93-18.815 93.25 93.25 0 0 0-2.342-20.788 1.408 1.408 0 0 1-.035-.316c.005-.478.22-.952.664-1.174l.029-.014.029-.008a860.366 860.366 0 0 1 27.365-6.814c.261-.097.558-.135.855-.136.297 0 .592.04.85.135a863.902 863.902 0 0 1 27.368 6.815l.028.008.03.014c.444.223.659.696.663 1.174.002.104-.01.211-.033.316z"/></g></svg>