<svg viewBox="0 0 65 65" xmlns="http://www.w3.org/2000/svg"><path d="M56.875 16.399v-6.92c0-.748-.606-1.354-1.354-1.354H48.6C44.141 2.879 38.445 0 32.5 0c-5.945 0-11.64 2.879-16.101 8.125h-6.92c-.748 0-1.354.606-1.354 1.354v6.92C2.879 20.859 0 26.555 0 32.5c0 5.945 2.879 11.64 8.125 16.101v6.92c0 .748.606 1.354 1.354 1.354h6.92C20.859 62.121 26.555 65 32.5 65c5.945 0 11.64-2.879 16.101-8.125h6.92c.748 0 1.354-.606 1.354-1.354V48.6C62.121 44.141 65 38.445 65 32.5c0-5.945-2.879-11.64-8.125-16.101zm-2.207 30.517c-.317.257-.501.643-.501 1.051v6.2h-6.2c-.408 0-.794.184-1.05.5-3.995 4.916-9.117 7.625-14.417 7.625-5.3 0-10.422-2.709-14.416-7.624a1.354 1.354 0 0 0-1.051-.501h-6.2v-6.2c0-.408-.184-.794-.5-1.05C5.416 42.921 2.707 37.8 2.707 32.5c0-5.3 2.709-10.422 7.624-14.416.317-.257.501-.643.501-1.051v-6.2h6.2c.408 0 .794-.184 1.05-.5C22.079 5.416 27.2 2.707 32.5 2.707c5.3 0 10.422 2.709 14.416 7.624.257.317.643.501 1.051.501h6.2v6.2c0 .408.184.794.5 1.05 4.916 3.995 7.625 9.117 7.625 14.417 0 5.3-2.709 10.422-7.624 14.416z" fill="#000" fill-rule="nonzero"/></svg>