<svg xmlns="http://www.w3.org/2000/svg" viewBox="10.44 4.531 79.12 90.939"><path d="M50.367 95.47L10.806 73.052l-.366-45.47L49.634 4.531l39.561 22.417.365 45.469L50.367 95.47zM13.792 71.296l36.546 20.709L86.547 70.71l-.338-42.006L49.663 7.995 13.453 29.29l.339 42.006z" fill="#000000"/><path d="M50.326 90.426L15.153 70.495l-.326-40.426L49.675 9.573l.251.142 34.921 19.79.002.289.323 40.137-.248.146-34.598 20.349zM16.148 69.909l34.168 19.362 33.853-19.909-.317-39.272-34.167-19.362-33.853 19.91.316 39.271z" fill="#000000"/></svg>