<svg viewBox="0 0 82 82" xmlns="http://www.w3.org/2000/svg"><path d="M56.556 6.556l18.888 18.888c8.591 8.591 8.591 22.52 0 31.112L56.556 75.444c-8.591 8.591-22.52 8.591-31.112 0L6.556 56.556c-8.591-8.591-8.591-22.52 0-31.112L25.444 6.556c8.591-8.591 22.52-8.591 31.112 0zm-2.121 2.122c-7.332-7.332-19.164-7.42-26.603-.262l-.267.262L8.678 27.565c-7.332 7.332-7.42 19.164-.262 26.603l.262.267 18.887 18.887c7.332 7.332 19.164 7.42 26.603.262l.267-.262 18.887-18.887c7.332-7.332 7.42-19.164.262-26.603l-.262-.267L54.435 8.678z" fill="#333"/></svg>