<svg xmlns="http://www.w3.org/2000/svg" viewBox="0 0 251.82 154.3"><path d="M114.84 111c-5.35-2-14.66 3.18-9.76 9.41 2 2.51 5 1.61 7.08.09a4.29 4.29 0 0 1 1.07 4.13 10.47 10.47 0 0 1-2.22 4.15c-7.6 9.62-21.31 15.8-32.6 8.93-9.62-5.85-15.29-16.39-24.79-22.42l-.82-.51c-8.69-5.13-21.1-11-31.4-9.65h-.13c-7.23.1-23.5 2.59-21 13.36 2 8.52 13.24 7.54 15.7-.14a1.4 1.4 0 0 0 0-1.2c-.17-.24-.46-.36-.66-.58a1.86 1.86 0 0 1-.35-1c-.27-2-.51-4.13.61-5.76a5.36 5.36 0 0 1 2.27-1.81 13.5 13.5 0 0 1 6.12-.83c5.85.25 11.19 1.9 16.58 4.06.87.35 1.73.71 2.58 1.07a61.87 61.87 0 0 1 14.26 10.2 21.94 21.94 0 0 0-5-1.44c-3.56-.6-7.44-.26-10.38 1.83s-4.59 6.2-3.08 9.48c1.17 2.55 3.9 4 6.64 4.69 1.68.39 3.65.44 4.94-.71s1.05-3.81-.66-4.12c-.44-.08-.9 0-1.34-.09-1.45-.33-1.64-2.56-.58-3.61s2.7-1.18 4.19-1.11a17.37 17.37 0 0 1 4.3.67 25.81 25.81 0 0 1 4.1 1.81l8.81 4.51c10.88 9.55 24.64 16 38.93 8.06 6.49-3.59 11.8-10.05 12.9-17.52.85-5.34-.75-11.89-6.31-13.95z" fill="#000000"/><path d="M37.61 108a25.59 25.59 0 0 0 2.72 1.13c-.83-.41-1.65-.84-2.44-1.33zM85.22 114.72a13.43 13.43 0 0 0-7.48-3.42 47.61 47.61 0 0 0-8.36-.23c-4.14.11-8.28.06-12.42 0-5.6 0-11.39-.17-16.63-2a42.32 42.32 0 0 0 15.45 3.69c6.24.45 12.51.15 18.75.59a8.36 8.36 0 0 1 4 1 3.06 3.06 0 0 1 1.39 3.65 11.16 11.16 0 0 1-1.48 1.84c-1.67 2.23-.06 5.89 2.65 6.56s5.63-1.36 6.42-4a8 8 0 0 0-2.29-7.68zM130.62 125c1.1 7.47 6.41 13.93 12.9 17.52 14.29 7.92 28 1.49 38.93-8.06l8.81-4.51a25.81 25.81 0 0 1 4.1-1.81 17.37 17.37 0 0 1 4.3-.67c1.49-.07 3.14.06 4.19 1.11s.87 3.28-.58 3.61c-.44.1-.9 0-1.34.09-1.71.31-2 3-.66 4.12s3.26 1.1 4.94.71c2.74-.64 5.47-2.14 6.64-4.69 1.51-3.28-.13-7.4-3.08-9.48s-6.82-2.43-10.38-1.83a21.71 21.71 0 0 0-4.94 1.44 61.6 61.6 0 0 1 14.25-10.18c.85-.36 1.71-.72 2.58-1.07 5.39-2.16 10.73-3.81 16.58-4.06a13.5 13.5 0 0 1 6.14.76 5.3 5.3 0 0 1 2.31 1.81c1.12 1.63.89 3.8.61 5.76a1.86 1.86 0 0 1-.35 1c-.2.22-.49.34-.66.58a1.43 1.43 0 0 0 0 1.2c2.46 7.68 13.73 8.66 15.7.14 2.48-10.77-13.78-13.26-21-13.36h-.13c-10.3-1.34-22.71 4.52-31.4 9.65l-.82.51c-9.49 6-15.17 16.57-24.79 22.42-11.28 6.87-25 .69-32.6-8.93a10.47 10.47 0 0 1-2.22-4.15 4.29 4.29 0 0 1 1.07-4.13c2.1 1.52 5.11 2.42 7.08-.09 4.9-6.23-4.41-11.4-9.76-9.41-5.62 2.06-7.21 8.61-6.42 14z" fill="#000000"/><path d="M214.21 108a24 24 0 0 1-2.72 1.13 27.35 27.35 0 0 0 2.44-1.33zM166.6 114.72a13.43 13.43 0 0 1 7.48-3.42 47.61 47.61 0 0 1 8.36-.23c4.14.11 8.28.06 12.42 0 5.61 0 11.4-.17 16.63-2a42.27 42.27 0 0 1-15.44 3.69c-6.24.45-12.52.15-18.76.59a8.36 8.36 0 0 0-4 1 3.07 3.07 0 0 0-1.36 3.61 11.09 11.09 0 0 0 1.47 1.84c1.67 2.23.06 5.89-2.65 6.56s-5.63-1.36-6.42-4a8 8 0 0 1 2.27-7.64zM135.64 126.26a.61.61 0 0 0-.67.13 30.69 30.69 0 0 0-6.79 9.09 46.28 46.28 0 0 0-2.61 4.87A20.36 20.36 0 0 0 121 131c-1.27-2.17-2.9-4.28-5.55-4.11-.85.06-.86 1.39 0 1.33h.14a1.7 1.7 0 0 0-.22 2.86 16.82 16.82 0 0 1 6.29 10.24c-5.07 3.19-3.87 13 3.67 13 7.32 0 8.67-9.25 4.05-12.69a43.45 43.45 0 0 1 8.76-12.25c1.71-1.72-.68-4.31-2.5-3.12zM137 43.31c5.35 2 14.66-3.18 9.76-9.42-2-2.51-5-1.61-7.08-.09a4.29 4.29 0 0 1-1.07-4.13 10.43 10.43 0 0 1 2.22-4.14c7.6-9.63 21.32-15.8 32.6-8.94C183 22.44 188.71 33 198.2 39l.82.5c8.69 5.13 21.1 11 31.4 9.65h.13c7.24-.11 23.5-2.6 21-13.36-2-8.53-13.24-7.55-15.7.14a1.41 1.41 0 0 0 0 1.19c.17.24.46.37.66.59a1.86 1.86 0 0 1 .35 1c.28 2 .51 4.12-.61 5.76a5.37 5.37 0 0 1-2.25 1.82 13.64 13.64 0 0 1-6.12.83c-5.85-.26-11.19-1.91-16.58-4.06q-1.3-.52-2.6-1.06a61.3 61.3 0 0 1-14.25-10.2 21.73 21.73 0 0 0 4.94 1.45c3.56.59 7.44.25 10.38-1.83s4.59-6.21 3.08-9.48c-1.17-2.55-3.9-4.06-6.64-4.69-1.68-.39-3.65-.45-4.94.7s-1.05 3.82.66 4.12c.44.08.9 0 1.34.09 1.45.33 1.64 2.57.58 3.62s-2.7 1.17-4.19 1.11a17.38 17.38 0 0 1-4.3-.68 24.93 24.93 0 0 1-4.1-1.81l-8.81-4.51c-10.88-9.55-24.64-16-38.93-8.06-6.49 3.59-11.8 10-12.9 17.52-.79 5.34.8 11.89 6.38 13.96z" fill="#000000"/><path d="M214.21 46.34a22.21 22.21 0 0 0-2.72-1.12 25 25 0 0 1 2.44 1.33zM166.6 39.58a13.51 13.51 0 0 0 7.48 3.42 47.61 47.61 0 0 0 8.36.22c4.14-.1 8.28-.06 12.42 0 5.61.06 11.4.17 16.63 2a42.28 42.28 0 0 0-15.44-3.7c-6.24-.45-12.52-.14-18.76-.59a8.14 8.14 0 0 1-4-1 3.06 3.06 0 0 1-1.36-3.6 10.7 10.7 0 0 1 1.47-1.84c1.67-2.24.06-5.9-2.65-6.56s-5.63 1.36-6.42 4a8 8 0 0 0 2.27 7.65zM121.2 29.35c-1.1-7.47-6.41-13.93-12.9-17.52-14.29-7.92-28-1.49-38.93 8.06l-8.81 4.51a24.93 24.93 0 0 1-4.1 1.81 17.38 17.38 0 0 1-4.3.68C50.67 27 49 26.83 48 25.78s-.87-3.29.58-3.62c.44-.1.9 0 1.34-.09 1.71-.3 2-3 .66-4.12s-3.26-1.09-4.94-.7c-2.74.63-5.47 2.14-6.64 4.69-1.51 3.27.14 7.4 3.08 9.48s6.82 2.42 10.38 1.83a22 22 0 0 0 5-1.45A61.57 61.57 0 0 1 43.12 42q-1.27.56-2.58 1.08c-5.39 2.15-10.73 3.8-16.58 4.06a13.64 13.64 0 0 1-6.12-.83 5.43 5.43 0 0 1-2.31-1.81c-1.12-1.64-.88-3.8-.61-5.76a1.86 1.86 0 0 1 .35-1c.2-.22.49-.35.66-.59a1.38 1.38 0 0 0 0-1.19c-2.46-7.69-13.73-8.67-15.7-.14C-2.23 46.55 14 49 21.27 49.15h.13c10.3 1.34 22.71-4.52 31.4-9.65l.82-.5c9.5-6 15.17-16.58 24.79-22.43 11.29-6.86 25-.69 32.6 8.94a10.43 10.43 0 0 1 2.22 4.14 4.29 4.29 0 0 1-1.07 4.13c-2.1-1.52-5.11-2.42-7.08.09-4.9 6.24 4.41 11.4 9.76 9.42 5.56-2.05 7.16-8.6 6.36-13.94z" fill="#000000"/><path d="M37.61 46.34a23.59 23.59 0 0 1 2.72-1.12 26.24 26.24 0 0 0-2.44 1.33zM85.22 39.58A13.51 13.51 0 0 1 77.74 43a47.61 47.61 0 0 1-8.36.22c-4.14-.1-8.28-.06-12.42 0-5.6.06-11.39.17-16.63 2a42.34 42.34 0 0 1 15.45-3.7c6.24-.45 12.51-.14 18.75-.59a8.14 8.14 0 0 0 4-1 3 3 0 0 0 1.37-3.6 10.76 10.76 0 0 0-1.48-1.84c-1.67-2.24-.06-5.9 2.65-6.56s5.63 1.36 6.42 4a8 8 0 0 1-2.27 7.65zM116.18 28a.62.62 0 0 0 .68-.13 30.78 30.78 0 0 0 6.78-9.08 46.42 46.42 0 0 0 2.61-4.79 20.36 20.36 0 0 0 4.54 9.32c1.27 2.18 2.9 4.29 5.56 4.11.85-.06.85-1.39 0-1.33h-.15a1.69 1.69 0 0 0 .22-2.86A16.84 16.84 0 0 1 130.17 13c5.07-3.2 3.87-13-3.66-13-7.33 0-8.68 9.25-4.06 12.69A43.64 43.64 0 0 1 113.69 25c-1.69 1.64.67 4.24 2.49 3z" fill="#000000"/></svg>