<svg viewBox="0 0 65 65" xmlns="http://www.w3.org/2000/svg"><path d="M29.969 4.238l.44-.04V0l-.52.042c-8.113.65-15.645 4.31-21.21 10.309A32.385 32.385 0 0 0 0 32.444a32.389 32.389 0 0 0 8.678 22.093c5.564 5.997 13.098 9.658 21.21 10.309l.52.041v-4.214l-.44-.04c-7.007-.622-13.507-3.835-18.304-9.047A28.226 28.226 0 0 1 4.18 32.429c0-7.11 2.66-13.91 7.485-19.15C16.46 8.07 22.96 4.859 29.97 4.238m26.352 6.113C50.758 4.353 43.224.69 35.112.04L34.593 0v4.198l.44.04c7.007.622 13.507 3.836 18.304 9.048a28.225 28.225 0 0 1 7.483 19.157c0 7.109-2.658 13.912-7.483 19.157-4.796 5.213-11.296 8.426-18.304 9.048l-.44.039v4.198l.52-.042c8.113-.65 15.645-4.311 21.21-10.309A32.39 32.39 0 0 0 65 32.441a32.387 32.387 0 0 0-8.678-22.092" fill="#000" fill-rule="nonzero"/></svg>