<svg xmlns="http://www.w3.org/2000/svg" viewBox="0 0 110.87 139.79"><path d="M84.28 16.52A172.83 172.83 0 0 1 55.43 0a172.83 172.83 0 0 1-28.85 16.52C11.81 22.94 0 23.55 0 23.55v49c0 13.45 2.1 28.09 19.29 44.6a104.61 104.61 0 0 0 36.14 22.64 104.7 104.7 0 0 0 36.15-22.64c17.18-16.51 19.29-31.2 19.29-44.65V23.55s-11.81-.61-26.59-7.03zM45 18.47q-5.41 3.39-11.15 6.28a94.34 94.34 0 0 1-11.87 5 90.84 90.84 0 0 1-11.26 3c0 3 0 6-.11 9-.05 3.41-.15 6.83-.27 10.24s-.26 6.82-.43 10.24-.38 6.82-.67 10.23c-.3-3.41-.5-6.82-.68-10.23s-.35-6.8-.45-10.23-.22-6.83-.26-10.24-.12-6.76-.13-10.22v-1.21l1.21-.25A118.44 118.44 0 0 0 21 26.91a122.14 122.14 0 0 0 11.72-4.46c3.86-1.65 7.65-3.49 11.43-5.38s7.5-3.9 11.24-5.91A124.47 124.47 0 0 1 45 18.47zm56.8 63.93a38.56 38.56 0 0 1-2.15 9.79 43.79 43.79 0 0 1-4.55 9 64.19 64.19 0 0 1-6.3 7.81 88.76 88.76 0 0 1-7.36 6.76 82 82 0 0 1-8.1 5.77 75.48 75.48 0 0 1-17.91 8.36A141.7 141.7 0 0 0 72 119.6a108.08 108.08 0 0 0 14.58-12.66 55.33 55.33 0 0 0 10.85-15.63 44.69 44.69 0 0 0 2.88-9.13 90.36 90.36 0 0 0 1.34-9.69 53.74 53.74 0 0 1 .13 9.91z" fill="#000000"/></svg>