<svg xmlns="http://www.w3.org/2000/svg" viewBox="0 0 92.23 68.69"><path d="M78.8 21.59a.57.57 0 0 0-.15-.24.7.7 0 0 0-.3-.17.91.91 0 0 0-.47 0 1.19 1.19 0 0 0-.28.1.86.86 0 0 0-.25.22 1.28 1.28 0 0 0-.26.68 1.61 1.61 0 0 0 .16.82 2.29 2.29 0 0 0 .58.7 3.63 3.63 0 0 0 .78.48 5.83 5.83 0 0 0 2.88.54 5.35 5.35 0 0 0 1-.16 7.51 7.51 0 0 0 1-.33c.62-.25 1.18-.55 1.7-.81a9.62 9.62 0 0 1 1.4-.6 3.4 3.4 0 0 1 2.83.27 4.86 4.86 0 0 1 .87.62l.2.19.07.06a.31.31 0 0 1 0-.09 1.86 1.86 0 0 0-.07-.28 2.73 2.73 0 0 0-.6-1.06 3.28 3.28 0 0 0-.78-.65 3.61 3.61 0 0 0-1.24-.47 4.08 4.08 0 0 0-1.62.07 7.67 7.67 0 0 0-1.7.64c-.55.28-1.09.59-1.61.84-.27.13-.53.24-.79.34a5.3 5.3 0 0 1-2.46.24 4 4 0 0 1-.78-.17 3.21 3.21 0 0 1-.68-.27 1.73 1.73 0 0 1-.48-.4 1.12 1.12 0 0 1-.21-.52.88.88 0 0 1 .08-.49.83.83 0 0 1 .13-.18.72.72 0 0 1 .19-.11.88.88 0 0 1 .38-.07.82.82 0 0 1 .29.09.46.46 0 0 1 .19.17z" fill="#000000"/><path d="M75 22.1a.61.61 0 0 1 0-.26.56.56 0 0 1 .1-.3.88.88 0 0 1 .3-.31 1.29 1.29 0 0 1 .51-.19 1.08 1.08 0 0 1 .63.07.93.93 0 0 1 .47.55 1.29 1.29 0 0 1 .08.4 1.53 1.53 0 0 1 0 .42 1.42 1.42 0 0 1-.07.22 1.89 1.89 0 0 1-.09.21 1.7 1.7 0 0 1-.27.39 1.64 1.64 0 0 1-.37.32 2.28 2.28 0 0 1-.47.23 3.45 3.45 0 0 1-1.08.2 8.18 8.18 0 0 1-1.2-.06 16.65 16.65 0 0 1-5.26-1.51 16 16 0 0 1-2.64-1.58 17.42 17.42 0 0 1-2.42-2.15c-.77-.81-1.51-1.67-2.28-2.55a29.46 29.46 0 0 0-2.46-2.55 12.8 12.8 0 0 0-3-2.08 8.22 8.22 0 0 0-3.59-.9 7.08 7.08 0 0 0-3.55 1 7.3 7.3 0 0 0-2.57 2.55 7 7 0 0 0-.77 1.63v.21a1.55 1.55 0 0 0 0 .21c0 .14 0 .29-.08.43s-.05.56-.05.83a7.13 7.13 0 0 0 .65 3.09c0 .06.05.12.07.17l.09.17c.06.11.11.22.18.33a6.49 6.49 0 0 0 .41.61 6.12 6.12 0 0 0 .45.56c.08.09.17.17.25.25a2.83 2.83 0 0 0 .25.24 7.49 7.49 0 0 0 2.25 1.34 9.37 9.37 0 0 0 2.26.57 12.41 12.41 0 0 0 2.08.08h.95c.3 0 .6-.08.88-.13a6.41 6.41 0 0 0 1.55-.5 3.77 3.77 0 0 0 1.16-.84 1.57 1.57 0 0 0 .2-.25 1.51 1.51 0 0 0 .18-.26 2.63 2.63 0 0 0 .2-.55 2.67 2.67 0 0 0 .06-1 2.45 2.45 0 0 0-.25-.75 1.52 1.52 0 0 0-.71-.71l-.13-.06h-.17.16l.13.07a1.51 1.51 0 0 1 .62.73 2.11 2.11 0 0 1 .18.72 2.34 2.34 0 0 1-.11.92 2.5 2.5 0 0 1-.21.48 1.63 1.63 0 0 1-.17.22 2 2 0 0 1-.2.22 3.49 3.49 0 0 1-1.09.71 8.85 8.85 0 0 1-3.24.54 11.46 11.46 0 0 1-2-.13 9.74 9.74 0 0 1-2.12-.58 7.09 7.09 0 0 1-2-1.27l-.22-.22a2.34 2.34 0 0 1-.22-.23 5.37 5.37 0 0 1-.41-.51c-.13-.17-.24-.36-.36-.55l-.15-.3-.08-.15-.24-.22a6.54 6.54 0 0 1-.38-1.34 5.88 5.88 0 0 1-.14-1.46 4.73 4.73 0 0 1 .05-.75l.06-.38a1.21 1.21 0 0 1 0-.18v-.19a6.37 6.37 0 0 1 .61-1.46 6.66 6.66 0 0 1 2.3-2.3 6.31 6.31 0 0 1 3.19-.91 7.63 7.63 0 0 1 3.3.79A13 13 0 0 1 58 14.1a30.17 30.17 0 0 1 2.45 2.48c.77.85 1.53 1.71 2.33 2.51a18.29 18.29 0 0 0 2.53 2.17A17.88 17.88 0 0 0 68 22.81a16.65 16.65 0 0 0 5.39 1.41 8.49 8.49 0 0 0 1.23 0 3.79 3.79 0 0 0 1.14-.22 2.54 2.54 0 0 0 .49-.26 1.89 1.89 0 0 0 .67-.79 2.14 2.14 0 0 0 .1-.22 2 2 0 0 0 .06-.23 1.27 1.27 0 0 0-.59-1.46 1.13 1.13 0 0 0-.67-.06 1.36 1.36 0 0 0-.52.22.9.9 0 0 0-.3.32.67.67 0 0 0-.09.31.7.7 0 0 0 .09.27z" fill="#000000"/><path d="M52.69 18.44a.9.9 0 0 1 .1-.11 1.33 1.33 0 0 1 .49-.3 1.71 1.71 0 0 1 .9-.09 1.67 1.67 0 0 1 .54.19 1.74 1.74 0 0 1 .5.41 2.38 2.38 0 0 1 .54 1.38 2.69 2.69 0 0 1-.47 1.65 3.34 3.34 0 0 1-.64.72 3.52 3.52 0 0 1-.86.52 3.11 3.11 0 0 1-1 .24 3.33 3.33 0 0 1-1.08-.1 4.32 4.32 0 0 1-2-1.12 4.87 4.87 0 0 1-1.23-2.08 6.58 6.58 0 0 1-.27-2.51 6.94 6.94 0 0 1 .21-1.29c.06-.2.12-.41.2-.61a5.23 5.23 0 0 1 .29-.58 3.1 3.1 0 0 1 .86-.94 3 3 0 0 1 1.18-.5 4.36 4.36 0 0 1 1.3-.07 5.7 5.7 0 0 1 1.29.27 7.5 7.5 0 0 1 1.2.52 11.56 11.56 0 0 1 1.1.72 13.38 13.38 0 0 1 1.89 1.79q.44.48.81 1l.76 1c.49.64 1 1.25 1.43 1.81a12.33 12.33 0 0 0 3 2.71 5.41 5.41 0 0 0 1.63.67 4.65 4.65 0 0 0 .82.08 3.25 3.25 0 0 0 .77-.09 3.19 3.19 0 0 0 1.27-.73 2.56 2.56 0 0 0 .71-1v-.28a.59.59 0 0 0 0-.13v-.14a1.28 1.28 0 0 0 0-.52 1.87 1.87 0 0 0-.43-.8 2 2 0 0 0-1.15-.65 1.35 1.35 0 0 0-.45 0 1.54 1.54 0 0 0-.3.09 1 1 0 0 0-.16.09h-.05.05l.17-.08a2.28 2.28 0 0 1 .3-.07 1.32 1.32 0 0 1 .43 0 1.88 1.88 0 0 1 1.08.67 1.76 1.76 0 0 1 .37.75 1.28 1.28 0 0 1 0 .48v.5a2.34 2.34 0 0 1-.68.91 2.86 2.86 0 0 1-1.17.58 2.76 2.76 0 0 1-.71.08 3.38 3.38 0 0 1-.76-.1 5.08 5.08 0 0 1-1.54-.65 9.49 9.49 0 0 1-1.47-1.15A17.34 17.34 0 0 1 61 20c-.47-.56-.93-1.17-1.42-1.8-.24-.32-.49-.65-.75-1s-.54-.66-.83-1a14 14 0 0 0-1.94-1.82 9.87 9.87 0 0 0-1.15-.75 7.13 7.13 0 0 0-1.27-.54 6.32 6.32 0 0 0-1.36-.28 4.7 4.7 0 0 0-1.4.08 3.4 3.4 0 0 0-1.29.57 3.34 3.34 0 0 0-.94 1 3.64 3.64 0 0 0-.3.63 3.79 3.79 0 0 0-.21.65 6.8 6.8 0 0 0-.14 1.44 6.94 6.94 0 0 0 .31 2.61 5.23 5.23 0 0 0 1.32 2.15 4.5 4.5 0 0 0 2.1 1.15 3.67 3.67 0 0 0 1.14.09 3.2 3.2 0 0 0 1.06-.28 3.5 3.5 0 0 0 .89-.55 3.8 3.8 0 0 0 .65-.75 2.85 2.85 0 0 0 .45-1.73 2.41 2.41 0 0 0-.58-1.41 1.85 1.85 0 0 0-.52-.41 1.48 1.48 0 0 0-.55-.18 1.75 1.75 0 0 0-.92.1 1.41 1.41 0 0 0-.48.32.47.47 0 0 0-.1.11z" fill="#000000"/><path d="M62.55 12.8a.26.26 0 0 0 0-.1.43.43 0 0 0-.06-.31.53.53 0 0 0-.41-.27.91.91 0 0 0-.65.19 1.67 1.67 0 0 0-.54.65 2.22 2.22 0 0 0 .13 2l.09.13.09.12a2.34 2.34 0 0 0 .23.22 2 2 0 0 0 .57.33 2.5 2.5 0 0 0 1.36.07 2.36 2.36 0 0 0 .66-.27 2 2 0 0 0 .59-.46 2.17 2.17 0 0 0 .23-.3 2.91 2.91 0 0 0 .18-.35 2.44 2.44 0 0 0 .19-.75 3.09 3.09 0 0 0-.21-1.48 3.6 3.6 0 0 0-.39-.69 3.41 3.41 0 0 0-.56-.58 4.08 4.08 0 0 0-1.38-.73 5.11 5.11 0 0 0-.75-.18 5 5 0 0 0-.76-.06 5.41 5.41 0 0 0-1.5.18 4 4 0 0 0-1.31.62 3 3 0 0 0-.52.49l-.2.28-.09.15c0 .05 0 .1-.07.16a2.08 2.08 0 0 0-.19.63 4 4 0 0 0-.05.59v1.05a6.91 6.91 0 0 0 .54 1.73 9.51 9.51 0 0 0 .68 1.22 10.53 10.53 0 0 0 1.07 1.38c.12.14.22.24.28.3l.09.09-.06-.11-.22-.34c-.19-.32-.49-.8-.85-1.5a12.55 12.55 0 0 1-.53-1.23 7.94 7.94 0 0 1-.4-1.63v-.94a2.63 2.63 0 0 1 .21-1 .53.53 0 0 1 .06-.1l.06-.11.16-.21a2.25 2.25 0 0 1 .39-.36 3.41 3.41 0 0 1 1.09-.5 4.56 4.56 0 0 1 1.29-.16 3.77 3.77 0 0 1 .67 0 4.69 4.69 0 0 1 .65.14 3.4 3.4 0 0 1 1.17.59 2.45 2.45 0 0 1 .46.45 2.81 2.81 0 0 1 .34.55 2.66 2.66 0 0 1 .25 1.23 2.07 2.07 0 0 1-.13.61c0 .09-.08.18-.12.27s-.11.17-.17.24a1.9 1.9 0 0 1-.45.4 2.17 2.17 0 0 1-.54.24 2 2 0 0 1-1.13 0 1.28 1.28 0 0 1-.48-.24.82.82 0 0 1-.2-.17.43.43 0 0 1-.09-.1.39.39 0 0 1-.08-.1 1.92 1.92 0 0 1-.34-.93 1.86 1.86 0 0 1 .12-.89 1.64 1.64 0 0 1 .45-.63.86.86 0 0 1 .57-.22.5.5 0 0 1 .48.51.39.39 0 0 1 .03.19zM82.17 19.31l-.09-.09a1.36 1.36 0 0 0-.41-.28 1.79 1.79 0 0 0-.79-.16 2.28 2.28 0 0 0-1 .27 2.1 2.1 0 0 0-.5.4 1.61 1.61 0 0 0-.36.62 1.05 1.05 0 0 0 0 .19v.19a1.7 1.7 0 0 0 0 .39 2.13 2.13 0 0 0 .22.8 2.53 2.53 0 0 0 1.3 1.23 2.43 2.43 0 0 0 2-.12A3 3 0 0 0 84 21.2a3.71 3.71 0 0 0 .09-2.26 5.87 5.87 0 0 0-1-2.09l-.18-.24-.19-.23-.1-.11-.11-.1-.21-.22a9.83 9.83 0 0 0-.93-.75A8.54 8.54 0 0 0 79 14.1l-.28-.1-.29-.08-.59-.14h-.3l-.3-.05c-.2 0-.4 0-.6-.06a17.16 17.16 0 0 0-4.66.31 26 26 0 0 0-4 1.06 15.33 15.33 0 0 0-3.17 1.54 12.33 12.33 0 0 0-1.21.92 6 6 0 0 0-.51.49c-.17.15-.31.32-.46.48a8.91 8.91 0 0 0-1.25 1.89 7 7 0 0 0-.58 1.58 2.17 2.17 0 0 0-.07.33 1.71 1.71 0 0 0 0 .3v.27a1.94 1.94 0 0 0 0 .24v.87-.48l.06-.38a7.51 7.51 0 0 1 1-2.56A9.6 9.6 0 0 1 63 18.77l.45-.45c.16-.14.33-.29.51-.43a9.84 9.84 0 0 1 1.18-.83 15.54 15.54 0 0 1 3.06-1.41 30.29 30.29 0 0 1 4-1 17.62 17.62 0 0 1 4.48-.33l.56.06h.28l.28.05c.19 0 .37.08.55.12l.28.07.26.08a7.85 7.85 0 0 1 2 .95A6.09 6.09 0 0 1 83.42 19a3.86 3.86 0 0 1 .15 1 2.8 2.8 0 0 1-.16 1 2.71 2.71 0 0 1-1.23 1.39 2.13 2.13 0 0 1-1.7.17 2.36 2.36 0 0 1-1.2-1.06 2.42 2.42 0 0 1-.23-.72 2.17 2.17 0 0 1 0-.36v-.17-.17a1.63 1.63 0 0 1 .76-1 2.09 2.09 0 0 1 1-.3 1.73 1.73 0 0 1 .77.12 1.48 1.48 0 0 1 .42.25l.1.09z" fill="#000000"/><path d="M71.57 17.92l.05.11a1.07 1.07 0 0 1 0 .33 1 1 0 0 1-.22.48 2.66 2.66 0 0 1-.24.23 2.55 2.55 0 0 1-.33.17 1.61 1.61 0 0 1-.85 0 2.53 2.53 0 0 1-.9-.42A3.62 3.62 0 0 1 67.77 17a3.54 3.54 0 0 1-.14-1.3 3 3 0 0 1 .37-1.33 2.56 2.56 0 0 1 1-.93l.32-.16.34-.11a2.75 2.75 0 0 1 .7-.1 3.52 3.52 0 0 1 1.42.27 4.94 4.94 0 0 1 1.27.75 5.17 5.17 0 0 1 1 1.07 3.81 3.81 0 0 1 .37.61 3 3 0 0 1 .25.65 4.85 4.85 0 0 1 .18 1.34 6.51 6.51 0 0 1-.08 1.24 6.16 6.16 0 0 1-.8 2.06c-.08.14-.18.27-.27.4l-.3.36a4.14 4.14 0 0 1-.64.56 3.52 3.52 0 0 1-1.28.58H70.4a4.3 4.3 0 0 1-.75-.11h-.56l.12.06.17.09.11.05.13.05a4.54 4.54 0 0 0 .75.23h1.17a3.6 3.6 0 0 0 1.5-.52 4.78 4.78 0 0 0 1.11-1c.11-.14.23-.28.33-.43a6.47 6.47 0 0 0 1-2.26 7 7 0 0 0 .17-1.4 5.64 5.64 0 0 0-.2-1.55 3.92 3.92 0 0 0-.3-.78 4.39 4.39 0 0 0-.44-.71 6 6 0 0 0-1.17-1.19 5.56 5.56 0 0 0-1.54-.77 4.33 4.33 0 0 0-1.68-.27 3.46 3.46 0 0 0-.84.16c-.14 0-.26.1-.39.15l-.38.19a3.3 3.3 0 0 0-.65.52 3 3 0 0 0-.49.65 3.59 3.59 0 0 0-.3.74 4.08 4.08 0 0 0-.11.77 3.77 3.77 0 0 0 .23 1.43A3.86 3.86 0 0 0 69 19a2.8 2.8 0 0 0 1 .4 1.73 1.73 0 0 0 .92-.09 2.19 2.19 0 0 0 .34-.21 1.89 1.89 0 0 0 .24-.26 1 1 0 0 0 .2-.51.76.76 0 0 0 0-.34zM47.87 5.72h-.07a.26.26 0 0 0-.18.1.4.4 0 0 0-.1.32.53.53 0 0 0 .3.36.79.79 0 0 0 .26.08h.3a1.41 1.41 0 0 0 .64-.2 1.76 1.76 0 0 0 .56-.53 1.61 1.61 0 0 0 .3-.8 1.45 1.45 0 0 0-.24-.92 2 2 0 0 0-.32-.38 1.77 1.77 0 0 0-.43-.28 2 2 0 0 0-1-.22 2.26 2.26 0 0 0-1 .32 2.86 2.86 0 0 0-.8.71 3.07 3.07 0 0 0-.49 1 4.7 4.7 0 0 0-.15 2A5.94 5.94 0 0 0 45.91 9a4.35 4.35 0 0 0 .9 1.23 3.47 3.47 0 0 0 1 .68 3.52 3.52 0 0 0 1 .23 2.69 2.69 0 0 0 .72 0A2.45 2.45 0 0 0 50 11l.14-.07.1-.05.08-.05h-.35a2.12 2.12 0 0 1-.46 0 3.18 3.18 0 0 1-2.26-1.03 4.09 4.09 0 0 1-.71-1.1 5.51 5.51 0 0 1-.42-1.53 4.33 4.33 0 0 1 .09-1.72 2.71 2.71 0 0 1 .36-.77 2.36 2.36 0 0 1 .6-.58 1.72 1.72 0 0 1 .74-.28 1.6 1.6 0 0 1 .78.11 1.35 1.35 0 0 1 .33.19 1.11 1.11 0 0 1 .27.26 1.41 1.41 0 0 1 .17.32V4.87a.91.91 0 0 1 0 .17 1.21 1.21 0 0 1-.18.67 1.53 1.53 0 0 1-.43.48 1.21 1.21 0 0 1-.54.23h-.21a1.05 1.05 0 0 1-.24-.06.45.45 0 0 1-.28-.26.34.34 0 0 1 .06-.29.29.29 0 0 1 .16-.11zM52.34 21.23a.24.24 0 0 0 .13-.13 1 1 0 0 0 .08-.23 3.22 3.22 0 0 0 .05-.66v-.95a2.48 2.48 0 0 1 .28-1.05 4.22 4.22 0 0 0-.41.43 3 3 0 0 0-.35.5 2.38 2.38 0 0 0-.32 1.06 1.48 1.48 0 0 0 .2.8.59.59 0 0 0 .18.2.24.24 0 0 0 .16.03zM51.13 16.67c.1-.07.09-.25.08-.49a4.47 4.47 0 0 1 0-.86c0-.17.06-.36.11-.58a3.17 3.17 0 0 1 .25-.66 1.92 1.92 0 0 1 .46-.6.89.89 0 0 1 .67-.23 1 1 0 0 0-.4-.05 1.3 1.3 0 0 0-.43.11 2.37 2.37 0 0 0-.71.49 3.19 3.19 0 0 0-.52.67 2.09 2.09 0 0 0-.24.73 1.71 1.71 0 0 0 .22 1.19.8.8 0 0 0 .27.26.19.19 0 0 0 .24.02z" fill="#000000"/><path d="M52.37 15.21a.37.37 0 0 0 .28-.24 1.47 1.47 0 0 0 .13-.49 2.79 2.79 0 0 0 0-.29 1.94 1.94 0 0 1 0-.33 1 1 0 0 1 .22-.36.62.62 0 0 1 .3-.23 1 1 0 0 0-.45.07 1.23 1.23 0 0 0-.42.26 1.4 1.4 0 0 0-.3.4 1.13 1.13 0 0 0-.12.4 1.06 1.06 0 0 0 .11.6.36.36 0 0 0 .25.21zM49.05 5.16a.3.3 0 0 0-.13-.3.52.52 0 0 0-.45-.07.8.8 0 0 0-.47.41 1.9 1.9 0 0 0-.21.57.93.93 0 0 1 .51-.18 2 2 0 0 0 .37 0 .46.46 0 0 0 .23-.14.51.51 0 0 0 .15-.29zM54.29 9.65a.75.75 0 0 0 0 .67 1.45 1.45 0 0 0 .49.68 4.06 4.06 0 0 0 1.08.49 5 5 0 0 1 1.2.59c-.17-.42-.33-.89-.53-1.32a3 3 0 0 0-.71-1 1.54 1.54 0 0 0-.86-.35.7.7 0 0 0-.67.24zM58.36 8.12a.64.64 0 0 0-.66-.07 1.22 1.22 0 0 0-.63.62A2.13 2.13 0 0 0 57 9.89c.08.45.24.88.31 1.22a3.83 3.83 0 0 1 .66-1 3.59 3.59 0 0 0 .58-.73 1.14 1.14 0 0 0 .11-.67.82.82 0 0 0-.3-.59zM62.85 8.24a.71.71 0 0 0-.52-.48 1.91 1.91 0 0 0-1 0 3.49 3.49 0 0 0-1.18.86c-.38.38-.73.82-1 1.12a7.69 7.69 0 0 1 1.5-.24 5.9 5.9 0 0 0 1.25-.17 1.93 1.93 0 0 0 .79-.48.78.78 0 0 0 .16-.61zM82.1 21.33a.35.35 0 0 0 .24.08.51.51 0 0 0 .28-.09 1 1 0 0 0 .38-.72 1.39 1.39 0 0 0-.42-1 1.77 1.77 0 0 0-.45-.35 2.09 2.09 0 0 0-.44-.2 1.05 1.05 0 0 1 .19.42 1.28 1.28 0 0 1 0 .43v.19a.75.75 0 0 1 0 .16v.07a.25.25 0 0 1 0 .07.36.36 0 0 1 0 .11 1.08 1.08 0 0 0 .07.43 1.13 1.13 0 0 0 .11.22.55.55 0 0 0 .04.18zM77.57 15.74a.5.5 0 0 0 .1-.51 1.17 1.17 0 0 0-.5-.6 1.88 1.88 0 0 0-1.06-.17 7.42 7.42 0 0 0-1.06.23 2.46 2.46 0 0 1 .88.5c.25.2.43.4.6.51a1.3 1.3 0 0 0 .55.17.61.61 0 0 0 .49-.13zM45.42 0c-.17 0-.35.09-.49.32a1.89 1.89 0 0 0-.28.93 3.9 3.9 0 0 0 .23 1.35c.15.49.36 1 .48 1.37a9.37 9.37 0 0 1 .26-1.42 7 7 0 0 0 .26-1.21 2.52 2.52 0 0 0-.09-.9c-.07-.24-.2-.44-.37-.44zM45.38 10c-.22 0-.41.55-.41 1.23s.33 1.74.41 2.54a19.09 19.09 0 0 0 .42-2.54c0-.66-.19-1.23-.42-1.23zM45.19 24.21a.59.59 0 0 0 .42-.31 1.31 1.31 0 0 0 .18-.65 3.83 3.83 0 0 0-.17-.95 3.75 3.75 0 0 1-.14-1.07c-.19.31-.42.65-.6 1a2.44 2.44 0 0 0-.32 1 1.31 1.31 0 0 0 .18.74.52.52 0 0 0 .45.24zM59.05 19.67a.38.38 0 0 0-.06.26 1.23 1.23 0 0 0 .09.34 5.86 5.86 0 0 0 .43.8l.16.23.09.12.09.13.1.14.1.14.19.32a3 3 0 0 1 .41 1.46 6.23 6.23 0 0 0 .23-.8 4.21 4.21 0 0 0 .08-.87 3 3 0 0 0-.4-1.53 2 2 0 0 0-.88-.78.85.85 0 0 0-.39-.07.31.31 0 0 0-.24.11zM64.33 22.63a.3.3 0 0 0 .1-.25.68.68 0 0 0-.19-.38 1.15 1.15 0 0 0-.49-.31 1.71 1.71 0 0 0-.64-.09 2.08 2.08 0 0 0-.69.18 3 3 0 0 0-.69.42 2.44 2.44 0 0 0-.54.62 1.51 1.51 0 0 0-.19.7 1 1 0 0 1 .46-.49 1.92 1.92 0 0 1 .61-.17h1.1a4.77 4.77 0 0 0 .66-.07l.26-.05a.5.5 0 0 0 .24-.11zM71.46 16.18a.24.24 0 0 0-.08.16.88.88 0 0 0 0 .23c0 .18.06.39.11.62v.28a.43.43 0 0 0 0 .11v.48a1.82 1.82 0 0 1-.23 1 2.67 2.67 0 0 0 .4-.42 2.2 2.2 0 0 0 .32-.53 1.88 1.88 0 0 0 .31-1.11 1.24 1.24 0 0 0-.41-.74.64.64 0 0 0-.24-.13.19.19 0 0 0-.18.05zM76.36 11.32a.21.21 0 0 0-.17 0 .81.81 0 0 0-.2.14 3.8 3.8 0 0 0-.43.5c-.16.19-.31.48-.55.76a2.42 2.42 0 0 1-.85.65c.18 0 .38 0 .58-.08a3.22 3.22 0 0 0 .58-.18 2.29 2.29 0 0 0 .89-.65 1.44 1.44 0 0 0 .31-.76.56.56 0 0 0 0-.27c-.06-.05-.1-.1-.16-.11zM11.77 21.59a.75.75 0 0 1 .15-.24.85.85 0 0 1 .3-.17 1 1 0 0 1 .48 0 1 1 0 0 1 .27.1.86.86 0 0 1 .25.22 1.14 1.14 0 0 1 .26.68 1.51 1.51 0 0 1-.16.82 2.12 2.12 0 0 1-.57.7 3.89 3.89 0 0 1-.78.48 6.14 6.14 0 0 1-.88.33 5.78 5.78 0 0 1-2 .21 5.23 5.23 0 0 1-1-.16 7.51 7.51 0 0 1-1-.33c-.63-.25-1.18-.55-1.71-.81A9.62 9.62 0 0 0 4 22.8a3.53 3.53 0 0 0-1.14-.19 3.56 3.56 0 0 0-1.68.46 4.21 4.21 0 0 0-.87.62 2 2 0 0 0-.2.19l-.11.06a.62.62 0 0 1 0-.09 1.59 1.59 0 0 1 .06-.28 2.94 2.94 0 0 1 .61-1.06 3.21 3.21 0 0 1 .77-.65 3.77 3.77 0 0 1 1.24-.47 4.13 4.13 0 0 1 1.63.07A7.59 7.59 0 0 1 6 22.1c.56.28 1.09.59 1.62.84.26.13.53.24.79.34a5.34 5.34 0 0 0 .81.21 5.71 5.71 0 0 0 1.65 0 4.18 4.18 0 0 0 .78-.17 2.93 2.93 0 0 0 .67-.27 1.49 1.49 0 0 0 .48-.4 1.14 1.14 0 0 0 .22-.52.88.88 0 0 0-.08-.49.62.62 0 0 0-.14-.18.54.54 0 0 0-.18-.11.91.91 0 0 0-.38-.07.71.71 0 0 0-.29.09.7.7 0 0 0-.18.22z" fill="#000000"/><path d="M15.63 22.1a.9.9 0 0 0 0-.26.66.66 0 0 0-.1-.3 1 1 0 0 0-.3-.31 1.29 1.29 0 0 0-.51-.19 1.07 1.07 0 0 0-.63.07.9.9 0 0 0-.47.55 1.3 1.3 0 0 0-.09.4 1.55 1.55 0 0 0 0 .42 1.41 1.41 0 0 0 .06.22 2 2 0 0 0 .1.21 2 2 0 0 0 .26.39 2 2 0 0 0 .38.32 2.47 2.47 0 0 0 .46.23 3.51 3.51 0 0 0 1.09.2 8.31 8.31 0 0 0 1.2-.06 16.72 16.72 0 0 0 5.26-1.51 16.9 16.9 0 0 0 2.64-1.58 18.64 18.64 0 0 0 2.42-2.15c.77-.81 1.51-1.67 2.27-2.55a29.46 29.46 0 0 1 2.46-2.55 13.07 13.07 0 0 1 3-2.08 8.21 8.21 0 0 1 3.58-.9 7.11 7.11 0 0 1 3.56 1 7.38 7.38 0 0 1 2.57 2.55 7 7 0 0 1 .67 1.64l.06.21v.21l.07.43a7.91 7.91 0 0 1 .06.83 7.18 7.18 0 0 1-.17 1.62 6.66 6.66 0 0 1-.48 1.47c0 .06-.05.12-.08.17l.03.2-.18.33a6.49 6.49 0 0 1-.41.61c-.14.2-.3.38-.45.56s-.17.17-.25.25-.17.17-.26.24a7.57 7.57 0 0 1-2.24 1.34 9.44 9.44 0 0 1-2.27.57 12.33 12.33 0 0 1-2.08.08h-.94c-.31 0-.6-.08-.88-.13a6.49 6.49 0 0 1-1.56-.5 3.72 3.72 0 0 1-1.15-.84 2.52 2.52 0 0 1-.21-.25 2.33 2.33 0 0 1-.17-.26 2.68 2.68 0 0 1-.21-.55 2.65 2.65 0 0 1-.05-1 2.21 2.21 0 0 1 .24-.75 1.54 1.54 0 0 1 .72-.71.75.75 0 0 1 .13-.06H32.95 32.78l-.12.07a1.52 1.52 0 0 0-.63.73 2.38 2.38 0 0 0-.17.72 2.52 2.52 0 0 0 .1.92 2.05 2.05 0 0 0 .22.48c.05.07.1.15.16.22l.2.22a3.74 3.74 0 0 0 1.09.71 8.91 8.91 0 0 0 3.25.54 11.35 11.35 0 0 0 2-.13 9.59 9.59 0 0 0 2.12-.68 7 7 0 0 0 2-1.27 2.44 2.44 0 0 0 .23-.22l.22-.23a4.09 4.09 0 0 0 .4-.51 4 4 0 0 0 .36-.55c.06-.1.11-.2.16-.3l.08-.15.07-.16A6.54 6.54 0 0 0 45 19a5.88 5.88 0 0 0 .14-1.46c0-.25 0-.5-.05-.75l-.09-.38a1.16 1.16 0 0 0 0-.18v-.19a5.92 5.92 0 0 0-.6-1.46 6.61 6.61 0 0 0-2.4-2.3 6.25 6.25 0 0 0-3.19-.91 7.66 7.66 0 0 0-3.3.79 12.94 12.94 0 0 0-2.87 1.94 30.17 30.17 0 0 0-2.45 2.48c-.78.85-1.54 1.71-2.33 2.51a18.29 18.29 0 0 1-2.53 2.17 17.88 17.88 0 0 1-2.74 1.55 16.78 16.78 0 0 1-5.39 1.41 8.49 8.49 0 0 1-1.23 0 3.86 3.86 0 0 1-1.16-.22 2.87 2.87 0 0 1-.49-.26 1.67 1.67 0 0 1-.39-.36 1.77 1.77 0 0 1-.28-.43 2 2 0 0 1-.09-.22 2 2 0 0 1-.06-.23 1.26 1.26 0 0 1 .59-1.46 1.13 1.13 0 0 1 .67-.06 1.25 1.25 0 0 1 .51.22 1 1 0 0 1 .31.32.82.82 0 0 1 .09.31 1.11 1.11 0 0 1-.04.27z" fill="#000000"/><path d="M37.89 18.44a.47.47 0 0 0-.1-.11 1.28 1.28 0 0 0-.48-.3 1.71 1.71 0 0 0-1.94.51 2.31 2.31 0 0 0-.54 1.38 2.69 2.69 0 0 0 .47 1.65 3.29 3.29 0 0 0 .63.72 3.94 3.94 0 0 0 .86.52 3.23 3.23 0 0 0 1 .24 3.36 3.36 0 0 0 1.09-.1 4.29 4.29 0 0 0 2-1.12 5 5 0 0 0 1.24-2.08 6.79 6.79 0 0 0 .27-2.51 7.89 7.89 0 0 0-.21-1.29c-.06-.2-.13-.41-.21-.61a3.92 3.92 0 0 0-.29-.58 3 3 0 0 0-.85-.94 3 3 0 0 0-1.18-.5 4.43 4.43 0 0 0-1.31-.07 5.61 5.61 0 0 0-1.28.27 7.61 7.61 0 0 0-1.21.52 10.27 10.27 0 0 0-1.09.72 13.45 13.45 0 0 0-1.9 1.79q-.42.48-.81 1l-.75 1c-.49.64-1 1.25-1.43 1.81a12.33 12.33 0 0 1-3 2.71 5.41 5.41 0 0 1-1.63.67 4.65 4.65 0 0 1-.82.08 3.19 3.19 0 0 1-.77-.09 3.05 3.05 0 0 1-1.29-.73 2.46 2.46 0 0 1-.71-1v-.55a1.49 1.49 0 0 1 0-.52 2 2 0 0 1 1.58-1.45 1.35 1.35 0 0 1 .45 0 1.46 1.46 0 0 1 .31.09l.16.09h.05-.05l-.17-.08-.3-.07a1.39 1.39 0 0 0-.44 0 1.89 1.89 0 0 0-1.07.67 1.76 1.76 0 0 0-.37.75 1.27 1.27 0 0 0 0 .48v.12a.79.79 0 0 0 0 .13v.12l.05.13a2.16 2.16 0 0 0 .68.91 2.8 2.8 0 0 0 1.17.58 2.71 2.71 0 0 0 .71.08 3.38 3.38 0 0 0 .76-.1 4.93 4.93 0 0 0 1.53-.65 9.1 9.1 0 0 0 1.48-1.15A17.34 17.34 0 0 0 29.56 20c.47-.56.93-1.17 1.42-1.8.24-.32.49-.65.75-1s.53-.66.82-1a14.69 14.69 0 0 1 2-1.82 9.75 9.75 0 0 1 1.14-.75 7.45 7.45 0 0 1 1.27-.54 6.29 6.29 0 0 1 1.37-.28 4.73 4.73 0 0 1 1.4.08 3.47 3.47 0 0 1 1.29.57 3.34 3.34 0 0 1 .94 1 6.09 6.09 0 0 1 .3.63c.08.21.15.43.21.65a6.78 6.78 0 0 1 .2 1.34 7.14 7.14 0 0 1-.3 2.61A5.14 5.14 0 0 1 41 21.94a4.52 4.52 0 0 1-2.09 1.15 3.69 3.69 0 0 1-1.14.09 3.07 3.07 0 0 1-1.06-.28 3.38 3.38 0 0 1-1.54-1.3 2.86 2.86 0 0 1-.46-1.73 2.47 2.47 0 0 1 .58-1.41 2.18 2.18 0 0 1 .52-.41 1.59 1.59 0 0 1 .56-.18 1.78 1.78 0 0 1 .92.1 1.41 1.41 0 0 1 .48.32.9.9 0 0 1 .1.11z" fill="#000000"/><path d="M28 12.8a.39.39 0 0 1 0-.1.48.48 0 0 1 .06-.31.57.57 0 0 1 .42-.27.93.93 0 0 1 .65.19 1.76 1.76 0 0 1 .54.65 2.18 2.18 0 0 1-.14 2 .57.57 0 0 1-.08.13l-.1.12a1.2 1.2 0 0 1-.23.22 2 2 0 0 1-.56.33 2.5 2.5 0 0 1-1.36.07 2.55 2.55 0 0 1-.67-.27 2.1 2.1 0 0 1-.58-.46 3.5 3.5 0 0 1-.24-.3c-.06-.12-.13-.23-.18-.35a2.76 2.76 0 0 1-.19-.75 3.09 3.09 0 0 1 .25-1.53 3.14 3.14 0 0 1 .39-.69 3.78 3.78 0 0 1 .55-.58 4.12 4.12 0 0 1 1.39-.73 4.9 4.9 0 0 1 1.5-.17 5.34 5.34 0 0 1 1.49.18 4.11 4.11 0 0 1 1.32.62 2.64 2.64 0 0 1 .51.49c.08.09.14.19.21.28a1.09 1.09 0 0 1 .08.15.8.8 0 0 1 .08.16 2.85 2.85 0 0 1 .19.63 4 4 0 0 1 0 .59 2.61 2.61 0 0 1 0 .28v.79a7.35 7.35 0 0 1-.54 1.73 9.51 9.51 0 0 1-.76 1.2 10.38 10.38 0 0 1-1 1.38 3 3 0 0 1-.28.3l-.09.09.07-.11.21-.34a16.9 16.9 0 0 0 .85-1.5 10.45 10.45 0 0 0 .54-1.23 7.35 7.35 0 0 0 .39-1.63v-.47a1.93 1.93 0 0 0 0-.24v-.25a2.63 2.63 0 0 0-.21-1l-.06-.1-.06-.11-.16-.21a2.33 2.33 0 0 0-.4-.36 3.26 3.26 0 0 0-1.08-.5 4.61 4.61 0 0 0-1.29-.16 3.71 3.71 0 0 0-.67 0 4.69 4.69 0 0 0-.65.14 3.45 3.45 0 0 0-1.18.59 2.52 2.52 0 0 0-.79 1 2.54 2.54 0 0 0-.25 1.23 2.07 2.07 0 0 0 .12.61c0 .09.08.18.13.27a1.31 1.31 0 0 0 .17.24 1.9 1.9 0 0 0 .45.4 2.17 2.17 0 0 0 .54.24 2 2 0 0 0 1.13 0 1.44 1.44 0 0 0 .48-.24.82.82 0 0 0 .2-.17l.09-.1.08-.1a2 2 0 0 0 .34-.93 2 2 0 0 0-.12-.84 1.64 1.64 0 0 0-.45-.63.86.86 0 0 0-.58-.22.51.51 0 0 0-.39.23.38.38 0 0 0 0 .39zM8.41 19.31a.73.73 0 0 1 .09-.09 1.36 1.36 0 0 1 .41-.28 1.79 1.79 0 0 1 .79-.16 2.27 2.27 0 0 1 1 .27 2.14 2.14 0 0 1 .51.4 1.74 1.74 0 0 1 .36.62v.38a1.7 1.7 0 0 1 0 .39 2.33 2.33 0 0 1-.22.8 2.56 2.56 0 0 1-1.3 1.23 2.43 2.43 0 0 1-2-.12 3 3 0 0 1-1.46-1.55 3.71 3.71 0 0 1-.09-2.26 5.85 5.85 0 0 1 1-2.09l.18-.24.2-.23.1-.11.1-.1.21-.22a10 10 0 0 1 .94-.75 8.54 8.54 0 0 1 2.16-1.07l.29-.09.29-.08.59-.14h.3l.3-.05c.19 0 .39 0 .59-.06a17.1 17.1 0 0 1 4.66.31 25.88 25.88 0 0 1 4.23.98 15.33 15.33 0 0 1 3.17 1.54 13.66 13.66 0 0 1 1.21.92c.18.16.35.32.51.49s.31.32.45.48a9 9 0 0 1 1.26 1.89 7.58 7.58 0 0 1 .58 1.58c0 .11.05.23.07.33s0 .2.05.3v.27a1.94 1.94 0 0 1 .06.2v.87-.48l-.06-.38a7.51 7.51 0 0 0-1-2.56 9.23 9.23 0 0 0-1.31-1.72c-.14-.15-.28-.3-.45-.45s-.32-.29-.5-.43a10.71 10.71 0 0 0-1.18-.83 15.38 15.38 0 0 0-3.07-1.41 29.49 29.49 0 0 0-3.95-1 17.54 17.54 0 0 0-4.48-.29c-.19 0-.38 0-.56.06h-.28l-.28.05c-.19 0-.37.08-.56.12l-.27.07-.27.08a7.94 7.94 0 0 0-2 .95A6 6 0 0 0 7.16 19a3.48 3.48 0 0 0-.15 1 2.8 2.8 0 0 0 .16 1 2.65 2.65 0 0 0 1.22 1.4 2.15 2.15 0 0 0 1.71.17 2.3 2.3 0 0 0 1.19-1.06 2.21 2.21 0 0 0 .25-1.08v-.17a.53.53 0 0 0 0-.17 1.66 1.66 0 0 0-.75-1 2.12 2.12 0 0 0-1-.3 1.78 1.78 0 0 0-.77.12 1.64 1.64 0 0 0-.42.25l-.09.09z" fill="#000000"/><path d="M19 17.92V18a.68.68 0 0 0 0 .33 1 1 0 0 0 .22.48 1.77 1.77 0 0 0 .24.23 2.55 2.55 0 0 0 .33.17 1.57 1.57 0 0 0 .84 0 2.49 2.49 0 0 0 .91-.42A3.62 3.62 0 0 0 22.81 17a3.77 3.77 0 0 0 .13-1.3 3.82 3.82 0 0 0-.12-.66 2.65 2.65 0 0 0-.71-1.15 2.54 2.54 0 0 0-.57-.4l-.31-.16-.34-.11a2.75 2.75 0 0 0-.7-.1 3.52 3.52 0 0 0-1.42.27 5 5 0 0 0-1.28.75 5.44 5.44 0 0 0-1 1.07 4.72 4.72 0 0 0-.37.61 3.61 3.61 0 0 0-.24.65 4.85 4.85 0 0 0-.18 1.34 5.83 5.83 0 0 0 .1 1.19 6.38 6.38 0 0 0 .81 2.06c.08.14.18.27.27.4a3.58 3.58 0 0 0 .3.36 4.61 4.61 0 0 0 .63.56 3.56 3.56 0 0 0 1.29.62h1.07a4 4 0 0 0 .75-.11H21.49l-.13.06-.16.05-.11.05-.13.05a4.4 4.4 0 0 1-.76.23h-1.16a3.6 3.6 0 0 1-1.5-.52 4.38 4.38 0 0 1-.76-.58c-.12-.11-.24-.25-.36-.38l-.33-.43a6.86 6.86 0 0 1-1-2.26 6.32 6.32 0 0 1-.16-1.4 5.64 5.64 0 0 1 .2-1.55 4.59 4.59 0 0 1 .29-.78 6.46 6.46 0 0 1 .44-.71 6.33 6.33 0 0 1 1.18-1.19 5.66 5.66 0 0 1 1.46-.82 4.39 4.39 0 0 1 1.68-.27 3.54 3.54 0 0 1 .85.16l.39.15.37.19a3.69 3.69 0 0 1 .66.52 3.36 3.36 0 0 1 .49.65 3.07 3.07 0 0 1 .29.74 3.41 3.41 0 0 1 .11.77 4 4 0 0 1-.22 1.43 3.88 3.88 0 0 1-1.55 2 2.66 2.66 0 0 1-1 .4 1.75 1.75 0 0 1-.92-.09 2.08 2.08 0 0 1-.33-.21 1.42 1.42 0 0 1-.24-.26 1 1 0 0 1-.2-.51A.78.78 0 0 1 19 18zM42.71 5.72h.07a.28.28 0 0 1 .18.1.4.4 0 0 1 .1.32.53.53 0 0 1-.3.36.79.79 0 0 1-.26.08h-.31a1.45 1.45 0 0 1-.64-.2 1.87 1.87 0 0 1-.55-.52 1.61 1.61 0 0 1-.29-.8 1.44 1.44 0 0 1 .23-.92 1.7 1.7 0 0 1 .33-.38 1.92 1.92 0 0 1 .42-.28 2.09 2.09 0 0 1 1-.22 2.19 2.19 0 0 1 1 .32 2.73 2.73 0 0 1 .8.71 3.33 3.33 0 0 1 .5 1 4.55 4.55 0 0 1 .14 2A5.38 5.38 0 0 1 44.66 9a4.17 4.17 0 0 1-.9 1.23 3.33 3.33 0 0 1-2 .91 2.63 2.63 0 0 1-.72 0 2.45 2.45 0 0 1-.47-.14.52.52 0 0 1-.15-.07l-.1-.05-.07-.05h.35a2.06 2.06 0 0 0 .45 0 3.46 3.46 0 0 0 .65-.09 3.36 3.36 0 0 0 1.62-1A4.08 4.08 0 0 0 44 8.7a5.5 5.5 0 0 0 .43-1.53 4.33 4.33 0 0 0-.09-1.72 2.49 2.49 0 0 0-.34-.77 2.17 2.17 0 0 0-.59-.58 1.76 1.76 0 0 0-.75-.28 1.56 1.56 0 0 0-.77.11 1.63 1.63 0 0 0-.34.19 1.07 1.07 0 0 0-.26.26 1.1 1.1 0 0 0-.17.32V4.87a.47.47 0 0 0 0 .17 1.4 1.4 0 0 0 .18.67 1.69 1.69 0 0 0 .44.48 1.18 1.18 0 0 0 .53.23h.27a.86.86 0 0 0 .23-.06.41.41 0 0 0 .23-.24.38.38 0 0 0-.05-.29.29.29 0 0 0-.16-.11zM38.24 21.23a.21.21 0 0 1-.13-.13.69.69 0 0 1-.08-.23 4 4 0 0 1-.06-.66 9.18 9.18 0 0 0 0-.95 2.47 2.47 0 0 0-.27-1.05 5.68 5.68 0 0 1 .41.43 2.93 2.93 0 0 1 .34.5 2.28 2.28 0 0 1 .33 1.06 1.58 1.58 0 0 1-.2.79.61.61 0 0 1-.19.2.23.23 0 0 1-.15.04zM39.45 16.67c-.1-.07-.09-.25-.08-.49a4.59 4.59 0 0 0 0-.86 5.46 5.46 0 0 0-.1-.58 3.85 3.85 0 0 0-.25-.66 2.09 2.09 0 0 0-.46-.6.91.91 0 0 0-.68-.23 1.13 1.13 0 0 1 .41-.05 1.24 1.24 0 0 1 .42.11 2.55 2.55 0 0 1 .72.49 3.13 3.13 0 0 1 .51.67 2.35 2.35 0 0 1 .25.73 1.77 1.77 0 0 1-.22 1.19.82.82 0 0 1-.28.26.17.17 0 0 1-.24.02z" fill="#000000"/><path d="M38.2 15.21a.38.38 0 0 1-.28-.24 1.26 1.26 0 0 1-.12-.49 2.53 2.53 0 0 1 0-.29 1 1 0 0 0 0-.33 1 1 0 0 0-.14-.36.7.7 0 0 0-.31-.23 1.1 1.1 0 0 1 .46.07 1.23 1.23 0 0 1 .42.26 1.4 1.4 0 0 1 .3.4 1.79 1.79 0 0 1 .12.4 1.06 1.06 0 0 1-.11.6.36.36 0 0 1-.34.21zM41.52 5.16a.3.3 0 0 1 .13-.3.54.54 0 0 1 .46-.07.8.8 0 0 1 .47.41 1.86 1.86 0 0 1 .2.57.9.9 0 0 0-.5-.18 2.17 2.17 0 0 1-.38 0 .44.44 0 0 1-.22-.14.52.52 0 0 1-.16-.29zM36.28 9.65a.74.74 0 0 1 0 .67 1.45 1.45 0 0 1-.49.68 4.06 4.06 0 0 1-1.08.49 4.79 4.79 0 0 0-1.2.59c.17-.42.33-.89.53-1.32a3 3 0 0 1 .71-1 1.51 1.51 0 0 1 .86-.35.68.68 0 0 1 .67.24zM32.21 8.12a.64.64 0 0 1 .66-.07 1.15 1.15 0 0 1 .63.62 2.12 2.12 0 0 1 .07 1.22c-.08.45-.24.88-.32 1.22a3.8 3.8 0 0 0-.65-1 3.69 3.69 0 0 1-.6-.74 1.21 1.21 0 0 1-.1-.67.85.85 0 0 1 .31-.58zM27.73 8.24a.69.69 0 0 1 .52-.48 1.88 1.88 0 0 1 1 0 3.4 3.4 0 0 1 1.18.86c.39.38.73.82 1.05 1.12A7.81 7.81 0 0 0 30 9.55a5.72 5.72 0 0 1-1.25-.17A1.93 1.93 0 0 1 28 8.9a.75.75 0 0 1-.27-.66zM8.48 21.33a.35.35 0 0 1-.24.08.51.51 0 0 1-.24-.09 1 1 0 0 1-.38-.72 1.35 1.35 0 0 1 .42-1 1.48 1.48 0 0 1 .45-.35 2.29 2.29 0 0 1 .43-.2 1.22 1.22 0 0 0-.19.42 1.57 1.57 0 0 0 0 .43v.19a1.24 1.24 0 0 1 0 .16.19.19 0 0 1 0 .07.14.14 0 0 1 0 .07.52.52 0 0 1 0 .11 1.08 1.08 0 0 1-.07.43 2.14 2.14 0 0 1-.1.22.69.69 0 0 1-.08.18zM13 15.74a.48.48 0 0 1-.1-.51 1.12 1.12 0 0 1 .5-.6 1.86 1.86 0 0 1 1.06-.17 7.74 7.74 0 0 1 1.06.23 2.51 2.51 0 0 0-.89.5 6.89 6.89 0 0 1-.6.51 1.26 1.26 0 0 1-.54.17.6.6 0 0 1-.49-.13zM45.16 0c.16 0 .34.09.49.32a2.13 2.13 0 0 1 .28.93 3.9 3.9 0 0 1-.23 1.35c-.16.49-.36 1-.48 1.37A8.29 8.29 0 0 0 45 2.55a7.93 7.93 0 0 1-.25-1.21 2.33 2.33 0 0 1 .08-.9C44.86.2 45 0 45.16 0zM45.19 10c.23 0 .41.55.41 1.23s-.32 1.74-.41 2.54a20.69 20.69 0 0 1-.41-2.54c0-.66.22-1.23.41-1.23zM45.38 24.21a.61.61 0 0 1-.38-.31 1.42 1.42 0 0 1-.18-.65 3.9 3.9 0 0 1 .18-.95 3.73 3.73 0 0 0 .13-1.07c.2.31.43.65.61 1a2.44 2.44 0 0 1 .32 1 1.31 1.31 0 0 1-.18.74.53.53 0 0 1-.5.24zM31.52 19.67a.33.33 0 0 1 .06.26 1.19 1.19 0 0 1-.08.34 5.06 5.06 0 0 1-.44.8c0 .08-.1.15-.15.23l-.09.12a1.13 1.13 0 0 1-.1.13l-.09.14-.11.14-.19.32a3 3 0 0 0-.4 1.46 5 5 0 0 1-.23-.8 4.21 4.21 0 0 1-.08-.87 2.92 2.92 0 0 1 .4-1.53 2 2 0 0 1 .88-.78.83.83 0 0 1 .39-.07.3.3 0 0 1 .23.11zM26.25 22.63a.28.28 0 0 1-.1-.25.66.66 0 0 1 .18-.38 1.25 1.25 0 0 1 .5-.31 1.71 1.71 0 0 1 .64-.09 2.08 2.08 0 0 1 .69.18 2.72 2.72 0 0 1 .68.42 2.48 2.48 0 0 1 .55.62 1.51 1.51 0 0 1 .19.7 1 1 0 0 0-.46-.49 2 2 0 0 0-.62-.17h-1.09a4.6 4.6 0 0 1-.66-.07l-.27-.05a.46.46 0 0 1-.23-.11zM19.11 16.18a.21.21 0 0 1 .08.16.87.87 0 0 1 0 .23c0 .18-.06.39-.11.62v.62a2.13 2.13 0 0 0 0 .25 1.74 1.74 0 0 0 .23 1 3.28 3.28 0 0 1-.41-.42 2.54 2.54 0 0 1-.31-.53 2 2 0 0 1-.31-1.11 1.35 1.35 0 0 1 .41-.74.67.67 0 0 1 .25-.13.17.17 0 0 1 .17.05zM14.21 11.32a.23.23 0 0 1 .18 0 1.05 1.05 0 0 1 .2.14A4.74 4.74 0 0 1 15 12c.15.19.31.48.55.76a2.42 2.42 0 0 0 .85.65c-.18 0-.38 0-.58-.08a3.22 3.22 0 0 1-.58-.18 2.41 2.41 0 0 1-.9-.65 1.51 1.51 0 0 1-.3-.76.56.56 0 0 1 0-.27c.08-.09.12-.14.17-.15zM18.48 51.42a.38.38 0 0 0 .12.19.56.56 0 0 0 .23.13.69.69 0 0 0 .38 0 .7.7 0 0 0 .23-.08.79.79 0 0 0 .2-.17 1.08 1.08 0 0 0 .21-.55 1.4 1.4 0 0 0-.13-.65 1.77 1.77 0 0 0-.46-.56 3.11 3.11 0 0 0-.63-.38 4.22 4.22 0 0 0-.7-.27 4.72 4.72 0 0 0-1.6-.17 4.63 4.63 0 0 0-.83.13 6.64 6.64 0 0 0-.79.26c-.5.21-.94.45-1.36.65a7.51 7.51 0 0 1-1.12.48 2.92 2.92 0 0 1-.91.15 2.81 2.81 0 0 1-1.32-.34 3.91 3.91 0 0 1-.7-.5l-.16-.15v-.05a.42.42 0 0 0 0 .07.55.55 0 0 0 0 .22 2.05 2.05 0 0 0 .48.86 2.91 2.91 0 0 0 1.61.89 3.39 3.39 0 0 0 1.3 0 6.13 6.13 0 0 0 1.34-.58c.44-.22.87-.47 1.29-.67a5.68 5.68 0 0 1 .63-.27 4.77 4.77 0 0 1 .65-.17 4.5 4.5 0 0 1 1.32 0 4.29 4.29 0 0 1 .62.14 2.43 2.43 0 0 1 .54.22 1 1 0 0 1 .39.32.92.92 0 0 1 .17.41.57.57 0 0 1-.17.54l-.15.09a.55.55 0 0 1-.3 0 .57.57 0 0 1-.23-.07.34.34 0 0 1-.15-.12z" fill="#000000"/><path d="M21.56 51a.61.61 0 0 1 0 .45.85.85 0 0 1-.25.25 1 1 0 0 1-.4.15.83.83 0 0 1-.51-.06.77.77 0 0 1-.38-.43 1.13 1.13 0 0 1-.06-.32 1.42 1.42 0 0 1 0-.35 1.77 1.77 0 0 1 .06-.17c0-.05 0-.11.07-.17a1.6 1.6 0 0 1 .22-.31 1.45 1.45 0 0 1 .29-.26 2.22 2.22 0 0 1 .38-.18 3 3 0 0 1 .86-.16 6.31 6.31 0 0 1 1 0A13.23 13.23 0 0 1 27 50.71 12.78 12.78 0 0 1 29.1 52a13.58 13.58 0 0 1 1.9 1.69c.62.65 1.21 1.34 1.82 2a25.26 25.26 0 0 0 2 2.05 10.49 10.49 0 0 0 2.39 1.65 6.49 6.49 0 0 0 2.87.72 5.56 5.56 0 0 0 2.85-.79 5.89 5.89 0 0 0 2.05-2 5.49 5.49 0 0 0 .55-1.32v-.17a.85.85 0 0 0 0-.17l.06-.33v-.68a5.54 5.54 0 0 0-.13-1.29 5 5 0 0 0-.39-1.17l-.06-.14-.07-.14c-.05-.09-.09-.18-.14-.26s-.21-.34-.33-.49l-.36-.45c-.12-.15-.13-.13-.2-.2l-.2-.19A6 6 0 0 0 42 49.26a7.89 7.89 0 0 0-1.81-.46 10.53 10.53 0 0 0-1.66-.06h-.76c-.24 0-.48.06-.71.11a5.15 5.15 0 0 0-1.24.4 2.92 2.92 0 0 0-.92.67c-.06.06-.11.13-.17.2a1.48 1.48 0 0 0-.13.21 1.6 1.6 0 0 0-.17.44 2 2 0 0 0 0 .8 1.69 1.69 0 0 0 .19.6 1.38 1.38 0 0 0 .57.57h.24-.23a1.4 1.4 0 0 1-.5-.59 1.9 1.9 0 0 1-.14-.58 1.92 1.92 0 0 1 .09-.73 1.65 1.65 0 0 1 .17-.39l.13-.18c.05-.05.1-.12.16-.17a2.74 2.74 0 0 1 .87-.57 7.11 7.11 0 0 1 2.6-.43 9.84 9.84 0 0 1 1.59.1 7.94 7.94 0 0 1 1.69.47 5.73 5.73 0 0 1 1.63 1l.18.18.17.18a4.54 4.54 0 0 1 .33.41c.1.14.19.29.28.44s.09.16.13.24l.06.12.06.13a5.34 5.34 0 0 1 .3 1.12 5.66 5.66 0 0 1 .11 1.17v.6l-.06.3a.8.8 0 0 1 0 .15v.15a4.52 4.52 0 0 1-.56 1.14 5.34 5.34 0 0 1-1.85 1.84 5.17 5.17 0 0 1-2.55.73 6 6 0 0 1-2.64-.57 10.44 10.44 0 0 1-2.3-1.55 26.15 26.15 0 0 1-2-2c-.62-.68-1.23-1.37-1.86-2a13.88 13.88 0 0 0-4.22-3 13.36 13.36 0 0 0-4.31-1.12 6.46 6.46 0 0 0-1 0 3.35 3.35 0 0 0-.91.19 2.42 2.42 0 0 0-.39.21 1.47 1.47 0 0 0-.32.29 1.79 1.79 0 0 0-.22.34 1.34 1.34 0 0 0-.07.18 1.05 1.05 0 0 0-.05.19 1 1 0 0 0 .47 1.16.9.9 0 0 0 .53 0 1.15 1.15 0 0 0 .42-.17.83.83 0 0 0 .24-.26.53.53 0 0 0 .07-.25.58.58 0 0 0 .03-.21z" fill="#000000"/><path d="M39.37 53.94a.57.57 0 0 1-.08.09 1.09 1.09 0 0 1-.39.24 1.36 1.36 0 0 1-.72.07 1.23 1.23 0 0 1-.43-.15 1.38 1.38 0 0 1-.4-.33 1.9 1.9 0 0 1-.43-1.1 2.14 2.14 0 0 1 .37-1.33 2.58 2.58 0 0 1 1.2-1 2.47 2.47 0 0 1 .82-.2 2.88 2.88 0 0 1 .87.08 3.5 3.5 0 0 1 1.58.9 3.9 3.9 0 0 1 1 1.66 5.26 5.26 0 0 1 .21 2 5.15 5.15 0 0 1-.16 1 4 4 0 0 1-.17.49 2.92 2.92 0 0 1-.23.47 2.56 2.56 0 0 1-.68.75 2.5 2.5 0 0 1-.95.4 3.62 3.62 0 0 1-1 .06 4.62 4.62 0 0 1-1-.22 5.82 5.82 0 0 1-1-.42 6.37 6.37 0 0 1-.88-.58 10.19 10.19 0 0 1-1.51-1.42c-.23-.26-.45-.52-.65-.78s-.41-.51-.6-.77c-.4-.5-.77-1-1.15-1.44a9.84 9.84 0 0 0-2.4-2.17 4 4 0 0 0-1.31-.53 2.88 2.88 0 0 0-.65-.07 2.57 2.57 0 0 0-.62.08 2.51 2.51 0 0 0-1 .52 2.14 2.14 0 0 0-.57.82v.44a1.12 1.12 0 0 0 0 .41 1.41 1.41 0 0 0 .34.64 1.59 1.59 0 0 0 .92.52 1.08 1.08 0 0 0 .36 0 .68.68 0 0 0 .24-.07l.13-.07-.13.06-.24.06a1.07 1.07 0 0 1-.35 0 1.62 1.62 0 0 1-.86-.54 1.42 1.42 0 0 1-.3-.6 1 1 0 0 1 0-.38v-.2-.2a2 2 0 0 1 .54-.74A2.58 2.58 0 0 1 28 50a2.53 2.53 0 0 1 1.18 0 4.06 4.06 0 0 1 1.23.52 8 8 0 0 1 1.18.92 15.07 15.07 0 0 1 1.13 1.22c.37.45.74.93 1.13 1.44l.6.77c.21.26.43.53.66.79a11.42 11.42 0 0 0 1.56 1.46 7.16 7.16 0 0 0 .91.6 6.11 6.11 0 0 0 1 .43 5 5 0 0 0 1.09.23 3.84 3.84 0 0 0 1.12-.07 2.79 2.79 0 0 0 1-.45 2.74 2.74 0 0 0 .75-.84 3.33 3.33 0 0 0 .25-.5A4.48 4.48 0 0 0 43 56a6.44 6.44 0 0 0 .16-1 5.86 5.86 0 0 0-.25-2.09 4 4 0 0 0-1.06-1.72 3.6 3.6 0 0 0-1.67-.92 3.14 3.14 0 0 0-.91-.07 2.77 2.77 0 0 0-1.56.66 2.64 2.64 0 0 0-.52.6 2.26 2.26 0 0 0-.37 1.38 2 2 0 0 0 .46 1.13 1.61 1.61 0 0 0 .42.33 1.33 1.33 0 0 0 .45.15 1.51 1.51 0 0 0 .73-.08 1 1 0 0 0 .38-.26.57.57 0 0 0 .08-.09z" fill="#000000"/><path d="M31.48 58.45a.4.4 0 0 0 0 .09.34.34 0 0 0 .05.24.46.46 0 0 0 .33.22.75.75 0 0 0 .52-.16 1.24 1.24 0 0 0 .43-.52 1.63 1.63 0 0 0 .15-.78 1.77 1.77 0 0 0-.25-.86l-.07-.1-.08-.1-.18-.18a1.53 1.53 0 0 0-.45-.25 1.84 1.84 0 0 0-1.12-.05 2.17 2.17 0 0 0-.53.21 1.67 1.67 0 0 0-.47.37 2.23 2.23 0 0 0-.19.24 1.47 1.47 0 0 0-.14.28 2 2 0 0 0-.16.6 2.6 2.6 0 0 0 .2 1.23 3 3 0 0 0 .31.55 2.45 2.45 0 0 0 .45.46 3.17 3.17 0 0 0 1.1.59 4.17 4.17 0 0 0 1.21.19 4 4 0 0 0 1.2-.15 3.26 3.26 0 0 0 1.05-.49 3 3 0 0 0 .41-.39c.06-.07.11-.15.17-.23l.06-.12a.34.34 0 0 0 .06-.12 1.65 1.65 0 0 0 .15-.51 2.56 2.56 0 0 0 0-.47V58v-.63a5.89 5.89 0 0 0-.47-1.37 6.24 6.24 0 0 0-.54-1 9.14 9.14 0 0 0-.86-1.11l-.22-.23-.08-.08.06.09c0 .06.09.15.17.28s.39.63.68 1.19c.14.29.29.61.43 1a6.36 6.36 0 0 1 .31 1.3v.77A2.21 2.21 0 0 1 35 59a.35.35 0 0 1 0 .08.41.41 0 0 1-.05.09 1.67 1.67 0 0 1-.12.16 1.78 1.78 0 0 1-.32.29 2.58 2.58 0 0 1-.87.4 3.51 3.51 0 0 1-1 .14 4.55 4.55 0 0 1-.53 0 3.12 3.12 0 0 1-.53-.11 2.81 2.81 0 0 1-.93-.47 2.53 2.53 0 0 1-.37-.36 2 2 0 0 1-.27-.44 2 2 0 0 1-.2-1 1.52 1.52 0 0 1 .1-.48.88.88 0 0 1 .09-.3.9.9 0 0 1 .14-.2 1.34 1.34 0 0 1 .36-.31 1.69 1.69 0 0 1 .43-.2 1.62 1.62 0 0 1 .9 0 1.41 1.41 0 0 1 .39.19 2 2 0 0 1 .16.14l.07.08.06.08a1.62 1.62 0 0 1 .18 1.46 1.27 1.27 0 0 1-.36.5.69.69 0 0 1-.46.17.39.39 0 0 1-.32-.18.3.3 0 0 1-.06-.22c-.02-.03-.01-.05-.01-.06zM15.78 53.24l.07.07a1.09 1.09 0 0 0 .33.22 1.28 1.28 0 0 0 .63.13 1.76 1.76 0 0 0 .84-.22 1.48 1.48 0 0 0 .4-.32 1.33 1.33 0 0 0 .29-.49v-.3a1.14 1.14 0 0 0 0-.32 1.9 1.9 0 0 0-.17-.64 2.08 2.08 0 0 0-1-1 1.94 1.94 0 0 0-1.58.09 2.43 2.43 0 0 0-1.17 1.25 2.91 2.91 0 0 0-.07 1.8 4.73 4.73 0 0 0 .8 1.68l.15.19.15.18.08.09.09.08.17.17a5.25 5.25 0 0 0 .74.6 6.66 6.66 0 0 0 1.73.86l.23.07.24.07.47.11h.95a13.93 13.93 0 0 0 3.73-.25 20.6 20.6 0 0 0 3.24-.85 11.46 11.46 0 0 0 2.53-1.23 9.84 9.84 0 0 0 1-.74 3.83 3.83 0 0 0 .41-.39c.13-.12.25-.26.36-.38a7.49 7.49 0 0 0 1-1.51 5.85 5.85 0 0 0 .46-1.27c0-.09 0-.18.06-.26s0-.17 0-.24v-.22V49.39v.16L33 50v.3a6 6 0 0 1-.77 2 7.33 7.33 0 0 1-1 1.38c-.12.11-.23.24-.36.35l-.4.35a10.54 10.54 0 0 1-.95.67A12.69 12.69 0 0 1 27 56.17a23.45 23.45 0 0 1-3.16.8 14.24 14.24 0 0 1-3.58.27l-.45-.05h-.45c-.15 0-.29-.06-.44-.09l-.23-.1-.22-.06a6.25 6.25 0 0 1-1.61-.76 4.87 4.87 0 0 1-2.08-2.69 3.22 3.22 0 0 1-.11-.81 2 2 0 0 1 .12-.77 2.14 2.14 0 0 1 1-1.11 1.68 1.68 0 0 1 1.36-.13 1.79 1.79 0 0 1 1 .85 1.67 1.67 0 0 1 .19.57 2.62 2.62 0 0 1 0 .28v.14a.7.7 0 0 1 0 .14 1.33 1.33 0 0 1-.61.77 1.61 1.61 0 0 1-.79.25 1.42 1.42 0 0 1-.62-.1 1.12 1.12 0 0 1-.34-.2.45.45 0 0 0-.07-.07z" fill="#000000"/><path d="M24.26 54.35v-.08a.55.55 0 0 1 0-.27.82.82 0 0 1 .18-.38 1.11 1.11 0 0 1 .19-.18.92.92 0 0 1 .26-.14 1.25 1.25 0 0 1 .67 0 2 2 0 0 1 .73.34 2.89 2.89 0 0 1 1.06 1.53 2.72 2.72 0 0 1 .11 1 2.36 2.36 0 0 1-.1.53 2.16 2.16 0 0 1-.22.49 2.06 2.06 0 0 1-.35.43 2.14 2.14 0 0 1-.45.32 1.42 1.42 0 0 1-.25.12l-.27.1a2.61 2.61 0 0 1-.56.08 3 3 0 0 1-1.19-.24 3.91 3.91 0 0 1-1-.6 4.33 4.33 0 0 1-.81-.85 2.8 2.8 0 0 1-.3-.49 2.54 2.54 0 0 1-.2-.52 4.06 4.06 0 0 1-.14-1.08 5.49 5.49 0 0 1 .1-1 5 5 0 0 1 .64-1.65c.07-.12.15-.22.22-.32l.24-.29a3.5 3.5 0 0 1 .51-.45 2.9 2.9 0 0 1 1-.46h.86a4 4 0 0 1 .6.08h.45-.1l-.14-.05h-.09l-.11-.05a4.5 4.5 0 0 0-.6-.18L25 50h-.73a3 3 0 0 0-1.2.41 4.16 4.16 0 0 0-.61.47 4 4 0 0 0-.28.3c-.09.11-.19.23-.27.35a5.37 5.37 0 0 0-.9 2.93 4.45 4.45 0 0 0 .15 1.23 3.71 3.71 0 0 0 .24.63 4.15 4.15 0 0 0 .35.57 5.28 5.28 0 0 0 .94 1 4.24 4.24 0 0 0 1.18.65 3.21 3.21 0 0 0 1.34.22 3.05 3.05 0 0 0 .67-.13l.32-.11.3-.16a2.61 2.61 0 0 0 .52-.41 2.2 2.2 0 0 0 .39-.53 2.71 2.71 0 0 0 .24-.59 3.21 3.21 0 0 0 .09-.61 3.28 3.28 0 0 0-.18-1.14 3.11 3.11 0 0 0-1.24-1.59 2 2 0 0 0-.8-.32 1.35 1.35 0 0 0-.73.08 1.08 1.08 0 0 0-.28.16 1.8 1.8 0 0 0-.19.21.85.85 0 0 0-.16.41.64.64 0 0 0 0 .27zM43.22 64.12h.06a.23.23 0 0 0 .15-.07.36.36 0 0 0 .07-.27.39.39 0 0 0-.24-.28 1 1 0 0 0-.21-.07h-.11a.57.57 0 0 0-.13 0 1.16 1.16 0 0 0-.51.16 1.49 1.49 0 0 0-.45.42 1.37 1.37 0 0 0-.23.64 1.22 1.22 0 0 0 .18.74 1.29 1.29 0 0 0 .27.3 1.5 1.5 0 0 0 .33.23 1.64 1.64 0 0 0 .82.17 1.71 1.71 0 0 0 .82-.25 2.54 2.54 0 0 0 .65-.57 2.49 2.49 0 0 0 .39-.76 3.75 3.75 0 0 0 .12-1.62 4.44 4.44 0 0 0-.41-1.39 3.41 3.41 0 0 0-.72-1 2.69 2.69 0 0 0-.84-.55 2.76 2.76 0 0 0-.76-.18 2.44 2.44 0 0 0-.57 0 1.77 1.77 0 0 0-.38.11l-.12.12h-.14.65a2.67 2.67 0 0 1 1.81.86 3.43 3.43 0 0 1 .57.88 4.62 4.62 0 0 1 .33 1.26 3.37 3.37 0 0 1-.07 1.38 1.91 1.91 0 0 1-.29.61 1.75 1.75 0 0 1-.47.47 1.44 1.44 0 0 1-.6.23 1.3 1.3 0 0 1-.62-.09 1.17 1.17 0 0 1-.27-.15 1 1 0 0 1-.21-.21.94.94 0 0 1-.14-.26v-.06-.07a.71.71 0 0 1 0-.14 1 1 0 0 1 .14-.53 1.11 1.11 0 0 1 .35-.39 1 1 0 0 1 .43-.19h.32a.37.37 0 0 1 .22.22.26.26 0 0 1 0 .23.17.17 0 0 1-.13.08s-.06-.02-.06-.01zM39.65 51.71s-.08 0-.11.1l-.06.18a2.83 2.83 0 0 0 0 .54v.75a1.81 1.81 0 0 1-.22.84 2.67 2.67 0 0 0 .33-.34 2.86 2.86 0 0 0 .28-.4 1.79 1.79 0 0 0 .25-.85 1.18 1.18 0 0 0-.15-.63.47.47 0 0 0-.15-.16.19.19 0 0 0-.17-.03zM40.61 55.36c-.07 0-.06.2-.06.38a3.5 3.5 0 0 1 0 .7c0 .13-.05.29-.09.46a2.48 2.48 0 0 1-.2.53 1.55 1.55 0 0 1-.36.48.71.71 0 0 1-.55.18.73.73 0 0 0 .33 0A1.07 1.07 0 0 0 40 58a1.86 1.86 0 0 0 .57-.39 2.09 2.09 0 0 0 .41-.54 1.67 1.67 0 0 0 .2-.58 1.41 1.41 0 0 0-.18-1 .61.61 0 0 0-.22-.21.14.14 0 0 0-.17.08z" fill="#000000"/><path d="M39.62 56.52a.29.29 0 0 0-.22.19 1.25 1.25 0 0 0-.11.39v.24a.83.83 0 0 1 0 .27.85.85 0 0 1-.12.28.53.53 0 0 1-.24.18.66.66 0 0 0 .36 0 1 1 0 0 0 .34-.21.9.9 0 0 0 .23-.32.84.84 0 0 0 .1-.32.78.78 0 0 0-.09-.48.29.29 0 0 0-.25-.22zM42.28 64.56a.24.24 0 0 0 .1.25.43.43 0 0 0 .36 0 .65.65 0 0 0 .38-.32 1.49 1.49 0 0 0 .16-.46.74.74 0 0 1-.4.14h-.3a.36.36 0 0 0-.18.12.37.37 0 0 0-.12.27zM38.08 61a.6.6 0 0 0 0-.54 1.22 1.22 0 0 0-.39-.54 3.48 3.48 0 0 0-.86-.39 4.16 4.16 0 0 1-1-.47c.14.33.27.71.43 1.06a2.43 2.43 0 0 0 .57.83 1.18 1.18 0 0 0 .68.27.55.55 0 0 0 .57-.22zM34.83 62.19a.52.52 0 0 0 .53.06 1 1 0 0 0 .5-.49 1.76 1.76 0 0 0 0-1c-.06-.36-.19-.71-.25-1a3.21 3.21 0 0 1-.52.81 3.31 3.31 0 0 0-.47.58 1 1 0 0 0-.09.54.68.68 0 0 0 .3.5zM31.24 62.1a.56.56 0 0 0 .42.38 1.41 1.41 0 0 0 .83 0 2.77 2.77 0 0 0 .95-.68c.31-.31.58-.66.83-.9a6.12 6.12 0 0 1-1.2.19 5 5 0 0 0-1 .14 1.56 1.56 0 0 0-.63.38.61.61 0 0 0-.2.49zM15.84 51.62a.33.33 0 0 0-.19-.06.46.46 0 0 0-.23.08.78.78 0 0 0-.3.57 1.07 1.07 0 0 0 .34.8 1.21 1.21 0 0 0 .36.28 1.7 1.7 0 0 0 .34.16 1 1 0 0 1-.15-.34 1.3 1.3 0 0 1 0-.34v-.28-.05-.06a.29.29 0 0 0 0-.09.79.79 0 0 0-.06-.34 1.42 1.42 0 0 0-.08-.18.61.61 0 0 0-.03-.15zM19.47 56.1a.37.37 0 0 0-.08.41.87.87 0 0 0 .39.47 1.45 1.45 0 0 0 .85.14 5.23 5.23 0 0 0 .85-.18 2.15 2.15 0 0 1-.71-.4 4.37 4.37 0 0 0-.48-.4.93.93 0 0 0-.44-.15.51.51 0 0 0-.38.11zM45.18 68.69c.14 0 .28-.07.4-.25a1.71 1.71 0 0 0 .22-.75 3 3 0 0 0-.19-1.08c-.12-.39-.28-.77-.38-1.09a7 7 0 0 1-.23 1.13 5.59 5.59 0 0 0-.2 1 2 2 0 0 0 .06.72c.14.16.19.29.32.32zM45.21 60.68c.18 0 .33-.45.33-1s-.26-1.39-.33-2a16.64 16.64 0 0 0-.33 2c0 .55.12 1 .33 1zM45.36 49.33a.44.44 0 0 0-.33.24 1.06 1.06 0 0 0-.15.52 3.64 3.64 0 0 0 .14.76 2.94 2.94 0 0 1 .11.86c.16-.25.34-.52.48-.79a1.93 1.93 0 0 0 .26-.79 1.08 1.08 0 0 0-.14-.59.43.43 0 0 0-.37-.21zM34.28 53a.33.33 0 0 0 0-.21 1.71 1.71 0 0 0-.07-.26 4.25 4.25 0 0 0-.35-.65l-.13-.18-.07-.1a.86.86 0 0 1-.07-.1.76.76 0 0 1-.08-.11l-.08-.12a2.07 2.07 0 0 1-.15-.25A2.25 2.25 0 0 1 33 49.8a4.3 4.3 0 0 0-.18.64 3.33 3.33 0 0 0-.07.7 2.42 2.42 0 0 0 .32 1.22 1.65 1.65 0 0 0 .71.63.74.74 0 0 0 .31.06.26.26 0 0 0 .19-.05zM30.06 50.59a.2.2 0 0 0-.08.2.48.48 0 0 0 .14.3 1.14 1.14 0 0 0 .4.25 1.46 1.46 0 0 0 .51.07 1.65 1.65 0 0 0 .55-.14 2.28 2.28 0 0 0 .55-.34 1.74 1.74 0 0 0 .44-.5 1.2 1.2 0 0 0 .15-.55.78.78 0 0 1-.37.39 1.37 1.37 0 0 1-.49.13h-.87a3.12 3.12 0 0 0-.53.06h-.21a.54.54 0 0 0-.19.13zM24.35 55.75a.26.26 0 0 0 .06-.13.6.6 0 0 0 0-.19 3.79 3.79 0 0 0-.08-.49v-.15a.31.31 0 0 0 0-.08.31.31 0 0 0 0-.08v-.39a1.37 1.37 0 0 1 .19-.82 2.67 2.67 0 0 0-.33.34 1.79 1.79 0 0 0-.25.42 1.62 1.62 0 0 0-.12.9 1.12 1.12 0 0 0 .33.59.42.42 0 0 0 .2.1.17.17 0 0 0 0-.02zM20.43 59.64a.24.24 0 0 0 .14 0 .66.66 0 0 0 .16-.11 2.93 2.93 0 0 0 .34-.4c.12-.16.25-.39.44-.61a1.8 1.8 0 0 1 .68-.52l-.46.06a2.25 2.25 0 0 0-.46.15 1.81 1.81 0 0 0-.72.52 1.15 1.15 0 0 0-.25.61.44.44 0 0 0 0 .21.16.16 0 0 0 .13.09zM72.1 51.42a.38.38 0 0 1-.12.19.54.54 0 0 1-.24.13.67.67 0 0 1-.38 0 .74.74 0 0 1-.22-.08.79.79 0 0 1-.2-.17 1 1 0 0 1-.21-.55 1.29 1.29 0 0 1 .13-.65 1.77 1.77 0 0 1 .46-.56 3 3 0 0 1 .62-.38 4 4 0 0 1 .71-.27 4.69 4.69 0 0 1 1.6-.17 4.63 4.63 0 0 1 .83.13 5.94 5.94 0 0 1 .78.26c.5.21 1 .45 1.37.65a6.72 6.72 0 0 0 1.12.48 2.88 2.88 0 0 0 .91.15 2.84 2.84 0 0 0 1.35-.36 4.32 4.32 0 0 0 .7-.5l.16-.15v-.05a.42.42 0 0 1 0 .07 1.56 1.56 0 0 1-.05.22 2.31 2.31 0 0 1-.48.86 2.84 2.84 0 0 1-.63.51 2.63 2.63 0 0 1-1 .38 3.4 3.4 0 0 1-1.3 0 6.25 6.25 0 0 1-1.3-.56c-.45-.22-.87-.47-1.3-.67a5.68 5.68 0 0 0-.63-.27 4.64 4.64 0 0 0-.64-.17 4.5 4.5 0 0 0-1.32 0 4.13 4.13 0 0 0-.63.14 2.65 2.65 0 0 0-.54.22 1 1 0 0 0-.38.32.82.82 0 0 0-.17.41.67.67 0 0 0 .06.4.76.76 0 0 0 .11.14.67.67 0 0 0 .14.09.59.59 0 0 0 .31 0 .69.69 0 0 0 .23-.07.43.43 0 0 0 .15-.12z" fill="#000000"/><path d="M69 51a.4.4 0 0 0 0 .21.67.67 0 0 0 .08.24.8.8 0 0 0 .24.25 1 1 0 0 0 .41.15.83.83 0 0 0 .51-.06.72.72 0 0 0 .37-.43 1.14 1.14 0 0 0 .07-.32 1.45 1.45 0 0 0 0-.35 1.54 1.54 0 0 0 0-.17c0-.05 0-.11-.07-.17a1.6 1.6 0 0 0-.22-.31 1.52 1.52 0 0 0-.3-.26 2.12 2.12 0 0 0-.37-.18 3.05 3.05 0 0 0-.87-.16 6.31 6.31 0 0 0-1 0 13.3 13.3 0 0 0-4.21 1.21A13.66 13.66 0 0 0 61.47 52a14.76 14.76 0 0 0-1.94 1.72c-.61.65-1.2 1.34-1.81 2a25.26 25.26 0 0 1-2 2.05 10.55 10.55 0 0 1-2.4 1.65 6.45 6.45 0 0 1-2.87.72 5.55 5.55 0 0 1-2.84-.79 5.81 5.81 0 0 1-2-2A5.14 5.14 0 0 1 45 56v-.17a.86.86 0 0 1 0-.17l-.06-.33a5.17 5.17 0 0 1 0-.68 5 5 0 0 1 .06-1.28 5.53 5.53 0 0 1 .38-1.17l.06-.14.07-.14.15-.26a4.13 4.13 0 0 1 .32-.49 5.19 5.19 0 0 1 .37-.45c.06-.07.13-.13.2-.2l.2-.19a6 6 0 0 1 1.79-1.07 8 8 0 0 1 1.82-.46 10.49 10.49 0 0 1 1.64-.06h.76c.24 0 .48.06.7.11a5.09 5.09 0 0 1 1.25.4 3 3 0 0 1 .92.67 1.56 1.56 0 0 1 .16.2 1 1 0 0 1 .14.21 2 2 0 0 1 .17.44 2.21 2.21 0 0 1 0 .8 1.92 1.92 0 0 1-.19.6 1.33 1.33 0 0 1-.58.57h-.24.23a1.27 1.27 0 0 0 .5-.59 1.65 1.65 0 0 0 .14-.58 1.9 1.9 0 0 0-.08-.73 2.2 2.2 0 0 0-.17-.39l-.13-.18c0-.05-.1-.12-.16-.17a2.79 2.79 0 0 0-.88-.57 7 7 0 0 0-2.54-.39 9.77 9.77 0 0 0-1.59.1 7.78 7.78 0 0 0-1.69.47 5.73 5.73 0 0 0-1.63 1l-.18.18-.18.18a4.47 4.47 0 0 0-.32.41c-.11.14-.19.29-.29.44l-.12.24-.07.12v.13a5.34 5.34 0 0 0-.34 1.07 5 5 0 0 0-.11 1.17v.6l.05.3a.83.83 0 0 0 0 .15v.15a4.93 4.93 0 0 0 .56 1.15 5.4 5.4 0 0 0 1.84 1.84 5.23 5.23 0 0 0 2.55.73 6 6 0 0 0 2.64-.57 10.21 10.21 0 0 0 2.3-1.55 22.88 22.88 0 0 0 2-2c.62-.68 1.23-1.37 1.87-2a14.14 14.14 0 0 1 2-1.73 13.8 13.8 0 0 1 2.19-1.25 13.48 13.48 0 0 1 4.32-1.12 6.46 6.46 0 0 1 1 0 3.35 3.35 0 0 1 .91.19 2.42 2.42 0 0 1 .39.21 1.47 1.47 0 0 1 .32.29 2.46 2.46 0 0 1 .22.34 1.34 1.34 0 0 1 .07.18 1.05 1.05 0 0 1 0 .19 1 1 0 0 1-.47 1.16.94.94 0 0 1-.54 0 1.18 1.18 0 0 1-.41-.17.83.83 0 0 1-.24-.26.53.53 0 0 1-.07-.25A.4.4 0 0 1 69 51z" fill="#000000"/><path d="M51.21 53.94a.3.3 0 0 0 .08.09 1 1 0 0 0 .38.24 1.4 1.4 0 0 0 .73.07 1.23 1.23 0 0 0 .43-.15 1.53 1.53 0 0 0 .4-.33 2 2 0 0 0 .43-1.1 2.22 2.22 0 0 0-.38-1.33 2.46 2.46 0 0 0-.51-.57 2.74 2.74 0 0 0-.68-.41 2.53 2.53 0 0 0-.82-.2 2.88 2.88 0 0 0-.87.08 3.53 3.53 0 0 0-1.59.9 4 4 0 0 0-1 1.66 5.47 5.47 0 0 0-.22 2 6 6 0 0 0 .17 1c0 .17.1.33.16.49s.15.32.23.47a2.6 2.6 0 0 0 .69.75 2.46 2.46 0 0 0 .94.4 3.64 3.64 0 0 0 1 .06 4.5 4.5 0 0 0 1-.22 5.57 5.57 0 0 0 1-.42 7 7 0 0 0 .88-.58 11.28 11.28 0 0 0 1.51-1.42c.23-.26.44-.52.65-.78s.41-.51.6-.77c.39-.5.77-1 1.15-1.44a10 10 0 0 1 2.39-2.17 4.15 4.15 0 0 1 1.31-.53 3 3 0 0 1 .66-.07 2.51 2.51 0 0 1 1.61.6 1.94 1.94 0 0 1 .57.82v.11a903060694860.16 903060694860.16 0 0 1 0 .22v.11a1.39 1.39 0 0 1 0 .41 1.51 1.51 0 0 1-.34.64 1.59 1.59 0 0 1-.92.52 1.08 1.08 0 0 1-.36 0 .68.68 0 0 1-.25-.07l.02-.02h.05a.4.4 0 0 0 .13.06l.24.06a1.07 1.07 0 0 0 .35 0 1.62 1.62 0 0 0 .86-.54 1.54 1.54 0 0 0 .3-.6 1.2 1.2 0 0 0 0-.38v-.1a.3.3 0 0 0 0-.1v-.2a1.91 1.91 0 0 0-.55-.74 2.46 2.46 0 0 0-.93-.46 2.69 2.69 0 0 0-.57-.06 2.55 2.55 0 0 0-.61.08 4 4 0 0 0-1.23.52 7.55 7.55 0 0 0-1.18.92 13.46 13.46 0 0 0-1.13 1.22c-.37.45-.74.93-1.13 1.44l-.6.77c-.21.26-.43.53-.66.79a11.42 11.42 0 0 1-1.56 1.46 8.07 8.07 0 0 1-.92.6 6 6 0 0 1-1 .43 5 5 0 0 1-1.09.23 3.84 3.84 0 0 1-1.12-.07 2.84 2.84 0 0 1-1-.45A2.74 2.74 0 0 1 48 57a4.59 4.59 0 0 1-.24-.5 4.51 4.51 0 0 1-.17-.52 5.53 5.53 0 0 1-.17-.98 5.44 5.44 0 0 1 .25-2.09 4.11 4.11 0 0 1 1-1.72 3.63 3.63 0 0 1 1.68-.92 3.11 3.11 0 0 1 .91-.07 2.66 2.66 0 0 1 .85.22 2.83 2.83 0 0 1 .71.44 2.91 2.91 0 0 1 .52.6 2.32 2.32 0 0 1 .37 1.38 2 2 0 0 1-.47 1.13 1.57 1.57 0 0 1-.41.33 1.33 1.33 0 0 1-.45.15 1.51 1.51 0 0 1-.73-.08 1.19 1.19 0 0 1-.39-.26.57.57 0 0 1-.08-.09z" fill="#000000"/><path d="M59.1 58.45v.09a.41.41 0 0 1-.05.24.48.48 0 0 1-.34.22.78.78 0 0 1-.52-.16 1.41 1.41 0 0 1-.43-.52 1.75 1.75 0 0 1-.15-.78 1.78 1.78 0 0 1 .26-.86.61.61 0 0 1 .07-.1l.08-.1.18-.18a1.41 1.41 0 0 1 .45-.25 1.84 1.84 0 0 1 1.12-.05 2.17 2.17 0 0 1 .53.21 1.83 1.83 0 0 1 .47.37 2.23 2.23 0 0 1 .19.24 2.44 2.44 0 0 1 .14.28 2 2 0 0 1 .15.6 2.47 2.47 0 0 1-.19 1.23 3 3 0 0 1-.32.55 2.75 2.75 0 0 1-.44.46 3.22 3.22 0 0 1-1.11.59 4 4 0 0 1-.6.14 4.07 4.07 0 0 1-.61.05 4 4 0 0 1-1.19-.15 3.17 3.17 0 0 1-1-.49 2.62 2.62 0 0 1-.42-.39 1.88 1.88 0 0 1-.16-.23.75.75 0 0 1-.07-.12l-.14-.13a2.46 2.46 0 0 1-.15-.51 2.56 2.56 0 0 1 0-.47V58v-.63a5.9 5.9 0 0 1 .5-1.37 7.14 7.14 0 0 1 .55-1 9.14 9.14 0 0 1 .86-1.11 2.61 2.61 0 0 1 .22-.23l.07-.08v.09a3.25 3.25 0 0 0-.17.28 12.22 12.22 0 0 0-.68 1.19c-.14.29-.29.61-.43 1a5.75 5.75 0 0 0-.32 1.3v.77a1.84 1.84 0 0 0 .17.77v.08l.05.09a1.83 1.83 0 0 0 .13.16 1.78 1.78 0 0 0 .32.29 2.62 2.62 0 0 0 .86.4 3.58 3.58 0 0 0 1 .14 4.73 4.73 0 0 0 .53 0A3 3 0 0 0 59 60a3 3 0 0 0 .94-.47 2.53 2.53 0 0 0 .37-.36 2.47 2.47 0 0 0 .27-.44 2.14 2.14 0 0 0 .2-1 1.86 1.86 0 0 0-.1-.48c0-.08-.07-.15-.1-.22s-.09-.14-.14-.2a1.34 1.34 0 0 0-.36-.31 1.69 1.69 0 0 0-.43-.2 1.62 1.62 0 0 0-.9 0 1.29 1.29 0 0 0-.39.19 1.07 1.07 0 0 0-.16.14.27.27 0 0 0-.07.08l-.06.08a1.62 1.62 0 0 0-.18 1.46 1.18 1.18 0 0 0 .36.5.66.66 0 0 0 .46.17.39.39 0 0 0 .32-.18.3.3 0 0 0 .06-.22c.02-.06 0-.08.01-.09zM74.79 53.24l-.07.07a1.24 1.24 0 0 1-.33.22 1.31 1.31 0 0 1-.63.13 1.73 1.73 0 0 1-.84-.22 1.69 1.69 0 0 1-.41-.32 1.31 1.31 0 0 1-.28-.49v-.3-.32a1.93 1.93 0 0 1 .18-.64 2 2 0 0 1 1-1 2 2 0 0 1 1.58.09 2.41 2.41 0 0 1 1.16 1.25 2.91 2.91 0 0 1 .08 1.8 4.75 4.75 0 0 1-.81 1.68l-.14.19-.16.18-.12.14-.08.08-.17.17a5.33 5.33 0 0 1-.75.6 6.51 6.51 0 0 1-1.73.86l-.23.07-.23.07-.47.11h-.96a14 14 0 0 1-3.73-.25 20.76 20.76 0 0 1-3.23-.85 11.77 11.77 0 0 1-2.54-1.23 11.19 11.19 0 0 1-1-.74c-.14-.13-.28-.25-.41-.39s-.24-.26-.36-.38a7 7 0 0 1-1-1.51 6.54 6.54 0 0 1-.47-1.27v-.26a1.2 1.2 0 0 1 0-.24v-.22V49.44 50.12a6.26 6.26 0 0 0 .77 2 7.89 7.89 0 0 0 1 1.38c.11.11.23.24.36.35s.26.23.4.35a10.54 10.54 0 0 0 1 .67 12.42 12.42 0 0 0 2.45 1.12 23.45 23.45 0 0 0 3.16.8 14.24 14.24 0 0 0 3.58.27l.45-.05h.45c.15 0 .29-.06.44-.09l.22-.06.21-.06a6.48 6.48 0 0 0 1.62-.76 4.85 4.85 0 0 0 2.07-2.69 2.84 2.84 0 0 0 .12-.81 2.22 2.22 0 0 0-.13-.77 2.1 2.1 0 0 0-1-1.11 1.68 1.68 0 0 0-1.36-.13 1.77 1.77 0 0 0-1 .85 1.67 1.67 0 0 0-.19.57 1.31 1.31 0 0 0 0 .28v.14a.7.7 0 0 0 0 .14 1.29 1.29 0 0 0 .61.77 1.55 1.55 0 0 0 .79.25 1.42 1.42 0 0 0 .62-.1.94.94 0 0 0 .33-.2l.08-.07z" fill="#000000"/><path d="M66.32 54.35v-.08a.7.7 0 0 0 0-.27.82.82 0 0 0-.18-.38 1.66 1.66 0 0 0-.19-.18 1.3 1.3 0 0 0-.26-.14 1.29 1.29 0 0 0-.68 0 2.05 2.05 0 0 0-.72.34 2.9 2.9 0 0 0-1.07 1.53 2.94 2.94 0 0 0-.11 1 2.38 2.38 0 0 0 .11.53 1.8 1.8 0 0 0 .22.49 2 2 0 0 0 .34.43 2.83 2.83 0 0 0 .45.32 1.23 1.23 0 0 0 .26.12l.27.1a2.61 2.61 0 0 0 .56.08A3 3 0 0 0 66.5 58a3.75 3.75 0 0 0 1-.6 4.39 4.39 0 0 0 .82-.85 4.94 4.94 0 0 0 .3-.49 2.5 2.5 0 0 0 .19-.52 4.07 4.07 0 0 0 .19-1.06 5.49 5.49 0 0 0-.1-1 4.83 4.83 0 0 0-.65-1.65 1.81 1.81 0 0 0-.25-.33c-.08-.1-.15-.2-.23-.29a3.5 3.5 0 0 0-.51-.45 2.9 2.9 0 0 0-1-.46h-.86a4 4 0 0 0-.6.08h-.45.1l.13-.07h.09l.1-.05a4.27 4.27 0 0 1 .61-.18h.93a3 3 0 0 1 1.2.41 3.63 3.63 0 0 1 .6.47c.1.09.19.2.29.3s.18.23.26.35a5 5 0 0 1 .78 1.8 5.14 5.14 0 0 1 .13 1.13 4.47 4.47 0 0 1-.16 1.23 2.55 2.55 0 0 1-.24.63 4.15 4.15 0 0 1-.35.57 5.22 5.22 0 0 1-.93 1 4.38 4.38 0 0 1-1.18.65 3.21 3.21 0 0 1-1.34.22 3.14 3.14 0 0 1-.68-.13l-.31-.11-.3-.16a2.61 2.61 0 0 1-.52-.41 2.2 2.2 0 0 1-.39-.53 2.29 2.29 0 0 1-.24-.59 3.21 3.21 0 0 1-.09-.61 3.07 3.07 0 0 1 .16-1.25 3.11 3.11 0 0 1 1.24-1.59 2 2 0 0 1 .8-.32 1.36 1.36 0 0 1 .73.08 1 1 0 0 1 .46.37.76.76 0 0 1 .16.41.67.67 0 0 1 0 .27zM47.35 64.12h-.05a.23.23 0 0 1-.15-.07.36.36 0 0 1-.08-.27.44.44 0 0 1 .24-.28l.21-.07h.12a.48.48 0 0 1 .12 0 1.16 1.16 0 0 1 .52.16 1.46 1.46 0 0 1 .44.42 1.28 1.28 0 0 1 .24.64 1.16 1.16 0 0 1-.19.74 1.25 1.25 0 0 1-.26.3 1.36 1.36 0 0 1-.34.23 1.58 1.58 0 0 1-.81.17 1.71 1.71 0 0 1-.83-.25 2.33 2.33 0 0 1-1-1.33 3.6 3.6 0 0 1-.12-1.62 4.44 4.44 0 0 1 .41-1.39 3.41 3.41 0 0 1 .72-1 2.58 2.58 0 0 1 1.6-.73 2.51 2.51 0 0 1 .57 0 1.66 1.66 0 0 1 .37.11l.12.06h.14H49.19L49 60h-.36a2.88 2.88 0 0 0-.52.08 2.66 2.66 0 0 0-1.29.78 3.18 3.18 0 0 0-.57.88A4.26 4.26 0 0 0 46 63a3.56 3.56 0 0 0 0 1.33 1.91 1.91 0 0 0 .29.61 1.75 1.75 0 0 0 .47.47 1.34 1.34 0 0 0 .6.23 1.32 1.32 0 0 0 .62-.09 1.82 1.82 0 0 0 .27-.15 1 1 0 0 0 .21-.21.91.91 0 0 0 .13-.26v-.06a.64.64 0 0 1 0-.07.71.71 0 0 0 0-.14 1.06 1.06 0 0 0-.15-.53 1.18 1.18 0 0 0-.34-.39 1.16 1.16 0 0 0-.43-.19h-.4a.39.39 0 0 0-.23.22.3.3 0 0 0 .05.23.16.16 0 0 0 .13.08s.13.03.13.04zM50.93 51.71a.16.16 0 0 1 .1.1.75.75 0 0 1 .07.18 2.83 2.83 0 0 1 0 .54v.75a1.93 1.93 0 0 0 .21.84 2.61 2.61 0 0 1-.32-.34 2.86 2.86 0 0 1-.28-.4 1.93 1.93 0 0 1-.26-.85 1.27 1.27 0 0 1 .16-.63.39.39 0 0 1 .15-.16.18.18 0 0 1 .17-.03zM50 55.36c.08 0 .07.2.06.38a4.6 4.6 0 0 0 0 .7 3.35 3.35 0 0 0 .09.46 2 2 0 0 0 .2.53 1.55 1.55 0 0 0 .36.48.69.69 0 0 0 .54.18.69.69 0 0 1-.32 0 1 1 0 0 1-.34-.09 1.91 1.91 0 0 1-.58-.39 2.65 2.65 0 0 1-.41-.54 1.88 1.88 0 0 1-.19-.58 1.3 1.3 0 0 1 .18-1 .59.59 0 0 1 .21-.21c.07.05.12.05.2.08z" fill="#000000"/><path d="M51 56.52c.09 0 .16.08.22.19a1 1 0 0 1 .1.39 1.91 1.91 0 0 1 0 .24 1.32 1.32 0 0 0 0 .27.85.85 0 0 0 .12.28.53.53 0 0 0 .24.18.66.66 0 0 1-.36 0 .92.92 0 0 1-.34-.21 1.08 1.08 0 0 1-.24-.32 1 1 0 0 1-.09-.32.87.87 0 0 1 .08-.48.31.31 0 0 1 .27-.22zM48.3 64.56a.26.26 0 0 1-.1.25.46.46 0 0 1-.37 0 .63.63 0 0 1-.37-.32 1.54 1.54 0 0 1-.17-.46.81.81 0 0 0 .4.14H48a.41.41 0 0 1 .18.12.52.52 0 0 1 .12.27zM52.49 61a.63.63 0 0 1 0-.54 1.34 1.34 0 0 1 .4-.54 3.31 3.31 0 0 1 .86-.39 3.9 3.9 0 0 0 1-.47c-.13.33-.26.71-.42 1.06a2.43 2.43 0 0 1-.57.83 1.18 1.18 0 0 1-.69.27.56.56 0 0 1-.58-.22zM55.75 62.19a.52.52 0 0 1-.53.06 1 1 0 0 1-.5-.49 1.75 1.75 0 0 1-.06-1c.07-.36.2-.71.26-1a3 3 0 0 0 .52.81 3.31 3.31 0 0 1 .47.58.94.94 0 0 1 .08.54.67.67 0 0 1-.24.5zM59.34 62.1a.56.56 0 0 1-.42.38 1.41 1.41 0 0 1-.83 0 2.6 2.6 0 0 1-1-.68c-.31-.31-.58-.66-.84-.9a6.37 6.37 0 0 0 1.2.19 5 5 0 0 1 1 .14 1.54 1.54 0 0 1 .64.38.64.64 0 0 1 .25.49zM74.74 51.62a.31.31 0 0 1 .19-.06.4.4 0 0 1 .22.08.79.79 0 0 1 .31.57 1.11 1.11 0 0 1-.34.8 1.53 1.53 0 0 1-.36.28 1.76 1.76 0 0 1-.35.16.74.74 0 0 0 .15-.34.79.79 0 0 0 0-.34.77.77 0 0 0 0-.15v-.13a.17.17 0 0 1 0-.05.13.13 0 0 1 0-.06.29.29 0 0 1 0-.09.66.66 0 0 1 .06-.34.71.71 0 0 1 .08-.18.45.45 0 0 1 .04-.15zM71.11 56.1a.39.39 0 0 1 .08.41.85.85 0 0 1-.4.47 1.43 1.43 0 0 1-.85.14 5.32 5.32 0 0 1-.84-.18 2.1 2.1 0 0 0 .7-.4 4.35 4.35 0 0 1 .49-.4.93.93 0 0 1 .43-.15.52.52 0 0 1 .39.11zM45.39 68.69c-.13 0-.27-.07-.39-.25a1.7 1.7 0 0 1-.23-.75 3.28 3.28 0 0 1 .23-1.08c.12-.39.29-.77.38-1.09a7.06 7.06 0 0 0 .22 1.13 6.72 6.72 0 0 1 .2 1 2 2 0 0 1-.07.72c-.1.16-.2.29-.34.32zM45.36 60.68c-.18 0-.32-.45-.32-1s.26-1.39.32-2a14.9 14.9 0 0 1 .33 2c0 .55-.14 1-.33 1zM45.21 49.33a.45.45 0 0 1 .34.24 1.17 1.17 0 0 1 .14.52 3.09 3.09 0 0 1-.14.76 3.33 3.33 0 0 0-.11.86c-.15-.25-.33-.52-.48-.79a2.09 2.09 0 0 1-.26-.79 1.08 1.08 0 0 1 .15-.59.42.42 0 0 1 .36-.21zM56.3 53a.28.28 0 0 1 0-.21 1 1 0 0 1 .07-.26 4.25 4.25 0 0 1 .35-.65c0-.06.08-.11.12-.18l.08-.1.07-.1.08-.11.08-.12a2.07 2.07 0 0 0 .15-.25 2.35 2.35 0 0 0 .33-1.17 4.3 4.3 0 0 1 .18.64 3.31 3.31 0 0 1 .06.7 2.33 2.33 0 0 1-.32 1.22 1.63 1.63 0 0 1-.7.63.77.77 0 0 1-.31.06.24.24 0 0 1-.24-.1zM60.52 50.59a.25.25 0 0 1 .08.2.5.5 0 0 1-.15.3 1 1 0 0 1-.39.25 1.49 1.49 0 0 1-.52.07 1.71 1.71 0 0 1-.55-.14 2.74 2.74 0 0 1-.55-.34 1.87 1.87 0 0 1-.43-.5 1.22 1.22 0 0 1-.16-.55.8.8 0 0 0 .38.39 1.37 1.37 0 0 0 .49.13h.87a3.12 3.12 0 0 1 .53.06h.21a.54.54 0 0 1 .19.13zM66.23 55.75a.21.21 0 0 1-.07-.13 1.2 1.2 0 0 1 0-.19c0-.14 0-.3.09-.49a1.31 1.31 0 0 1 0-.15.19.19 0 0 0 0-.08.19.19 0 0 0 0-.08 1.06 1.06 0 0 0 0-.19 1.23 1.23 0 0 0 0-.2 1.44 1.44 0 0 0-.18-.82 2.67 2.67 0 0 1 .33.34 2.91 2.91 0 0 1 .25.42 1.52 1.52 0 0 1 .11.9 1.06 1.06 0 0 1-.33.59.35.35 0 0 1-.19.1.16.16 0 0 1-.01-.02zM70.15 59.64a.24.24 0 0 1-.14 0 .51.51 0 0 1-.16-.11 2.93 2.93 0 0 1-.35-.4c-.12-.16-.24-.39-.43-.61a1.91 1.91 0 0 0-.69-.52l.47.06a2.74 2.74 0 0 1 .46.15 1.81 1.81 0 0 1 .72.52 1.21 1.21 0 0 1 .24.61.46.46 0 0 1 0 .21.18.18 0 0 1-.12.09zM.28 25.27h91.95v.4H.28zM9.48 47.93h73.56v.32H9.48z" fill="#000000"/></svg>