<svg xmlns="http://www.w3.org/2000/svg" viewBox="0 0 171.7 112.88"><path d="M164.89 18.16L107.71 2.9a85.24 85.24 0 0 0-44.24 0L6.8 18.16A9.37 9.37 0 0 0 0 27.31v58.25a9.38 9.38 0 0 0 6.8 9.16l56.67 15.22a85.43 85.43 0 0 0 22.19 2.94 85.74 85.74 0 0 0 22-2.9l57.18-15.26a9.39 9.39 0 0 0 6.81-9.16V27.32a9.39 9.39 0 0 0-6.76-9.16zM52.08 16.82q-7 2.2-14 4.23C33.43 22.43 28.72 23.68 24 25c-4.38 1.14-8.76 2.31-13.17 3.39 0 2-.07 4.05-.14 6.07-.08 2.45-.15 4.9-.27 7.35-.2 4.9-.48 9.79-.9 14.65-.42-4.86-.71-9.68-.91-14.5-.13-2.4-.2-4.81-.27-7.21s-.14-4.8-.18-7.21V26.3l1-.3c4.67-1.38 9.37-2.64 14.06-3.94s9.41-2.5 14.14-3.64 9.47-2.29 14.22-3.35 9.53-2.05 14.34-2.9c-4.57 1.65-9.19 3.19-13.84 4.65zm110.44 70.07c-4.71 1.38-9.46 2.65-14.19 4s-9.49 2.51-14.27 3.65-9.54 2.3-14.34 3.36-9.62 2.06-14.47 2.91q7-2.51 14-4.68t14.11-4.24c4.71-1.39 9.46-2.64 14.19-3.94 4.44-1.15 8.86-2.32 13.31-3.41 0-2 .07-4 .14-6.06.07-2.45.15-4.9.27-7.35.2-4.9.48-9.78.89-14.64.43 4.85.71 9.68.91 14.49.12 2.41.2 4.81.27 7.21s.14 4.8.18 7.21v1.24z" fill="#000000"/></svg>