<svg xmlns="http://www.w3.org/2000/svg" viewBox="0 0 451.5 447.94"><g fill="#333"><path d="M215 402.67c-112.87 0-204.7-86.36-204.7-192.52S102.11 17.63 215 17.63 419.68 104 419.68 210.15 327.85 402.67 215 402.67zm0-383.54c-112 0-203.2 85.69-203.2 191s91.16 191 203.2 191 203.2-85.69 203.2-191-91.2-191-203.2-191z"/><path d="M234.28 427.12c-112.87 0-204.7-86.36-204.7-192.52s91.83-192.52 204.7-192.52S439 128.45 439 234.6s-91.85 192.52-204.72 192.52zm0-383.54c-112 0-203.2 85.69-203.2 191s91.16 191 203.2 191 203.2-85.69 203.2-191-91.15-191-203.2-191z"/><path d="M246.8 385c-112.87 0-204.69-86.32-204.69-192.48S133.93 0 246.8 0s204.7 86.37 204.7 192.52S359.67 385 246.8 385zm0-383.54c-112 0-203.19 85.69-203.19 191s91.15 191 203.19 191S450 297.85 450 192.52 358.85 1.5 246.8 1.5z"/><path d="M204.7 447.94C91.83 447.94 0 361.57 0 255.42S91.83 62.9 204.7 62.9s204.7 86.36 204.7 192.52-91.83 192.52-204.7 192.52zm0-383.54c-112 0-203.2 85.69-203.2 191s91.15 191 203.2 191 203.2-85.69 203.2-191-91.16-191-203.2-191z"/><path d="M234.28 447.94c-112.87 0-204.7-86.37-204.7-192.52S121.41 62.9 234.28 62.9 439 149.26 439 255.42s-91.85 192.52-204.72 192.52zm0-383.54c-112 0-203.2 85.69-203.2 191s91.16 191 203.2 191 203.2-85.69 203.2-191-91.15-191-203.2-191z"/></g></svg>