<svg xmlns="http://www.w3.org/2000/svg" viewBox="0 0 759.5 564.24"><path d="M379.75 564.24c-104.39 0-192.34-19.42-221.19-48.55h-55.75l-37.19-34.11v-8.44H40.19L0 434.24V130l40.19-38.9h25.43v-8.44l37.19-34.12h55.75C187.41 19.41 275.36 0 379.75 0s192.33 19.41 221.19 48.54h55.75l37.19 34.12v8.44h25.42l40.2 38.9v304.24l-40.2 38.9h-25.42v8.44l-37.19 34.11h-55.75c-28.86 29.13-116.8 48.55-221.19 48.55zm-272-61.32h56.45l1.91 2.18c23.88 27.3 111.72 46.37 213.61 46.37s189.76-19.07 213.64-46.37l1.91-2.18h56.45l29.39-27v-15.55h33l32.59-31.54V135.41l-32.59-31.55h-33V88.27l-29.39-27h-56.45l-1.91-2.18c-23.88-27.3-111.72-46.36-213.61-46.36S190 31.83 166.14 59.13l-1.91 2.18h-56.45l-29.4 27v15.59h-33l-32.61 31.51v293.42l32.59 31.54h33V476z" fill="#000000"/><path d="M379.75 541.44c-111.81 0-193.46-23-207.79-45.21l-2.16-3.34h-58.12l-23.26-21.34v-21.21h-39L22.8 424.58V139.66l26.62-25.76h39V92.68l23.26-21.34h58.12L172 68c14.33-22.22 96-45.2 207.79-45.2S573.2 45.78 587.54 68l2.15 3.34h58.13l23.26 21.34v21.22h39l26.62 25.76v284.92l-26.62 25.76h-39v21.21l-23.26 21.34h-58.13l-2.15 3.34c-14.34 22.22-95.98 45.21-207.79 45.21zm-266.65-52.2h58.69l3.23 5c13.81 21.4 94.16 43.53 204.73 43.53s190.92-22.13 204.73-43.53l3.23-5h58.69l21-19.29v-23.26h41.2L733.05 423V141.2l-24.45-23.66h-41.17V94.29L646.4 75h-58.69l-3.24-5c-13.8-21.4-94.16-43.53-204.72-43.53S188.83 48.58 175 70l-3.23 5H113.1l-21 19.3v23.25H50.89L26.45 141.2V423l24.44 23.66h41.17V470z" fill="#000000"/></svg>