<svg xmlns="http://www.w3.org/2000/svg" viewBox="0 0 158.6 106.37"><defs><linearGradient id="a4301d559-6600-4ef0-8dca-afdbb08bd3aa" x1="79.3" y1="94.29" x2="79.3" y2=".8" gradientUnits="userSpaceOnUse"><stop offset="0" stop-color="#8fdcdc" stop-opacity="0"/><stop offset=".99" stop-color="#be9aff"/></linearGradient><linearGradient id="b0c347978-b78d-4255-8e40-e9a3a7976c76" x1="-27.48" y1="97.11" x2="121.52" y2="50.07" gradientTransform="rotate(17.52 130.686 171.631)" gradientUnits="userSpaceOnUse"><stop offset="0" stop-color="#be9aff" stop-opacity="0"/><stop offset="1" stop-color="#8fdcdc"/></linearGradient><linearGradient id="c28570789-5f79-4312-9ad4-da578c2d2220" x1="28.95" y1="95.13" x2="51.43" y2="95.13" gradientUnits="userSpaceOnUse"><stop offset=".01" stop-color="#be9aff"/><stop offset=".97" stop-color="#8fdcdc"/></linearGradient></defs><path d="M3.28 77.84c-14-24.61 19.63-60 46.49-71C79.48-5.27 133.1-1.34 152.55 38.5c9.18 18.8 16 60.88-43.22 52.34-58.67-8.45-87.22 20.16-106.05-13z" fill="url(#a4301d559-6600-4ef0-8dca-afdbb08bd3aa)"/><path d="M2.73 59.93c-5-30.4 32.68-58.29 63.69-59.8 42.06-2 78.71 19.46 90.82 65.3 6.64 25.17-11.46 56.92-70.69 30.57C32.37 71.88 6.5 83 2.73 59.93z" fill="url(#b0c347978-b78d-4255-8e40-e9a3a7976c76)"/><circle cx="40.19" cy="95.13" r="11.24" fill="url(#c28570789-5f79-4312-9ad4-da578c2d2220)"/></svg>