<svg viewBox="0 0 62 65" xmlns="http://www.w3.org/2000/svg"><g fill="#000" fill-rule="nonzero"><path d="M53.055 8.112c-6.988-1.302-13.052-4.276-17.09-6.674a10.246 10.246 0 0 0-10.467 0C21.461 3.836 15.397 6.81 8.408 8.112 3.542 9.019 0 13.244 0 18.194v28.612c0 4.95 3.542 9.175 8.408 10.082 6.988 1.302 13.052 4.276 17.09 6.674a10.246 10.246 0 0 0 10.468 0c4.037-2.398 10.101-5.372 17.09-6.674 4.865-.907 8.407-5.132 8.407-10.082V18.194c0-4.95-3.542-9.175-8.408-10.082zm5.75 38.694c0 3.654-2.623 6.796-6.237 7.47-7.436 1.386-13.87 4.573-17.96 7.002a7.588 7.588 0 0 1-7.753 0c-4.088-2.43-10.524-5.616-17.96-7.002-3.613-.674-6.237-3.816-6.237-7.47V18.194c0-3.654 2.623-6.796 6.238-7.47 7.436-1.386 13.87-4.573 17.96-7.002a7.583 7.583 0 0 1 7.752 0c4.088 2.429 10.523 5.615 17.96 7.001 3.614.674 6.237 3.816 6.237 7.47v28.613z"/><path d="M52.142 11.427C44.78 10.055 38.412 6.903 34.367 4.5a7.124 7.124 0 0 0-7.271 0c-4.045 2.403-10.412 5.556-17.775 6.928-3.39.632-5.851 3.578-5.851 7.005v28.136c0 3.428 2.46 6.374 5.851 7.006 7.363 1.372 13.73 4.525 17.775 6.928a7.12 7.12 0 0 0 7.27 0c4.046-2.403 10.413-5.556 17.775-6.928 3.39-.632 5.852-3.579 5.852-7.006V18.433c0-3.428-2.461-6.373-5.851-7.006z"/></g></svg>