<svg xmlns="http://www.w3.org/2000/svg" viewBox="0 0 496.47 492.48"><path d="M111.11 452.81c-7-6.57-15-12.46-22.12-19.63l-11.16-10.33-10.24-11.23C44 384.84 25.86 353.06 15.65 319c-1.86-6-2.75-10.22-5-13.68a93.06 93.06 0 0 0 5.25 20.1c3.25 9.58 7.42 19.5 11.1 27.75a107.73 107.73 0 0 0 9.79 20c3.84 6.28 7.44 12.83 12.21 18.6l11.17 14.47c21.07 26.58 48.17 48.28 80.62 65.53-8.47-4.91-17.83-11.45-24.51-15.08a35.47 35.47 0 0 1-5.17-3.88z" fill="#000000"/><path d="M8.69 307c-2.06-8-3.93-16.1-4.47-24.38q-.91-7.72-1.84-15.56l-.81-15.81c-1-10.57-.23-21.22.36-31.76.12-1.93 0-4.2-.66-3.24A265.61 265.61 0 0 0 21.8 347.39c-2.29-5.28-3.43-10.66-5.66-16.57A155.35 155.35 0 0 1 8.69 307z" fill="#000000"/><path d="M3.91 269.9c.66 2.79 1.45 7.19 2.12 6.47s.34-4.23-.25-7.63c-1-6.95-.87-13.77-1.1-20.71a153.06 153.06 0 0 1 .1-17.91c.17-3.58.11-6.9-.66-6.79s-1 4.36-1.21 7.45c-1.17 11.44.65 23 .27 33.3a30.82 30.82 0 0 0 .73 5.82zM420.92 415.67c-5.55 6.44-11.84 9.35-17.88 13.95a113.66 113.66 0 0 1-17.72 12.46c6.78-2.3 13.14-6.59 19.27-11.42 6.39-4.5 12.12-10 17.85-15.07.08-.07.35-.82.09-.81a5.9 5.9 0 0 0-1.61.89zM485.76 304.82c-6.13 20.09-14.42 39.6-26 57.1a227.19 227.19 0 0 1-40 48c-3.32 3.08-6.87 5.87-10.36 8.74a231.59 231.59 0 0 0 83.69-178.4c0-112.86-80.59-206.82-187.34-227.68-1.48-.32-3-.82-4.44-1.11-23.75-5.42-48.38-4.55-72.38-2.12-8.53 1-17.2 2.16-25.64 4.65a148.74 148.74 0 0 0-25.07 8.11c-7.87 2.68-15.07 6.19-21.64 7.72 7.3-3.83 14.65-7.49 22.42-10.09a141.51 141.51 0 0 1 23.39-7.4C238 3.41 275.87 2.17 311.63 10.77a232.79 232.79 0 0 1 65.62 25.77c24.61 14.6 46.89 33.32 64.74 55.65a242.55 242.55 0 0 1 43.06 85.16c1.49 6.28 2.95 12.41 4.2 18.86.57 3.22 1.08 5.87 1.91 5.26.58-.44 1.29-.62.5-4.93-1.31-7.17-2.66-13.48-4.18-20.4-7.58-28.2-20.1-55.2-38-78.71-6.33-9.18-14.27-17.07-21.6-25.42C412.49 56.9 396 43 376.68 32.4A277.84 277.84 0 0 0 305.63 6C288.77 2.59 271 .76 253.85 1.8l-18.39 1.13-17.89 2.45a210.25 210.25 0 0 0-42.47 11.75 96.45 96.45 0 0 0-14.86 6.61 1.85 1.85 0 0 0-.42-1.67l-.35.05c7.57-3.93 15.76-6.34 23.73-9.34 6.21-2.57 12.79-3.91 19.27-5.63a113 113 0 0 1 19.76-3.84l14.37-1.93c4.91-.26 9.82-.66 14.56-1.38-5.45 0-10.94.12-16.37.69-8.69 1.44-17.74 2.5-26 4.14a207 207 0 0 0-58.6 20.09L150 25c-4.24 1.61-8.29 4.16-12.29 6.57-6.66 4-13.44 7.87-19.51 12.77C112 49 105.62 53.49 100.14 59c-7 6.56-8.48 5.88-9.92 5.82-2-.08 3-4.24 6.4-7.44 2.08-1.91 5-4.3 5.86-6.35-2 1.11-4.88 2.81-3.37.21 2.46-4.23-1.72-1.29-6.37 2.44a139.23 139.23 0 0 0-10.84 9.48 262.65 262.65 0 0 0-56.45 86.4A245.46 245.46 0 0 0 7.76 233.5c-.92 24 1 48.43 7.4 71.87a238 238 0 0 0 27.89 67 235.26 235.26 0 0 0 45.51 55.89 243.68 243.68 0 0 0 59.51 40.86c13.64 7 28.13 12.15 42.73 16.92 9.3 2.66 19.1 5.32 29 6.43v-.62c-5.14-.93-10.34-1.6-15.33-3.2a84.11 84.11 0 0 0-9.36-2.08 48.4 48.4 0 0 1-7.67-1.93c-13.32-5.24-27.11-10.26-40.21-17.15A243.75 243.75 0 0 1 80 417.59a276.19 276.19 0 0 1-42.86-60.68c-8.45-17.39-16.14-35.43-20.48-54.39-5.9-21.6-6.62-43.44-6.46-65.27a248.31 248.31 0 0 1 16.38-83.17c3.62-10.74 8.92-20.67 13.67-30.9 1.87-4 4.33-6.66 5.17-6.77 1.17 0-1 3.72-2.72 7.11L33 145.1c-2.58 7.46-5.34 14.81-8.39 22.08-3.17 10.59-6.56 21-7.37 31.91-.57 4.19-1.13 8.25-1.7 12.41-2 21-2.4 42.18.64 63.15a244.73 244.73 0 0 0 34.26 96.83c8.52 14.09 18.09 27.64 30.7 40.27a127.71 127.71 0 0 0-11.38-13.94 249.83 249.83 0 0 1-30.86-49.58c-11.74-23-18-47.84-21.38-73.44-4.08-28.59-2.58-57.84 3.23-86.17 1.31-5.23 3.1-13.69 4.57-13.15 1.29.46-1.22 8.15-2.44 12.83A245.6 245.6 0 0 0 53 369.18c15 24.55 33.89 46.82 56.89 64.52 7.61 5.66 15.07 11.62 23.39 16.28a246.07 246.07 0 0 0 96.1 33.92c16.62 2.21 33.62 2.1 50.27 1.61 5.51.14 9.86-1.11 14.53-2.13-1.82-1.25-5.92-.44-11.09-.21-6.78.37-13.83.88-20.34.9-30.69-1.24-61.88-6.43-90.6-18-6.09-2-11.67-5.18-17.46-7.9a127.8 127.8 0 0 1-16.81-9.17l-4.37-2.7c-4.11-2.56-8.33-4.94-12.08-8-10.66-9.49-22.23-19.36-32.94-30.15 2.93 3.2 6.47 5.6 10.23 8.53l2.8 2.06c8.61 8.25 18.59 14.85 28 22.08a39.69 39.69 0 0 0 5.22 3c4 1.65 6.42 3.31 10.42 6.29 7.7 5.12 18.14 9.23 20.59 8.94 1.12-.18 2.59.52 4.15.84l17 6.39c1.18.65 2.55 1.31 2.31 2-.34.94 3.86 2.17 7.66 3.12 2.54.62 6.07 1.41 6 .78s.55-.84 1.29-1a112.4 112.4 0 0 0 18.48 3.79v-.62c-4.22-.87-8.54-1.17-12.65-2.54 2.81.78 6 1.25 8.5 1.68l17.91 2.87 18.08 1c30.94 1.21 62.08-4.38 91.22-14.86 8.25-2.44 15.87-6.85 23.67-10.55 4.18-1.89 7.61-4.14 9.19-6.39 2.92-4.43 10.93-8.52 18.35-14.23 4.83-3.59 9.84-7 14.54-10.73L425 408.45c25.74-24.87 45.15-55.88 57.7-89.32 2.78-6.5 4.34-14.11 6.25-20.11 7-19.19 6.18-39.09 7.57-58.74-1.52 21.87-4.22 43.62-10.76 64.54zM335.32 460c4.91-1.66 9.79-3.35 14.54-5.32l-.31.14c-4.68 1.86-9.44 3.57-14.23 5.18zm33.22-14.15c-.32.17-.65.3-1 .47.35-.18.68-.32 1-.48zm12.77-7.37c2.34-1.42 4.73-2.76 7-4.26-2.31 1.48-4.65 2.84-7 4.25zm13.94-9.1c4.36-3.1 8.72-6.22 12.85-9.61-4.17 3.36-8.46 6.53-12.85 9.6z" fill="#000000"/></svg>