<svg xmlns="http://www.w3.org/2000/svg" viewBox="0 0 844.95 463.26"><path d="M702.18 463.26H142.36c-10.68-.57-31.21-7.7-32.49-30.62a44.25 44.25 0 0 1 3.46-18.78c-3.3 3-7.64 6.18-13.83 6.18-24.92 0-44.85-64.75-48.59-77.73C37.82 296.9 4.76 239.82 4.42 239.25L0 231.63 4.42 224c.34-.58 33.41-57.68 46.49-103 3.74-13 23.68-77.73 48.59-77.73 6.18 0 10.53 3.18 13.83 6.18a44.25 44.25 0 0 1-3.46-18.78C111.15 7.72 131.68.59 142.36 0h560.22c10.69.57 31.22 7.7 32.49 30.62a44.11 44.11 0 0 1-3.45 18.78c3.3-3 7.64-6.18 13.83-6.18C770.36 43.24 790.3 108 794 121c13 45.1 46.15 102.47 46.49 103l4.42 7.61-4.42 7.61c-.33.57-33.54 58.1-46.49 103.05-3.74 13-23.68 77.73-48.59 77.73-6.19 0-10.54-3.18-13.83-6.18a44.11 44.11 0 0 1 3.45 18.78c-1.27 22.92-21.8 30.05-32.49 30.62zM142.9 450.48h559c.8 0 19.46-1.23 20.43-18.58.35-6.34-1.88-11.74-3.85-16.5-3-7.33-5-12.18 3-17.54 6.52-4.33 11.39-.47 17.1 5 2.83 2.71 4.67 4.38 6.85 4.38 6.94 0 23.43-23.81 36.32-68.51 13.39-46.43 47.37-105.33 47.71-105.92l.7-1.2-.69-1.2c-.34-.59-34.28-59.31-47.72-105.92C768.88 79.81 752.39 56 745.45 56c-2.18 0-4 1.67-6.85 4.38-5.71 5.49-10.6 9.35-17.1 5-8-5.36-6-10.2-3-17.54 2-4.76 4.2-10.15 3.85-16.5-.95-16.74-18.35-18.43-20.3-18.56H142.87c-.62 0-19.29 1.24-20.25 18.58-.35 6.35 1.88 11.74 3.85 16.5 3 7.34 5 12.18-3 17.54-6.5 4.33-11.38.48-17.09-5-2.86-2.73-4.7-4.4-6.88-4.4-7 0-23.43 23.81-36.32 68.51C49.78 171 15.79 229.86 15.45 230.45l-.69 1.18.7 1.2c.33.57 34.32 59.47 47.72 105.92 12.88 44.7 29.37 68.51 36.32 68.51 2.18 0 4-1.67 6.85-4.38 5.71-5.49 10.59-9.34 17.09-5 8.06 5.36 6.06 10.21 3 17.54-2 4.76-4.2 10.16-3.85 16.5.96 16.74 18.41 18.43 20.31 18.56z" fill="#000000"/><path d="M143.44 441.18h-.13c-5.27-.4-11-3.18-11.38-9.78-.24-4.23 1.41-8.21 3.15-12.42 3.17-7.67 8-19.25-6.47-28.86-11.74-7.82-21.45-.84-27.73 5.09l-1.43 1.36-1.24-1.57c-3.33-4.14-15.06-20.63-26.08-58.85-11.81-41-38.29-89.7-46.12-103.65l-.5-.89.5-.89c7.83-14 34.31-62.65 46.12-103.65 11-38.22 22.75-54.71 26.08-58.85l1.24-1.54 1.43 1.36c6.28 5.93 16 12.91 27.72 5.09 14.44-9.6 9.65-21.19 6.48-28.86-1.74-4.21-3.39-8.19-3.15-12.42.36-6.5 6.12-9.31 11.39-9.78H701.5c5.4.4 11.15 3.18 11.52 9.78.23 4.22-1.41 8.19-3.15 12.4-3.18 7.69-8 19.28 6.47 28.88 11.75 7.82 21.45.84 27.72-5.09l1.44-1.36 1.24 1.54c3.33 4.14 15 20.63 26.07 58.85 11.81 41 38.29 89.69 46.13 103.65l.5.89-.5.89c-7.84 14-34.32 62.68-46.13 103.65-11 38.22-22.74 54.71-26.07 58.85l-1.24 1.54-1.44-1.36c-6.28-5.93-16-12.9-27.72-5.09-14.43 9.61-9.65 21.19-6.47 28.86 1.74 4.23 3.38 8.2 3.15 12.42-.36 6.5-6.12 9.31-11.4 9.78zm.08-3.65h557.94c1.66-.16 7.63-1.09 7.92-6.34.19-3.39-1.3-7-2.88-10.81-3.19-7.71-9.11-22 7.82-33.31 14-9.29 25.57-.58 30.77 4.11 4.28-5.84 14.46-22.19 24.22-56 11.67-40.51 37.49-88.4 45.94-103.53-8.45-15.13-34.26-63-45.94-103.53-9.76-33.83-19.94-50.17-24.22-56-5.19 4.69-16.8 13.41-30.77 4.11-16.93-11.27-11-25.59-7.83-33.29 1.59-3.83 3.08-7.44 2.89-10.83-.3-5.34-6.21-6.2-8-6.34h-557.9c-1.66.16-7.62 1.09-7.91 6.34-.19 3.4 1.3 7 2.88 10.83 3.18 7.7 9.1 22-7.82 33.29-14 9.3-25.58.58-30.77-4.11-4.28 5.85-14.47 22.19-24.22 56-11.64 40.52-37.5 88.39-45.95 103.51 8.45 15.12 34.26 63 46 103.53 9.75 33.83 19.94 50.18 24.22 56 5.19-4.69 16.8-13.41 30.77-4.11 16.92 11.27 11 25.59 7.82 33.29-1.58 3.82-3.07 7.43-2.88 10.83.24 5.3 6.02 6.2 7.9 6.36z" fill="#000000"/></svg>