<svg viewBox="0 0 88 94" xmlns="http://www.w3.org/2000/svg"><path d="M55 3.35l21.301 12.3a22 22 0 0 1 11 19.052v24.596a22 22 0 0 1-11 19.053L55 90.649a22 22 0 0 1-22 0L11.699 78.351a22 22 0 0 1-11-19.053V34.702a22 22 0 0 1 11-19.053L33 3.351a22 22 0 0 1 22 0zm-2.5 4.331a17 17 0 0 0-16.655-.194l-.345.194-21.301 12.298A17 17 0 0 0 5.703 34.33l-.004.372v24.596a17 17 0 0 0 8.18 14.534l.32.189L35.5 86.319a17 17 0 0 0 16.655.194l.345-.194 21.301-12.298a17 17 0 0 0 8.496-14.351l.004-.372V34.702a17 17 0 0 0-8.18-14.534l-.32-.189L52.5 7.681z" fill="#333"/></svg>