<svg viewBox="0 0 82 82" xmlns="http://www.w3.org/2000/svg"><path d="M56.556 6.556l18.888 18.888c8.591 8.591 8.591 22.52 0 31.112L56.556 75.444c-8.591 8.591-22.52 8.591-31.112 0L6.556 56.556c-8.591-8.591-8.591-22.52 0-31.112L25.444 6.556c8.591-8.591 22.52-8.591 31.112 0zm-3.535 3.536C46.469 3.54 35.9 3.454 29.243 9.833l-.264.259-18.887 18.887C3.54 35.531 3.454 46.1 9.833 52.757l.259.264 18.887 18.887c6.552 6.552 17.12 6.638 23.778.259l.264-.259 18.887-18.887c6.552-6.552 6.638-17.12.259-23.778l-.259-.264-18.887-18.887z" fill="#333"/></svg>