<svg viewBox="0 0 65 52" xmlns="http://www.w3.org/2000/svg"><path d="M32.5 0C50.42 0 65 11.579 65 25.811S50.42 51.623 32.5 51.623 0 40.043 0 25.811C0 11.58 14.58 0 32.5 0zm0 2.876c-7.758 0-15.09 2.309-20.652 6.525-2.854 2.163-5.077 4.7-6.587 7.482-1.51 2.78-2.305 5.806-2.305 8.928 0 3.123.795 6.148 2.305 8.929 1.51 2.781 3.733 5.32 6.587 7.483 5.563 4.214 12.894 6.524 20.652 6.524 7.758 0 15.09-2.31 20.652-6.524 2.854-2.164 5.077-4.702 6.587-7.483 1.51-2.78 2.305-5.806 2.305-8.929 0-3.122-.795-6.148-2.305-8.928-1.51-2.782-3.733-5.319-6.587-7.482-5.427-4.114-12.537-6.41-20.085-6.521l-.567-.004zm0 .959c7.57 0 14.702 2.257 20.073 6.33 2.757 2.09 4.885 4.526 6.323 7.175 1.438 2.65 2.188 5.512 2.189 8.471 0 2.96-.751 5.822-2.189 8.471-1.438 2.65-3.566 5.085-6.323 7.175-5.371 4.073-12.504 6.33-20.073 6.33-7.57 0-14.702-2.257-20.073-6.33-2.757-2.09-4.885-4.525-6.323-7.175-1.438-2.65-2.188-5.511-2.189-8.47 0-2.96.75-5.822 2.189-8.472 1.438-2.649 3.566-5.084 6.323-7.175 5.237-3.972 12.148-6.217 19.506-6.326l.567-.004z" fill="#000" fill-rule="evenodd"/></svg>