<svg xmlns="http://www.w3.org/2000/svg" xlink="http://www.w3.org/1999/xlink" viewBox="0 0 171.95 110.51"><defs><linearGradient id="a018d94b9-9ed6-4b9d-944e-d496d0f70f1a" x1="-573.57" y1="-329.19" x2="-686.29" y2="-233.6" gradientTransform="rotate(130.3 -354.604 56.288)" gradientUnits="userSpaceOnUse"><stop offset="0" stop-color="#f69b88"/><stop offset="1" stop-color="#ffbaba"/></linearGradient><linearGradient id="bc086984b-bfa5-4801-b652-ff6b16d56564" x1="12.12" y1="60.42" x2="238.99" y2="60.42" gradientUnits="userSpaceOnUse"><stop offset="0" stop-color="#ffbaba" stop-opacity="0"/><stop offset="1" stop-color="#ffbaba"/></linearGradient><linearGradient id="c92cf6f18-bc4c-4f0a-aa9a-4ae7bfd4f912" x1="106.11" y1="332.06" x2="-86.13" y2="241.07" gradientTransform="rotate(154.67 90.843 185.137)" gradientUnits="userSpaceOnUse"><stop offset="0" stop-color="#f69b88"/><stop offset=".09" stop-color="#f69b88" stop-opacity=".96"/><stop offset=".23" stop-color="#f69b88" stop-opacity=".86"/><stop offset=".41" stop-color="#f69b88" stop-opacity=".7"/><stop offset=".62" stop-color="#f69b88" stop-opacity=".48"/><stop offset=".85" stop-color="#f69b88" stop-opacity=".2"/><stop offset="1" stop-color="#f69b88" stop-opacity="0"/></linearGradient><linearGradient id="d0244e4cb-61c6-4acd-952d-01b7fb159d1a" x1="101.97" y1="40.8" x2="92.19" y2="14.77" gradientTransform="rotate(-24.39 35.845 137.352)" href="#a018d94b9-9ed6-4b9d-944e-d496d0f70f1a"/></defs><path d="M148.79 44.51c16.75 21.07 20.52 55.38-6 60.68-22.12 4.42-37.93-18.26-61.68-8C28.42 120.11-4.77 75.14.56 52.46c8-33.82 54.72-20.89 56.71-35.81 4.57-34.3 60.73-10.94 91.52 27.86z" opacity=".8" fill="url(#a018d94b9-9ed6-4b9d-944e-d496d0f70f1a)"/><path d="M11.5 65.4C3.57 45.56 22.86 14.85 59.26 17.65c38.79 3 78.59 3 100.47 31.83 17 22.42 24.87 56.7-35.81 53.72-47.37-2.33-94.51 6.96-112.42-37.8z" opacity=".57" fill="url(#bc086984b-bfa5-4801-b652-ff6b16d56564)"/><path d="M153.77 27.4c14.11 16 18.24 61.84-17.91 66.85s-75.61 26.86-106.45 10C4.74 90.67.14 47.87 56.27 24.61c43.82-18.16 69.64-28.85 97.5 2.79z" opacity=".49" fill="url(#c92cf6f18-bc4c-4f0a-aa9a-4ae7bfd4f912)"/><circle cx="44.79" cy="10.7" r="9.95" fill="url(#d0244e4cb-61c6-4acd-952d-01b7fb159d1a)"/></svg>