<svg xmlns="http://www.w3.org/2000/svg" viewBox="0 0 20.36 11.26"><path d="M18.38 11.26H2v-.15A1.84 1.84 0 0 0 .15 9.27H0V2h.15A1.85 1.85 0 0 0 2 .15V0h16.38v.15A1.84 1.84 0 0 0 20.22 2h.14v7.27h-.14a1.84 1.84 0 0 0-1.84 1.84v.15zM2.27 11h15.82a2.15 2.15 0 0 1 2-2V2.27a2.13 2.13 0 0 1-2-2H2.27a2.13 2.13 0 0 1-2 2V9a2.15 2.15 0 0 1 2 2z" fill="#000000"/><path d="M17.77 10.59H2.6A2.48 2.48 0 0 0 .69 8.67V2.6A2.5 2.5 0 0 0 2.59.69h15.18a2.51 2.51 0 0 0 1.9 1.9v6.07a2.5 2.5 0 0 0-1.9 1.89zm-15.12-.07h15.06a2.59 2.59 0 0 1 1.92-1.92V2.65A2.57 2.57 0 0 1 17.71.73H2.65A2.57 2.57 0 0 1 .73 2.65V8.6a2.59 2.59 0 0 1 1.92 1.92z" fill="#000000"/></svg>