<svg xmlns="http://www.w3.org/2000/svg" viewBox="0 0 1022.5 726.54"><path d="M511.26 726.54a363.86 363.86 0 0 1-228.32-80.7H172.22l-83.06-87.69v-36.72C30.81 475 0 420.39 0 363.26S30.81 251.55 89.16 205.1v-36.71l83.06-87.69h110.72a363.31 363.31 0 0 1 456.62 0h110.72l83.07 87.68v36.72c58.35 46.44 89.15 101 89.15 158.16S991.7 475 933.35 521.44v36.71l-83.06 87.69H739.56a363.8 363.8 0 0 1-228.3 80.7zm-329.4-103.08H291l3.11 2.56a340.9 340.9 0 0 0 434.35 0l3.1-2.56h109.09L911 549.23v-38.75l4.36-3.36c55.47-42.78 84.79-92.52 84.79-143.86s-29.32-101.07-84.8-143.85l-4.35-3.36V177.3l-70.31-74.21H731.53l-3.1-2.57a340.9 340.9 0 0 0-434.35 0l-3.08 2.57H181.85l-70.3 74.22v38.75l-4.36 3.36c-55.48 42.78-84.8 92.52-84.8 143.84s29.32 101.08 84.8 143.86l4.36 3.36v38.75z" fill="#000000"/><path d="M511.26 685.12a322.26 322.26 0 0 1-205-73.76l-8.39-6.94H190l-59.46-62.78v-40.52l-11.77-9.07c-35.3-27.23-77.39-71.67-77.39-128.79s42.09-101.55 77.39-128.77l11.77-9.08v-40.52L190 122.12h107.82l8.39-6.94a321.87 321.87 0 0 1 410.08 0l8.39 6.94h107.79l59.46 62.77v40.52l11.76 9.07c35.31 27.23 77.39 71.67 77.39 128.78S939 464.83 903.69 492.05l-11.76 9.07v40.52l-59.46 62.78h-107.8l-8.38 6.94a322.21 322.21 0 0 1-205.03 73.76zm-318.32-87.41h107.3l10.25 8.48a315.18 315.18 0 0 0 401.52 0l10.25-8.48h107.32L885.21 539v-41.18l14.38-11.09c34.12-26.3 74.78-69.07 74.78-123.47s-40.67-97.15-74.78-123.46l-14.38-11.09v-41.15l-55.63-58.73H722.26L712 120.35a315.18 315.18 0 0 0-401.52 0l-10.25 8.48h-107.3l-55.63 58.74v41.15l-14.38 11.09c-34.12 26.3-74.78 69.07-74.78 123.45s40.66 97.16 74.78 123.47l14.38 11.09V539z" fill="#000000"/></svg>