<svg xmlns="http://www.w3.org/2000/svg" viewBox="0 0 1224.26 361.66"><path d="M1159.31 267.33s-11 11.24-21.59 17.5H86.54C76 278.57 65 267.33 65 267.33S21.38 288.7 0 288.7c21.38 0 65 21.37 65 21.37s11.43-11.47 22.2-17.51h1049.86c10.77 6 22.25 17.51 22.25 17.51s43.57-21.37 65-21.37c-21.43 0-65-21.37-65-21.37zM576.27 312.88a54.82 54.82 0 0 0-18.72-1.88c-1.64.06-3.28.29-4.94.46s-3.32.48-5 .84a97.64 97.64 0 0 0-10 2.49 191 191 0 0 0-19.83 7.43c-6.58 2.8-13.18 5.73-20 8.3a107 107 0 0 1-20.29 5.76c-1.68.31-3.37.49-5.05.69s-3.31.22-5 .23-3.3-.09-4.94-.24-3.25-.39-4.85-.68a46.59 46.59 0 0 1-17.59-7 32.85 32.85 0 0 1-11.71-13.74 29.67 29.67 0 0 0 3.65 8.51 32.19 32.19 0 0 0 2.87 3.89 36.11 36.11 0 0 0 3.48 3.52 45.7 45.7 0 0 0 18.33 9.54c1.72.46 3.48.85 5.26 1.16s3.6.5 5.43.62 3.7.13 5.56.05 3.69-.23 5.53-.49a94.92 94.92 0 0 0 21.72-5.69c7.05-2.68 13.7-5.8 20.14-8.84s12.66-6 18.91-8.43c3.12-1.23 6.23-2.35 9.34-3.28 1.55-.5 3.11-.88 4.66-1.31s3.11-.76 4.66-1a62.1 62.1 0 0 1 18.38-.91z" fill="#000000"/><path d="M537.45 339.27a31.33 31.33 0 0 0-16.3-2.9 58.15 58.15 0 0 0-17.43 4.27c-5.69 2.25-11.21 5.07-16.8 7.63-2.8 1.27-5.62 2.48-8.49 3.51-.72.26-1.44.49-2.16.74l-2.19.6-2.2.61c-.75.16-1.5.29-2.25.44a67.78 67.78 0 0 1-62.41-21.43 58.24 58.24 0 0 0 25.33 22.83 63.65 63.65 0 0 0 18.29 5.43 60.64 60.64 0 0 0 20-.47c.84-.17 1.68-.31 2.51-.5l2.46-.7 2.45-.72c.79-.29 1.59-.55 2.36-.86a90.62 90.62 0 0 0 8.91-4.05c5.68-2.92 10.91-6.06 16.13-8.71a65.08 65.08 0 0 1 15.83-5.91 33.2 33.2 0 0 1 15.96.19z" fill="#000000"/><path d="M443.56 345a47.35 47.35 0 0 1-16.91-12.23 70.71 70.71 0 0 1-6.52-9.13c-2.1-3.32-4.23-6.87-6.91-10.33a40.3 40.3 0 0 0-9.47-9 41.24 41.24 0 0 0-11.26-5.31 37.85 37.85 0 0 0-22.09-.09 48.85 48.85 0 0 1 29.76 10.34c.73.58 1.43 1.2 2.14 1.8s1.38 1.27 2 1.95a48.48 48.48 0 0 1 3.75 4.35c2.4 3.11 4.61 6.48 7 9.77a52.63 52.63 0 0 0 8.17 9.14 37.22 37.22 0 0 0 20.34 8.74zM537.28 329.82a52.26 52.26 0 0 1 28.62-5.53 49.69 49.69 0 0 1 7.58 1.31c1.23.35 2.5.69 3.69 1.12a31.82 31.82 0 0 1 3.49 1.49 18.58 18.58 0 0 1 5.77 4.3 10.43 10.43 0 0 1 2.63 5.92 11.87 11.87 0 0 1-1.3 6.52 13 13 0 0 1-4.6 4.9 15.86 15.86 0 0 1-6.53 2.32 11.07 11.07 0 0 1-6.34-1 5.36 5.36 0 0 1-3.09-4.46 8 8 0 0 1 2.25-5.74 10.7 10.7 0 0 1 5.95-3 18.91 18.91 0 0 1 7 .18 18.29 18.29 0 0 0-7.15-1.65 12.31 12.31 0 0 0-7.67 2.4 11.36 11.36 0 0 0-2.89 3.3 10.37 10.37 0 0 0-1.41 4.43 9 9 0 0 0 1 4.91 10.32 10.32 0 0 0 3.42 3.73 15.62 15.62 0 0 0 9.28 2.46 20.75 20.75 0 0 0 9.22-2.62 18.45 18.45 0 0 0 7.14-7.1 17.66 17.66 0 0 0 2.16-10.18 16 16 0 0 0-1.42-5.22 17.82 17.82 0 0 0-2.93-4.36 23.49 23.49 0 0 0-8-5.52 32.17 32.17 0 0 0-4.3-1.56c-1.45-.42-2.88-.7-4.31-1a47.88 47.88 0 0 0-8.55-.7 46 46 0 0 0-28.71 10.35zM648 312.88a54.82 54.82 0 0 1 18.71-1.88c1.65.06 3.28.29 4.94.46s3.32.48 5 .84a97.47 97.47 0 0 1 10 2.49 190.17 190.17 0 0 1 19.83 7.43c6.58 2.8 13.19 5.73 20 8.3a107 107 0 0 0 20.29 5.76c1.68.31 3.37.49 5.05.69s3.31.22 5 .23 3.3-.09 4.94-.24 3.25-.39 4.85-.68a46.59 46.59 0 0 0 17.59-7 32.85 32.85 0 0 0 11.71-13.74 29.67 29.67 0 0 1-3.65 8.51 32.19 32.19 0 0 1-2.87 3.89 36.11 36.11 0 0 1-3.48 3.52 45.7 45.7 0 0 1-18.33 9.54q-2.58.69-5.26 1.16c-1.79.28-3.6.5-5.43.62s-3.69.13-5.56.05-3.69-.23-5.53-.49a94.71 94.71 0 0 1-21.71-5.69c-7.06-2.68-13.71-5.8-20.15-8.84s-12.66-6-18.91-8.43c-3.12-1.23-6.23-2.35-9.34-3.28-1.55-.5-3.11-.88-4.66-1.31s-3.11-.76-4.66-1a62.1 62.1 0 0 0-18.37-.91z" fill="#000000"/><path d="M686.81 339.27a31.33 31.33 0 0 1 16.3-2.9 58.15 58.15 0 0 1 17.43 4.27c5.69 2.25 11.21 5.07 16.8 7.63 2.8 1.27 5.62 2.48 8.49 3.51.72.26 1.44.49 2.16.74l2.19.6 2.2.61c.75.16 1.5.29 2.25.44A67.78 67.78 0 0 0 817 332.74a58.19 58.19 0 0 1-25.33 22.83 63.65 63.65 0 0 1-18.25 5.43 60.64 60.64 0 0 1-20-.47c-.84-.17-1.68-.31-2.51-.5l-2.46-.7-2.45-.72c-.79-.29-1.59-.55-2.36-.86a90.62 90.62 0 0 1-8.91-4.05c-5.68-2.92-10.91-6.06-16.13-8.71a65.08 65.08 0 0 0-15.83-5.91 33.2 33.2 0 0 0-15.96.19z" fill="#000000"/><path d="M780.7 345a47.47 47.47 0 0 0 16.92-12.23 71.68 71.68 0 0 0 6.52-9.13c2.09-3.32 4.23-6.87 6.9-10.33a40.3 40.3 0 0 1 9.47-9 41.24 41.24 0 0 1 11.26-5.31 37.85 37.85 0 0 1 22.09-.09 48.85 48.85 0 0 0-29.76 10.34c-.73.58-1.42 1.2-2.14 1.8s-1.38 1.27-2 1.95a50.15 50.15 0 0 0-3.75 4.35c-2.4 3.11-4.61 6.48-7 9.77a53.1 53.1 0 0 1-8.18 9.14A37.19 37.19 0 0 1 780.7 345zM687 329.82a52.24 52.24 0 0 0-28.62-5.53 49.35 49.35 0 0 0-7.57 1.31c-1.24.35-2.51.69-3.7 1.12a31.82 31.82 0 0 0-3.49 1.49 18.7 18.7 0 0 0-5.77 4.3 10.43 10.43 0 0 0-2.63 5.92 11.87 11.87 0 0 0 1.3 6.52 13 13 0 0 0 4.6 4.9 15.86 15.86 0 0 0 6.53 2.32 11.12 11.12 0 0 0 6.35-1 5.34 5.34 0 0 0 3.08-4.46 8 8 0 0 0-2.25-5.74 10.7 10.7 0 0 0-5.95-3 18.91 18.91 0 0 0-7 .18 18.29 18.29 0 0 1 7.15-1.65 12.31 12.31 0 0 1 7.67 2.4 11.36 11.36 0 0 1 2.89 3.3 10.37 10.37 0 0 1 1.41 4.43 9 9 0 0 1-1 4.91 10.38 10.38 0 0 1-3.41 3.73 15.67 15.67 0 0 1-9.29 2.46 20.75 20.75 0 0 1-9.22-2.62 18.51 18.51 0 0 1-7.14-7.1 17.66 17.66 0 0 1-2.16-10.18 16 16 0 0 1 1.42-5.22 17.82 17.82 0 0 1 2.93-4.36 23.49 23.49 0 0 1 8-5.52 32.17 32.17 0 0 1 4.3-1.56c1.45-.42 2.88-.7 4.31-1a47.88 47.88 0 0 1 8.55-.7A46 46 0 0 1 687 329.82zM65 94.33s11-11.24 21.54-17.51h1051.18c10.58 6.27 21.59 17.51 21.59 17.51s43.57-21.37 65-21.37c-21.38 0-65-21.37-65-21.37s-11.48 11.46-22.25 17.51H87.2C76.43 63.05 65 51.59 65 51.59S21.38 73 0 73c21.38 0 65 21.33 65 21.33zM648 48.78a54.82 54.82 0 0 0 18.72 1.87c1.65-.07 3.28-.29 4.94-.47s3.32-.48 5-.83a97.53 97.53 0 0 0 10-2.5 187.86 187.86 0 0 0 19.83-7.42c6.58-2.8 13.19-5.73 20-8.31a108.46 108.46 0 0 1 20.29-5.76c1.68-.31 3.37-.48 5.05-.68s3.31-.23 5-.23 3.3.09 4.94.24 3.25.39 4.85.68a46.43 46.43 0 0 1 17.59 7 32.76 32.76 0 0 1 11.71 13.73 29.73 29.73 0 0 0-3.65-8.5 30.69 30.69 0 0 0-2.87-3.89 36.11 36.11 0 0 0-3.48-3.52 45.71 45.71 0 0 0-18.21-9.55c-1.72-.46-3.47-.85-5.26-1.15s-3.6-.5-5.43-.62a54.2 54.2 0 0 0-5.56 0c-1.84.12-3.69.23-5.53.49A95.2 95.2 0 0 0 724.09 25c-7.06 2.69-13.71 5.81-20.15 8.85s-12.66 6-18.91 8.43c-3.12 1.22-6.23 2.35-9.34 3.28-1.55.5-3.11.88-4.66 1.31s-3.11.75-4.66 1a62.1 62.1 0 0 1-18.37.91z" fill="#000000"/><path d="M686.81 22.39a31.22 31.22 0 0 0 16.3 2.89A58.13 58.13 0 0 0 720.54 21c5.69-2.25 11.21-5.07 16.8-7.63 2.8-1.27 5.62-2.48 8.49-3.51.72-.27 1.44-.49 2.16-.74l2.19-.6 2.2-.61c.75-.17 1.5-.29 2.25-.44A67.72 67.72 0 0 1 817 28.92a58.15 58.15 0 0 0-25.29-22.84A64.28 64.28 0 0 0 773.42.61a60.38 60.38 0 0 0-20 .48c-.84.16-1.68.31-2.51.5l-2.46.7L746 3c-.79.28-1.59.55-2.36.86a90.62 90.62 0 0 0-8.91 4.05c-5.73 2.93-10.95 6.09-16.17 8.72a65.08 65.08 0 0 1-15.83 5.91 33.33 33.33 0 0 1-15.92-.15z" fill="#000000"/><path d="M780.7 16.65a47.44 47.44 0 0 1 16.92 12.22 73.13 73.13 0 0 1 6.52 9.13c2.09 3.33 4.23 6.88 6.9 10.34a40.5 40.5 0 0 0 9.47 9 41.24 41.24 0 0 0 11.26 5.34 37.85 37.85 0 0 0 22.09.09 48.46 48.46 0 0 1-20.4-4.6 47.79 47.79 0 0 1-9.36-5.75c-.73-.57-1.42-1.2-2.14-1.79s-1.38-1.27-2-1.95a51.69 51.69 0 0 1-3.75-4.35c-2.4-3.11-4.61-6.48-7-9.77a53.54 53.54 0 0 0-8.21-9.13 37.17 37.17 0 0 0-20.3-8.78zM687 31.84a52.33 52.33 0 0 1-28.62 5.53 49.35 49.35 0 0 1-7.57-1.31c-1.24-.35-2.51-.69-3.7-1.12a30.05 30.05 0 0 1-3.49-1.5 18.52 18.52 0 0 1-5.77-4.29 10.43 10.43 0 0 1-2.63-5.92 11.87 11.87 0 0 1 1.3-6.52 12.86 12.86 0 0 1 4.6-4.9 15.72 15.72 0 0 1 6.53-2.32 11.2 11.2 0 0 1 6.35 1 5.37 5.37 0 0 1 3.06 4.51 8 8 0 0 1-2.25 5.75 10.7 10.7 0 0 1-5.95 3 19.35 19.35 0 0 1-7-.18 18.11 18.11 0 0 0 7.14 1.6 12.19 12.19 0 0 0 7.67-2.4 11.19 11.19 0 0 0 2.89-3.29 10.41 10.41 0 0 0 1.44-4.43 9 9 0 0 0-1-4.91 10.5 10.5 0 0 0-3.41-3.74 15.67 15.67 0 0 0-9.37-2.4A20.75 20.75 0 0 0 638 6.57a18.44 18.44 0 0 0-7.14 7.1 17.63 17.63 0 0 0-2.16 10.18 16.07 16.07 0 0 0 1.42 5.22 17.57 17.57 0 0 0 2.93 4.35A23.38 23.38 0 0 0 641 39a33.63 33.63 0 0 0 4.3 1.56c1.45.42 2.88.69 4.31 1a47 47 0 0 0 8.55.69A45.93 45.93 0 0 0 687 31.84zM576.27 48.78a54.82 54.82 0 0 1-18.72 1.87c-1.64-.07-3.28-.29-4.94-.47s-3.32-.48-5-.83a97.71 97.71 0 0 1-10-2.5 188.68 188.68 0 0 1-19.83-7.42c-6.58-2.8-13.18-5.73-20-8.31a108.46 108.46 0 0 0-20.29-5.76c-1.68-.31-3.37-.48-5.05-.68s-3.31-.23-5-.23-3.3.09-4.94.24-3.25.39-4.85.68a46.43 46.43 0 0 0-17.59 7 32.76 32.76 0 0 0-11.71 13.73 29.73 29.73 0 0 1 3.65-8.5 30.69 30.69 0 0 1 3-3.86 36.11 36.11 0 0 1 3.48-3.52 45.71 45.71 0 0 1 18.21-9.55c1.72-.46 3.48-.85 5.26-1.15s3.6-.5 5.43-.62a54.22 54.22 0 0 1 5.56 0c1.84.12 3.69.23 5.53.49A95.42 95.42 0 0 1 500.18 25c7.05 2.69 13.7 5.81 20.14 8.85s12.66 6 18.91 8.43c3.12 1.22 6.23 2.35 9.34 3.28 1.55.5 3.11.88 4.66 1.31s3.11.75 4.66 1a62.1 62.1 0 0 0 18.38.91z" fill="#000000"/><path d="M537.45 22.39a31.22 31.22 0 0 1-16.3 2.89A58.13 58.13 0 0 1 503.72 21c-5.69-2.25-11.21-5.07-16.8-7.63-2.8-1.27-5.62-2.48-8.49-3.51-.72-.27-1.44-.49-2.16-.74l-2.19-.6-2.2-.61c-.75-.17-1.5-.29-2.25-.44a67.72 67.72 0 0 0-62.41 21.43 58.2 58.2 0 0 1 25.33-22.82A64.28 64.28 0 0 1 450.84.61a60.38 60.38 0 0 1 20 .48c.84.16 1.68.31 2.51.5l2.46.7 2.49.71c.79.28 1.59.55 2.36.86a90.62 90.62 0 0 1 8.91 4.05c5.68 2.92 10.91 6.06 16.13 8.71a65.08 65.08 0 0 0 15.83 5.91 33.33 33.33 0 0 0 15.92-.14z" fill="#000000"/><path d="M443.56 16.65a47.32 47.32 0 0 0-16.91 12.22 72.12 72.12 0 0 0-6.52 9.13c-2.1 3.33-4.23 6.88-6.91 10.34a40.5 40.5 0 0 1-9.47 9 41.24 41.24 0 0 1-11.26 5.34 37.85 37.85 0 0 1-22.09.09 48.46 48.46 0 0 0 20.4-4.6 47.79 47.79 0 0 0 9.36-5.75c.73-.57 1.43-1.2 2.14-1.79s1.38-1.27 2-1.95a49.91 49.91 0 0 0 3.75-4.35c2.4-3.11 4.61-6.48 7-9.77a53.06 53.06 0 0 1 8.17-9.15 37.2 37.2 0 0 1 20.34-8.76zM537.28 31.84a52.35 52.35 0 0 0 28.62 5.53 49.69 49.69 0 0 0 7.58-1.31c1.23-.35 2.5-.69 3.69-1.12a30.05 30.05 0 0 0 3.49-1.5 18.4 18.4 0 0 0 5.77-4.29 10.43 10.43 0 0 0 2.63-5.92 11.87 11.87 0 0 0-1.3-6.52 12.86 12.86 0 0 0-4.6-4.9 15.72 15.72 0 0 0-6.53-2.32 11.15 11.15 0 0 0-6.34 1A5.38 5.38 0 0 0 567.2 15a8 8 0 0 0 2.25 5.75 10.7 10.7 0 0 0 5.95 3 19.35 19.35 0 0 0 7-.18 18.11 18.11 0 0 1-7.15 1.64 12.19 12.19 0 0 1-7.67-2.4 11.19 11.19 0 0 1-2.89-3.29 10.41 10.41 0 0 1-1.41-4.43 9 9 0 0 1 1-4.91 10.43 10.43 0 0 1 3.42-3.74A15.62 15.62 0 0 1 577 4a20.75 20.75 0 0 1 9.22 2.62 18.38 18.38 0 0 1 7.14 7.1 17.63 17.63 0 0 1 2.16 10.18 16.07 16.07 0 0 1-1.42 5.22 17.57 17.57 0 0 1-2.93 4.35 23.38 23.38 0 0 1-8 5.53 33.63 33.63 0 0 1-4.3 1.56c-1.45.42-2.88.69-4.31 1a47 47 0 0 1-8.55.69 45.93 45.93 0 0 1-28.73-10.41z" fill="#000000"/></svg>