<svg xmlns="http://www.w3.org/2000/svg" viewBox="0 0 199.99 162.87"><path d="M200 35.3c-.41-16.84-14.14-27.56-31.24-29.74A496.79 496.79 0 0 0 103.4 0h-6.81a496.79 496.79 0 0 0-65.34 5.56C14.15 7.74.42 18.46 0 35.3v92.28c.41 16.84 14.14 27.55 31.24 29.74a497.78 497.78 0 0 0 65.34 5.54H103.39a497.78 497.78 0 0 0 65.34-5.54c17.1-2.19 30.83-12.9 31.24-29.74.03-.51.03-91.77.03-92.28zm-7 92.16c-.39 14.57-13.23 21.39-25.13 22.91h-.3a491.82 491.82 0 0 1-64.23 5.44h-6.75a491.75 491.75 0 0 1-64.15-5.44h-.28C20.22 148.85 7.36 142 7 127.4v-92C7.36 20.86 20.22 14 32.14 12.5l.31-.05A495.58 495.58 0 0 1 96.67 7h6.73a495.31 495.31 0 0 1 64.14 5.44l.33.05C179.75 14 192.59 20.84 193 35.41v92.05z" fill="#000000"/><path d="M167 19.45l-.54-.08A484.31 484.31 0 0 0 103.37 14h-6.63a484.31 484.31 0 0 0-63.2 5.36l-.52.07c-4.37.56-18.65 3.37-19 16v91.82c.36 12.75 14.66 15.57 19 16.13l.48.07a482.4 482.4 0 0 0 63.06 5.36h6.66a483.69 483.69 0 0 0 63.28-5.37l.44-.06c4.36-.56 18.62-3.37 19-16.08V35.47C185.59 22.81 171.34 20 167 19.45zm16 107.89c-.32 10.26-12.63 12.63-16.4 13.11l-.47.07a482.61 482.61 0 0 1-62.89 5.34H96.6a480.9 480.9 0 0 1-62.6-5.32l-.51-.08C29.65 140 17.3 137.59 17 127.21V35.49c.3-10.21 12.63-12.59 16.4-13.07l.6-.09A482.67 482.67 0 0 1 96.77 17h6.59A483.44 483.44 0 0 1 166 22.33l.66.1c3.72.47 16 2.85 16.33 13.19.01 4.2.01 87.43.01 91.72z" fill="#000000"/></svg>