<svg viewBox="0 0 67 65" xmlns="http://www.w3.org/2000/svg"><g fill="#000" fill-rule="nonzero"><path d="M53.038 8.893C50.182 7.423 42.842 4.22 33.147 4.22c-10.226 0-17.203 3.142-19.872 4.587-.986 4.401-4.427 7.954-9.055 9.351v28.683c4.635 1.402 8.08 4.962 9.06 9.372 2.624 1.441 9.52 4.567 19.867 4.567 9.695 0 17.035-3.202 19.893-4.672 1.013-4.36 4.447-7.878 9.04-9.267V18.16c-4.593-1.39-8.027-4.908-9.042-9.268z"/><path d="M56.96 6.263S47.523 0 33.147 0C17.91 0 9.338 6.263 9.338 6.263c0 4.583-4.183 8.297-9.339 8.297L0 17.01v33.43c5.157 0 9.338 3.715 9.338 8.298 0 0 8.573 6.262 23.81 6.262 14.376 0 23.813-6.263 23.813-6.263 0-4.582 4.18-8.297 9.34-8.297V17.975L66.3 14.56c-5.16 0-9.34-3.714-9.34-8.297zm5.888 41.156l-.281.079c-4.519 1.269-7.897 4.698-8.816 8.95l-.037.176-.16.083c-2.788 1.455-10.357 4.84-20.406 4.84-10.733 0-17.837-3.321-20.393-4.749l-.153-.085-.035-.172c-.888-4.296-4.274-7.762-8.834-9.042l-.28-.08V17.58l.28-.079c4.553-1.277 7.936-4.735 8.83-9.025l.036-.173.154-.084c2.598-1.433 9.789-4.766 20.395-4.766 10.049 0 17.617 3.385 20.405 4.84l.159.084.037.176c.919 4.251 4.296 7.68 8.818 8.95l.28.08v29.836z"/></g></svg>