<svg viewBox="0 0 88 96" xmlns="http://www.w3.org/2000/svg"><path d="M51.5 2.33l28.301 16.34a15 15 0 0 1 7.5 12.99v32.68a15 15 0 0 1-7.5 12.99L51.5 93.67a15 15 0 0 1-15 0L8.199 77.33a15 15 0 0 1-7.5-12.99V31.66a15 15 0 0 1 7.5-12.99L36.5 2.33a15 15 0 0 1 15 0zM49 6.66a10 10 0 0 0-9.708-.162L39 6.66 10.699 23a10 10 0 0 0-4.995 8.336l-.005.324v32.68a10 10 0 0 0 4.722 8.493l.278.167L39 89.34a10 10 0 0 0 9.708.162L49 89.34 77.301 73a10 10 0 0 0 4.995-8.336l.005-.324V31.66a10 10 0 0 0-4.722-8.493L77.301 23 49 6.66z" fill="#333"/></svg>