<svg viewBox="0 0 66 65" xmlns="http://www.w3.org/2000/svg"><path d="M33.38 60.445c-15.434 0-27.945-12.512-27.945-27.945 0-15.434 12.51-27.945 27.945-27.945 15.433 0 27.944 12.511 27.944 27.945 0 15.433-12.51 27.945-27.944 27.945M63.137 38.42c.392-1.981 2.743-3.82 2.743-5.92 0-2.098-2.35-3.94-2.743-5.92-.403-2.044 1.055-4.641.275-6.521-.79-1.914-3.668-2.712-4.807-4.412-1.147-1.714-.793-4.675-2.247-6.129-1.45-1.453-4.412-1.097-6.125-2.243-1.698-1.14-2.499-4.017-4.412-4.808-1.88-.78-4.478.679-6.521.276C37.319 2.35 35.478 0 33.38 0c-2.099 0-3.937 2.35-5.92 2.743-2.044.403-4.642-1.056-6.521-.278-1.914.793-2.712 3.67-4.413 4.81-1.713 1.146-4.674.79-6.128 2.243-1.45 1.454-1.097 4.415-2.244 6.129-1.138 1.7-4.017 2.498-4.807 4.412-.78 1.88.681 4.477.276 6.52C3.23 28.562.88 30.403.88 32.5c0 2.102 2.35 3.94 2.743 5.92.405 2.045-1.056 4.64-.276 6.522.79 1.91 3.669 2.712 4.807 4.412 1.147 1.716.793 4.675 2.244 6.128 1.454 1.45 4.415 1.097 6.128 2.244 1.698 1.139 2.499 4.017 4.413 4.81 1.88.78 4.477-.681 6.52-.278 1.984.392 3.822 2.743 5.92 2.743 2.099 0 3.94-2.35 5.92-2.743 2.044-.403 4.642 1.058 6.522.278 1.91-.793 2.711-3.671 4.412-4.807 1.713-1.147 4.675-.793 6.125-2.247 1.454-1.453 1.1-4.412 2.247-6.128 1.139-1.7 4.017-2.501 4.807-4.412.78-1.88-.678-4.477-.275-6.521" fill="#000" fill-rule="evenodd"/></svg>