<svg xmlns="http://www.w3.org/2000/svg" viewBox="0 0 172.79 120"><path d="M169 60c0 10-4.14 19.08-10.54 23l-2.11 1.31v10.57l-69.96 20.26-69.94-20.26V84.36l-2.11-1.31c-6.4-4-10.53-13-10.53-23S7.94 40.93 14.34 37l2.11-1.31V25.12L86.39 4.86l69.94 20.26v10.52l2.11 1.36c6.4 3.93 10.56 13 10.56 23zm3.81 0c0 12.2-5.2 22.67-12.65 27.29v11.35L86.39 120 12.64 98.64V87.29C5.2 82.67 0 72.2 0 60s5.2-22.67 12.64-27.29V21.36L86.39 0l73.75 21.36v11.35c7.45 4.62 12.65 15.09 12.65 27.29zm-3.06 0c0-10.38-4.3-19.75-10.95-23.88l-1.7-1.06V24.38L86.48 3.93h-.09L15.7 24.38v10.68L14 36.12C7.36 40.25 3.06 49.62 3.06 60s4.3 19.75 11 23.89l1.69 1v10.73l70.61 20.45h.08l70.69-20.47V84.94l1.7-1c6.6-4.19 10.9-13.56 10.9-23.94z" fill="#000000"/></svg>