<svg xmlns="http://www.w3.org/2000/svg" viewBox="0 0 114.47 114.47"><path d="M104.45 0H10A10 10 0 0 0 0 10v94.43a10 10 0 0 0 10 10h94.43a10 10 0 0 0 10-10V10a10 10 0 0 0-9.98-10zm-71 10.73c-4 .14-7.93.17-11.9.25h-10.5v10.48c-.08 4-.12 7.93-.26 11.9-.22 7.93-.55 15.86-1.18 23.79-.63-7.93-1-15.86-1.19-23.79-.14-4-.17-7.93-.25-11.9V10a2 2 0 0 1 2-2h11.57c4 .08 7.93.11 11.9.25 7.93.22 15.86.55 23.79 1.19-8.13.73-16.06 1.06-23.99 1.29zM106.38 105a2 2 0 0 1-.89 1.19 2 2 0 0 1-.72.27 2.19 2.19 0 0 1-.33 0H92.99c-3.91-.08-7.81-.11-11.72-.25-7.82-.22-15.63-.56-23.45-1.19 7.82-.63 15.63-1 23.45-1.19 3.91-.14 7.81-.17 11.72-.25H103.42V93.21c.08-3.91.11-7.81.26-11.72.22-7.82.55-15.63 1.18-23.44.63 7.81 1 15.62 1.18 23.44.14 3.91.18 7.81.26 11.72V104.2a2.31 2.31 0 0 1 .08.8z" fill="#000000"/></svg>