<svg viewBox="0 0 65 65" xmlns="http://www.w3.org/2000/svg"><g fill="#000" fill-rule="evenodd"><path d="M32.56 61.715a9.574 9.574 0 0 1-6.811-2.821L6.166 39.31a9.571 9.571 0 0 1-2.82-6.81 9.571 9.571 0 0 1 2.82-6.81L25.748 6.106a9.57 9.57 0 0 1 6.811-2.82 9.57 9.57 0 0 1 6.811 2.82L58.955 25.69a9.57 9.57 0 0 1 2.82 6.81 9.571 9.571 0 0 1-2.82 6.81L39.37 58.894a9.572 9.572 0 0 1-6.811 2.82"/><path d="M32.5 1.095a11.745 11.745 0 0 0-8.36 3.463L4.558 24.14A11.744 11.744 0 0 0 1.095 32.5a11.743 11.743 0 0 0 3.462 8.36l19.584 19.582a11.745 11.745 0 0 0 8.359 3.462 11.743 11.743 0 0 0 8.36-3.462L60.441 40.86a11.743 11.743 0 0 0 3.462-8.36 11.744 11.744 0 0 0-3.462-8.359L40.86 4.558a11.744 11.744 0 0 0-8.36-3.463M32.5 65a12.834 12.834 0 0 1-9.132-3.784L3.782 41.634A12.835 12.835 0 0 1 0 32.5a12.832 12.832 0 0 1 3.784-9.133L23.366 3.784A12.832 12.832 0 0 1 32.499 0a12.83 12.83 0 0 1 9.134 3.784l19.583 19.583a12.832 12.832 0 0 1 3.783 9.132 12.83 12.83 0 0 1-3.783 9.134L41.633 61.217A12.832 12.832 0 0 1 32.5 65"/></g></svg>