<svg xmlns="http://www.w3.org/2000/svg" viewBox="0 0 170.08 170.08"><path d="M148.32 72V33.68a11.69 11.69 0 0 0-11.41-11.92H98.07l-13-13-13 13H33.16a11.69 11.69 0 0 0-11.4 11.92V72l-13 13 13 13v38.4a11.69 11.69 0 0 0 11.4 11.92H72l13 13 13-13h38.84a11.69 11.69 0 0 0 11.41-11.92V98.07l13-13z" fill="#000000"/><path d="M154.49 69.45V33.68a17.84 17.84 0 0 0-17.58-18.09h-36.28L85 0 69.45 15.59H33.16a17.84 17.84 0 0 0-17.57 18.09v35.77L0 85l15.59 15.59v35.81a17.84 17.84 0 0 0 17.57 18.09h36.29L85 170.08l15.59-15.59h36.28a17.84 17.84 0 0 0 17.58-18.09v-35.77L170.08 85zm-5.17 29v37.95a12.69 12.69 0 0 1-12.41 12.92H98.49L85 162.77l-13.41-13.45H33.16a12.68 12.68 0 0 1-12.4-12.92V98.49L7.31 85l13.45-13.41V33.68a12.68 12.68 0 0 1 12.4-12.92h38.43L85 7.31l13.49 13.45h38.42a12.69 12.69 0 0 1 12.41 12.92v37.91L162.77 85z" fill="#000000"/></svg>