<svg xmlns="http://www.w3.org/2000/svg" viewBox="0 0 198.24 127.3"><path d="M167.28 19.94L99.12 2.07 31 19.94H15.46L2.17 33.23c1.61 7.27 2.6 20.23 2.6 34.28s-1 27-2.6 34.29l13.29 13.29h45l38.7 10.15 38.7-10.15h45l13.29-13.29c-1.61-7.27-2.6-20.23-2.6-34.29s1-27 2.6-34.28l-13.37-13.29zm25.9 80.81v.19l-.14.14-11.39 11.38h-44.17l-38.36 10.06h-.09l-38.27-10H16.55l-.11-.1L5 100.94v-.19C6.55 93 7.4 80.86 7.4 67.51s-.85-25.46-2.34-33.23v-.19l11.49-11.53h14.76L99.12 4.78l67.82 17.78h14.75l11.53 11.53v.19c-1.48 7.77-2.33 19.88-2.33 33.23s.81 25.49 2.29 33.24z" fill="#000000"/><path d="M166.79 23.3L99.12 5.56 31.35 23.31H16.86l-11 11c1.47 7.82 2.31 19.89 2.31 33.17s-.84 25.36-2.31 33.18l11 11h44l38.22 10 38.31-10h43.95l11-11c-1.47-7.82-2.31-19.89-2.31-33.18s.84-25.35 2.31-33.17l-11-11z" fill="#000000"/><g opacity=".7"><path d="M198.24 32.57l-14.63-14.63h-16.08L99.12 0 30.71 17.94H14.64L0 32.57v.17c1.65 6.65 2.77 19.73 2.77 34.77S1.65 95.63 0 102.29v.16l14.64 14.64h45.53l39 10.21 39-10.21h45.53l14.63-14.64v-.16c-1.65-6.66-2.77-19.73-2.77-34.78s1.12-28.12 2.77-34.77zm-4.77 34.94c0 14.06 1 27 2.6 34.29l-13.29 13.29h-45l-38.7 10.15-38.7-10.15h-45L2.17 101.8c1.61-7.27 2.6-20.23 2.6-34.29s-1-27-2.6-34.28l13.29-13.29H31L99.12 2.07l68.16 17.87h15.5l13.29 13.29c-1.61 7.27-2.6 20.23-2.6 34.28z" fill="#000000"/><path d="M193.22 34.09l-11.53-11.53h-14.75L99.12 4.78 31.31 22.56H16.55L5 34.09v.19c1.55 7.77 2.4 19.88 2.4 33.23S6.55 93 5.06 100.75v.19l11.41 11.42.11.1h44.18L99 122.5h.09l38.36-10.06h44.21l11.39-11.38.14-.14v-.19c-1.48-7.77-2.33-19.89-2.33-33.24s.85-25.46 2.33-33.23zm-3.12 33.42c0 13.29.84 25.36 2.31 33.18l-11 11h-43.98l-38.31 10-38.22-10h-44l-11-11c1.41-7.82 2.25-19.89 2.25-33.18s-.84-25.35-2.31-33.17l11-11h14.51L99.12 5.56l67.67 17.74h14.59l11 11c-1.44 7.86-2.28 19.93-2.28 33.21z" fill="#000000"/></g></svg>