<svg xmlns="http://www.w3.org/2000/svg" viewBox="0 0 198.24 114.43"><path d="M194.24 33.92v67.35a13.92 13.92 0 0 0-9.16 9.16H13.16A13.9 13.9 0 0 0 4 101.27V33.92a13.88 13.88 0 0 0 9.16-9.16h3.37l1.17-1.86C22.59 15.17 54.4 4 99.12 4s76.53 11.17 81.42 18.9l1.18 1.86h3.36a13.9 13.9 0 0 0 9.16 9.16z" fill="#000000"/><path d="M188.49 20.76h-4.57C177.55 10.7 142 0 99.12 0s-78.43 10.7-84.8 20.76H9.76A9.76 9.76 0 0 1 0 30.52v74.16a9.75 9.75 0 0 1 9.76 9.75h178.73a9.74 9.74 0 0 1 9.75-9.75V30.52a9.75 9.75 0 0 1-9.75-9.76zm7.75 82.06l-.76.18a11.89 11.89 0 0 0-8.67 8.67l-.18.76h-175l-.18-.76A11.89 11.89 0 0 0 2.76 103l-.76-.18V32.37l.77-.18a11.9 11.9 0 0 0 8.66-8.66l.18-.77h3.81l.59-.93C21.14 13.72 53.69 2 99.12 2s78 11.72 83.11 19.83l.59.93h3.81l.18.77a11.89 11.89 0 0 0 8.67 8.66l.76.18z" fill="#000000"/><path d="M186.63 112.43h-175l-.18-.76A11.89 11.89 0 0 0 2.76 103l-.76-.18V32.37l.77-.18a11.9 11.9 0 0 0 8.66-8.66l.18-.77h3.81l.59-.93C21.14 13.72 53.69 2 99.12 2s78 11.72 83.11 19.83l.59.93h3.81l.18.77a11.89 11.89 0 0 0 8.67 8.66l.76.18v70.45l-.76.18a11.89 11.89 0 0 0-8.67 8.67zm-173.47-2h171.92a13.92 13.92 0 0 1 9.16-9.16V33.92a13.9 13.9 0 0 1-9.16-9.16h-3.36l-1.18-1.86C175.65 15.17 143.84 4 99.12 4S22.59 15.17 17.7 22.9l-1.17 1.86h-3.37A13.88 13.88 0 0 1 4 33.92v67.35a13.9 13.9 0 0 1 9.16 9.16zm171.38-.75H13.71l-.06-.16a14.77 14.77 0 0 0-8.74-8.74l-.16-.06V34.47l.16-.06a14.76 14.76 0 0 0 8.74-8.73l.06-.17h3.23l1.4-2.21c4.21-6.66 34.81-18.55 80.78-18.55s76.57 11.89 80.79 18.55l1.39 2.21h3.24l.05.17a14.78 14.78 0 0 0 8.74 8.73l.16.06v66.25l-.16.06a14.8 14.8 0 0 0-8.74 8.74zm-170.48-.5h170.13a15.25 15.25 0 0 1 8.8-8.81V34.82a15.25 15.25 0 0 1-8.8-8.81H181l-1.55-2.44C175.32 17 144.91 5.25 99.12 5.25S22.92 17 18.76 23.57L17.21 26h-3.15a15.3 15.3 0 0 1-8.81 8.81v65.55a15.3 15.3 0 0 1 8.81 8.82z" opacity=".8" fill="#000000"/></svg>