<svg xmlns="http://www.w3.org/2000/svg" viewBox="0 0 170.08 137.86"><path d="M143.84 43.87a64.7 64.7 0 0 0-117.6 0l-1.63 3.66H6.17v42.8h18.44L26.24 94a64.7 64.7 0 0 0 117.6 0l1.63-3.66h18.44V47.53h-18.44z" fill="#000000"/><path d="M164.6 41.36h-15.13a70.86 70.86 0 0 0-128.86 0H5.48A5.48 5.48 0 0 0 0 46.84V91a5.48 5.48 0 0 0 5.48 5.5h15.13a70.86 70.86 0 0 0 128.86 0h15.13a5.48 5.48 0 0 0 5.48-5.5V46.84a5.48 5.48 0 0 0-5.48-5.48zm.31 50h-18.8l-1.36 3.06a65.69 65.69 0 0 1-119.42 0L24 91.33H5.17v-44.8H24l1.37-3.07a65.7 65.7 0 0 1 119.42 0l1.37 3.07h18.79z" fill="#000000"/></svg>