<svg xmlns="http://www.w3.org/2000/svg" viewBox="0 0 200 178.1"><path d="M185.46 28.1c-20.75-.49-31.85-9.32-37.07-13.15C136.29 6.08 119.92.48 101.8 0c-1.42-.06-3.22 0-3.65 0-18.1.49-34.46 6.08-46.54 15-5.22 3.78-16.32 12.61-37.07 13.1-5.44.13-14.54 0-14.54 0v150h200v-150s-9.1.13-14.54 0zm7.54 143H7V35.16h1.35c2.56 0 4.69 0 6.35-.06 22.11-.52 34.46-9.64 40.39-14l.66-.49C67.12 12.25 82.24 7.44 98.32 7h3.32c16.1.4 31.24 5.21 42.62 13.57l.66.48c5.93 4.38 18.27 13.5 40.39 14 1.66 0 3.79.06 6.35.06H193z" fill="#000000"/><path d="M140.76 26.71l-.65-.47c-10.24-7.51-24-11.85-38.71-12.21H98.5c-14.67.37-28.38 4.7-38.6 12.2l-.65.48c-6.51 4.81-20 14.82-44.38 15.39H14v122h172v-122h-.87c-24.33-.57-37.87-10.58-44.37-15.39zM183 161.1H17V45c24-1.07 37.46-11 44-15.88l.64-.47C71.41 21.51 84.51 17.38 98.57 17h2.73c14.15.34 27.3 4.47 37.05 11.63l.64.47c6.56 4.85 20 14.8 44 15.9z" fill="#000000"/></svg>