<svg xmlns="http://www.w3.org/2000/svg" viewBox="0 0 105.02 100"><path d="M52.51 96.44c-11.33.16-22.58-7-32.07-15.9C11.13 71.5 3.57 60.79 3.74 50c-.17-10.79 7.39-21.5 16.7-30.54C29.93 10.6 41.18 3.4 52.51 3.56c11.33-.16 22.58 7 32.07 15.9 9.31 9 16.87 19.75 16.7 30.54.17 10.79-7.39 21.5-16.7 30.54-9.49 8.86-20.74 16.06-32.07 15.9zm0-96.44C40.68-.2 28.73 7.89 18.4 17.52 8.28 27.36-.21 38.74 0 50c-.21 11.26 8.28 22.64 18.4 32.48C28.73 92.11 40.68 100.2 52.51 100c11.83.2 23.78-7.89 34.11-17.52C96.73 72.64 105.23 61.26 105 50c.22-11.26-8.28-22.64-18.39-32.48C76.29 7.89 64.34-.2 52.51 0z" fill="#333"/><path d="M97.86 50.13c.14 9.63-7.11 19.36-15.79 27.77-8.87 8.23-19.13 15.15-29.28 15-10.16.18-20.42-6.74-29.29-15-8.68-8.41-16-18.14-15.78-27.77-.19-9.63 7.1-19.36 15.78-27.77 8.87-8.24 19.13-15.15 29.29-15 10.15-.17 20.41 6.74 29.28 15C90.75 30.77 98 40.5 97.86 50.13z" fill="#e56340"/></svg>