<svg viewBox="0 0 88 94" xmlns="http://www.w3.org/2000/svg"><path d="M55 3.35l21.301 12.3a22 22 0 0 1 11 19.052v24.596a22 22 0 0 1-11 19.053L55 90.649a22 22 0 0 1-22 0L11.699 78.351a22 22 0 0 1-11-19.053V34.702a22 22 0 0 1 11-19.053L33 3.351a22 22 0 0 1 22 0zm-1.5 2.6a19 19 0 0 0-18.646-.2l-.354.2-21.301 12.298a19 19 0 0 0-9.497 16.078l-.003.377v24.596a19 19 0 0 0 9.175 16.263l.325.192L34.5 88.05a19 19 0 0 0 18.646.2l.354-.2 21.301-12.298a19 19 0 0 0 9.497-16.078l.003-.377V34.702a19 19 0 0 0-9.175-16.263l-.325-.192L53.5 5.95z" fill="#333"/></svg>