<svg viewBox="0 0 65 65" xmlns="http://www.w3.org/2000/svg"><path d="M34.014 0c7.873.404 14.938 3.533 20.388 8.478l-2.12 2.12C47.439 6.157 40.979 3.33 34.015 2.927V0zm22.508 10.598c4.945 5.45 8.074 12.515 8.478 20.388h-3.028c-.303-7.065-3.129-13.424-7.57-18.269l2.12-2.12zM65 34.014c-.404 7.873-3.533 14.938-8.478 20.388l-2.12-2.12a28.99 28.99 0 0 0 7.57-18.268H65zM54.402 56.522c-5.45 4.945-12.515 8.074-20.388 8.478v-3.028a28.99 28.99 0 0 0 18.269-7.57l2.12 2.12zM30.986 65c-7.873-.404-14.938-3.533-20.388-8.478l2.12-2.12c4.844 4.441 11.203 7.267 18.268 7.57V65zM8.478 54.402C3.533 48.952.404 41.887 0 34.014h2.927c.404 6.964 3.23 13.424 7.67 18.269l-2.119 2.12zM0 30.986c.404-7.873 3.533-14.938 8.478-20.388l2.12 2.12C6.157 17.561 3.33 23.92 2.927 30.985H0zM10.598 8.478C16.048 3.533 23.113.404 30.986 0v2.927c-7.065.404-13.424 3.23-18.269 7.67l-2.12-2.119z" fill="#000" fill-rule="evenodd"/></svg>