<svg xmlns="http://www.w3.org/2000/svg" viewBox="0 0 83.14 54.19"><path d="M36.06 53.77a.53.53 0 0 0 .23-.19l.11-.23a2 2 0 0 0 .05-.24v-.37a.33.33 0 0 0-.13-.23 35.15 35.15 0 0 1-15.51-6 33.79 33.79 0 0 1-9-9.34c-.26-.4-.55-.78-.76-1.18s-.44-.8-.65-1.2a19 19 0 0 1-1.15-2.3c-.33-.77-.64-1.5-.94-2.22l-.71-2.11c-.1-.34-.21-.68-.31-1s-.15-.67-.21-1c-.14-.66-.27-1.29-.4-1.89 0-.15-.06-.31-.09-.45s0-.31 0-.45l-.09-.88c-.06-.57-.12-1.12-.17-1.65a33.87 33.87 0 0 1 .1-5.53A27.1 27.1 0 0 1 7 11.17 34.94 34.94 0 0 1 9 4.8v-.03H8.57A34.51 34.51 0 0 0 6.39 11a27.76 27.76 0 0 0-.67 4.21 34.31 34.31 0 0 0-.17 5.63c0 .54.1 1.11.16 1.69 0 .3 0 .59.08.9v.46l.09.46.38 1.94.21 1c.1.34.2.68.31 1 .21.71.43 1.44.66 2.2l.93 2.28a20.79 20.79 0 0 0 1.16 2.38l.65 1.23c.22.42.51.81.77 1.22a34.73 34.73 0 0 0 9.18 9.72l1.6 1.11c.54.37 1.15.66 1.73 1s1.18.69 1.82 1l1.95.85 1 .43 1.06.34 2.15.68c.74.19 1.51.33 2.27.5s1.6.4 2.35.54z" fill="#000000"/><path d="M7.87 3.94a3 3 0 0 1 0-2.42A2.32 2.32 0 0 1 8.4.84 3.74 3.74 0 0 1 9.86.16h.15a5.55 5.55 0 0 1 .68-.16h.44v.09l.09.21c0 .11.1.25.15.41l.13.29c0 .08.05.16.07.24a4.42 4.42 0 0 1 .18 1.5 1.8 1.8 0 0 1-.21.76 3.2 3.2 0 0 1-1.85 1.27l-.24.07-.26.08c-.16 0-.48.51-.69.76s-.25.26-.31.27L8.1 6s.26-1 .12-1.27a4 4 0 0 1-.3-.62s-.03-.11-.05-.17zM5.45 7.74a5.79 5.79 0 0 1-.77-.52 3.07 3.07 0 0 1-1-1.43 2.74 2.74 0 0 1-.1-.94 4.27 4.27 0 0 1 .54-1.6l.08-.14a4.43 4.43 0 0 1 .4-.58c.18-.21.3-.33.3-.33h.09l.21.12.4.24.23.16.17.21a5.35 5.35 0 0 1 1.2 1.22 3 3 0 0 1 .45.85 2.81 2.81 0 0 1 0 1.58 3.79 3.79 0 0 1-.28.74 2.12 2.12 0 0 0-.11.21l-.13.22c-.09.13 0 .74.09 1.07s0 .37 0 .41v.07s-.58-1-.85-1.13a6.46 6.46 0 0 1-.67-.32zM4.05 13.45A8.5 8.5 0 0 1 3.2 13a3.5 3.5 0 0 1-1.32-1.4 3.23 3.23 0 0 1-.27-1 5 5 0 0 1 .27-1.81l.06-.16A5 5 0 0 1 2.25 8a3.83 3.83 0 0 1 .25-.41h.09l.24.1.44.2.26.11.25.14A6.24 6.24 0 0 1 5.2 9.31a3.56 3.56 0 0 1 .56.83A3.27 3.27 0 0 1 6 11.86a5 5 0 0 1-.15.82c0 .08-.05.16-.07.24s-.06.17-.08.25.2.79.31 1.14.09.39.07.44v.09s-.81-1-1.1-1.08-.46-.14-.74-.25zM3.58 19.87a5.13 5.13 0 0 1-.93-.32A3.86 3.86 0 0 1 1 18.24a3.35 3.35 0 0 1-.49-1 3.06 3.06 0 0 1-.15-1 9.55 9.55 0 0 1 .08-1v-.17a7.55 7.55 0 0 1 .18-.8c.09-.3.16-.48.16-.48h.11l.25.07.49.16.29.11.28.12a6.58 6.58 0 0 1 1.68 1 3.9 3.9 0 0 1 .71.81A3.32 3.32 0 0 1 5 17a4.55 4.55 0 0 1 .22.92 5.32 5.32 0 0 1 0 .88v.56a5.11 5.11 0 0 0 .5 1.17c.17.28.2.4.19.46v.09l-.57-.46a2.69 2.69 0 0 0-.77-.52 6.47 6.47 0 0 1-.8-.14zM4.35 27a5.55 5.55 0 0 1-1.07-.2 4.41 4.41 0 0 1-2-1.11 3.88 3.88 0 0 1-.75-1A6.58 6.58 0 0 1 0 22.5v-.2a8.55 8.55 0 0 1 0-.88 5.43 5.43 0 0 1 0-.55H.44L1 21l.32.07.32.08a7.57 7.57 0 0 1 2 .83 4.71 4.71 0 0 1 .93.75 5.55 5.55 0 0 1 1 1.81 7.18 7.18 0 0 1 .27 1v.29a2.91 2.91 0 0 0 0 .31 5.48 5.48 0 0 0 .81 1.14 1.18 1.18 0 0 1 .31.46v.1l-.71-.39A2.87 2.87 0 0 0 5.4 27a6.51 6.51 0 0 1-.86 0zM6.68 34.3a7.42 7.42 0 0 1-1 0 5.12 5.12 0 0 1-2.45-.83 5.06 5.06 0 0 1-1.05-1 8 8 0 0 1-1-2.17L1 30.12a9.53 9.53 0 0 1-.23-.93c0-.19-.05-.33-.06-.43s0-.17 0-.17h1.71a8.62 8.62 0 0 1 2.22.54 5.38 5.38 0 0 1 1.15.63 4.66 4.66 0 0 1 .9.87 8.47 8.47 0 0 1 .7.94 8.45 8.45 0 0 1 .47.87q.06.16.12.3c0 .11.08.22.12.31a4.48 4.48 0 0 0 1.17 1c.32.24.42.36.44.42v.1l-.84-.27a3.66 3.66 0 0 0-1.1-.23c-.24 0-.55.1-.9.13zM10.58 41.14a7 7 0 0 1-1 .19 5.72 5.72 0 0 1-2.9-.42 6 6 0 0 1-1.32-.82A7.6 7.6 0 0 1 3.69 38c0-.08-.08-.14-.12-.21-.19-.36-.34-.69-.45-.94a3.89 3.89 0 0 1-.23-.61h.13l.29-.06.6-.08h.75a9.78 9.78 0 0 1 2.46.19 6.15 6.15 0 0 1 1.35.46 8.43 8.43 0 0 1 2.24 1.66c.23.25.44.5.62.74l.2.28.2.31a7.62 7.62 0 0 0 1.54.79 1.62 1.62 0 0 1 .56.35l.06.1-1-.12a4 4 0 0 0-1.22 0 7.35 7.35 0 0 1-.92.32zM16.52 47.56a9.4 9.4 0 0 1-1 .41 6.77 6.77 0 0 1-1.49.32 5.79 5.79 0 0 1-.84 0 4.92 4.92 0 0 1-.83-.13 6.41 6.41 0 0 1-1.58-.59 9.85 9.85 0 0 1-1.3-.81 7.57 7.57 0 0 1-1-1l-.17-.19c-.29-.34-.53-.65-.71-.89s-.39-.59-.39-.59h.12l.28-.09.6-.2.39-.11.4-.1a10.36 10.36 0 0 1 2.59-.27 8.23 8.23 0 0 1 1.53.2 7.41 7.41 0 0 1 2.76 1.2c.3.23.61.43.88.62l.3.23.31.25a8.91 8.91 0 0 0 1.79.49 2.5 2.5 0 0 1 .67.22l.1.09h-.32c-.19 0-.45.05-.71.07a4.24 4.24 0 0 0-1.27.21 8.3 8.3 0 0 1-.87.52zM24 52.61a7.35 7.35 0 0 1-1 .69 7 7 0 0 1-3.19.88 7.54 7.54 0 0 1-.95 0 6.71 6.71 0 0 1-.89-.19A11.88 11.88 0 0 1 15 52.66a2 2 0 0 1-.24-.16c-.38-.29-.7-.56-.95-.78s-.55-.53-.55-.53l.12-.08.28-.18c.16-.09.35-.2.59-.32l.37-.18.37-.17a13.09 13.09 0 0 1 2.66-.82 8.4 8.4 0 0 1 1.68-.16 11.69 11.69 0 0 1 3.13.56 11.26 11.26 0 0 1 1.18.45l.37.17.38.19a7.33 7.33 0 0 0 2 0 2.25 2.25 0 0 1 .77 0l.12.07-1 .35a5.22 5.22 0 0 0-1.3.57 10.12 10.12 0 0 1-.79.75zM8.93 10.45a4.68 4.68 0 0 0 2.52-.45 1.67 1.67 0 0 0 .55-.47 2.48 2.48 0 0 0 .51-1.17v-.11c0-.21.06-.39.07-.54a3.26 3.26 0 0 0 0-.35h-.09l-.23-.08-.44-.13-.24-.15h-.27a5 5 0 0 0-1.69-.08 2.2 2.2 0 0 0-.84.28 2.55 2.55 0 0 0-1.17 1.91 2.23 2.23 0 0 0 0 .23v.24a5.44 5.44 0 0 1-.62.85c-.16.21-.2.32-.19.37v.08a4.12 4.12 0 0 1 1.2-.52c.2 0 .45.06.73.08zM8.17 15.61a5 5 0 0 0 2.54-.92 2.61 2.61 0 0 0 .52-.64 2.86 2.86 0 0 0 .39-1.3v-.13a3.6 3.6 0 0 0 0-.56 2.46 2.46 0 0 0 0-.37h-.35l-.48-.05h-.58a5.59 5.59 0 0 0-1.78.23 2.52 2.52 0 0 0-.84.45 2.81 2.81 0 0 0-1 2.23v.5a4.81 4.81 0 0 1-.55 1c-.15.25-.17.36-.16.42v.08s1-.8 1.29-.8h.77zM8.24 21.27a7.93 7.93 0 0 0 1.32-.58 5.13 5.13 0 0 0 1.16-.91 2.66 2.66 0 0 0 .5-.77 3.14 3.14 0 0 0 .21-1.44v-.14c0-.23 0-.43-.06-.59a2.81 2.81 0 0 0-.07-.37h-1.18l-.3.05a5.59 5.59 0 0 0-1.82.67 2.89 2.89 0 0 0-.79.64 3.66 3.66 0 0 0-.74 2.56 1.09 1.09 0 0 0 0 .26q0 .15.06.27a5.33 5.33 0 0 1-.39 1.19c-.1.3-.11.43-.09.48v.09s.21-.27.47-.54a2.3 2.3 0 0 1 .71-.59c.21-.05.48-.12.78-.22zM9.46 27.39a7.19 7.19 0 0 0 2.29-2.15 3.4 3.4 0 0 0 .37-.93 4.35 4.35 0 0 0 0-1.57v-.13A4.69 4.69 0 0 0 12 22a3.68 3.68 0 0 0-.13-.38h-.11l-.27.06-.51.14-.31.11-.3.11a6.17 6.17 0 0 0-1.77 1 3 3 0 0 0-.74.86 4.24 4.24 0 0 0-.31 2.89 2.13 2.13 0 0 0 .07.27c0 .1.08.19.11.28a6.49 6.49 0 0 1-.17 1.37 1.12 1.12 0 0 0 0 .54v.08s.17-.34.38-.69a2.61 2.61 0 0 1 .61-.79c.21-.11.47-.24.75-.41zM12.05 33.5a9.76 9.76 0 0 0 1.06-1.27 7 7 0 0 0 .8-1.53 4 4 0 0 0 .21-1.07 4.86 4.86 0 0 0-.28-1.63v-.14a6.3 6.3 0 0 0-.24-.62 2.86 2.86 0 0 0-.2-.36l-.11.05L13 27l-.49.26-.3.18-.28.18a6.92 6.92 0 0 0-1.61 1.48 3.24 3.24 0 0 0-.58 1.08 4.65 4.65 0 0 0 .26 3.17l.14.27.16.28a6.81 6.81 0 0 1 .09 1.51 1.31 1.31 0 0 0 .1.59l.07.09s.1-.41.24-.84a2.86 2.86 0 0 1 .46-1c.19-.16.42-.37.67-.62zM15.92 39a8.43 8.43 0 0 0 1.25-3.38 4.38 4.38 0 0 0 0-1.2 5 5 0 0 0-.6-1.72.91.91 0 0 0-.07-.14 3.82 3.82 0 0 0-.35-.6 3.66 3.66 0 0 0-.27-.35l-.1.07-.24.18-.44.39-.27.25-.24.25a7 7 0 0 0-1.34 1.92 3.77 3.77 0 0 0-.36 1.33 4.93 4.93 0 0 0 .2 1.85 4.85 4.85 0 0 0 .3.81c.14.24.29.47.43.67l.2.26.22.27a9.2 9.2 0 0 1 .41 1.63 1.06 1.06 0 0 0 .26.6l.09.07v-.28a5.33 5.33 0 0 1 0-.65 3.37 3.37 0 0 1 .27-1.23c.15-.21.34-.48.53-.8zM21.36 44.1a9.8 9.8 0 0 0 .45-3.86 6.11 6.11 0 0 0-.32-1.24 5 5 0 0 0-1-1.71l-.12-.12a2.6 2.6 0 0 0-.28-.29l-.22-.25a3.6 3.6 0 0 0-.34-.32l-.08.1-.2.24-.36.5-.21.33c-.07.1-.13.21-.2.32a8 8 0 0 0-.48 1.09 6.64 6.64 0 0 0-.35 1.22 5.14 5.14 0 0 0-.06 1.42 4.54 4.54 0 0 0 .63 1.91 8 8 0 0 0 1.13 1.38l.26.24.28.24c.15.17.59 1.07.88 1.58a1.58 1.58 0 0 0 .41.57l.11.06s-.12-.48-.22-1a3.66 3.66 0 0 1-.07-1.24c.1-.26.21-.58.32-1zM28 47.76a13.82 13.82 0 0 0-.11-2 9.3 9.3 0 0 0-.19-1 7.4 7.4 0 0 0-.29-1 6 6 0 0 0-.62-1.21 9.94 9.94 0 0 0-1.4-1.55l-.13-.11a7.54 7.54 0 0 0-.65-.44c-.26-.15-.43-.23-.43-.23l-.06.12c0 .08-.08.18-.14.3s-.15.35-.24.59l-.13.37c0 .12-.07.24-.11.37a7.75 7.75 0 0 0-.32 2.55A6 6 0 0 0 23.5 46a5.27 5.27 0 0 0 1.16 1.8 6 6 0 0 0 1.49 1.2l.34.18.36.16a12.09 12.09 0 0 1 1.32 1.47c.33.39.51.48.59.5h.13l-.17-.28a7.12 7.12 0 0 1-.34-.68 4.15 4.15 0 0 1-.38-1.29c0-.28.06-.65.07-1.06-.07-.08-.07-.16-.07-.24zM47.08 53.77a.53.53 0 0 1-.23-.19l-.12-.23a2 2 0 0 0 0-.24v-.37a.32.32 0 0 1 .14-.23 35.06 35.06 0 0 0 15.5-6 33.69 33.69 0 0 0 9-9.34c.25-.4.54-.78.76-1.18l.65-1.2a19 19 0 0 0 1.15-2.3l.93-2.22c.24-.73.46-1.44.67-2.13.11-.34.22-.68.32-1l.21-1q.21-1 .39-1.89c0-.15.06-.31.1-.45s0-.31 0-.45c0-.3.07-.59.1-.88.06-.57.11-1.12.17-1.65a35 35 0 0 0-.1-5.53 29.86 29.86 0 0 0-.61-4.13 34.94 34.94 0 0 0-2-6.37h.49A35.26 35.26 0 0 1 76.75 11a29.07 29.07 0 0 1 .67 4.21 35.46 35.46 0 0 1 .17 5.63c0 .54-.11 1.11-.16 1.69 0 .3-.06.59-.08.9v.46l-.09.46-.38 1.94c-.06.34-.13.68-.2 1s-.21.68-.31 1c-.22.71-.44 1.44-.66 2.2s-.61 1.49-.94 2.28a20.68 20.68 0 0 1-1.15 2.38l-.65 1.23c-.22.42-.51.81-.77 1.22a34.78 34.78 0 0 1-9.2 9.81l-1.59 1.11c-.54.37-1.15.66-1.74 1s-1.18.69-1.81 1l-2 .85-1 .43-1 .34-2.15.68c-.75.19-1.51.33-2.28.5s-1.61.31-2.35.45z" fill="#000000"/><path d="M75.27 3.94a3 3 0 0 0 0-2.42 2.17 2.17 0 0 0-.56-.68 3.74 3.74 0 0 0-1.44-.68h-.14a5.55 5.55 0 0 0-.68-.16H72v.09l-.12.21c0 .11-.1.25-.16.41s0 .16-.08.25a2.17 2.17 0 0 0-.07.24 4.42 4.42 0 0 0-.19 1.5 2 2 0 0 0 .21.76 3.25 3.25 0 0 0 1.86 1.31l.24.07.25.08c.16 0 .48.51.69.76s.26.26.31.27L75 6a3.5 3.5 0 0 1-.13-1.27 3.27 3.27 0 0 0 .3-.62zM77.69 7.74a5.71 5.71 0 0 0 .76-.52 3.09 3.09 0 0 0 1-1.43 2.73 2.73 0 0 0 .09-.94 4.1 4.1 0 0 0-.54-1.6v-.14a4.41 4.41 0 0 0-.41-.58 3.41 3.41 0 0 0-.3-.33h-.09l-.2.16-.39.24c-.08 0-.15.11-.24.16l-.22.17a5.35 5.35 0 0 0-1.2 1.22 3 3 0 0 0-.41.82 2.81 2.81 0 0 0 0 1.58 3.79 3.79 0 0 0 .28.74l.11.21.12.22A3.3 3.3 0 0 1 76 8.79v.48s.59-1 .86-1.13.42-.18.67-.32zM79.08 13.45a7.66 7.66 0 0 0 .86-.43 3.47 3.47 0 0 0 1.31-1.4 3 3 0 0 0 .27-1 5 5 0 0 0-.27-1.81 1.42 1.42 0 0 0 0-.16 4.89 4.89 0 0 0-.37-.65c-.14-.26-.24-.41-.24-.41h-.1l-.23.1-.44.2-.26.11-.25.14a6 6 0 0 0-1.42 1.14 3.56 3.56 0 0 0-.56.83 3.27 3.27 0 0 0-.25 1.72 5 5 0 0 0 .14.82 2.17 2.17 0 0 1 .07.24l.09.25c.07.16-.2.79-.31 1.14s-.1.39-.08.44v.09s.81-1 1.1-1.08.46-.14.74-.25zM79.56 19.87a5.41 5.41 0 0 0 .93-.32 4 4 0 0 0 1.65-1.31 3.86 3.86 0 0 0 .49-1 3.05 3.05 0 0 0 .14-1 7.34 7.34 0 0 0-.07-1v-.17c-.06-.31-.13-.58-.19-.8a3.55 3.55 0 0 0-.16-.48h-.1l-.25.07-.49.16-.3.11-.28.12a6.71 6.71 0 0 0-1.67 1 4.26 4.26 0 0 0-.72.81 3.29 3.29 0 0 0-.39.91 3.51 3.51 0 0 0-.22.92 4.42 4.42 0 0 0 0 .88v.56a5.22 5.22 0 0 1-.51 1.17c-.16.28-.19.4-.18.46V21l.58-.46a2.69 2.69 0 0 1 .77-.52 6 6 0 0 0 .79-.14zM78.78 27a5.5 5.5 0 0 0 1.08-.2 4.46 4.46 0 0 0 2-1.11 4.38 4.38 0 0 0 .75-1 7.14 7.14 0 0 0 .51-2.14v-.2-.88-.55h-.4l-.53.09-.33.07-.31.08a7.43 7.43 0 0 0-2 .83 4.2 4.2 0 0 0-.93.75 5.55 5.55 0 0 0-1 1.81 7.18 7.18 0 0 0-.27 1v.6a5.48 5.48 0 0 1-.81 1.14 1.18 1.18 0 0 0-.31.46v.1l.71-.39a2.9 2.9 0 0 1 .93-.41 6.36 6.36 0 0 0 .85 0zM76.46 34.3a7.42 7.42 0 0 0 1.05 0 5.16 5.16 0 0 0 2.49-.84 5 5 0 0 0 1-1 7.75 7.75 0 0 0 1.06-2.17l.06-.21c.1-.36.17-.68.22-.93s.06-.33.07-.43v-.17H80.71a8.53 8.53 0 0 0-2.22.54 5.38 5.38 0 0 0-1.15.63 4.66 4.66 0 0 0-.9.87 7.48 7.48 0 0 0-.71.94 8.27 8.27 0 0 0-.46.87q-.06.16-.12.3c-.05.11-.08.22-.12.31a4.74 4.74 0 0 1-1.18 1c-.31.24-.41.36-.43.42v.1l.83-.27a3.71 3.71 0 0 1 1.11-.23c.24 0 .54.1.89.13zM72.55 41.14a7.4 7.4 0 0 0 1 .19 5.67 5.67 0 0 0 2.89-.42 6 6 0 0 0 1.33-.82A7.55 7.55 0 0 0 79.44 38l.12-.21c.2-.36.35-.69.46-.94a3.19 3.19 0 0 0 .22-.61h-.12l-.3-.06-.59-.08h-.75a9.75 9.75 0 0 0-2.46.19 6.23 6.23 0 0 0-1.36.46 8.37 8.37 0 0 0-2.23 1.66 6.58 6.58 0 0 0-.62.74l-.21.28-.2.31a7.35 7.35 0 0 1-1.54.79 1.64 1.64 0 0 0-.55.35l-.06.1.94-.12a4 4 0 0 1 1.22 0 7.56 7.56 0 0 0 .93.32zM66.62 47.56a9.21 9.21 0 0 0 1 .41 6.87 6.87 0 0 0 1.5.32 5.71 5.71 0 0 0 .83 0 4.92 4.92 0 0 0 .83-.13 6.12 6.12 0 0 0 1.58-.59 9.24 9.24 0 0 0 1.3-.81 7.68 7.68 0 0 0 1-1l.17-.19c.29-.34.53-.65.7-.89a7.07 7.07 0 0 0 .39-.59h-.12l-.3-.12-.6-.2-.39-.11-.38-.09a10.3 10.3 0 0 0-2.59-.27 8.34 8.34 0 0 0-1.53.2 7.48 7.48 0 0 0-2.76 1.2c-.3.23-.6.43-.88.62l-.3.23-.3.25a9.11 9.11 0 0 1-1.79.49 2.85 2.85 0 0 0-.68.22l-.09.09h.31c.2 0 .45.05.71.07a4.11 4.11 0 0 1 1.27.21 9.82 9.82 0 0 0 .88.52zM59.14 52.61a8.1 8.1 0 0 0 1.06.69 7 7 0 0 0 3.19.88 7.38 7.38 0 0 0 .94 0 6.38 6.38 0 0 0 .89-.19 12 12 0 0 0 2.9-1.3 1.88 1.88 0 0 0 .23-.16c.39-.29.71-.56 1-.78s.54-.53.54-.53l-.11-.08-.29-.18-.58-.32-.38-.18-.37-.17a12.78 12.78 0 0 0-2.65-.82 8.5 8.5 0 0 0-1.69-.16 11.54 11.54 0 0 0-3.12.56 11.26 11.26 0 0 0-1.18.45l-.37.17-.38.19a7.41 7.41 0 0 1-2 0 2.29 2.29 0 0 0-.77 0l-.12.07 1.05.35a5 5 0 0 1 1.3.57 10.5 10.5 0 0 0 .8.75zM74.2 10.45a4.68 4.68 0 0 1-2.52-.45 1.88 1.88 0 0 1-.57-.51 2.58 2.58 0 0 1-.51-1.17v-.11c0-.21 0-.39-.06-.54s0-.35 0-.35h.1l.23-.08.44-.13.25-.11h.26a5.06 5.06 0 0 1 1.7-.08 2.26 2.26 0 0 1 .84.28 2.58 2.58 0 0 1 1.17 1.92v.47a5 5 0 0 0 .63.85.72.72 0 0 1 .19.37v.08a4.12 4.12 0 0 0-1.29-.52c-.2 0-.45.06-.73.08zM75 15.61a5 5 0 0 1-2.54-.92 2.44 2.44 0 0 1-.53-.64 2.73 2.73 0 0 1-.38-1.3v-.13a3.6 3.6 0 0 1 0-.56 2.46 2.46 0 0 1 0-.37H71.89l.48-.05H72.95a5.59 5.59 0 0 1 1.78.23 2.57 2.57 0 0 1 .85.45 2.84 2.84 0 0 1 1 2.23v.5a4.39 4.39 0 0 0 .55 1c.14.25.17.36.16.42v.08s-1-.8-1.29-.8h-.77zM74.9 21.27a7.93 7.93 0 0 1-1.32-.58 5.18 5.18 0 0 1-1.17-.91 2.84 2.84 0 0 1-.49-.77 3 3 0 0 1-.21-1.44v-.14-.59a2.81 2.81 0 0 1 .07-.37h1.19l.3.05a5.74 5.74 0 0 1 1.83.59 3.22 3.22 0 0 1 .79.64 3.71 3.71 0 0 1 .74 2.56v.26l-.06.27a5.2 5.2 0 0 0 .43 1.27c.11.3.12.43.1.48v.09s-.22-.27-.47-.54a2.42 2.42 0 0 0-.71-.59c-.21-.05-.48-.12-.78-.22zM73.67 27.39a7.16 7.16 0 0 1-2.28-2.15 2.87 2.87 0 0 1-.37-.93 4.35 4.35 0 0 1 0-1.57v-.13a4.87 4.87 0 0 1 .13-.61 2.49 2.49 0 0 1 .14-.38h.11l.26.06.52.14.31.11.29.11a6.09 6.09 0 0 1 1.78 1 3.17 3.17 0 0 1 .74.86 4.18 4.18 0 0 1 .3 2.89 1.19 1.19 0 0 1-.07.27c0 .1-.07.19-.11.28a6 6 0 0 0 .18 1.37 1.05 1.05 0 0 1 0 .54l-.05.08s-.17-.34-.38-.69a2.61 2.61 0 0 0-.61-.79c-.2-.11-.46-.24-.74-.41zM71.09 33.5A9 9 0 0 1 70 32.23a6.55 6.55 0 0 1-.8-1.53 3.68 3.68 0 0 1-.2-1.07 5.12 5.12 0 0 1 .29-1.63v-.14a3.5 3.5 0 0 1 .24-.62 2.86 2.86 0 0 1 .2-.36l.11.05.25.12.5.26.29.18.28.18a7.16 7.16 0 0 1 1.62 1.48 3.65 3.65 0 0 1 .58 1.08 4.71 4.71 0 0 1-.25 3.16l-.15.27c-.05.1-.11.19-.16.28a8.32 8.32 0 0 0-.09 1.51 1.17 1.17 0 0 1-.1.59l-.07.09s-.1-.41-.24-.84a3.09 3.09 0 0 0-.45-1 10.9 10.9 0 0 1-.67-.62 1.85 1.85 0 0 1-.09-.17zM67.22 39A8.43 8.43 0 0 1 66 35.66a4.4 4.4 0 0 1 0-1.2 5.42 5.42 0 0 1 .6-1.72.91.91 0 0 0 .07-.14A3.78 3.78 0 0 1 67 32a2.36 2.36 0 0 1 .27-.35l.09.07.24.18c.13.11.28.23.45.39l.26.25.25.25a7.49 7.49 0 0 1 1.34 1.92 3.76 3.76 0 0 1 .34 1.29 4.73 4.73 0 0 1-.19 1.85 5.93 5.93 0 0 1-.31.81 7 7 0 0 1-.42.67l-.21.26-.21.27a9 9 0 0 0-.42 1.63 1.09 1.09 0 0 1-.25.6l-.09.07v-.28a5.33 5.33 0 0 0 0-.65 3.63 3.63 0 0 0-.27-1.23c-.15-.21-.34-.48-.54-.8zM61.77 44.1a10 10 0 0 1-.45-3.86 6.89 6.89 0 0 1 .32-1.24 5 5 0 0 1 1-1.71l.11-.12.29-.29a1.86 1.86 0 0 1 .22-.25c.2-.21.33-.32.33-.32l.09.1.19.24.37.5c.06.11.13.21.21.33l.19.32a7 7 0 0 1 .53 1.06 6.64 6.64 0 0 1 .35 1.22 5.15 5.15 0 0 1 .05 1.42 4.28 4.28 0 0 1-.63 1.91 7.55 7.55 0 0 1-1.12 1.38l-.26.24-.28.24a17.61 17.61 0 0 0-.88 1.58 1.9 1.9 0 0 1-.41.57l-.12.06s.13-.48.22-1a3.48 3.48 0 0 0 .1-1.24c-.1-.26-.21-.58-.32-1a1.42 1.42 0 0 1-.1-.14zM55.11 47.76a13.74 13.74 0 0 1 .1-2c0-.35.12-.68.2-1a7.4 7.4 0 0 1 .29-1 5.49 5.49 0 0 1 .62-1.21A9.92 9.92 0 0 1 57.71 41l.14-.11a5.34 5.34 0 0 1 .65-.44c.26-.15.43-.23.43-.23l.06.12c0 .08.08.18.13.3s.16.35.24.59l.13.37.12.37a8 8 0 0 1 .31 2.55 6 6 0 0 1-.28 1.48 5.42 5.42 0 0 1-1.16 1.8A6 6 0 0 1 57 49l-.34.18-.36.16a13 13 0 0 0-1.3 1.47c-.33.39-.5.48-.58.5h-.13l.16-.28a4.28 4.28 0 0 0 .34-.68 3.89 3.89 0 0 0 .43-1.31c0-.28 0-.65-.07-1.06z" fill="#000000"/></svg>