<svg xmlns="http://www.w3.org/2000/svg" viewBox="0 0 691.96 668.2"><path d="M332.23 642.57a317 317 0 0 1-224.15-541.16 317 317 0 1 1 448.3 448.31 314.94 314.94 0 0 1-224.15 92.85zm0-630c-172.59 0-313 140.41-313 313s140.41 313 313 313 313-140.41 313-313-140.41-313-313-313z" fill="#000000"/><path d="M103 480.19a317 317 0 0 1 543.7-326.1A317 317 0 0 1 103 480.19zm540.27-324C554.48 8.14 361.84-40.06 213.83 48.72S17.64 330.13 106.41 478.13s281.41 196.2 429.41 107.43S732 304.15 643.25 156.14z" fill="#000000"/><path d="M464.47 648.26a317 317 0 0 1-398.3-429.48 317 317 0 0 1 585.32 22 317 317 0 0 1-187 407.44zm-219-590.71C83.63 117.55.79 298 60.79 459.84S301.26 704.5 463.08 644.5 707.74 404 647.74 242.21 407.27-2.45 245.45 57.55z" fill="#000000"/><path d="M159.69 592.27A317 317 0 0 1 42 159.69 317 317 0 0 1 474.59 42a317 317 0 0 1-74.24 581 314.89 314.89 0 0 1-240.66-30.73zM472.6 45.48C322.81-40.25 131.2 11.88 45.48 161.67S11.88 503.08 161.67 588.8s341.41 33.6 427.13-116.2 33.6-341.4-116.2-427.12z" fill="#000000"/></svg>