<svg xmlns="http://www.w3.org/2000/svg" viewBox="0 0 156.73 143.32"><path d="M156.73 68.42c0 8.9-7.11 16.32-10.32 24.06-3.33 8-3.67 18.27-9.71 24.32s-16.3 6.38-24.32 9.71c-7.74 3.21-15.16 10.32-24.06 10.32S72 129.72 64.26 126.51c-8-3.33-18.28-3.67-24.32-9.71s-6.39-16.3-9.71-24.32C27 84.74 19.9 77.32 19.9 68.42S27 52.1 30.23 44.36c3.32-8 3.66-18.28 9.71-24.32s16.29-6.39 24.32-9.71C72 7.12 79.42 0 88.32 0s16.32 7.12 24.06 10.33c8 3.32 18.27 3.66 24.32 9.71s6.38 16.3 9.71 24.32c3.21 7.74 10.32 15.16 10.32 24.06z" fill="#f5cbd8" opacity=".6"/><path d="M144.69 74.9c0 8.9-7.12 16.32-10.33 24.06-3.33 8-3.67 18.28-9.71 24.32s-16.3 6.39-24.32 9.71c-7.74 3.21-15.16 10.33-24.06 10.33S60 136.2 52.21 133c-8-3.32-18.27-3.66-24.32-9.71S21.51 107 18.18 99C15 91.22 7.85 83.8 7.85 74.9S15 58.58 18.18 50.84c3.33-8 3.67-18.27 9.71-24.31s16.3-6.39 24.32-9.72C60 13.61 67.37 6.49 76.27 6.49s16.32 7.12 24.06 10.32c8 3.33 18.27 3.67 24.32 9.72s6.38 16.29 9.71 24.31c3.21 7.74 10.33 15.16 10.33 24.06z" fill="#f5cbd8" opacity=".8"/><path d="M10.36 99.82a62.08 62.08 0 0 0-4.15-7.77C3.16 86.91 0 81.59 0 75.58s3.16-11.33 6.21-16.47a61.39 61.39 0 0 0 4.15-7.77 66.43 66.43 0 0 0 2.71-8.75c1.5-5.73 3.05-11.66 7.11-15.72s10-5.6 15.71-7.1a66.43 66.43 0 0 0 8.75-2.71 61.39 61.39 0 0 0 7.77-4.15C57.55 9.86 62.87 6.7 68.88 6.7s11.33 3.16 16.47 6.21a62.08 62.08 0 0 0 7.77 4.15 66.43 66.43 0 0 0 8.75 2.71c5.73 1.5 11.66 3.05 15.72 7.11s5.6 10 7.1 15.71a68 68 0 0 0 2.71 8.75l-.86.36a69.74 69.74 0 0 1-2.75-8.87c-1.46-5.62-3-11.42-6.86-15.3s-9.68-5.39-15.3-6.86a68.17 68.17 0 0 1-8.87-2.75 63.88 63.88 0 0 1-7.88-4.21c-5-3-10.24-6.08-16-6.08s-11 3.09-16 6.08A63.88 63.88 0 0 1 45 17.92a68.17 68.17 0 0 1-8.87 2.75c-5.62 1.47-11.42 3-15.3 6.86s-5.39 9.68-6.83 15.3a69.74 69.74 0 0 1-2.75 8.87A63.88 63.88 0 0 1 7 59.58c-3 5-6.08 10.24-6.08 16S4 86.54 7 91.58a63.88 63.88 0 0 1 4.21 7.88zM85 141.74c-6 0-11.33-3.16-16.47-6.22a62.7 62.7 0 0 0-7.77-4.15 67.94 67.94 0 0 0-8.75-2.7c-5.73-1.5-11.66-3-15.71-7.11s-5.61-10-7.11-15.72a66.9 66.9 0 0 0-2.71-8.75l.86-.35a68.17 68.17 0 0 1 2.75 8.87c1.47 5.62 3 11.42 6.86 15.3s9.68 5.39 15.3 6.86a68.17 68.17 0 0 1 8.87 2.75 63.88 63.88 0 0 1 7.88 4.21c5 3 10.24 6.08 16 6.08s11-3.09 16-6.08a63.88 63.88 0 0 1 7.88-4.21 68.17 68.17 0 0 1 8.87-2.75c5.62-1.47 11.43-3 15.3-6.86s5.4-9.68 6.87-15.3a69.71 69.71 0 0 1 2.74-8.87 64.72 64.72 0 0 1 4.21-7.89c3-5 6.09-10.24 6.09-16s-3.1-11-6.09-16a63.28 63.28 0 0 1-4.2-7.85l.86-.35a62.08 62.08 0 0 0 4.15 7.77c3 5.14 6.21 10.46 6.21 16.47s-3.16 11.32-6.21 16.47a62 62 0 0 0-4.15 7.76 70.09 70.09 0 0 0-2.71 8.75c-1.5 5.74-3 11.67-7.1 15.72s-10 5.61-15.72 7.11a67.94 67.94 0 0 0-8.75 2.7 63.42 63.42 0 0 0-7.77 4.15c-5.14 3.03-10.48 6.19-16.48 6.19z" fill="#333"/></svg>