<svg viewBox="0 0 70 65" xmlns="http://www.w3.org/2000/svg"><path d="M34.93 60.87c-15.67 0-28.37-12.701-28.37-28.371C6.56 16.83 19.26 4.13 34.93 4.13 50.6 4.13 63.3 16.831 63.3 32.5c0 15.67-12.701 28.37-28.37 28.37zm29.313-37.895l-1.671-10.559-9.532-4.849L45.49 0 34.93 1.686 24.37 0l-7.55 7.568-9.532 4.85-1.672 10.558-4.852 9.524 4.852 9.524 1.672 10.56 9.531 4.85 7.548 7.566 10.564-1.685 10.559 1.685 7.55-7.566 9.529-4.85 1.674-10.56 4.85-9.524-4.85-9.524z" fill="#000" fill-rule="evenodd"/></svg>