<svg xmlns="http://www.w3.org/2000/svg" viewBox="0 0 116.23 134.21"><path d="M58.11 0L0 33.55v67.1l58.11 33.56 58.12-33.56v-67.1zm-30 29.19c-1.94 1.32-3.88 2.63-5.86 3.88s-4 2.49-5.94 3.73l-5.28 3.13-.03 6.14c-.08 2.34-.11 4.67-.25 7s-.27 4.68-.44 7-.41 4.68-.75 7c-.34-2.33-.54-4.67-.75-7s-.34-4.67-.44-7-.17-4.67-.25-7l-.08-7v-.89l.77-.43 6.11-3.43C17 33.21 19 32.07 21.09 31s4.18-2.11 6.29-3.12 4.25-2 6.45-2.86c-1.83 1.48-3.78 2.82-5.7 4.17zm79.32 67.28l-6.12 3.43c-2.06 1.1-4.1 2.24-6.19 3.28s-4.18 2.11-6.3 3.13-4.25 2-6.44 2.86c1.86-1.46 3.78-2.8 5.7-4.15s3.92-2.63 5.92-3.89 4-2.48 6-3.72l5.27-3.14.07-6.13c.09-2.34.12-4.68.26-7s.26-4.67.44-7 .41-4.67.75-7c.34 2.34.54 4.68.75 7s.33 4.68.44 7 .17 4.68.25 7l.08 7V96z" fill="#000000"/></svg>