<svg viewBox="0 0 67 65" xmlns="http://www.w3.org/2000/svg"><path d="M56.96 6.263S47.524 0 33.149 0C17.91 0 9.339 6.263 9.339 6.263c0 4.583-4.183 8.297-9.339 8.297l.001 2.45v33.43c5.157 0 9.337 3.715 9.337 8.298 0 0 8.574 6.262 23.81 6.262 14.376 0 23.814-6.263 23.814-6.263 0-4.582 4.18-8.297 9.34-8.297V17.975L66.3 14.56c-5.159 0-9.34-3.714-9.34-8.297zm5.888 41.156l-.28.079c-4.52 1.269-7.898 4.698-8.816 8.95l-.038.176-.16.083c-2.787 1.455-10.357 4.84-20.405 4.84-10.733 0-17.838-3.321-20.393-4.749l-.154-.085-.035-.172c-.888-4.296-4.273-7.762-8.833-9.042l-.28-.08V17.58l.28-.079c4.553-1.277 7.936-4.735 8.829-9.025l.036-.173.155-.084c2.598-1.433 9.788-4.766 20.395-4.766 10.048 0 17.617 3.385 20.405 4.84l.158.084.038.176c.918 4.251 4.296 7.68 8.818 8.95l.28.08v29.836z" fill="#000" fill-rule="nonzero"/></svg>